G04 #@! TF.FileFunction,Legend,Top*
%FSLAX46Y46*%
G04 Gerber Fmt 4.6, Leading zero omitted, Abs format (unit mm)*
G04 Created by KiCad (PCBNEW 4.0.7+dfsg1-1~bpo9+1) date Thu Apr  5 11:27:44 2018*
%MOMM*%
%LPD*%
G01*
G04 APERTURE LIST*
%ADD10C,0.100000*%
%ADD11C,0.200000*%
%ADD12C,0.300000*%
%ADD13C,0.120000*%
%ADD14C,0.150000*%
G04 APERTURE END LIST*
D10*
D11*
X158686667Y-95337381D02*
X159020000Y-96337381D01*
X159353334Y-95337381D01*
X160258096Y-96242143D02*
X160210477Y-96289762D01*
X160067620Y-96337381D01*
X159972382Y-96337381D01*
X159829524Y-96289762D01*
X159734286Y-96194524D01*
X159686667Y-96099286D01*
X159639048Y-95908810D01*
X159639048Y-95765952D01*
X159686667Y-95575476D01*
X159734286Y-95480238D01*
X159829524Y-95385000D01*
X159972382Y-95337381D01*
X160067620Y-95337381D01*
X160210477Y-95385000D01*
X160258096Y-95432619D01*
X161258096Y-96242143D02*
X161210477Y-96289762D01*
X161067620Y-96337381D01*
X160972382Y-96337381D01*
X160829524Y-96289762D01*
X160734286Y-96194524D01*
X160686667Y-96099286D01*
X160639048Y-95908810D01*
X160639048Y-95765952D01*
X160686667Y-95575476D01*
X160734286Y-95480238D01*
X160829524Y-95385000D01*
X160972382Y-95337381D01*
X161067620Y-95337381D01*
X161210477Y-95385000D01*
X161258096Y-95432619D01*
X159258096Y-97925000D02*
X159162858Y-97877381D01*
X159020001Y-97877381D01*
X158877143Y-97925000D01*
X158781905Y-98020238D01*
X158734286Y-98115476D01*
X158686667Y-98305952D01*
X158686667Y-98448810D01*
X158734286Y-98639286D01*
X158781905Y-98734524D01*
X158877143Y-98829762D01*
X159020001Y-98877381D01*
X159115239Y-98877381D01*
X159258096Y-98829762D01*
X159305715Y-98782143D01*
X159305715Y-98448810D01*
X159115239Y-98448810D01*
X159734286Y-98877381D02*
X159734286Y-97877381D01*
X160305715Y-98877381D01*
X160305715Y-97877381D01*
X160781905Y-98877381D02*
X160781905Y-97877381D01*
X161020000Y-97877381D01*
X161162858Y-97925000D01*
X161258096Y-98020238D01*
X161305715Y-98115476D01*
X161353334Y-98305952D01*
X161353334Y-98448810D01*
X161305715Y-98639286D01*
X161258096Y-98734524D01*
X161162858Y-98829762D01*
X161020000Y-98877381D01*
X160781905Y-98877381D01*
X139620762Y-125182381D02*
X139954095Y-126182381D01*
X140287429Y-125182381D01*
X140620762Y-126182381D02*
X140620762Y-125182381D01*
X141096952Y-126182381D02*
X141096952Y-125182381D01*
X141668381Y-126182381D01*
X141668381Y-125182381D01*
X132334096Y-125230000D02*
X132238858Y-125182381D01*
X132096001Y-125182381D01*
X131953143Y-125230000D01*
X131857905Y-125325238D01*
X131810286Y-125420476D01*
X131762667Y-125610952D01*
X131762667Y-125753810D01*
X131810286Y-125944286D01*
X131857905Y-126039524D01*
X131953143Y-126134762D01*
X132096001Y-126182381D01*
X132191239Y-126182381D01*
X132334096Y-126134762D01*
X132381715Y-126087143D01*
X132381715Y-125753810D01*
X132191239Y-125753810D01*
X132810286Y-126182381D02*
X132810286Y-125182381D01*
X133381715Y-126182381D01*
X133381715Y-125182381D01*
X133857905Y-126182381D02*
X133857905Y-125182381D01*
X134096000Y-125182381D01*
X134238858Y-125230000D01*
X134334096Y-125325238D01*
X134381715Y-125420476D01*
X134429334Y-125610952D01*
X134429334Y-125753810D01*
X134381715Y-125944286D01*
X134334096Y-126039524D01*
X134238858Y-126134762D01*
X134096000Y-126182381D01*
X133857905Y-126182381D01*
X149225000Y-83185000D02*
X149225000Y-131445000D01*
X196770952Y-130976667D02*
X197247143Y-130976667D01*
X196675714Y-131262381D02*
X197009047Y-130262381D01*
X197342381Y-131262381D01*
X197675714Y-131262381D02*
X197675714Y-130262381D01*
X198247143Y-131262381D01*
X198247143Y-130262381D01*
X198675714Y-130976667D02*
X199151905Y-130976667D01*
X198580476Y-131262381D02*
X198913809Y-130262381D01*
X199247143Y-131262381D01*
X200056667Y-131262381D02*
X199580476Y-131262381D01*
X199580476Y-130262381D01*
X200580476Y-130262381D02*
X200770953Y-130262381D01*
X200866191Y-130310000D01*
X200961429Y-130405238D01*
X201009048Y-130595714D01*
X201009048Y-130929048D01*
X200961429Y-131119524D01*
X200866191Y-131214762D01*
X200770953Y-131262381D01*
X200580476Y-131262381D01*
X200485238Y-131214762D01*
X200390000Y-131119524D01*
X200342381Y-130929048D01*
X200342381Y-130595714D01*
X200390000Y-130405238D01*
X200485238Y-130310000D01*
X200580476Y-130262381D01*
X201961429Y-130310000D02*
X201866191Y-130262381D01*
X201723334Y-130262381D01*
X201580476Y-130310000D01*
X201485238Y-130405238D01*
X201437619Y-130500476D01*
X201390000Y-130690952D01*
X201390000Y-130833810D01*
X201437619Y-131024286D01*
X201485238Y-131119524D01*
X201580476Y-131214762D01*
X201723334Y-131262381D01*
X201818572Y-131262381D01*
X201961429Y-131214762D01*
X202009048Y-131167143D01*
X202009048Y-130833810D01*
X201818572Y-130833810D01*
X184872381Y-108402381D02*
X184539047Y-107926190D01*
X184300952Y-108402381D02*
X184300952Y-107402381D01*
X184681905Y-107402381D01*
X184777143Y-107450000D01*
X184824762Y-107497619D01*
X184872381Y-107592857D01*
X184872381Y-107735714D01*
X184824762Y-107830952D01*
X184777143Y-107878571D01*
X184681905Y-107926190D01*
X184300952Y-107926190D01*
X185253333Y-108354762D02*
X185396190Y-108402381D01*
X185634286Y-108402381D01*
X185729524Y-108354762D01*
X185777143Y-108307143D01*
X185824762Y-108211905D01*
X185824762Y-108116667D01*
X185777143Y-108021429D01*
X185729524Y-107973810D01*
X185634286Y-107926190D01*
X185443809Y-107878571D01*
X185348571Y-107830952D01*
X185300952Y-107783333D01*
X185253333Y-107688095D01*
X185253333Y-107592857D01*
X185300952Y-107497619D01*
X185348571Y-107450000D01*
X185443809Y-107402381D01*
X185681905Y-107402381D01*
X185824762Y-107450000D01*
X186110476Y-107402381D02*
X186681905Y-107402381D01*
X186396190Y-108402381D02*
X186396190Y-107402381D01*
X184158095Y-112482381D02*
X184729524Y-112482381D01*
X184443809Y-113482381D02*
X184443809Y-112482381D01*
X184967619Y-112482381D02*
X185634286Y-113482381D01*
X185634286Y-112482381D02*
X184967619Y-113482381D01*
X186015238Y-113482381D02*
X186015238Y-112482381D01*
X186253333Y-112482381D01*
X186396191Y-112530000D01*
X186491429Y-112625238D01*
X186539048Y-112720476D01*
X186586667Y-112910952D01*
X186586667Y-113053810D01*
X186539048Y-113244286D01*
X186491429Y-113339524D01*
X186396191Y-113434762D01*
X186253333Y-113482381D01*
X186015238Y-113482381D01*
X184753334Y-110942381D02*
X184420000Y-110466190D01*
X184181905Y-110942381D02*
X184181905Y-109942381D01*
X184562858Y-109942381D01*
X184658096Y-109990000D01*
X184705715Y-110037619D01*
X184753334Y-110132857D01*
X184753334Y-110275714D01*
X184705715Y-110370952D01*
X184658096Y-110418571D01*
X184562858Y-110466190D01*
X184181905Y-110466190D01*
X185086667Y-109942381D02*
X185753334Y-110942381D01*
X185753334Y-109942381D02*
X185086667Y-110942381D01*
X186134286Y-110942381D02*
X186134286Y-109942381D01*
X186372381Y-109942381D01*
X186515239Y-109990000D01*
X186610477Y-110085238D01*
X186658096Y-110180476D01*
X186705715Y-110370952D01*
X186705715Y-110513810D01*
X186658096Y-110704286D01*
X186610477Y-110799524D01*
X186515239Y-110894762D01*
X186372381Y-110942381D01*
X186134286Y-110942381D01*
X197667619Y-87328572D02*
X198667619Y-87328572D01*
X197953333Y-87661906D01*
X198667619Y-87995239D01*
X197667619Y-87995239D01*
X197667619Y-88471429D02*
X198667619Y-88471429D01*
X197715238Y-88900000D02*
X197667619Y-89042857D01*
X197667619Y-89280953D01*
X197715238Y-89376191D01*
X197762857Y-89423810D01*
X197858095Y-89471429D01*
X197953333Y-89471429D01*
X198048571Y-89423810D01*
X198096190Y-89376191D01*
X198143810Y-89280953D01*
X198191429Y-89090476D01*
X198239048Y-88995238D01*
X198286667Y-88947619D01*
X198381905Y-88900000D01*
X198477143Y-88900000D01*
X198572381Y-88947619D01*
X198620000Y-88995238D01*
X198667619Y-89090476D01*
X198667619Y-89328572D01*
X198620000Y-89471429D01*
X198667619Y-90090476D02*
X198667619Y-90280953D01*
X198620000Y-90376191D01*
X198524762Y-90471429D01*
X198334286Y-90519048D01*
X198000952Y-90519048D01*
X197810476Y-90471429D01*
X197715238Y-90376191D01*
X197667619Y-90280953D01*
X197667619Y-90090476D01*
X197715238Y-89995238D01*
X197810476Y-89900000D01*
X198000952Y-89852381D01*
X198334286Y-89852381D01*
X198524762Y-89900000D01*
X198620000Y-89995238D01*
X198667619Y-90090476D01*
X202485714Y-126531667D02*
X202961905Y-126531667D01*
X202390476Y-126817381D02*
X202723809Y-125817381D01*
X203057143Y-126817381D01*
X203580952Y-125817381D02*
X203676191Y-125817381D01*
X203771429Y-125865000D01*
X203819048Y-125912619D01*
X203866667Y-126007857D01*
X203914286Y-126198333D01*
X203914286Y-126436429D01*
X203866667Y-126626905D01*
X203819048Y-126722143D01*
X203771429Y-126769762D01*
X203676191Y-126817381D01*
X203580952Y-126817381D01*
X203485714Y-126769762D01*
X203438095Y-126722143D01*
X203390476Y-126626905D01*
X203342857Y-126436429D01*
X203342857Y-126198333D01*
X203390476Y-126007857D01*
X203438095Y-125912619D01*
X203485714Y-125865000D01*
X203580952Y-125817381D01*
X199945714Y-126531667D02*
X200421905Y-126531667D01*
X199850476Y-126817381D02*
X200183809Y-125817381D01*
X200517143Y-126817381D01*
X201374286Y-126817381D02*
X200802857Y-126817381D01*
X201088571Y-126817381D02*
X201088571Y-125817381D01*
X200993333Y-125960238D01*
X200898095Y-126055476D01*
X200802857Y-126103095D01*
X189785714Y-126531667D02*
X190261905Y-126531667D01*
X189690476Y-126817381D02*
X190023809Y-125817381D01*
X190357143Y-126817381D01*
X191166667Y-125817381D02*
X190690476Y-125817381D01*
X190642857Y-126293571D01*
X190690476Y-126245952D01*
X190785714Y-126198333D01*
X191023810Y-126198333D01*
X191119048Y-126245952D01*
X191166667Y-126293571D01*
X191214286Y-126388810D01*
X191214286Y-126626905D01*
X191166667Y-126722143D01*
X191119048Y-126769762D01*
X191023810Y-126817381D01*
X190785714Y-126817381D01*
X190690476Y-126769762D01*
X190642857Y-126722143D01*
X192325714Y-126531667D02*
X192801905Y-126531667D01*
X192230476Y-126817381D02*
X192563809Y-125817381D01*
X192897143Y-126817381D01*
X193659048Y-126150714D02*
X193659048Y-126817381D01*
X193420952Y-125769762D02*
X193182857Y-126484048D01*
X193801905Y-126484048D01*
X194865714Y-126531667D02*
X195341905Y-126531667D01*
X194770476Y-126817381D02*
X195103809Y-125817381D01*
X195437143Y-126817381D01*
X195675238Y-125817381D02*
X196294286Y-125817381D01*
X195960952Y-126198333D01*
X196103810Y-126198333D01*
X196199048Y-126245952D01*
X196246667Y-126293571D01*
X196294286Y-126388810D01*
X196294286Y-126626905D01*
X196246667Y-126722143D01*
X196199048Y-126769762D01*
X196103810Y-126817381D01*
X195818095Y-126817381D01*
X195722857Y-126769762D01*
X195675238Y-126722143D01*
X197405714Y-126531667D02*
X197881905Y-126531667D01*
X197310476Y-126817381D02*
X197643809Y-125817381D01*
X197977143Y-126817381D01*
X198262857Y-125912619D02*
X198310476Y-125865000D01*
X198405714Y-125817381D01*
X198643810Y-125817381D01*
X198739048Y-125865000D01*
X198786667Y-125912619D01*
X198834286Y-126007857D01*
X198834286Y-126103095D01*
X198786667Y-126245952D01*
X198215238Y-126817381D01*
X198834286Y-126817381D01*
X175863334Y-113482381D02*
X175530000Y-113006190D01*
X175291905Y-113482381D02*
X175291905Y-112482381D01*
X175672858Y-112482381D01*
X175768096Y-112530000D01*
X175815715Y-112577619D01*
X175863334Y-112672857D01*
X175863334Y-112815714D01*
X175815715Y-112910952D01*
X175768096Y-112958571D01*
X175672858Y-113006190D01*
X175291905Y-113006190D01*
X176196667Y-112482381D02*
X176863334Y-113482381D01*
X176863334Y-112482381D02*
X176196667Y-113482381D01*
X177244286Y-113482381D02*
X177244286Y-112482381D01*
X177482381Y-112482381D01*
X177625239Y-112530000D01*
X177720477Y-112625238D01*
X177768096Y-112720476D01*
X177815715Y-112910952D01*
X177815715Y-113053810D01*
X177768096Y-113244286D01*
X177720477Y-113339524D01*
X177625239Y-113434762D01*
X177482381Y-113482381D01*
X177244286Y-113482381D01*
X195175238Y-87614286D02*
X195127619Y-87757143D01*
X195127619Y-87995239D01*
X195175238Y-88090477D01*
X195222857Y-88138096D01*
X195318095Y-88185715D01*
X195413333Y-88185715D01*
X195508571Y-88138096D01*
X195556190Y-88090477D01*
X195603810Y-87995239D01*
X195651429Y-87804762D01*
X195699048Y-87709524D01*
X195746667Y-87661905D01*
X195841905Y-87614286D01*
X195937143Y-87614286D01*
X196032381Y-87661905D01*
X196080000Y-87709524D01*
X196127619Y-87804762D01*
X196127619Y-88042858D01*
X196080000Y-88185715D01*
X195222857Y-89185715D02*
X195175238Y-89138096D01*
X195127619Y-88995239D01*
X195127619Y-88900001D01*
X195175238Y-88757143D01*
X195270476Y-88661905D01*
X195365714Y-88614286D01*
X195556190Y-88566667D01*
X195699048Y-88566667D01*
X195889524Y-88614286D01*
X195984762Y-88661905D01*
X196080000Y-88757143D01*
X196127619Y-88900001D01*
X196127619Y-88995239D01*
X196080000Y-89138096D01*
X196032381Y-89185715D01*
X195127619Y-89614286D02*
X196127619Y-89614286D01*
X195127619Y-90185715D02*
X195699048Y-89757143D01*
X196127619Y-90185715D02*
X195556190Y-89614286D01*
X192857619Y-113482381D02*
X192524285Y-113006190D01*
X192286190Y-113482381D02*
X192286190Y-112482381D01*
X192667143Y-112482381D01*
X192762381Y-112530000D01*
X192810000Y-112577619D01*
X192857619Y-112672857D01*
X192857619Y-112815714D01*
X192810000Y-112910952D01*
X192762381Y-112958571D01*
X192667143Y-113006190D01*
X192286190Y-113006190D01*
X193286190Y-112958571D02*
X193619524Y-112958571D01*
X193762381Y-113482381D02*
X193286190Y-113482381D01*
X193286190Y-112482381D01*
X193762381Y-112482381D01*
X194143333Y-113434762D02*
X194286190Y-113482381D01*
X194524286Y-113482381D01*
X194619524Y-113434762D01*
X194667143Y-113387143D01*
X194714762Y-113291905D01*
X194714762Y-113196667D01*
X194667143Y-113101429D01*
X194619524Y-113053810D01*
X194524286Y-113006190D01*
X194333809Y-112958571D01*
X194238571Y-112910952D01*
X194190952Y-112863333D01*
X194143333Y-112768095D01*
X194143333Y-112672857D01*
X194190952Y-112577619D01*
X194238571Y-112530000D01*
X194333809Y-112482381D01*
X194571905Y-112482381D01*
X194714762Y-112530000D01*
X195143333Y-112958571D02*
X195476667Y-112958571D01*
X195619524Y-113482381D02*
X195143333Y-113482381D01*
X195143333Y-112482381D01*
X195619524Y-112482381D01*
X195905238Y-112482381D02*
X196476667Y-112482381D01*
X196190952Y-113482381D02*
X196190952Y-112482381D01*
X175768096Y-117610000D02*
X175672858Y-117562381D01*
X175530001Y-117562381D01*
X175387143Y-117610000D01*
X175291905Y-117705238D01*
X175244286Y-117800476D01*
X175196667Y-117990952D01*
X175196667Y-118133810D01*
X175244286Y-118324286D01*
X175291905Y-118419524D01*
X175387143Y-118514762D01*
X175530001Y-118562381D01*
X175625239Y-118562381D01*
X175768096Y-118514762D01*
X175815715Y-118467143D01*
X175815715Y-118133810D01*
X175625239Y-118133810D01*
X176244286Y-118562381D02*
X176244286Y-117562381D01*
X176815715Y-118562381D01*
X176815715Y-117562381D01*
X177291905Y-118562381D02*
X177291905Y-117562381D01*
X177530000Y-117562381D01*
X177672858Y-117610000D01*
X177768096Y-117705238D01*
X177815715Y-117800476D01*
X177863334Y-117990952D01*
X177863334Y-118133810D01*
X177815715Y-118324286D01*
X177768096Y-118419524D01*
X177672858Y-118514762D01*
X177530000Y-118562381D01*
X177291905Y-118562381D01*
X175196667Y-115022381D02*
X175530000Y-116022381D01*
X175863334Y-115022381D01*
X176768096Y-115927143D02*
X176720477Y-115974762D01*
X176577620Y-116022381D01*
X176482382Y-116022381D01*
X176339524Y-115974762D01*
X176244286Y-115879524D01*
X176196667Y-115784286D01*
X176149048Y-115593810D01*
X176149048Y-115450952D01*
X176196667Y-115260476D01*
X176244286Y-115165238D01*
X176339524Y-115070000D01*
X176482382Y-115022381D01*
X176577620Y-115022381D01*
X176720477Y-115070000D01*
X176768096Y-115117619D01*
X177768096Y-115927143D02*
X177720477Y-115974762D01*
X177577620Y-116022381D01*
X177482382Y-116022381D01*
X177339524Y-115974762D01*
X177244286Y-115879524D01*
X177196667Y-115784286D01*
X177149048Y-115593810D01*
X177149048Y-115450952D01*
X177196667Y-115260476D01*
X177244286Y-115165238D01*
X177339524Y-115070000D01*
X177482382Y-115022381D01*
X177577620Y-115022381D01*
X177720477Y-115070000D01*
X177768096Y-115117619D01*
X175268095Y-109942381D02*
X175839524Y-109942381D01*
X175553809Y-110942381D02*
X175553809Y-109942381D01*
X176077619Y-109942381D02*
X176744286Y-110942381D01*
X176744286Y-109942381D02*
X176077619Y-110942381D01*
X177125238Y-110942381D02*
X177125238Y-109942381D01*
X177363333Y-109942381D01*
X177506191Y-109990000D01*
X177601429Y-110085238D01*
X177649048Y-110180476D01*
X177696667Y-110370952D01*
X177696667Y-110513810D01*
X177649048Y-110704286D01*
X177601429Y-110799524D01*
X177506191Y-110894762D01*
X177363333Y-110942381D01*
X177125238Y-110942381D01*
X175982381Y-108402381D02*
X175649047Y-107926190D01*
X175410952Y-108402381D02*
X175410952Y-107402381D01*
X175791905Y-107402381D01*
X175887143Y-107450000D01*
X175934762Y-107497619D01*
X175982381Y-107592857D01*
X175982381Y-107735714D01*
X175934762Y-107830952D01*
X175887143Y-107878571D01*
X175791905Y-107926190D01*
X175410952Y-107926190D01*
X176363333Y-108354762D02*
X176506190Y-108402381D01*
X176744286Y-108402381D01*
X176839524Y-108354762D01*
X176887143Y-108307143D01*
X176934762Y-108211905D01*
X176934762Y-108116667D01*
X176887143Y-108021429D01*
X176839524Y-107973810D01*
X176744286Y-107926190D01*
X176553809Y-107878571D01*
X176458571Y-107830952D01*
X176410952Y-107783333D01*
X176363333Y-107688095D01*
X176363333Y-107592857D01*
X176410952Y-107497619D01*
X176458571Y-107450000D01*
X176553809Y-107402381D01*
X176791905Y-107402381D01*
X176934762Y-107450000D01*
X177220476Y-107402381D02*
X177791905Y-107402381D01*
X177506190Y-108402381D02*
X177506190Y-107402381D01*
X175768096Y-120150000D02*
X175672858Y-120102381D01*
X175530001Y-120102381D01*
X175387143Y-120150000D01*
X175291905Y-120245238D01*
X175244286Y-120340476D01*
X175196667Y-120530952D01*
X175196667Y-120673810D01*
X175244286Y-120864286D01*
X175291905Y-120959524D01*
X175387143Y-121054762D01*
X175530001Y-121102381D01*
X175625239Y-121102381D01*
X175768096Y-121054762D01*
X175815715Y-121007143D01*
X175815715Y-120673810D01*
X175625239Y-120673810D01*
X176244286Y-121102381D02*
X176244286Y-120102381D01*
X176815715Y-121102381D01*
X176815715Y-120102381D01*
X177291905Y-121102381D02*
X177291905Y-120102381D01*
X177530000Y-120102381D01*
X177672858Y-120150000D01*
X177768096Y-120245238D01*
X177815715Y-120340476D01*
X177863334Y-120530952D01*
X177863334Y-120673810D01*
X177815715Y-120864286D01*
X177768096Y-120959524D01*
X177672858Y-121054762D01*
X177530000Y-121102381D01*
X177291905Y-121102381D01*
X212907619Y-88233334D02*
X213383810Y-87900000D01*
X212907619Y-87661905D02*
X213907619Y-87661905D01*
X213907619Y-88042858D01*
X213860000Y-88138096D01*
X213812381Y-88185715D01*
X213717143Y-88233334D01*
X213574286Y-88233334D01*
X213479048Y-88185715D01*
X213431429Y-88138096D01*
X213383810Y-88042858D01*
X213383810Y-87661905D01*
X213907619Y-88566667D02*
X212907619Y-89233334D01*
X213907619Y-89233334D02*
X212907619Y-88566667D01*
X212907619Y-89614286D02*
X213907619Y-89614286D01*
X213907619Y-89852381D01*
X213860000Y-89995239D01*
X213764762Y-90090477D01*
X213669524Y-90138096D01*
X213479048Y-90185715D01*
X213336190Y-90185715D01*
X213145714Y-90138096D01*
X213050476Y-90090477D01*
X212955238Y-89995239D01*
X212907619Y-89852381D01*
X212907619Y-89614286D01*
X207875238Y-87709524D02*
X207827619Y-87852381D01*
X207827619Y-88090477D01*
X207875238Y-88185715D01*
X207922857Y-88233334D01*
X208018095Y-88280953D01*
X208113333Y-88280953D01*
X208208571Y-88233334D01*
X208256190Y-88185715D01*
X208303810Y-88090477D01*
X208351429Y-87900000D01*
X208399048Y-87804762D01*
X208446667Y-87757143D01*
X208541905Y-87709524D01*
X208637143Y-87709524D01*
X208732381Y-87757143D01*
X208780000Y-87804762D01*
X208827619Y-87900000D01*
X208827619Y-88138096D01*
X208780000Y-88280953D01*
X207922857Y-89280953D02*
X207875238Y-89233334D01*
X207827619Y-89090477D01*
X207827619Y-88995239D01*
X207875238Y-88852381D01*
X207970476Y-88757143D01*
X208065714Y-88709524D01*
X208256190Y-88661905D01*
X208399048Y-88661905D01*
X208589524Y-88709524D01*
X208684762Y-88757143D01*
X208780000Y-88852381D01*
X208827619Y-88995239D01*
X208827619Y-89090477D01*
X208780000Y-89233334D01*
X208732381Y-89280953D01*
X207827619Y-90185715D02*
X207827619Y-89709524D01*
X208827619Y-89709524D01*
X205335238Y-87685714D02*
X205287619Y-87828571D01*
X205287619Y-88066667D01*
X205335238Y-88161905D01*
X205382857Y-88209524D01*
X205478095Y-88257143D01*
X205573333Y-88257143D01*
X205668571Y-88209524D01*
X205716190Y-88161905D01*
X205763810Y-88066667D01*
X205811429Y-87876190D01*
X205859048Y-87780952D01*
X205906667Y-87733333D01*
X206001905Y-87685714D01*
X206097143Y-87685714D01*
X206192381Y-87733333D01*
X206240000Y-87780952D01*
X206287619Y-87876190D01*
X206287619Y-88114286D01*
X206240000Y-88257143D01*
X205287619Y-88685714D02*
X206287619Y-88685714D01*
X206287619Y-88923809D01*
X206240000Y-89066667D01*
X206144762Y-89161905D01*
X206049524Y-89209524D01*
X205859048Y-89257143D01*
X205716190Y-89257143D01*
X205525714Y-89209524D01*
X205430476Y-89161905D01*
X205335238Y-89066667D01*
X205287619Y-88923809D01*
X205287619Y-88685714D01*
X205573333Y-89638095D02*
X205573333Y-90114286D01*
X205287619Y-89542857D02*
X206287619Y-89876190D01*
X205287619Y-90209524D01*
X211367619Y-87638095D02*
X211367619Y-88209524D01*
X210367619Y-87923809D02*
X211367619Y-87923809D01*
X211367619Y-88447619D02*
X210367619Y-89114286D01*
X211367619Y-89114286D02*
X210367619Y-88447619D01*
X210367619Y-89495238D02*
X211367619Y-89495238D01*
X211367619Y-89733333D01*
X211320000Y-89876191D01*
X211224762Y-89971429D01*
X211129524Y-90019048D01*
X210939048Y-90066667D01*
X210796190Y-90066667D01*
X210605714Y-90019048D01*
X210510476Y-89971429D01*
X210415238Y-89876191D01*
X210367619Y-89733333D01*
X210367619Y-89495238D01*
X202747619Y-87685714D02*
X203747619Y-87685714D01*
X203747619Y-87923809D01*
X203700000Y-88066667D01*
X203604762Y-88161905D01*
X203509524Y-88209524D01*
X203319048Y-88257143D01*
X203176190Y-88257143D01*
X202985714Y-88209524D01*
X202890476Y-88161905D01*
X202795238Y-88066667D01*
X202747619Y-87923809D01*
X202747619Y-87685714D01*
X202747619Y-89209524D02*
X202747619Y-88638095D01*
X202747619Y-88923809D02*
X203747619Y-88923809D01*
X203604762Y-88828571D01*
X203509524Y-88733333D01*
X203461905Y-88638095D01*
X203747619Y-89828571D02*
X203747619Y-89923810D01*
X203700000Y-90019048D01*
X203652381Y-90066667D01*
X203557143Y-90114286D01*
X203366667Y-90161905D01*
X203128571Y-90161905D01*
X202938095Y-90114286D01*
X202842857Y-90066667D01*
X202795238Y-90019048D01*
X202747619Y-89923810D01*
X202747619Y-89828571D01*
X202795238Y-89733333D01*
X202842857Y-89685714D01*
X202938095Y-89638095D01*
X203128571Y-89590476D01*
X203366667Y-89590476D01*
X203557143Y-89638095D01*
X203652381Y-89685714D01*
X203700000Y-89733333D01*
X203747619Y-89828571D01*
X200207619Y-87328572D02*
X201207619Y-87328572D01*
X200493333Y-87661906D01*
X201207619Y-87995239D01*
X200207619Y-87995239D01*
X201207619Y-88661905D02*
X201207619Y-88852382D01*
X201160000Y-88947620D01*
X201064762Y-89042858D01*
X200874286Y-89090477D01*
X200540952Y-89090477D01*
X200350476Y-89042858D01*
X200255238Y-88947620D01*
X200207619Y-88852382D01*
X200207619Y-88661905D01*
X200255238Y-88566667D01*
X200350476Y-88471429D01*
X200540952Y-88423810D01*
X200874286Y-88423810D01*
X201064762Y-88471429D01*
X201160000Y-88566667D01*
X201207619Y-88661905D01*
X200255238Y-89471429D02*
X200207619Y-89614286D01*
X200207619Y-89852382D01*
X200255238Y-89947620D01*
X200302857Y-89995239D01*
X200398095Y-90042858D01*
X200493333Y-90042858D01*
X200588571Y-89995239D01*
X200636190Y-89947620D01*
X200683810Y-89852382D01*
X200731429Y-89661905D01*
X200779048Y-89566667D01*
X200826667Y-89519048D01*
X200921905Y-89471429D01*
X201017143Y-89471429D01*
X201112381Y-89519048D01*
X201160000Y-89566667D01*
X201207619Y-89661905D01*
X201207619Y-89900001D01*
X201160000Y-90042858D01*
X200207619Y-90471429D02*
X201207619Y-90471429D01*
X217066905Y-121737381D02*
X217066905Y-120737381D01*
X217305000Y-120737381D01*
X217447858Y-120785000D01*
X217543096Y-120880238D01*
X217590715Y-120975476D01*
X217638334Y-121165952D01*
X217638334Y-121308810D01*
X217590715Y-121499286D01*
X217543096Y-121594524D01*
X217447858Y-121689762D01*
X217305000Y-121737381D01*
X217066905Y-121737381D01*
X218114524Y-121737381D02*
X218305000Y-121737381D01*
X218400239Y-121689762D01*
X218447858Y-121642143D01*
X218543096Y-121499286D01*
X218590715Y-121308810D01*
X218590715Y-120927857D01*
X218543096Y-120832619D01*
X218495477Y-120785000D01*
X218400239Y-120737381D01*
X218209762Y-120737381D01*
X218114524Y-120785000D01*
X218066905Y-120832619D01*
X218019286Y-120927857D01*
X218019286Y-121165952D01*
X218066905Y-121261190D01*
X218114524Y-121308810D01*
X218209762Y-121356429D01*
X218400239Y-121356429D01*
X218495477Y-121308810D01*
X218543096Y-121261190D01*
X218590715Y-121165952D01*
X217066905Y-119197381D02*
X217066905Y-118197381D01*
X217305000Y-118197381D01*
X217447858Y-118245000D01*
X217543096Y-118340238D01*
X217590715Y-118435476D01*
X217638334Y-118625952D01*
X217638334Y-118768810D01*
X217590715Y-118959286D01*
X217543096Y-119054524D01*
X217447858Y-119149762D01*
X217305000Y-119197381D01*
X217066905Y-119197381D01*
X218209762Y-118625952D02*
X218114524Y-118578333D01*
X218066905Y-118530714D01*
X218019286Y-118435476D01*
X218019286Y-118387857D01*
X218066905Y-118292619D01*
X218114524Y-118245000D01*
X218209762Y-118197381D01*
X218400239Y-118197381D01*
X218495477Y-118245000D01*
X218543096Y-118292619D01*
X218590715Y-118387857D01*
X218590715Y-118435476D01*
X218543096Y-118530714D01*
X218495477Y-118578333D01*
X218400239Y-118625952D01*
X218209762Y-118625952D01*
X218114524Y-118673571D01*
X218066905Y-118721190D01*
X218019286Y-118816429D01*
X218019286Y-119006905D01*
X218066905Y-119102143D01*
X218114524Y-119149762D01*
X218209762Y-119197381D01*
X218400239Y-119197381D01*
X218495477Y-119149762D01*
X218543096Y-119102143D01*
X218590715Y-119006905D01*
X218590715Y-118816429D01*
X218543096Y-118721190D01*
X218495477Y-118673571D01*
X218400239Y-118625952D01*
X217066905Y-116657381D02*
X217066905Y-115657381D01*
X217305000Y-115657381D01*
X217447858Y-115705000D01*
X217543096Y-115800238D01*
X217590715Y-115895476D01*
X217638334Y-116085952D01*
X217638334Y-116228810D01*
X217590715Y-116419286D01*
X217543096Y-116514524D01*
X217447858Y-116609762D01*
X217305000Y-116657381D01*
X217066905Y-116657381D01*
X217971667Y-115657381D02*
X218638334Y-115657381D01*
X218209762Y-116657381D01*
X217066905Y-114117381D02*
X217066905Y-113117381D01*
X217305000Y-113117381D01*
X217447858Y-113165000D01*
X217543096Y-113260238D01*
X217590715Y-113355476D01*
X217638334Y-113545952D01*
X217638334Y-113688810D01*
X217590715Y-113879286D01*
X217543096Y-113974524D01*
X217447858Y-114069762D01*
X217305000Y-114117381D01*
X217066905Y-114117381D01*
X218495477Y-113117381D02*
X218305000Y-113117381D01*
X218209762Y-113165000D01*
X218162143Y-113212619D01*
X218066905Y-113355476D01*
X218019286Y-113545952D01*
X218019286Y-113926905D01*
X218066905Y-114022143D01*
X218114524Y-114069762D01*
X218209762Y-114117381D01*
X218400239Y-114117381D01*
X218495477Y-114069762D01*
X218543096Y-114022143D01*
X218590715Y-113926905D01*
X218590715Y-113688810D01*
X218543096Y-113593571D01*
X218495477Y-113545952D01*
X218400239Y-113498333D01*
X218209762Y-113498333D01*
X218114524Y-113545952D01*
X218066905Y-113593571D01*
X218019286Y-113688810D01*
X217066905Y-111577381D02*
X217066905Y-110577381D01*
X217305000Y-110577381D01*
X217447858Y-110625000D01*
X217543096Y-110720238D01*
X217590715Y-110815476D01*
X217638334Y-111005952D01*
X217638334Y-111148810D01*
X217590715Y-111339286D01*
X217543096Y-111434524D01*
X217447858Y-111529762D01*
X217305000Y-111577381D01*
X217066905Y-111577381D01*
X218543096Y-110577381D02*
X218066905Y-110577381D01*
X218019286Y-111053571D01*
X218066905Y-111005952D01*
X218162143Y-110958333D01*
X218400239Y-110958333D01*
X218495477Y-111005952D01*
X218543096Y-111053571D01*
X218590715Y-111148810D01*
X218590715Y-111386905D01*
X218543096Y-111482143D01*
X218495477Y-111529762D01*
X218400239Y-111577381D01*
X218162143Y-111577381D01*
X218066905Y-111529762D01*
X218019286Y-111482143D01*
X217066905Y-109037381D02*
X217066905Y-108037381D01*
X217305000Y-108037381D01*
X217447858Y-108085000D01*
X217543096Y-108180238D01*
X217590715Y-108275476D01*
X217638334Y-108465952D01*
X217638334Y-108608810D01*
X217590715Y-108799286D01*
X217543096Y-108894524D01*
X217447858Y-108989762D01*
X217305000Y-109037381D01*
X217066905Y-109037381D01*
X218495477Y-108370714D02*
X218495477Y-109037381D01*
X218257381Y-107989762D02*
X218019286Y-108704048D01*
X218638334Y-108704048D01*
X217066905Y-106497381D02*
X217066905Y-105497381D01*
X217305000Y-105497381D01*
X217447858Y-105545000D01*
X217543096Y-105640238D01*
X217590715Y-105735476D01*
X217638334Y-105925952D01*
X217638334Y-106068810D01*
X217590715Y-106259286D01*
X217543096Y-106354524D01*
X217447858Y-106449762D01*
X217305000Y-106497381D01*
X217066905Y-106497381D01*
X217971667Y-105497381D02*
X218590715Y-105497381D01*
X218257381Y-105878333D01*
X218400239Y-105878333D01*
X218495477Y-105925952D01*
X218543096Y-105973571D01*
X218590715Y-106068810D01*
X218590715Y-106306905D01*
X218543096Y-106402143D01*
X218495477Y-106449762D01*
X218400239Y-106497381D01*
X218114524Y-106497381D01*
X218019286Y-106449762D01*
X217971667Y-106402143D01*
X217066905Y-103957381D02*
X217066905Y-102957381D01*
X217305000Y-102957381D01*
X217447858Y-103005000D01*
X217543096Y-103100238D01*
X217590715Y-103195476D01*
X217638334Y-103385952D01*
X217638334Y-103528810D01*
X217590715Y-103719286D01*
X217543096Y-103814524D01*
X217447858Y-103909762D01*
X217305000Y-103957381D01*
X217066905Y-103957381D01*
X218019286Y-103052619D02*
X218066905Y-103005000D01*
X218162143Y-102957381D01*
X218400239Y-102957381D01*
X218495477Y-103005000D01*
X218543096Y-103052619D01*
X218590715Y-103147857D01*
X218590715Y-103243095D01*
X218543096Y-103385952D01*
X217971667Y-103957381D01*
X218590715Y-103957381D01*
D12*
X183860714Y-89507143D02*
X184075000Y-89578571D01*
X184432143Y-89578571D01*
X184575000Y-89507143D01*
X184646429Y-89435714D01*
X184717857Y-89292857D01*
X184717857Y-89150000D01*
X184646429Y-89007143D01*
X184575000Y-88935714D01*
X184432143Y-88864286D01*
X184146429Y-88792857D01*
X184003571Y-88721429D01*
X183932143Y-88650000D01*
X183860714Y-88507143D01*
X183860714Y-88364286D01*
X183932143Y-88221429D01*
X184003571Y-88150000D01*
X184146429Y-88078571D01*
X184503571Y-88078571D01*
X184717857Y-88150000D01*
X185360714Y-88792857D02*
X185860714Y-88792857D01*
X186075000Y-89578571D02*
X185360714Y-89578571D01*
X185360714Y-88078571D01*
X186075000Y-88078571D01*
X187575000Y-89578571D02*
X187075000Y-88864286D01*
X186717857Y-89578571D02*
X186717857Y-88078571D01*
X187289285Y-88078571D01*
X187432143Y-88150000D01*
X187503571Y-88221429D01*
X187575000Y-88364286D01*
X187575000Y-88578571D01*
X187503571Y-88721429D01*
X187432143Y-88792857D01*
X187289285Y-88864286D01*
X186717857Y-88864286D01*
X188217857Y-89578571D02*
X188217857Y-88078571D01*
X188860714Y-89150000D02*
X189575000Y-89150000D01*
X188717857Y-89578571D02*
X189217857Y-88078571D01*
X189717857Y-89578571D01*
X190932143Y-89578571D02*
X190217857Y-89578571D01*
X190217857Y-88078571D01*
X218483571Y-100833571D02*
X216983571Y-100833571D01*
X216983571Y-100476428D01*
X217055000Y-100262143D01*
X217197857Y-100119285D01*
X217340714Y-100047857D01*
X217626429Y-99976428D01*
X217840714Y-99976428D01*
X218126429Y-100047857D01*
X218269286Y-100119285D01*
X218412143Y-100262143D01*
X218483571Y-100476428D01*
X218483571Y-100833571D01*
X218483571Y-99333571D02*
X216983571Y-99333571D01*
X217055000Y-97833571D02*
X216983571Y-97976428D01*
X216983571Y-98190714D01*
X217055000Y-98404999D01*
X217197857Y-98547857D01*
X217340714Y-98619285D01*
X217626429Y-98690714D01*
X217840714Y-98690714D01*
X218126429Y-98619285D01*
X218269286Y-98547857D01*
X218412143Y-98404999D01*
X218483571Y-98190714D01*
X218483571Y-98047857D01*
X218412143Y-97833571D01*
X218340714Y-97762142D01*
X217840714Y-97762142D01*
X217840714Y-98047857D01*
X218483571Y-97119285D02*
X216983571Y-97119285D01*
X216983571Y-96619285D02*
X216983571Y-95762142D01*
X218483571Y-96190713D02*
X216983571Y-96190713D01*
X218055000Y-95333571D02*
X218055000Y-94619285D01*
X218483571Y-95476428D02*
X216983571Y-94976428D01*
X218483571Y-94476428D01*
X218483571Y-93262142D02*
X218483571Y-93976428D01*
X216983571Y-93976428D01*
X181181429Y-172128571D02*
X181181429Y-170628571D01*
X181181429Y-171342857D02*
X182038572Y-171342857D01*
X182038572Y-172128571D02*
X182038572Y-170628571D01*
X182002857Y-168160000D02*
X181860000Y-168088571D01*
X181645714Y-168088571D01*
X181431429Y-168160000D01*
X181288571Y-168302857D01*
X181217143Y-168445714D01*
X181145714Y-168731429D01*
X181145714Y-168945714D01*
X181217143Y-169231429D01*
X181288571Y-169374286D01*
X181431429Y-169517143D01*
X181645714Y-169588571D01*
X181788571Y-169588571D01*
X182002857Y-169517143D01*
X182074286Y-169445714D01*
X182074286Y-168945714D01*
X181788571Y-168945714D01*
X181824286Y-166262857D02*
X181324286Y-166262857D01*
X181324286Y-167048571D02*
X181324286Y-165548571D01*
X182038572Y-165548571D01*
X181288572Y-163722857D02*
X181788572Y-163722857D01*
X182002858Y-164508571D02*
X181288572Y-164508571D01*
X181288572Y-163008571D01*
X182002858Y-163008571D01*
X181217143Y-161968571D02*
X181217143Y-160468571D01*
X181574286Y-160468571D01*
X181788571Y-160540000D01*
X181931429Y-160682857D01*
X182002857Y-160825714D01*
X182074286Y-161111429D01*
X182074286Y-161325714D01*
X182002857Y-161611429D01*
X181931429Y-161754286D01*
X181788571Y-161897143D01*
X181574286Y-161968571D01*
X181217143Y-161968571D01*
X182074286Y-159285714D02*
X182002857Y-159357143D01*
X181788571Y-159428571D01*
X181645714Y-159428571D01*
X181431429Y-159357143D01*
X181288571Y-159214286D01*
X181217143Y-159071429D01*
X181145714Y-158785714D01*
X181145714Y-158571429D01*
X181217143Y-158285714D01*
X181288571Y-158142857D01*
X181431429Y-158000000D01*
X181645714Y-157928571D01*
X181788571Y-157928571D01*
X182002857Y-158000000D01*
X182074286Y-158071429D01*
X181717143Y-156102857D02*
X181931429Y-156174286D01*
X182002857Y-156245714D01*
X182074286Y-156388571D01*
X182074286Y-156602857D01*
X182002857Y-156745714D01*
X181931429Y-156817143D01*
X181788571Y-156888571D01*
X181217143Y-156888571D01*
X181217143Y-155388571D01*
X181717143Y-155388571D01*
X181860000Y-155460000D01*
X181931429Y-155531429D01*
X182002857Y-155674286D01*
X182002857Y-155817143D01*
X181931429Y-155960000D01*
X181860000Y-156031429D01*
X181717143Y-156102857D01*
X181217143Y-156102857D01*
X181252857Y-153920000D02*
X181967143Y-153920000D01*
X181110000Y-154348571D02*
X181610000Y-152848571D01*
X182110000Y-154348571D01*
X135609999Y-135298571D02*
X135609999Y-133798571D01*
X136252856Y-135298571D02*
X136252856Y-134512857D01*
X136181427Y-134370000D01*
X136038570Y-134298571D01*
X135824285Y-134298571D01*
X135681427Y-134370000D01*
X135609999Y-134441429D01*
X136752856Y-134298571D02*
X137324285Y-134298571D01*
X136967142Y-133798571D02*
X136967142Y-135084286D01*
X137038570Y-135227143D01*
X137181428Y-135298571D01*
X137324285Y-135298571D01*
X137609999Y-134298571D02*
X138181428Y-134298571D01*
X137824285Y-133798571D02*
X137824285Y-135084286D01*
X137895713Y-135227143D01*
X138038571Y-135298571D01*
X138181428Y-135298571D01*
X138681428Y-134298571D02*
X138681428Y-135798571D01*
X138681428Y-134370000D02*
X138824285Y-134298571D01*
X139109999Y-134298571D01*
X139252856Y-134370000D01*
X139324285Y-134441429D01*
X139395714Y-134584286D01*
X139395714Y-135012857D01*
X139324285Y-135155714D01*
X139252856Y-135227143D01*
X139109999Y-135298571D01*
X138824285Y-135298571D01*
X138681428Y-135227143D01*
X140038571Y-135155714D02*
X140109999Y-135227143D01*
X140038571Y-135298571D01*
X139967142Y-135227143D01*
X140038571Y-135155714D01*
X140038571Y-135298571D01*
X140038571Y-134370000D02*
X140109999Y-134441429D01*
X140038571Y-134512857D01*
X139967142Y-134441429D01*
X140038571Y-134370000D01*
X140038571Y-134512857D01*
X141824285Y-133727143D02*
X140538571Y-135655714D01*
X143395714Y-133727143D02*
X142110000Y-135655714D01*
X143895715Y-134298571D02*
X143895715Y-135298571D01*
X143895715Y-134441429D02*
X143967143Y-134370000D01*
X144110001Y-134298571D01*
X144324286Y-134298571D01*
X144467143Y-134370000D01*
X144538572Y-134512857D01*
X144538572Y-135298571D01*
X145252858Y-135298571D02*
X145252858Y-134298571D01*
X145252858Y-133798571D02*
X145181429Y-133870000D01*
X145252858Y-133941429D01*
X145324286Y-133870000D01*
X145252858Y-133798571D01*
X145252858Y-133941429D01*
X146610001Y-135227143D02*
X146467144Y-135298571D01*
X146181430Y-135298571D01*
X146038572Y-135227143D01*
X145967144Y-135155714D01*
X145895715Y-135012857D01*
X145895715Y-134584286D01*
X145967144Y-134441429D01*
X146038572Y-134370000D01*
X146181430Y-134298571D01*
X146467144Y-134298571D01*
X146610001Y-134370000D01*
X147252858Y-135298571D02*
X147252858Y-133798571D01*
X147395715Y-134727143D02*
X147824286Y-135298571D01*
X147824286Y-134298571D02*
X147252858Y-134870000D01*
X148252858Y-134298571D02*
X148824287Y-134298571D01*
X148467144Y-133798571D02*
X148467144Y-135084286D01*
X148538572Y-135227143D01*
X148681430Y-135298571D01*
X148824287Y-135298571D01*
X149324287Y-135298571D02*
X149324287Y-133798571D01*
X149967144Y-135298571D02*
X149967144Y-134512857D01*
X149895715Y-134370000D01*
X149752858Y-134298571D01*
X149538573Y-134298571D01*
X149395715Y-134370000D01*
X149324287Y-134441429D01*
X151252858Y-135227143D02*
X151110001Y-135298571D01*
X150824287Y-135298571D01*
X150681430Y-135227143D01*
X150610001Y-135084286D01*
X150610001Y-134512857D01*
X150681430Y-134370000D01*
X150824287Y-134298571D01*
X151110001Y-134298571D01*
X151252858Y-134370000D01*
X151324287Y-134512857D01*
X151324287Y-134655714D01*
X150610001Y-134798571D01*
X152610001Y-135227143D02*
X152467144Y-135298571D01*
X152181430Y-135298571D01*
X152038572Y-135227143D01*
X151967144Y-135155714D01*
X151895715Y-135012857D01*
X151895715Y-134584286D01*
X151967144Y-134441429D01*
X152038572Y-134370000D01*
X152181430Y-134298571D01*
X152467144Y-134298571D01*
X152610001Y-134370000D01*
X153467144Y-135298571D02*
X153324286Y-135227143D01*
X153252858Y-135155714D01*
X153181429Y-135012857D01*
X153181429Y-134584286D01*
X153252858Y-134441429D01*
X153324286Y-134370000D01*
X153467144Y-134298571D01*
X153681429Y-134298571D01*
X153824286Y-134370000D01*
X153895715Y-134441429D01*
X153967144Y-134584286D01*
X153967144Y-135012857D01*
X153895715Y-135155714D01*
X153824286Y-135227143D01*
X153681429Y-135298571D01*
X153467144Y-135298571D01*
X155252858Y-135298571D02*
X155252858Y-133798571D01*
X155252858Y-135227143D02*
X155110001Y-135298571D01*
X154824287Y-135298571D01*
X154681429Y-135227143D01*
X154610001Y-135155714D01*
X154538572Y-135012857D01*
X154538572Y-134584286D01*
X154610001Y-134441429D01*
X154681429Y-134370000D01*
X154824287Y-134298571D01*
X155110001Y-134298571D01*
X155252858Y-134370000D01*
X156538572Y-135227143D02*
X156395715Y-135298571D01*
X156110001Y-135298571D01*
X155967144Y-135227143D01*
X155895715Y-135084286D01*
X155895715Y-134512857D01*
X155967144Y-134370000D01*
X156110001Y-134298571D01*
X156395715Y-134298571D01*
X156538572Y-134370000D01*
X156610001Y-134512857D01*
X156610001Y-134655714D01*
X155895715Y-134798571D01*
X157252858Y-135298571D02*
X157252858Y-134298571D01*
X157252858Y-134584286D02*
X157324286Y-134441429D01*
X157395715Y-134370000D01*
X157538572Y-134298571D01*
X157681429Y-134298571D01*
X158181429Y-135155714D02*
X158252857Y-135227143D01*
X158181429Y-135298571D01*
X158110000Y-135227143D01*
X158181429Y-135155714D01*
X158181429Y-135298571D01*
X159538572Y-135227143D02*
X159395715Y-135298571D01*
X159110001Y-135298571D01*
X158967143Y-135227143D01*
X158895715Y-135155714D01*
X158824286Y-135012857D01*
X158824286Y-134584286D01*
X158895715Y-134441429D01*
X158967143Y-134370000D01*
X159110001Y-134298571D01*
X159395715Y-134298571D01*
X159538572Y-134370000D01*
X160395715Y-135298571D02*
X160252857Y-135227143D01*
X160181429Y-135155714D01*
X160110000Y-135012857D01*
X160110000Y-134584286D01*
X160181429Y-134441429D01*
X160252857Y-134370000D01*
X160395715Y-134298571D01*
X160610000Y-134298571D01*
X160752857Y-134370000D01*
X160824286Y-134441429D01*
X160895715Y-134584286D01*
X160895715Y-135012857D01*
X160824286Y-135155714D01*
X160752857Y-135227143D01*
X160610000Y-135298571D01*
X160395715Y-135298571D01*
X161538572Y-135155714D02*
X161610000Y-135227143D01*
X161538572Y-135298571D01*
X161467143Y-135227143D01*
X161538572Y-135155714D01*
X161538572Y-135298571D01*
X162895715Y-134298571D02*
X162895715Y-135298571D01*
X162252858Y-134298571D02*
X162252858Y-135084286D01*
X162324286Y-135227143D01*
X162467144Y-135298571D01*
X162681429Y-135298571D01*
X162824286Y-135227143D01*
X162895715Y-135155714D01*
X163610001Y-135298571D02*
X163610001Y-133798571D01*
X163752858Y-134727143D02*
X164181429Y-135298571D01*
X164181429Y-134298571D02*
X163610001Y-134870000D01*
X217848571Y-164492142D02*
X216348571Y-164492142D01*
X216348571Y-163920714D01*
X216420000Y-163777856D01*
X216491429Y-163706428D01*
X216634286Y-163634999D01*
X216848571Y-163634999D01*
X216991429Y-163706428D01*
X217062857Y-163777856D01*
X217134286Y-163920714D01*
X217134286Y-164492142D01*
X217848571Y-162777856D02*
X217777143Y-162920714D01*
X217705714Y-162992142D01*
X217562857Y-163063571D01*
X217134286Y-163063571D01*
X216991429Y-162992142D01*
X216920000Y-162920714D01*
X216848571Y-162777856D01*
X216848571Y-162563571D01*
X216920000Y-162420714D01*
X216991429Y-162349285D01*
X217134286Y-162277856D01*
X217562857Y-162277856D01*
X217705714Y-162349285D01*
X217777143Y-162420714D01*
X217848571Y-162563571D01*
X217848571Y-162777856D01*
X216848571Y-161849285D02*
X216848571Y-161277856D01*
X216348571Y-161634999D02*
X217634286Y-161634999D01*
X217777143Y-161563571D01*
X217848571Y-161420713D01*
X217848571Y-161277856D01*
X217777143Y-160849285D02*
X217848571Y-160706428D01*
X217848571Y-160420713D01*
X217777143Y-160277856D01*
X217634286Y-160206428D01*
X217562857Y-160206428D01*
X217420000Y-160277856D01*
X217348571Y-160420713D01*
X217348571Y-160634999D01*
X217277143Y-160777856D01*
X217134286Y-160849285D01*
X217062857Y-160849285D01*
X216920000Y-160777856D01*
X216848571Y-160634999D01*
X216848571Y-160420713D01*
X216920000Y-160277856D01*
X216348571Y-158634999D02*
X217848571Y-158134999D01*
X216348571Y-157634999D01*
X217848571Y-156349285D02*
X217848571Y-157206428D01*
X217848571Y-156777856D02*
X216348571Y-156777856D01*
X216562857Y-156920713D01*
X216705714Y-157063571D01*
X216777143Y-157206428D01*
X217705714Y-155706428D02*
X217777143Y-155635000D01*
X217848571Y-155706428D01*
X217777143Y-155777857D01*
X217705714Y-155706428D01*
X217848571Y-155706428D01*
X216348571Y-154706428D02*
X216348571Y-154563571D01*
X216420000Y-154420714D01*
X216491429Y-154349285D01*
X216634286Y-154277856D01*
X216920000Y-154206428D01*
X217277143Y-154206428D01*
X217562857Y-154277856D01*
X217705714Y-154349285D01*
X217777143Y-154420714D01*
X217848571Y-154563571D01*
X217848571Y-154706428D01*
X217777143Y-154849285D01*
X217705714Y-154920714D01*
X217562857Y-154992142D01*
X217277143Y-155063571D01*
X216920000Y-155063571D01*
X216634286Y-154992142D01*
X216491429Y-154920714D01*
X216420000Y-154849285D01*
X216348571Y-154706428D01*
X166897857Y-164507857D02*
X166969286Y-164293571D01*
X167040714Y-164222143D01*
X167183571Y-164150714D01*
X167397857Y-164150714D01*
X167540714Y-164222143D01*
X167612143Y-164293571D01*
X167683571Y-164436429D01*
X167683571Y-165007857D01*
X166183571Y-165007857D01*
X166183571Y-164507857D01*
X166255000Y-164365000D01*
X166326429Y-164293571D01*
X166469286Y-164222143D01*
X166612143Y-164222143D01*
X166755000Y-164293571D01*
X166826429Y-164365000D01*
X166897857Y-164507857D01*
X166897857Y-165007857D01*
X166683571Y-162865000D02*
X167683571Y-162865000D01*
X166683571Y-163507857D02*
X167469286Y-163507857D01*
X167612143Y-163436429D01*
X167683571Y-163293571D01*
X167683571Y-163079286D01*
X167612143Y-162936429D01*
X167540714Y-162865000D01*
X166683571Y-162365000D02*
X166683571Y-161793571D01*
X166183571Y-162150714D02*
X167469286Y-162150714D01*
X167612143Y-162079286D01*
X167683571Y-161936428D01*
X167683571Y-161793571D01*
X166683571Y-161507857D02*
X166683571Y-160936428D01*
X166183571Y-161293571D02*
X167469286Y-161293571D01*
X167612143Y-161222143D01*
X167683571Y-161079285D01*
X167683571Y-160936428D01*
X167683571Y-160222142D02*
X167612143Y-160365000D01*
X167540714Y-160436428D01*
X167397857Y-160507857D01*
X166969286Y-160507857D01*
X166826429Y-160436428D01*
X166755000Y-160365000D01*
X166683571Y-160222142D01*
X166683571Y-160007857D01*
X166755000Y-159865000D01*
X166826429Y-159793571D01*
X166969286Y-159722142D01*
X167397857Y-159722142D01*
X167540714Y-159793571D01*
X167612143Y-159865000D01*
X167683571Y-160007857D01*
X167683571Y-160222142D01*
X166683571Y-159079285D02*
X167683571Y-159079285D01*
X166826429Y-159079285D02*
X166755000Y-159007857D01*
X166683571Y-158864999D01*
X166683571Y-158650714D01*
X166755000Y-158507857D01*
X166897857Y-158436428D01*
X167683571Y-158436428D01*
X167612143Y-157793571D02*
X167683571Y-157650714D01*
X167683571Y-157364999D01*
X167612143Y-157222142D01*
X167469286Y-157150714D01*
X167397857Y-157150714D01*
X167255000Y-157222142D01*
X167183571Y-157364999D01*
X167183571Y-157579285D01*
X167112143Y-157722142D01*
X166969286Y-157793571D01*
X166897857Y-157793571D01*
X166755000Y-157722142D01*
X166683571Y-157579285D01*
X166683571Y-157364999D01*
X166755000Y-157222142D01*
X166183571Y-155579285D02*
X167683571Y-155079285D01*
X166183571Y-154579285D01*
X167683571Y-153293571D02*
X167683571Y-154150714D01*
X167683571Y-153722142D02*
X166183571Y-153722142D01*
X166397857Y-153864999D01*
X166540714Y-154007857D01*
X166612143Y-154150714D01*
X167540714Y-152650714D02*
X167612143Y-152579286D01*
X167683571Y-152650714D01*
X167612143Y-152722143D01*
X167540714Y-152650714D01*
X167683571Y-152650714D01*
X166183571Y-151650714D02*
X166183571Y-151507857D01*
X166255000Y-151365000D01*
X166326429Y-151293571D01*
X166469286Y-151222142D01*
X166755000Y-151150714D01*
X167112143Y-151150714D01*
X167397857Y-151222142D01*
X167540714Y-151293571D01*
X167612143Y-151365000D01*
X167683571Y-151507857D01*
X167683571Y-151650714D01*
X167612143Y-151793571D01*
X167540714Y-151865000D01*
X167397857Y-151936428D01*
X167112143Y-152007857D01*
X166755000Y-152007857D01*
X166469286Y-151936428D01*
X166326429Y-151865000D01*
X166255000Y-151793571D01*
X166183571Y-151650714D01*
X186409999Y-135298571D02*
X186409999Y-133798571D01*
X187052856Y-135298571D02*
X187052856Y-134512857D01*
X186981427Y-134370000D01*
X186838570Y-134298571D01*
X186624285Y-134298571D01*
X186481427Y-134370000D01*
X186409999Y-134441429D01*
X187552856Y-134298571D02*
X188124285Y-134298571D01*
X187767142Y-133798571D02*
X187767142Y-135084286D01*
X187838570Y-135227143D01*
X187981428Y-135298571D01*
X188124285Y-135298571D01*
X188409999Y-134298571D02*
X188981428Y-134298571D01*
X188624285Y-133798571D02*
X188624285Y-135084286D01*
X188695713Y-135227143D01*
X188838571Y-135298571D01*
X188981428Y-135298571D01*
X189481428Y-134298571D02*
X189481428Y-135798571D01*
X189481428Y-134370000D02*
X189624285Y-134298571D01*
X189909999Y-134298571D01*
X190052856Y-134370000D01*
X190124285Y-134441429D01*
X190195714Y-134584286D01*
X190195714Y-135012857D01*
X190124285Y-135155714D01*
X190052856Y-135227143D01*
X189909999Y-135298571D01*
X189624285Y-135298571D01*
X189481428Y-135227143D01*
X190838571Y-135155714D02*
X190909999Y-135227143D01*
X190838571Y-135298571D01*
X190767142Y-135227143D01*
X190838571Y-135155714D01*
X190838571Y-135298571D01*
X190838571Y-134370000D02*
X190909999Y-134441429D01*
X190838571Y-134512857D01*
X190767142Y-134441429D01*
X190838571Y-134370000D01*
X190838571Y-134512857D01*
X192624285Y-133727143D02*
X191338571Y-135655714D01*
X194195714Y-133727143D02*
X192910000Y-135655714D01*
X194695715Y-134298571D02*
X194695715Y-135298571D01*
X194695715Y-134441429D02*
X194767143Y-134370000D01*
X194910001Y-134298571D01*
X195124286Y-134298571D01*
X195267143Y-134370000D01*
X195338572Y-134512857D01*
X195338572Y-135298571D01*
X196052858Y-135298571D02*
X196052858Y-134298571D01*
X196052858Y-133798571D02*
X195981429Y-133870000D01*
X196052858Y-133941429D01*
X196124286Y-133870000D01*
X196052858Y-133798571D01*
X196052858Y-133941429D01*
X197410001Y-135227143D02*
X197267144Y-135298571D01*
X196981430Y-135298571D01*
X196838572Y-135227143D01*
X196767144Y-135155714D01*
X196695715Y-135012857D01*
X196695715Y-134584286D01*
X196767144Y-134441429D01*
X196838572Y-134370000D01*
X196981430Y-134298571D01*
X197267144Y-134298571D01*
X197410001Y-134370000D01*
X198052858Y-135298571D02*
X198052858Y-133798571D01*
X198195715Y-134727143D02*
X198624286Y-135298571D01*
X198624286Y-134298571D02*
X198052858Y-134870000D01*
X199052858Y-134298571D02*
X199624287Y-134298571D01*
X199267144Y-133798571D02*
X199267144Y-135084286D01*
X199338572Y-135227143D01*
X199481430Y-135298571D01*
X199624287Y-135298571D01*
X200124287Y-135298571D02*
X200124287Y-133798571D01*
X200767144Y-135298571D02*
X200767144Y-134512857D01*
X200695715Y-134370000D01*
X200552858Y-134298571D01*
X200338573Y-134298571D01*
X200195715Y-134370000D01*
X200124287Y-134441429D01*
X202052858Y-135227143D02*
X201910001Y-135298571D01*
X201624287Y-135298571D01*
X201481430Y-135227143D01*
X201410001Y-135084286D01*
X201410001Y-134512857D01*
X201481430Y-134370000D01*
X201624287Y-134298571D01*
X201910001Y-134298571D01*
X202052858Y-134370000D01*
X202124287Y-134512857D01*
X202124287Y-134655714D01*
X201410001Y-134798571D01*
X203410001Y-135227143D02*
X203267144Y-135298571D01*
X202981430Y-135298571D01*
X202838572Y-135227143D01*
X202767144Y-135155714D01*
X202695715Y-135012857D01*
X202695715Y-134584286D01*
X202767144Y-134441429D01*
X202838572Y-134370000D01*
X202981430Y-134298571D01*
X203267144Y-134298571D01*
X203410001Y-134370000D01*
X204267144Y-135298571D02*
X204124286Y-135227143D01*
X204052858Y-135155714D01*
X203981429Y-135012857D01*
X203981429Y-134584286D01*
X204052858Y-134441429D01*
X204124286Y-134370000D01*
X204267144Y-134298571D01*
X204481429Y-134298571D01*
X204624286Y-134370000D01*
X204695715Y-134441429D01*
X204767144Y-134584286D01*
X204767144Y-135012857D01*
X204695715Y-135155714D01*
X204624286Y-135227143D01*
X204481429Y-135298571D01*
X204267144Y-135298571D01*
X206052858Y-135298571D02*
X206052858Y-133798571D01*
X206052858Y-135227143D02*
X205910001Y-135298571D01*
X205624287Y-135298571D01*
X205481429Y-135227143D01*
X205410001Y-135155714D01*
X205338572Y-135012857D01*
X205338572Y-134584286D01*
X205410001Y-134441429D01*
X205481429Y-134370000D01*
X205624287Y-134298571D01*
X205910001Y-134298571D01*
X206052858Y-134370000D01*
X207338572Y-135227143D02*
X207195715Y-135298571D01*
X206910001Y-135298571D01*
X206767144Y-135227143D01*
X206695715Y-135084286D01*
X206695715Y-134512857D01*
X206767144Y-134370000D01*
X206910001Y-134298571D01*
X207195715Y-134298571D01*
X207338572Y-134370000D01*
X207410001Y-134512857D01*
X207410001Y-134655714D01*
X206695715Y-134798571D01*
X208052858Y-135298571D02*
X208052858Y-134298571D01*
X208052858Y-134584286D02*
X208124286Y-134441429D01*
X208195715Y-134370000D01*
X208338572Y-134298571D01*
X208481429Y-134298571D01*
X208981429Y-135155714D02*
X209052857Y-135227143D01*
X208981429Y-135298571D01*
X208910000Y-135227143D01*
X208981429Y-135155714D01*
X208981429Y-135298571D01*
X210338572Y-135227143D02*
X210195715Y-135298571D01*
X209910001Y-135298571D01*
X209767143Y-135227143D01*
X209695715Y-135155714D01*
X209624286Y-135012857D01*
X209624286Y-134584286D01*
X209695715Y-134441429D01*
X209767143Y-134370000D01*
X209910001Y-134298571D01*
X210195715Y-134298571D01*
X210338572Y-134370000D01*
X211195715Y-135298571D02*
X211052857Y-135227143D01*
X210981429Y-135155714D01*
X210910000Y-135012857D01*
X210910000Y-134584286D01*
X210981429Y-134441429D01*
X211052857Y-134370000D01*
X211195715Y-134298571D01*
X211410000Y-134298571D01*
X211552857Y-134370000D01*
X211624286Y-134441429D01*
X211695715Y-134584286D01*
X211695715Y-135012857D01*
X211624286Y-135155714D01*
X211552857Y-135227143D01*
X211410000Y-135298571D01*
X211195715Y-135298571D01*
X212338572Y-135155714D02*
X212410000Y-135227143D01*
X212338572Y-135298571D01*
X212267143Y-135227143D01*
X212338572Y-135155714D01*
X212338572Y-135298571D01*
X213695715Y-134298571D02*
X213695715Y-135298571D01*
X213052858Y-134298571D02*
X213052858Y-135084286D01*
X213124286Y-135227143D01*
X213267144Y-135298571D01*
X213481429Y-135298571D01*
X213624286Y-135227143D01*
X213695715Y-135155714D01*
X214410001Y-135298571D02*
X214410001Y-133798571D01*
X214552858Y-134727143D02*
X214981429Y-135298571D01*
X214981429Y-134298571D02*
X214410001Y-134870000D01*
X194516429Y-163238571D02*
X194516429Y-161738571D01*
X194516429Y-162452857D02*
X195373572Y-162452857D01*
X195373572Y-163238571D02*
X195373572Y-161738571D01*
X195337857Y-159270000D02*
X195195000Y-159198571D01*
X194980714Y-159198571D01*
X194766429Y-159270000D01*
X194623571Y-159412857D01*
X194552143Y-159555714D01*
X194480714Y-159841429D01*
X194480714Y-160055714D01*
X194552143Y-160341429D01*
X194623571Y-160484286D01*
X194766429Y-160627143D01*
X194980714Y-160698571D01*
X195123571Y-160698571D01*
X195337857Y-160627143D01*
X195409286Y-160555714D01*
X195409286Y-160055714D01*
X195123571Y-160055714D01*
X195159286Y-157372857D02*
X194659286Y-157372857D01*
X194659286Y-158158571D02*
X194659286Y-156658571D01*
X195373572Y-156658571D01*
X194623572Y-154832857D02*
X195123572Y-154832857D01*
X195337858Y-155618571D02*
X194623572Y-155618571D01*
X194623572Y-154118571D01*
X195337858Y-154118571D01*
X156150714Y-179748571D02*
X156150714Y-178248571D01*
X156507857Y-178248571D01*
X156722142Y-178320000D01*
X156865000Y-178462857D01*
X156936428Y-178605714D01*
X157007857Y-178891429D01*
X157007857Y-179105714D01*
X156936428Y-179391429D01*
X156865000Y-179534286D01*
X156722142Y-179677143D01*
X156507857Y-179748571D01*
X156150714Y-179748571D01*
X158722142Y-178177143D02*
X157436428Y-180105714D01*
X159222143Y-179748571D02*
X159222143Y-178248571D01*
X159222143Y-178962857D02*
X160079286Y-178962857D01*
X160079286Y-179748571D02*
X160079286Y-178248571D01*
X139263572Y-179605714D02*
X139192143Y-179677143D01*
X138977857Y-179748571D01*
X138835000Y-179748571D01*
X138620715Y-179677143D01*
X138477857Y-179534286D01*
X138406429Y-179391429D01*
X138335000Y-179105714D01*
X138335000Y-178891429D01*
X138406429Y-178605714D01*
X138477857Y-178462857D01*
X138620715Y-178320000D01*
X138835000Y-178248571D01*
X138977857Y-178248571D01*
X139192143Y-178320000D01*
X139263572Y-178391429D01*
X140977857Y-178177143D02*
X139692143Y-180105714D01*
X142263572Y-178320000D02*
X142120715Y-178248571D01*
X141906429Y-178248571D01*
X141692144Y-178320000D01*
X141549286Y-178462857D01*
X141477858Y-178605714D01*
X141406429Y-178891429D01*
X141406429Y-179105714D01*
X141477858Y-179391429D01*
X141549286Y-179534286D01*
X141692144Y-179677143D01*
X141906429Y-179748571D01*
X142049286Y-179748571D01*
X142263572Y-179677143D01*
X142335001Y-179605714D01*
X142335001Y-179105714D01*
X142049286Y-179105714D01*
X156793572Y-150387857D02*
X157007858Y-150459286D01*
X157079286Y-150530714D01*
X157150715Y-150673571D01*
X157150715Y-150887857D01*
X157079286Y-151030714D01*
X157007858Y-151102143D01*
X156865000Y-151173571D01*
X156293572Y-151173571D01*
X156293572Y-149673571D01*
X156793572Y-149673571D01*
X156936429Y-149745000D01*
X157007858Y-149816429D01*
X157079286Y-149959286D01*
X157079286Y-150102143D01*
X157007858Y-150245000D01*
X156936429Y-150316429D01*
X156793572Y-150387857D01*
X156293572Y-150387857D01*
X158865000Y-149602143D02*
X157579286Y-151530714D01*
X159865001Y-150387857D02*
X159365001Y-150387857D01*
X159365001Y-151173571D02*
X159365001Y-149673571D01*
X160079287Y-149673571D01*
X139148571Y-150745000D02*
X139862857Y-150745000D01*
X139005714Y-151173571D02*
X139505714Y-149673571D01*
X140005714Y-151173571D01*
X141577142Y-149602143D02*
X140291428Y-151530714D01*
X142077143Y-150387857D02*
X142577143Y-150387857D01*
X142791429Y-151173571D02*
X142077143Y-151173571D01*
X142077143Y-149673571D01*
X142791429Y-149673571D01*
X143716429Y-163238571D02*
X143716429Y-161738571D01*
X143716429Y-162452857D02*
X144573572Y-162452857D01*
X144573572Y-163238571D02*
X144573572Y-161738571D01*
X144537857Y-159270000D02*
X144395000Y-159198571D01*
X144180714Y-159198571D01*
X143966429Y-159270000D01*
X143823571Y-159412857D01*
X143752143Y-159555714D01*
X143680714Y-159841429D01*
X143680714Y-160055714D01*
X143752143Y-160341429D01*
X143823571Y-160484286D01*
X143966429Y-160627143D01*
X144180714Y-160698571D01*
X144323571Y-160698571D01*
X144537857Y-160627143D01*
X144609286Y-160555714D01*
X144609286Y-160055714D01*
X144323571Y-160055714D01*
X144359286Y-157372857D02*
X143859286Y-157372857D01*
X143859286Y-158158571D02*
X143859286Y-156658571D01*
X144573572Y-156658571D01*
X143823572Y-154832857D02*
X144323572Y-154832857D01*
X144537858Y-155618571D02*
X143823572Y-155618571D01*
X143823572Y-154118571D01*
X144537858Y-154118571D01*
X131659286Y-166262857D02*
X131159286Y-166262857D01*
X131159286Y-167048571D02*
X131159286Y-165548571D01*
X131873572Y-165548571D01*
X131123572Y-163722857D02*
X131623572Y-163722857D01*
X131837858Y-164508571D02*
X131123572Y-164508571D01*
X131123572Y-163008571D01*
X131837858Y-163008571D01*
X131052143Y-161968571D02*
X131052143Y-160468571D01*
X131409286Y-160468571D01*
X131623571Y-160540000D01*
X131766429Y-160682857D01*
X131837857Y-160825714D01*
X131909286Y-161111429D01*
X131909286Y-161325714D01*
X131837857Y-161611429D01*
X131766429Y-161754286D01*
X131623571Y-161897143D01*
X131409286Y-161968571D01*
X131052143Y-161968571D01*
X131909286Y-159285714D02*
X131837857Y-159357143D01*
X131623571Y-159428571D01*
X131480714Y-159428571D01*
X131266429Y-159357143D01*
X131123571Y-159214286D01*
X131052143Y-159071429D01*
X130980714Y-158785714D01*
X130980714Y-158571429D01*
X131052143Y-158285714D01*
X131123571Y-158142857D01*
X131266429Y-158000000D01*
X131480714Y-157928571D01*
X131623571Y-157928571D01*
X131837857Y-158000000D01*
X131909286Y-158071429D01*
X131016429Y-172128571D02*
X131016429Y-170628571D01*
X131016429Y-171342857D02*
X131873572Y-171342857D01*
X131873572Y-172128571D02*
X131873572Y-170628571D01*
X131837857Y-168160000D02*
X131695000Y-168088571D01*
X131480714Y-168088571D01*
X131266429Y-168160000D01*
X131123571Y-168302857D01*
X131052143Y-168445714D01*
X130980714Y-168731429D01*
X130980714Y-168945714D01*
X131052143Y-169231429D01*
X131123571Y-169374286D01*
X131266429Y-169517143D01*
X131480714Y-169588571D01*
X131623571Y-169588571D01*
X131837857Y-169517143D01*
X131909286Y-169445714D01*
X131909286Y-168945714D01*
X131623571Y-168945714D01*
X131552143Y-156102857D02*
X131766429Y-156174286D01*
X131837857Y-156245714D01*
X131909286Y-156388571D01*
X131909286Y-156602857D01*
X131837857Y-156745714D01*
X131766429Y-156817143D01*
X131623571Y-156888571D01*
X131052143Y-156888571D01*
X131052143Y-155388571D01*
X131552143Y-155388571D01*
X131695000Y-155460000D01*
X131766429Y-155531429D01*
X131837857Y-155674286D01*
X131837857Y-155817143D01*
X131766429Y-155960000D01*
X131695000Y-156031429D01*
X131552143Y-156102857D01*
X131052143Y-156102857D01*
X131087857Y-153920000D02*
X131802143Y-153920000D01*
X130945000Y-154348571D02*
X131445000Y-152848571D01*
X131945000Y-154348571D01*
X155182143Y-163238571D02*
X155182143Y-161738571D01*
X155539286Y-161738571D01*
X155753571Y-161810000D01*
X155896429Y-161952857D01*
X155967857Y-162095714D01*
X156039286Y-162381429D01*
X156039286Y-162595714D01*
X155967857Y-162881429D01*
X155896429Y-163024286D01*
X155753571Y-163167143D01*
X155539286Y-163238571D01*
X155182143Y-163238571D01*
X156039286Y-160555714D02*
X155967857Y-160627143D01*
X155753571Y-160698571D01*
X155610714Y-160698571D01*
X155396429Y-160627143D01*
X155253571Y-160484286D01*
X155182143Y-160341429D01*
X155110714Y-160055714D01*
X155110714Y-159841429D01*
X155182143Y-159555714D01*
X155253571Y-159412857D01*
X155396429Y-159270000D01*
X155610714Y-159198571D01*
X155753571Y-159198571D01*
X155967857Y-159270000D01*
X156039286Y-159341429D01*
X155682143Y-157372857D02*
X155896429Y-157444286D01*
X155967857Y-157515714D01*
X156039286Y-157658571D01*
X156039286Y-157872857D01*
X155967857Y-158015714D01*
X155896429Y-158087143D01*
X155753571Y-158158571D01*
X155182143Y-158158571D01*
X155182143Y-156658571D01*
X155682143Y-156658571D01*
X155825000Y-156730000D01*
X155896429Y-156801429D01*
X155967857Y-156944286D01*
X155967857Y-157087143D01*
X155896429Y-157230000D01*
X155825000Y-157301429D01*
X155682143Y-157372857D01*
X155182143Y-157372857D01*
X155217857Y-155190000D02*
X155932143Y-155190000D01*
X155075000Y-155618571D02*
X155575000Y-154118571D01*
X156075000Y-155618571D01*
X146074286Y-151657857D02*
X146574286Y-151657857D01*
X146788572Y-152443571D02*
X146074286Y-152443571D01*
X146074286Y-150943571D01*
X146788572Y-150943571D01*
X147431429Y-152443571D02*
X147431429Y-150943571D01*
X148288572Y-152443571D01*
X148288572Y-150943571D01*
X148931429Y-152015000D02*
X149645715Y-152015000D01*
X148788572Y-152443571D02*
X149288572Y-150943571D01*
X149788572Y-152443571D01*
X150788572Y-151657857D02*
X151002858Y-151729286D01*
X151074286Y-151800714D01*
X151145715Y-151943571D01*
X151145715Y-152157857D01*
X151074286Y-152300714D01*
X151002858Y-152372143D01*
X150860000Y-152443571D01*
X150288572Y-152443571D01*
X150288572Y-150943571D01*
X150788572Y-150943571D01*
X150931429Y-151015000D01*
X151002858Y-151086429D01*
X151074286Y-151229286D01*
X151074286Y-151372143D01*
X151002858Y-151515000D01*
X150931429Y-151586429D01*
X150788572Y-151657857D01*
X150288572Y-151657857D01*
X152502858Y-152443571D02*
X151788572Y-152443571D01*
X151788572Y-150943571D01*
X153002858Y-151657857D02*
X153502858Y-151657857D01*
X153717144Y-152443571D02*
X153002858Y-152443571D01*
X153002858Y-150943571D01*
X153717144Y-150943571D01*
X207585714Y-181018571D02*
X207585714Y-179518571D01*
X207942857Y-179518571D01*
X208157142Y-179590000D01*
X208300000Y-179732857D01*
X208371428Y-179875714D01*
X208442857Y-180161429D01*
X208442857Y-180375714D01*
X208371428Y-180661429D01*
X208300000Y-180804286D01*
X208157142Y-180947143D01*
X207942857Y-181018571D01*
X207585714Y-181018571D01*
X210157142Y-179447143D02*
X208871428Y-181375714D01*
X210657143Y-181018571D02*
X210657143Y-179518571D01*
X210657143Y-180232857D02*
X211514286Y-180232857D01*
X211514286Y-181018571D02*
X211514286Y-179518571D01*
X188158572Y-180875714D02*
X188087143Y-180947143D01*
X187872857Y-181018571D01*
X187730000Y-181018571D01*
X187515715Y-180947143D01*
X187372857Y-180804286D01*
X187301429Y-180661429D01*
X187230000Y-180375714D01*
X187230000Y-180161429D01*
X187301429Y-179875714D01*
X187372857Y-179732857D01*
X187515715Y-179590000D01*
X187730000Y-179518571D01*
X187872857Y-179518571D01*
X188087143Y-179590000D01*
X188158572Y-179661429D01*
X189872857Y-179447143D02*
X188587143Y-181375714D01*
X191158572Y-179590000D02*
X191015715Y-179518571D01*
X190801429Y-179518571D01*
X190587144Y-179590000D01*
X190444286Y-179732857D01*
X190372858Y-179875714D01*
X190301429Y-180161429D01*
X190301429Y-180375714D01*
X190372858Y-180661429D01*
X190444286Y-180804286D01*
X190587144Y-180947143D01*
X190801429Y-181018571D01*
X190944286Y-181018571D01*
X191158572Y-180947143D01*
X191230001Y-180875714D01*
X191230001Y-180375714D01*
X190944286Y-180375714D01*
X187408571Y-150110000D02*
X188122857Y-150110000D01*
X187265714Y-150538571D02*
X187765714Y-149038571D01*
X188265714Y-150538571D01*
X189837142Y-148967143D02*
X188551428Y-150895714D01*
X190337143Y-149752857D02*
X190837143Y-149752857D01*
X191051429Y-150538571D02*
X190337143Y-150538571D01*
X190337143Y-149038571D01*
X191051429Y-149038571D01*
X208228572Y-149752857D02*
X208442858Y-149824286D01*
X208514286Y-149895714D01*
X208585715Y-150038571D01*
X208585715Y-150252857D01*
X208514286Y-150395714D01*
X208442858Y-150467143D01*
X208300000Y-150538571D01*
X207728572Y-150538571D01*
X207728572Y-149038571D01*
X208228572Y-149038571D01*
X208371429Y-149110000D01*
X208442858Y-149181429D01*
X208514286Y-149324286D01*
X208514286Y-149467143D01*
X208442858Y-149610000D01*
X208371429Y-149681429D01*
X208228572Y-149752857D01*
X207728572Y-149752857D01*
X210300000Y-148967143D02*
X209014286Y-150895714D01*
X211300001Y-149752857D02*
X210800001Y-149752857D01*
X210800001Y-150538571D02*
X210800001Y-149038571D01*
X211514287Y-149038571D01*
X205982143Y-163238571D02*
X205982143Y-161738571D01*
X206339286Y-161738571D01*
X206553571Y-161810000D01*
X206696429Y-161952857D01*
X206767857Y-162095714D01*
X206839286Y-162381429D01*
X206839286Y-162595714D01*
X206767857Y-162881429D01*
X206696429Y-163024286D01*
X206553571Y-163167143D01*
X206339286Y-163238571D01*
X205982143Y-163238571D01*
X206839286Y-160555714D02*
X206767857Y-160627143D01*
X206553571Y-160698571D01*
X206410714Y-160698571D01*
X206196429Y-160627143D01*
X206053571Y-160484286D01*
X205982143Y-160341429D01*
X205910714Y-160055714D01*
X205910714Y-159841429D01*
X205982143Y-159555714D01*
X206053571Y-159412857D01*
X206196429Y-159270000D01*
X206410714Y-159198571D01*
X206553571Y-159198571D01*
X206767857Y-159270000D01*
X206839286Y-159341429D01*
X206482143Y-157372857D02*
X206696429Y-157444286D01*
X206767857Y-157515714D01*
X206839286Y-157658571D01*
X206839286Y-157872857D01*
X206767857Y-158015714D01*
X206696429Y-158087143D01*
X206553571Y-158158571D01*
X205982143Y-158158571D01*
X205982143Y-156658571D01*
X206482143Y-156658571D01*
X206625000Y-156730000D01*
X206696429Y-156801429D01*
X206767857Y-156944286D01*
X206767857Y-157087143D01*
X206696429Y-157230000D01*
X206625000Y-157301429D01*
X206482143Y-157372857D01*
X205982143Y-157372857D01*
X206017857Y-155190000D02*
X206732143Y-155190000D01*
X205875000Y-155618571D02*
X206375000Y-154118571D01*
X206875000Y-155618571D01*
X196874286Y-151657857D02*
X197374286Y-151657857D01*
X197588572Y-152443571D02*
X196874286Y-152443571D01*
X196874286Y-150943571D01*
X197588572Y-150943571D01*
X198231429Y-152443571D02*
X198231429Y-150943571D01*
X199088572Y-152443571D01*
X199088572Y-150943571D01*
X199731429Y-152015000D02*
X200445715Y-152015000D01*
X199588572Y-152443571D02*
X200088572Y-150943571D01*
X200588572Y-152443571D01*
X201588572Y-151657857D02*
X201802858Y-151729286D01*
X201874286Y-151800714D01*
X201945715Y-151943571D01*
X201945715Y-152157857D01*
X201874286Y-152300714D01*
X201802858Y-152372143D01*
X201660000Y-152443571D01*
X201088572Y-152443571D01*
X201088572Y-150943571D01*
X201588572Y-150943571D01*
X201731429Y-151015000D01*
X201802858Y-151086429D01*
X201874286Y-151229286D01*
X201874286Y-151372143D01*
X201802858Y-151515000D01*
X201731429Y-151586429D01*
X201588572Y-151657857D01*
X201088572Y-151657857D01*
X203302858Y-152443571D02*
X202588572Y-152443571D01*
X202588572Y-150943571D01*
X203802858Y-151657857D02*
X204302858Y-151657857D01*
X204517144Y-152443571D02*
X203802858Y-152443571D01*
X203802858Y-150943571D01*
X204517144Y-150943571D01*
D11*
X174625000Y-181610000D02*
X174625000Y-133350000D01*
X173990000Y-133350000D02*
X173990000Y-181610000D01*
D13*
X126940000Y-122615000D02*
X129600000Y-122615000D01*
X126940000Y-94615000D02*
X126940000Y-122615000D01*
X129600000Y-94615000D02*
X129600000Y-122615000D01*
X126940000Y-94615000D02*
X129600000Y-94615000D01*
X126940000Y-93345000D02*
X126940000Y-92015000D01*
X126940000Y-92015000D02*
X128270000Y-92015000D01*
X144085000Y-94615000D02*
X144085000Y-122615000D01*
X144085000Y-122615000D02*
X146745000Y-122615000D01*
X146745000Y-122615000D02*
X146745000Y-94615000D01*
X146745000Y-94615000D02*
X144085000Y-94615000D01*
X144085000Y-93345000D02*
X144085000Y-92015000D01*
X144085000Y-92015000D02*
X145415000Y-92015000D01*
X163385000Y-104565000D02*
X162654000Y-104565000D01*
X163385000Y-102445000D02*
X162654000Y-102445000D01*
X163385000Y-107105000D02*
X162654000Y-107105000D01*
X163385000Y-104985000D02*
X162654000Y-104985000D01*
X163385000Y-109645000D02*
X162654000Y-109645000D01*
X163385000Y-107525000D02*
X162654000Y-107525000D01*
X163385000Y-112185000D02*
X162654000Y-112185000D01*
X163385000Y-110065000D02*
X162654000Y-110065000D01*
X163385000Y-114725000D02*
X162654000Y-114725000D01*
X163385000Y-112605000D02*
X162654000Y-112605000D01*
X163385000Y-117265000D02*
X162654000Y-117265000D01*
X163385000Y-115145000D02*
X162654000Y-115145000D01*
X163385000Y-119805000D02*
X162654000Y-119805000D01*
X163385000Y-117685000D02*
X162654000Y-117685000D01*
X163385000Y-122345000D02*
X162654000Y-122345000D01*
X163385000Y-120225000D02*
X162654000Y-120225000D01*
X157420000Y-122615000D02*
X160080000Y-122615000D01*
X157420000Y-104775000D02*
X157420000Y-122615000D01*
X160080000Y-104775000D02*
X160080000Y-122615000D01*
X157420000Y-104775000D02*
X160080000Y-104775000D01*
X157420000Y-103505000D02*
X157420000Y-102175000D01*
X157420000Y-102175000D02*
X158750000Y-102175000D01*
X154880000Y-122615000D02*
X157540000Y-122615000D01*
X154880000Y-104775000D02*
X154880000Y-122615000D01*
X157540000Y-104775000D02*
X157540000Y-122615000D01*
X154880000Y-104775000D02*
X157540000Y-104775000D01*
X154880000Y-103505000D02*
X154880000Y-102175000D01*
X154880000Y-102175000D02*
X156210000Y-102175000D01*
X151578000Y-122615000D02*
X154238000Y-122615000D01*
X151578000Y-94615000D02*
X151578000Y-122615000D01*
X154238000Y-94615000D02*
X154238000Y-122615000D01*
X151578000Y-94615000D02*
X154238000Y-94615000D01*
X151578000Y-93345000D02*
X151578000Y-92015000D01*
X151578000Y-92015000D02*
X152908000Y-92015000D01*
X168850000Y-94615000D02*
X168850000Y-122615000D01*
X168850000Y-122615000D02*
X171510000Y-122615000D01*
X171510000Y-122615000D02*
X171510000Y-94615000D01*
X171510000Y-94615000D02*
X168850000Y-94615000D01*
X168850000Y-93345000D02*
X168850000Y-92015000D01*
X168850000Y-92015000D02*
X170180000Y-92015000D01*
X169040000Y-99525000D02*
X166240000Y-99525000D01*
X166240000Y-99525000D02*
X166240000Y-122725000D01*
X166240000Y-122725000D02*
X169040000Y-122725000D01*
X169040000Y-122725000D02*
X169040000Y-99525000D01*
X169040000Y-102235000D02*
X166240000Y-102235000D01*
X138578335Y-126556392D02*
G75*
G03X135346000Y-126399484I-1672335J-1078608D01*
G01*
X138578335Y-128713608D02*
G75*
G02X135346000Y-128870516I-1672335J1078608D01*
G01*
X137947130Y-126555163D02*
G75*
G03X135865039Y-126555000I-1041130J-1079837D01*
G01*
X137947130Y-128714837D02*
G75*
G02X135865039Y-128715000I-1041130J1079837D01*
G01*
X135346000Y-126399000D02*
X135346000Y-126555000D01*
X135346000Y-128715000D02*
X135346000Y-128871000D01*
X135046000Y-119155000D02*
X135046000Y-120875000D01*
X135046000Y-120875000D02*
X138766000Y-120875000D01*
X138766000Y-120875000D02*
X138766000Y-119155000D01*
X138766000Y-119155000D02*
X135046000Y-119155000D01*
X133976000Y-120015000D02*
X135046000Y-120015000D01*
X139836000Y-120015000D02*
X138766000Y-120015000D01*
X132266000Y-109025000D02*
X132266000Y-118225000D01*
X132266000Y-118225000D02*
X141466000Y-118225000D01*
X141466000Y-118225000D02*
X141466000Y-109025000D01*
X141466000Y-109025000D02*
X132266000Y-109025000D01*
X141519219Y-123825000D02*
G75*
G03X141519219Y-123825000I-803219J0D01*
G01*
X133899219Y-123825000D02*
G75*
G03X133899219Y-123825000I-803219J0D01*
G01*
X162305000Y-95245000D02*
X162305000Y-99065000D01*
X162305000Y-99065000D02*
X164085000Y-99065000D01*
X164085000Y-99065000D02*
X164085000Y-95245000D01*
X162305000Y-95245000D02*
X164085000Y-95245000D01*
X140425000Y-106740000D02*
X140425000Y-96540000D01*
X141525000Y-106740000D02*
X141525000Y-96540000D01*
X142025000Y-106740000D02*
X131625000Y-106740000D01*
X131625000Y-106740000D02*
X131625000Y-96540000D01*
X131625000Y-96540000D02*
X142025000Y-96540000D01*
X141525000Y-101640000D02*
X141925000Y-101640000D01*
X139425000Y-106980000D02*
X142265000Y-106980000D01*
X142265000Y-106980000D02*
X142265000Y-104140000D01*
X186690000Y-87055000D02*
X214690000Y-87055000D01*
X214690000Y-87055000D02*
X214690000Y-84395000D01*
X214690000Y-84395000D02*
X186690000Y-84395000D01*
X186690000Y-84395000D02*
X186690000Y-87055000D01*
X185420000Y-87055000D02*
X184090000Y-87055000D01*
X184090000Y-87055000D02*
X184090000Y-85725000D01*
X176410000Y-98155000D02*
X176410000Y-99925000D01*
X176410000Y-99925000D02*
X212210000Y-99925000D01*
X212210000Y-99925000D02*
X212210000Y-94385000D01*
X212210000Y-94385000D02*
X176410000Y-94385000D01*
X176410000Y-94385000D02*
X176410000Y-96155000D01*
X176410000Y-96155000D02*
G75*
G02X176410000Y-98155000I0J-1000000D01*
G01*
X202200000Y-109015000D02*
X199200000Y-109015000D01*
X202200000Y-105615000D02*
X199200000Y-105615000D01*
X203537790Y-108363961D02*
G75*
G02X202200000Y-109015000I-1337790J1048961D01*
G01*
X197862210Y-108363961D02*
G75*
G03X199200000Y-109015000I1337790J1048961D01*
G01*
X203537790Y-106266039D02*
G75*
G03X202200000Y-105615000I-1337790J-1048961D01*
G01*
X197862210Y-106266039D02*
G75*
G02X199200000Y-105615000I1337790J-1048961D01*
G01*
X201323000Y-109629000D02*
X202497000Y-109629000D01*
X201323000Y-111351000D02*
X202497000Y-111351000D01*
X204879000Y-108557000D02*
X204879000Y-107383000D01*
X206601000Y-108557000D02*
X206601000Y-107383000D01*
X183575000Y-106620000D02*
X180915000Y-106620000D01*
X183575000Y-119380000D02*
X183575000Y-106620000D01*
X180915000Y-119380000D02*
X180915000Y-106620000D01*
X183575000Y-119380000D02*
X180915000Y-119380000D01*
X183575000Y-120650000D02*
X183575000Y-121980000D01*
X183575000Y-121980000D02*
X182245000Y-121980000D01*
X219650000Y-94615000D02*
X219650000Y-122615000D01*
X219650000Y-122615000D02*
X222310000Y-122615000D01*
X222310000Y-122615000D02*
X222310000Y-94615000D01*
X222310000Y-94615000D02*
X219650000Y-94615000D01*
X219650000Y-93345000D02*
X219650000Y-92015000D01*
X219650000Y-92015000D02*
X220980000Y-92015000D01*
X212090000Y-127575000D02*
X184090000Y-127575000D01*
X184090000Y-127575000D02*
X184090000Y-130235000D01*
X184090000Y-130235000D02*
X212090000Y-130235000D01*
X212090000Y-130235000D02*
X212090000Y-127575000D01*
X213360000Y-127575000D02*
X214690000Y-127575000D01*
X214690000Y-127575000D02*
X214690000Y-128905000D01*
X212815864Y-120827180D02*
G75*
G03X212815000Y-126862482I1179136J-3017820D01*
G01*
X215174136Y-120827180D02*
G75*
G02X215175000Y-126862482I-1179136J-3017820D01*
G01*
X215174136Y-120827180D02*
G75*
G03X212815000Y-120827518I-1179136J-3017820D01*
G01*
X210795000Y-123845000D02*
X217195000Y-123845000D01*
X210795000Y-123805000D02*
X217195000Y-123805000D01*
X210795000Y-123765000D02*
X217195000Y-123765000D01*
X210797000Y-123725000D02*
X217193000Y-123725000D01*
X210798000Y-123685000D02*
X217192000Y-123685000D01*
X210801000Y-123645000D02*
X217189000Y-123645000D01*
X210803000Y-123605000D02*
X217187000Y-123605000D01*
X210807000Y-123565000D02*
X213015000Y-123565000D01*
X214975000Y-123565000D02*
X217183000Y-123565000D01*
X210810000Y-123525000D02*
X213015000Y-123525000D01*
X214975000Y-123525000D02*
X217180000Y-123525000D01*
X210815000Y-123485000D02*
X213015000Y-123485000D01*
X214975000Y-123485000D02*
X217175000Y-123485000D01*
X210819000Y-123445000D02*
X213015000Y-123445000D01*
X214975000Y-123445000D02*
X217171000Y-123445000D01*
X210825000Y-123405000D02*
X213015000Y-123405000D01*
X214975000Y-123405000D02*
X217165000Y-123405000D01*
X210830000Y-123365000D02*
X213015000Y-123365000D01*
X214975000Y-123365000D02*
X217160000Y-123365000D01*
X210837000Y-123325000D02*
X213015000Y-123325000D01*
X214975000Y-123325000D02*
X217153000Y-123325000D01*
X210843000Y-123285000D02*
X213015000Y-123285000D01*
X214975000Y-123285000D02*
X217147000Y-123285000D01*
X210851000Y-123245000D02*
X213015000Y-123245000D01*
X214975000Y-123245000D02*
X217139000Y-123245000D01*
X210858000Y-123205000D02*
X213015000Y-123205000D01*
X214975000Y-123205000D02*
X217132000Y-123205000D01*
X210867000Y-123165000D02*
X213015000Y-123165000D01*
X214975000Y-123165000D02*
X217123000Y-123165000D01*
X210876000Y-123124000D02*
X213015000Y-123124000D01*
X214975000Y-123124000D02*
X217114000Y-123124000D01*
X210885000Y-123084000D02*
X213015000Y-123084000D01*
X214975000Y-123084000D02*
X217105000Y-123084000D01*
X210895000Y-123044000D02*
X213015000Y-123044000D01*
X214975000Y-123044000D02*
X217095000Y-123044000D01*
X210905000Y-123004000D02*
X213015000Y-123004000D01*
X214975000Y-123004000D02*
X217085000Y-123004000D01*
X210916000Y-122964000D02*
X213015000Y-122964000D01*
X214975000Y-122964000D02*
X217074000Y-122964000D01*
X210928000Y-122924000D02*
X213015000Y-122924000D01*
X214975000Y-122924000D02*
X217062000Y-122924000D01*
X210940000Y-122884000D02*
X213015000Y-122884000D01*
X214975000Y-122884000D02*
X217050000Y-122884000D01*
X210953000Y-122844000D02*
X213015000Y-122844000D01*
X214975000Y-122844000D02*
X217037000Y-122844000D01*
X210966000Y-122804000D02*
X213015000Y-122804000D01*
X214975000Y-122804000D02*
X217024000Y-122804000D01*
X210980000Y-122764000D02*
X213015000Y-122764000D01*
X214975000Y-122764000D02*
X217010000Y-122764000D01*
X210994000Y-122724000D02*
X213015000Y-122724000D01*
X214975000Y-122724000D02*
X216996000Y-122724000D01*
X211009000Y-122684000D02*
X213015000Y-122684000D01*
X214975000Y-122684000D02*
X216981000Y-122684000D01*
X211025000Y-122644000D02*
X213015000Y-122644000D01*
X214975000Y-122644000D02*
X216965000Y-122644000D01*
X211041000Y-122604000D02*
X213015000Y-122604000D01*
X214975000Y-122604000D02*
X216949000Y-122604000D01*
X211058000Y-122564000D02*
X213015000Y-122564000D01*
X214975000Y-122564000D02*
X216932000Y-122564000D01*
X211076000Y-122524000D02*
X213015000Y-122524000D01*
X214975000Y-122524000D02*
X216914000Y-122524000D01*
X211094000Y-122484000D02*
X213015000Y-122484000D01*
X214975000Y-122484000D02*
X216896000Y-122484000D01*
X211113000Y-122444000D02*
X213015000Y-122444000D01*
X214975000Y-122444000D02*
X216877000Y-122444000D01*
X211132000Y-122404000D02*
X213015000Y-122404000D01*
X214975000Y-122404000D02*
X216858000Y-122404000D01*
X211152000Y-122364000D02*
X213015000Y-122364000D01*
X214975000Y-122364000D02*
X216838000Y-122364000D01*
X211173000Y-122324000D02*
X213015000Y-122324000D01*
X214975000Y-122324000D02*
X216817000Y-122324000D01*
X211195000Y-122284000D02*
X213015000Y-122284000D01*
X214975000Y-122284000D02*
X216795000Y-122284000D01*
X211217000Y-122244000D02*
X213015000Y-122244000D01*
X214975000Y-122244000D02*
X216773000Y-122244000D01*
X211240000Y-122204000D02*
X213015000Y-122204000D01*
X214975000Y-122204000D02*
X216750000Y-122204000D01*
X211264000Y-122164000D02*
X213015000Y-122164000D01*
X214975000Y-122164000D02*
X216726000Y-122164000D01*
X211289000Y-122124000D02*
X213015000Y-122124000D01*
X214975000Y-122124000D02*
X216701000Y-122124000D01*
X211314000Y-122084000D02*
X213015000Y-122084000D01*
X214975000Y-122084000D02*
X216676000Y-122084000D01*
X211341000Y-122044000D02*
X213015000Y-122044000D01*
X214975000Y-122044000D02*
X216649000Y-122044000D01*
X211368000Y-122004000D02*
X213015000Y-122004000D01*
X214975000Y-122004000D02*
X216622000Y-122004000D01*
X211396000Y-121964000D02*
X213015000Y-121964000D01*
X214975000Y-121964000D02*
X216594000Y-121964000D01*
X211425000Y-121924000D02*
X213015000Y-121924000D01*
X214975000Y-121924000D02*
X216565000Y-121924000D01*
X211455000Y-121884000D02*
X213015000Y-121884000D01*
X214975000Y-121884000D02*
X216535000Y-121884000D01*
X211485000Y-121844000D02*
X213015000Y-121844000D01*
X214975000Y-121844000D02*
X216505000Y-121844000D01*
X211517000Y-121804000D02*
X213015000Y-121804000D01*
X214975000Y-121804000D02*
X216473000Y-121804000D01*
X211550000Y-121764000D02*
X213015000Y-121764000D01*
X214975000Y-121764000D02*
X216440000Y-121764000D01*
X211584000Y-121724000D02*
X213015000Y-121724000D01*
X214975000Y-121724000D02*
X216406000Y-121724000D01*
X211620000Y-121684000D02*
X213015000Y-121684000D01*
X214975000Y-121684000D02*
X216370000Y-121684000D01*
X211656000Y-121644000D02*
X213015000Y-121644000D01*
X214975000Y-121644000D02*
X216334000Y-121644000D01*
X211694000Y-121604000D02*
X216296000Y-121604000D01*
X211733000Y-121564000D02*
X216257000Y-121564000D01*
X211773000Y-121524000D02*
X216217000Y-121524000D01*
X211815000Y-121484000D02*
X216175000Y-121484000D01*
X211858000Y-121444000D02*
X216132000Y-121444000D01*
X211903000Y-121404000D02*
X216087000Y-121404000D01*
X211950000Y-121364000D02*
X216040000Y-121364000D01*
X211998000Y-121324000D02*
X215992000Y-121324000D01*
X212049000Y-121284000D02*
X215941000Y-121284000D01*
X212101000Y-121244000D02*
X215889000Y-121244000D01*
X212156000Y-121204000D02*
X215834000Y-121204000D01*
X212214000Y-121164000D02*
X215776000Y-121164000D01*
X212274000Y-121124000D02*
X215716000Y-121124000D01*
X212337000Y-121084000D02*
X215653000Y-121084000D01*
X212404000Y-121044000D02*
X215586000Y-121044000D01*
X212475000Y-121004000D02*
X215515000Y-121004000D01*
X212550000Y-120964000D02*
X215440000Y-120964000D01*
X212631000Y-120924000D02*
X215359000Y-120924000D01*
X212717000Y-120884000D02*
X215273000Y-120884000D01*
X212811000Y-120844000D02*
X215179000Y-120844000D01*
X212914000Y-120804000D02*
X215076000Y-120804000D01*
X213029000Y-120764000D02*
X214961000Y-120764000D01*
X213161000Y-120724000D02*
X214829000Y-120724000D01*
X213319000Y-120684000D02*
X214671000Y-120684000D01*
X213527000Y-120644000D02*
X214463000Y-120644000D01*
X213995000Y-127295000D02*
X213995000Y-126095000D01*
X213345000Y-126695000D02*
X214645000Y-126695000D01*
X205830864Y-120827180D02*
G75*
G03X205830000Y-126862482I1179136J-3017820D01*
G01*
X208189136Y-120827180D02*
G75*
G02X208190000Y-126862482I-1179136J-3017820D01*
G01*
X208189136Y-120827180D02*
G75*
G03X205830000Y-120827518I-1179136J-3017820D01*
G01*
X203810000Y-123845000D02*
X210210000Y-123845000D01*
X203810000Y-123805000D02*
X210210000Y-123805000D01*
X203810000Y-123765000D02*
X210210000Y-123765000D01*
X203812000Y-123725000D02*
X210208000Y-123725000D01*
X203813000Y-123685000D02*
X210207000Y-123685000D01*
X203816000Y-123645000D02*
X210204000Y-123645000D01*
X203818000Y-123605000D02*
X210202000Y-123605000D01*
X203822000Y-123565000D02*
X206030000Y-123565000D01*
X207990000Y-123565000D02*
X210198000Y-123565000D01*
X203825000Y-123525000D02*
X206030000Y-123525000D01*
X207990000Y-123525000D02*
X210195000Y-123525000D01*
X203830000Y-123485000D02*
X206030000Y-123485000D01*
X207990000Y-123485000D02*
X210190000Y-123485000D01*
X203834000Y-123445000D02*
X206030000Y-123445000D01*
X207990000Y-123445000D02*
X210186000Y-123445000D01*
X203840000Y-123405000D02*
X206030000Y-123405000D01*
X207990000Y-123405000D02*
X210180000Y-123405000D01*
X203845000Y-123365000D02*
X206030000Y-123365000D01*
X207990000Y-123365000D02*
X210175000Y-123365000D01*
X203852000Y-123325000D02*
X206030000Y-123325000D01*
X207990000Y-123325000D02*
X210168000Y-123325000D01*
X203858000Y-123285000D02*
X206030000Y-123285000D01*
X207990000Y-123285000D02*
X210162000Y-123285000D01*
X203866000Y-123245000D02*
X206030000Y-123245000D01*
X207990000Y-123245000D02*
X210154000Y-123245000D01*
X203873000Y-123205000D02*
X206030000Y-123205000D01*
X207990000Y-123205000D02*
X210147000Y-123205000D01*
X203882000Y-123165000D02*
X206030000Y-123165000D01*
X207990000Y-123165000D02*
X210138000Y-123165000D01*
X203891000Y-123124000D02*
X206030000Y-123124000D01*
X207990000Y-123124000D02*
X210129000Y-123124000D01*
X203900000Y-123084000D02*
X206030000Y-123084000D01*
X207990000Y-123084000D02*
X210120000Y-123084000D01*
X203910000Y-123044000D02*
X206030000Y-123044000D01*
X207990000Y-123044000D02*
X210110000Y-123044000D01*
X203920000Y-123004000D02*
X206030000Y-123004000D01*
X207990000Y-123004000D02*
X210100000Y-123004000D01*
X203931000Y-122964000D02*
X206030000Y-122964000D01*
X207990000Y-122964000D02*
X210089000Y-122964000D01*
X203943000Y-122924000D02*
X206030000Y-122924000D01*
X207990000Y-122924000D02*
X210077000Y-122924000D01*
X203955000Y-122884000D02*
X206030000Y-122884000D01*
X207990000Y-122884000D02*
X210065000Y-122884000D01*
X203968000Y-122844000D02*
X206030000Y-122844000D01*
X207990000Y-122844000D02*
X210052000Y-122844000D01*
X203981000Y-122804000D02*
X206030000Y-122804000D01*
X207990000Y-122804000D02*
X210039000Y-122804000D01*
X203995000Y-122764000D02*
X206030000Y-122764000D01*
X207990000Y-122764000D02*
X210025000Y-122764000D01*
X204009000Y-122724000D02*
X206030000Y-122724000D01*
X207990000Y-122724000D02*
X210011000Y-122724000D01*
X204024000Y-122684000D02*
X206030000Y-122684000D01*
X207990000Y-122684000D02*
X209996000Y-122684000D01*
X204040000Y-122644000D02*
X206030000Y-122644000D01*
X207990000Y-122644000D02*
X209980000Y-122644000D01*
X204056000Y-122604000D02*
X206030000Y-122604000D01*
X207990000Y-122604000D02*
X209964000Y-122604000D01*
X204073000Y-122564000D02*
X206030000Y-122564000D01*
X207990000Y-122564000D02*
X209947000Y-122564000D01*
X204091000Y-122524000D02*
X206030000Y-122524000D01*
X207990000Y-122524000D02*
X209929000Y-122524000D01*
X204109000Y-122484000D02*
X206030000Y-122484000D01*
X207990000Y-122484000D02*
X209911000Y-122484000D01*
X204128000Y-122444000D02*
X206030000Y-122444000D01*
X207990000Y-122444000D02*
X209892000Y-122444000D01*
X204147000Y-122404000D02*
X206030000Y-122404000D01*
X207990000Y-122404000D02*
X209873000Y-122404000D01*
X204167000Y-122364000D02*
X206030000Y-122364000D01*
X207990000Y-122364000D02*
X209853000Y-122364000D01*
X204188000Y-122324000D02*
X206030000Y-122324000D01*
X207990000Y-122324000D02*
X209832000Y-122324000D01*
X204210000Y-122284000D02*
X206030000Y-122284000D01*
X207990000Y-122284000D02*
X209810000Y-122284000D01*
X204232000Y-122244000D02*
X206030000Y-122244000D01*
X207990000Y-122244000D02*
X209788000Y-122244000D01*
X204255000Y-122204000D02*
X206030000Y-122204000D01*
X207990000Y-122204000D02*
X209765000Y-122204000D01*
X204279000Y-122164000D02*
X206030000Y-122164000D01*
X207990000Y-122164000D02*
X209741000Y-122164000D01*
X204304000Y-122124000D02*
X206030000Y-122124000D01*
X207990000Y-122124000D02*
X209716000Y-122124000D01*
X204329000Y-122084000D02*
X206030000Y-122084000D01*
X207990000Y-122084000D02*
X209691000Y-122084000D01*
X204356000Y-122044000D02*
X206030000Y-122044000D01*
X207990000Y-122044000D02*
X209664000Y-122044000D01*
X204383000Y-122004000D02*
X206030000Y-122004000D01*
X207990000Y-122004000D02*
X209637000Y-122004000D01*
X204411000Y-121964000D02*
X206030000Y-121964000D01*
X207990000Y-121964000D02*
X209609000Y-121964000D01*
X204440000Y-121924000D02*
X206030000Y-121924000D01*
X207990000Y-121924000D02*
X209580000Y-121924000D01*
X204470000Y-121884000D02*
X206030000Y-121884000D01*
X207990000Y-121884000D02*
X209550000Y-121884000D01*
X204500000Y-121844000D02*
X206030000Y-121844000D01*
X207990000Y-121844000D02*
X209520000Y-121844000D01*
X204532000Y-121804000D02*
X206030000Y-121804000D01*
X207990000Y-121804000D02*
X209488000Y-121804000D01*
X204565000Y-121764000D02*
X206030000Y-121764000D01*
X207990000Y-121764000D02*
X209455000Y-121764000D01*
X204599000Y-121724000D02*
X206030000Y-121724000D01*
X207990000Y-121724000D02*
X209421000Y-121724000D01*
X204635000Y-121684000D02*
X206030000Y-121684000D01*
X207990000Y-121684000D02*
X209385000Y-121684000D01*
X204671000Y-121644000D02*
X206030000Y-121644000D01*
X207990000Y-121644000D02*
X209349000Y-121644000D01*
X204709000Y-121604000D02*
X209311000Y-121604000D01*
X204748000Y-121564000D02*
X209272000Y-121564000D01*
X204788000Y-121524000D02*
X209232000Y-121524000D01*
X204830000Y-121484000D02*
X209190000Y-121484000D01*
X204873000Y-121444000D02*
X209147000Y-121444000D01*
X204918000Y-121404000D02*
X209102000Y-121404000D01*
X204965000Y-121364000D02*
X209055000Y-121364000D01*
X205013000Y-121324000D02*
X209007000Y-121324000D01*
X205064000Y-121284000D02*
X208956000Y-121284000D01*
X205116000Y-121244000D02*
X208904000Y-121244000D01*
X205171000Y-121204000D02*
X208849000Y-121204000D01*
X205229000Y-121164000D02*
X208791000Y-121164000D01*
X205289000Y-121124000D02*
X208731000Y-121124000D01*
X205352000Y-121084000D02*
X208668000Y-121084000D01*
X205419000Y-121044000D02*
X208601000Y-121044000D01*
X205490000Y-121004000D02*
X208530000Y-121004000D01*
X205565000Y-120964000D02*
X208455000Y-120964000D01*
X205646000Y-120924000D02*
X208374000Y-120924000D01*
X205732000Y-120884000D02*
X208288000Y-120884000D01*
X205826000Y-120844000D02*
X208194000Y-120844000D01*
X205929000Y-120804000D02*
X208091000Y-120804000D01*
X206044000Y-120764000D02*
X207976000Y-120764000D01*
X206176000Y-120724000D02*
X207844000Y-120724000D01*
X206334000Y-120684000D02*
X207686000Y-120684000D01*
X206542000Y-120644000D02*
X207478000Y-120644000D01*
X207010000Y-127295000D02*
X207010000Y-126095000D01*
X206360000Y-126695000D02*
X207660000Y-126695000D01*
X183560000Y-122965000D02*
X183560000Y-124685000D01*
X183560000Y-124685000D02*
X187280000Y-124685000D01*
X187280000Y-124685000D02*
X187280000Y-122965000D01*
X187280000Y-122965000D02*
X183560000Y-122965000D01*
X182490000Y-123825000D02*
X183560000Y-123825000D01*
X188350000Y-123825000D02*
X187280000Y-123825000D01*
X193085000Y-114710000D02*
X193085000Y-116430000D01*
X193085000Y-116430000D02*
X196805000Y-116430000D01*
X196805000Y-116430000D02*
X196805000Y-114710000D01*
X196805000Y-114710000D02*
X193085000Y-114710000D01*
X192015000Y-115570000D02*
X193085000Y-115570000D01*
X197875000Y-115570000D02*
X196805000Y-115570000D01*
X192770000Y-123610000D02*
X197270000Y-123610000D01*
X191520000Y-119610000D02*
X191520000Y-121110000D01*
X197270000Y-117110000D02*
X192770000Y-117110000D01*
X198520000Y-121110000D02*
X198520000Y-119610000D01*
D14*
X204089000Y-118491000D02*
X204089000Y-115062000D01*
X213741000Y-118491000D02*
X213741000Y-115062000D01*
X203581000Y-119634000D02*
X214249000Y-119634000D01*
X207137000Y-118618000D02*
X207137000Y-119888000D01*
X210693000Y-118618000D02*
X210693000Y-119888000D01*
X214249000Y-118491000D02*
X203581000Y-118491000D01*
X203581000Y-115062000D02*
X214249000Y-115062000D01*
X214249000Y-119888000D02*
X214249000Y-115062000D01*
X203581000Y-119888000D02*
X203581000Y-115062000D01*
X203581000Y-119888000D02*
X214249000Y-119888000D01*
D13*
X186245000Y-127425000D02*
X185514000Y-127425000D01*
X186245000Y-125305000D02*
X185514000Y-125305000D01*
X185510000Y-119770000D02*
X185330000Y-119770000D01*
X185330000Y-119770000D02*
X185330000Y-116450000D01*
X185330000Y-116450000D02*
X185510000Y-116450000D01*
X187870000Y-119770000D02*
X188050000Y-119770000D01*
X188050000Y-119770000D02*
X188050000Y-116450000D01*
X188050000Y-116450000D02*
X187870000Y-116450000D01*
X185330000Y-119230000D02*
X188050000Y-119230000D01*
X203445000Y-112485000D02*
X203445000Y-112305000D01*
X203445000Y-112305000D02*
X206765000Y-112305000D01*
X206765000Y-112305000D02*
X206765000Y-112485000D01*
X203445000Y-114845000D02*
X203445000Y-115025000D01*
X203445000Y-115025000D02*
X206765000Y-115025000D01*
X206765000Y-115025000D02*
X206765000Y-114845000D01*
X203985000Y-112305000D02*
X203985000Y-115025000D01*
X181035000Y-106620000D02*
X178375000Y-106620000D01*
X181035000Y-119380000D02*
X181035000Y-106620000D01*
X178375000Y-119380000D02*
X178375000Y-106620000D01*
X181035000Y-119380000D02*
X178375000Y-119380000D01*
X181035000Y-120650000D02*
X181035000Y-121980000D01*
X181035000Y-121980000D02*
X179705000Y-121980000D01*
X201870000Y-163890000D02*
X204530000Y-163890000D01*
X201870000Y-156210000D02*
X201870000Y-163890000D01*
X204530000Y-156210000D02*
X204530000Y-163890000D01*
X201870000Y-156210000D02*
X204530000Y-156210000D01*
X201870000Y-154940000D02*
X201870000Y-153610000D01*
X201870000Y-153610000D02*
X203200000Y-153610000D01*
X155940000Y-176315000D02*
X160440000Y-176315000D01*
X154690000Y-172315000D02*
X154690000Y-173815000D01*
X160440000Y-169815000D02*
X155940000Y-169815000D01*
X161690000Y-173815000D02*
X161690000Y-172315000D01*
X126940000Y-172780000D02*
X129600000Y-172780000D01*
X126940000Y-144780000D02*
X126940000Y-172780000D01*
X129600000Y-144780000D02*
X129600000Y-172780000D01*
X126940000Y-144780000D02*
X129600000Y-144780000D01*
X126940000Y-143510000D02*
X126940000Y-142180000D01*
X126940000Y-142180000D02*
X128270000Y-142180000D01*
X177105000Y-172780000D02*
X179765000Y-172780000D01*
X177105000Y-144780000D02*
X177105000Y-172780000D01*
X179765000Y-144780000D02*
X179765000Y-172780000D01*
X177105000Y-144780000D02*
X179765000Y-144780000D01*
X177105000Y-143510000D02*
X177105000Y-142180000D01*
X177105000Y-142180000D02*
X178435000Y-142180000D01*
X168850000Y-144780000D02*
X168850000Y-172780000D01*
X168850000Y-172780000D02*
X171510000Y-172780000D01*
X171510000Y-172780000D02*
X171510000Y-144780000D01*
X171510000Y-144780000D02*
X168850000Y-144780000D01*
X168850000Y-143510000D02*
X168850000Y-142180000D01*
X168850000Y-142180000D02*
X170180000Y-142180000D01*
X219015000Y-144780000D02*
X219015000Y-172780000D01*
X219015000Y-172780000D02*
X221675000Y-172780000D01*
X221675000Y-172780000D02*
X221675000Y-144780000D01*
X221675000Y-144780000D02*
X219015000Y-144780000D01*
X219015000Y-143510000D02*
X219015000Y-142180000D01*
X219015000Y-142180000D02*
X220345000Y-142180000D01*
X184301827Y-140913929D02*
G75*
G02X189310000Y-137140000I5008173J-1436071D01*
G01*
X193300617Y-145699947D02*
G75*
G02X184233000Y-143521000I-3990617J3349947D01*
G01*
X194343072Y-141001133D02*
G75*
G02X194425000Y-143344000I-5033072J-1348867D01*
G01*
X189219343Y-137140743D02*
G75*
G02X193182000Y-138864000I90657J-5209257D01*
G01*
X190810000Y-142350000D02*
G75*
G03X190810000Y-142350000I-1500000J0D01*
G01*
X204621827Y-140913929D02*
G75*
G02X209630000Y-137140000I5008173J-1436071D01*
G01*
X213620617Y-145699947D02*
G75*
G02X204553000Y-143521000I-3990617J3349947D01*
G01*
X214663072Y-141001133D02*
G75*
G02X214745000Y-143344000I-5033072J-1348867D01*
G01*
X209539343Y-137140743D02*
G75*
G02X213502000Y-138864000I90657J-5209257D01*
G01*
X211130000Y-142350000D02*
G75*
G03X211130000Y-142350000I-1500000J0D01*
G01*
X184301827Y-172028929D02*
G75*
G02X189310000Y-168255000I5008173J-1436071D01*
G01*
X193300617Y-176814947D02*
G75*
G02X184233000Y-174636000I-3990617J3349947D01*
G01*
X194343072Y-172116133D02*
G75*
G02X194425000Y-174459000I-5033072J-1348867D01*
G01*
X189219343Y-168255743D02*
G75*
G02X193182000Y-169979000I90657J-5209257D01*
G01*
X190810000Y-173465000D02*
G75*
G03X190810000Y-173465000I-1500000J0D01*
G01*
X204621827Y-172028929D02*
G75*
G02X209630000Y-168255000I5008173J-1436071D01*
G01*
X213620617Y-176814947D02*
G75*
G02X204553000Y-174636000I-3990617J3349947D01*
G01*
X214663072Y-172116133D02*
G75*
G02X214745000Y-174459000I-5033072J-1348867D01*
G01*
X209539343Y-168255743D02*
G75*
G02X213502000Y-169979000I90657J-5209257D01*
G01*
X211130000Y-173465000D02*
G75*
G03X211130000Y-173465000I-1500000J0D01*
G01*
X196790000Y-163890000D02*
X199450000Y-163890000D01*
X196790000Y-156210000D02*
X196790000Y-163890000D01*
X199450000Y-156210000D02*
X199450000Y-163890000D01*
X196790000Y-156210000D02*
X199450000Y-156210000D01*
X196790000Y-154940000D02*
X196790000Y-153610000D01*
X196790000Y-153610000D02*
X198120000Y-153610000D01*
X151070000Y-163890000D02*
X153730000Y-163890000D01*
X151070000Y-156210000D02*
X151070000Y-163890000D01*
X153730000Y-156210000D02*
X153730000Y-163890000D01*
X151070000Y-156210000D02*
X153730000Y-156210000D01*
X151070000Y-154940000D02*
X151070000Y-153610000D01*
X151070000Y-153610000D02*
X152400000Y-153610000D01*
X145990000Y-163890000D02*
X148650000Y-163890000D01*
X145990000Y-156210000D02*
X145990000Y-163890000D01*
X148650000Y-156210000D02*
X148650000Y-163890000D01*
X145990000Y-156210000D02*
X148650000Y-156210000D01*
X145990000Y-154940000D02*
X145990000Y-153610000D01*
X145990000Y-153610000D02*
X147320000Y-153610000D01*
X201990000Y-153610000D02*
X199330000Y-153610000D01*
X201990000Y-161290000D02*
X201990000Y-153610000D01*
X199330000Y-161290000D02*
X199330000Y-153610000D01*
X201990000Y-161290000D02*
X199330000Y-161290000D01*
X201990000Y-162560000D02*
X201990000Y-163890000D01*
X201990000Y-163890000D02*
X200660000Y-163890000D01*
X151190000Y-153610000D02*
X148530000Y-153610000D01*
X151190000Y-161290000D02*
X151190000Y-153610000D01*
X148530000Y-161290000D02*
X148530000Y-153610000D01*
X151190000Y-161290000D02*
X148530000Y-161290000D01*
X151190000Y-162560000D02*
X151190000Y-163890000D01*
X151190000Y-163890000D02*
X149860000Y-163890000D01*
X139110000Y-138205000D02*
X139110000Y-139925000D01*
X139110000Y-139925000D02*
X142830000Y-139925000D01*
X142830000Y-139925000D02*
X142830000Y-138205000D01*
X142830000Y-138205000D02*
X139110000Y-138205000D01*
X138040000Y-139065000D02*
X139110000Y-139065000D01*
X143900000Y-139065000D02*
X142830000Y-139065000D01*
X156255000Y-138205000D02*
X156255000Y-139925000D01*
X156255000Y-139925000D02*
X159975000Y-139925000D01*
X159975000Y-139925000D02*
X159975000Y-138205000D01*
X159975000Y-138205000D02*
X156255000Y-138205000D01*
X155185000Y-139065000D02*
X156255000Y-139065000D01*
X161045000Y-139065000D02*
X159975000Y-139065000D01*
X139110000Y-166780000D02*
X139110000Y-168500000D01*
X139110000Y-168500000D02*
X142830000Y-168500000D01*
X142830000Y-168500000D02*
X142830000Y-166780000D01*
X142830000Y-166780000D02*
X139110000Y-166780000D01*
X138040000Y-167640000D02*
X139110000Y-167640000D01*
X143900000Y-167640000D02*
X142830000Y-167640000D01*
X156255000Y-166780000D02*
X156255000Y-168500000D01*
X156255000Y-168500000D02*
X159975000Y-168500000D01*
X159975000Y-168500000D02*
X159975000Y-166780000D01*
X159975000Y-166780000D02*
X156255000Y-166780000D01*
X155185000Y-167640000D02*
X156255000Y-167640000D01*
X161045000Y-167640000D02*
X159975000Y-167640000D01*
X138795000Y-148375000D02*
X143295000Y-148375000D01*
X137545000Y-144375000D02*
X137545000Y-145875000D01*
X143295000Y-141875000D02*
X138795000Y-141875000D01*
X144545000Y-145875000D02*
X144545000Y-144375000D01*
X155940000Y-148375000D02*
X160440000Y-148375000D01*
X154690000Y-144375000D02*
X154690000Y-145875000D01*
X160440000Y-141875000D02*
X155940000Y-141875000D01*
X161690000Y-145875000D02*
X161690000Y-144375000D01*
X138795000Y-176315000D02*
X143295000Y-176315000D01*
X137545000Y-172315000D02*
X137545000Y-173815000D01*
X143295000Y-169815000D02*
X138795000Y-169815000D01*
X144545000Y-173815000D02*
X144545000Y-172315000D01*
D14*
X130862381Y-84593333D02*
X131576667Y-84593333D01*
X131719524Y-84640953D01*
X131814762Y-84736191D01*
X131862381Y-84879048D01*
X131862381Y-84974286D01*
X131862381Y-83593333D02*
X131862381Y-84164762D01*
X131862381Y-83879048D02*
X130862381Y-83879048D01*
X131005238Y-83974286D01*
X131100476Y-84069524D01*
X131148095Y-84164762D01*
X127793810Y-91467381D02*
X127793810Y-90467381D01*
X128793810Y-91467381D02*
X128222381Y-91467381D01*
X128508095Y-91467381D02*
X128508095Y-90467381D01*
X128412857Y-90610238D01*
X128317619Y-90705476D01*
X128222381Y-90753095D01*
X144843571Y-90467381D02*
X145034048Y-90467381D01*
X145129286Y-90515000D01*
X145224524Y-90610238D01*
X145272143Y-90800714D01*
X145272143Y-91134048D01*
X145224524Y-91324524D01*
X145129286Y-91419762D01*
X145034048Y-91467381D01*
X144843571Y-91467381D01*
X144748333Y-91419762D01*
X144653095Y-91324524D01*
X144605476Y-91134048D01*
X144605476Y-90800714D01*
X144653095Y-90610238D01*
X144748333Y-90515000D01*
X144843571Y-90467381D01*
X146224524Y-91467381D02*
X145653095Y-91467381D01*
X145938809Y-91467381D02*
X145938809Y-90467381D01*
X145843571Y-90610238D01*
X145748333Y-90705476D01*
X145653095Y-90753095D01*
X162456905Y-106017381D02*
X162456905Y-105017381D01*
X162695000Y-105017381D01*
X162837858Y-105065000D01*
X162933096Y-105160238D01*
X162980715Y-105255476D01*
X163028334Y-105445952D01*
X163028334Y-105588810D01*
X162980715Y-105779286D01*
X162933096Y-105874524D01*
X162837858Y-105969762D01*
X162695000Y-106017381D01*
X162456905Y-106017381D01*
X163409286Y-105112619D02*
X163456905Y-105065000D01*
X163552143Y-105017381D01*
X163790239Y-105017381D01*
X163885477Y-105065000D01*
X163933096Y-105112619D01*
X163980715Y-105207857D01*
X163980715Y-105303095D01*
X163933096Y-105445952D01*
X163361667Y-106017381D01*
X163980715Y-106017381D01*
X162456905Y-108557381D02*
X162456905Y-107557381D01*
X162695000Y-107557381D01*
X162837858Y-107605000D01*
X162933096Y-107700238D01*
X162980715Y-107795476D01*
X163028334Y-107985952D01*
X163028334Y-108128810D01*
X162980715Y-108319286D01*
X162933096Y-108414524D01*
X162837858Y-108509762D01*
X162695000Y-108557381D01*
X162456905Y-108557381D01*
X163361667Y-107557381D02*
X163980715Y-107557381D01*
X163647381Y-107938333D01*
X163790239Y-107938333D01*
X163885477Y-107985952D01*
X163933096Y-108033571D01*
X163980715Y-108128810D01*
X163980715Y-108366905D01*
X163933096Y-108462143D01*
X163885477Y-108509762D01*
X163790239Y-108557381D01*
X163504524Y-108557381D01*
X163409286Y-108509762D01*
X163361667Y-108462143D01*
X162456905Y-111097381D02*
X162456905Y-110097381D01*
X162695000Y-110097381D01*
X162837858Y-110145000D01*
X162933096Y-110240238D01*
X162980715Y-110335476D01*
X163028334Y-110525952D01*
X163028334Y-110668810D01*
X162980715Y-110859286D01*
X162933096Y-110954524D01*
X162837858Y-111049762D01*
X162695000Y-111097381D01*
X162456905Y-111097381D01*
X163885477Y-110430714D02*
X163885477Y-111097381D01*
X163647381Y-110049762D02*
X163409286Y-110764048D01*
X164028334Y-110764048D01*
X162456905Y-113637381D02*
X162456905Y-112637381D01*
X162695000Y-112637381D01*
X162837858Y-112685000D01*
X162933096Y-112780238D01*
X162980715Y-112875476D01*
X163028334Y-113065952D01*
X163028334Y-113208810D01*
X162980715Y-113399286D01*
X162933096Y-113494524D01*
X162837858Y-113589762D01*
X162695000Y-113637381D01*
X162456905Y-113637381D01*
X163933096Y-112637381D02*
X163456905Y-112637381D01*
X163409286Y-113113571D01*
X163456905Y-113065952D01*
X163552143Y-113018333D01*
X163790239Y-113018333D01*
X163885477Y-113065952D01*
X163933096Y-113113571D01*
X163980715Y-113208810D01*
X163980715Y-113446905D01*
X163933096Y-113542143D01*
X163885477Y-113589762D01*
X163790239Y-113637381D01*
X163552143Y-113637381D01*
X163456905Y-113589762D01*
X163409286Y-113542143D01*
X162456905Y-116177381D02*
X162456905Y-115177381D01*
X162695000Y-115177381D01*
X162837858Y-115225000D01*
X162933096Y-115320238D01*
X162980715Y-115415476D01*
X163028334Y-115605952D01*
X163028334Y-115748810D01*
X162980715Y-115939286D01*
X162933096Y-116034524D01*
X162837858Y-116129762D01*
X162695000Y-116177381D01*
X162456905Y-116177381D01*
X163885477Y-115177381D02*
X163695000Y-115177381D01*
X163599762Y-115225000D01*
X163552143Y-115272619D01*
X163456905Y-115415476D01*
X163409286Y-115605952D01*
X163409286Y-115986905D01*
X163456905Y-116082143D01*
X163504524Y-116129762D01*
X163599762Y-116177381D01*
X163790239Y-116177381D01*
X163885477Y-116129762D01*
X163933096Y-116082143D01*
X163980715Y-115986905D01*
X163980715Y-115748810D01*
X163933096Y-115653571D01*
X163885477Y-115605952D01*
X163790239Y-115558333D01*
X163599762Y-115558333D01*
X163504524Y-115605952D01*
X163456905Y-115653571D01*
X163409286Y-115748810D01*
X162456905Y-118717381D02*
X162456905Y-117717381D01*
X162695000Y-117717381D01*
X162837858Y-117765000D01*
X162933096Y-117860238D01*
X162980715Y-117955476D01*
X163028334Y-118145952D01*
X163028334Y-118288810D01*
X162980715Y-118479286D01*
X162933096Y-118574524D01*
X162837858Y-118669762D01*
X162695000Y-118717381D01*
X162456905Y-118717381D01*
X163361667Y-117717381D02*
X164028334Y-117717381D01*
X163599762Y-118717381D01*
X162456905Y-121257381D02*
X162456905Y-120257381D01*
X162695000Y-120257381D01*
X162837858Y-120305000D01*
X162933096Y-120400238D01*
X162980715Y-120495476D01*
X163028334Y-120685952D01*
X163028334Y-120828810D01*
X162980715Y-121019286D01*
X162933096Y-121114524D01*
X162837858Y-121209762D01*
X162695000Y-121257381D01*
X162456905Y-121257381D01*
X163599762Y-120685952D02*
X163504524Y-120638333D01*
X163456905Y-120590714D01*
X163409286Y-120495476D01*
X163409286Y-120447857D01*
X163456905Y-120352619D01*
X163504524Y-120305000D01*
X163599762Y-120257381D01*
X163790239Y-120257381D01*
X163885477Y-120305000D01*
X163933096Y-120352619D01*
X163980715Y-120447857D01*
X163980715Y-120495476D01*
X163933096Y-120590714D01*
X163885477Y-120638333D01*
X163790239Y-120685952D01*
X163599762Y-120685952D01*
X163504524Y-120733571D01*
X163456905Y-120781190D01*
X163409286Y-120876429D01*
X163409286Y-121066905D01*
X163456905Y-121162143D01*
X163504524Y-121209762D01*
X163599762Y-121257381D01*
X163790239Y-121257381D01*
X163885477Y-121209762D01*
X163933096Y-121162143D01*
X163980715Y-121066905D01*
X163980715Y-120876429D01*
X163933096Y-120781190D01*
X163885477Y-120733571D01*
X163790239Y-120685952D01*
X162456905Y-123797381D02*
X162456905Y-122797381D01*
X162695000Y-122797381D01*
X162837858Y-122845000D01*
X162933096Y-122940238D01*
X162980715Y-123035476D01*
X163028334Y-123225952D01*
X163028334Y-123368810D01*
X162980715Y-123559286D01*
X162933096Y-123654524D01*
X162837858Y-123749762D01*
X162695000Y-123797381D01*
X162456905Y-123797381D01*
X163504524Y-123797381D02*
X163695000Y-123797381D01*
X163790239Y-123749762D01*
X163837858Y-123702143D01*
X163933096Y-123559286D01*
X163980715Y-123368810D01*
X163980715Y-122987857D01*
X163933096Y-122892619D01*
X163885477Y-122845000D01*
X163790239Y-122797381D01*
X163599762Y-122797381D01*
X163504524Y-122845000D01*
X163456905Y-122892619D01*
X163409286Y-122987857D01*
X163409286Y-123225952D01*
X163456905Y-123321190D01*
X163504524Y-123368810D01*
X163599762Y-123416429D01*
X163790239Y-123416429D01*
X163885477Y-123368810D01*
X163933096Y-123321190D01*
X163980715Y-123225952D01*
X157988095Y-101627381D02*
X157988095Y-100627381D01*
X157988095Y-101103571D02*
X158559524Y-101103571D01*
X158559524Y-101627381D02*
X158559524Y-100627381D01*
X159559524Y-101627381D02*
X158988095Y-101627381D01*
X159273809Y-101627381D02*
X159273809Y-100627381D01*
X159178571Y-100770238D01*
X159083333Y-100865476D01*
X158988095Y-100913095D01*
X155448095Y-101627381D02*
X155448095Y-100627381D01*
X155448095Y-101103571D02*
X156019524Y-101103571D01*
X156019524Y-101627381D02*
X156019524Y-100627381D01*
X156448095Y-100722619D02*
X156495714Y-100675000D01*
X156590952Y-100627381D01*
X156829048Y-100627381D01*
X156924286Y-100675000D01*
X156971905Y-100722619D01*
X157019524Y-100817857D01*
X157019524Y-100913095D01*
X156971905Y-101055952D01*
X156400476Y-101627381D01*
X157019524Y-101627381D01*
X152431810Y-91467381D02*
X152431810Y-90467381D01*
X152860381Y-90562619D02*
X152908000Y-90515000D01*
X153003238Y-90467381D01*
X153241334Y-90467381D01*
X153336572Y-90515000D01*
X153384191Y-90562619D01*
X153431810Y-90657857D01*
X153431810Y-90753095D01*
X153384191Y-90895952D01*
X152812762Y-91467381D01*
X153431810Y-91467381D01*
X169608571Y-90467381D02*
X169799048Y-90467381D01*
X169894286Y-90515000D01*
X169989524Y-90610238D01*
X170037143Y-90800714D01*
X170037143Y-91134048D01*
X169989524Y-91324524D01*
X169894286Y-91419762D01*
X169799048Y-91467381D01*
X169608571Y-91467381D01*
X169513333Y-91419762D01*
X169418095Y-91324524D01*
X169370476Y-91134048D01*
X169370476Y-90800714D01*
X169418095Y-90610238D01*
X169513333Y-90515000D01*
X169608571Y-90467381D01*
X170418095Y-90562619D02*
X170465714Y-90515000D01*
X170560952Y-90467381D01*
X170799048Y-90467381D01*
X170894286Y-90515000D01*
X170941905Y-90562619D01*
X170989524Y-90657857D01*
X170989524Y-90753095D01*
X170941905Y-90895952D01*
X170370476Y-91467381D01*
X170989524Y-91467381D01*
X170492381Y-113085476D02*
X170016190Y-113418810D01*
X170492381Y-113656905D02*
X169492381Y-113656905D01*
X169492381Y-113275952D01*
X169540000Y-113180714D01*
X169587619Y-113133095D01*
X169682857Y-113085476D01*
X169825714Y-113085476D01*
X169920952Y-113133095D01*
X169968571Y-113180714D01*
X170016190Y-113275952D01*
X170016190Y-113656905D01*
X170492381Y-112656905D02*
X169492381Y-112656905D01*
X170492381Y-112085476D01*
X169492381Y-112085476D01*
X170492381Y-111085476D02*
X170492381Y-111656905D01*
X170492381Y-111371191D02*
X169492381Y-111371191D01*
X169635238Y-111466429D01*
X169730476Y-111561667D01*
X169778095Y-111656905D01*
X135691714Y-129357381D02*
X135691714Y-128357381D01*
X135929809Y-128357381D01*
X136072667Y-128405000D01*
X136167905Y-128500238D01*
X136215524Y-128595476D01*
X136263143Y-128785952D01*
X136263143Y-128928810D01*
X136215524Y-129119286D01*
X136167905Y-129214524D01*
X136072667Y-129309762D01*
X135929809Y-129357381D01*
X135691714Y-129357381D01*
X137215524Y-129357381D02*
X136644095Y-129357381D01*
X136929809Y-129357381D02*
X136929809Y-128357381D01*
X136834571Y-128500238D01*
X136739333Y-128595476D01*
X136644095Y-128643095D01*
X137834571Y-128357381D02*
X137929810Y-128357381D01*
X138025048Y-128405000D01*
X138072667Y-128452619D01*
X138120286Y-128547857D01*
X138167905Y-128738333D01*
X138167905Y-128976429D01*
X138120286Y-129166905D01*
X138072667Y-129262143D01*
X138025048Y-129309762D01*
X137929810Y-129357381D01*
X137834571Y-129357381D01*
X137739333Y-129309762D01*
X137691714Y-129262143D01*
X137644095Y-129166905D01*
X137596476Y-128976429D01*
X137596476Y-128738333D01*
X137644095Y-128547857D01*
X137691714Y-128452619D01*
X137739333Y-128405000D01*
X137834571Y-128357381D01*
X136739334Y-120467381D02*
X136406000Y-119991190D01*
X136167905Y-120467381D02*
X136167905Y-119467381D01*
X136548858Y-119467381D01*
X136644096Y-119515000D01*
X136691715Y-119562619D01*
X136739334Y-119657857D01*
X136739334Y-119800714D01*
X136691715Y-119895952D01*
X136644096Y-119943571D01*
X136548858Y-119991190D01*
X136167905Y-119991190D01*
X137120286Y-119562619D02*
X137167905Y-119515000D01*
X137263143Y-119467381D01*
X137501239Y-119467381D01*
X137596477Y-119515000D01*
X137644096Y-119562619D01*
X137691715Y-119657857D01*
X137691715Y-119753095D01*
X137644096Y-119895952D01*
X137072667Y-120467381D01*
X137691715Y-120467381D01*
X135532667Y-113129762D02*
X135675524Y-113177381D01*
X135913620Y-113177381D01*
X136008858Y-113129762D01*
X136056477Y-113082143D01*
X136104096Y-112986905D01*
X136104096Y-112891667D01*
X136056477Y-112796429D01*
X136008858Y-112748810D01*
X135913620Y-112701190D01*
X135723143Y-112653571D01*
X135627905Y-112605952D01*
X135580286Y-112558333D01*
X135532667Y-112463095D01*
X135532667Y-112367857D01*
X135580286Y-112272619D01*
X135627905Y-112225000D01*
X135723143Y-112177381D01*
X135961239Y-112177381D01*
X136104096Y-112225000D01*
X136437429Y-112177381D02*
X136675524Y-113177381D01*
X136866001Y-112463095D01*
X137056477Y-113177381D01*
X137294572Y-112177381D01*
X138199334Y-113177381D02*
X137627905Y-113177381D01*
X137913619Y-113177381D02*
X137913619Y-112177381D01*
X137818381Y-112320238D01*
X137723143Y-112415476D01*
X137627905Y-112463095D01*
X137882381Y-101933333D02*
X138596667Y-101933333D01*
X138739524Y-101980953D01*
X138834762Y-102076191D01*
X138882381Y-102219048D01*
X138882381Y-102314286D01*
X137882381Y-101552381D02*
X137882381Y-100933333D01*
X138263333Y-101266667D01*
X138263333Y-101123809D01*
X138310952Y-101028571D01*
X138358571Y-100980952D01*
X138453810Y-100933333D01*
X138691905Y-100933333D01*
X138787143Y-100980952D01*
X138834762Y-101028571D01*
X138882381Y-101123809D01*
X138882381Y-101409524D01*
X138834762Y-101504762D01*
X138787143Y-101552381D01*
X182542381Y-86296429D02*
X182542381Y-86105952D01*
X182590000Y-86010714D01*
X182685238Y-85915476D01*
X182875714Y-85867857D01*
X183209048Y-85867857D01*
X183399524Y-85915476D01*
X183494762Y-86010714D01*
X183542381Y-86105952D01*
X183542381Y-86296429D01*
X183494762Y-86391667D01*
X183399524Y-86486905D01*
X183209048Y-86534524D01*
X182875714Y-86534524D01*
X182685238Y-86486905D01*
X182590000Y-86391667D01*
X182542381Y-86296429D01*
X183542381Y-84915476D02*
X183542381Y-85486905D01*
X183542381Y-85201191D02*
X182542381Y-85201191D01*
X182685238Y-85296429D01*
X182780476Y-85391667D01*
X182828095Y-85486905D01*
X191008095Y-96607381D02*
X191008095Y-97416905D01*
X191055714Y-97512143D01*
X191103333Y-97559762D01*
X191198571Y-97607381D01*
X191389048Y-97607381D01*
X191484286Y-97559762D01*
X191531905Y-97512143D01*
X191579524Y-97416905D01*
X191579524Y-96607381D01*
X192579524Y-97607381D02*
X192008095Y-97607381D01*
X192293809Y-97607381D02*
X192293809Y-96607381D01*
X192198571Y-96750238D01*
X192103333Y-96845476D01*
X192008095Y-96893095D01*
X180412143Y-96051667D02*
X180888334Y-96051667D01*
X180316905Y-96337381D02*
X180650238Y-95337381D01*
X180983572Y-96337381D01*
X181174048Y-95337381D02*
X181745477Y-95337381D01*
X181459762Y-96337381D02*
X181459762Y-95337381D01*
X182078810Y-96337381D02*
X182078810Y-95337381D01*
X182412144Y-96051667D01*
X182745477Y-95337381D01*
X182745477Y-96337381D01*
X183221667Y-95813571D02*
X183555001Y-95813571D01*
X183697858Y-96337381D02*
X183221667Y-96337381D01*
X183221667Y-95337381D01*
X183697858Y-95337381D01*
X184650239Y-95385000D02*
X184555001Y-95337381D01*
X184412144Y-95337381D01*
X184269286Y-95385000D01*
X184174048Y-95480238D01*
X184126429Y-95575476D01*
X184078810Y-95765952D01*
X184078810Y-95908810D01*
X184126429Y-96099286D01*
X184174048Y-96194524D01*
X184269286Y-96289762D01*
X184412144Y-96337381D01*
X184507382Y-96337381D01*
X184650239Y-96289762D01*
X184697858Y-96242143D01*
X184697858Y-95908810D01*
X184507382Y-95908810D01*
X185078810Y-96051667D02*
X185555001Y-96051667D01*
X184983572Y-96337381D02*
X185316905Y-95337381D01*
X185650239Y-96337381D01*
X185888334Y-95337381D02*
X186507382Y-95337381D01*
X186174048Y-95718333D01*
X186316906Y-95718333D01*
X186412144Y-95765952D01*
X186459763Y-95813571D01*
X186507382Y-95908810D01*
X186507382Y-96146905D01*
X186459763Y-96242143D01*
X186412144Y-96289762D01*
X186316906Y-96337381D01*
X186031191Y-96337381D01*
X185935953Y-96289762D01*
X185888334Y-96242143D01*
X186888334Y-95432619D02*
X186935953Y-95385000D01*
X187031191Y-95337381D01*
X187269287Y-95337381D01*
X187364525Y-95385000D01*
X187412144Y-95432619D01*
X187459763Y-95527857D01*
X187459763Y-95623095D01*
X187412144Y-95765952D01*
X186840715Y-96337381D01*
X187459763Y-96337381D01*
X188031191Y-95765952D02*
X187935953Y-95718333D01*
X187888334Y-95670714D01*
X187840715Y-95575476D01*
X187840715Y-95527857D01*
X187888334Y-95432619D01*
X187935953Y-95385000D01*
X188031191Y-95337381D01*
X188221668Y-95337381D01*
X188316906Y-95385000D01*
X188364525Y-95432619D01*
X188412144Y-95527857D01*
X188412144Y-95575476D01*
X188364525Y-95670714D01*
X188316906Y-95718333D01*
X188221668Y-95765952D01*
X188031191Y-95765952D01*
X187935953Y-95813571D01*
X187888334Y-95861190D01*
X187840715Y-95956429D01*
X187840715Y-96146905D01*
X187888334Y-96242143D01*
X187935953Y-96289762D01*
X188031191Y-96337381D01*
X188221668Y-96337381D01*
X188316906Y-96289762D01*
X188364525Y-96242143D01*
X188412144Y-96146905D01*
X188412144Y-95956429D01*
X188364525Y-95861190D01*
X188316906Y-95813571D01*
X188221668Y-95765952D01*
X188840715Y-95956429D02*
X189602620Y-95956429D01*
X190078810Y-96337381D02*
X190078810Y-95337381D01*
X190459763Y-95337381D01*
X190555001Y-95385000D01*
X190602620Y-95432619D01*
X190650239Y-95527857D01*
X190650239Y-95670714D01*
X190602620Y-95765952D01*
X190555001Y-95813571D01*
X190459763Y-95861190D01*
X190078810Y-95861190D01*
X191078810Y-95337381D02*
X191078810Y-96146905D01*
X191126429Y-96242143D01*
X191174048Y-96289762D01*
X191269286Y-96337381D01*
X191459763Y-96337381D01*
X191555001Y-96289762D01*
X191602620Y-96242143D01*
X191650239Y-96146905D01*
X191650239Y-95337381D01*
X198969524Y-107767381D02*
X198398095Y-107767381D01*
X198683809Y-107767381D02*
X198683809Y-106767381D01*
X198588571Y-106910238D01*
X198493333Y-107005476D01*
X198398095Y-107053095D01*
X199826667Y-106767381D02*
X199636190Y-106767381D01*
X199540952Y-106815000D01*
X199493333Y-106862619D01*
X199398095Y-107005476D01*
X199350476Y-107195952D01*
X199350476Y-107576905D01*
X199398095Y-107672143D01*
X199445714Y-107719762D01*
X199540952Y-107767381D01*
X199731429Y-107767381D01*
X199826667Y-107719762D01*
X199874286Y-107672143D01*
X199921905Y-107576905D01*
X199921905Y-107338810D01*
X199874286Y-107243571D01*
X199826667Y-107195952D01*
X199731429Y-107148333D01*
X199540952Y-107148333D01*
X199445714Y-107195952D01*
X199398095Y-107243571D01*
X199350476Y-107338810D01*
X200350476Y-107767381D02*
X200350476Y-106767381D01*
X200683810Y-107481667D01*
X201017143Y-106767381D01*
X201017143Y-107767381D01*
X201493333Y-107767381D02*
X201493333Y-106767381D01*
X201493333Y-107243571D02*
X202064762Y-107243571D01*
X202064762Y-107767381D02*
X202064762Y-106767381D01*
X202445714Y-107100714D02*
X202969524Y-107100714D01*
X202445714Y-107767381D01*
X202969524Y-107767381D01*
X200287143Y-110037619D02*
X200334762Y-109990000D01*
X200430000Y-109942381D01*
X200668096Y-109942381D01*
X200763334Y-109990000D01*
X200810953Y-110037619D01*
X200858572Y-110132857D01*
X200858572Y-110228095D01*
X200810953Y-110370952D01*
X200239524Y-110942381D01*
X200858572Y-110942381D01*
X201239524Y-110037619D02*
X201287143Y-109990000D01*
X201382381Y-109942381D01*
X201620477Y-109942381D01*
X201715715Y-109990000D01*
X201763334Y-110037619D01*
X201810953Y-110132857D01*
X201810953Y-110228095D01*
X201763334Y-110370952D01*
X201191905Y-110942381D01*
X201810953Y-110942381D01*
X202239524Y-110275714D02*
X202239524Y-111275714D01*
X202239524Y-110323333D02*
X202334762Y-110275714D01*
X202525239Y-110275714D01*
X202620477Y-110323333D01*
X202668096Y-110370952D01*
X202715715Y-110466190D01*
X202715715Y-110751905D01*
X202668096Y-110847143D01*
X202620477Y-110894762D01*
X202525239Y-110942381D01*
X202334762Y-110942381D01*
X202239524Y-110894762D01*
X203477620Y-110418571D02*
X203144286Y-110418571D01*
X203144286Y-110942381D02*
X203144286Y-109942381D01*
X203620477Y-109942381D01*
X205287619Y-109592857D02*
X205240000Y-109545238D01*
X205192381Y-109450000D01*
X205192381Y-109211904D01*
X205240000Y-109116666D01*
X205287619Y-109069047D01*
X205382857Y-109021428D01*
X205478095Y-109021428D01*
X205620952Y-109069047D01*
X206192381Y-109640476D01*
X206192381Y-109021428D01*
X205287619Y-108640476D02*
X205240000Y-108592857D01*
X205192381Y-108497619D01*
X205192381Y-108259523D01*
X205240000Y-108164285D01*
X205287619Y-108116666D01*
X205382857Y-108069047D01*
X205478095Y-108069047D01*
X205620952Y-108116666D01*
X206192381Y-108688095D01*
X206192381Y-108069047D01*
X205525714Y-107640476D02*
X206525714Y-107640476D01*
X205573333Y-107640476D02*
X205525714Y-107545238D01*
X205525714Y-107354761D01*
X205573333Y-107259523D01*
X205620952Y-107211904D01*
X205716190Y-107164285D01*
X206001905Y-107164285D01*
X206097143Y-107211904D01*
X206144762Y-107259523D01*
X206192381Y-107354761D01*
X206192381Y-107545238D01*
X206144762Y-107640476D01*
X205668571Y-106402380D02*
X205668571Y-106735714D01*
X206192381Y-106735714D02*
X205192381Y-106735714D01*
X205192381Y-106259523D01*
X182173571Y-115014285D02*
X182173571Y-115347619D01*
X182697381Y-115347619D02*
X181697381Y-115347619D01*
X181697381Y-114871428D01*
X181697381Y-114633333D02*
X181697381Y-114061904D01*
X182697381Y-114347619D02*
X181697381Y-114347619D01*
X182697381Y-113204761D02*
X182697381Y-113776190D01*
X182697381Y-113490476D02*
X181697381Y-113490476D01*
X181840238Y-113585714D01*
X181935476Y-113680952D01*
X181983095Y-113776190D01*
X220408571Y-90467381D02*
X220599048Y-90467381D01*
X220694286Y-90515000D01*
X220789524Y-90610238D01*
X220837143Y-90800714D01*
X220837143Y-91134048D01*
X220789524Y-91324524D01*
X220694286Y-91419762D01*
X220599048Y-91467381D01*
X220408571Y-91467381D01*
X220313333Y-91419762D01*
X220218095Y-91324524D01*
X220170476Y-91134048D01*
X220170476Y-90800714D01*
X220218095Y-90610238D01*
X220313333Y-90515000D01*
X220408571Y-90467381D01*
X221218095Y-90562619D02*
X221265714Y-90515000D01*
X221360952Y-90467381D01*
X221599048Y-90467381D01*
X221694286Y-90515000D01*
X221741905Y-90562619D01*
X221789524Y-90657857D01*
X221789524Y-90753095D01*
X221741905Y-90895952D01*
X221170476Y-91467381D01*
X221789524Y-91467381D01*
X215142381Y-129476429D02*
X215142381Y-129285952D01*
X215190000Y-129190714D01*
X215285238Y-129095476D01*
X215475714Y-129047857D01*
X215809048Y-129047857D01*
X215999524Y-129095476D01*
X216094762Y-129190714D01*
X216142381Y-129285952D01*
X216142381Y-129476429D01*
X216094762Y-129571667D01*
X215999524Y-129666905D01*
X215809048Y-129714524D01*
X215475714Y-129714524D01*
X215285238Y-129666905D01*
X215190000Y-129571667D01*
X215142381Y-129476429D01*
X215142381Y-128714524D02*
X215142381Y-128095476D01*
X215523333Y-128428810D01*
X215523333Y-128285952D01*
X215570952Y-128190714D01*
X215618571Y-128143095D01*
X215713810Y-128095476D01*
X215951905Y-128095476D01*
X216047143Y-128143095D01*
X216094762Y-128190714D01*
X216142381Y-128285952D01*
X216142381Y-128571667D01*
X216094762Y-128666905D01*
X216047143Y-128714524D01*
X211923334Y-125452143D02*
X211875715Y-125499762D01*
X211732858Y-125547381D01*
X211637620Y-125547381D01*
X211494762Y-125499762D01*
X211399524Y-125404524D01*
X211351905Y-125309286D01*
X211304286Y-125118810D01*
X211304286Y-124975952D01*
X211351905Y-124785476D01*
X211399524Y-124690238D01*
X211494762Y-124595000D01*
X211637620Y-124547381D01*
X211732858Y-124547381D01*
X211875715Y-124595000D01*
X211923334Y-124642619D01*
X212780477Y-124880714D02*
X212780477Y-125547381D01*
X212542381Y-124499762D02*
X212304286Y-125214048D01*
X212923334Y-125214048D01*
X204938334Y-125452143D02*
X204890715Y-125499762D01*
X204747858Y-125547381D01*
X204652620Y-125547381D01*
X204509762Y-125499762D01*
X204414524Y-125404524D01*
X204366905Y-125309286D01*
X204319286Y-125118810D01*
X204319286Y-124975952D01*
X204366905Y-124785476D01*
X204414524Y-124690238D01*
X204509762Y-124595000D01*
X204652620Y-124547381D01*
X204747858Y-124547381D01*
X204890715Y-124595000D01*
X204938334Y-124642619D01*
X205843096Y-124547381D02*
X205366905Y-124547381D01*
X205319286Y-125023571D01*
X205366905Y-124975952D01*
X205462143Y-124928333D01*
X205700239Y-124928333D01*
X205795477Y-124975952D01*
X205843096Y-125023571D01*
X205890715Y-125118810D01*
X205890715Y-125356905D01*
X205843096Y-125452143D01*
X205795477Y-125499762D01*
X205700239Y-125547381D01*
X205462143Y-125547381D01*
X205366905Y-125499762D01*
X205319286Y-125452143D01*
X184181905Y-124277381D02*
X184181905Y-123277381D01*
X184562858Y-123277381D01*
X184658096Y-123325000D01*
X184705715Y-123372619D01*
X184753334Y-123467857D01*
X184753334Y-123610714D01*
X184705715Y-123705952D01*
X184658096Y-123753571D01*
X184562858Y-123801190D01*
X184181905Y-123801190D01*
X185753334Y-124277381D02*
X185420000Y-123801190D01*
X185181905Y-124277381D02*
X185181905Y-123277381D01*
X185562858Y-123277381D01*
X185658096Y-123325000D01*
X185705715Y-123372619D01*
X185753334Y-123467857D01*
X185753334Y-123610714D01*
X185705715Y-123705952D01*
X185658096Y-123753571D01*
X185562858Y-123801190D01*
X185181905Y-123801190D01*
X186134286Y-123372619D02*
X186181905Y-123325000D01*
X186277143Y-123277381D01*
X186515239Y-123277381D01*
X186610477Y-123325000D01*
X186658096Y-123372619D01*
X186705715Y-123467857D01*
X186705715Y-123563095D01*
X186658096Y-123705952D01*
X186086667Y-124277381D01*
X186705715Y-124277381D01*
X194778334Y-116022381D02*
X194445000Y-115546190D01*
X194206905Y-116022381D02*
X194206905Y-115022381D01*
X194587858Y-115022381D01*
X194683096Y-115070000D01*
X194730715Y-115117619D01*
X194778334Y-115212857D01*
X194778334Y-115355714D01*
X194730715Y-115450952D01*
X194683096Y-115498571D01*
X194587858Y-115546190D01*
X194206905Y-115546190D01*
X195730715Y-116022381D02*
X195159286Y-116022381D01*
X195445000Y-116022381D02*
X195445000Y-115022381D01*
X195349762Y-115165238D01*
X195254524Y-115260476D01*
X195159286Y-115308095D01*
X193016429Y-121102381D02*
X192683095Y-120626190D01*
X192445000Y-121102381D02*
X192445000Y-120102381D01*
X192825953Y-120102381D01*
X192921191Y-120150000D01*
X192968810Y-120197619D01*
X193016429Y-120292857D01*
X193016429Y-120435714D01*
X192968810Y-120530952D01*
X192921191Y-120578571D01*
X192825953Y-120626190D01*
X192445000Y-120626190D01*
X193445000Y-120578571D02*
X193778334Y-120578571D01*
X193921191Y-121102381D02*
X193445000Y-121102381D01*
X193445000Y-120102381D01*
X193921191Y-120102381D01*
X194302143Y-121054762D02*
X194445000Y-121102381D01*
X194683096Y-121102381D01*
X194778334Y-121054762D01*
X194825953Y-121007143D01*
X194873572Y-120911905D01*
X194873572Y-120816667D01*
X194825953Y-120721429D01*
X194778334Y-120673810D01*
X194683096Y-120626190D01*
X194492619Y-120578571D01*
X194397381Y-120530952D01*
X194349762Y-120483333D01*
X194302143Y-120388095D01*
X194302143Y-120292857D01*
X194349762Y-120197619D01*
X194397381Y-120150000D01*
X194492619Y-120102381D01*
X194730715Y-120102381D01*
X194873572Y-120150000D01*
X195302143Y-120578571D02*
X195635477Y-120578571D01*
X195778334Y-121102381D02*
X195302143Y-121102381D01*
X195302143Y-120102381D01*
X195778334Y-120102381D01*
X196064048Y-120102381D02*
X196635477Y-120102381D01*
X196349762Y-121102381D02*
X196349762Y-120102381D01*
X197492620Y-121102381D02*
X196921191Y-121102381D01*
X197206905Y-121102381D02*
X197206905Y-120102381D01*
X197111667Y-120245238D01*
X197016429Y-120340476D01*
X196921191Y-120388095D01*
X208153095Y-120610381D02*
X208153095Y-121419905D01*
X208200714Y-121515143D01*
X208248333Y-121562762D01*
X208343571Y-121610381D01*
X208534048Y-121610381D01*
X208629286Y-121562762D01*
X208676905Y-121515143D01*
X208724524Y-121419905D01*
X208724524Y-120610381D01*
X209153095Y-120705619D02*
X209200714Y-120658000D01*
X209295952Y-120610381D01*
X209534048Y-120610381D01*
X209629286Y-120658000D01*
X209676905Y-120705619D01*
X209724524Y-120800857D01*
X209724524Y-120896095D01*
X209676905Y-121038952D01*
X209105476Y-121610381D01*
X209724524Y-121610381D01*
X184935953Y-126817381D02*
X184459762Y-126817381D01*
X184459762Y-125817381D01*
X185269286Y-126293571D02*
X185602620Y-126293571D01*
X185745477Y-126817381D02*
X185269286Y-126817381D01*
X185269286Y-125817381D01*
X185745477Y-125817381D01*
X186174048Y-126817381D02*
X186174048Y-125817381D01*
X186412143Y-125817381D01*
X186555001Y-125865000D01*
X186650239Y-125960238D01*
X186697858Y-126055476D01*
X186745477Y-126245952D01*
X186745477Y-126388810D01*
X186697858Y-126579286D01*
X186650239Y-126674524D01*
X186555001Y-126769762D01*
X186412143Y-126817381D01*
X186174048Y-126817381D01*
X187078810Y-125817381D02*
X187697858Y-125817381D01*
X187364524Y-126198333D01*
X187507382Y-126198333D01*
X187602620Y-126245952D01*
X187650239Y-126293571D01*
X187697858Y-126388810D01*
X187697858Y-126626905D01*
X187650239Y-126722143D01*
X187602620Y-126769762D01*
X187507382Y-126817381D01*
X187221667Y-126817381D01*
X187126429Y-126769762D01*
X187078810Y-126722143D01*
X187142381Y-118848095D02*
X186142381Y-118848095D01*
X186142381Y-118610000D01*
X186190000Y-118467142D01*
X186285238Y-118371904D01*
X186380476Y-118324285D01*
X186570952Y-118276666D01*
X186713810Y-118276666D01*
X186904286Y-118324285D01*
X186999524Y-118371904D01*
X187094762Y-118467142D01*
X187142381Y-118610000D01*
X187142381Y-118848095D01*
X187142381Y-117324285D02*
X187142381Y-117895714D01*
X187142381Y-117610000D02*
X186142381Y-117610000D01*
X186285238Y-117705238D01*
X186380476Y-117800476D01*
X186428095Y-117895714D01*
X204366905Y-114117381D02*
X204366905Y-113117381D01*
X204605000Y-113117381D01*
X204747858Y-113165000D01*
X204843096Y-113260238D01*
X204890715Y-113355476D01*
X204938334Y-113545952D01*
X204938334Y-113688810D01*
X204890715Y-113879286D01*
X204843096Y-113974524D01*
X204747858Y-114069762D01*
X204605000Y-114117381D01*
X204366905Y-114117381D01*
X205319286Y-113212619D02*
X205366905Y-113165000D01*
X205462143Y-113117381D01*
X205700239Y-113117381D01*
X205795477Y-113165000D01*
X205843096Y-113212619D01*
X205890715Y-113307857D01*
X205890715Y-113403095D01*
X205843096Y-113545952D01*
X205271667Y-114117381D01*
X205890715Y-114117381D01*
X178990715Y-122908571D02*
X178657381Y-122908571D01*
X178657381Y-123432381D02*
X178657381Y-122432381D01*
X179133572Y-122432381D01*
X179371667Y-122432381D02*
X179943096Y-122432381D01*
X179657381Y-123432381D02*
X179657381Y-122432381D01*
X180228810Y-122527619D02*
X180276429Y-122480000D01*
X180371667Y-122432381D01*
X180609763Y-122432381D01*
X180705001Y-122480000D01*
X180752620Y-122527619D01*
X180800239Y-122622857D01*
X180800239Y-122718095D01*
X180752620Y-122860952D01*
X180181191Y-123432381D01*
X180800239Y-123432381D01*
X156781667Y-171219762D02*
X156924524Y-171267381D01*
X157162620Y-171267381D01*
X157257858Y-171219762D01*
X157305477Y-171172143D01*
X157353096Y-171076905D01*
X157353096Y-170981667D01*
X157305477Y-170886429D01*
X157257858Y-170838810D01*
X157162620Y-170791190D01*
X156972143Y-170743571D01*
X156876905Y-170695952D01*
X156829286Y-170648333D01*
X156781667Y-170553095D01*
X156781667Y-170457857D01*
X156829286Y-170362619D01*
X156876905Y-170315000D01*
X156972143Y-170267381D01*
X157210239Y-170267381D01*
X157353096Y-170315000D01*
X157686429Y-170267381D02*
X157924524Y-171267381D01*
X158115001Y-170553095D01*
X158305477Y-171267381D01*
X158543572Y-170267381D01*
X159353096Y-170600714D02*
X159353096Y-171267381D01*
X159115000Y-170219762D02*
X158876905Y-170934048D01*
X159495953Y-170934048D01*
X127793810Y-141632381D02*
X127793810Y-140632381D01*
X128793810Y-141632381D02*
X128222381Y-141632381D01*
X128508095Y-141632381D02*
X128508095Y-140632381D01*
X128412857Y-140775238D01*
X128317619Y-140870476D01*
X128222381Y-140918095D01*
X177958810Y-141632381D02*
X177958810Y-140632381D01*
X178387381Y-140727619D02*
X178435000Y-140680000D01*
X178530238Y-140632381D01*
X178768334Y-140632381D01*
X178863572Y-140680000D01*
X178911191Y-140727619D01*
X178958810Y-140822857D01*
X178958810Y-140918095D01*
X178911191Y-141060952D01*
X178339762Y-141632381D01*
X178958810Y-141632381D01*
X169608571Y-140632381D02*
X169799048Y-140632381D01*
X169894286Y-140680000D01*
X169989524Y-140775238D01*
X170037143Y-140965714D01*
X170037143Y-141299048D01*
X169989524Y-141489524D01*
X169894286Y-141584762D01*
X169799048Y-141632381D01*
X169608571Y-141632381D01*
X169513333Y-141584762D01*
X169418095Y-141489524D01*
X169370476Y-141299048D01*
X169370476Y-140965714D01*
X169418095Y-140775238D01*
X169513333Y-140680000D01*
X169608571Y-140632381D01*
X170989524Y-141632381D02*
X170418095Y-141632381D01*
X170703809Y-141632381D02*
X170703809Y-140632381D01*
X170608571Y-140775238D01*
X170513333Y-140870476D01*
X170418095Y-140918095D01*
X219773571Y-140632381D02*
X219964048Y-140632381D01*
X220059286Y-140680000D01*
X220154524Y-140775238D01*
X220202143Y-140965714D01*
X220202143Y-141299048D01*
X220154524Y-141489524D01*
X220059286Y-141584762D01*
X219964048Y-141632381D01*
X219773571Y-141632381D01*
X219678333Y-141584762D01*
X219583095Y-141489524D01*
X219535476Y-141299048D01*
X219535476Y-140965714D01*
X219583095Y-140775238D01*
X219678333Y-140680000D01*
X219773571Y-140632381D01*
X220583095Y-140727619D02*
X220630714Y-140680000D01*
X220725952Y-140632381D01*
X220964048Y-140632381D01*
X221059286Y-140680000D01*
X221106905Y-140727619D01*
X221154524Y-140822857D01*
X221154524Y-140918095D01*
X221106905Y-141060952D01*
X220535476Y-141632381D01*
X221154524Y-141632381D01*
X188634762Y-142692381D02*
X188301428Y-142216190D01*
X188063333Y-142692381D02*
X188063333Y-141692381D01*
X188444286Y-141692381D01*
X188539524Y-141740000D01*
X188587143Y-141787619D01*
X188634762Y-141882857D01*
X188634762Y-142025714D01*
X188587143Y-142120952D01*
X188539524Y-142168571D01*
X188444286Y-142216190D01*
X188063333Y-142216190D01*
X188920476Y-141692381D02*
X189253809Y-142692381D01*
X189587143Y-141692381D01*
X190444286Y-142692381D02*
X189872857Y-142692381D01*
X190158571Y-142692381D02*
X190158571Y-141692381D01*
X190063333Y-141835238D01*
X189968095Y-141930476D01*
X189872857Y-141978095D01*
X208954762Y-142692381D02*
X208621428Y-142216190D01*
X208383333Y-142692381D02*
X208383333Y-141692381D01*
X208764286Y-141692381D01*
X208859524Y-141740000D01*
X208907143Y-141787619D01*
X208954762Y-141882857D01*
X208954762Y-142025714D01*
X208907143Y-142120952D01*
X208859524Y-142168571D01*
X208764286Y-142216190D01*
X208383333Y-142216190D01*
X209240476Y-141692381D02*
X209573809Y-142692381D01*
X209907143Y-141692381D01*
X210192857Y-141787619D02*
X210240476Y-141740000D01*
X210335714Y-141692381D01*
X210573810Y-141692381D01*
X210669048Y-141740000D01*
X210716667Y-141787619D01*
X210764286Y-141882857D01*
X210764286Y-141978095D01*
X210716667Y-142120952D01*
X210145238Y-142692381D01*
X210764286Y-142692381D01*
X188634762Y-173807381D02*
X188301428Y-173331190D01*
X188063333Y-173807381D02*
X188063333Y-172807381D01*
X188444286Y-172807381D01*
X188539524Y-172855000D01*
X188587143Y-172902619D01*
X188634762Y-172997857D01*
X188634762Y-173140714D01*
X188587143Y-173235952D01*
X188539524Y-173283571D01*
X188444286Y-173331190D01*
X188063333Y-173331190D01*
X188920476Y-172807381D02*
X189253809Y-173807381D01*
X189587143Y-172807381D01*
X189825238Y-172807381D02*
X190444286Y-172807381D01*
X190110952Y-173188333D01*
X190253810Y-173188333D01*
X190349048Y-173235952D01*
X190396667Y-173283571D01*
X190444286Y-173378810D01*
X190444286Y-173616905D01*
X190396667Y-173712143D01*
X190349048Y-173759762D01*
X190253810Y-173807381D01*
X189968095Y-173807381D01*
X189872857Y-173759762D01*
X189825238Y-173712143D01*
X208954762Y-173807381D02*
X208621428Y-173331190D01*
X208383333Y-173807381D02*
X208383333Y-172807381D01*
X208764286Y-172807381D01*
X208859524Y-172855000D01*
X208907143Y-172902619D01*
X208954762Y-172997857D01*
X208954762Y-173140714D01*
X208907143Y-173235952D01*
X208859524Y-173283571D01*
X208764286Y-173331190D01*
X208383333Y-173331190D01*
X209240476Y-172807381D02*
X209573809Y-173807381D01*
X209907143Y-172807381D01*
X210669048Y-173140714D02*
X210669048Y-173807381D01*
X210430952Y-172759762D02*
X210192857Y-173474048D01*
X210811905Y-173474048D01*
X140803334Y-139517381D02*
X140470000Y-139041190D01*
X140231905Y-139517381D02*
X140231905Y-138517381D01*
X140612858Y-138517381D01*
X140708096Y-138565000D01*
X140755715Y-138612619D01*
X140803334Y-138707857D01*
X140803334Y-138850714D01*
X140755715Y-138945952D01*
X140708096Y-138993571D01*
X140612858Y-139041190D01*
X140231905Y-139041190D01*
X141755715Y-139517381D02*
X141184286Y-139517381D01*
X141470000Y-139517381D02*
X141470000Y-138517381D01*
X141374762Y-138660238D01*
X141279524Y-138755476D01*
X141184286Y-138803095D01*
X157948334Y-139517381D02*
X157615000Y-139041190D01*
X157376905Y-139517381D02*
X157376905Y-138517381D01*
X157757858Y-138517381D01*
X157853096Y-138565000D01*
X157900715Y-138612619D01*
X157948334Y-138707857D01*
X157948334Y-138850714D01*
X157900715Y-138945952D01*
X157853096Y-138993571D01*
X157757858Y-139041190D01*
X157376905Y-139041190D01*
X158329286Y-138612619D02*
X158376905Y-138565000D01*
X158472143Y-138517381D01*
X158710239Y-138517381D01*
X158805477Y-138565000D01*
X158853096Y-138612619D01*
X158900715Y-138707857D01*
X158900715Y-138803095D01*
X158853096Y-138945952D01*
X158281667Y-139517381D01*
X158900715Y-139517381D01*
X140803334Y-168092381D02*
X140470000Y-167616190D01*
X140231905Y-168092381D02*
X140231905Y-167092381D01*
X140612858Y-167092381D01*
X140708096Y-167140000D01*
X140755715Y-167187619D01*
X140803334Y-167282857D01*
X140803334Y-167425714D01*
X140755715Y-167520952D01*
X140708096Y-167568571D01*
X140612858Y-167616190D01*
X140231905Y-167616190D01*
X141136667Y-167092381D02*
X141755715Y-167092381D01*
X141422381Y-167473333D01*
X141565239Y-167473333D01*
X141660477Y-167520952D01*
X141708096Y-167568571D01*
X141755715Y-167663810D01*
X141755715Y-167901905D01*
X141708096Y-167997143D01*
X141660477Y-168044762D01*
X141565239Y-168092381D01*
X141279524Y-168092381D01*
X141184286Y-168044762D01*
X141136667Y-167997143D01*
X157948334Y-168092381D02*
X157615000Y-167616190D01*
X157376905Y-168092381D02*
X157376905Y-167092381D01*
X157757858Y-167092381D01*
X157853096Y-167140000D01*
X157900715Y-167187619D01*
X157948334Y-167282857D01*
X157948334Y-167425714D01*
X157900715Y-167520952D01*
X157853096Y-167568571D01*
X157757858Y-167616190D01*
X157376905Y-167616190D01*
X158805477Y-167425714D02*
X158805477Y-168092381D01*
X158567381Y-167044762D02*
X158329286Y-167759048D01*
X158948334Y-167759048D01*
X139636667Y-143279762D02*
X139779524Y-143327381D01*
X140017620Y-143327381D01*
X140112858Y-143279762D01*
X140160477Y-143232143D01*
X140208096Y-143136905D01*
X140208096Y-143041667D01*
X140160477Y-142946429D01*
X140112858Y-142898810D01*
X140017620Y-142851190D01*
X139827143Y-142803571D01*
X139731905Y-142755952D01*
X139684286Y-142708333D01*
X139636667Y-142613095D01*
X139636667Y-142517857D01*
X139684286Y-142422619D01*
X139731905Y-142375000D01*
X139827143Y-142327381D01*
X140065239Y-142327381D01*
X140208096Y-142375000D01*
X140541429Y-142327381D02*
X140779524Y-143327381D01*
X140970001Y-142613095D01*
X141160477Y-143327381D01*
X141398572Y-142327381D01*
X142303334Y-143327381D02*
X141731905Y-143327381D01*
X142017619Y-143327381D02*
X142017619Y-142327381D01*
X141922381Y-142470238D01*
X141827143Y-142565476D01*
X141731905Y-142613095D01*
X156781667Y-143279762D02*
X156924524Y-143327381D01*
X157162620Y-143327381D01*
X157257858Y-143279762D01*
X157305477Y-143232143D01*
X157353096Y-143136905D01*
X157353096Y-143041667D01*
X157305477Y-142946429D01*
X157257858Y-142898810D01*
X157162620Y-142851190D01*
X156972143Y-142803571D01*
X156876905Y-142755952D01*
X156829286Y-142708333D01*
X156781667Y-142613095D01*
X156781667Y-142517857D01*
X156829286Y-142422619D01*
X156876905Y-142375000D01*
X156972143Y-142327381D01*
X157210239Y-142327381D01*
X157353096Y-142375000D01*
X157686429Y-142327381D02*
X157924524Y-143327381D01*
X158115001Y-142613095D01*
X158305477Y-143327381D01*
X158543572Y-142327381D01*
X158876905Y-142422619D02*
X158924524Y-142375000D01*
X159019762Y-142327381D01*
X159257858Y-142327381D01*
X159353096Y-142375000D01*
X159400715Y-142422619D01*
X159448334Y-142517857D01*
X159448334Y-142613095D01*
X159400715Y-142755952D01*
X158829286Y-143327381D01*
X159448334Y-143327381D01*
X139636667Y-171219762D02*
X139779524Y-171267381D01*
X140017620Y-171267381D01*
X140112858Y-171219762D01*
X140160477Y-171172143D01*
X140208096Y-171076905D01*
X140208096Y-170981667D01*
X140160477Y-170886429D01*
X140112858Y-170838810D01*
X140017620Y-170791190D01*
X139827143Y-170743571D01*
X139731905Y-170695952D01*
X139684286Y-170648333D01*
X139636667Y-170553095D01*
X139636667Y-170457857D01*
X139684286Y-170362619D01*
X139731905Y-170315000D01*
X139827143Y-170267381D01*
X140065239Y-170267381D01*
X140208096Y-170315000D01*
X140541429Y-170267381D02*
X140779524Y-171267381D01*
X140970001Y-170553095D01*
X141160477Y-171267381D01*
X141398572Y-170267381D01*
X141684286Y-170267381D02*
X142303334Y-170267381D01*
X141970000Y-170648333D01*
X142112858Y-170648333D01*
X142208096Y-170695952D01*
X142255715Y-170743571D01*
X142303334Y-170838810D01*
X142303334Y-171076905D01*
X142255715Y-171172143D01*
X142208096Y-171219762D01*
X142112858Y-171267381D01*
X141827143Y-171267381D01*
X141731905Y-171219762D01*
X141684286Y-171172143D01*
M02*
