G04 #@! TF.FileFunction,Copper,L1,Top,Signal*
%FSLAX46Y46*%
G04 Gerber Fmt 4.6, Leading zero omitted, Abs format (unit mm)*
G04 Created by KiCad (PCBNEW 4.0.7+dfsg1-1~bpo9+1) date Thu Apr  5 11:27:44 2018*
%MOMM*%
%LPD*%
G01*
G04 APERTURE LIST*
%ADD10C,0.100000*%
%ADD11R,3.500000X3.500000*%
%ADD12R,1.700000X1.700000*%
%ADD13O,1.700000X1.700000*%
%ADD14R,1.800000X1.800000*%
%ADD15C,1.800000*%
%ADD16R,1.600000X1.600000*%
%ADD17O,1.600000X1.600000*%
%ADD18C,1.400000*%
%ADD19O,1.400000X1.400000*%
%ADD20R,1.400000X1.400000*%
%ADD21C,1.143000*%
%ADD22R,1.270000X0.970000*%
%ADD23R,2.400000X2.400000*%
%ADD24C,2.400000*%
%ADD25C,1.700000*%
%ADD26C,1.600000*%
%ADD27C,2.000000*%
%ADD28O,2.032000X2.540000*%
%ADD29R,2.000000X2.000000*%
%ADD30O,2.000000X2.000000*%
%ADD31C,2.340000*%
%ADD32C,0.600000*%
%ADD33C,0.250000*%
%ADD34C,0.500000*%
G04 APERTURE END LIST*
D10*
D11*
X137160000Y-92710000D03*
X137160000Y-86710000D03*
X132460000Y-89710000D03*
D12*
X128270000Y-93345000D03*
D13*
X128270000Y-95885000D03*
X128270000Y-98425000D03*
X128270000Y-100965000D03*
X128270000Y-103505000D03*
X128270000Y-106045000D03*
X128270000Y-108585000D03*
X128270000Y-111125000D03*
X128270000Y-113665000D03*
X128270000Y-116205000D03*
X128270000Y-118745000D03*
X128270000Y-121285000D03*
D12*
X145415000Y-93345000D03*
D13*
X145415000Y-95885000D03*
X145415000Y-98425000D03*
X145415000Y-100965000D03*
X145415000Y-103505000D03*
X145415000Y-106045000D03*
X145415000Y-108585000D03*
X145415000Y-111125000D03*
X145415000Y-113665000D03*
X145415000Y-116205000D03*
X145415000Y-118745000D03*
X145415000Y-121285000D03*
D14*
X164465000Y-103505000D03*
D15*
X161925000Y-103505000D03*
D14*
X164465000Y-106045000D03*
D15*
X161925000Y-106045000D03*
D14*
X164465000Y-108585000D03*
D15*
X161925000Y-108585000D03*
D14*
X164465000Y-111125000D03*
D15*
X161925000Y-111125000D03*
D14*
X164465000Y-113665000D03*
D15*
X161925000Y-113665000D03*
D14*
X164465000Y-116205000D03*
D15*
X161925000Y-116205000D03*
D14*
X164465000Y-118745000D03*
D15*
X161925000Y-118745000D03*
D14*
X164465000Y-121285000D03*
D15*
X161925000Y-121285000D03*
D12*
X158750000Y-103505000D03*
D13*
X158750000Y-106045000D03*
X158750000Y-108585000D03*
X158750000Y-111125000D03*
X158750000Y-113665000D03*
X158750000Y-116205000D03*
X158750000Y-118745000D03*
X158750000Y-121285000D03*
D12*
X156210000Y-103505000D03*
D13*
X156210000Y-106045000D03*
X156210000Y-108585000D03*
X156210000Y-111125000D03*
X156210000Y-113665000D03*
X156210000Y-116205000D03*
X156210000Y-118745000D03*
X156210000Y-121285000D03*
D12*
X152908000Y-93345000D03*
D13*
X152908000Y-95885000D03*
X152908000Y-98425000D03*
X152908000Y-100965000D03*
X152908000Y-103505000D03*
X152908000Y-106045000D03*
X152908000Y-108585000D03*
X152908000Y-111125000D03*
X152908000Y-113665000D03*
X152908000Y-116205000D03*
X152908000Y-118745000D03*
X152908000Y-121285000D03*
D12*
X170180000Y-93345000D03*
D13*
X170180000Y-95885000D03*
X170180000Y-98425000D03*
X170180000Y-100965000D03*
X170180000Y-103505000D03*
X170180000Y-106045000D03*
X170180000Y-108585000D03*
X170180000Y-111125000D03*
X170180000Y-113665000D03*
X170180000Y-116205000D03*
X170180000Y-118745000D03*
X170180000Y-121285000D03*
D16*
X167640000Y-100965000D03*
D17*
X167640000Y-103505000D03*
X167640000Y-106045000D03*
X167640000Y-108585000D03*
X167640000Y-111125000D03*
X167640000Y-113665000D03*
X167640000Y-116205000D03*
X167640000Y-118745000D03*
X167640000Y-121285000D03*
D14*
X135636000Y-127635000D03*
D15*
X138176000Y-127635000D03*
D18*
X133096000Y-120015000D03*
D19*
X140716000Y-120015000D03*
D20*
X134366000Y-111125000D03*
D18*
X136906000Y-111125000D03*
X139446000Y-111125000D03*
X134366000Y-116205000D03*
X136906000Y-116205000D03*
X139446000Y-116205000D03*
D21*
X140716000Y-123825000D03*
X133096000Y-123825000D03*
D22*
X163195000Y-95885000D03*
X163195000Y-97155000D03*
X163195000Y-98425000D03*
D23*
X136525000Y-104140000D03*
D24*
X136525000Y-99140000D03*
D12*
X185420000Y-85725000D03*
D13*
X187960000Y-85725000D03*
X190500000Y-85725000D03*
X193040000Y-85725000D03*
X195580000Y-85725000D03*
X198120000Y-85725000D03*
X200660000Y-85725000D03*
X203200000Y-85725000D03*
X205740000Y-85725000D03*
X208280000Y-85725000D03*
X210820000Y-85725000D03*
X213360000Y-85725000D03*
D16*
X177800000Y-100965000D03*
D17*
X210820000Y-93345000D03*
X180340000Y-100965000D03*
X208280000Y-93345000D03*
X182880000Y-100965000D03*
X205740000Y-93345000D03*
X185420000Y-100965000D03*
X203200000Y-93345000D03*
X187960000Y-100965000D03*
X200660000Y-93345000D03*
X190500000Y-100965000D03*
X198120000Y-93345000D03*
X193040000Y-100965000D03*
X195580000Y-93345000D03*
X195580000Y-100965000D03*
X193040000Y-93345000D03*
X198120000Y-100965000D03*
X190500000Y-93345000D03*
X200660000Y-100965000D03*
X187960000Y-93345000D03*
X203200000Y-100965000D03*
X185420000Y-93345000D03*
X205740000Y-100965000D03*
X182880000Y-93345000D03*
X208280000Y-100965000D03*
X180340000Y-93345000D03*
X210820000Y-100965000D03*
X177800000Y-93345000D03*
D25*
X203200000Y-107315000D03*
X198200000Y-107315000D03*
D26*
X200660000Y-110490000D03*
X203160000Y-110490000D03*
X205740000Y-109220000D03*
X205740000Y-106720000D03*
D12*
X182245000Y-120650000D03*
D13*
X182245000Y-118110000D03*
X182245000Y-115570000D03*
X182245000Y-113030000D03*
X182245000Y-110490000D03*
X182245000Y-107950000D03*
D12*
X220980000Y-93345000D03*
D13*
X220980000Y-95885000D03*
X220980000Y-98425000D03*
X220980000Y-100965000D03*
X220980000Y-103505000D03*
X220980000Y-106045000D03*
X220980000Y-108585000D03*
X220980000Y-111125000D03*
X220980000Y-113665000D03*
X220980000Y-116205000D03*
X220980000Y-118745000D03*
X220980000Y-121285000D03*
D12*
X213360000Y-128905000D03*
D13*
X210820000Y-128905000D03*
X208280000Y-128905000D03*
X205740000Y-128905000D03*
X203200000Y-128905000D03*
X200660000Y-128905000D03*
X198120000Y-128905000D03*
X195580000Y-128905000D03*
X193040000Y-128905000D03*
X190500000Y-128905000D03*
X187960000Y-128905000D03*
X185420000Y-128905000D03*
D16*
X213995000Y-125095000D03*
D26*
X213995000Y-122595000D03*
D16*
X207010000Y-125095000D03*
D26*
X207010000Y-122595000D03*
D18*
X181610000Y-123825000D03*
D19*
X189230000Y-123825000D03*
D18*
X191135000Y-115570000D03*
D19*
X198755000Y-115570000D03*
D27*
X191770000Y-122610000D03*
X191770000Y-118110000D03*
X198270000Y-122610000D03*
X198270000Y-118110000D03*
D28*
X208915000Y-116840000D03*
X206375000Y-116840000D03*
X211455000Y-116840000D03*
D14*
X187325000Y-126365000D03*
D15*
X184785000Y-126365000D03*
D29*
X186690000Y-120650000D03*
D30*
X186690000Y-115570000D03*
D29*
X202565000Y-113665000D03*
D30*
X207645000Y-113665000D03*
D12*
X179705000Y-120650000D03*
D13*
X179705000Y-118110000D03*
X179705000Y-115570000D03*
X179705000Y-113030000D03*
X179705000Y-110490000D03*
X179705000Y-107950000D03*
D12*
X203200000Y-154940000D03*
D13*
X203200000Y-157480000D03*
X203200000Y-160020000D03*
X203200000Y-162560000D03*
D27*
X154940000Y-175315000D03*
X154940000Y-170815000D03*
X161440000Y-175315000D03*
X161440000Y-170815000D03*
D12*
X128270000Y-143510000D03*
D13*
X128270000Y-146050000D03*
X128270000Y-148590000D03*
X128270000Y-151130000D03*
X128270000Y-153670000D03*
X128270000Y-156210000D03*
X128270000Y-158750000D03*
X128270000Y-161290000D03*
X128270000Y-163830000D03*
X128270000Y-166370000D03*
X128270000Y-168910000D03*
X128270000Y-171450000D03*
D12*
X178435000Y-143510000D03*
D13*
X178435000Y-146050000D03*
X178435000Y-148590000D03*
X178435000Y-151130000D03*
X178435000Y-153670000D03*
X178435000Y-156210000D03*
X178435000Y-158750000D03*
X178435000Y-161290000D03*
X178435000Y-163830000D03*
X178435000Y-166370000D03*
X178435000Y-168910000D03*
X178435000Y-171450000D03*
D12*
X170180000Y-143510000D03*
D13*
X170180000Y-146050000D03*
X170180000Y-148590000D03*
X170180000Y-151130000D03*
X170180000Y-153670000D03*
X170180000Y-156210000D03*
X170180000Y-158750000D03*
X170180000Y-161290000D03*
X170180000Y-163830000D03*
X170180000Y-166370000D03*
X170180000Y-168910000D03*
X170180000Y-171450000D03*
D12*
X220345000Y-143510000D03*
D13*
X220345000Y-146050000D03*
X220345000Y-148590000D03*
X220345000Y-151130000D03*
X220345000Y-153670000D03*
X220345000Y-156210000D03*
X220345000Y-158750000D03*
X220345000Y-161290000D03*
X220345000Y-163830000D03*
X220345000Y-166370000D03*
X220345000Y-168910000D03*
X220345000Y-171450000D03*
D31*
X194310000Y-144700000D03*
X184310000Y-142200000D03*
X194310000Y-139700000D03*
X214630000Y-144700000D03*
X204630000Y-142200000D03*
X214630000Y-139700000D03*
X194310000Y-175815000D03*
X184310000Y-173315000D03*
X194310000Y-170815000D03*
X214630000Y-175815000D03*
X204630000Y-173315000D03*
X214630000Y-170815000D03*
D12*
X198120000Y-154940000D03*
D13*
X198120000Y-157480000D03*
X198120000Y-160020000D03*
X198120000Y-162560000D03*
D12*
X152400000Y-154940000D03*
D13*
X152400000Y-157480000D03*
X152400000Y-160020000D03*
X152400000Y-162560000D03*
D12*
X147320000Y-154940000D03*
D13*
X147320000Y-157480000D03*
X147320000Y-160020000D03*
X147320000Y-162560000D03*
D12*
X200660000Y-162560000D03*
D13*
X200660000Y-160020000D03*
X200660000Y-157480000D03*
X200660000Y-154940000D03*
D12*
X149860000Y-162560000D03*
D13*
X149860000Y-160020000D03*
X149860000Y-157480000D03*
X149860000Y-154940000D03*
D18*
X137160000Y-139065000D03*
D19*
X144780000Y-139065000D03*
D18*
X154305000Y-139065000D03*
D19*
X161925000Y-139065000D03*
D18*
X137160000Y-167640000D03*
D19*
X144780000Y-167640000D03*
D18*
X154305000Y-167640000D03*
D19*
X161925000Y-167640000D03*
D27*
X137795000Y-147375000D03*
X137795000Y-142875000D03*
X144295000Y-147375000D03*
X144295000Y-142875000D03*
X154940000Y-147375000D03*
X154940000Y-142875000D03*
X161440000Y-147375000D03*
X161440000Y-142875000D03*
X137795000Y-175315000D03*
X137795000Y-170815000D03*
X144295000Y-175315000D03*
X144295000Y-170815000D03*
D32*
X196215000Y-97155000D03*
X137795000Y-154940000D03*
X137795000Y-157480000D03*
X137795000Y-160020000D03*
X137795000Y-162560000D03*
X196215000Y-90170000D03*
X186055000Y-90170000D03*
X194310000Y-88900000D03*
X189230000Y-154940000D03*
X189230000Y-157480000D03*
X189230000Y-160020000D03*
X212090000Y-104775000D03*
X189230000Y-162560000D03*
X163195000Y-99695000D03*
X213995000Y-113030000D03*
X193040000Y-88265000D03*
X185420000Y-88265000D03*
X177800000Y-106680000D03*
X191770000Y-87630000D03*
X186690000Y-102870000D03*
X189230000Y-102870000D03*
X191770000Y-102870000D03*
D33*
X133096000Y-120015000D02*
X133096000Y-120396000D01*
X133096000Y-120396000D02*
X136525000Y-123825000D01*
X136525000Y-123825000D02*
X140716000Y-123825000D01*
D34*
X128270000Y-93345000D02*
X130175000Y-95250000D01*
X143510000Y-95250000D02*
X145415000Y-93345000D01*
X142875000Y-95250000D02*
X143510000Y-95250000D01*
X140970000Y-95250000D02*
X142875000Y-95250000D01*
X130175000Y-95250000D02*
X140970000Y-95250000D01*
X220980000Y-93345000D02*
X216535000Y-88900000D01*
X216535000Y-88900000D02*
X216535000Y-86995000D01*
X213360000Y-128905000D02*
X218440000Y-123825000D01*
X218440000Y-123825000D02*
X219710000Y-123825000D01*
X219710000Y-123825000D02*
X221615000Y-123825000D01*
X213360000Y-128905000D02*
X213360000Y-125730000D01*
X213360000Y-125730000D02*
X213995000Y-125095000D01*
X211455000Y-116840000D02*
X211455000Y-122555000D01*
X211455000Y-122555000D02*
X213995000Y-125095000D01*
X216535000Y-86995000D02*
X216535000Y-85090000D01*
X216535000Y-85090000D02*
X215265000Y-83820000D01*
X187325000Y-83820000D02*
X215265000Y-83820000D01*
X215265000Y-83820000D02*
X216535000Y-85090000D01*
X222885000Y-95250000D02*
X220980000Y-93345000D01*
X222885000Y-122555000D02*
X222885000Y-95250000D01*
X221615000Y-123825000D02*
X222885000Y-122555000D01*
X185420000Y-85725000D02*
X187325000Y-83820000D01*
X184785000Y-86360000D02*
X185420000Y-85725000D01*
D33*
X221615000Y-93345000D02*
X221615000Y-92710000D01*
X213360000Y-128905000D02*
X213995000Y-128905000D01*
D34*
X170180000Y-143510000D02*
X167640000Y-140970000D01*
X167640000Y-140970000D02*
X130810000Y-140970000D01*
X130810000Y-140970000D02*
X128270000Y-143510000D01*
X128270000Y-95885000D02*
X128905000Y-96520000D01*
X144780000Y-96520000D02*
X145415000Y-95885000D01*
X128905000Y-96520000D02*
X144780000Y-96520000D01*
D33*
X189230000Y-123825000D02*
X189230000Y-123190000D01*
X189230000Y-123190000D02*
X186690000Y-120650000D01*
X198755000Y-115570000D02*
X200660000Y-115570000D01*
X200660000Y-115570000D02*
X202565000Y-113665000D01*
D34*
X202565000Y-113665000D02*
X199390000Y-113665000D01*
X196215000Y-104140000D02*
X193040000Y-100965000D01*
X196215000Y-110490000D02*
X196215000Y-104140000D01*
X199390000Y-113665000D02*
X196215000Y-110490000D01*
X207010000Y-125095000D02*
X202565000Y-120650000D01*
X202565000Y-120650000D02*
X202565000Y-113665000D01*
X210820000Y-128905000D02*
X207010000Y-125095000D01*
D33*
X193040000Y-100330000D02*
X196215000Y-97155000D01*
X193040000Y-100965000D02*
X193040000Y-100330000D01*
X137160000Y-167640000D02*
X138430000Y-168910000D01*
X153035000Y-168910000D02*
X154305000Y-167640000D01*
X138430000Y-168910000D02*
X153035000Y-168910000D01*
X137160000Y-139065000D02*
X139065000Y-137160000D01*
X152400000Y-137160000D02*
X154305000Y-139065000D01*
X139065000Y-137160000D02*
X152400000Y-137160000D01*
D34*
X169545000Y-145415000D02*
X128905000Y-145415000D01*
X128905000Y-145415000D02*
X128270000Y-146050000D01*
X169545000Y-145415000D02*
X170180000Y-146050000D01*
D33*
X128270000Y-103505000D02*
X129540000Y-102235000D01*
X144145000Y-102235000D02*
X145415000Y-103505000D01*
X129540000Y-102235000D02*
X144145000Y-102235000D01*
X152400000Y-154940000D02*
X151130000Y-153670000D01*
X151130000Y-153670000D02*
X151765000Y-153670000D01*
X128270000Y-153670000D02*
X150495000Y-153670000D01*
X150495000Y-153670000D02*
X151765000Y-153670000D01*
X151765000Y-153670000D02*
X170180000Y-153670000D01*
X128270000Y-106045000D02*
X145415000Y-106045000D01*
X152400000Y-157480000D02*
X151130000Y-156210000D01*
X170180000Y-156210000D02*
X151130000Y-156210000D01*
X151130000Y-156210000D02*
X128270000Y-156210000D01*
X128270000Y-108585000D02*
X128905000Y-107950000D01*
X144780000Y-107950000D02*
X145415000Y-108585000D01*
X128905000Y-107950000D02*
X144780000Y-107950000D01*
X152400000Y-160020000D02*
X151130000Y-158750000D01*
X151130000Y-158750000D02*
X151765000Y-158750000D01*
X128270000Y-158750000D02*
X150495000Y-158750000D01*
X150495000Y-158750000D02*
X151765000Y-158750000D01*
X151765000Y-158750000D02*
X170180000Y-158750000D01*
X128270000Y-111125000D02*
X130175000Y-109220000D01*
X143510000Y-109220000D02*
X145415000Y-111125000D01*
X130175000Y-109220000D02*
X143510000Y-109220000D01*
X152400000Y-162560000D02*
X151130000Y-161290000D01*
X128270000Y-161290000D02*
X151130000Y-161290000D01*
X151130000Y-161290000D02*
X170180000Y-161290000D01*
X128270000Y-113665000D02*
X129540000Y-112395000D01*
X144145000Y-112395000D02*
X145415000Y-113665000D01*
X129540000Y-112395000D02*
X144145000Y-112395000D01*
X137795000Y-154940000D02*
X147320000Y-154940000D01*
X128270000Y-163830000D02*
X170180000Y-163830000D01*
X130175000Y-114300000D02*
X130810000Y-113665000D01*
X142875000Y-113665000D02*
X143510000Y-114300000D01*
X130810000Y-113665000D02*
X142875000Y-113665000D01*
X128270000Y-116205000D02*
X130175000Y-114300000D01*
X143510000Y-114300000D02*
X145415000Y-116205000D01*
X147320000Y-157480000D02*
X137795000Y-157480000D01*
X170180000Y-166370000D02*
X128270000Y-166370000D01*
X128270000Y-118745000D02*
X132080000Y-114935000D01*
X141605000Y-114935000D02*
X145415000Y-118745000D01*
X132080000Y-114935000D02*
X141605000Y-114935000D01*
X170180000Y-168910000D02*
X165735000Y-173355000D01*
X132715000Y-173355000D02*
X128270000Y-168910000D01*
X165735000Y-173355000D02*
X132715000Y-173355000D01*
X137795000Y-160020000D02*
X147320000Y-160020000D01*
X128270000Y-121285000D02*
X130810000Y-118745000D01*
X142875000Y-118745000D02*
X145415000Y-121285000D01*
X130810000Y-118745000D02*
X142875000Y-118745000D01*
X147320000Y-162560000D02*
X137795000Y-162560000D01*
X170180000Y-171450000D02*
X164465000Y-177165000D01*
X133985000Y-177165000D02*
X128270000Y-171450000D01*
X164465000Y-177165000D02*
X133985000Y-177165000D01*
X164465000Y-103505000D02*
X167640000Y-103505000D01*
X159385000Y-103505000D02*
X161925000Y-103505000D01*
D34*
X206375000Y-116840000D02*
X206375000Y-114935000D01*
X206375000Y-114935000D02*
X207645000Y-113665000D01*
D33*
X167640000Y-106045000D02*
X164465000Y-106045000D01*
X159385000Y-106045000D02*
X161925000Y-106045000D01*
X164465000Y-108585000D02*
X167640000Y-108585000D01*
X159385000Y-108585000D02*
X161925000Y-108585000D01*
X167640000Y-111125000D02*
X164465000Y-111125000D01*
X159385000Y-111125000D02*
X161925000Y-111125000D01*
X164465000Y-113665000D02*
X167640000Y-113665000D01*
X159385000Y-113665000D02*
X161925000Y-113665000D01*
X164465000Y-116205000D02*
X167640000Y-116205000D01*
X159385000Y-116205000D02*
X161925000Y-116205000D01*
X164465000Y-118745000D02*
X167640000Y-118745000D01*
X159385000Y-118745000D02*
X161925000Y-118745000D01*
X164465000Y-121285000D02*
X167640000Y-121285000D01*
X159385000Y-121285000D02*
X161925000Y-121285000D01*
X156210000Y-103505000D02*
X157480000Y-104775000D01*
X157480000Y-104775000D02*
X168910000Y-104775000D01*
X153035000Y-103505000D02*
X156210000Y-103505000D01*
X168910000Y-104775000D02*
X170180000Y-103505000D01*
X194945000Y-90170000D02*
X196215000Y-90170000D01*
X194945000Y-90170000D02*
X186055000Y-90170000D01*
X179705000Y-113030000D02*
X182245000Y-110490000D01*
X203200000Y-154940000D02*
X201930000Y-153670000D01*
X201930000Y-153670000D02*
X202565000Y-153670000D01*
X178435000Y-153670000D02*
X195580000Y-153670000D01*
X195580000Y-153670000D02*
X201930000Y-153670000D01*
X201930000Y-153670000D02*
X202565000Y-153670000D01*
X202565000Y-153670000D02*
X220345000Y-153670000D01*
X156210000Y-106045000D02*
X157480000Y-107315000D01*
X157480000Y-107315000D02*
X168910000Y-107315000D01*
X153035000Y-106045000D02*
X156210000Y-106045000D01*
X168910000Y-107315000D02*
X170180000Y-106045000D01*
X194310000Y-88900000D02*
X185420000Y-88900000D01*
X181610000Y-92710000D02*
X185420000Y-88900000D01*
X182880000Y-97790000D02*
X182880000Y-100965000D01*
X181610000Y-96520000D02*
X182880000Y-97790000D01*
X181610000Y-92710000D02*
X181610000Y-96520000D01*
X182245000Y-113030000D02*
X182880000Y-113030000D01*
X182880000Y-113030000D02*
X184150000Y-111760000D01*
X184150000Y-111760000D02*
X184150000Y-106045000D01*
X184150000Y-106045000D02*
X182880000Y-104775000D01*
X182880000Y-104775000D02*
X182880000Y-100965000D01*
X203200000Y-157480000D02*
X201930000Y-156210000D01*
X201930000Y-156210000D02*
X202565000Y-156210000D01*
X220345000Y-156210000D02*
X202565000Y-156210000D01*
X202565000Y-156210000D02*
X196215000Y-156210000D01*
X196215000Y-156210000D02*
X178435000Y-156210000D01*
X156210000Y-108585000D02*
X157480000Y-109855000D01*
X157480000Y-109855000D02*
X168910000Y-109855000D01*
X153035000Y-108585000D02*
X156210000Y-108585000D01*
X168910000Y-109855000D02*
X170180000Y-108585000D01*
X185420000Y-100965000D02*
X185420000Y-100330000D01*
X185420000Y-100330000D02*
X190500000Y-95250000D01*
X220980000Y-103505000D02*
X212725000Y-95250000D01*
X212725000Y-95250000D02*
X190500000Y-95250000D01*
X203200000Y-160020000D02*
X201930000Y-158750000D01*
X178435000Y-158750000D02*
X196215000Y-158750000D01*
X196215000Y-158750000D02*
X201930000Y-158750000D01*
X201930000Y-158750000D02*
X220345000Y-158750000D01*
X156210000Y-111125000D02*
X157480000Y-112395000D01*
X157480000Y-112395000D02*
X168910000Y-112395000D01*
X153035000Y-111125000D02*
X156210000Y-111125000D01*
X168910000Y-112395000D02*
X170180000Y-111125000D01*
X187960000Y-100965000D02*
X187960000Y-100330000D01*
X187960000Y-100330000D02*
X192405000Y-95885000D01*
X220980000Y-106045000D02*
X220980000Y-105410000D01*
X220980000Y-105410000D02*
X211455000Y-95885000D01*
X211455000Y-95885000D02*
X192405000Y-95885000D01*
X203200000Y-162560000D02*
X201930000Y-161290000D01*
X201930000Y-161290000D02*
X202565000Y-161290000D01*
X220345000Y-161290000D02*
X202565000Y-161290000D01*
X202565000Y-161290000D02*
X196215000Y-161290000D01*
X196215000Y-161290000D02*
X178435000Y-161290000D01*
X156210000Y-113665000D02*
X157480000Y-114935000D01*
X157480000Y-114935000D02*
X168910000Y-114935000D01*
X153035000Y-113665000D02*
X156210000Y-113665000D01*
X168910000Y-114935000D02*
X170180000Y-113665000D01*
X190500000Y-100965000D02*
X190500000Y-100330000D01*
X190500000Y-100330000D02*
X194310000Y-96520000D01*
X220980000Y-108585000D02*
X219075000Y-106680000D01*
X210820000Y-96520000D02*
X194310000Y-96520000D01*
X219075000Y-104775000D02*
X210820000Y-96520000D01*
X219075000Y-106680000D02*
X219075000Y-104775000D01*
X189230000Y-154940000D02*
X198120000Y-154940000D01*
X178435000Y-163830000D02*
X217170000Y-163830000D01*
X217170000Y-163830000D02*
X220345000Y-163830000D01*
X156210000Y-116205000D02*
X157480000Y-117475000D01*
X157480000Y-117475000D02*
X168910000Y-117475000D01*
X153035000Y-116205000D02*
X156210000Y-116205000D01*
X168910000Y-117475000D02*
X170180000Y-116205000D01*
X206375000Y-97790000D02*
X210820000Y-97790000D01*
X220980000Y-111125000D02*
X217805000Y-107950000D01*
X217805000Y-104775000D02*
X210820000Y-97790000D01*
X217805000Y-107950000D02*
X217805000Y-104775000D01*
X206375000Y-97790000D02*
X203200000Y-100965000D01*
X189230000Y-157480000D02*
X198120000Y-157480000D01*
X220345000Y-166370000D02*
X215265000Y-166370000D01*
X215265000Y-166370000D02*
X178435000Y-166370000D01*
X156210000Y-118745000D02*
X156845000Y-118745000D01*
X156845000Y-118745000D02*
X158115000Y-120015000D01*
X168910000Y-120015000D02*
X170180000Y-118745000D01*
X158115000Y-120015000D02*
X168910000Y-120015000D01*
X153035000Y-118745000D02*
X156210000Y-118745000D01*
X207010000Y-99060000D02*
X210820000Y-99060000D01*
X205740000Y-100965000D02*
X205740000Y-100330000D01*
X205740000Y-100330000D02*
X207010000Y-99060000D01*
X216535000Y-109220000D02*
X220980000Y-113665000D01*
X216535000Y-104775000D02*
X216535000Y-109220000D01*
X210820000Y-99060000D02*
X216535000Y-104775000D01*
X189230000Y-160020000D02*
X198120000Y-160020000D01*
X213360000Y-168910000D02*
X178435000Y-168910000D01*
X213360000Y-168910000D02*
X220345000Y-168910000D01*
X220345000Y-168910000D02*
X220345000Y-169545000D01*
X156210000Y-121285000D02*
X157480000Y-122555000D01*
X168910000Y-122555000D02*
X170180000Y-121285000D01*
X157480000Y-122555000D02*
X168910000Y-122555000D01*
X153035000Y-121285000D02*
X156210000Y-121285000D01*
X212090000Y-107315000D02*
X220980000Y-116205000D01*
X220980000Y-116205000D02*
X220345000Y-116205000D01*
X212090000Y-107315000D02*
X212090000Y-104775000D01*
X189230000Y-162560000D02*
X198120000Y-162560000D01*
X188595000Y-171450000D02*
X191770000Y-171450000D01*
X210185000Y-175260000D02*
X211455000Y-173990000D01*
X209550000Y-175260000D02*
X210185000Y-175260000D01*
X203200000Y-175260000D02*
X209550000Y-175260000D01*
X201295000Y-173355000D02*
X203200000Y-175260000D01*
X193675000Y-173355000D02*
X201295000Y-173355000D01*
X191770000Y-171450000D02*
X193675000Y-173355000D01*
X188595000Y-171450000D02*
X178435000Y-171450000D01*
X211455000Y-173990000D02*
X214630000Y-173990000D01*
X217805000Y-173990000D02*
X220345000Y-171450000D01*
X214630000Y-173990000D02*
X217805000Y-173990000D01*
D34*
X153035000Y-93345000D02*
X170180000Y-93345000D01*
X178435000Y-143510000D02*
X179070000Y-143510000D01*
X179070000Y-143510000D02*
X185420000Y-137160000D01*
X214630000Y-137160000D02*
X220345000Y-142875000D01*
X185420000Y-137160000D02*
X214630000Y-137160000D01*
X220345000Y-142875000D02*
X220345000Y-143510000D01*
X153035000Y-95885000D02*
X163195000Y-95885000D01*
X163195000Y-95885000D02*
X170180000Y-95885000D01*
X187960000Y-146050000D02*
X189230000Y-147320000D01*
X179705000Y-146050000D02*
X187960000Y-146050000D01*
X187960000Y-146050000D02*
X194310000Y-139700000D01*
X178435000Y-146050000D02*
X179705000Y-146050000D01*
X219075000Y-147320000D02*
X220345000Y-146050000D01*
X189230000Y-147320000D02*
X219075000Y-147320000D01*
D33*
X194310000Y-170815000D02*
X214630000Y-170815000D01*
D34*
X194310000Y-139700000D02*
X214630000Y-139700000D01*
D33*
X163195000Y-98425000D02*
X163195000Y-99695000D01*
X138176000Y-127635000D02*
X139700000Y-127635000D01*
X142240000Y-121539000D02*
X140716000Y-120015000D01*
X142240000Y-125095000D02*
X142240000Y-121539000D01*
X139700000Y-127635000D02*
X142240000Y-125095000D01*
X163195000Y-97155000D02*
X163830000Y-97155000D01*
X163830000Y-97155000D02*
X167640000Y-100965000D01*
X203200000Y-85725000D02*
X203200000Y-88265000D01*
X203200000Y-88265000D02*
X208280000Y-93345000D01*
X220980000Y-121285000D02*
X213995000Y-114300000D01*
X213995000Y-114300000D02*
X213995000Y-113030000D01*
X220980000Y-118745000D02*
X210820000Y-108585000D01*
X210820000Y-108585000D02*
X210820000Y-100965000D01*
X189230000Y-127635000D02*
X189230000Y-125730000D01*
X186055000Y-122555000D02*
X178435000Y-122555000D01*
X189230000Y-125730000D02*
X186055000Y-122555000D01*
X193040000Y-88265000D02*
X185420000Y-88265000D01*
X178435000Y-122555000D02*
X177800000Y-121920000D01*
X190500000Y-128905000D02*
X189230000Y-127635000D01*
X177800000Y-121920000D02*
X177800000Y-106680000D01*
X182880000Y-128905000D02*
X182880000Y-127000000D01*
X179705000Y-123825000D02*
X177800000Y-123825000D01*
X182880000Y-127000000D02*
X179705000Y-123825000D01*
X184785000Y-87630000D02*
X186055000Y-87630000D01*
X191770000Y-87630000D02*
X186055000Y-87630000D01*
X180340000Y-93345000D02*
X180340000Y-92075000D01*
X180340000Y-92075000D02*
X184785000Y-87630000D01*
X180340000Y-92710000D02*
X180340000Y-93345000D01*
X180340000Y-93980000D02*
X176530000Y-97790000D01*
X191135000Y-130810000D02*
X193040000Y-128905000D01*
X180340000Y-93345000D02*
X180340000Y-93980000D01*
X193040000Y-128905000D02*
X193040000Y-128270000D01*
X184785000Y-130810000D02*
X182880000Y-128905000D01*
X177800000Y-123825000D02*
X176530000Y-122555000D01*
X176530000Y-97790000D02*
X176530000Y-122555000D01*
X184785000Y-130810000D02*
X191135000Y-130810000D01*
X200660000Y-93345000D02*
X195580000Y-88265000D01*
X195580000Y-88265000D02*
X195580000Y-85725000D01*
X198120000Y-85725000D02*
X198120000Y-88265000D01*
X198120000Y-88265000D02*
X203200000Y-93345000D01*
X200660000Y-85725000D02*
X200660000Y-88265000D01*
X200660000Y-88265000D02*
X205740000Y-93345000D01*
X182880000Y-93345000D02*
X182880000Y-95250000D01*
X184150000Y-96520000D02*
X184150000Y-102235000D01*
X182880000Y-95250000D02*
X184150000Y-96520000D01*
X195580000Y-128905000D02*
X195580000Y-127000000D01*
X192405000Y-110490000D02*
X184150000Y-102235000D01*
X192405000Y-112395000D02*
X192405000Y-110490000D01*
X194310000Y-114300000D02*
X192405000Y-112395000D01*
X194310000Y-125730000D02*
X194310000Y-114300000D01*
X195580000Y-127000000D02*
X194310000Y-125730000D01*
X194945000Y-125095000D02*
X194945000Y-113665000D01*
X194945000Y-113665000D02*
X193675000Y-112395000D01*
X198120000Y-128905000D02*
X198120000Y-128270000D01*
X198120000Y-128270000D02*
X194945000Y-125095000D01*
X193675000Y-112395000D02*
X193675000Y-109855000D01*
X193675000Y-109855000D02*
X186690000Y-102870000D01*
X195580000Y-123190000D02*
X195580000Y-113030000D01*
X195580000Y-113030000D02*
X194310000Y-111760000D01*
X200660000Y-128905000D02*
X200660000Y-128270000D01*
X200660000Y-128270000D02*
X195580000Y-123190000D01*
X194310000Y-107950000D02*
X189230000Y-102870000D01*
X194310000Y-111760000D02*
X194310000Y-107950000D01*
X196215000Y-122555000D02*
X196215000Y-112395000D01*
X196215000Y-112395000D02*
X194945000Y-111125000D01*
X194945000Y-111125000D02*
X194945000Y-106045000D01*
X203200000Y-128905000D02*
X203200000Y-127000000D01*
X194945000Y-106045000D02*
X191770000Y-102870000D01*
X198120000Y-124460000D02*
X196215000Y-122555000D01*
X200660000Y-124460000D02*
X198120000Y-124460000D01*
X203200000Y-127000000D02*
X200660000Y-124460000D01*
X198200000Y-107315000D02*
X198200000Y-108030000D01*
X198200000Y-108030000D02*
X200660000Y-110490000D01*
X198120000Y-107395000D02*
X198200000Y-107315000D01*
X198200000Y-107315000D02*
X198200000Y-101045000D01*
X198200000Y-101045000D02*
X198120000Y-100965000D01*
X203200000Y-107315000D02*
X205145000Y-107315000D01*
X205145000Y-107315000D02*
X205740000Y-106720000D01*
X200660000Y-100965000D02*
X200660000Y-104775000D01*
X200660000Y-104775000D02*
X203200000Y-107315000D01*
X179705000Y-107950000D02*
X179705000Y-106045000D01*
X177800000Y-104140000D02*
X177800000Y-100965000D01*
X179705000Y-106045000D02*
X177800000Y-104140000D01*
X179705000Y-107950000D02*
X182245000Y-107950000D01*
X191135000Y-115570000D02*
X191135000Y-117475000D01*
X191135000Y-117475000D02*
X191770000Y-118110000D01*
X181610000Y-123825000D02*
X182245000Y-123825000D01*
X182245000Y-123825000D02*
X184785000Y-126365000D01*
D34*
X179705000Y-115570000D02*
X182245000Y-115570000D01*
X182245000Y-115570000D02*
X186690000Y-115570000D01*
D33*
X154940000Y-170815000D02*
X161440000Y-170815000D01*
X137795000Y-170815000D02*
X144295000Y-170815000D01*
X144780000Y-170330000D02*
X144295000Y-170815000D01*
X161440000Y-142875000D02*
X154940000Y-142875000D01*
X144295000Y-142875000D02*
X137795000Y-142875000D01*
M02*
