M48
;DRILL file {KiCad 4.0.7+dfsg1-1~bpo9+1} date Thu Apr  5 11:27:40 2018
;FORMAT={-:-/ absolute / metric / decimal}
FMAT,2
METRIC,TZ
T1C0.400
T2C0.635
T3C0.700
T4C0.800
T5C0.900
T6C1.000
T7C1.100
T8C1.143
T9C1.300
T10C1.470
T11C3.200
%
G90
G05
M71
T1
X137.795Y-154.94
X137.795Y-157.48
X137.795Y-160.02
X137.795Y-162.56
X163.195Y-99.695
X177.8Y-106.68
X185.42Y-88.265
X186.055Y-90.17
X186.69Y-102.87
X189.23Y-102.87
X189.23Y-154.94
X189.23Y-157.48
X189.23Y-160.02
X189.23Y-162.56
X191.77Y-87.63
X191.77Y-102.87
X193.04Y-88.265
X194.31Y-88.9
X196.215Y-90.17
X196.215Y-97.155
X212.09Y-104.775
X213.995Y-113.03
T2
X133.096Y-123.825
X140.716Y-123.825
T3
X133.096Y-120.015
X137.16Y-139.065
X137.16Y-167.64
X140.716Y-120.015
X144.78Y-139.065
X144.78Y-167.64
X154.305Y-139.065
X154.305Y-167.64
X161.925Y-139.065
X161.925Y-167.64
X181.61Y-123.825
X189.23Y-123.825
X191.135Y-115.57
X198.755Y-115.57
T4
X167.64Y-100.965
X167.64Y-103.505
X167.64Y-106.045
X167.64Y-108.585
X167.64Y-111.125
X167.64Y-113.665
X167.64Y-116.205
X167.64Y-118.745
X167.64Y-121.285
X177.8Y-93.345
X177.8Y-100.965
X180.34Y-93.345
X180.34Y-100.965
X182.88Y-93.345
X182.88Y-100.965
X185.42Y-93.345
X185.42Y-100.965
X187.96Y-93.345
X187.96Y-100.965
X190.5Y-93.345
X190.5Y-100.965
X193.04Y-93.345
X193.04Y-100.965
X195.58Y-93.345
X195.58Y-100.965
X198.12Y-93.345
X198.12Y-100.965
X200.66Y-93.345
X200.66Y-100.965
X200.66Y-110.49
X203.16Y-110.49
X203.2Y-93.345
X203.2Y-100.965
X205.74Y-93.345
X205.74Y-100.965
X205.74Y-106.72
X205.74Y-109.22
X207.01Y-122.595
X207.01Y-125.095
X208.28Y-93.345
X208.28Y-100.965
X210.82Y-93.345
X210.82Y-100.965
X213.995Y-122.595
X213.995Y-125.095
T5
X134.366Y-111.125
X134.366Y-116.205
X135.636Y-127.635
X136.906Y-111.125
X136.906Y-116.205
X138.176Y-127.635
X139.446Y-111.125
X139.446Y-116.205
X161.925Y-103.505
X161.925Y-106.045
X161.925Y-108.585
X161.925Y-111.125
X161.925Y-113.665
X161.925Y-116.205
X161.925Y-118.745
X161.925Y-121.285
X164.465Y-103.505
X164.465Y-106.045
X164.465Y-108.585
X164.465Y-111.125
X164.465Y-113.665
X164.465Y-116.205
X164.465Y-118.745
X164.465Y-121.285
X184.785Y-126.365
X187.325Y-126.365
T6
X128.27Y-93.345
X128.27Y-95.885
X128.27Y-98.425
X128.27Y-100.965
X128.27Y-103.505
X128.27Y-106.045
X128.27Y-108.585
X128.27Y-111.125
X128.27Y-113.665
X128.27Y-116.205
X128.27Y-118.745
X128.27Y-121.285
X128.27Y-143.51
X128.27Y-146.05
X128.27Y-148.59
X128.27Y-151.13
X128.27Y-153.67
X128.27Y-156.21
X128.27Y-158.75
X128.27Y-161.29
X128.27Y-163.83
X128.27Y-166.37
X128.27Y-168.91
X128.27Y-171.45
X145.415Y-93.345
X145.415Y-95.885
X145.415Y-98.425
X145.415Y-100.965
X145.415Y-103.505
X145.415Y-106.045
X145.415Y-108.585
X145.415Y-111.125
X145.415Y-113.665
X145.415Y-116.205
X145.415Y-118.745
X145.415Y-121.285
X147.32Y-154.94
X147.32Y-157.48
X147.32Y-160.02
X147.32Y-162.56
X149.86Y-154.94
X149.86Y-157.48
X149.86Y-160.02
X149.86Y-162.56
X152.4Y-154.94
X152.4Y-157.48
X152.4Y-160.02
X152.4Y-162.56
X152.908Y-93.345
X152.908Y-95.885
X152.908Y-98.425
X152.908Y-100.965
X152.908Y-103.505
X152.908Y-106.045
X152.908Y-108.585
X152.908Y-111.125
X152.908Y-113.665
X152.908Y-116.205
X152.908Y-118.745
X152.908Y-121.285
X156.21Y-103.505
X156.21Y-106.045
X156.21Y-108.585
X156.21Y-111.125
X156.21Y-113.665
X156.21Y-116.205
X156.21Y-118.745
X156.21Y-121.285
X158.75Y-103.505
X158.75Y-106.045
X158.75Y-108.585
X158.75Y-111.125
X158.75Y-113.665
X158.75Y-116.205
X158.75Y-118.745
X158.75Y-121.285
X170.18Y-93.345
X170.18Y-95.885
X170.18Y-98.425
X170.18Y-100.965
X170.18Y-103.505
X170.18Y-106.045
X170.18Y-108.585
X170.18Y-111.125
X170.18Y-113.665
X170.18Y-116.205
X170.18Y-118.745
X170.18Y-121.285
X170.18Y-143.51
X170.18Y-146.05
X170.18Y-148.59
X170.18Y-151.13
X170.18Y-153.67
X170.18Y-156.21
X170.18Y-158.75
X170.18Y-161.29
X170.18Y-163.83
X170.18Y-166.37
X170.18Y-168.91
X170.18Y-171.45
X178.435Y-143.51
X178.435Y-146.05
X178.435Y-148.59
X178.435Y-151.13
X178.435Y-153.67
X178.435Y-156.21
X178.435Y-158.75
X178.435Y-161.29
X178.435Y-163.83
X178.435Y-166.37
X178.435Y-168.91
X178.435Y-171.45
X179.705Y-107.95
X179.705Y-110.49
X179.705Y-113.03
X179.705Y-115.57
X179.705Y-118.11
X179.705Y-120.65
X182.245Y-107.95
X182.245Y-110.49
X182.245Y-113.03
X182.245Y-115.57
X182.245Y-118.11
X182.245Y-120.65
X185.42Y-85.725
X185.42Y-128.905
X186.69Y-115.57
X186.69Y-120.65
X187.96Y-85.725
X187.96Y-128.905
X190.5Y-85.725
X190.5Y-128.905
X193.04Y-85.725
X193.04Y-128.905
X195.58Y-85.725
X195.58Y-128.905
X198.12Y-85.725
X198.12Y-128.905
X198.12Y-154.94
X198.12Y-157.48
X198.12Y-160.02
X198.12Y-162.56
X198.2Y-107.315
X200.66Y-85.725
X200.66Y-128.905
X200.66Y-154.94
X200.66Y-157.48
X200.66Y-160.02
X200.66Y-162.56
X202.565Y-113.665
X203.2Y-85.725
X203.2Y-107.315
X203.2Y-128.905
X203.2Y-154.94
X203.2Y-157.48
X203.2Y-160.02
X203.2Y-162.56
X205.74Y-85.725
X205.74Y-128.905
X207.645Y-113.665
X208.28Y-85.725
X208.28Y-128.905
X210.82Y-85.725
X210.82Y-128.905
X213.36Y-85.725
X213.36Y-128.905
X220.345Y-143.51
X220.345Y-146.05
X220.345Y-148.59
X220.345Y-151.13
X220.345Y-153.67
X220.345Y-156.21
X220.345Y-158.75
X220.345Y-161.29
X220.345Y-163.83
X220.345Y-166.37
X220.345Y-168.91
X220.345Y-171.45
X220.98Y-93.345
X220.98Y-95.885
X220.98Y-98.425
X220.98Y-100.965
X220.98Y-103.505
X220.98Y-106.045
X220.98Y-108.585
X220.98Y-111.125
X220.98Y-113.665
X220.98Y-116.205
X220.98Y-118.745
X220.98Y-121.285
T7
X137.795Y-142.875
X137.795Y-147.375
X137.795Y-170.815
X137.795Y-175.315
X144.295Y-142.875
X144.295Y-147.375
X144.295Y-170.815
X144.295Y-175.315
X154.94Y-142.875
X154.94Y-147.375
X154.94Y-170.815
X154.94Y-175.315
X161.44Y-142.875
X161.44Y-147.375
X161.44Y-170.815
X161.44Y-175.315
X191.77Y-118.11
X191.77Y-122.61
X198.27Y-118.11
X198.27Y-122.61
T8
X206.375Y-116.84
X208.915Y-116.84
X211.455Y-116.84
T9
X184.31Y-142.2
X184.31Y-173.315
X194.31Y-139.7
X194.31Y-144.7
X194.31Y-170.815
X194.31Y-175.815
X204.63Y-142.2
X204.63Y-173.315
X214.63Y-139.7
X214.63Y-144.7
X214.63Y-170.815
X214.63Y-175.815
T10
X136.525Y-99.14
X136.525Y-104.14
T11
X128.27Y-86.36
X128.27Y-128.27
X128.27Y-136.525
X128.27Y-178.435
X145.415Y-86.36
X145.415Y-128.27
X153.035Y-86.36
X153.035Y-128.27
X170.18Y-86.36
X170.18Y-128.27
X170.18Y-136.525
X170.18Y-178.435
X178.435Y-86.36
X178.435Y-128.27
X178.435Y-136.525
X178.435Y-178.435
X220.345Y-86.36
X220.345Y-128.27
X220.345Y-136.525
X220.345Y-178.435
T6
X132.46Y-88.71G85X132.46Y-90.71
G05
X138.16Y-86.71G85X136.16Y-86.71
G05
X138.16Y-92.71G85X136.16Y-92.71
G05
T0
M30
