G04 #@! TF.FileFunction,Soldermask,Top*
%FSLAX46Y46*%
G04 Gerber Fmt 4.6, Leading zero omitted, Abs format (unit mm)*
G04 Created by KiCad (PCBNEW 4.0.7+dfsg1-1~bpo9+1) date Thu Apr  5 11:27:44 2018*
%MOMM*%
%LPD*%
G01*
G04 APERTURE LIST*
%ADD10C,0.100000*%
%ADD11R,3.500000X3.500000*%
%ADD12C,3.200000*%
%ADD13R,1.700000X1.700000*%
%ADD14O,1.700000X1.700000*%
%ADD15R,1.800000X1.800000*%
%ADD16C,1.800000*%
%ADD17R,1.600000X1.600000*%
%ADD18O,1.600000X1.600000*%
%ADD19C,1.400000*%
%ADD20O,1.400000X1.400000*%
%ADD21R,1.400000X1.400000*%
%ADD22C,1.143000*%
%ADD23R,1.270000X0.970000*%
%ADD24R,2.400000X2.400000*%
%ADD25C,2.400000*%
%ADD26C,1.700000*%
%ADD27C,1.600000*%
%ADD28C,2.000000*%
%ADD29O,2.032000X2.540000*%
%ADD30R,2.000000X2.000000*%
%ADD31O,2.000000X2.000000*%
%ADD32C,2.340000*%
G04 APERTURE END LIST*
D10*
D11*
X137160000Y-92710000D03*
X137160000Y-86710000D03*
X132460000Y-89710000D03*
D12*
X128270000Y-128270000D03*
X145415000Y-128270000D03*
X128270000Y-86360000D03*
X170180000Y-86360000D03*
X170180000Y-128270000D03*
D13*
X128270000Y-93345000D03*
D14*
X128270000Y-95885000D03*
X128270000Y-98425000D03*
X128270000Y-100965000D03*
X128270000Y-103505000D03*
X128270000Y-106045000D03*
X128270000Y-108585000D03*
X128270000Y-111125000D03*
X128270000Y-113665000D03*
X128270000Y-116205000D03*
X128270000Y-118745000D03*
X128270000Y-121285000D03*
D13*
X145415000Y-93345000D03*
D14*
X145415000Y-95885000D03*
X145415000Y-98425000D03*
X145415000Y-100965000D03*
X145415000Y-103505000D03*
X145415000Y-106045000D03*
X145415000Y-108585000D03*
X145415000Y-111125000D03*
X145415000Y-113665000D03*
X145415000Y-116205000D03*
X145415000Y-118745000D03*
X145415000Y-121285000D03*
D12*
X145415000Y-86360000D03*
X153035000Y-86360000D03*
X153035000Y-128270000D03*
D15*
X164465000Y-103505000D03*
D16*
X161925000Y-103505000D03*
D15*
X164465000Y-106045000D03*
D16*
X161925000Y-106045000D03*
D15*
X164465000Y-108585000D03*
D16*
X161925000Y-108585000D03*
D15*
X164465000Y-111125000D03*
D16*
X161925000Y-111125000D03*
D15*
X164465000Y-113665000D03*
D16*
X161925000Y-113665000D03*
D15*
X164465000Y-116205000D03*
D16*
X161925000Y-116205000D03*
D15*
X164465000Y-118745000D03*
D16*
X161925000Y-118745000D03*
D15*
X164465000Y-121285000D03*
D16*
X161925000Y-121285000D03*
D13*
X158750000Y-103505000D03*
D14*
X158750000Y-106045000D03*
X158750000Y-108585000D03*
X158750000Y-111125000D03*
X158750000Y-113665000D03*
X158750000Y-116205000D03*
X158750000Y-118745000D03*
X158750000Y-121285000D03*
D13*
X156210000Y-103505000D03*
D14*
X156210000Y-106045000D03*
X156210000Y-108585000D03*
X156210000Y-111125000D03*
X156210000Y-113665000D03*
X156210000Y-116205000D03*
X156210000Y-118745000D03*
X156210000Y-121285000D03*
D13*
X152908000Y-93345000D03*
D14*
X152908000Y-95885000D03*
X152908000Y-98425000D03*
X152908000Y-100965000D03*
X152908000Y-103505000D03*
X152908000Y-106045000D03*
X152908000Y-108585000D03*
X152908000Y-111125000D03*
X152908000Y-113665000D03*
X152908000Y-116205000D03*
X152908000Y-118745000D03*
X152908000Y-121285000D03*
D13*
X170180000Y-93345000D03*
D14*
X170180000Y-95885000D03*
X170180000Y-98425000D03*
X170180000Y-100965000D03*
X170180000Y-103505000D03*
X170180000Y-106045000D03*
X170180000Y-108585000D03*
X170180000Y-111125000D03*
X170180000Y-113665000D03*
X170180000Y-116205000D03*
X170180000Y-118745000D03*
X170180000Y-121285000D03*
D17*
X167640000Y-100965000D03*
D18*
X167640000Y-103505000D03*
X167640000Y-106045000D03*
X167640000Y-108585000D03*
X167640000Y-111125000D03*
X167640000Y-113665000D03*
X167640000Y-116205000D03*
X167640000Y-118745000D03*
X167640000Y-121285000D03*
D15*
X135636000Y-127635000D03*
D16*
X138176000Y-127635000D03*
D19*
X133096000Y-120015000D03*
D20*
X140716000Y-120015000D03*
D21*
X134366000Y-111125000D03*
D19*
X136906000Y-111125000D03*
X139446000Y-111125000D03*
X134366000Y-116205000D03*
X136906000Y-116205000D03*
X139446000Y-116205000D03*
D22*
X140716000Y-123825000D03*
X133096000Y-123825000D03*
D23*
X163195000Y-95885000D03*
X163195000Y-97155000D03*
X163195000Y-98425000D03*
D24*
X136525000Y-104140000D03*
D25*
X136525000Y-99140000D03*
D13*
X185420000Y-85725000D03*
D14*
X187960000Y-85725000D03*
X190500000Y-85725000D03*
X193040000Y-85725000D03*
X195580000Y-85725000D03*
X198120000Y-85725000D03*
X200660000Y-85725000D03*
X203200000Y-85725000D03*
X205740000Y-85725000D03*
X208280000Y-85725000D03*
X210820000Y-85725000D03*
X213360000Y-85725000D03*
D17*
X177800000Y-100965000D03*
D18*
X210820000Y-93345000D03*
X180340000Y-100965000D03*
X208280000Y-93345000D03*
X182880000Y-100965000D03*
X205740000Y-93345000D03*
X185420000Y-100965000D03*
X203200000Y-93345000D03*
X187960000Y-100965000D03*
X200660000Y-93345000D03*
X190500000Y-100965000D03*
X198120000Y-93345000D03*
X193040000Y-100965000D03*
X195580000Y-93345000D03*
X195580000Y-100965000D03*
X193040000Y-93345000D03*
X198120000Y-100965000D03*
X190500000Y-93345000D03*
X200660000Y-100965000D03*
X187960000Y-93345000D03*
X203200000Y-100965000D03*
X185420000Y-93345000D03*
X205740000Y-100965000D03*
X182880000Y-93345000D03*
X208280000Y-100965000D03*
X180340000Y-93345000D03*
X210820000Y-100965000D03*
X177800000Y-93345000D03*
D26*
X203200000Y-107315000D03*
X198200000Y-107315000D03*
D27*
X200660000Y-110490000D03*
X203160000Y-110490000D03*
X205740000Y-109220000D03*
X205740000Y-106720000D03*
D13*
X182245000Y-120650000D03*
D14*
X182245000Y-118110000D03*
X182245000Y-115570000D03*
X182245000Y-113030000D03*
X182245000Y-110490000D03*
X182245000Y-107950000D03*
D13*
X220980000Y-93345000D03*
D14*
X220980000Y-95885000D03*
X220980000Y-98425000D03*
X220980000Y-100965000D03*
X220980000Y-103505000D03*
X220980000Y-106045000D03*
X220980000Y-108585000D03*
X220980000Y-111125000D03*
X220980000Y-113665000D03*
X220980000Y-116205000D03*
X220980000Y-118745000D03*
X220980000Y-121285000D03*
D13*
X213360000Y-128905000D03*
D14*
X210820000Y-128905000D03*
X208280000Y-128905000D03*
X205740000Y-128905000D03*
X203200000Y-128905000D03*
X200660000Y-128905000D03*
X198120000Y-128905000D03*
X195580000Y-128905000D03*
X193040000Y-128905000D03*
X190500000Y-128905000D03*
X187960000Y-128905000D03*
X185420000Y-128905000D03*
D12*
X220345000Y-86360000D03*
X220345000Y-128270000D03*
X178435000Y-128270000D03*
X178435000Y-86360000D03*
D17*
X213995000Y-125095000D03*
D27*
X213995000Y-122595000D03*
D17*
X207010000Y-125095000D03*
D27*
X207010000Y-122595000D03*
D19*
X181610000Y-123825000D03*
D20*
X189230000Y-123825000D03*
D19*
X191135000Y-115570000D03*
D20*
X198755000Y-115570000D03*
D28*
X191770000Y-122610000D03*
X191770000Y-118110000D03*
X198270000Y-122610000D03*
X198270000Y-118110000D03*
D29*
X208915000Y-116840000D03*
X206375000Y-116840000D03*
X211455000Y-116840000D03*
D15*
X187325000Y-126365000D03*
D16*
X184785000Y-126365000D03*
D30*
X186690000Y-120650000D03*
D31*
X186690000Y-115570000D03*
D30*
X202565000Y-113665000D03*
D31*
X207645000Y-113665000D03*
D13*
X179705000Y-120650000D03*
D14*
X179705000Y-118110000D03*
X179705000Y-115570000D03*
X179705000Y-113030000D03*
X179705000Y-110490000D03*
X179705000Y-107950000D03*
D13*
X203200000Y-154940000D03*
D14*
X203200000Y-157480000D03*
X203200000Y-160020000D03*
X203200000Y-162560000D03*
D28*
X154940000Y-175315000D03*
X154940000Y-170815000D03*
X161440000Y-175315000D03*
X161440000Y-170815000D03*
D12*
X178435000Y-136525000D03*
X128270000Y-178435000D03*
X220345000Y-178435000D03*
X128270000Y-136525000D03*
X170180000Y-136525000D03*
X170180000Y-178435000D03*
X220345000Y-136525000D03*
X178435000Y-178435000D03*
D13*
X128270000Y-143510000D03*
D14*
X128270000Y-146050000D03*
X128270000Y-148590000D03*
X128270000Y-151130000D03*
X128270000Y-153670000D03*
X128270000Y-156210000D03*
X128270000Y-158750000D03*
X128270000Y-161290000D03*
X128270000Y-163830000D03*
X128270000Y-166370000D03*
X128270000Y-168910000D03*
X128270000Y-171450000D03*
D13*
X178435000Y-143510000D03*
D14*
X178435000Y-146050000D03*
X178435000Y-148590000D03*
X178435000Y-151130000D03*
X178435000Y-153670000D03*
X178435000Y-156210000D03*
X178435000Y-158750000D03*
X178435000Y-161290000D03*
X178435000Y-163830000D03*
X178435000Y-166370000D03*
X178435000Y-168910000D03*
X178435000Y-171450000D03*
D13*
X170180000Y-143510000D03*
D14*
X170180000Y-146050000D03*
X170180000Y-148590000D03*
X170180000Y-151130000D03*
X170180000Y-153670000D03*
X170180000Y-156210000D03*
X170180000Y-158750000D03*
X170180000Y-161290000D03*
X170180000Y-163830000D03*
X170180000Y-166370000D03*
X170180000Y-168910000D03*
X170180000Y-171450000D03*
D13*
X220345000Y-143510000D03*
D14*
X220345000Y-146050000D03*
X220345000Y-148590000D03*
X220345000Y-151130000D03*
X220345000Y-153670000D03*
X220345000Y-156210000D03*
X220345000Y-158750000D03*
X220345000Y-161290000D03*
X220345000Y-163830000D03*
X220345000Y-166370000D03*
X220345000Y-168910000D03*
X220345000Y-171450000D03*
D32*
X194310000Y-144700000D03*
X184310000Y-142200000D03*
X194310000Y-139700000D03*
X214630000Y-144700000D03*
X204630000Y-142200000D03*
X214630000Y-139700000D03*
X194310000Y-175815000D03*
X184310000Y-173315000D03*
X194310000Y-170815000D03*
X214630000Y-175815000D03*
X204630000Y-173315000D03*
X214630000Y-170815000D03*
D13*
X198120000Y-154940000D03*
D14*
X198120000Y-157480000D03*
X198120000Y-160020000D03*
X198120000Y-162560000D03*
D13*
X152400000Y-154940000D03*
D14*
X152400000Y-157480000D03*
X152400000Y-160020000D03*
X152400000Y-162560000D03*
D13*
X147320000Y-154940000D03*
D14*
X147320000Y-157480000D03*
X147320000Y-160020000D03*
X147320000Y-162560000D03*
D13*
X200660000Y-162560000D03*
D14*
X200660000Y-160020000D03*
X200660000Y-157480000D03*
X200660000Y-154940000D03*
D13*
X149860000Y-162560000D03*
D14*
X149860000Y-160020000D03*
X149860000Y-157480000D03*
X149860000Y-154940000D03*
D19*
X137160000Y-139065000D03*
D20*
X144780000Y-139065000D03*
D19*
X154305000Y-139065000D03*
D20*
X161925000Y-139065000D03*
D19*
X137160000Y-167640000D03*
D20*
X144780000Y-167640000D03*
D19*
X154305000Y-167640000D03*
D20*
X161925000Y-167640000D03*
D28*
X137795000Y-147375000D03*
X137795000Y-142875000D03*
X144295000Y-147375000D03*
X144295000Y-142875000D03*
X154940000Y-147375000D03*
X154940000Y-142875000D03*
X161440000Y-147375000D03*
X161440000Y-142875000D03*
X137795000Y-175315000D03*
X137795000Y-170815000D03*
X144295000Y-175315000D03*
X144295000Y-170815000D03*
M02*
