G04 #@! TF.FileFunction,Copper,L1,Top,Signal*
%FSLAX46Y46*%
G04 Gerber Fmt 4.6, Leading zero omitted, Abs format (unit mm)*
G04 Created by KiCad (PCBNEW 4.0.7+dfsg1-1~bpo9+1) date Wed May  2 15:41:06 2018*
%MOMM*%
%LPD*%
G01*
G04 APERTURE LIST*
%ADD10C,0.100000*%
%ADD11R,1.700000X1.700000*%
%ADD12O,1.700000X1.700000*%
%ADD13C,1.727200*%
%ADD14R,1.600000X1.600000*%
%ADD15O,1.600000X1.600000*%
%ADD16C,1.600000*%
%ADD17C,1.400000*%
%ADD18O,1.400000X1.400000*%
%ADD19C,1.750000*%
%ADD20O,4.000000X4.000000*%
%ADD21C,0.600000*%
%ADD22C,0.250000*%
%ADD23C,0.500000*%
G04 APERTURE END LIST*
D10*
D11*
X119380000Y-34925000D03*
D12*
X121920000Y-34925000D03*
X124460000Y-34925000D03*
X127000000Y-34925000D03*
X129540000Y-34925000D03*
X132080000Y-34925000D03*
X134620000Y-34925000D03*
X137160000Y-34925000D03*
X139700000Y-34925000D03*
X142240000Y-34925000D03*
X144780000Y-34925000D03*
X147320000Y-34925000D03*
D11*
X154305000Y-41910000D03*
D12*
X154305000Y-44450000D03*
X154305000Y-46990000D03*
X154305000Y-49530000D03*
X154305000Y-52070000D03*
X154305000Y-54610000D03*
X154305000Y-57150000D03*
X154305000Y-59690000D03*
X154305000Y-62230000D03*
X154305000Y-64770000D03*
X154305000Y-67310000D03*
X154305000Y-69850000D03*
D11*
X147320000Y-76835000D03*
D12*
X144780000Y-76835000D03*
X142240000Y-76835000D03*
X139700000Y-76835000D03*
X137160000Y-76835000D03*
X134620000Y-76835000D03*
X132080000Y-76835000D03*
X129540000Y-76835000D03*
X127000000Y-76835000D03*
X124460000Y-76835000D03*
X121920000Y-76835000D03*
X119380000Y-76835000D03*
D13*
X118110000Y-62865000D03*
X120650000Y-62865000D03*
X123190000Y-62865000D03*
X125730000Y-62865000D03*
X128270000Y-62865000D03*
X130810000Y-62865000D03*
X133350000Y-62865000D03*
X132080000Y-60325000D03*
X134620000Y-60325000D03*
X115570000Y-57785000D03*
X115570000Y-60325000D03*
X121920000Y-60325000D03*
X124460000Y-60325000D03*
X115570000Y-55245000D03*
X135890000Y-62865000D03*
X138430000Y-62865000D03*
X140970000Y-62865000D03*
X143510000Y-62865000D03*
X115570000Y-62865000D03*
X143620000Y-47625000D03*
X140970000Y-47625000D03*
X138430000Y-47625000D03*
X135890000Y-47625000D03*
X133350000Y-47625000D03*
X130810000Y-47625000D03*
X128270000Y-47625000D03*
X125730000Y-47625000D03*
X123190000Y-47625000D03*
X120650000Y-47625000D03*
X118110000Y-47625000D03*
X115570000Y-47625000D03*
D11*
X111760000Y-58420000D03*
D12*
X111760000Y-60960000D03*
X111760000Y-63500000D03*
X111760000Y-66040000D03*
X111760000Y-68580000D03*
X111760000Y-71120000D03*
D11*
X111760000Y-40640000D03*
D12*
X111760000Y-43180000D03*
X111760000Y-45720000D03*
X111760000Y-48260000D03*
X111760000Y-50800000D03*
X111760000Y-53340000D03*
D11*
X162560000Y-41910000D03*
D12*
X162560000Y-44450000D03*
X162560000Y-46990000D03*
X162560000Y-49530000D03*
X162560000Y-52070000D03*
X162560000Y-54610000D03*
X162560000Y-57150000D03*
X162560000Y-59690000D03*
X162560000Y-62230000D03*
X162560000Y-64770000D03*
X162560000Y-67310000D03*
X162560000Y-69850000D03*
D11*
X165100000Y-52070000D03*
D12*
X165100000Y-54610000D03*
X165100000Y-57150000D03*
X165100000Y-59690000D03*
X165100000Y-62230000D03*
X165100000Y-64770000D03*
X165100000Y-67310000D03*
X165100000Y-69850000D03*
D11*
X197485000Y-34925000D03*
D12*
X194945000Y-34925000D03*
X192405000Y-34925000D03*
X189865000Y-34925000D03*
X187325000Y-34925000D03*
X184785000Y-34925000D03*
X182245000Y-34925000D03*
X179705000Y-34925000D03*
X177165000Y-34925000D03*
X174625000Y-34925000D03*
X172085000Y-34925000D03*
X169545000Y-34925000D03*
D11*
X197485000Y-76835000D03*
D12*
X194945000Y-76835000D03*
X192405000Y-76835000D03*
X189865000Y-76835000D03*
X187325000Y-76835000D03*
X184785000Y-76835000D03*
X182245000Y-76835000D03*
X179705000Y-76835000D03*
X177165000Y-76835000D03*
X174625000Y-76835000D03*
X172085000Y-76835000D03*
X169545000Y-76835000D03*
D11*
X204470000Y-41910000D03*
D12*
X204470000Y-44450000D03*
X204470000Y-46990000D03*
X204470000Y-49530000D03*
X204470000Y-52070000D03*
X204470000Y-54610000D03*
X204470000Y-57150000D03*
X204470000Y-59690000D03*
X204470000Y-62230000D03*
X204470000Y-64770000D03*
X204470000Y-67310000D03*
X204470000Y-69850000D03*
D14*
X188595000Y-40640000D03*
D15*
X170815000Y-48260000D03*
X186055000Y-40640000D03*
X173355000Y-48260000D03*
X183515000Y-40640000D03*
X175895000Y-48260000D03*
X180975000Y-40640000D03*
X178435000Y-48260000D03*
X178435000Y-40640000D03*
X180975000Y-48260000D03*
X175895000Y-40640000D03*
X183515000Y-48260000D03*
X173355000Y-40640000D03*
X186055000Y-48260000D03*
X170815000Y-40640000D03*
X188595000Y-48260000D03*
D14*
X188595000Y-52070000D03*
D15*
X196215000Y-69850000D03*
X188595000Y-54610000D03*
X196215000Y-67310000D03*
X188595000Y-57150000D03*
X196215000Y-64770000D03*
X188595000Y-59690000D03*
X196215000Y-62230000D03*
X188595000Y-62230000D03*
X196215000Y-59690000D03*
X188595000Y-64770000D03*
X196215000Y-57150000D03*
X188595000Y-67310000D03*
X196215000Y-54610000D03*
X188595000Y-69850000D03*
X196215000Y-52070000D03*
D11*
X170180000Y-64135000D03*
D12*
X170180000Y-61595000D03*
X170180000Y-59055000D03*
X170180000Y-56515000D03*
D11*
X112395000Y-92075000D03*
D12*
X112395000Y-94615000D03*
X112395000Y-97155000D03*
X112395000Y-99695000D03*
X112395000Y-102235000D03*
X112395000Y-104775000D03*
X112395000Y-107315000D03*
X112395000Y-109855000D03*
X112395000Y-112395000D03*
X112395000Y-114935000D03*
X112395000Y-117475000D03*
X112395000Y-120015000D03*
D14*
X140970000Y-114300000D03*
D15*
X123190000Y-121920000D03*
X138430000Y-114300000D03*
X125730000Y-121920000D03*
X135890000Y-114300000D03*
X128270000Y-121920000D03*
X133350000Y-114300000D03*
X130810000Y-121920000D03*
X130810000Y-114300000D03*
X133350000Y-121920000D03*
X128270000Y-114300000D03*
X135890000Y-121920000D03*
X125730000Y-114300000D03*
X138430000Y-121920000D03*
X123190000Y-114300000D03*
X140970000Y-121920000D03*
D11*
X116840000Y-102235000D03*
D12*
X116840000Y-104775000D03*
X116840000Y-107315000D03*
X116840000Y-109855000D03*
X116840000Y-112395000D03*
X116840000Y-114935000D03*
X116840000Y-117475000D03*
X116840000Y-120015000D03*
D11*
X119380000Y-102235000D03*
D12*
X119380000Y-104775000D03*
X119380000Y-107315000D03*
X119380000Y-109855000D03*
D16*
X143510000Y-121920000D03*
X146010000Y-121920000D03*
X125730000Y-89535000D03*
X123230000Y-89535000D03*
D11*
X154305000Y-92075000D03*
D12*
X154305000Y-94615000D03*
X154305000Y-97155000D03*
X154305000Y-99695000D03*
X154305000Y-102235000D03*
X154305000Y-104775000D03*
X154305000Y-107315000D03*
X154305000Y-109855000D03*
X154305000Y-112395000D03*
X154305000Y-114935000D03*
X154305000Y-117475000D03*
X154305000Y-120015000D03*
D11*
X147320000Y-127000000D03*
D12*
X144780000Y-127000000D03*
X142240000Y-127000000D03*
X139700000Y-127000000D03*
X137160000Y-127000000D03*
X134620000Y-127000000D03*
X132080000Y-127000000D03*
X129540000Y-127000000D03*
X127000000Y-127000000D03*
X124460000Y-127000000D03*
X121920000Y-127000000D03*
X119380000Y-127000000D03*
D11*
X119380000Y-85090000D03*
D12*
X121920000Y-85090000D03*
X124460000Y-85090000D03*
X127000000Y-85090000D03*
X129540000Y-85090000D03*
X132080000Y-85090000D03*
X134620000Y-85090000D03*
X137160000Y-85090000D03*
X139700000Y-85090000D03*
X142240000Y-85090000D03*
X144780000Y-85090000D03*
X147320000Y-85090000D03*
D14*
X128270000Y-97155000D03*
D15*
X146050000Y-89535000D03*
X130810000Y-97155000D03*
X143510000Y-89535000D03*
X133350000Y-97155000D03*
X140970000Y-89535000D03*
X135890000Y-97155000D03*
X138430000Y-89535000D03*
X138430000Y-97155000D03*
X135890000Y-89535000D03*
X140970000Y-97155000D03*
X133350000Y-89535000D03*
X143510000Y-97155000D03*
X130810000Y-89535000D03*
X146050000Y-97155000D03*
X128270000Y-89535000D03*
D11*
X162560000Y-92075000D03*
D12*
X162560000Y-94615000D03*
X162560000Y-97155000D03*
X162560000Y-99695000D03*
X162560000Y-102235000D03*
X162560000Y-104775000D03*
X162560000Y-107315000D03*
X162560000Y-109855000D03*
X162560000Y-112395000D03*
X162560000Y-114935000D03*
X162560000Y-117475000D03*
X162560000Y-120015000D03*
D11*
X204470000Y-92075000D03*
D12*
X204470000Y-94615000D03*
X204470000Y-97155000D03*
X204470000Y-99695000D03*
X204470000Y-102235000D03*
X204470000Y-104775000D03*
X204470000Y-107315000D03*
X204470000Y-109855000D03*
X204470000Y-112395000D03*
X204470000Y-114935000D03*
X204470000Y-117475000D03*
X204470000Y-120015000D03*
D11*
X166370000Y-102235000D03*
D12*
X166370000Y-104775000D03*
X166370000Y-107315000D03*
X166370000Y-109855000D03*
X166370000Y-112395000D03*
X166370000Y-114935000D03*
X166370000Y-117475000D03*
X166370000Y-120015000D03*
D11*
X168910000Y-107315000D03*
D12*
X168910000Y-109855000D03*
X168910000Y-112395000D03*
X168910000Y-114935000D03*
X168910000Y-117475000D03*
X168910000Y-120015000D03*
D17*
X171450000Y-100965000D03*
D18*
X179070000Y-100965000D03*
D17*
X196850000Y-100965000D03*
D18*
X189230000Y-100965000D03*
D17*
X180340000Y-83820000D03*
D18*
X187960000Y-83820000D03*
D17*
X171450000Y-123190000D03*
D18*
X179070000Y-123190000D03*
D17*
X180340000Y-106045000D03*
D18*
X187960000Y-106045000D03*
D17*
X196850000Y-123190000D03*
D18*
X189230000Y-123190000D03*
D19*
X181650000Y-100845000D03*
X186650000Y-100845000D03*
X184150000Y-100845000D03*
X186650000Y-86345000D03*
X181650000Y-86345000D03*
D20*
X190350000Y-93345000D03*
X177950000Y-93345000D03*
D19*
X181650000Y-123070000D03*
X186650000Y-123070000D03*
X184150000Y-123070000D03*
X186650000Y-108570000D03*
X181650000Y-108570000D03*
D20*
X190350000Y-115570000D03*
X177950000Y-115570000D03*
D21*
X137160000Y-40640000D03*
X132080000Y-67310000D03*
X134620000Y-40640000D03*
X115570000Y-73660000D03*
X124460000Y-38735000D03*
X121920000Y-40005000D03*
X119380000Y-41275000D03*
X114300000Y-53340000D03*
X117475000Y-42545000D03*
X139700000Y-43815000D03*
X133985000Y-69850000D03*
X133350000Y-71120000D03*
X121920000Y-65405000D03*
X137795000Y-71755000D03*
X186690000Y-63500000D03*
X184785000Y-66040000D03*
X182245000Y-72390000D03*
X193675000Y-52705000D03*
X198120000Y-53340000D03*
X127000000Y-104775000D03*
X139700000Y-107315000D03*
X137160000Y-100965000D03*
X127635000Y-107315000D03*
X149860000Y-92075000D03*
X125730000Y-116205000D03*
X137795000Y-109855000D03*
X132080000Y-99060000D03*
X133350000Y-109855000D03*
X128270000Y-109855000D03*
X198755000Y-111125000D03*
X185420000Y-120015000D03*
D22*
X137160000Y-40640000D02*
X142240000Y-35560000D01*
X142240000Y-35560000D02*
X142240000Y-34925000D01*
X124460000Y-121285000D02*
X130175000Y-115570000D01*
X130175000Y-115570000D02*
X130810000Y-114935000D01*
X130810000Y-114935000D02*
X130810000Y-114300000D01*
X124460000Y-127000000D02*
X124460000Y-121285000D01*
X132080000Y-67310000D02*
X132080000Y-60325000D01*
X134620000Y-40640000D02*
X139700000Y-35560000D01*
X139700000Y-35560000D02*
X139700000Y-34925000D01*
X127000000Y-121285000D02*
X133350000Y-114935000D01*
X133350000Y-114935000D02*
X133350000Y-114300000D01*
X127000000Y-127000000D02*
X127000000Y-121285000D01*
X144780000Y-76835000D02*
X142240000Y-74295000D01*
X116205000Y-74295000D02*
X115570000Y-73660000D01*
X142240000Y-74295000D02*
X116205000Y-74295000D01*
D23*
X121920000Y-34925000D02*
X121920000Y-35560000D01*
X121920000Y-35560000D02*
X111760000Y-45720000D01*
X144780000Y-76835000D02*
X144780000Y-71755000D01*
X144780000Y-71755000D02*
X135890000Y-62865000D01*
D22*
X171450000Y-123190000D02*
X173990000Y-125730000D01*
X194310000Y-125730000D02*
X196850000Y-123190000D01*
X173990000Y-125730000D02*
X194310000Y-125730000D01*
D23*
X165100000Y-94615000D02*
X175895000Y-83820000D01*
X175895000Y-83820000D02*
X180340000Y-83820000D01*
X196850000Y-100965000D02*
X203200000Y-94615000D01*
X203200000Y-94615000D02*
X204470000Y-94615000D01*
X171450000Y-100965000D02*
X173990000Y-98425000D01*
X194310000Y-98425000D02*
X196850000Y-100965000D01*
X173990000Y-98425000D02*
X194310000Y-98425000D01*
X162560000Y-94615000D02*
X165100000Y-94615000D01*
X165100000Y-94615000D02*
X171450000Y-100965000D01*
X147320000Y-76835000D02*
X147320000Y-66675000D01*
X147320000Y-66675000D02*
X143510000Y-62865000D01*
X147320000Y-76835000D02*
X151765000Y-72390000D01*
X151765000Y-72390000D02*
X152400000Y-72390000D01*
X154940000Y-41910000D02*
X156845000Y-43815000D01*
X154940000Y-41910000D02*
X150495000Y-37465000D01*
X150495000Y-37465000D02*
X150495000Y-33655000D01*
X152400000Y-72390000D02*
X155575000Y-72390000D01*
X150495000Y-33655000D02*
X149225000Y-32385000D01*
X121285000Y-32385000D02*
X149225000Y-32385000D01*
X149225000Y-32385000D02*
X150495000Y-33655000D01*
X156845000Y-43815000D02*
X154940000Y-41910000D01*
X156845000Y-71120000D02*
X156845000Y-43815000D01*
X155575000Y-72390000D02*
X156845000Y-71120000D01*
X119380000Y-34290000D02*
X121285000Y-32385000D01*
X118745000Y-34925000D02*
X119380000Y-34290000D01*
X197485000Y-34925000D02*
X204470000Y-41910000D01*
X154305000Y-92075000D02*
X155575000Y-93345000D01*
X151765000Y-122555000D02*
X147320000Y-127000000D01*
X154305000Y-122555000D02*
X151765000Y-122555000D01*
X156210000Y-120650000D02*
X154305000Y-122555000D01*
X156210000Y-93980000D02*
X156210000Y-120650000D01*
X155575000Y-93345000D02*
X156210000Y-93980000D01*
X112395000Y-92075000D02*
X111760000Y-92075000D01*
X162560000Y-92075000D02*
X172085000Y-82550000D01*
X194945000Y-82550000D02*
X204470000Y-92075000D01*
X172085000Y-82550000D02*
X194945000Y-82550000D01*
X162560000Y-92075000D02*
X163195000Y-92075000D01*
D22*
X129540000Y-34925000D02*
X125730000Y-38735000D01*
X125730000Y-38735000D02*
X124460000Y-38735000D01*
X132080000Y-34925000D02*
X127000000Y-40005000D01*
X127000000Y-40005000D02*
X121920000Y-40005000D01*
X134620000Y-34925000D02*
X134620000Y-35560000D01*
X134620000Y-35560000D02*
X128905000Y-41275000D01*
X128905000Y-41275000D02*
X119380000Y-41275000D01*
X114300000Y-61595000D02*
X114300000Y-53340000D01*
X114300000Y-61595000D02*
X115570000Y-62865000D01*
X137160000Y-34925000D02*
X129540000Y-42545000D01*
X129540000Y-42545000D02*
X117475000Y-42545000D01*
X111760000Y-50800000D02*
X113030000Y-52070000D01*
X113030000Y-64770000D02*
X111760000Y-66040000D01*
X113030000Y-52070000D02*
X113030000Y-64770000D01*
X111760000Y-50800000D02*
X114300000Y-48260000D01*
X138430000Y-45085000D02*
X140970000Y-47625000D01*
X116205000Y-45085000D02*
X138430000Y-45085000D01*
X114300000Y-46990000D02*
X116205000Y-45085000D01*
X114300000Y-48260000D02*
X114300000Y-46990000D01*
X144780000Y-34925000D02*
X144780000Y-43815000D01*
X144780000Y-43815000D02*
X140970000Y-47625000D01*
X111760000Y-48260000D02*
X111125000Y-48260000D01*
X111125000Y-48260000D02*
X110490000Y-48895000D01*
X110490000Y-67310000D02*
X111760000Y-68580000D01*
X110490000Y-48895000D02*
X110490000Y-67310000D01*
X116205000Y-43815000D02*
X111760000Y-48260000D01*
X139700000Y-43815000D02*
X116205000Y-43815000D01*
X147320000Y-34925000D02*
X147320000Y-43925000D01*
X147320000Y-43925000D02*
X143620000Y-47625000D01*
X154305000Y-52070000D02*
X151765000Y-49530000D01*
X135255000Y-49530000D02*
X133350000Y-47625000D01*
X151765000Y-49530000D02*
X135255000Y-49530000D01*
X154305000Y-54610000D02*
X150495000Y-50800000D01*
X133985000Y-50800000D02*
X130810000Y-47625000D01*
X150495000Y-50800000D02*
X133985000Y-50800000D01*
X154305000Y-57150000D02*
X149225000Y-52070000D01*
X149225000Y-52070000D02*
X148590000Y-52070000D01*
X148590000Y-52070000D02*
X132715000Y-52070000D01*
X132715000Y-52070000D02*
X128270000Y-47625000D01*
X154305000Y-59690000D02*
X147955000Y-53340000D01*
X131445000Y-53340000D02*
X125730000Y-47625000D01*
X147955000Y-53340000D02*
X131445000Y-53340000D01*
X154305000Y-62230000D02*
X146685000Y-54610000D01*
X130175000Y-54610000D02*
X123190000Y-47625000D01*
X146685000Y-54610000D02*
X130175000Y-54610000D01*
X154305000Y-64770000D02*
X145415000Y-55880000D01*
X128905000Y-55880000D02*
X120650000Y-47625000D01*
X130175000Y-55880000D02*
X128905000Y-55880000D01*
X145415000Y-55880000D02*
X130175000Y-55880000D01*
X154305000Y-67310000D02*
X144145000Y-57150000D01*
X144145000Y-57150000D02*
X143510000Y-57150000D01*
X143510000Y-57150000D02*
X127635000Y-57150000D01*
X127635000Y-57150000D02*
X118110000Y-47625000D01*
X154305000Y-69850000D02*
X142875000Y-58420000D01*
X126365000Y-58420000D02*
X115570000Y-47625000D01*
X142875000Y-58420000D02*
X126365000Y-58420000D01*
X138430000Y-121920000D02*
X138430000Y-125730000D01*
X138430000Y-125730000D02*
X137160000Y-127000000D01*
X140970000Y-114300000D02*
X140970000Y-114935000D01*
X140970000Y-114935000D02*
X134620000Y-121285000D01*
X134620000Y-127000000D02*
X134620000Y-121285000D01*
X138430000Y-114300000D02*
X138430000Y-114935000D01*
X138430000Y-114935000D02*
X132080000Y-121285000D01*
X132080000Y-127000000D02*
X132080000Y-121285000D01*
X129540000Y-121285000D02*
X135890000Y-114935000D01*
X135890000Y-114935000D02*
X135890000Y-114300000D01*
X129540000Y-127000000D02*
X129540000Y-121285000D01*
X133985000Y-69850000D02*
X129540000Y-69850000D01*
X124460000Y-60325000D02*
X124460000Y-64770000D01*
X124460000Y-64770000D02*
X129540000Y-69850000D01*
X115570000Y-60325000D02*
X119380000Y-60325000D01*
X123190000Y-61595000D02*
X124460000Y-60325000D01*
X120650000Y-61595000D02*
X123190000Y-61595000D01*
X119380000Y-60325000D02*
X120650000Y-61595000D01*
X119380000Y-121285000D02*
X125730000Y-114935000D01*
X125730000Y-114935000D02*
X125730000Y-114300000D01*
X119380000Y-127000000D02*
X119380000Y-121285000D01*
X133350000Y-71120000D02*
X127000000Y-71120000D01*
X121920000Y-66040000D02*
X121920000Y-65405000D01*
X127000000Y-71120000D02*
X121920000Y-66040000D01*
X115570000Y-57785000D02*
X119380000Y-57785000D01*
X119380000Y-57785000D02*
X121920000Y-60325000D01*
X121920000Y-121285000D02*
X128270000Y-114935000D01*
X128270000Y-114935000D02*
X128270000Y-114300000D01*
X121920000Y-127000000D02*
X121920000Y-121285000D01*
X113030000Y-72390000D02*
X111760000Y-71120000D01*
X137160000Y-72390000D02*
X113030000Y-72390000D01*
X137795000Y-71755000D02*
X137160000Y-72390000D01*
D23*
X162560000Y-46990000D02*
X163195000Y-46990000D01*
X163195000Y-46990000D02*
X169545000Y-40640000D01*
X169545000Y-40640000D02*
X170815000Y-40640000D01*
D22*
X162560000Y-52070000D02*
X165100000Y-52070000D01*
X116840000Y-102235000D02*
X112395000Y-102235000D01*
X166370000Y-102235000D02*
X204470000Y-102235000D01*
X162560000Y-102235000D02*
X166370000Y-102235000D01*
X165100000Y-54610000D02*
X162560000Y-54610000D01*
X112395000Y-104775000D02*
X116840000Y-104775000D01*
X166370000Y-104775000D02*
X167005000Y-104775000D01*
X167005000Y-104775000D02*
X168275000Y-103505000D01*
X203200000Y-103505000D02*
X204470000Y-104775000D01*
X168275000Y-103505000D02*
X203200000Y-103505000D01*
X162560000Y-104775000D02*
X166370000Y-104775000D01*
X162560000Y-57150000D02*
X165100000Y-57150000D01*
X116840000Y-107315000D02*
X112395000Y-107315000D01*
X166370000Y-107315000D02*
X168910000Y-104775000D01*
X201930000Y-104775000D02*
X204470000Y-107315000D01*
X168910000Y-104775000D02*
X201930000Y-104775000D01*
X166370000Y-107315000D02*
X162560000Y-107315000D01*
X165100000Y-59690000D02*
X162560000Y-59690000D01*
X112395000Y-109855000D02*
X116840000Y-109855000D01*
X174625000Y-111125000D02*
X175895000Y-109855000D01*
X175895000Y-109855000D02*
X204470000Y-109855000D01*
X166370000Y-109855000D02*
X167640000Y-111125000D01*
X167640000Y-111125000D02*
X174625000Y-111125000D01*
X162560000Y-109855000D02*
X166370000Y-109855000D01*
X162560000Y-62230000D02*
X165100000Y-62230000D01*
X116840000Y-112395000D02*
X112395000Y-112395000D01*
X166370000Y-112395000D02*
X167640000Y-113665000D01*
X176530000Y-112395000D02*
X204470000Y-112395000D01*
X175260000Y-113665000D02*
X176530000Y-112395000D01*
X167640000Y-113665000D02*
X175260000Y-113665000D01*
X162560000Y-112395000D02*
X166370000Y-112395000D01*
X165100000Y-64770000D02*
X162560000Y-64770000D01*
X112395000Y-114935000D02*
X116840000Y-114935000D01*
X177165000Y-118110000D02*
X191135000Y-118110000D01*
X166370000Y-114935000D02*
X167640000Y-116205000D01*
X194310000Y-114935000D02*
X204470000Y-114935000D01*
X191135000Y-118110000D02*
X194310000Y-114935000D01*
X175260000Y-116205000D02*
X177165000Y-118110000D01*
X167640000Y-116205000D02*
X175260000Y-116205000D01*
X162560000Y-114935000D02*
X166370000Y-114935000D01*
X162560000Y-67310000D02*
X165100000Y-67310000D01*
X116840000Y-117475000D02*
X112395000Y-117475000D01*
X175260000Y-118745000D02*
X193040000Y-118745000D01*
X166370000Y-117475000D02*
X167640000Y-118745000D01*
X194310000Y-117475000D02*
X204470000Y-117475000D01*
X193040000Y-118745000D02*
X194310000Y-117475000D01*
X167640000Y-118745000D02*
X175260000Y-118745000D01*
X162560000Y-117475000D02*
X166370000Y-117475000D01*
X165100000Y-69850000D02*
X162560000Y-69850000D01*
X112395000Y-120015000D02*
X116840000Y-120015000D01*
X166370000Y-120015000D02*
X167640000Y-121285000D01*
X203200000Y-121285000D02*
X204470000Y-120015000D01*
X167640000Y-121285000D02*
X203200000Y-121285000D01*
X166370000Y-120015000D02*
X162560000Y-120015000D01*
D23*
X188595000Y-48260000D02*
X189230000Y-48260000D01*
X189230000Y-48260000D02*
X193040000Y-44450000D01*
X193040000Y-44450000D02*
X204470000Y-44450000D01*
X205740000Y-71120000D02*
X206375000Y-70485000D01*
X205105000Y-71755000D02*
X205740000Y-71120000D01*
X200660000Y-74295000D02*
X202565000Y-72390000D01*
X204470000Y-72390000D02*
X205105000Y-71755000D01*
X202565000Y-72390000D02*
X204470000Y-72390000D01*
X194945000Y-75565000D02*
X194945000Y-76835000D01*
X196215000Y-74295000D02*
X194945000Y-75565000D01*
X200660000Y-74295000D02*
X196215000Y-74295000D01*
X204470000Y-44450000D02*
X206375000Y-46355000D01*
X206375000Y-46355000D02*
X206375000Y-70485000D01*
X204470000Y-44450000D02*
X194945000Y-34925000D01*
X125730000Y-89535000D02*
X125730000Y-88900000D01*
X125730000Y-88900000D02*
X121920000Y-85090000D01*
X112395000Y-94615000D02*
X120650000Y-94615000D01*
X120650000Y-94615000D02*
X125730000Y-89535000D01*
X125730000Y-89535000D02*
X128270000Y-89535000D01*
X143510000Y-121920000D02*
X143510000Y-125730000D01*
X143510000Y-125730000D02*
X144780000Y-127000000D01*
X140970000Y-121920000D02*
X143510000Y-121920000D01*
D22*
X186055000Y-48260000D02*
X186055000Y-49530000D01*
X186690000Y-76200000D02*
X187325000Y-76835000D01*
X186690000Y-50165000D02*
X186690000Y-63500000D01*
X186690000Y-63500000D02*
X186690000Y-76200000D01*
X186055000Y-49530000D02*
X186690000Y-50165000D01*
X186055000Y-48260000D02*
X186055000Y-47625000D01*
X186055000Y-47625000D02*
X190500000Y-43180000D01*
X190500000Y-43180000D02*
X190500000Y-39370000D01*
X190500000Y-39370000D02*
X187325000Y-36195000D01*
X187325000Y-36195000D02*
X187325000Y-34925000D01*
X184785000Y-76835000D02*
X184785000Y-66040000D01*
X184785000Y-66040000D02*
X184785000Y-46355000D01*
X188595000Y-42545000D02*
X188595000Y-40640000D01*
X184785000Y-46355000D02*
X188595000Y-42545000D01*
X184785000Y-34925000D02*
X184785000Y-36830000D01*
X184785000Y-36830000D02*
X188595000Y-40640000D01*
X182245000Y-76835000D02*
X182245000Y-72390000D01*
X182245000Y-72390000D02*
X182245000Y-46355000D01*
X186055000Y-42545000D02*
X186055000Y-40640000D01*
X182245000Y-46355000D02*
X186055000Y-42545000D01*
X182245000Y-34925000D02*
X182245000Y-36830000D01*
X182245000Y-36830000D02*
X186055000Y-40640000D01*
X188595000Y-64770000D02*
X193040000Y-60325000D01*
X193675000Y-59690000D02*
X193675000Y-52705000D01*
X193040000Y-60325000D02*
X193675000Y-59690000D01*
X179705000Y-34925000D02*
X179705000Y-36830000D01*
X179705000Y-36830000D02*
X183515000Y-40640000D01*
X177165000Y-34925000D02*
X177165000Y-36830000D01*
X177165000Y-36830000D02*
X180975000Y-40640000D01*
X179705000Y-41910000D02*
X180975000Y-40640000D01*
X179705000Y-76200000D02*
X179705000Y-41910000D01*
X174625000Y-34925000D02*
X174625000Y-36830000D01*
X174625000Y-36830000D02*
X178435000Y-40640000D01*
X177165000Y-41910000D02*
X178435000Y-40640000D01*
X177165000Y-76200000D02*
X177165000Y-41910000D01*
X172085000Y-34925000D02*
X172085000Y-36830000D01*
X172085000Y-36830000D02*
X175895000Y-40640000D01*
X174625000Y-41910000D02*
X175895000Y-40640000D01*
X174625000Y-76200000D02*
X174625000Y-41910000D01*
X169545000Y-34925000D02*
X169545000Y-36830000D01*
X169545000Y-36830000D02*
X173355000Y-40640000D01*
X172085000Y-41910000D02*
X173355000Y-40640000D01*
X172085000Y-76200000D02*
X172085000Y-41910000D01*
X204470000Y-52070000D02*
X199390000Y-52070000D01*
X191135000Y-57150000D02*
X188595000Y-59690000D01*
X191135000Y-53340000D02*
X191135000Y-57150000D01*
X194310000Y-50165000D02*
X191135000Y-53340000D01*
X197485000Y-50165000D02*
X194310000Y-50165000D01*
X199390000Y-52070000D02*
X197485000Y-50165000D01*
X204470000Y-59690000D02*
X198120000Y-53340000D01*
X196215000Y-54610000D02*
X198120000Y-54610000D01*
X201930000Y-62230000D02*
X204470000Y-64770000D01*
X201930000Y-58420000D02*
X201930000Y-62230000D01*
X198120000Y-54610000D02*
X201930000Y-58420000D01*
X204470000Y-67310000D02*
X204470000Y-66675000D01*
X204470000Y-66675000D02*
X200660000Y-62865000D01*
X200660000Y-62865000D02*
X200660000Y-60325000D01*
X200660000Y-60325000D02*
X197485000Y-57150000D01*
X197485000Y-57150000D02*
X196215000Y-57150000D01*
X196215000Y-59690000D02*
X197485000Y-59690000D01*
X199390000Y-64770000D02*
X204470000Y-69850000D01*
X199390000Y-61595000D02*
X199390000Y-64770000D01*
X197485000Y-59690000D02*
X199390000Y-61595000D01*
X127000000Y-104775000D02*
X154305000Y-104775000D01*
X138430000Y-89535000D02*
X138430000Y-92075000D01*
X128270000Y-104775000D02*
X127000000Y-104775000D01*
X134620000Y-98425000D02*
X128270000Y-104775000D01*
X134620000Y-95885000D02*
X134620000Y-98425000D01*
X138430000Y-92075000D02*
X134620000Y-95885000D01*
X140970000Y-89535000D02*
X140970000Y-92075000D01*
X137160000Y-95885000D02*
X137160000Y-100965000D01*
X140970000Y-92075000D02*
X137160000Y-95885000D01*
X154305000Y-107315000D02*
X139700000Y-107315000D01*
X139700000Y-107315000D02*
X127635000Y-107315000D01*
X151130000Y-99060000D02*
X154305000Y-102235000D01*
X151130000Y-93345000D02*
X151130000Y-99060000D01*
X149860000Y-92075000D02*
X151130000Y-93345000D01*
X125730000Y-107315000D02*
X125730000Y-102870000D01*
X127000000Y-108585000D02*
X125730000Y-107315000D01*
X127000000Y-114935000D02*
X127000000Y-108585000D01*
X125730000Y-116205000D02*
X127000000Y-114935000D01*
X129540000Y-95885000D02*
X129540000Y-95250000D01*
X129540000Y-95250000D02*
X133350000Y-91440000D01*
X125730000Y-102870000D02*
X129540000Y-99060000D01*
X133350000Y-89535000D02*
X133350000Y-91440000D01*
X129540000Y-95885000D02*
X129540000Y-99060000D01*
X129540000Y-85090000D02*
X129540000Y-88265000D01*
X129540000Y-88265000D02*
X130810000Y-89535000D01*
X128270000Y-97155000D02*
X128270000Y-94615000D01*
X128270000Y-94615000D02*
X132080000Y-90805000D01*
X132080000Y-85090000D02*
X132080000Y-90805000D01*
X130810000Y-97155000D02*
X130810000Y-95885000D01*
X130810000Y-95885000D02*
X134620000Y-92075000D01*
X134620000Y-85090000D02*
X134620000Y-92075000D01*
X133350000Y-97155000D02*
X133350000Y-95885000D01*
X133350000Y-95885000D02*
X137160000Y-92075000D01*
X137160000Y-85090000D02*
X137160000Y-92075000D01*
X139065000Y-92710000D02*
X139700000Y-92075000D01*
X135890000Y-97155000D02*
X135890000Y-95885000D01*
X135890000Y-95885000D02*
X139065000Y-92710000D01*
X139700000Y-85090000D02*
X139700000Y-92075000D01*
X142240000Y-85090000D02*
X142240000Y-93345000D01*
X142240000Y-93345000D02*
X138430000Y-97155000D01*
X144780000Y-85090000D02*
X144780000Y-93345000D01*
X144780000Y-93345000D02*
X140970000Y-97155000D01*
X147320000Y-85090000D02*
X147320000Y-93345000D01*
X147320000Y-93345000D02*
X143510000Y-97155000D01*
X135890000Y-89535000D02*
X135890000Y-92075000D01*
X132080000Y-95885000D02*
X132080000Y-99060000D01*
X135890000Y-92075000D02*
X132080000Y-95885000D01*
X128270000Y-109855000D02*
X133350000Y-109855000D01*
X133350000Y-109855000D02*
X137795000Y-109855000D01*
X137795000Y-109855000D02*
X154305000Y-109855000D01*
X179070000Y-100965000D02*
X181530000Y-100965000D01*
X181530000Y-100965000D02*
X181650000Y-100845000D01*
X186650000Y-100845000D02*
X189110000Y-100845000D01*
X189110000Y-100845000D02*
X189230000Y-100965000D01*
X168910000Y-112395000D02*
X174625000Y-112395000D01*
X175895000Y-111125000D02*
X198755000Y-111125000D01*
X174625000Y-112395000D02*
X175895000Y-111125000D01*
X187960000Y-83820000D02*
X187960000Y-85035000D01*
X187960000Y-85035000D02*
X186650000Y-86345000D01*
X179070000Y-123190000D02*
X181530000Y-123190000D01*
X181530000Y-123190000D02*
X181650000Y-123070000D01*
X186650000Y-123070000D02*
X189110000Y-123070000D01*
X189110000Y-123070000D02*
X189230000Y-123190000D01*
X168910000Y-120015000D02*
X185420000Y-120015000D01*
X186650000Y-108570000D02*
X186650000Y-107355000D01*
X186650000Y-107355000D02*
X187960000Y-106045000D01*
M02*
