M48
;DRILL file {KiCad 4.0.7+dfsg1-1~bpo9+1} date Wed May  2 15:41:14 2018
;FORMAT={-:-/ absolute / metric / decimal}
FMAT,2
METRIC,TZ
T1C0.400
T2C0.700
T3C0.800
T4C1.000
T5C1.016
T6C1.100
T7C2.500
T8C3.200
%
G90
G05
M71
T1
X114.3Y-53.34
X115.57Y-73.66
X117.475Y-42.545
X119.38Y-41.275
X121.92Y-40.005
X121.92Y-65.405
X124.46Y-38.735
X125.73Y-116.205
X127.Y-104.775
X127.635Y-107.315
X128.27Y-109.855
X132.08Y-67.31
X132.08Y-99.06
X133.35Y-71.12
X133.35Y-109.855
X133.985Y-69.85
X134.62Y-40.64
X137.16Y-40.64
X137.16Y-100.965
X137.795Y-71.755
X137.795Y-109.855
X139.7Y-43.815
X139.7Y-107.315
X149.86Y-92.075
X182.245Y-72.39
X184.785Y-66.04
X185.42Y-120.015
X186.69Y-63.5
X193.675Y-52.705
X198.12Y-53.34
X198.755Y-111.125
T2
X171.45Y-100.965
X171.45Y-123.19
X179.07Y-100.965
X179.07Y-123.19
X180.34Y-83.82
X180.34Y-106.045
X187.96Y-83.82
X187.96Y-106.045
X189.23Y-100.965
X189.23Y-123.19
X196.85Y-100.965
X196.85Y-123.19
T3
X123.19Y-114.3
X123.19Y-121.92
X123.23Y-89.535
X125.73Y-89.535
X125.73Y-114.3
X125.73Y-121.92
X128.27Y-89.535
X128.27Y-97.155
X128.27Y-114.3
X128.27Y-121.92
X130.81Y-89.535
X130.81Y-97.155
X130.81Y-114.3
X130.81Y-121.92
X133.35Y-89.535
X133.35Y-97.155
X133.35Y-114.3
X133.35Y-121.92
X135.89Y-89.535
X135.89Y-97.155
X135.89Y-114.3
X135.89Y-121.92
X138.43Y-89.535
X138.43Y-97.155
X138.43Y-114.3
X138.43Y-121.92
X140.97Y-89.535
X140.97Y-97.155
X140.97Y-114.3
X140.97Y-121.92
X143.51Y-89.535
X143.51Y-97.155
X143.51Y-121.92
X146.01Y-121.92
X146.05Y-89.535
X146.05Y-97.155
X170.815Y-40.64
X170.815Y-48.26
X173.355Y-40.64
X173.355Y-48.26
X175.895Y-40.64
X175.895Y-48.26
X178.435Y-40.64
X178.435Y-48.26
X180.975Y-40.64
X180.975Y-48.26
X183.515Y-40.64
X183.515Y-48.26
X186.055Y-40.64
X186.055Y-48.26
X188.595Y-40.64
X188.595Y-48.26
X188.595Y-52.07
X188.595Y-54.61
X188.595Y-57.15
X188.595Y-59.69
X188.595Y-62.23
X188.595Y-64.77
X188.595Y-67.31
X188.595Y-69.85
X196.215Y-52.07
X196.215Y-54.61
X196.215Y-57.15
X196.215Y-59.69
X196.215Y-62.23
X196.215Y-64.77
X196.215Y-67.31
X196.215Y-69.85
T4
X111.76Y-40.64
X111.76Y-43.18
X111.76Y-45.72
X111.76Y-48.26
X111.76Y-50.8
X111.76Y-53.34
X111.76Y-58.42
X111.76Y-60.96
X111.76Y-63.5
X111.76Y-66.04
X111.76Y-68.58
X111.76Y-71.12
X112.395Y-92.075
X112.395Y-94.615
X112.395Y-97.155
X112.395Y-99.695
X112.395Y-102.235
X112.395Y-104.775
X112.395Y-107.315
X112.395Y-109.855
X112.395Y-112.395
X112.395Y-114.935
X112.395Y-117.475
X112.395Y-120.015
X116.84Y-102.235
X116.84Y-104.775
X116.84Y-107.315
X116.84Y-109.855
X116.84Y-112.395
X116.84Y-114.935
X116.84Y-117.475
X116.84Y-120.015
X119.38Y-34.925
X119.38Y-76.835
X119.38Y-85.09
X119.38Y-102.235
X119.38Y-104.775
X119.38Y-107.315
X119.38Y-109.855
X119.38Y-127.
X121.92Y-34.925
X121.92Y-76.835
X121.92Y-85.09
X121.92Y-127.
X124.46Y-34.925
X124.46Y-76.835
X124.46Y-85.09
X124.46Y-127.
X127.Y-34.925
X127.Y-76.835
X127.Y-85.09
X127.Y-127.
X129.54Y-34.925
X129.54Y-76.835
X129.54Y-85.09
X129.54Y-127.
X132.08Y-34.925
X132.08Y-76.835
X132.08Y-85.09
X132.08Y-127.
X134.62Y-34.925
X134.62Y-76.835
X134.62Y-85.09
X134.62Y-127.
X137.16Y-34.925
X137.16Y-76.835
X137.16Y-85.09
X137.16Y-127.
X139.7Y-34.925
X139.7Y-76.835
X139.7Y-85.09
X139.7Y-127.
X142.24Y-34.925
X142.24Y-76.835
X142.24Y-85.09
X142.24Y-127.
X144.78Y-34.925
X144.78Y-76.835
X144.78Y-85.09
X144.78Y-127.
X147.32Y-34.925
X147.32Y-76.835
X147.32Y-85.09
X147.32Y-127.
X154.305Y-41.91
X154.305Y-44.45
X154.305Y-46.99
X154.305Y-49.53
X154.305Y-52.07
X154.305Y-54.61
X154.305Y-57.15
X154.305Y-59.69
X154.305Y-62.23
X154.305Y-64.77
X154.305Y-67.31
X154.305Y-69.85
X154.305Y-92.075
X154.305Y-94.615
X154.305Y-97.155
X154.305Y-99.695
X154.305Y-102.235
X154.305Y-104.775
X154.305Y-107.315
X154.305Y-109.855
X154.305Y-112.395
X154.305Y-114.935
X154.305Y-117.475
X154.305Y-120.015
X162.56Y-41.91
X162.56Y-44.45
X162.56Y-46.99
X162.56Y-49.53
X162.56Y-52.07
X162.56Y-54.61
X162.56Y-57.15
X162.56Y-59.69
X162.56Y-62.23
X162.56Y-64.77
X162.56Y-67.31
X162.56Y-69.85
X162.56Y-92.075
X162.56Y-94.615
X162.56Y-97.155
X162.56Y-99.695
X162.56Y-102.235
X162.56Y-104.775
X162.56Y-107.315
X162.56Y-109.855
X162.56Y-112.395
X162.56Y-114.935
X162.56Y-117.475
X162.56Y-120.015
X165.1Y-52.07
X165.1Y-54.61
X165.1Y-57.15
X165.1Y-59.69
X165.1Y-62.23
X165.1Y-64.77
X165.1Y-67.31
X165.1Y-69.85
X166.37Y-102.235
X166.37Y-104.775
X166.37Y-107.315
X166.37Y-109.855
X166.37Y-112.395
X166.37Y-114.935
X166.37Y-117.475
X166.37Y-120.015
X168.91Y-107.315
X168.91Y-109.855
X168.91Y-112.395
X168.91Y-114.935
X168.91Y-117.475
X168.91Y-120.015
X169.545Y-34.925
X169.545Y-76.835
X170.18Y-56.515
X170.18Y-59.055
X170.18Y-61.595
X170.18Y-64.135
X172.085Y-34.925
X172.085Y-76.835
X174.625Y-34.925
X174.625Y-76.835
X177.165Y-34.925
X177.165Y-76.835
X179.705Y-34.925
X179.705Y-76.835
X182.245Y-34.925
X182.245Y-76.835
X184.785Y-34.925
X184.785Y-76.835
X187.325Y-34.925
X187.325Y-76.835
X189.865Y-34.925
X189.865Y-76.835
X192.405Y-34.925
X192.405Y-76.835
X194.945Y-34.925
X194.945Y-76.835
X197.485Y-34.925
X197.485Y-76.835
X204.47Y-41.91
X204.47Y-44.45
X204.47Y-46.99
X204.47Y-49.53
X204.47Y-52.07
X204.47Y-54.61
X204.47Y-57.15
X204.47Y-59.69
X204.47Y-62.23
X204.47Y-64.77
X204.47Y-67.31
X204.47Y-69.85
X204.47Y-92.075
X204.47Y-94.615
X204.47Y-97.155
X204.47Y-99.695
X204.47Y-102.235
X204.47Y-104.775
X204.47Y-107.315
X204.47Y-109.855
X204.47Y-112.395
X204.47Y-114.935
X204.47Y-117.475
X204.47Y-120.015
T5
X115.57Y-47.625
X115.57Y-55.245
X115.57Y-57.785
X115.57Y-60.325
X115.57Y-62.865
X118.11Y-47.625
X118.11Y-62.865
X120.65Y-47.625
X120.65Y-62.865
X121.92Y-60.325
X123.19Y-47.625
X123.19Y-62.865
X124.46Y-60.325
X125.73Y-47.625
X125.73Y-62.865
X128.27Y-47.625
X128.27Y-62.865
X130.81Y-47.625
X130.81Y-62.865
X132.08Y-60.325
X133.35Y-47.625
X133.35Y-62.865
X134.62Y-60.325
X135.89Y-47.625
X135.89Y-62.865
X138.43Y-47.625
X138.43Y-62.865
X140.97Y-47.625
X140.97Y-62.865
X143.51Y-62.865
X143.62Y-47.625
T6
X181.65Y-86.345
X181.65Y-100.845
X181.65Y-108.57
X181.65Y-123.07
X184.15Y-100.845
X184.15Y-123.07
X186.65Y-86.345
X186.65Y-100.845
X186.65Y-108.57
X186.65Y-123.07
T7
X177.95Y-93.345
X177.95Y-115.57
X190.35Y-93.345
X190.35Y-115.57
T8
X112.395Y-34.925
X112.395Y-76.835
X112.395Y-85.09
X112.395Y-127.
X154.305Y-34.925
X154.305Y-76.835
X154.305Y-85.09
X154.305Y-127.
X162.56Y-34.925
X162.56Y-76.835
X162.56Y-85.09
X162.56Y-127.
X204.47Y-34.925
X204.47Y-76.835
X204.47Y-85.09
X204.47Y-127.
T0
M30
