G04 #@! TF.FileFunction,Legend,Bot*
%FSLAX46Y46*%
G04 Gerber Fmt 4.6, Leading zero omitted, Abs format (unit mm)*
G04 Created by KiCad (PCBNEW 4.0.7+dfsg1-1~bpo9+1) date Wed May  2 15:41:06 2018*
%MOMM*%
%LPD*%
G01*
G04 APERTURE LIST*
%ADD10C,0.100000*%
%ADD11C,0.200000*%
%ADD12C,0.300000*%
%ADD13C,0.120000*%
%ADD14C,0.150000*%
G04 APERTURE END LIST*
D10*
D11*
X116839762Y-61317143D02*
X116887381Y-61364762D01*
X117030238Y-61412381D01*
X117125476Y-61412381D01*
X117268334Y-61364762D01*
X117363572Y-61269524D01*
X117411191Y-61174286D01*
X117458810Y-60983810D01*
X117458810Y-60840952D01*
X117411191Y-60650476D01*
X117363572Y-60555238D01*
X117268334Y-60460000D01*
X117125476Y-60412381D01*
X117030238Y-60412381D01*
X116887381Y-60460000D01*
X116839762Y-60507619D01*
X116554048Y-60412381D02*
X115982619Y-60412381D01*
X116268334Y-61412381D02*
X116268334Y-60412381D01*
X115696905Y-61364762D02*
X115554048Y-61412381D01*
X115315952Y-61412381D01*
X115220714Y-61364762D01*
X115173095Y-61317143D01*
X115125476Y-61221905D01*
X115125476Y-61126667D01*
X115173095Y-61031429D01*
X115220714Y-60983810D01*
X115315952Y-60936190D01*
X115506429Y-60888571D01*
X115601667Y-60840952D01*
X115649286Y-60793333D01*
X115696905Y-60698095D01*
X115696905Y-60602857D01*
X115649286Y-60507619D01*
X115601667Y-60460000D01*
X115506429Y-60412381D01*
X115268333Y-60412381D01*
X115125476Y-60460000D01*
X117061905Y-63587381D02*
X116728572Y-64587381D01*
X116395238Y-63587381D01*
X115490476Y-64492143D02*
X115538095Y-64539762D01*
X115680952Y-64587381D01*
X115776190Y-64587381D01*
X115919048Y-64539762D01*
X116014286Y-64444524D01*
X116061905Y-64349286D01*
X116109524Y-64158810D01*
X116109524Y-64015952D01*
X116061905Y-63825476D01*
X116014286Y-63730238D01*
X115919048Y-63635000D01*
X115776190Y-63587381D01*
X115680952Y-63587381D01*
X115538095Y-63635000D01*
X115490476Y-63682619D01*
X114490476Y-64492143D02*
X114538095Y-64539762D01*
X114680952Y-64587381D01*
X114776190Y-64587381D01*
X114919048Y-64539762D01*
X115014286Y-64444524D01*
X115061905Y-64349286D01*
X115109524Y-64158810D01*
X115109524Y-64015952D01*
X115061905Y-63825476D01*
X115014286Y-63730238D01*
X114919048Y-63635000D01*
X114776190Y-63587381D01*
X114680952Y-63587381D01*
X114538095Y-63635000D01*
X114490476Y-63682619D01*
X117585715Y-70937381D02*
X117919049Y-70461190D01*
X118157144Y-70937381D02*
X118157144Y-69937381D01*
X117776191Y-69937381D01*
X117680953Y-69985000D01*
X117633334Y-70032619D01*
X117585715Y-70127857D01*
X117585715Y-70270714D01*
X117633334Y-70365952D01*
X117680953Y-70413571D01*
X117776191Y-70461190D01*
X118157144Y-70461190D01*
X116776191Y-70889762D02*
X116871429Y-70937381D01*
X117061906Y-70937381D01*
X117157144Y-70889762D01*
X117204763Y-70794524D01*
X117204763Y-70413571D01*
X117157144Y-70318333D01*
X117061906Y-70270714D01*
X116871429Y-70270714D01*
X116776191Y-70318333D01*
X116728572Y-70413571D01*
X116728572Y-70508810D01*
X117204763Y-70604048D01*
X116347620Y-70889762D02*
X116252382Y-70937381D01*
X116061906Y-70937381D01*
X115966667Y-70889762D01*
X115919048Y-70794524D01*
X115919048Y-70746905D01*
X115966667Y-70651667D01*
X116061906Y-70604048D01*
X116204763Y-70604048D01*
X116300001Y-70556429D01*
X116347620Y-70461190D01*
X116347620Y-70413571D01*
X116300001Y-70318333D01*
X116204763Y-70270714D01*
X116061906Y-70270714D01*
X115966667Y-70318333D01*
X115109524Y-70889762D02*
X115204762Y-70937381D01*
X115395239Y-70937381D01*
X115490477Y-70889762D01*
X115538096Y-70794524D01*
X115538096Y-70413571D01*
X115490477Y-70318333D01*
X115395239Y-70270714D01*
X115204762Y-70270714D01*
X115109524Y-70318333D01*
X115061905Y-70413571D01*
X115061905Y-70508810D01*
X115538096Y-70604048D01*
X114776191Y-70270714D02*
X114395239Y-70270714D01*
X114633334Y-69937381D02*
X114633334Y-70794524D01*
X114585715Y-70889762D01*
X114490477Y-70937381D01*
X114395239Y-70937381D01*
X116442857Y-69032381D02*
X116776191Y-68556190D01*
X117014286Y-69032381D02*
X117014286Y-68032381D01*
X116633333Y-68032381D01*
X116538095Y-68080000D01*
X116490476Y-68127619D01*
X116442857Y-68222857D01*
X116442857Y-68365714D01*
X116490476Y-68460952D01*
X116538095Y-68508571D01*
X116633333Y-68556190D01*
X117014286Y-68556190D01*
X116014286Y-69032381D02*
X116014286Y-68032381D01*
X115776191Y-68032381D01*
X115633333Y-68080000D01*
X115538095Y-68175238D01*
X115490476Y-68270476D01*
X115442857Y-68460952D01*
X115442857Y-68603810D01*
X115490476Y-68794286D01*
X115538095Y-68889524D01*
X115633333Y-68984762D01*
X115776191Y-69032381D01*
X116014286Y-69032381D01*
X115109524Y-68032381D02*
X114442857Y-69032381D01*
X114442857Y-68032381D02*
X115109524Y-69032381D01*
X116919048Y-65492381D02*
X116347619Y-65492381D01*
X116633334Y-66492381D02*
X116633334Y-65492381D01*
X116014286Y-66492381D02*
X116014286Y-65492381D01*
X115776191Y-65492381D01*
X115633333Y-65540000D01*
X115538095Y-65635238D01*
X115490476Y-65730476D01*
X115442857Y-65920952D01*
X115442857Y-66063810D01*
X115490476Y-66254286D01*
X115538095Y-66349524D01*
X115633333Y-66444762D01*
X115776191Y-66492381D01*
X116014286Y-66492381D01*
X115109524Y-65492381D02*
X114442857Y-66492381D01*
X114442857Y-65492381D02*
X115109524Y-66492381D01*
X116442857Y-49347381D02*
X116776191Y-48871190D01*
X117014286Y-49347381D02*
X117014286Y-48347381D01*
X116633333Y-48347381D01*
X116538095Y-48395000D01*
X116490476Y-48442619D01*
X116442857Y-48537857D01*
X116442857Y-48680714D01*
X116490476Y-48775952D01*
X116538095Y-48823571D01*
X116633333Y-48871190D01*
X117014286Y-48871190D01*
X116014286Y-49347381D02*
X116014286Y-48347381D01*
X115776191Y-48347381D01*
X115633333Y-48395000D01*
X115538095Y-48490238D01*
X115490476Y-48585476D01*
X115442857Y-48775952D01*
X115442857Y-48918810D01*
X115490476Y-49109286D01*
X115538095Y-49204524D01*
X115633333Y-49299762D01*
X115776191Y-49347381D01*
X116014286Y-49347381D01*
X115109524Y-48347381D02*
X114442857Y-49347381D01*
X114442857Y-48347381D02*
X115109524Y-49347381D01*
X116585714Y-57920000D02*
X116680952Y-57872381D01*
X116823809Y-57872381D01*
X116966667Y-57920000D01*
X117061905Y-58015238D01*
X117109524Y-58110476D01*
X117157143Y-58300952D01*
X117157143Y-58443810D01*
X117109524Y-58634286D01*
X117061905Y-58729524D01*
X116966667Y-58824762D01*
X116823809Y-58872381D01*
X116728571Y-58872381D01*
X116585714Y-58824762D01*
X116538095Y-58777143D01*
X116538095Y-58443810D01*
X116728571Y-58443810D01*
X116109524Y-58872381D02*
X116109524Y-57872381D01*
X115538095Y-58872381D01*
X115538095Y-57872381D01*
X115061905Y-58872381D02*
X115061905Y-57872381D01*
X114823810Y-57872381D01*
X114680952Y-57920000D01*
X114585714Y-58015238D01*
X114538095Y-58110476D01*
X114490476Y-58300952D01*
X114490476Y-58443810D01*
X114538095Y-58634286D01*
X114585714Y-58729524D01*
X114680952Y-58824762D01*
X114823810Y-58872381D01*
X115061905Y-58872381D01*
X117585715Y-53792381D02*
X117919049Y-53316190D01*
X118157144Y-53792381D02*
X118157144Y-52792381D01*
X117776191Y-52792381D01*
X117680953Y-52840000D01*
X117633334Y-52887619D01*
X117585715Y-52982857D01*
X117585715Y-53125714D01*
X117633334Y-53220952D01*
X117680953Y-53268571D01*
X117776191Y-53316190D01*
X118157144Y-53316190D01*
X116776191Y-53744762D02*
X116871429Y-53792381D01*
X117061906Y-53792381D01*
X117157144Y-53744762D01*
X117204763Y-53649524D01*
X117204763Y-53268571D01*
X117157144Y-53173333D01*
X117061906Y-53125714D01*
X116871429Y-53125714D01*
X116776191Y-53173333D01*
X116728572Y-53268571D01*
X116728572Y-53363810D01*
X117204763Y-53459048D01*
X116347620Y-53744762D02*
X116252382Y-53792381D01*
X116061906Y-53792381D01*
X115966667Y-53744762D01*
X115919048Y-53649524D01*
X115919048Y-53601905D01*
X115966667Y-53506667D01*
X116061906Y-53459048D01*
X116204763Y-53459048D01*
X116300001Y-53411429D01*
X116347620Y-53316190D01*
X116347620Y-53268571D01*
X116300001Y-53173333D01*
X116204763Y-53125714D01*
X116061906Y-53125714D01*
X115966667Y-53173333D01*
X115109524Y-53744762D02*
X115204762Y-53792381D01*
X115395239Y-53792381D01*
X115490477Y-53744762D01*
X115538096Y-53649524D01*
X115538096Y-53268571D01*
X115490477Y-53173333D01*
X115395239Y-53125714D01*
X115204762Y-53125714D01*
X115109524Y-53173333D01*
X115061905Y-53268571D01*
X115061905Y-53363810D01*
X115538096Y-53459048D01*
X114776191Y-53125714D02*
X114395239Y-53125714D01*
X114633334Y-52792381D02*
X114633334Y-53649524D01*
X114585715Y-53744762D01*
X114490477Y-53792381D01*
X114395239Y-53792381D01*
X116919048Y-50252381D02*
X116347619Y-50252381D01*
X116633334Y-51252381D02*
X116633334Y-50252381D01*
X116014286Y-51252381D02*
X116014286Y-50252381D01*
X115776191Y-50252381D01*
X115633333Y-50300000D01*
X115538095Y-50395238D01*
X115490476Y-50490476D01*
X115442857Y-50680952D01*
X115442857Y-50823810D01*
X115490476Y-51014286D01*
X115538095Y-51109524D01*
X115633333Y-51204762D01*
X115776191Y-51252381D01*
X116014286Y-51252381D01*
X115109524Y-50252381D02*
X114442857Y-51252381D01*
X114442857Y-50252381D02*
X115109524Y-51252381D01*
X116426905Y-45172381D02*
X116093572Y-46172381D01*
X115760238Y-45172381D01*
X114855476Y-46077143D02*
X114903095Y-46124762D01*
X115045952Y-46172381D01*
X115141190Y-46172381D01*
X115284048Y-46124762D01*
X115379286Y-46029524D01*
X115426905Y-45934286D01*
X115474524Y-45743810D01*
X115474524Y-45600952D01*
X115426905Y-45410476D01*
X115379286Y-45315238D01*
X115284048Y-45220000D01*
X115141190Y-45172381D01*
X115045952Y-45172381D01*
X114903095Y-45220000D01*
X114855476Y-45267619D01*
X113855476Y-46077143D02*
X113903095Y-46124762D01*
X114045952Y-46172381D01*
X114141190Y-46172381D01*
X114284048Y-46124762D01*
X114379286Y-46029524D01*
X114426905Y-45934286D01*
X114474524Y-45743810D01*
X114474524Y-45600952D01*
X114426905Y-45410476D01*
X114379286Y-45315238D01*
X114284048Y-45220000D01*
X114141190Y-45172381D01*
X114045952Y-45172381D01*
X113903095Y-45220000D01*
X113855476Y-45267619D01*
X115569762Y-43537143D02*
X115617381Y-43584762D01*
X115760238Y-43632381D01*
X115855476Y-43632381D01*
X115998334Y-43584762D01*
X116093572Y-43489524D01*
X116141191Y-43394286D01*
X116188810Y-43203810D01*
X116188810Y-43060952D01*
X116141191Y-42870476D01*
X116093572Y-42775238D01*
X115998334Y-42680000D01*
X115855476Y-42632381D01*
X115760238Y-42632381D01*
X115617381Y-42680000D01*
X115569762Y-42727619D01*
X115284048Y-42632381D02*
X114712619Y-42632381D01*
X114998334Y-43632381D02*
X114998334Y-42632381D01*
X114426905Y-43584762D02*
X114284048Y-43632381D01*
X114045952Y-43632381D01*
X113950714Y-43584762D01*
X113903095Y-43537143D01*
X113855476Y-43441905D01*
X113855476Y-43346667D01*
X113903095Y-43251429D01*
X113950714Y-43203810D01*
X114045952Y-43156190D01*
X114236429Y-43108571D01*
X114331667Y-43060952D01*
X114379286Y-43013333D01*
X114426905Y-42918095D01*
X114426905Y-42822857D01*
X114379286Y-42727619D01*
X114331667Y-42680000D01*
X114236429Y-42632381D01*
X113998333Y-42632381D01*
X113855476Y-42680000D01*
X115950714Y-40140000D02*
X116045952Y-40092381D01*
X116188809Y-40092381D01*
X116331667Y-40140000D01*
X116426905Y-40235238D01*
X116474524Y-40330476D01*
X116522143Y-40520952D01*
X116522143Y-40663810D01*
X116474524Y-40854286D01*
X116426905Y-40949524D01*
X116331667Y-41044762D01*
X116188809Y-41092381D01*
X116093571Y-41092381D01*
X115950714Y-41044762D01*
X115903095Y-40997143D01*
X115903095Y-40663810D01*
X116093571Y-40663810D01*
X115474524Y-41092381D02*
X115474524Y-40092381D01*
X114903095Y-41092381D01*
X114903095Y-40092381D01*
X114426905Y-41092381D02*
X114426905Y-40092381D01*
X114188810Y-40092381D01*
X114045952Y-40140000D01*
X113950714Y-40235238D01*
X113903095Y-40330476D01*
X113855476Y-40520952D01*
X113855476Y-40663810D01*
X113903095Y-40854286D01*
X113950714Y-40949524D01*
X114045952Y-41044762D01*
X114188810Y-41092381D01*
X114426905Y-41092381D01*
D12*
X142589286Y-42155000D02*
X141875000Y-42155000D01*
X142732143Y-42583571D02*
X142232143Y-41083571D01*
X141732143Y-42583571D01*
X141232143Y-42583571D02*
X141232143Y-41583571D01*
X141232143Y-41869286D02*
X141160715Y-41726429D01*
X141089286Y-41655000D01*
X140946429Y-41583571D01*
X140803572Y-41583571D01*
X139660715Y-42583571D02*
X139660715Y-41083571D01*
X139660715Y-42512143D02*
X139803572Y-42583571D01*
X140089286Y-42583571D01*
X140232144Y-42512143D01*
X140303572Y-42440714D01*
X140375001Y-42297857D01*
X140375001Y-41869286D01*
X140303572Y-41726429D01*
X140232144Y-41655000D01*
X140089286Y-41583571D01*
X139803572Y-41583571D01*
X139660715Y-41655000D01*
X138303572Y-41583571D02*
X138303572Y-42583571D01*
X138946429Y-41583571D02*
X138946429Y-42369286D01*
X138875001Y-42512143D01*
X138732143Y-42583571D01*
X138517858Y-42583571D01*
X138375001Y-42512143D01*
X138303572Y-42440714D01*
X137589286Y-42583571D02*
X137589286Y-41583571D01*
X137589286Y-41083571D02*
X137660715Y-41155000D01*
X137589286Y-41226429D01*
X137517858Y-41155000D01*
X137589286Y-41083571D01*
X137589286Y-41226429D01*
X136875000Y-41583571D02*
X136875000Y-42583571D01*
X136875000Y-41726429D02*
X136803572Y-41655000D01*
X136660714Y-41583571D01*
X136446429Y-41583571D01*
X136303572Y-41655000D01*
X136232143Y-41797857D01*
X136232143Y-42583571D01*
X135303571Y-42583571D02*
X135446429Y-42512143D01*
X135517857Y-42440714D01*
X135589286Y-42297857D01*
X135589286Y-41869286D01*
X135517857Y-41726429D01*
X135446429Y-41655000D01*
X135303571Y-41583571D01*
X135089286Y-41583571D01*
X134946429Y-41655000D01*
X134875000Y-41726429D01*
X134803571Y-41869286D01*
X134803571Y-42297857D01*
X134875000Y-42440714D01*
X134946429Y-42512143D01*
X135089286Y-42583571D01*
X135303571Y-42583571D01*
X133017857Y-42583571D02*
X133017857Y-41083571D01*
X132446429Y-41083571D01*
X132303571Y-41155000D01*
X132232143Y-41226429D01*
X132160714Y-41369286D01*
X132160714Y-41583571D01*
X132232143Y-41726429D01*
X132303571Y-41797857D01*
X132446429Y-41869286D01*
X133017857Y-41869286D01*
X131517857Y-42583571D02*
X131517857Y-41583571D01*
X131517857Y-41869286D02*
X131446429Y-41726429D01*
X131375000Y-41655000D01*
X131232143Y-41583571D01*
X131089286Y-41583571D01*
X130375000Y-42583571D02*
X130517858Y-42512143D01*
X130589286Y-42440714D01*
X130660715Y-42297857D01*
X130660715Y-41869286D01*
X130589286Y-41726429D01*
X130517858Y-41655000D01*
X130375000Y-41583571D01*
X130160715Y-41583571D01*
X130017858Y-41655000D01*
X129946429Y-41726429D01*
X129875000Y-41869286D01*
X129875000Y-42297857D01*
X129946429Y-42440714D01*
X130017858Y-42512143D01*
X130160715Y-42583571D01*
X130375000Y-42583571D01*
X129232143Y-42583571D02*
X129232143Y-41083571D01*
X128732143Y-42155000D01*
X128232143Y-41083571D01*
X128232143Y-42583571D01*
X127517857Y-42583571D02*
X127517857Y-41583571D01*
X127517857Y-41083571D02*
X127589286Y-41155000D01*
X127517857Y-41226429D01*
X127446429Y-41155000D01*
X127517857Y-41083571D01*
X127517857Y-41226429D01*
X126803571Y-41583571D02*
X126803571Y-42583571D01*
X126803571Y-41726429D02*
X126732143Y-41655000D01*
X126589285Y-41583571D01*
X126375000Y-41583571D01*
X126232143Y-41655000D01*
X126160714Y-41797857D01*
X126160714Y-42583571D01*
X125446428Y-42583571D02*
X125446428Y-41583571D01*
X125446428Y-41083571D02*
X125517857Y-41155000D01*
X125446428Y-41226429D01*
X125375000Y-41155000D01*
X125446428Y-41083571D01*
X125446428Y-41226429D01*
X123732142Y-41583571D02*
X123374999Y-42583571D01*
X123017857Y-41583571D01*
X121660714Y-42583571D02*
X122517857Y-42583571D01*
X122089285Y-42583571D02*
X122089285Y-41083571D01*
X122232142Y-41297857D01*
X122375000Y-41440714D01*
X122517857Y-41512143D01*
X121017857Y-42440714D02*
X120946429Y-42512143D01*
X121017857Y-42583571D01*
X121089286Y-42512143D01*
X121017857Y-42440714D01*
X121017857Y-42583571D01*
X120017857Y-41083571D02*
X119875000Y-41083571D01*
X119732143Y-41155000D01*
X119660714Y-41226429D01*
X119589285Y-41369286D01*
X119517857Y-41655000D01*
X119517857Y-42012143D01*
X119589285Y-42297857D01*
X119660714Y-42440714D01*
X119732143Y-42512143D01*
X119875000Y-42583571D01*
X120017857Y-42583571D01*
X120160714Y-42512143D01*
X120232143Y-42440714D01*
X120303571Y-42297857D01*
X120375000Y-42012143D01*
X120375000Y-41655000D01*
X120303571Y-41369286D01*
X120232143Y-41226429D01*
X120160714Y-41155000D01*
X120017857Y-41083571D01*
X142517857Y-44133571D02*
X142517857Y-45133571D01*
X142517857Y-44276429D02*
X142446429Y-44205000D01*
X142303571Y-44133571D01*
X142089286Y-44133571D01*
X141946429Y-44205000D01*
X141875000Y-44347857D01*
X141875000Y-45133571D01*
X141160714Y-45133571D02*
X141160714Y-44133571D01*
X141160714Y-43633571D02*
X141232143Y-43705000D01*
X141160714Y-43776429D01*
X141089286Y-43705000D01*
X141160714Y-43633571D01*
X141160714Y-43776429D01*
X139803571Y-45062143D02*
X139946428Y-45133571D01*
X140232142Y-45133571D01*
X140375000Y-45062143D01*
X140446428Y-44990714D01*
X140517857Y-44847857D01*
X140517857Y-44419286D01*
X140446428Y-44276429D01*
X140375000Y-44205000D01*
X140232142Y-44133571D01*
X139946428Y-44133571D01*
X139803571Y-44205000D01*
X139160714Y-45133571D02*
X139160714Y-43633571D01*
X139017857Y-44562143D02*
X138589286Y-45133571D01*
X138589286Y-44133571D02*
X139160714Y-44705000D01*
X138160714Y-44133571D02*
X137589285Y-44133571D01*
X137946428Y-43633571D02*
X137946428Y-44919286D01*
X137875000Y-45062143D01*
X137732142Y-45133571D01*
X137589285Y-45133571D01*
X137089285Y-45133571D02*
X137089285Y-43633571D01*
X136446428Y-45133571D02*
X136446428Y-44347857D01*
X136517857Y-44205000D01*
X136660714Y-44133571D01*
X136874999Y-44133571D01*
X137017857Y-44205000D01*
X137089285Y-44276429D01*
X135160714Y-45062143D02*
X135303571Y-45133571D01*
X135589285Y-45133571D01*
X135732142Y-45062143D01*
X135803571Y-44919286D01*
X135803571Y-44347857D01*
X135732142Y-44205000D01*
X135589285Y-44133571D01*
X135303571Y-44133571D01*
X135160714Y-44205000D01*
X135089285Y-44347857D01*
X135089285Y-44490714D01*
X135803571Y-44633571D01*
X133803571Y-45062143D02*
X133946428Y-45133571D01*
X134232142Y-45133571D01*
X134375000Y-45062143D01*
X134446428Y-44990714D01*
X134517857Y-44847857D01*
X134517857Y-44419286D01*
X134446428Y-44276429D01*
X134375000Y-44205000D01*
X134232142Y-44133571D01*
X133946428Y-44133571D01*
X133803571Y-44205000D01*
X132946428Y-45133571D02*
X133089286Y-45062143D01*
X133160714Y-44990714D01*
X133232143Y-44847857D01*
X133232143Y-44419286D01*
X133160714Y-44276429D01*
X133089286Y-44205000D01*
X132946428Y-44133571D01*
X132732143Y-44133571D01*
X132589286Y-44205000D01*
X132517857Y-44276429D01*
X132446428Y-44419286D01*
X132446428Y-44847857D01*
X132517857Y-44990714D01*
X132589286Y-45062143D01*
X132732143Y-45133571D01*
X132946428Y-45133571D01*
X131160714Y-45133571D02*
X131160714Y-43633571D01*
X131160714Y-45062143D02*
X131303571Y-45133571D01*
X131589285Y-45133571D01*
X131732143Y-45062143D01*
X131803571Y-44990714D01*
X131875000Y-44847857D01*
X131875000Y-44419286D01*
X131803571Y-44276429D01*
X131732143Y-44205000D01*
X131589285Y-44133571D01*
X131303571Y-44133571D01*
X131160714Y-44205000D01*
X129875000Y-45062143D02*
X130017857Y-45133571D01*
X130303571Y-45133571D01*
X130446428Y-45062143D01*
X130517857Y-44919286D01*
X130517857Y-44347857D01*
X130446428Y-44205000D01*
X130303571Y-44133571D01*
X130017857Y-44133571D01*
X129875000Y-44205000D01*
X129803571Y-44347857D01*
X129803571Y-44490714D01*
X130517857Y-44633571D01*
X129160714Y-45133571D02*
X129160714Y-44133571D01*
X129160714Y-44419286D02*
X129089286Y-44276429D01*
X129017857Y-44205000D01*
X128875000Y-44133571D01*
X128732143Y-44133571D01*
X128232143Y-44990714D02*
X128160715Y-45062143D01*
X128232143Y-45133571D01*
X128303572Y-45062143D01*
X128232143Y-44990714D01*
X128232143Y-45133571D01*
X126875000Y-45062143D02*
X127017857Y-45133571D01*
X127303571Y-45133571D01*
X127446429Y-45062143D01*
X127517857Y-44990714D01*
X127589286Y-44847857D01*
X127589286Y-44419286D01*
X127517857Y-44276429D01*
X127446429Y-44205000D01*
X127303571Y-44133571D01*
X127017857Y-44133571D01*
X126875000Y-44205000D01*
X126017857Y-45133571D02*
X126160715Y-45062143D01*
X126232143Y-44990714D01*
X126303572Y-44847857D01*
X126303572Y-44419286D01*
X126232143Y-44276429D01*
X126160715Y-44205000D01*
X126017857Y-44133571D01*
X125803572Y-44133571D01*
X125660715Y-44205000D01*
X125589286Y-44276429D01*
X125517857Y-44419286D01*
X125517857Y-44847857D01*
X125589286Y-44990714D01*
X125660715Y-45062143D01*
X125803572Y-45133571D01*
X126017857Y-45133571D01*
X124875000Y-44990714D02*
X124803572Y-45062143D01*
X124875000Y-45133571D01*
X124946429Y-45062143D01*
X124875000Y-44990714D01*
X124875000Y-45133571D01*
X123517857Y-44133571D02*
X123517857Y-45133571D01*
X124160714Y-44133571D02*
X124160714Y-44919286D01*
X124089286Y-45062143D01*
X123946428Y-45133571D01*
X123732143Y-45133571D01*
X123589286Y-45062143D01*
X123517857Y-44990714D01*
X122803571Y-45133571D02*
X122803571Y-43633571D01*
X122660714Y-44562143D02*
X122232143Y-45133571D01*
X122232143Y-44133571D02*
X122803571Y-44705000D01*
X140044285Y-117442143D02*
X139829999Y-117513571D01*
X139472856Y-117513571D01*
X139329999Y-117442143D01*
X139258570Y-117370714D01*
X139187142Y-117227857D01*
X139187142Y-117085000D01*
X139258570Y-116942143D01*
X139329999Y-116870714D01*
X139472856Y-116799286D01*
X139758570Y-116727857D01*
X139901428Y-116656429D01*
X139972856Y-116585000D01*
X140044285Y-116442143D01*
X140044285Y-116299286D01*
X139972856Y-116156429D01*
X139901428Y-116085000D01*
X139758570Y-116013571D01*
X139401428Y-116013571D01*
X139187142Y-116085000D01*
X138544285Y-117513571D02*
X138544285Y-116013571D01*
X137901428Y-117513571D02*
X137901428Y-116727857D01*
X137972857Y-116585000D01*
X138115714Y-116513571D01*
X138329999Y-116513571D01*
X138472857Y-116585000D01*
X138544285Y-116656429D01*
X137187142Y-117513571D02*
X137187142Y-116513571D01*
X137187142Y-116013571D02*
X137258571Y-116085000D01*
X137187142Y-116156429D01*
X137115714Y-116085000D01*
X137187142Y-116013571D01*
X137187142Y-116156429D01*
X136687142Y-116513571D02*
X136115713Y-116513571D01*
X136472856Y-117513571D02*
X136472856Y-116227857D01*
X136401428Y-116085000D01*
X136258570Y-116013571D01*
X136115713Y-116013571D01*
X135829999Y-116513571D02*
X135258570Y-116513571D01*
X135615713Y-116013571D02*
X135615713Y-117299286D01*
X135544285Y-117442143D01*
X135401427Y-117513571D01*
X135258570Y-117513571D01*
X132901427Y-116013571D02*
X133615713Y-116013571D01*
X133687142Y-116727857D01*
X133615713Y-116656429D01*
X133472856Y-116585000D01*
X133115713Y-116585000D01*
X132972856Y-116656429D01*
X132901427Y-116727857D01*
X132829999Y-116870714D01*
X132829999Y-117227857D01*
X132901427Y-117370714D01*
X132972856Y-117442143D01*
X133115713Y-117513571D01*
X133472856Y-117513571D01*
X133615713Y-117442143D01*
X133687142Y-117370714D01*
X132115714Y-117513571D02*
X131829999Y-117513571D01*
X131687142Y-117442143D01*
X131615714Y-117370714D01*
X131472856Y-117156429D01*
X131401428Y-116870714D01*
X131401428Y-116299286D01*
X131472856Y-116156429D01*
X131544285Y-116085000D01*
X131687142Y-116013571D01*
X131972856Y-116013571D01*
X132115714Y-116085000D01*
X132187142Y-116156429D01*
X132258571Y-116299286D01*
X132258571Y-116656429D01*
X132187142Y-116799286D01*
X132115714Y-116870714D01*
X131972856Y-116942143D01*
X131687142Y-116942143D01*
X131544285Y-116870714D01*
X131472856Y-116799286D01*
X131401428Y-116656429D01*
X130044285Y-116013571D02*
X130758571Y-116013571D01*
X130830000Y-116727857D01*
X130758571Y-116656429D01*
X130615714Y-116585000D01*
X130258571Y-116585000D01*
X130115714Y-116656429D01*
X130044285Y-116727857D01*
X129972857Y-116870714D01*
X129972857Y-117227857D01*
X130044285Y-117370714D01*
X130115714Y-117442143D01*
X130258571Y-117513571D01*
X130615714Y-117513571D01*
X130758571Y-117442143D01*
X130830000Y-117370714D01*
X128330000Y-116513571D02*
X127972857Y-117513571D01*
X127615715Y-116513571D01*
X126258572Y-117513571D02*
X127115715Y-117513571D01*
X126687143Y-117513571D02*
X126687143Y-116013571D01*
X126830000Y-116227857D01*
X126972858Y-116370714D01*
X127115715Y-116442143D01*
X125615715Y-117370714D02*
X125544287Y-117442143D01*
X125615715Y-117513571D01*
X125687144Y-117442143D01*
X125615715Y-117370714D01*
X125615715Y-117513571D01*
X124615715Y-116013571D02*
X124472858Y-116013571D01*
X124330001Y-116085000D01*
X124258572Y-116156429D01*
X124187143Y-116299286D01*
X124115715Y-116585000D01*
X124115715Y-116942143D01*
X124187143Y-117227857D01*
X124258572Y-117370714D01*
X124330001Y-117442143D01*
X124472858Y-117513571D01*
X124615715Y-117513571D01*
X124758572Y-117442143D01*
X124830001Y-117370714D01*
X124901429Y-117227857D01*
X124972858Y-116942143D01*
X124972858Y-116585000D01*
X124901429Y-116299286D01*
X124830001Y-116156429D01*
X124758572Y-116085000D01*
X124615715Y-116013571D01*
X142187143Y-119063571D02*
X142187143Y-120063571D01*
X142187143Y-119206429D02*
X142115715Y-119135000D01*
X141972857Y-119063571D01*
X141758572Y-119063571D01*
X141615715Y-119135000D01*
X141544286Y-119277857D01*
X141544286Y-120063571D01*
X140830000Y-120063571D02*
X140830000Y-119063571D01*
X140830000Y-118563571D02*
X140901429Y-118635000D01*
X140830000Y-118706429D01*
X140758572Y-118635000D01*
X140830000Y-118563571D01*
X140830000Y-118706429D01*
X139472857Y-119992143D02*
X139615714Y-120063571D01*
X139901428Y-120063571D01*
X140044286Y-119992143D01*
X140115714Y-119920714D01*
X140187143Y-119777857D01*
X140187143Y-119349286D01*
X140115714Y-119206429D01*
X140044286Y-119135000D01*
X139901428Y-119063571D01*
X139615714Y-119063571D01*
X139472857Y-119135000D01*
X138830000Y-120063571D02*
X138830000Y-118563571D01*
X138687143Y-119492143D02*
X138258572Y-120063571D01*
X138258572Y-119063571D02*
X138830000Y-119635000D01*
X137830000Y-119063571D02*
X137258571Y-119063571D01*
X137615714Y-118563571D02*
X137615714Y-119849286D01*
X137544286Y-119992143D01*
X137401428Y-120063571D01*
X137258571Y-120063571D01*
X136758571Y-120063571D02*
X136758571Y-118563571D01*
X136115714Y-120063571D02*
X136115714Y-119277857D01*
X136187143Y-119135000D01*
X136330000Y-119063571D01*
X136544285Y-119063571D01*
X136687143Y-119135000D01*
X136758571Y-119206429D01*
X134830000Y-119992143D02*
X134972857Y-120063571D01*
X135258571Y-120063571D01*
X135401428Y-119992143D01*
X135472857Y-119849286D01*
X135472857Y-119277857D01*
X135401428Y-119135000D01*
X135258571Y-119063571D01*
X134972857Y-119063571D01*
X134830000Y-119135000D01*
X134758571Y-119277857D01*
X134758571Y-119420714D01*
X135472857Y-119563571D01*
X133472857Y-119992143D02*
X133615714Y-120063571D01*
X133901428Y-120063571D01*
X134044286Y-119992143D01*
X134115714Y-119920714D01*
X134187143Y-119777857D01*
X134187143Y-119349286D01*
X134115714Y-119206429D01*
X134044286Y-119135000D01*
X133901428Y-119063571D01*
X133615714Y-119063571D01*
X133472857Y-119135000D01*
X132615714Y-120063571D02*
X132758572Y-119992143D01*
X132830000Y-119920714D01*
X132901429Y-119777857D01*
X132901429Y-119349286D01*
X132830000Y-119206429D01*
X132758572Y-119135000D01*
X132615714Y-119063571D01*
X132401429Y-119063571D01*
X132258572Y-119135000D01*
X132187143Y-119206429D01*
X132115714Y-119349286D01*
X132115714Y-119777857D01*
X132187143Y-119920714D01*
X132258572Y-119992143D01*
X132401429Y-120063571D01*
X132615714Y-120063571D01*
X130830000Y-120063571D02*
X130830000Y-118563571D01*
X130830000Y-119992143D02*
X130972857Y-120063571D01*
X131258571Y-120063571D01*
X131401429Y-119992143D01*
X131472857Y-119920714D01*
X131544286Y-119777857D01*
X131544286Y-119349286D01*
X131472857Y-119206429D01*
X131401429Y-119135000D01*
X131258571Y-119063571D01*
X130972857Y-119063571D01*
X130830000Y-119135000D01*
X129544286Y-119992143D02*
X129687143Y-120063571D01*
X129972857Y-120063571D01*
X130115714Y-119992143D01*
X130187143Y-119849286D01*
X130187143Y-119277857D01*
X130115714Y-119135000D01*
X129972857Y-119063571D01*
X129687143Y-119063571D01*
X129544286Y-119135000D01*
X129472857Y-119277857D01*
X129472857Y-119420714D01*
X130187143Y-119563571D01*
X128830000Y-120063571D02*
X128830000Y-119063571D01*
X128830000Y-119349286D02*
X128758572Y-119206429D01*
X128687143Y-119135000D01*
X128544286Y-119063571D01*
X128401429Y-119063571D01*
X127901429Y-119920714D02*
X127830001Y-119992143D01*
X127901429Y-120063571D01*
X127972858Y-119992143D01*
X127901429Y-119920714D01*
X127901429Y-120063571D01*
X126544286Y-119992143D02*
X126687143Y-120063571D01*
X126972857Y-120063571D01*
X127115715Y-119992143D01*
X127187143Y-119920714D01*
X127258572Y-119777857D01*
X127258572Y-119349286D01*
X127187143Y-119206429D01*
X127115715Y-119135000D01*
X126972857Y-119063571D01*
X126687143Y-119063571D01*
X126544286Y-119135000D01*
X125687143Y-120063571D02*
X125830001Y-119992143D01*
X125901429Y-119920714D01*
X125972858Y-119777857D01*
X125972858Y-119349286D01*
X125901429Y-119206429D01*
X125830001Y-119135000D01*
X125687143Y-119063571D01*
X125472858Y-119063571D01*
X125330001Y-119135000D01*
X125258572Y-119206429D01*
X125187143Y-119349286D01*
X125187143Y-119777857D01*
X125258572Y-119920714D01*
X125330001Y-119992143D01*
X125472858Y-120063571D01*
X125687143Y-120063571D01*
X124544286Y-119920714D02*
X124472858Y-119992143D01*
X124544286Y-120063571D01*
X124615715Y-119992143D01*
X124544286Y-119920714D01*
X124544286Y-120063571D01*
X123187143Y-119063571D02*
X123187143Y-120063571D01*
X123830000Y-119063571D02*
X123830000Y-119849286D01*
X123758572Y-119992143D01*
X123615714Y-120063571D01*
X123401429Y-120063571D01*
X123258572Y-119992143D01*
X123187143Y-119920714D01*
X122472857Y-120063571D02*
X122472857Y-118563571D01*
X122330000Y-119492143D02*
X121901429Y-120063571D01*
X121901429Y-119063571D02*
X122472857Y-119635000D01*
D11*
X147129524Y-101349762D02*
X146986667Y-101397381D01*
X146748571Y-101397381D01*
X146653333Y-101349762D01*
X146605714Y-101302143D01*
X146558095Y-101206905D01*
X146558095Y-101111667D01*
X146605714Y-101016429D01*
X146653333Y-100968810D01*
X146748571Y-100921190D01*
X146939048Y-100873571D01*
X147034286Y-100825952D01*
X147081905Y-100778333D01*
X147129524Y-100683095D01*
X147129524Y-100587857D01*
X147081905Y-100492619D01*
X147034286Y-100445000D01*
X146939048Y-100397381D01*
X146700952Y-100397381D01*
X146558095Y-100445000D01*
X145986667Y-101397381D02*
X146081905Y-101349762D01*
X146129524Y-101254524D01*
X146129524Y-100397381D01*
X145177142Y-101397381D02*
X145177142Y-100873571D01*
X145224761Y-100778333D01*
X145319999Y-100730714D01*
X145510476Y-100730714D01*
X145605714Y-100778333D01*
X145177142Y-101349762D02*
X145272380Y-101397381D01*
X145510476Y-101397381D01*
X145605714Y-101349762D01*
X145653333Y-101254524D01*
X145653333Y-101159286D01*
X145605714Y-101064048D01*
X145510476Y-101016429D01*
X145272380Y-101016429D01*
X145177142Y-100968810D01*
X144796190Y-100730714D02*
X144558095Y-101397381D01*
X144319999Y-100730714D01*
X143558094Y-101349762D02*
X143653332Y-101397381D01*
X143843809Y-101397381D01*
X143939047Y-101349762D01*
X143986666Y-101254524D01*
X143986666Y-100873571D01*
X143939047Y-100778333D01*
X143843809Y-100730714D01*
X143653332Y-100730714D01*
X143558094Y-100778333D01*
X143510475Y-100873571D01*
X143510475Y-100968810D01*
X143986666Y-101064048D01*
X142319999Y-101302143D02*
X142272380Y-101349762D01*
X142319999Y-101397381D01*
X142367618Y-101349762D01*
X142319999Y-101302143D01*
X142319999Y-101397381D01*
X142319999Y-100778333D02*
X142272380Y-100825952D01*
X142319999Y-100873571D01*
X142367618Y-100825952D01*
X142319999Y-100778333D01*
X142319999Y-100873571D01*
X147129524Y-103049762D02*
X146986667Y-103097381D01*
X146748571Y-103097381D01*
X146653333Y-103049762D01*
X146605714Y-103002143D01*
X146558095Y-102906905D01*
X146558095Y-102811667D01*
X146605714Y-102716429D01*
X146653333Y-102668810D01*
X146748571Y-102621190D01*
X146939048Y-102573571D01*
X147034286Y-102525952D01*
X147081905Y-102478333D01*
X147129524Y-102383095D01*
X147129524Y-102287857D01*
X147081905Y-102192619D01*
X147034286Y-102145000D01*
X146939048Y-102097381D01*
X146700952Y-102097381D01*
X146558095Y-102145000D01*
X145986667Y-103097381D02*
X146081905Y-103049762D01*
X146129524Y-103002143D01*
X146177143Y-102906905D01*
X146177143Y-102621190D01*
X146129524Y-102525952D01*
X146081905Y-102478333D01*
X145986667Y-102430714D01*
X145843809Y-102430714D01*
X145748571Y-102478333D01*
X145700952Y-102525952D01*
X145653333Y-102621190D01*
X145653333Y-102906905D01*
X145700952Y-103002143D01*
X145748571Y-103049762D01*
X145843809Y-103097381D01*
X145986667Y-103097381D01*
X145081905Y-103097381D02*
X145177143Y-103049762D01*
X145224762Y-102954524D01*
X145224762Y-102097381D01*
X144272380Y-103097381D02*
X144272380Y-102097381D01*
X144272380Y-103049762D02*
X144367618Y-103097381D01*
X144558095Y-103097381D01*
X144653333Y-103049762D01*
X144700952Y-103002143D01*
X144748571Y-102906905D01*
X144748571Y-102621190D01*
X144700952Y-102525952D01*
X144653333Y-102478333D01*
X144558095Y-102430714D01*
X144367618Y-102430714D01*
X144272380Y-102478333D01*
X143415237Y-103049762D02*
X143510475Y-103097381D01*
X143700952Y-103097381D01*
X143796190Y-103049762D01*
X143843809Y-102954524D01*
X143843809Y-102573571D01*
X143796190Y-102478333D01*
X143700952Y-102430714D01*
X143510475Y-102430714D01*
X143415237Y-102478333D01*
X143367618Y-102573571D01*
X143367618Y-102668810D01*
X143843809Y-102764048D01*
X142939047Y-103097381D02*
X142939047Y-102430714D01*
X142939047Y-102621190D02*
X142891428Y-102525952D01*
X142843809Y-102478333D01*
X142748571Y-102430714D01*
X142653332Y-102430714D01*
X141272379Y-102097381D02*
X141272379Y-102811667D01*
X141319999Y-102954524D01*
X141415237Y-103049762D01*
X141558094Y-103097381D01*
X141653332Y-103097381D01*
X140891427Y-102097381D02*
X140272379Y-102097381D01*
X140605713Y-102478333D01*
X140462855Y-102478333D01*
X140367617Y-102525952D01*
X140319998Y-102573571D01*
X140272379Y-102668810D01*
X140272379Y-102906905D01*
X140319998Y-103002143D01*
X140367617Y-103049762D01*
X140462855Y-103097381D01*
X140748570Y-103097381D01*
X140843808Y-103049762D01*
X140891427Y-103002143D01*
X139796189Y-103049762D02*
X139796189Y-103097381D01*
X139843808Y-103192619D01*
X139891427Y-103240238D01*
X138939046Y-102430714D02*
X138939046Y-103097381D01*
X139177142Y-102049762D02*
X139415237Y-102764048D01*
X138796189Y-102764048D01*
X138367618Y-103049762D02*
X138367618Y-103097381D01*
X138415237Y-103192619D01*
X138462856Y-103240238D01*
X137462856Y-102097381D02*
X137939047Y-102097381D01*
X137986666Y-102573571D01*
X137939047Y-102525952D01*
X137843809Y-102478333D01*
X137605713Y-102478333D01*
X137510475Y-102525952D01*
X137462856Y-102573571D01*
X137415237Y-102668810D01*
X137415237Y-102906905D01*
X137462856Y-103002143D01*
X137510475Y-103049762D01*
X137605713Y-103097381D01*
X137843809Y-103097381D01*
X137939047Y-103049762D01*
X137986666Y-103002143D01*
X136939047Y-103049762D02*
X136939047Y-103097381D01*
X136986666Y-103192619D01*
X137034285Y-103240238D01*
X136081904Y-102097381D02*
X136272381Y-102097381D01*
X136367619Y-102145000D01*
X136415238Y-102192619D01*
X136510476Y-102335476D01*
X136558095Y-102525952D01*
X136558095Y-102906905D01*
X136510476Y-103002143D01*
X136462857Y-103049762D01*
X136367619Y-103097381D01*
X136177142Y-103097381D01*
X136081904Y-103049762D01*
X136034285Y-103002143D01*
X135986666Y-102906905D01*
X135986666Y-102668810D01*
X136034285Y-102573571D01*
X136081904Y-102525952D01*
X136177142Y-102478333D01*
X136367619Y-102478333D01*
X136462857Y-102525952D01*
X136510476Y-102573571D01*
X136558095Y-102668810D01*
X147081905Y-104273571D02*
X146748571Y-104273571D01*
X146605714Y-104797381D02*
X147081905Y-104797381D01*
X147081905Y-103797381D01*
X146605714Y-103797381D01*
X146272381Y-104797381D02*
X145748571Y-104130714D01*
X146272381Y-104130714D02*
X145748571Y-104797381D01*
X144939047Y-104749762D02*
X145034285Y-104797381D01*
X145224762Y-104797381D01*
X145320000Y-104749762D01*
X145367619Y-104702143D01*
X145415238Y-104606905D01*
X145415238Y-104321190D01*
X145367619Y-104225952D01*
X145320000Y-104178333D01*
X145224762Y-104130714D01*
X145034285Y-104130714D01*
X144939047Y-104178333D01*
X144367619Y-104797381D02*
X144462857Y-104749762D01*
X144510476Y-104654524D01*
X144510476Y-103797381D01*
X143558094Y-104130714D02*
X143558094Y-104797381D01*
X143986666Y-104130714D02*
X143986666Y-104654524D01*
X143939047Y-104749762D01*
X143843809Y-104797381D01*
X143700951Y-104797381D01*
X143605713Y-104749762D01*
X143558094Y-104702143D01*
X142653332Y-104797381D02*
X142653332Y-103797381D01*
X142653332Y-104749762D02*
X142748570Y-104797381D01*
X142939047Y-104797381D01*
X143034285Y-104749762D01*
X143081904Y-104702143D01*
X143129523Y-104606905D01*
X143129523Y-104321190D01*
X143081904Y-104225952D01*
X143034285Y-104178333D01*
X142939047Y-104130714D01*
X142748570Y-104130714D01*
X142653332Y-104178333D01*
X141796189Y-104749762D02*
X141891427Y-104797381D01*
X142081904Y-104797381D01*
X142177142Y-104749762D01*
X142224761Y-104654524D01*
X142224761Y-104273571D01*
X142177142Y-104178333D01*
X142081904Y-104130714D01*
X141891427Y-104130714D01*
X141796189Y-104178333D01*
X141748570Y-104273571D01*
X141748570Y-104368810D01*
X142224761Y-104464048D01*
X140558094Y-104797381D02*
X140558094Y-103797381D01*
X140558094Y-104273571D02*
X139986665Y-104273571D01*
X139986665Y-104797381D02*
X139986665Y-103797381D01*
X138986665Y-104797381D02*
X139558094Y-104797381D01*
X139272380Y-104797381D02*
X139272380Y-103797381D01*
X139367618Y-103940238D01*
X139462856Y-104035476D01*
X139558094Y-104083095D01*
X138510475Y-104749762D02*
X138510475Y-104797381D01*
X138558094Y-104892619D01*
X138605713Y-104940238D01*
X137034284Y-103797381D02*
X137034284Y-104511667D01*
X137081904Y-104654524D01*
X137177142Y-104749762D01*
X137319999Y-104797381D01*
X137415237Y-104797381D01*
X136034284Y-104797381D02*
X136605713Y-104797381D01*
X136319999Y-104797381D02*
X136319999Y-103797381D01*
X136415237Y-103940238D01*
X136510475Y-104035476D01*
X136605713Y-104083095D01*
X147081905Y-108197381D02*
X147081905Y-107197381D01*
X146748571Y-107911667D01*
X146415238Y-107197381D01*
X146415238Y-108197381D01*
X145510476Y-108197381D02*
X145510476Y-107673571D01*
X145558095Y-107578333D01*
X145653333Y-107530714D01*
X145843810Y-107530714D01*
X145939048Y-107578333D01*
X145510476Y-108149762D02*
X145605714Y-108197381D01*
X145843810Y-108197381D01*
X145939048Y-108149762D01*
X145986667Y-108054524D01*
X145986667Y-107959286D01*
X145939048Y-107864048D01*
X145843810Y-107816429D01*
X145605714Y-107816429D01*
X145510476Y-107768810D01*
X145081905Y-108149762D02*
X144986667Y-108197381D01*
X144796191Y-108197381D01*
X144700952Y-108149762D01*
X144653333Y-108054524D01*
X144653333Y-108006905D01*
X144700952Y-107911667D01*
X144796191Y-107864048D01*
X144939048Y-107864048D01*
X145034286Y-107816429D01*
X145081905Y-107721190D01*
X145081905Y-107673571D01*
X145034286Y-107578333D01*
X144939048Y-107530714D01*
X144796191Y-107530714D01*
X144700952Y-107578333D01*
X144367619Y-107530714D02*
X143986667Y-107530714D01*
X144224762Y-107197381D02*
X144224762Y-108054524D01*
X144177143Y-108149762D01*
X144081905Y-108197381D01*
X143986667Y-108197381D01*
X143272380Y-108149762D02*
X143367618Y-108197381D01*
X143558095Y-108197381D01*
X143653333Y-108149762D01*
X143700952Y-108054524D01*
X143700952Y-107673571D01*
X143653333Y-107578333D01*
X143558095Y-107530714D01*
X143367618Y-107530714D01*
X143272380Y-107578333D01*
X143224761Y-107673571D01*
X143224761Y-107768810D01*
X143700952Y-107864048D01*
X142796190Y-108197381D02*
X142796190Y-107530714D01*
X142796190Y-107721190D02*
X142748571Y-107625952D01*
X142700952Y-107578333D01*
X142605714Y-107530714D01*
X142510475Y-107530714D01*
X141415237Y-108102143D02*
X141367618Y-108149762D01*
X141415237Y-108197381D01*
X141462856Y-108149762D01*
X141415237Y-108102143D01*
X141415237Y-108197381D01*
X141415237Y-107578333D02*
X141367618Y-107625952D01*
X141415237Y-107673571D01*
X141462856Y-107625952D01*
X141415237Y-107578333D01*
X141415237Y-107673571D01*
X147129524Y-109849762D02*
X146986667Y-109897381D01*
X146748571Y-109897381D01*
X146653333Y-109849762D01*
X146605714Y-109802143D01*
X146558095Y-109706905D01*
X146558095Y-109611667D01*
X146605714Y-109516429D01*
X146653333Y-109468810D01*
X146748571Y-109421190D01*
X146939048Y-109373571D01*
X147034286Y-109325952D01*
X147081905Y-109278333D01*
X147129524Y-109183095D01*
X147129524Y-109087857D01*
X147081905Y-108992619D01*
X147034286Y-108945000D01*
X146939048Y-108897381D01*
X146700952Y-108897381D01*
X146558095Y-108945000D01*
X145986667Y-109897381D02*
X146081905Y-109849762D01*
X146129524Y-109802143D01*
X146177143Y-109706905D01*
X146177143Y-109421190D01*
X146129524Y-109325952D01*
X146081905Y-109278333D01*
X145986667Y-109230714D01*
X145843809Y-109230714D01*
X145748571Y-109278333D01*
X145700952Y-109325952D01*
X145653333Y-109421190D01*
X145653333Y-109706905D01*
X145700952Y-109802143D01*
X145748571Y-109849762D01*
X145843809Y-109897381D01*
X145986667Y-109897381D01*
X145081905Y-109897381D02*
X145177143Y-109849762D01*
X145224762Y-109754524D01*
X145224762Y-108897381D01*
X144272380Y-109897381D02*
X144272380Y-108897381D01*
X144272380Y-109849762D02*
X144367618Y-109897381D01*
X144558095Y-109897381D01*
X144653333Y-109849762D01*
X144700952Y-109802143D01*
X144748571Y-109706905D01*
X144748571Y-109421190D01*
X144700952Y-109325952D01*
X144653333Y-109278333D01*
X144558095Y-109230714D01*
X144367618Y-109230714D01*
X144272380Y-109278333D01*
X143415237Y-109849762D02*
X143510475Y-109897381D01*
X143700952Y-109897381D01*
X143796190Y-109849762D01*
X143843809Y-109754524D01*
X143843809Y-109373571D01*
X143796190Y-109278333D01*
X143700952Y-109230714D01*
X143510475Y-109230714D01*
X143415237Y-109278333D01*
X143367618Y-109373571D01*
X143367618Y-109468810D01*
X143843809Y-109564048D01*
X142939047Y-109897381D02*
X142939047Y-109230714D01*
X142939047Y-109421190D02*
X142891428Y-109325952D01*
X142843809Y-109278333D01*
X142748571Y-109230714D01*
X142653332Y-109230714D01*
X141272379Y-108897381D02*
X141272379Y-109611667D01*
X141319999Y-109754524D01*
X141415237Y-109849762D01*
X141558094Y-109897381D01*
X141653332Y-109897381D01*
X140843808Y-108992619D02*
X140796189Y-108945000D01*
X140700951Y-108897381D01*
X140462855Y-108897381D01*
X140367617Y-108945000D01*
X140319998Y-108992619D01*
X140272379Y-109087857D01*
X140272379Y-109183095D01*
X140319998Y-109325952D01*
X140891427Y-109897381D01*
X140272379Y-109897381D01*
X138939046Y-109897381D02*
X139034284Y-109849762D01*
X139081903Y-109802143D01*
X139129522Y-109706905D01*
X139129522Y-109421190D01*
X139081903Y-109325952D01*
X139034284Y-109278333D01*
X138939046Y-109230714D01*
X138796188Y-109230714D01*
X138700950Y-109278333D01*
X138653331Y-109325952D01*
X138605712Y-109421190D01*
X138605712Y-109706905D01*
X138653331Y-109802143D01*
X138700950Y-109849762D01*
X138796188Y-109897381D01*
X138939046Y-109897381D01*
X138177141Y-109897381D02*
X138177141Y-109230714D01*
X138177141Y-109421190D02*
X138129522Y-109325952D01*
X138081903Y-109278333D01*
X137986665Y-109230714D01*
X137891426Y-109230714D01*
X147081905Y-111597381D02*
X147081905Y-110930714D01*
X147081905Y-110597381D02*
X147129524Y-110645000D01*
X147081905Y-110692619D01*
X147034286Y-110645000D01*
X147081905Y-110597381D01*
X147081905Y-110692619D01*
X146605715Y-110930714D02*
X146605715Y-111597381D01*
X146605715Y-111025952D02*
X146558096Y-110978333D01*
X146462858Y-110930714D01*
X146320000Y-110930714D01*
X146224762Y-110978333D01*
X146177143Y-111073571D01*
X146177143Y-111597381D01*
X145272381Y-111549762D02*
X145367619Y-111597381D01*
X145558096Y-111597381D01*
X145653334Y-111549762D01*
X145700953Y-111502143D01*
X145748572Y-111406905D01*
X145748572Y-111121190D01*
X145700953Y-111025952D01*
X145653334Y-110978333D01*
X145558096Y-110930714D01*
X145367619Y-110930714D01*
X145272381Y-110978333D01*
X144700953Y-111597381D02*
X144796191Y-111549762D01*
X144843810Y-111454524D01*
X144843810Y-110597381D01*
X143891428Y-110930714D02*
X143891428Y-111597381D01*
X144320000Y-110930714D02*
X144320000Y-111454524D01*
X144272381Y-111549762D01*
X144177143Y-111597381D01*
X144034285Y-111597381D01*
X143939047Y-111549762D01*
X143891428Y-111502143D01*
X142986666Y-111597381D02*
X142986666Y-110597381D01*
X142986666Y-111549762D02*
X143081904Y-111597381D01*
X143272381Y-111597381D01*
X143367619Y-111549762D01*
X143415238Y-111502143D01*
X143462857Y-111406905D01*
X143462857Y-111121190D01*
X143415238Y-111025952D01*
X143367619Y-110978333D01*
X143272381Y-110930714D01*
X143081904Y-110930714D01*
X142986666Y-110978333D01*
X142129523Y-111549762D02*
X142224761Y-111597381D01*
X142415238Y-111597381D01*
X142510476Y-111549762D01*
X142558095Y-111454524D01*
X142558095Y-111073571D01*
X142510476Y-110978333D01*
X142415238Y-110930714D01*
X142224761Y-110930714D01*
X142129523Y-110978333D01*
X142081904Y-111073571D01*
X142081904Y-111168810D01*
X142558095Y-111264048D01*
X140700952Y-110597381D02*
X140510475Y-110597381D01*
X140415237Y-110645000D01*
X140319999Y-110740238D01*
X140272380Y-110930714D01*
X140272380Y-111264048D01*
X140319999Y-111454524D01*
X140415237Y-111549762D01*
X140510475Y-111597381D01*
X140700952Y-111597381D01*
X140796190Y-111549762D01*
X140891428Y-111454524D01*
X140939047Y-111264048D01*
X140939047Y-110930714D01*
X140891428Y-110740238D01*
X140796190Y-110645000D01*
X140700952Y-110597381D01*
X139843809Y-111073571D02*
X139510475Y-111073571D01*
X139367618Y-111597381D02*
X139843809Y-111597381D01*
X139843809Y-110597381D01*
X139367618Y-110597381D01*
X138034285Y-111597381D02*
X138129523Y-111549762D01*
X138177142Y-111502143D01*
X138224761Y-111406905D01*
X138224761Y-111121190D01*
X138177142Y-111025952D01*
X138129523Y-110978333D01*
X138034285Y-110930714D01*
X137891427Y-110930714D01*
X137796189Y-110978333D01*
X137748570Y-111025952D01*
X137700951Y-111121190D01*
X137700951Y-111406905D01*
X137748570Y-111502143D01*
X137796189Y-111549762D01*
X137891427Y-111597381D01*
X138034285Y-111597381D01*
X137415237Y-110930714D02*
X137034285Y-110930714D01*
X137272380Y-111597381D02*
X137272380Y-110740238D01*
X137224761Y-110645000D01*
X137129523Y-110597381D01*
X137034285Y-110597381D01*
X135653331Y-110597381D02*
X135653331Y-111311667D01*
X135700951Y-111454524D01*
X135796189Y-111549762D01*
X135939046Y-111597381D01*
X136034284Y-111597381D01*
X134653331Y-111597381D02*
X135224760Y-111597381D01*
X134939046Y-111597381D02*
X134939046Y-110597381D01*
X135034284Y-110740238D01*
X135129522Y-110835476D01*
X135224760Y-110883095D01*
D13*
X127890000Y-109220000D02*
X127890000Y-111760000D01*
X126110000Y-111760000D02*
X126110000Y-109220000D01*
X126110000Y-111760000D02*
X127890000Y-111760000D01*
X127890000Y-109220000D02*
X126110000Y-109220000D01*
X122810000Y-101600000D02*
X122810000Y-104140000D01*
X121030000Y-104140000D02*
X121030000Y-101600000D01*
X121030000Y-104140000D02*
X122810000Y-104140000D01*
X122810000Y-101600000D02*
X121030000Y-101600000D01*
X124715000Y-104140000D02*
X124715000Y-106680000D01*
X122935000Y-106680000D02*
X122935000Y-104140000D01*
X122935000Y-106680000D02*
X124715000Y-106680000D01*
X124715000Y-104140000D02*
X122935000Y-104140000D01*
X122810000Y-106680000D02*
X122810000Y-109220000D01*
X121030000Y-109220000D02*
X121030000Y-106680000D01*
X121030000Y-109220000D02*
X122810000Y-109220000D01*
X122810000Y-106680000D02*
X121030000Y-106680000D01*
X124715000Y-109220000D02*
X124715000Y-111760000D01*
X122935000Y-111760000D02*
X122935000Y-109220000D01*
X122935000Y-111760000D02*
X124715000Y-111760000D01*
X124715000Y-109220000D02*
X122935000Y-109220000D01*
D14*
X117601905Y-99512381D02*
X117601905Y-98512381D01*
X117601905Y-98988571D02*
X117030476Y-98988571D01*
X117030476Y-99512381D02*
X117030476Y-98512381D01*
X116030476Y-99512381D02*
X116601905Y-99512381D01*
X116316191Y-99512381D02*
X116316191Y-98512381D01*
X116411429Y-98655238D01*
X116506667Y-98750476D01*
X116601905Y-98798095D01*
X128357381Y-110156667D02*
X129071667Y-110156667D01*
X129214524Y-110109047D01*
X129309762Y-110013809D01*
X129357381Y-109870952D01*
X129357381Y-109775714D01*
X128452619Y-110585238D02*
X128405000Y-110632857D01*
X128357381Y-110728095D01*
X128357381Y-110966191D01*
X128405000Y-111061429D01*
X128452619Y-111109048D01*
X128547857Y-111156667D01*
X128643095Y-111156667D01*
X128785952Y-111109048D01*
X129357381Y-110537619D01*
X129357381Y-111156667D01*
X119713333Y-98512381D02*
X119713333Y-99226667D01*
X119760953Y-99369524D01*
X119856191Y-99464762D01*
X119999048Y-99512381D01*
X120094286Y-99512381D01*
X118713333Y-99512381D02*
X119284762Y-99512381D01*
X118999048Y-99512381D02*
X118999048Y-98512381D01*
X119094286Y-98655238D01*
X119189524Y-98750476D01*
X119284762Y-98798095D01*
X123277381Y-102536667D02*
X123991667Y-102536667D01*
X124134524Y-102489047D01*
X124229762Y-102393809D01*
X124277381Y-102250952D01*
X124277381Y-102155714D01*
X123277381Y-102917619D02*
X123277381Y-103536667D01*
X123658333Y-103203333D01*
X123658333Y-103346191D01*
X123705952Y-103441429D01*
X123753571Y-103489048D01*
X123848810Y-103536667D01*
X124086905Y-103536667D01*
X124182143Y-103489048D01*
X124229762Y-103441429D01*
X124277381Y-103346191D01*
X124277381Y-103060476D01*
X124229762Y-102965238D01*
X124182143Y-102917619D01*
X121372381Y-105076667D02*
X122086667Y-105076667D01*
X122229524Y-105029047D01*
X122324762Y-104933809D01*
X122372381Y-104790952D01*
X122372381Y-104695714D01*
X121705714Y-105981429D02*
X122372381Y-105981429D01*
X121324762Y-105743333D02*
X122039048Y-105505238D01*
X122039048Y-106124286D01*
X123277381Y-107616667D02*
X123991667Y-107616667D01*
X124134524Y-107569047D01*
X124229762Y-107473809D01*
X124277381Y-107330952D01*
X124277381Y-107235714D01*
X123277381Y-108569048D02*
X123277381Y-108092857D01*
X123753571Y-108045238D01*
X123705952Y-108092857D01*
X123658333Y-108188095D01*
X123658333Y-108426191D01*
X123705952Y-108521429D01*
X123753571Y-108569048D01*
X123848810Y-108616667D01*
X124086905Y-108616667D01*
X124182143Y-108569048D01*
X124229762Y-108521429D01*
X124277381Y-108426191D01*
X124277381Y-108188095D01*
X124229762Y-108092857D01*
X124182143Y-108045238D01*
X121372381Y-110156667D02*
X122086667Y-110156667D01*
X122229524Y-110109047D01*
X122324762Y-110013809D01*
X122372381Y-109870952D01*
X122372381Y-109775714D01*
X121372381Y-111061429D02*
X121372381Y-110870952D01*
X121420000Y-110775714D01*
X121467619Y-110728095D01*
X121610476Y-110632857D01*
X121800952Y-110585238D01*
X122181905Y-110585238D01*
X122277143Y-110632857D01*
X122324762Y-110680476D01*
X122372381Y-110775714D01*
X122372381Y-110966191D01*
X122324762Y-111061429D01*
X122277143Y-111109048D01*
X122181905Y-111156667D01*
X121943810Y-111156667D01*
X121848571Y-111109048D01*
X121800952Y-111061429D01*
X121753333Y-110966191D01*
X121753333Y-110775714D01*
X121800952Y-110680476D01*
X121848571Y-110632857D01*
X121943810Y-110585238D01*
M02*
