G04 #@! TF.FileFunction,Copper,L2,Bot,Signal*
%FSLAX46Y46*%
G04 Gerber Fmt 4.6, Leading zero omitted, Abs format (unit mm)*
G04 Created by KiCad (PCBNEW 4.0.7+dfsg1-1~bpo9+1) date Mon Apr  2 19:59:58 2018*
%MOMM*%
%LPD*%
G01*
G04 APERTURE LIST*
%ADD10C,0.100000*%
%ADD11R,1.700000X1.700000*%
%ADD12O,1.700000X1.700000*%
%ADD13C,1.400000*%
%ADD14O,1.400000X1.400000*%
%ADD15C,2.000000*%
%ADD16C,0.500000*%
%ADD17C,0.250000*%
%ADD18C,0.254000*%
G04 APERTURE END LIST*
D10*
D11*
X168275000Y-92075000D03*
D12*
X168275000Y-94615000D03*
X168275000Y-97155000D03*
X168275000Y-99695000D03*
X168275000Y-102235000D03*
X168275000Y-104775000D03*
X168275000Y-107315000D03*
X168275000Y-109855000D03*
X168275000Y-112395000D03*
X168275000Y-114935000D03*
X168275000Y-117475000D03*
X168275000Y-120015000D03*
X168275000Y-122555000D03*
D11*
X130175000Y-92075000D03*
D12*
X130175000Y-94615000D03*
X130175000Y-97155000D03*
X130175000Y-99695000D03*
X130175000Y-102235000D03*
X130175000Y-104775000D03*
X130175000Y-107315000D03*
X130175000Y-109855000D03*
X130175000Y-112395000D03*
X130175000Y-114935000D03*
X130175000Y-117475000D03*
X130175000Y-120015000D03*
X130175000Y-122555000D03*
D11*
X133350000Y-104775000D03*
D12*
X133350000Y-107315000D03*
X133350000Y-109855000D03*
X133350000Y-112395000D03*
X133350000Y-114935000D03*
X133350000Y-117475000D03*
X133350000Y-120015000D03*
X133350000Y-122555000D03*
D11*
X135890000Y-104775000D03*
D12*
X135890000Y-107315000D03*
X135890000Y-109855000D03*
X135890000Y-112395000D03*
X135890000Y-114935000D03*
X135890000Y-117475000D03*
X135890000Y-120015000D03*
X135890000Y-122555000D03*
D13*
X149225000Y-85090000D03*
D14*
X141605000Y-85090000D03*
D13*
X154305000Y-85090000D03*
D14*
X161925000Y-85090000D03*
D13*
X149225000Y-95885000D03*
D14*
X141605000Y-95885000D03*
D13*
X154305000Y-95885000D03*
D14*
X161925000Y-95885000D03*
D13*
X149225000Y-106680000D03*
D14*
X141605000Y-106680000D03*
D13*
X154305000Y-106680000D03*
D14*
X161925000Y-106680000D03*
D13*
X149225000Y-117475000D03*
D14*
X141605000Y-117475000D03*
D13*
X154305000Y-117475000D03*
D14*
X161925000Y-117475000D03*
D15*
X142240000Y-92765000D03*
X142240000Y-88265000D03*
X148740000Y-92765000D03*
X148740000Y-88265000D03*
X154940000Y-92765000D03*
X154940000Y-88265000D03*
X161440000Y-92765000D03*
X161440000Y-88265000D03*
X142240000Y-103560000D03*
X142240000Y-99060000D03*
X148740000Y-103560000D03*
X148740000Y-99060000D03*
X154940000Y-103560000D03*
X154940000Y-99060000D03*
X161440000Y-103560000D03*
X161440000Y-99060000D03*
X142240000Y-114355000D03*
X142240000Y-109855000D03*
X148740000Y-114355000D03*
X148740000Y-109855000D03*
X154940000Y-114355000D03*
X154940000Y-109855000D03*
X161440000Y-114355000D03*
X161440000Y-109855000D03*
X142240000Y-125150000D03*
X142240000Y-120650000D03*
X148740000Y-125150000D03*
X148740000Y-120650000D03*
X154940000Y-125150000D03*
X154940000Y-120650000D03*
X161440000Y-125150000D03*
X161440000Y-120650000D03*
D16*
X130175000Y-91440000D02*
X137795000Y-83820000D01*
X130175000Y-92075000D02*
X130175000Y-91440000D01*
X137795000Y-83820000D02*
X162560000Y-83820000D01*
X162560000Y-83820000D02*
X168275000Y-89535000D01*
X168275000Y-89535000D02*
X168275000Y-92075000D01*
X156845000Y-109220000D02*
X156845000Y-114935000D01*
X154305000Y-106680000D02*
X156845000Y-109220000D01*
X156845000Y-114935000D02*
X154305000Y-117475000D01*
X154305000Y-95885000D02*
X156845000Y-98425000D01*
X156845000Y-98425000D02*
X156845000Y-104775000D01*
X156845000Y-104775000D02*
X154940000Y-106680000D01*
X154940000Y-106680000D02*
X154305000Y-106680000D01*
D17*
X154305000Y-106680000D02*
X154940000Y-106680000D01*
D16*
X130175000Y-97155000D02*
X140970000Y-86360000D01*
X140970000Y-86360000D02*
X162560000Y-86360000D01*
X162560000Y-86360000D02*
X165735000Y-89535000D01*
X165735000Y-89535000D02*
X165735000Y-94615000D01*
X165735000Y-94615000D02*
X168275000Y-97155000D01*
X142240000Y-114355000D02*
X142240000Y-114935000D01*
D17*
X142240000Y-114355000D02*
X142185000Y-114355000D01*
D16*
X135890000Y-104775000D02*
X135890000Y-93980000D01*
X135890000Y-93980000D02*
X141605000Y-88265000D01*
X141605000Y-88265000D02*
X142240000Y-88265000D01*
X141605000Y-90170000D02*
X153035000Y-90170000D01*
X153035000Y-90170000D02*
X154940000Y-88265000D01*
X135890000Y-107315000D02*
X136525000Y-107315000D01*
X136525000Y-107315000D02*
X137795000Y-106045000D01*
X137795000Y-93980000D02*
X141605000Y-90170000D01*
X137795000Y-106045000D02*
X137795000Y-93980000D01*
D17*
X154940000Y-88265000D02*
X154305000Y-88265000D01*
D16*
X135890000Y-109855000D02*
X136525000Y-109855000D01*
X136525000Y-109855000D02*
X139065000Y-107315000D01*
X139065000Y-107315000D02*
X139065000Y-102235000D01*
X139065000Y-102235000D02*
X142240000Y-99060000D01*
X142240000Y-99060000D02*
X142240000Y-96520000D01*
X142240000Y-96520000D02*
X141605000Y-95885000D01*
D17*
X142240000Y-96520000D02*
X141605000Y-95885000D01*
D16*
X161440000Y-99060000D02*
X161440000Y-96370000D01*
X161440000Y-96370000D02*
X161925000Y-95885000D01*
X137160000Y-112395000D02*
X140335000Y-109220000D01*
X140335000Y-109220000D02*
X140335000Y-106045000D01*
X135890000Y-112395000D02*
X137160000Y-112395000D01*
X140335000Y-106045000D02*
X140970000Y-105410000D01*
X140970000Y-105410000D02*
X149860000Y-105410000D01*
X149860000Y-105410000D02*
X154940000Y-100330000D01*
X154940000Y-100330000D02*
X154940000Y-99060000D01*
D17*
X135890000Y-112395000D02*
X136525000Y-112395000D01*
X154940000Y-99695000D02*
X154940000Y-99060000D01*
X161440000Y-96370000D02*
X161925000Y-95885000D01*
D16*
X142240000Y-109855000D02*
X142240000Y-107315000D01*
X142240000Y-107315000D02*
X141605000Y-106680000D01*
X135890000Y-114935000D02*
X137160000Y-114935000D01*
X137160000Y-114935000D02*
X142240000Y-109855000D01*
X161440000Y-109855000D02*
X161440000Y-107165000D01*
X161440000Y-107165000D02*
X161925000Y-106680000D01*
X135890000Y-117475000D02*
X138430000Y-117475000D01*
X154940000Y-111125000D02*
X154940000Y-109855000D01*
X149860000Y-116205000D02*
X154940000Y-111125000D01*
X139700000Y-116205000D02*
X149860000Y-116205000D01*
X138430000Y-117475000D02*
X139700000Y-116205000D01*
D17*
X161440000Y-107165000D02*
X161925000Y-106680000D01*
D16*
X142240000Y-120650000D02*
X142240000Y-118110000D01*
X142240000Y-118110000D02*
X141605000Y-117475000D01*
D17*
X141605000Y-120015000D02*
X142240000Y-120650000D01*
D16*
X161440000Y-120650000D02*
X161440000Y-117960000D01*
X161440000Y-117960000D02*
X161925000Y-117475000D01*
X153035000Y-122555000D02*
X154940000Y-120650000D01*
X136525000Y-122555000D02*
X153035000Y-122555000D01*
X135890000Y-122555000D02*
X136525000Y-122555000D01*
D17*
X154940000Y-121285000D02*
X154940000Y-120650000D01*
D18*
G36*
X129785860Y-90577560D02*
X129325000Y-90577560D01*
X129089683Y-90621838D01*
X128873559Y-90760910D01*
X128728569Y-90973110D01*
X128677560Y-91225000D01*
X128677560Y-92925000D01*
X128721838Y-93160317D01*
X128860910Y-93376441D01*
X129073110Y-93521431D01*
X129140541Y-93535086D01*
X129095853Y-93564946D01*
X128773946Y-94046715D01*
X128660907Y-94615000D01*
X128773946Y-95183285D01*
X129095853Y-95665054D01*
X129425026Y-95885000D01*
X129095853Y-96104946D01*
X128773946Y-96586715D01*
X128660907Y-97155000D01*
X128773946Y-97723285D01*
X129095853Y-98205054D01*
X129436553Y-98432702D01*
X129293642Y-98499817D01*
X128903355Y-98928076D01*
X128733524Y-99338110D01*
X128854845Y-99568000D01*
X130048000Y-99568000D01*
X130048000Y-99548000D01*
X130302000Y-99548000D01*
X130302000Y-99568000D01*
X131495155Y-99568000D01*
X131616476Y-99338110D01*
X131446645Y-98928076D01*
X131056358Y-98499817D01*
X130913447Y-98432702D01*
X131254147Y-98205054D01*
X131576054Y-97723285D01*
X131689093Y-97155000D01*
X131645539Y-96936041D01*
X140605251Y-87976328D01*
X140605219Y-88013202D01*
X135264210Y-93354210D01*
X135072367Y-93641325D01*
X135072367Y-93641326D01*
X135004999Y-93980000D01*
X135005000Y-93980005D01*
X135005000Y-103284146D01*
X134804683Y-103321838D01*
X134617923Y-103442015D01*
X134451890Y-103328569D01*
X134200000Y-103277560D01*
X132500000Y-103277560D01*
X132264683Y-103321838D01*
X132048559Y-103460910D01*
X131903569Y-103673110D01*
X131852560Y-103925000D01*
X131852560Y-105625000D01*
X131896838Y-105860317D01*
X132035910Y-106076441D01*
X132248110Y-106221431D01*
X132315541Y-106235086D01*
X132270853Y-106264946D01*
X131948946Y-106746715D01*
X131835907Y-107315000D01*
X131948946Y-107883285D01*
X132270853Y-108365054D01*
X132600026Y-108585000D01*
X132270853Y-108804946D01*
X131948946Y-109286715D01*
X131835907Y-109855000D01*
X131948946Y-110423285D01*
X132270853Y-110905054D01*
X132600026Y-111125000D01*
X132270853Y-111344946D01*
X131948946Y-111826715D01*
X131835907Y-112395000D01*
X131948946Y-112963285D01*
X132270853Y-113445054D01*
X132600026Y-113665000D01*
X132270853Y-113884946D01*
X131948946Y-114366715D01*
X131835907Y-114935000D01*
X131948946Y-115503285D01*
X132270853Y-115985054D01*
X132600026Y-116205000D01*
X132270853Y-116424946D01*
X131948946Y-116906715D01*
X131835907Y-117475000D01*
X131948946Y-118043285D01*
X132270853Y-118525054D01*
X132600026Y-118745000D01*
X132270853Y-118964946D01*
X131948946Y-119446715D01*
X131835907Y-120015000D01*
X131948946Y-120583285D01*
X132270853Y-121065054D01*
X132600026Y-121285000D01*
X132270853Y-121504946D01*
X131948946Y-121986715D01*
X131835907Y-122555000D01*
X131948946Y-123123285D01*
X132270853Y-123605054D01*
X132752622Y-123926961D01*
X133320907Y-124040000D01*
X133379093Y-124040000D01*
X133947378Y-123926961D01*
X134429147Y-123605054D01*
X134620000Y-123319422D01*
X134810853Y-123605054D01*
X135292622Y-123926961D01*
X135860907Y-124040000D01*
X135919093Y-124040000D01*
X136132915Y-123997468D01*
X141267073Y-123997468D01*
X142240000Y-124970395D01*
X143212927Y-123997468D01*
X147767073Y-123997468D01*
X148740000Y-124970395D01*
X149712927Y-123997468D01*
X153967073Y-123997468D01*
X154940000Y-124970395D01*
X155912927Y-123997468D01*
X160467073Y-123997468D01*
X161440000Y-124970395D01*
X162412927Y-123997468D01*
X162314264Y-123730613D01*
X161704539Y-123504092D01*
X161054540Y-123528144D01*
X160565736Y-123730613D01*
X160467073Y-123997468D01*
X155912927Y-123997468D01*
X155814264Y-123730613D01*
X155204539Y-123504092D01*
X154554540Y-123528144D01*
X154065736Y-123730613D01*
X153967073Y-123997468D01*
X149712927Y-123997468D01*
X149614264Y-123730613D01*
X149004539Y-123504092D01*
X148354540Y-123528144D01*
X147865736Y-123730613D01*
X147767073Y-123997468D01*
X143212927Y-123997468D01*
X143114264Y-123730613D01*
X142504539Y-123504092D01*
X141854540Y-123528144D01*
X141365736Y-123730613D01*
X141267073Y-123997468D01*
X136132915Y-123997468D01*
X136487378Y-123926961D01*
X136969147Y-123605054D01*
X137079432Y-123440000D01*
X153034995Y-123440000D01*
X153035000Y-123440001D01*
X153317484Y-123383810D01*
X153373675Y-123372633D01*
X153660790Y-123180790D01*
X154573437Y-122268142D01*
X154613352Y-122284716D01*
X155263795Y-122285284D01*
X155864943Y-122036894D01*
X156325278Y-121577363D01*
X156574716Y-120976648D01*
X156574718Y-120973795D01*
X159804716Y-120973795D01*
X160053106Y-121574943D01*
X160512637Y-122035278D01*
X161113352Y-122284716D01*
X161763795Y-122285284D01*
X162364943Y-122036894D01*
X162825278Y-121577363D01*
X163074716Y-120976648D01*
X163075284Y-120326205D01*
X162826894Y-119725057D01*
X162367363Y-119264722D01*
X162325000Y-119247131D01*
X162325000Y-118735637D01*
X162462036Y-118708379D01*
X162895142Y-118418988D01*
X163184533Y-117985882D01*
X163286154Y-117475000D01*
X163184533Y-116964118D01*
X162895142Y-116531012D01*
X162462036Y-116241621D01*
X161951154Y-116140000D01*
X161898846Y-116140000D01*
X161387964Y-116241621D01*
X160954858Y-116531012D01*
X160665467Y-116964118D01*
X160563846Y-117475000D01*
X160607659Y-117695264D01*
X160554999Y-117960000D01*
X160555000Y-117960005D01*
X160555000Y-119246602D01*
X160515057Y-119263106D01*
X160054722Y-119722637D01*
X159805284Y-120323352D01*
X159804716Y-120973795D01*
X156574718Y-120973795D01*
X156575284Y-120326205D01*
X156326894Y-119725057D01*
X155867363Y-119264722D01*
X155266648Y-119015284D01*
X154616205Y-119014716D01*
X154015057Y-119263106D01*
X153554722Y-119722637D01*
X153305284Y-120323352D01*
X153304716Y-120973795D01*
X153322232Y-121016188D01*
X152668420Y-121670000D01*
X150032479Y-121670000D01*
X150125278Y-121577363D01*
X150374716Y-120976648D01*
X150375284Y-120326205D01*
X150126894Y-119725057D01*
X149667363Y-119264722D01*
X149066648Y-119015284D01*
X148416205Y-119014716D01*
X147815057Y-119263106D01*
X147354722Y-119722637D01*
X147105284Y-120323352D01*
X147104716Y-120973795D01*
X147353106Y-121574943D01*
X147447997Y-121670000D01*
X143532479Y-121670000D01*
X143625278Y-121577363D01*
X143874716Y-120976648D01*
X143875284Y-120326205D01*
X143626894Y-119725057D01*
X143167363Y-119264722D01*
X143125000Y-119247131D01*
X143125000Y-118110005D01*
X143125001Y-118110000D01*
X143057634Y-117771326D01*
X142957407Y-117621325D01*
X142941718Y-117597846D01*
X142966154Y-117475000D01*
X142889573Y-117090000D01*
X147939349Y-117090000D01*
X147890232Y-117208287D01*
X147889769Y-117739383D01*
X148092582Y-118230229D01*
X148467796Y-118606098D01*
X148958287Y-118809768D01*
X149489383Y-118810231D01*
X149980229Y-118607418D01*
X150356098Y-118232204D01*
X150559768Y-117741713D01*
X150560231Y-117210617D01*
X150421139Y-116873988D01*
X150485790Y-116830790D01*
X153334273Y-113982307D01*
X153294092Y-114090461D01*
X153318144Y-114740460D01*
X153520613Y-115229264D01*
X153787468Y-115327927D01*
X154760395Y-114355000D01*
X154746253Y-114340858D01*
X154925858Y-114161253D01*
X154940000Y-114175395D01*
X154954143Y-114161253D01*
X155133748Y-114340858D01*
X155119605Y-114355000D01*
X155133748Y-114369143D01*
X154954143Y-114548748D01*
X154940000Y-114534605D01*
X153967073Y-115507532D01*
X154065736Y-115774387D01*
X154567588Y-115960832D01*
X154388348Y-116140072D01*
X154040617Y-116139769D01*
X153549771Y-116342582D01*
X153173902Y-116717796D01*
X152970232Y-117208287D01*
X152969769Y-117739383D01*
X153172582Y-118230229D01*
X153547796Y-118606098D01*
X154038287Y-118809768D01*
X154569383Y-118810231D01*
X155060229Y-118607418D01*
X155436098Y-118232204D01*
X155639768Y-117741713D01*
X155640073Y-117391506D01*
X157470787Y-115560792D01*
X157470790Y-115560790D01*
X157506375Y-115507532D01*
X160467073Y-115507532D01*
X160565736Y-115774387D01*
X161175461Y-116000908D01*
X161825460Y-115976856D01*
X162314264Y-115774387D01*
X162412927Y-115507532D01*
X161440000Y-114534605D01*
X160467073Y-115507532D01*
X157506375Y-115507532D01*
X157662633Y-115273675D01*
X157730000Y-114935000D01*
X157730000Y-114090461D01*
X159794092Y-114090461D01*
X159818144Y-114740460D01*
X160020613Y-115229264D01*
X160287468Y-115327927D01*
X161260395Y-114355000D01*
X161619605Y-114355000D01*
X162592532Y-115327927D01*
X162859387Y-115229264D01*
X163085908Y-114619539D01*
X163061856Y-113969540D01*
X162859387Y-113480736D01*
X162592532Y-113382073D01*
X161619605Y-114355000D01*
X161260395Y-114355000D01*
X160287468Y-113382073D01*
X160020613Y-113480736D01*
X159794092Y-114090461D01*
X157730000Y-114090461D01*
X157730000Y-113202468D01*
X160467073Y-113202468D01*
X161440000Y-114175395D01*
X162412927Y-113202468D01*
X162314264Y-112935613D01*
X161704539Y-112709092D01*
X161054540Y-112733144D01*
X160565736Y-112935613D01*
X160467073Y-113202468D01*
X157730000Y-113202468D01*
X157730000Y-110178795D01*
X159804716Y-110178795D01*
X160053106Y-110779943D01*
X160512637Y-111240278D01*
X161113352Y-111489716D01*
X161763795Y-111490284D01*
X162364943Y-111241894D01*
X162825278Y-110782363D01*
X163074716Y-110181648D01*
X163075284Y-109531205D01*
X162826894Y-108930057D01*
X162367363Y-108469722D01*
X162325000Y-108452131D01*
X162325000Y-107940637D01*
X162462036Y-107913379D01*
X162895142Y-107623988D01*
X163184533Y-107190882D01*
X163286154Y-106680000D01*
X163184533Y-106169118D01*
X162895142Y-105736012D01*
X162462036Y-105446621D01*
X161951154Y-105345000D01*
X161898846Y-105345000D01*
X161387964Y-105446621D01*
X160954858Y-105736012D01*
X160665467Y-106169118D01*
X160563846Y-106680000D01*
X160607659Y-106900264D01*
X160554999Y-107165000D01*
X160555000Y-107165005D01*
X160555000Y-108451602D01*
X160515057Y-108468106D01*
X160054722Y-108927637D01*
X159805284Y-109528352D01*
X159804716Y-110178795D01*
X157730000Y-110178795D01*
X157730000Y-109220000D01*
X157662633Y-108881325D01*
X157470790Y-108594210D01*
X157470787Y-108594208D01*
X155874080Y-106997500D01*
X157470787Y-105400792D01*
X157470790Y-105400790D01*
X157662633Y-105113675D01*
X157689345Y-104979387D01*
X157730001Y-104775000D01*
X157730000Y-104774995D01*
X157730000Y-104712532D01*
X160467073Y-104712532D01*
X160565736Y-104979387D01*
X161175461Y-105205908D01*
X161825460Y-105181856D01*
X162314264Y-104979387D01*
X162412927Y-104712532D01*
X161440000Y-103739605D01*
X160467073Y-104712532D01*
X157730000Y-104712532D01*
X157730000Y-103295461D01*
X159794092Y-103295461D01*
X159818144Y-103945460D01*
X160020613Y-104434264D01*
X160287468Y-104532927D01*
X161260395Y-103560000D01*
X161619605Y-103560000D01*
X162592532Y-104532927D01*
X162859387Y-104434264D01*
X163085908Y-103824539D01*
X163061856Y-103174540D01*
X162859387Y-102685736D01*
X162592532Y-102587073D01*
X161619605Y-103560000D01*
X161260395Y-103560000D01*
X160287468Y-102587073D01*
X160020613Y-102685736D01*
X159794092Y-103295461D01*
X157730000Y-103295461D01*
X157730000Y-102407468D01*
X160467073Y-102407468D01*
X161440000Y-103380395D01*
X162412927Y-102407468D01*
X162349162Y-102235000D01*
X166760907Y-102235000D01*
X166873946Y-102803285D01*
X167195853Y-103285054D01*
X167525026Y-103505000D01*
X167195853Y-103724946D01*
X166873946Y-104206715D01*
X166760907Y-104775000D01*
X166873946Y-105343285D01*
X167195853Y-105825054D01*
X167525026Y-106045000D01*
X167195853Y-106264946D01*
X166873946Y-106746715D01*
X166760907Y-107315000D01*
X166873946Y-107883285D01*
X167195853Y-108365054D01*
X167525026Y-108585000D01*
X167195853Y-108804946D01*
X166873946Y-109286715D01*
X166760907Y-109855000D01*
X166873946Y-110423285D01*
X167195853Y-110905054D01*
X167525026Y-111125000D01*
X167195853Y-111344946D01*
X166873946Y-111826715D01*
X166760907Y-112395000D01*
X166873946Y-112963285D01*
X167195853Y-113445054D01*
X167525026Y-113665000D01*
X167195853Y-113884946D01*
X166873946Y-114366715D01*
X166760907Y-114935000D01*
X166873946Y-115503285D01*
X167195853Y-115985054D01*
X167525026Y-116205000D01*
X167195853Y-116424946D01*
X166873946Y-116906715D01*
X166760907Y-117475000D01*
X166873946Y-118043285D01*
X167195853Y-118525054D01*
X167525026Y-118745000D01*
X167195853Y-118964946D01*
X166873946Y-119446715D01*
X166760907Y-120015000D01*
X166873946Y-120583285D01*
X167195853Y-121065054D01*
X167525026Y-121285000D01*
X167195853Y-121504946D01*
X166873946Y-121986715D01*
X166760907Y-122555000D01*
X166873946Y-123123285D01*
X167195853Y-123605054D01*
X167677622Y-123926961D01*
X168245907Y-124040000D01*
X168304093Y-124040000D01*
X168872378Y-123926961D01*
X169354147Y-123605054D01*
X169676054Y-123123285D01*
X169789093Y-122555000D01*
X169676054Y-121986715D01*
X169354147Y-121504946D01*
X169024974Y-121285000D01*
X169354147Y-121065054D01*
X169676054Y-120583285D01*
X169789093Y-120015000D01*
X169676054Y-119446715D01*
X169354147Y-118964946D01*
X169024974Y-118745000D01*
X169354147Y-118525054D01*
X169676054Y-118043285D01*
X169789093Y-117475000D01*
X169676054Y-116906715D01*
X169354147Y-116424946D01*
X169024974Y-116205000D01*
X169354147Y-115985054D01*
X169676054Y-115503285D01*
X169789093Y-114935000D01*
X169676054Y-114366715D01*
X169354147Y-113884946D01*
X169024974Y-113665000D01*
X169354147Y-113445054D01*
X169676054Y-112963285D01*
X169789093Y-112395000D01*
X169676054Y-111826715D01*
X169354147Y-111344946D01*
X169024974Y-111125000D01*
X169354147Y-110905054D01*
X169676054Y-110423285D01*
X169789093Y-109855000D01*
X169676054Y-109286715D01*
X169354147Y-108804946D01*
X169024974Y-108585000D01*
X169354147Y-108365054D01*
X169676054Y-107883285D01*
X169789093Y-107315000D01*
X169676054Y-106746715D01*
X169354147Y-106264946D01*
X169024974Y-106045000D01*
X169354147Y-105825054D01*
X169676054Y-105343285D01*
X169789093Y-104775000D01*
X169676054Y-104206715D01*
X169354147Y-103724946D01*
X169024974Y-103505000D01*
X169354147Y-103285054D01*
X169676054Y-102803285D01*
X169789093Y-102235000D01*
X169676054Y-101666715D01*
X169354147Y-101184946D01*
X169013447Y-100957298D01*
X169156358Y-100890183D01*
X169546645Y-100461924D01*
X169716476Y-100051890D01*
X169595155Y-99822000D01*
X168402000Y-99822000D01*
X168402000Y-99842000D01*
X168148000Y-99842000D01*
X168148000Y-99822000D01*
X166954845Y-99822000D01*
X166833524Y-100051890D01*
X167003355Y-100461924D01*
X167393642Y-100890183D01*
X167536553Y-100957298D01*
X167195853Y-101184946D01*
X166873946Y-101666715D01*
X166760907Y-102235000D01*
X162349162Y-102235000D01*
X162314264Y-102140613D01*
X161704539Y-101914092D01*
X161054540Y-101938144D01*
X160565736Y-102140613D01*
X160467073Y-102407468D01*
X157730000Y-102407468D01*
X157730000Y-99383795D01*
X159804716Y-99383795D01*
X160053106Y-99984943D01*
X160512637Y-100445278D01*
X161113352Y-100694716D01*
X161763795Y-100695284D01*
X162364943Y-100446894D01*
X162825278Y-99987363D01*
X163074716Y-99386648D01*
X163075284Y-98736205D01*
X162826894Y-98135057D01*
X162367363Y-97674722D01*
X162325000Y-97657131D01*
X162325000Y-97145637D01*
X162462036Y-97118379D01*
X162895142Y-96828988D01*
X163184533Y-96395882D01*
X163286154Y-95885000D01*
X163184533Y-95374118D01*
X162895142Y-94941012D01*
X162462036Y-94651621D01*
X161951154Y-94550000D01*
X161898846Y-94550000D01*
X161387964Y-94651621D01*
X160954858Y-94941012D01*
X160665467Y-95374118D01*
X160563846Y-95885000D01*
X160607659Y-96105264D01*
X160554999Y-96370000D01*
X160555000Y-96370005D01*
X160555000Y-97656602D01*
X160515057Y-97673106D01*
X160054722Y-98132637D01*
X159805284Y-98733352D01*
X159804716Y-99383795D01*
X157730000Y-99383795D01*
X157730000Y-98425000D01*
X157662633Y-98086325D01*
X157470790Y-97799210D01*
X157470787Y-97799208D01*
X155639928Y-95968348D01*
X155640231Y-95620617D01*
X155437418Y-95129771D01*
X155062204Y-94753902D01*
X154571713Y-94550232D01*
X154040617Y-94549769D01*
X153549771Y-94752582D01*
X153173902Y-95127796D01*
X152970232Y-95618287D01*
X152969769Y-96149383D01*
X153172582Y-96640229D01*
X153547796Y-97016098D01*
X154038287Y-97219768D01*
X154388494Y-97220073D01*
X154599881Y-97431461D01*
X154015057Y-97673106D01*
X153554722Y-98132637D01*
X153305284Y-98733352D01*
X153304716Y-99383795D01*
X153553106Y-99984943D01*
X153793082Y-100225339D01*
X150379056Y-103639364D01*
X150361856Y-103174540D01*
X150159387Y-102685736D01*
X149892532Y-102587073D01*
X148919605Y-103560000D01*
X148933748Y-103574143D01*
X148754143Y-103753748D01*
X148740000Y-103739605D01*
X148725858Y-103753748D01*
X148546253Y-103574143D01*
X148560395Y-103560000D01*
X147587468Y-102587073D01*
X147320613Y-102685736D01*
X147094092Y-103295461D01*
X147118144Y-103945460D01*
X147320613Y-104434264D01*
X147566028Y-104525000D01*
X143413972Y-104525000D01*
X143659387Y-104434264D01*
X143885908Y-103824539D01*
X143861856Y-103174540D01*
X143659387Y-102685736D01*
X143392532Y-102587073D01*
X142419605Y-103560000D01*
X142433748Y-103574143D01*
X142254143Y-103753748D01*
X142240000Y-103739605D01*
X142225858Y-103753748D01*
X142046253Y-103574143D01*
X142060395Y-103560000D01*
X141087468Y-102587073D01*
X140820613Y-102685736D01*
X140594092Y-103295461D01*
X140618144Y-103945460D01*
X140820613Y-104434264D01*
X141066028Y-104525000D01*
X140970005Y-104525000D01*
X140970000Y-104524999D01*
X140631326Y-104592366D01*
X140631324Y-104592367D01*
X140631325Y-104592367D01*
X140344210Y-104784210D01*
X140344208Y-104784213D01*
X139950000Y-105178420D01*
X139950000Y-102601580D01*
X140144111Y-102407468D01*
X141267073Y-102407468D01*
X142240000Y-103380395D01*
X143212927Y-102407468D01*
X147767073Y-102407468D01*
X148740000Y-103380395D01*
X149712927Y-102407468D01*
X149614264Y-102140613D01*
X149004539Y-101914092D01*
X148354540Y-101938144D01*
X147865736Y-102140613D01*
X147767073Y-102407468D01*
X143212927Y-102407468D01*
X143114264Y-102140613D01*
X142504539Y-101914092D01*
X141854540Y-101938144D01*
X141365736Y-102140613D01*
X141267073Y-102407468D01*
X140144111Y-102407468D01*
X141873437Y-100678142D01*
X141913352Y-100694716D01*
X142563795Y-100695284D01*
X143164943Y-100446894D01*
X143625278Y-99987363D01*
X143874716Y-99386648D01*
X143874718Y-99383795D01*
X147104716Y-99383795D01*
X147353106Y-99984943D01*
X147812637Y-100445278D01*
X148413352Y-100694716D01*
X149063795Y-100695284D01*
X149664943Y-100446894D01*
X150125278Y-99987363D01*
X150374716Y-99386648D01*
X150375284Y-98736205D01*
X150126894Y-98135057D01*
X149667363Y-97674722D01*
X149066648Y-97425284D01*
X148416205Y-97424716D01*
X147815057Y-97673106D01*
X147354722Y-98132637D01*
X147105284Y-98733352D01*
X147104716Y-99383795D01*
X143874718Y-99383795D01*
X143875284Y-98736205D01*
X143626894Y-98135057D01*
X143167363Y-97674722D01*
X143125000Y-97657131D01*
X143125000Y-96520005D01*
X143125001Y-96520000D01*
X143057634Y-96181326D01*
X143036291Y-96149383D01*
X147889769Y-96149383D01*
X148092582Y-96640229D01*
X148467796Y-97016098D01*
X148958287Y-97219768D01*
X149489383Y-97220231D01*
X149980229Y-97017418D01*
X150356098Y-96642204D01*
X150559768Y-96151713D01*
X150560231Y-95620617D01*
X150357418Y-95129771D01*
X149982204Y-94753902D01*
X149491713Y-94550232D01*
X148960617Y-94549769D01*
X148469771Y-94752582D01*
X148093902Y-95127796D01*
X147890232Y-95618287D01*
X147889769Y-96149383D01*
X143036291Y-96149383D01*
X142941718Y-96007846D01*
X142966154Y-95885000D01*
X142864533Y-95374118D01*
X142575142Y-94941012D01*
X142142036Y-94651621D01*
X141631154Y-94550000D01*
X141578846Y-94550000D01*
X141067964Y-94651621D01*
X140634858Y-94941012D01*
X140345467Y-95374118D01*
X140243846Y-95885000D01*
X140345467Y-96395882D01*
X140634858Y-96828988D01*
X141067964Y-97118379D01*
X141355000Y-97175474D01*
X141355000Y-97656602D01*
X141315057Y-97673106D01*
X140854722Y-98132637D01*
X140605284Y-98733352D01*
X140604716Y-99383795D01*
X140622233Y-99426188D01*
X138680000Y-101368420D01*
X138680000Y-94346580D01*
X139109048Y-93917532D01*
X141267073Y-93917532D01*
X141365736Y-94184387D01*
X141975461Y-94410908D01*
X142625460Y-94386856D01*
X143114264Y-94184387D01*
X143212927Y-93917532D01*
X147767073Y-93917532D01*
X147865736Y-94184387D01*
X148475461Y-94410908D01*
X149125460Y-94386856D01*
X149614264Y-94184387D01*
X149712927Y-93917532D01*
X153967073Y-93917532D01*
X154065736Y-94184387D01*
X154675461Y-94410908D01*
X155325460Y-94386856D01*
X155814264Y-94184387D01*
X155912927Y-93917532D01*
X160467073Y-93917532D01*
X160565736Y-94184387D01*
X161175461Y-94410908D01*
X161825460Y-94386856D01*
X162314264Y-94184387D01*
X162412927Y-93917532D01*
X161440000Y-92944605D01*
X160467073Y-93917532D01*
X155912927Y-93917532D01*
X154940000Y-92944605D01*
X153967073Y-93917532D01*
X149712927Y-93917532D01*
X148740000Y-92944605D01*
X147767073Y-93917532D01*
X143212927Y-93917532D01*
X142240000Y-92944605D01*
X141267073Y-93917532D01*
X139109048Y-93917532D01*
X140634273Y-92392307D01*
X140594092Y-92500461D01*
X140618144Y-93150460D01*
X140820613Y-93639264D01*
X141087468Y-93737927D01*
X142060395Y-92765000D01*
X142419605Y-92765000D01*
X143392532Y-93737927D01*
X143659387Y-93639264D01*
X143885908Y-93029539D01*
X143866331Y-92500461D01*
X147094092Y-92500461D01*
X147118144Y-93150460D01*
X147320613Y-93639264D01*
X147587468Y-93737927D01*
X148560395Y-92765000D01*
X148919605Y-92765000D01*
X149892532Y-93737927D01*
X150159387Y-93639264D01*
X150385908Y-93029539D01*
X150366331Y-92500461D01*
X153294092Y-92500461D01*
X153318144Y-93150460D01*
X153520613Y-93639264D01*
X153787468Y-93737927D01*
X154760395Y-92765000D01*
X155119605Y-92765000D01*
X156092532Y-93737927D01*
X156359387Y-93639264D01*
X156585908Y-93029539D01*
X156566331Y-92500461D01*
X159794092Y-92500461D01*
X159818144Y-93150460D01*
X160020613Y-93639264D01*
X160287468Y-93737927D01*
X161260395Y-92765000D01*
X161619605Y-92765000D01*
X162592532Y-93737927D01*
X162859387Y-93639264D01*
X163085908Y-93029539D01*
X163061856Y-92379540D01*
X162859387Y-91890736D01*
X162592532Y-91792073D01*
X161619605Y-92765000D01*
X161260395Y-92765000D01*
X160287468Y-91792073D01*
X160020613Y-91890736D01*
X159794092Y-92500461D01*
X156566331Y-92500461D01*
X156561856Y-92379540D01*
X156359387Y-91890736D01*
X156092532Y-91792073D01*
X155119605Y-92765000D01*
X154760395Y-92765000D01*
X153787468Y-91792073D01*
X153520613Y-91890736D01*
X153294092Y-92500461D01*
X150366331Y-92500461D01*
X150361856Y-92379540D01*
X150159387Y-91890736D01*
X149892532Y-91792073D01*
X148919605Y-92765000D01*
X148560395Y-92765000D01*
X147587468Y-91792073D01*
X147320613Y-91890736D01*
X147094092Y-92500461D01*
X143866331Y-92500461D01*
X143861856Y-92379540D01*
X143659387Y-91890736D01*
X143392532Y-91792073D01*
X142419605Y-92765000D01*
X142060395Y-92765000D01*
X142046253Y-92750858D01*
X142225858Y-92571253D01*
X142240000Y-92585395D01*
X143212927Y-91612468D01*
X147767073Y-91612468D01*
X148740000Y-92585395D01*
X149712927Y-91612468D01*
X153967073Y-91612468D01*
X154940000Y-92585395D01*
X155912927Y-91612468D01*
X160467073Y-91612468D01*
X161440000Y-92585395D01*
X162412927Y-91612468D01*
X162314264Y-91345613D01*
X161704539Y-91119092D01*
X161054540Y-91143144D01*
X160565736Y-91345613D01*
X160467073Y-91612468D01*
X155912927Y-91612468D01*
X155814264Y-91345613D01*
X155204539Y-91119092D01*
X154554540Y-91143144D01*
X154065736Y-91345613D01*
X153967073Y-91612468D01*
X149712927Y-91612468D01*
X149614264Y-91345613D01*
X149004539Y-91119092D01*
X148354540Y-91143144D01*
X147865736Y-91345613D01*
X147767073Y-91612468D01*
X143212927Y-91612468D01*
X143114264Y-91345613D01*
X142504539Y-91119092D01*
X141884545Y-91142034D01*
X141971579Y-91055000D01*
X153034995Y-91055000D01*
X153035000Y-91055001D01*
X153317484Y-90998810D01*
X153373675Y-90987633D01*
X153660790Y-90795790D01*
X153660791Y-90795789D01*
X154573437Y-89883142D01*
X154613352Y-89899716D01*
X155263795Y-89900284D01*
X155864943Y-89651894D01*
X156325278Y-89192363D01*
X156574716Y-88591648D01*
X156575284Y-87941205D01*
X156326894Y-87340057D01*
X156232003Y-87245000D01*
X160147521Y-87245000D01*
X160054722Y-87337637D01*
X159805284Y-87938352D01*
X159804716Y-88588795D01*
X160053106Y-89189943D01*
X160512637Y-89650278D01*
X161113352Y-89899716D01*
X161763795Y-89900284D01*
X162364943Y-89651894D01*
X162825278Y-89192363D01*
X163074716Y-88591648D01*
X163075122Y-88126702D01*
X164850000Y-89901579D01*
X164850000Y-94614995D01*
X164849999Y-94615000D01*
X164906190Y-94897484D01*
X164917367Y-94953675D01*
X165035030Y-95129771D01*
X165109210Y-95240790D01*
X166804461Y-96936040D01*
X166760907Y-97155000D01*
X166873946Y-97723285D01*
X167195853Y-98205054D01*
X167536553Y-98432702D01*
X167393642Y-98499817D01*
X167003355Y-98928076D01*
X166833524Y-99338110D01*
X166954845Y-99568000D01*
X168148000Y-99568000D01*
X168148000Y-99548000D01*
X168402000Y-99548000D01*
X168402000Y-99568000D01*
X169595155Y-99568000D01*
X169716476Y-99338110D01*
X169546645Y-98928076D01*
X169156358Y-98499817D01*
X169013447Y-98432702D01*
X169354147Y-98205054D01*
X169676054Y-97723285D01*
X169789093Y-97155000D01*
X169676054Y-96586715D01*
X169354147Y-96104946D01*
X169024974Y-95885000D01*
X169354147Y-95665054D01*
X169676054Y-95183285D01*
X169789093Y-94615000D01*
X169676054Y-94046715D01*
X169354147Y-93564946D01*
X169312548Y-93537150D01*
X169360317Y-93528162D01*
X169576441Y-93389090D01*
X169721431Y-93176890D01*
X169772440Y-92925000D01*
X169772440Y-91225000D01*
X169728162Y-90989683D01*
X169589090Y-90773559D01*
X169376890Y-90628569D01*
X169160000Y-90584648D01*
X169160000Y-89535005D01*
X169160001Y-89535000D01*
X169092634Y-89196326D01*
X168978158Y-89025000D01*
X168900790Y-88909210D01*
X168900787Y-88909208D01*
X166794199Y-86802619D01*
X167944613Y-86802619D01*
X168284155Y-87624372D01*
X168912321Y-88253636D01*
X169733481Y-88594611D01*
X170622619Y-88595387D01*
X171444372Y-88255845D01*
X172073636Y-87627679D01*
X172414611Y-86806519D01*
X172415387Y-85917381D01*
X172075845Y-85095628D01*
X171447679Y-84466364D01*
X170626519Y-84125389D01*
X169737381Y-84124613D01*
X168915628Y-84464155D01*
X168286364Y-85092321D01*
X167945389Y-85913481D01*
X167944613Y-86802619D01*
X166794199Y-86802619D01*
X163938580Y-83947000D01*
X172593000Y-83947000D01*
X172593000Y-130683000D01*
X125857000Y-130683000D01*
X125857000Y-128712619D01*
X126034613Y-128712619D01*
X126374155Y-129534372D01*
X127002321Y-130163636D01*
X127823481Y-130504611D01*
X128712619Y-130505387D01*
X129534372Y-130165845D01*
X130163636Y-129537679D01*
X130504611Y-128716519D01*
X130504614Y-128712619D01*
X167944613Y-128712619D01*
X168284155Y-129534372D01*
X168912321Y-130163636D01*
X169733481Y-130504611D01*
X170622619Y-130505387D01*
X171444372Y-130165845D01*
X172073636Y-129537679D01*
X172414611Y-128716519D01*
X172415387Y-127827381D01*
X172075845Y-127005628D01*
X171447679Y-126376364D01*
X170626519Y-126035389D01*
X169737381Y-126034613D01*
X168915628Y-126374155D01*
X168286364Y-127002321D01*
X167945389Y-127823481D01*
X167944613Y-128712619D01*
X130504614Y-128712619D01*
X130505387Y-127827381D01*
X130165845Y-127005628D01*
X129537679Y-126376364D01*
X129359872Y-126302532D01*
X141267073Y-126302532D01*
X141365736Y-126569387D01*
X141975461Y-126795908D01*
X142625460Y-126771856D01*
X143114264Y-126569387D01*
X143212927Y-126302532D01*
X147767073Y-126302532D01*
X147865736Y-126569387D01*
X148475461Y-126795908D01*
X149125460Y-126771856D01*
X149614264Y-126569387D01*
X149712927Y-126302532D01*
X153967073Y-126302532D01*
X154065736Y-126569387D01*
X154675461Y-126795908D01*
X155325460Y-126771856D01*
X155814264Y-126569387D01*
X155912927Y-126302532D01*
X160467073Y-126302532D01*
X160565736Y-126569387D01*
X161175461Y-126795908D01*
X161825460Y-126771856D01*
X162314264Y-126569387D01*
X162412927Y-126302532D01*
X161440000Y-125329605D01*
X160467073Y-126302532D01*
X155912927Y-126302532D01*
X154940000Y-125329605D01*
X153967073Y-126302532D01*
X149712927Y-126302532D01*
X148740000Y-125329605D01*
X147767073Y-126302532D01*
X143212927Y-126302532D01*
X142240000Y-125329605D01*
X141267073Y-126302532D01*
X129359872Y-126302532D01*
X128716519Y-126035389D01*
X127827381Y-126034613D01*
X127005628Y-126374155D01*
X126376364Y-127002321D01*
X126035389Y-127823481D01*
X126034613Y-128712619D01*
X125857000Y-128712619D01*
X125857000Y-124885461D01*
X140594092Y-124885461D01*
X140618144Y-125535460D01*
X140820613Y-126024264D01*
X141087468Y-126122927D01*
X142060395Y-125150000D01*
X142419605Y-125150000D01*
X143392532Y-126122927D01*
X143659387Y-126024264D01*
X143885908Y-125414539D01*
X143866331Y-124885461D01*
X147094092Y-124885461D01*
X147118144Y-125535460D01*
X147320613Y-126024264D01*
X147587468Y-126122927D01*
X148560395Y-125150000D01*
X148919605Y-125150000D01*
X149892532Y-126122927D01*
X150159387Y-126024264D01*
X150385908Y-125414539D01*
X150366331Y-124885461D01*
X153294092Y-124885461D01*
X153318144Y-125535460D01*
X153520613Y-126024264D01*
X153787468Y-126122927D01*
X154760395Y-125150000D01*
X155119605Y-125150000D01*
X156092532Y-126122927D01*
X156359387Y-126024264D01*
X156585908Y-125414539D01*
X156566331Y-124885461D01*
X159794092Y-124885461D01*
X159818144Y-125535460D01*
X160020613Y-126024264D01*
X160287468Y-126122927D01*
X161260395Y-125150000D01*
X161619605Y-125150000D01*
X162592532Y-126122927D01*
X162859387Y-126024264D01*
X163085908Y-125414539D01*
X163061856Y-124764540D01*
X162859387Y-124275736D01*
X162592532Y-124177073D01*
X161619605Y-125150000D01*
X161260395Y-125150000D01*
X160287468Y-124177073D01*
X160020613Y-124275736D01*
X159794092Y-124885461D01*
X156566331Y-124885461D01*
X156561856Y-124764540D01*
X156359387Y-124275736D01*
X156092532Y-124177073D01*
X155119605Y-125150000D01*
X154760395Y-125150000D01*
X153787468Y-124177073D01*
X153520613Y-124275736D01*
X153294092Y-124885461D01*
X150366331Y-124885461D01*
X150361856Y-124764540D01*
X150159387Y-124275736D01*
X149892532Y-124177073D01*
X148919605Y-125150000D01*
X148560395Y-125150000D01*
X147587468Y-124177073D01*
X147320613Y-124275736D01*
X147094092Y-124885461D01*
X143866331Y-124885461D01*
X143861856Y-124764540D01*
X143659387Y-124275736D01*
X143392532Y-124177073D01*
X142419605Y-125150000D01*
X142060395Y-125150000D01*
X141087468Y-124177073D01*
X140820613Y-124275736D01*
X140594092Y-124885461D01*
X125857000Y-124885461D01*
X125857000Y-102235000D01*
X128660907Y-102235000D01*
X128773946Y-102803285D01*
X129095853Y-103285054D01*
X129425026Y-103505000D01*
X129095853Y-103724946D01*
X128773946Y-104206715D01*
X128660907Y-104775000D01*
X128773946Y-105343285D01*
X129095853Y-105825054D01*
X129425026Y-106045000D01*
X129095853Y-106264946D01*
X128773946Y-106746715D01*
X128660907Y-107315000D01*
X128773946Y-107883285D01*
X129095853Y-108365054D01*
X129425026Y-108585000D01*
X129095853Y-108804946D01*
X128773946Y-109286715D01*
X128660907Y-109855000D01*
X128773946Y-110423285D01*
X129095853Y-110905054D01*
X129425026Y-111125000D01*
X129095853Y-111344946D01*
X128773946Y-111826715D01*
X128660907Y-112395000D01*
X128773946Y-112963285D01*
X129095853Y-113445054D01*
X129425026Y-113665000D01*
X129095853Y-113884946D01*
X128773946Y-114366715D01*
X128660907Y-114935000D01*
X128773946Y-115503285D01*
X129095853Y-115985054D01*
X129425026Y-116205000D01*
X129095853Y-116424946D01*
X128773946Y-116906715D01*
X128660907Y-117475000D01*
X128773946Y-118043285D01*
X129095853Y-118525054D01*
X129425026Y-118745000D01*
X129095853Y-118964946D01*
X128773946Y-119446715D01*
X128660907Y-120015000D01*
X128773946Y-120583285D01*
X129095853Y-121065054D01*
X129425026Y-121285000D01*
X129095853Y-121504946D01*
X128773946Y-121986715D01*
X128660907Y-122555000D01*
X128773946Y-123123285D01*
X129095853Y-123605054D01*
X129577622Y-123926961D01*
X130145907Y-124040000D01*
X130204093Y-124040000D01*
X130772378Y-123926961D01*
X131254147Y-123605054D01*
X131576054Y-123123285D01*
X131689093Y-122555000D01*
X131576054Y-121986715D01*
X131254147Y-121504946D01*
X130924974Y-121285000D01*
X131254147Y-121065054D01*
X131576054Y-120583285D01*
X131689093Y-120015000D01*
X131576054Y-119446715D01*
X131254147Y-118964946D01*
X130924974Y-118745000D01*
X131254147Y-118525054D01*
X131576054Y-118043285D01*
X131689093Y-117475000D01*
X131576054Y-116906715D01*
X131254147Y-116424946D01*
X130924974Y-116205000D01*
X131254147Y-115985054D01*
X131576054Y-115503285D01*
X131689093Y-114935000D01*
X131576054Y-114366715D01*
X131254147Y-113884946D01*
X130924974Y-113665000D01*
X131254147Y-113445054D01*
X131576054Y-112963285D01*
X131689093Y-112395000D01*
X131576054Y-111826715D01*
X131254147Y-111344946D01*
X130924974Y-111125000D01*
X131254147Y-110905054D01*
X131576054Y-110423285D01*
X131689093Y-109855000D01*
X131576054Y-109286715D01*
X131254147Y-108804946D01*
X130924974Y-108585000D01*
X131254147Y-108365054D01*
X131576054Y-107883285D01*
X131689093Y-107315000D01*
X131576054Y-106746715D01*
X131254147Y-106264946D01*
X130924974Y-106045000D01*
X131254147Y-105825054D01*
X131576054Y-105343285D01*
X131689093Y-104775000D01*
X131576054Y-104206715D01*
X131254147Y-103724946D01*
X130924974Y-103505000D01*
X131254147Y-103285054D01*
X131576054Y-102803285D01*
X131689093Y-102235000D01*
X131576054Y-101666715D01*
X131254147Y-101184946D01*
X130913447Y-100957298D01*
X131056358Y-100890183D01*
X131446645Y-100461924D01*
X131616476Y-100051890D01*
X131495155Y-99822000D01*
X130302000Y-99822000D01*
X130302000Y-99842000D01*
X130048000Y-99842000D01*
X130048000Y-99822000D01*
X128854845Y-99822000D01*
X128733524Y-100051890D01*
X128903355Y-100461924D01*
X129293642Y-100890183D01*
X129436553Y-100957298D01*
X129095853Y-101184946D01*
X128773946Y-101666715D01*
X128660907Y-102235000D01*
X125857000Y-102235000D01*
X125857000Y-86802619D01*
X126034613Y-86802619D01*
X126374155Y-87624372D01*
X127002321Y-88253636D01*
X127823481Y-88594611D01*
X128712619Y-88595387D01*
X129534372Y-88255845D01*
X130163636Y-87627679D01*
X130504611Y-86806519D01*
X130505387Y-85917381D01*
X130165845Y-85095628D01*
X129537679Y-84466364D01*
X128716519Y-84125389D01*
X127827381Y-84124613D01*
X127005628Y-84464155D01*
X126376364Y-85092321D01*
X126035389Y-85913481D01*
X126034613Y-86802619D01*
X125857000Y-86802619D01*
X125857000Y-83947000D01*
X136416421Y-83947000D01*
X129785860Y-90577560D01*
X129785860Y-90577560D01*
G37*
X129785860Y-90577560D02*
X129325000Y-90577560D01*
X129089683Y-90621838D01*
X128873559Y-90760910D01*
X128728569Y-90973110D01*
X128677560Y-91225000D01*
X128677560Y-92925000D01*
X128721838Y-93160317D01*
X128860910Y-93376441D01*
X129073110Y-93521431D01*
X129140541Y-93535086D01*
X129095853Y-93564946D01*
X128773946Y-94046715D01*
X128660907Y-94615000D01*
X128773946Y-95183285D01*
X129095853Y-95665054D01*
X129425026Y-95885000D01*
X129095853Y-96104946D01*
X128773946Y-96586715D01*
X128660907Y-97155000D01*
X128773946Y-97723285D01*
X129095853Y-98205054D01*
X129436553Y-98432702D01*
X129293642Y-98499817D01*
X128903355Y-98928076D01*
X128733524Y-99338110D01*
X128854845Y-99568000D01*
X130048000Y-99568000D01*
X130048000Y-99548000D01*
X130302000Y-99548000D01*
X130302000Y-99568000D01*
X131495155Y-99568000D01*
X131616476Y-99338110D01*
X131446645Y-98928076D01*
X131056358Y-98499817D01*
X130913447Y-98432702D01*
X131254147Y-98205054D01*
X131576054Y-97723285D01*
X131689093Y-97155000D01*
X131645539Y-96936041D01*
X140605251Y-87976328D01*
X140605219Y-88013202D01*
X135264210Y-93354210D01*
X135072367Y-93641325D01*
X135072367Y-93641326D01*
X135004999Y-93980000D01*
X135005000Y-93980005D01*
X135005000Y-103284146D01*
X134804683Y-103321838D01*
X134617923Y-103442015D01*
X134451890Y-103328569D01*
X134200000Y-103277560D01*
X132500000Y-103277560D01*
X132264683Y-103321838D01*
X132048559Y-103460910D01*
X131903569Y-103673110D01*
X131852560Y-103925000D01*
X131852560Y-105625000D01*
X131896838Y-105860317D01*
X132035910Y-106076441D01*
X132248110Y-106221431D01*
X132315541Y-106235086D01*
X132270853Y-106264946D01*
X131948946Y-106746715D01*
X131835907Y-107315000D01*
X131948946Y-107883285D01*
X132270853Y-108365054D01*
X132600026Y-108585000D01*
X132270853Y-108804946D01*
X131948946Y-109286715D01*
X131835907Y-109855000D01*
X131948946Y-110423285D01*
X132270853Y-110905054D01*
X132600026Y-111125000D01*
X132270853Y-111344946D01*
X131948946Y-111826715D01*
X131835907Y-112395000D01*
X131948946Y-112963285D01*
X132270853Y-113445054D01*
X132600026Y-113665000D01*
X132270853Y-113884946D01*
X131948946Y-114366715D01*
X131835907Y-114935000D01*
X131948946Y-115503285D01*
X132270853Y-115985054D01*
X132600026Y-116205000D01*
X132270853Y-116424946D01*
X131948946Y-116906715D01*
X131835907Y-117475000D01*
X131948946Y-118043285D01*
X132270853Y-118525054D01*
X132600026Y-118745000D01*
X132270853Y-118964946D01*
X131948946Y-119446715D01*
X131835907Y-120015000D01*
X131948946Y-120583285D01*
X132270853Y-121065054D01*
X132600026Y-121285000D01*
X132270853Y-121504946D01*
X131948946Y-121986715D01*
X131835907Y-122555000D01*
X131948946Y-123123285D01*
X132270853Y-123605054D01*
X132752622Y-123926961D01*
X133320907Y-124040000D01*
X133379093Y-124040000D01*
X133947378Y-123926961D01*
X134429147Y-123605054D01*
X134620000Y-123319422D01*
X134810853Y-123605054D01*
X135292622Y-123926961D01*
X135860907Y-124040000D01*
X135919093Y-124040000D01*
X136132915Y-123997468D01*
X141267073Y-123997468D01*
X142240000Y-124970395D01*
X143212927Y-123997468D01*
X147767073Y-123997468D01*
X148740000Y-124970395D01*
X149712927Y-123997468D01*
X153967073Y-123997468D01*
X154940000Y-124970395D01*
X155912927Y-123997468D01*
X160467073Y-123997468D01*
X161440000Y-124970395D01*
X162412927Y-123997468D01*
X162314264Y-123730613D01*
X161704539Y-123504092D01*
X161054540Y-123528144D01*
X160565736Y-123730613D01*
X160467073Y-123997468D01*
X155912927Y-123997468D01*
X155814264Y-123730613D01*
X155204539Y-123504092D01*
X154554540Y-123528144D01*
X154065736Y-123730613D01*
X153967073Y-123997468D01*
X149712927Y-123997468D01*
X149614264Y-123730613D01*
X149004539Y-123504092D01*
X148354540Y-123528144D01*
X147865736Y-123730613D01*
X147767073Y-123997468D01*
X143212927Y-123997468D01*
X143114264Y-123730613D01*
X142504539Y-123504092D01*
X141854540Y-123528144D01*
X141365736Y-123730613D01*
X141267073Y-123997468D01*
X136132915Y-123997468D01*
X136487378Y-123926961D01*
X136969147Y-123605054D01*
X137079432Y-123440000D01*
X153034995Y-123440000D01*
X153035000Y-123440001D01*
X153317484Y-123383810D01*
X153373675Y-123372633D01*
X153660790Y-123180790D01*
X154573437Y-122268142D01*
X154613352Y-122284716D01*
X155263795Y-122285284D01*
X155864943Y-122036894D01*
X156325278Y-121577363D01*
X156574716Y-120976648D01*
X156574718Y-120973795D01*
X159804716Y-120973795D01*
X160053106Y-121574943D01*
X160512637Y-122035278D01*
X161113352Y-122284716D01*
X161763795Y-122285284D01*
X162364943Y-122036894D01*
X162825278Y-121577363D01*
X163074716Y-120976648D01*
X163075284Y-120326205D01*
X162826894Y-119725057D01*
X162367363Y-119264722D01*
X162325000Y-119247131D01*
X162325000Y-118735637D01*
X162462036Y-118708379D01*
X162895142Y-118418988D01*
X163184533Y-117985882D01*
X163286154Y-117475000D01*
X163184533Y-116964118D01*
X162895142Y-116531012D01*
X162462036Y-116241621D01*
X161951154Y-116140000D01*
X161898846Y-116140000D01*
X161387964Y-116241621D01*
X160954858Y-116531012D01*
X160665467Y-116964118D01*
X160563846Y-117475000D01*
X160607659Y-117695264D01*
X160554999Y-117960000D01*
X160555000Y-117960005D01*
X160555000Y-119246602D01*
X160515057Y-119263106D01*
X160054722Y-119722637D01*
X159805284Y-120323352D01*
X159804716Y-120973795D01*
X156574718Y-120973795D01*
X156575284Y-120326205D01*
X156326894Y-119725057D01*
X155867363Y-119264722D01*
X155266648Y-119015284D01*
X154616205Y-119014716D01*
X154015057Y-119263106D01*
X153554722Y-119722637D01*
X153305284Y-120323352D01*
X153304716Y-120973795D01*
X153322232Y-121016188D01*
X152668420Y-121670000D01*
X150032479Y-121670000D01*
X150125278Y-121577363D01*
X150374716Y-120976648D01*
X150375284Y-120326205D01*
X150126894Y-119725057D01*
X149667363Y-119264722D01*
X149066648Y-119015284D01*
X148416205Y-119014716D01*
X147815057Y-119263106D01*
X147354722Y-119722637D01*
X147105284Y-120323352D01*
X147104716Y-120973795D01*
X147353106Y-121574943D01*
X147447997Y-121670000D01*
X143532479Y-121670000D01*
X143625278Y-121577363D01*
X143874716Y-120976648D01*
X143875284Y-120326205D01*
X143626894Y-119725057D01*
X143167363Y-119264722D01*
X143125000Y-119247131D01*
X143125000Y-118110005D01*
X143125001Y-118110000D01*
X143057634Y-117771326D01*
X142957407Y-117621325D01*
X142941718Y-117597846D01*
X142966154Y-117475000D01*
X142889573Y-117090000D01*
X147939349Y-117090000D01*
X147890232Y-117208287D01*
X147889769Y-117739383D01*
X148092582Y-118230229D01*
X148467796Y-118606098D01*
X148958287Y-118809768D01*
X149489383Y-118810231D01*
X149980229Y-118607418D01*
X150356098Y-118232204D01*
X150559768Y-117741713D01*
X150560231Y-117210617D01*
X150421139Y-116873988D01*
X150485790Y-116830790D01*
X153334273Y-113982307D01*
X153294092Y-114090461D01*
X153318144Y-114740460D01*
X153520613Y-115229264D01*
X153787468Y-115327927D01*
X154760395Y-114355000D01*
X154746253Y-114340858D01*
X154925858Y-114161253D01*
X154940000Y-114175395D01*
X154954143Y-114161253D01*
X155133748Y-114340858D01*
X155119605Y-114355000D01*
X155133748Y-114369143D01*
X154954143Y-114548748D01*
X154940000Y-114534605D01*
X153967073Y-115507532D01*
X154065736Y-115774387D01*
X154567588Y-115960832D01*
X154388348Y-116140072D01*
X154040617Y-116139769D01*
X153549771Y-116342582D01*
X153173902Y-116717796D01*
X152970232Y-117208287D01*
X152969769Y-117739383D01*
X153172582Y-118230229D01*
X153547796Y-118606098D01*
X154038287Y-118809768D01*
X154569383Y-118810231D01*
X155060229Y-118607418D01*
X155436098Y-118232204D01*
X155639768Y-117741713D01*
X155640073Y-117391506D01*
X157470787Y-115560792D01*
X157470790Y-115560790D01*
X157506375Y-115507532D01*
X160467073Y-115507532D01*
X160565736Y-115774387D01*
X161175461Y-116000908D01*
X161825460Y-115976856D01*
X162314264Y-115774387D01*
X162412927Y-115507532D01*
X161440000Y-114534605D01*
X160467073Y-115507532D01*
X157506375Y-115507532D01*
X157662633Y-115273675D01*
X157730000Y-114935000D01*
X157730000Y-114090461D01*
X159794092Y-114090461D01*
X159818144Y-114740460D01*
X160020613Y-115229264D01*
X160287468Y-115327927D01*
X161260395Y-114355000D01*
X161619605Y-114355000D01*
X162592532Y-115327927D01*
X162859387Y-115229264D01*
X163085908Y-114619539D01*
X163061856Y-113969540D01*
X162859387Y-113480736D01*
X162592532Y-113382073D01*
X161619605Y-114355000D01*
X161260395Y-114355000D01*
X160287468Y-113382073D01*
X160020613Y-113480736D01*
X159794092Y-114090461D01*
X157730000Y-114090461D01*
X157730000Y-113202468D01*
X160467073Y-113202468D01*
X161440000Y-114175395D01*
X162412927Y-113202468D01*
X162314264Y-112935613D01*
X161704539Y-112709092D01*
X161054540Y-112733144D01*
X160565736Y-112935613D01*
X160467073Y-113202468D01*
X157730000Y-113202468D01*
X157730000Y-110178795D01*
X159804716Y-110178795D01*
X160053106Y-110779943D01*
X160512637Y-111240278D01*
X161113352Y-111489716D01*
X161763795Y-111490284D01*
X162364943Y-111241894D01*
X162825278Y-110782363D01*
X163074716Y-110181648D01*
X163075284Y-109531205D01*
X162826894Y-108930057D01*
X162367363Y-108469722D01*
X162325000Y-108452131D01*
X162325000Y-107940637D01*
X162462036Y-107913379D01*
X162895142Y-107623988D01*
X163184533Y-107190882D01*
X163286154Y-106680000D01*
X163184533Y-106169118D01*
X162895142Y-105736012D01*
X162462036Y-105446621D01*
X161951154Y-105345000D01*
X161898846Y-105345000D01*
X161387964Y-105446621D01*
X160954858Y-105736012D01*
X160665467Y-106169118D01*
X160563846Y-106680000D01*
X160607659Y-106900264D01*
X160554999Y-107165000D01*
X160555000Y-107165005D01*
X160555000Y-108451602D01*
X160515057Y-108468106D01*
X160054722Y-108927637D01*
X159805284Y-109528352D01*
X159804716Y-110178795D01*
X157730000Y-110178795D01*
X157730000Y-109220000D01*
X157662633Y-108881325D01*
X157470790Y-108594210D01*
X157470787Y-108594208D01*
X155874080Y-106997500D01*
X157470787Y-105400792D01*
X157470790Y-105400790D01*
X157662633Y-105113675D01*
X157689345Y-104979387D01*
X157730001Y-104775000D01*
X157730000Y-104774995D01*
X157730000Y-104712532D01*
X160467073Y-104712532D01*
X160565736Y-104979387D01*
X161175461Y-105205908D01*
X161825460Y-105181856D01*
X162314264Y-104979387D01*
X162412927Y-104712532D01*
X161440000Y-103739605D01*
X160467073Y-104712532D01*
X157730000Y-104712532D01*
X157730000Y-103295461D01*
X159794092Y-103295461D01*
X159818144Y-103945460D01*
X160020613Y-104434264D01*
X160287468Y-104532927D01*
X161260395Y-103560000D01*
X161619605Y-103560000D01*
X162592532Y-104532927D01*
X162859387Y-104434264D01*
X163085908Y-103824539D01*
X163061856Y-103174540D01*
X162859387Y-102685736D01*
X162592532Y-102587073D01*
X161619605Y-103560000D01*
X161260395Y-103560000D01*
X160287468Y-102587073D01*
X160020613Y-102685736D01*
X159794092Y-103295461D01*
X157730000Y-103295461D01*
X157730000Y-102407468D01*
X160467073Y-102407468D01*
X161440000Y-103380395D01*
X162412927Y-102407468D01*
X162349162Y-102235000D01*
X166760907Y-102235000D01*
X166873946Y-102803285D01*
X167195853Y-103285054D01*
X167525026Y-103505000D01*
X167195853Y-103724946D01*
X166873946Y-104206715D01*
X166760907Y-104775000D01*
X166873946Y-105343285D01*
X167195853Y-105825054D01*
X167525026Y-106045000D01*
X167195853Y-106264946D01*
X166873946Y-106746715D01*
X166760907Y-107315000D01*
X166873946Y-107883285D01*
X167195853Y-108365054D01*
X167525026Y-108585000D01*
X167195853Y-108804946D01*
X166873946Y-109286715D01*
X166760907Y-109855000D01*
X166873946Y-110423285D01*
X167195853Y-110905054D01*
X167525026Y-111125000D01*
X167195853Y-111344946D01*
X166873946Y-111826715D01*
X166760907Y-112395000D01*
X166873946Y-112963285D01*
X167195853Y-113445054D01*
X167525026Y-113665000D01*
X167195853Y-113884946D01*
X166873946Y-114366715D01*
X166760907Y-114935000D01*
X166873946Y-115503285D01*
X167195853Y-115985054D01*
X167525026Y-116205000D01*
X167195853Y-116424946D01*
X166873946Y-116906715D01*
X166760907Y-117475000D01*
X166873946Y-118043285D01*
X167195853Y-118525054D01*
X167525026Y-118745000D01*
X167195853Y-118964946D01*
X166873946Y-119446715D01*
X166760907Y-120015000D01*
X166873946Y-120583285D01*
X167195853Y-121065054D01*
X167525026Y-121285000D01*
X167195853Y-121504946D01*
X166873946Y-121986715D01*
X166760907Y-122555000D01*
X166873946Y-123123285D01*
X167195853Y-123605054D01*
X167677622Y-123926961D01*
X168245907Y-124040000D01*
X168304093Y-124040000D01*
X168872378Y-123926961D01*
X169354147Y-123605054D01*
X169676054Y-123123285D01*
X169789093Y-122555000D01*
X169676054Y-121986715D01*
X169354147Y-121504946D01*
X169024974Y-121285000D01*
X169354147Y-121065054D01*
X169676054Y-120583285D01*
X169789093Y-120015000D01*
X169676054Y-119446715D01*
X169354147Y-118964946D01*
X169024974Y-118745000D01*
X169354147Y-118525054D01*
X169676054Y-118043285D01*
X169789093Y-117475000D01*
X169676054Y-116906715D01*
X169354147Y-116424946D01*
X169024974Y-116205000D01*
X169354147Y-115985054D01*
X169676054Y-115503285D01*
X169789093Y-114935000D01*
X169676054Y-114366715D01*
X169354147Y-113884946D01*
X169024974Y-113665000D01*
X169354147Y-113445054D01*
X169676054Y-112963285D01*
X169789093Y-112395000D01*
X169676054Y-111826715D01*
X169354147Y-111344946D01*
X169024974Y-111125000D01*
X169354147Y-110905054D01*
X169676054Y-110423285D01*
X169789093Y-109855000D01*
X169676054Y-109286715D01*
X169354147Y-108804946D01*
X169024974Y-108585000D01*
X169354147Y-108365054D01*
X169676054Y-107883285D01*
X169789093Y-107315000D01*
X169676054Y-106746715D01*
X169354147Y-106264946D01*
X169024974Y-106045000D01*
X169354147Y-105825054D01*
X169676054Y-105343285D01*
X169789093Y-104775000D01*
X169676054Y-104206715D01*
X169354147Y-103724946D01*
X169024974Y-103505000D01*
X169354147Y-103285054D01*
X169676054Y-102803285D01*
X169789093Y-102235000D01*
X169676054Y-101666715D01*
X169354147Y-101184946D01*
X169013447Y-100957298D01*
X169156358Y-100890183D01*
X169546645Y-100461924D01*
X169716476Y-100051890D01*
X169595155Y-99822000D01*
X168402000Y-99822000D01*
X168402000Y-99842000D01*
X168148000Y-99842000D01*
X168148000Y-99822000D01*
X166954845Y-99822000D01*
X166833524Y-100051890D01*
X167003355Y-100461924D01*
X167393642Y-100890183D01*
X167536553Y-100957298D01*
X167195853Y-101184946D01*
X166873946Y-101666715D01*
X166760907Y-102235000D01*
X162349162Y-102235000D01*
X162314264Y-102140613D01*
X161704539Y-101914092D01*
X161054540Y-101938144D01*
X160565736Y-102140613D01*
X160467073Y-102407468D01*
X157730000Y-102407468D01*
X157730000Y-99383795D01*
X159804716Y-99383795D01*
X160053106Y-99984943D01*
X160512637Y-100445278D01*
X161113352Y-100694716D01*
X161763795Y-100695284D01*
X162364943Y-100446894D01*
X162825278Y-99987363D01*
X163074716Y-99386648D01*
X163075284Y-98736205D01*
X162826894Y-98135057D01*
X162367363Y-97674722D01*
X162325000Y-97657131D01*
X162325000Y-97145637D01*
X162462036Y-97118379D01*
X162895142Y-96828988D01*
X163184533Y-96395882D01*
X163286154Y-95885000D01*
X163184533Y-95374118D01*
X162895142Y-94941012D01*
X162462036Y-94651621D01*
X161951154Y-94550000D01*
X161898846Y-94550000D01*
X161387964Y-94651621D01*
X160954858Y-94941012D01*
X160665467Y-95374118D01*
X160563846Y-95885000D01*
X160607659Y-96105264D01*
X160554999Y-96370000D01*
X160555000Y-96370005D01*
X160555000Y-97656602D01*
X160515057Y-97673106D01*
X160054722Y-98132637D01*
X159805284Y-98733352D01*
X159804716Y-99383795D01*
X157730000Y-99383795D01*
X157730000Y-98425000D01*
X157662633Y-98086325D01*
X157470790Y-97799210D01*
X157470787Y-97799208D01*
X155639928Y-95968348D01*
X155640231Y-95620617D01*
X155437418Y-95129771D01*
X155062204Y-94753902D01*
X154571713Y-94550232D01*
X154040617Y-94549769D01*
X153549771Y-94752582D01*
X153173902Y-95127796D01*
X152970232Y-95618287D01*
X152969769Y-96149383D01*
X153172582Y-96640229D01*
X153547796Y-97016098D01*
X154038287Y-97219768D01*
X154388494Y-97220073D01*
X154599881Y-97431461D01*
X154015057Y-97673106D01*
X153554722Y-98132637D01*
X153305284Y-98733352D01*
X153304716Y-99383795D01*
X153553106Y-99984943D01*
X153793082Y-100225339D01*
X150379056Y-103639364D01*
X150361856Y-103174540D01*
X150159387Y-102685736D01*
X149892532Y-102587073D01*
X148919605Y-103560000D01*
X148933748Y-103574143D01*
X148754143Y-103753748D01*
X148740000Y-103739605D01*
X148725858Y-103753748D01*
X148546253Y-103574143D01*
X148560395Y-103560000D01*
X147587468Y-102587073D01*
X147320613Y-102685736D01*
X147094092Y-103295461D01*
X147118144Y-103945460D01*
X147320613Y-104434264D01*
X147566028Y-104525000D01*
X143413972Y-104525000D01*
X143659387Y-104434264D01*
X143885908Y-103824539D01*
X143861856Y-103174540D01*
X143659387Y-102685736D01*
X143392532Y-102587073D01*
X142419605Y-103560000D01*
X142433748Y-103574143D01*
X142254143Y-103753748D01*
X142240000Y-103739605D01*
X142225858Y-103753748D01*
X142046253Y-103574143D01*
X142060395Y-103560000D01*
X141087468Y-102587073D01*
X140820613Y-102685736D01*
X140594092Y-103295461D01*
X140618144Y-103945460D01*
X140820613Y-104434264D01*
X141066028Y-104525000D01*
X140970005Y-104525000D01*
X140970000Y-104524999D01*
X140631326Y-104592366D01*
X140631324Y-104592367D01*
X140631325Y-104592367D01*
X140344210Y-104784210D01*
X140344208Y-104784213D01*
X139950000Y-105178420D01*
X139950000Y-102601580D01*
X140144111Y-102407468D01*
X141267073Y-102407468D01*
X142240000Y-103380395D01*
X143212927Y-102407468D01*
X147767073Y-102407468D01*
X148740000Y-103380395D01*
X149712927Y-102407468D01*
X149614264Y-102140613D01*
X149004539Y-101914092D01*
X148354540Y-101938144D01*
X147865736Y-102140613D01*
X147767073Y-102407468D01*
X143212927Y-102407468D01*
X143114264Y-102140613D01*
X142504539Y-101914092D01*
X141854540Y-101938144D01*
X141365736Y-102140613D01*
X141267073Y-102407468D01*
X140144111Y-102407468D01*
X141873437Y-100678142D01*
X141913352Y-100694716D01*
X142563795Y-100695284D01*
X143164943Y-100446894D01*
X143625278Y-99987363D01*
X143874716Y-99386648D01*
X143874718Y-99383795D01*
X147104716Y-99383795D01*
X147353106Y-99984943D01*
X147812637Y-100445278D01*
X148413352Y-100694716D01*
X149063795Y-100695284D01*
X149664943Y-100446894D01*
X150125278Y-99987363D01*
X150374716Y-99386648D01*
X150375284Y-98736205D01*
X150126894Y-98135057D01*
X149667363Y-97674722D01*
X149066648Y-97425284D01*
X148416205Y-97424716D01*
X147815057Y-97673106D01*
X147354722Y-98132637D01*
X147105284Y-98733352D01*
X147104716Y-99383795D01*
X143874718Y-99383795D01*
X143875284Y-98736205D01*
X143626894Y-98135057D01*
X143167363Y-97674722D01*
X143125000Y-97657131D01*
X143125000Y-96520005D01*
X143125001Y-96520000D01*
X143057634Y-96181326D01*
X143036291Y-96149383D01*
X147889769Y-96149383D01*
X148092582Y-96640229D01*
X148467796Y-97016098D01*
X148958287Y-97219768D01*
X149489383Y-97220231D01*
X149980229Y-97017418D01*
X150356098Y-96642204D01*
X150559768Y-96151713D01*
X150560231Y-95620617D01*
X150357418Y-95129771D01*
X149982204Y-94753902D01*
X149491713Y-94550232D01*
X148960617Y-94549769D01*
X148469771Y-94752582D01*
X148093902Y-95127796D01*
X147890232Y-95618287D01*
X147889769Y-96149383D01*
X143036291Y-96149383D01*
X142941718Y-96007846D01*
X142966154Y-95885000D01*
X142864533Y-95374118D01*
X142575142Y-94941012D01*
X142142036Y-94651621D01*
X141631154Y-94550000D01*
X141578846Y-94550000D01*
X141067964Y-94651621D01*
X140634858Y-94941012D01*
X140345467Y-95374118D01*
X140243846Y-95885000D01*
X140345467Y-96395882D01*
X140634858Y-96828988D01*
X141067964Y-97118379D01*
X141355000Y-97175474D01*
X141355000Y-97656602D01*
X141315057Y-97673106D01*
X140854722Y-98132637D01*
X140605284Y-98733352D01*
X140604716Y-99383795D01*
X140622233Y-99426188D01*
X138680000Y-101368420D01*
X138680000Y-94346580D01*
X139109048Y-93917532D01*
X141267073Y-93917532D01*
X141365736Y-94184387D01*
X141975461Y-94410908D01*
X142625460Y-94386856D01*
X143114264Y-94184387D01*
X143212927Y-93917532D01*
X147767073Y-93917532D01*
X147865736Y-94184387D01*
X148475461Y-94410908D01*
X149125460Y-94386856D01*
X149614264Y-94184387D01*
X149712927Y-93917532D01*
X153967073Y-93917532D01*
X154065736Y-94184387D01*
X154675461Y-94410908D01*
X155325460Y-94386856D01*
X155814264Y-94184387D01*
X155912927Y-93917532D01*
X160467073Y-93917532D01*
X160565736Y-94184387D01*
X161175461Y-94410908D01*
X161825460Y-94386856D01*
X162314264Y-94184387D01*
X162412927Y-93917532D01*
X161440000Y-92944605D01*
X160467073Y-93917532D01*
X155912927Y-93917532D01*
X154940000Y-92944605D01*
X153967073Y-93917532D01*
X149712927Y-93917532D01*
X148740000Y-92944605D01*
X147767073Y-93917532D01*
X143212927Y-93917532D01*
X142240000Y-92944605D01*
X141267073Y-93917532D01*
X139109048Y-93917532D01*
X140634273Y-92392307D01*
X140594092Y-92500461D01*
X140618144Y-93150460D01*
X140820613Y-93639264D01*
X141087468Y-93737927D01*
X142060395Y-92765000D01*
X142419605Y-92765000D01*
X143392532Y-93737927D01*
X143659387Y-93639264D01*
X143885908Y-93029539D01*
X143866331Y-92500461D01*
X147094092Y-92500461D01*
X147118144Y-93150460D01*
X147320613Y-93639264D01*
X147587468Y-93737927D01*
X148560395Y-92765000D01*
X148919605Y-92765000D01*
X149892532Y-93737927D01*
X150159387Y-93639264D01*
X150385908Y-93029539D01*
X150366331Y-92500461D01*
X153294092Y-92500461D01*
X153318144Y-93150460D01*
X153520613Y-93639264D01*
X153787468Y-93737927D01*
X154760395Y-92765000D01*
X155119605Y-92765000D01*
X156092532Y-93737927D01*
X156359387Y-93639264D01*
X156585908Y-93029539D01*
X156566331Y-92500461D01*
X159794092Y-92500461D01*
X159818144Y-93150460D01*
X160020613Y-93639264D01*
X160287468Y-93737927D01*
X161260395Y-92765000D01*
X161619605Y-92765000D01*
X162592532Y-93737927D01*
X162859387Y-93639264D01*
X163085908Y-93029539D01*
X163061856Y-92379540D01*
X162859387Y-91890736D01*
X162592532Y-91792073D01*
X161619605Y-92765000D01*
X161260395Y-92765000D01*
X160287468Y-91792073D01*
X160020613Y-91890736D01*
X159794092Y-92500461D01*
X156566331Y-92500461D01*
X156561856Y-92379540D01*
X156359387Y-91890736D01*
X156092532Y-91792073D01*
X155119605Y-92765000D01*
X154760395Y-92765000D01*
X153787468Y-91792073D01*
X153520613Y-91890736D01*
X153294092Y-92500461D01*
X150366331Y-92500461D01*
X150361856Y-92379540D01*
X150159387Y-91890736D01*
X149892532Y-91792073D01*
X148919605Y-92765000D01*
X148560395Y-92765000D01*
X147587468Y-91792073D01*
X147320613Y-91890736D01*
X147094092Y-92500461D01*
X143866331Y-92500461D01*
X143861856Y-92379540D01*
X143659387Y-91890736D01*
X143392532Y-91792073D01*
X142419605Y-92765000D01*
X142060395Y-92765000D01*
X142046253Y-92750858D01*
X142225858Y-92571253D01*
X142240000Y-92585395D01*
X143212927Y-91612468D01*
X147767073Y-91612468D01*
X148740000Y-92585395D01*
X149712927Y-91612468D01*
X153967073Y-91612468D01*
X154940000Y-92585395D01*
X155912927Y-91612468D01*
X160467073Y-91612468D01*
X161440000Y-92585395D01*
X162412927Y-91612468D01*
X162314264Y-91345613D01*
X161704539Y-91119092D01*
X161054540Y-91143144D01*
X160565736Y-91345613D01*
X160467073Y-91612468D01*
X155912927Y-91612468D01*
X155814264Y-91345613D01*
X155204539Y-91119092D01*
X154554540Y-91143144D01*
X154065736Y-91345613D01*
X153967073Y-91612468D01*
X149712927Y-91612468D01*
X149614264Y-91345613D01*
X149004539Y-91119092D01*
X148354540Y-91143144D01*
X147865736Y-91345613D01*
X147767073Y-91612468D01*
X143212927Y-91612468D01*
X143114264Y-91345613D01*
X142504539Y-91119092D01*
X141884545Y-91142034D01*
X141971579Y-91055000D01*
X153034995Y-91055000D01*
X153035000Y-91055001D01*
X153317484Y-90998810D01*
X153373675Y-90987633D01*
X153660790Y-90795790D01*
X153660791Y-90795789D01*
X154573437Y-89883142D01*
X154613352Y-89899716D01*
X155263795Y-89900284D01*
X155864943Y-89651894D01*
X156325278Y-89192363D01*
X156574716Y-88591648D01*
X156575284Y-87941205D01*
X156326894Y-87340057D01*
X156232003Y-87245000D01*
X160147521Y-87245000D01*
X160054722Y-87337637D01*
X159805284Y-87938352D01*
X159804716Y-88588795D01*
X160053106Y-89189943D01*
X160512637Y-89650278D01*
X161113352Y-89899716D01*
X161763795Y-89900284D01*
X162364943Y-89651894D01*
X162825278Y-89192363D01*
X163074716Y-88591648D01*
X163075122Y-88126702D01*
X164850000Y-89901579D01*
X164850000Y-94614995D01*
X164849999Y-94615000D01*
X164906190Y-94897484D01*
X164917367Y-94953675D01*
X165035030Y-95129771D01*
X165109210Y-95240790D01*
X166804461Y-96936040D01*
X166760907Y-97155000D01*
X166873946Y-97723285D01*
X167195853Y-98205054D01*
X167536553Y-98432702D01*
X167393642Y-98499817D01*
X167003355Y-98928076D01*
X166833524Y-99338110D01*
X166954845Y-99568000D01*
X168148000Y-99568000D01*
X168148000Y-99548000D01*
X168402000Y-99548000D01*
X168402000Y-99568000D01*
X169595155Y-99568000D01*
X169716476Y-99338110D01*
X169546645Y-98928076D01*
X169156358Y-98499817D01*
X169013447Y-98432702D01*
X169354147Y-98205054D01*
X169676054Y-97723285D01*
X169789093Y-97155000D01*
X169676054Y-96586715D01*
X169354147Y-96104946D01*
X169024974Y-95885000D01*
X169354147Y-95665054D01*
X169676054Y-95183285D01*
X169789093Y-94615000D01*
X169676054Y-94046715D01*
X169354147Y-93564946D01*
X169312548Y-93537150D01*
X169360317Y-93528162D01*
X169576441Y-93389090D01*
X169721431Y-93176890D01*
X169772440Y-92925000D01*
X169772440Y-91225000D01*
X169728162Y-90989683D01*
X169589090Y-90773559D01*
X169376890Y-90628569D01*
X169160000Y-90584648D01*
X169160000Y-89535005D01*
X169160001Y-89535000D01*
X169092634Y-89196326D01*
X168978158Y-89025000D01*
X168900790Y-88909210D01*
X168900787Y-88909208D01*
X166794199Y-86802619D01*
X167944613Y-86802619D01*
X168284155Y-87624372D01*
X168912321Y-88253636D01*
X169733481Y-88594611D01*
X170622619Y-88595387D01*
X171444372Y-88255845D01*
X172073636Y-87627679D01*
X172414611Y-86806519D01*
X172415387Y-85917381D01*
X172075845Y-85095628D01*
X171447679Y-84466364D01*
X170626519Y-84125389D01*
X169737381Y-84124613D01*
X168915628Y-84464155D01*
X168286364Y-85092321D01*
X167945389Y-85913481D01*
X167944613Y-86802619D01*
X166794199Y-86802619D01*
X163938580Y-83947000D01*
X172593000Y-83947000D01*
X172593000Y-130683000D01*
X125857000Y-130683000D01*
X125857000Y-128712619D01*
X126034613Y-128712619D01*
X126374155Y-129534372D01*
X127002321Y-130163636D01*
X127823481Y-130504611D01*
X128712619Y-130505387D01*
X129534372Y-130165845D01*
X130163636Y-129537679D01*
X130504611Y-128716519D01*
X130504614Y-128712619D01*
X167944613Y-128712619D01*
X168284155Y-129534372D01*
X168912321Y-130163636D01*
X169733481Y-130504611D01*
X170622619Y-130505387D01*
X171444372Y-130165845D01*
X172073636Y-129537679D01*
X172414611Y-128716519D01*
X172415387Y-127827381D01*
X172075845Y-127005628D01*
X171447679Y-126376364D01*
X170626519Y-126035389D01*
X169737381Y-126034613D01*
X168915628Y-126374155D01*
X168286364Y-127002321D01*
X167945389Y-127823481D01*
X167944613Y-128712619D01*
X130504614Y-128712619D01*
X130505387Y-127827381D01*
X130165845Y-127005628D01*
X129537679Y-126376364D01*
X129359872Y-126302532D01*
X141267073Y-126302532D01*
X141365736Y-126569387D01*
X141975461Y-126795908D01*
X142625460Y-126771856D01*
X143114264Y-126569387D01*
X143212927Y-126302532D01*
X147767073Y-126302532D01*
X147865736Y-126569387D01*
X148475461Y-126795908D01*
X149125460Y-126771856D01*
X149614264Y-126569387D01*
X149712927Y-126302532D01*
X153967073Y-126302532D01*
X154065736Y-126569387D01*
X154675461Y-126795908D01*
X155325460Y-126771856D01*
X155814264Y-126569387D01*
X155912927Y-126302532D01*
X160467073Y-126302532D01*
X160565736Y-126569387D01*
X161175461Y-126795908D01*
X161825460Y-126771856D01*
X162314264Y-126569387D01*
X162412927Y-126302532D01*
X161440000Y-125329605D01*
X160467073Y-126302532D01*
X155912927Y-126302532D01*
X154940000Y-125329605D01*
X153967073Y-126302532D01*
X149712927Y-126302532D01*
X148740000Y-125329605D01*
X147767073Y-126302532D01*
X143212927Y-126302532D01*
X142240000Y-125329605D01*
X141267073Y-126302532D01*
X129359872Y-126302532D01*
X128716519Y-126035389D01*
X127827381Y-126034613D01*
X127005628Y-126374155D01*
X126376364Y-127002321D01*
X126035389Y-127823481D01*
X126034613Y-128712619D01*
X125857000Y-128712619D01*
X125857000Y-124885461D01*
X140594092Y-124885461D01*
X140618144Y-125535460D01*
X140820613Y-126024264D01*
X141087468Y-126122927D01*
X142060395Y-125150000D01*
X142419605Y-125150000D01*
X143392532Y-126122927D01*
X143659387Y-126024264D01*
X143885908Y-125414539D01*
X143866331Y-124885461D01*
X147094092Y-124885461D01*
X147118144Y-125535460D01*
X147320613Y-126024264D01*
X147587468Y-126122927D01*
X148560395Y-125150000D01*
X148919605Y-125150000D01*
X149892532Y-126122927D01*
X150159387Y-126024264D01*
X150385908Y-125414539D01*
X150366331Y-124885461D01*
X153294092Y-124885461D01*
X153318144Y-125535460D01*
X153520613Y-126024264D01*
X153787468Y-126122927D01*
X154760395Y-125150000D01*
X155119605Y-125150000D01*
X156092532Y-126122927D01*
X156359387Y-126024264D01*
X156585908Y-125414539D01*
X156566331Y-124885461D01*
X159794092Y-124885461D01*
X159818144Y-125535460D01*
X160020613Y-126024264D01*
X160287468Y-126122927D01*
X161260395Y-125150000D01*
X161619605Y-125150000D01*
X162592532Y-126122927D01*
X162859387Y-126024264D01*
X163085908Y-125414539D01*
X163061856Y-124764540D01*
X162859387Y-124275736D01*
X162592532Y-124177073D01*
X161619605Y-125150000D01*
X161260395Y-125150000D01*
X160287468Y-124177073D01*
X160020613Y-124275736D01*
X159794092Y-124885461D01*
X156566331Y-124885461D01*
X156561856Y-124764540D01*
X156359387Y-124275736D01*
X156092532Y-124177073D01*
X155119605Y-125150000D01*
X154760395Y-125150000D01*
X153787468Y-124177073D01*
X153520613Y-124275736D01*
X153294092Y-124885461D01*
X150366331Y-124885461D01*
X150361856Y-124764540D01*
X150159387Y-124275736D01*
X149892532Y-124177073D01*
X148919605Y-125150000D01*
X148560395Y-125150000D01*
X147587468Y-124177073D01*
X147320613Y-124275736D01*
X147094092Y-124885461D01*
X143866331Y-124885461D01*
X143861856Y-124764540D01*
X143659387Y-124275736D01*
X143392532Y-124177073D01*
X142419605Y-125150000D01*
X142060395Y-125150000D01*
X141087468Y-124177073D01*
X140820613Y-124275736D01*
X140594092Y-124885461D01*
X125857000Y-124885461D01*
X125857000Y-102235000D01*
X128660907Y-102235000D01*
X128773946Y-102803285D01*
X129095853Y-103285054D01*
X129425026Y-103505000D01*
X129095853Y-103724946D01*
X128773946Y-104206715D01*
X128660907Y-104775000D01*
X128773946Y-105343285D01*
X129095853Y-105825054D01*
X129425026Y-106045000D01*
X129095853Y-106264946D01*
X128773946Y-106746715D01*
X128660907Y-107315000D01*
X128773946Y-107883285D01*
X129095853Y-108365054D01*
X129425026Y-108585000D01*
X129095853Y-108804946D01*
X128773946Y-109286715D01*
X128660907Y-109855000D01*
X128773946Y-110423285D01*
X129095853Y-110905054D01*
X129425026Y-111125000D01*
X129095853Y-111344946D01*
X128773946Y-111826715D01*
X128660907Y-112395000D01*
X128773946Y-112963285D01*
X129095853Y-113445054D01*
X129425026Y-113665000D01*
X129095853Y-113884946D01*
X128773946Y-114366715D01*
X128660907Y-114935000D01*
X128773946Y-115503285D01*
X129095853Y-115985054D01*
X129425026Y-116205000D01*
X129095853Y-116424946D01*
X128773946Y-116906715D01*
X128660907Y-117475000D01*
X128773946Y-118043285D01*
X129095853Y-118525054D01*
X129425026Y-118745000D01*
X129095853Y-118964946D01*
X128773946Y-119446715D01*
X128660907Y-120015000D01*
X128773946Y-120583285D01*
X129095853Y-121065054D01*
X129425026Y-121285000D01*
X129095853Y-121504946D01*
X128773946Y-121986715D01*
X128660907Y-122555000D01*
X128773946Y-123123285D01*
X129095853Y-123605054D01*
X129577622Y-123926961D01*
X130145907Y-124040000D01*
X130204093Y-124040000D01*
X130772378Y-123926961D01*
X131254147Y-123605054D01*
X131576054Y-123123285D01*
X131689093Y-122555000D01*
X131576054Y-121986715D01*
X131254147Y-121504946D01*
X130924974Y-121285000D01*
X131254147Y-121065054D01*
X131576054Y-120583285D01*
X131689093Y-120015000D01*
X131576054Y-119446715D01*
X131254147Y-118964946D01*
X130924974Y-118745000D01*
X131254147Y-118525054D01*
X131576054Y-118043285D01*
X131689093Y-117475000D01*
X131576054Y-116906715D01*
X131254147Y-116424946D01*
X130924974Y-116205000D01*
X131254147Y-115985054D01*
X131576054Y-115503285D01*
X131689093Y-114935000D01*
X131576054Y-114366715D01*
X131254147Y-113884946D01*
X130924974Y-113665000D01*
X131254147Y-113445054D01*
X131576054Y-112963285D01*
X131689093Y-112395000D01*
X131576054Y-111826715D01*
X131254147Y-111344946D01*
X130924974Y-111125000D01*
X131254147Y-110905054D01*
X131576054Y-110423285D01*
X131689093Y-109855000D01*
X131576054Y-109286715D01*
X131254147Y-108804946D01*
X130924974Y-108585000D01*
X131254147Y-108365054D01*
X131576054Y-107883285D01*
X131689093Y-107315000D01*
X131576054Y-106746715D01*
X131254147Y-106264946D01*
X130924974Y-106045000D01*
X131254147Y-105825054D01*
X131576054Y-105343285D01*
X131689093Y-104775000D01*
X131576054Y-104206715D01*
X131254147Y-103724946D01*
X130924974Y-103505000D01*
X131254147Y-103285054D01*
X131576054Y-102803285D01*
X131689093Y-102235000D01*
X131576054Y-101666715D01*
X131254147Y-101184946D01*
X130913447Y-100957298D01*
X131056358Y-100890183D01*
X131446645Y-100461924D01*
X131616476Y-100051890D01*
X131495155Y-99822000D01*
X130302000Y-99822000D01*
X130302000Y-99842000D01*
X130048000Y-99842000D01*
X130048000Y-99822000D01*
X128854845Y-99822000D01*
X128733524Y-100051890D01*
X128903355Y-100461924D01*
X129293642Y-100890183D01*
X129436553Y-100957298D01*
X129095853Y-101184946D01*
X128773946Y-101666715D01*
X128660907Y-102235000D01*
X125857000Y-102235000D01*
X125857000Y-86802619D01*
X126034613Y-86802619D01*
X126374155Y-87624372D01*
X127002321Y-88253636D01*
X127823481Y-88594611D01*
X128712619Y-88595387D01*
X129534372Y-88255845D01*
X130163636Y-87627679D01*
X130504611Y-86806519D01*
X130505387Y-85917381D01*
X130165845Y-85095628D01*
X129537679Y-84466364D01*
X128716519Y-84125389D01*
X127827381Y-84124613D01*
X127005628Y-84464155D01*
X126376364Y-85092321D01*
X126035389Y-85913481D01*
X126034613Y-86802619D01*
X125857000Y-86802619D01*
X125857000Y-83947000D01*
X136416421Y-83947000D01*
X129785860Y-90577560D01*
G36*
X153294092Y-103295461D02*
X153318144Y-103945460D01*
X153520613Y-104434264D01*
X153787468Y-104532927D01*
X154760395Y-103560000D01*
X154746253Y-103545858D01*
X154925858Y-103366253D01*
X154940000Y-103380395D01*
X154954143Y-103366253D01*
X155133748Y-103545858D01*
X155119605Y-103560000D01*
X155133748Y-103574143D01*
X154954143Y-103753748D01*
X154940000Y-103739605D01*
X153967073Y-104712532D01*
X154065736Y-104979387D01*
X154675461Y-105205908D01*
X155181227Y-105187193D01*
X154890723Y-105477697D01*
X154571713Y-105345232D01*
X154040617Y-105344769D01*
X153549771Y-105547582D01*
X153173902Y-105922796D01*
X152970232Y-106413287D01*
X152969769Y-106944383D01*
X153172582Y-107435229D01*
X153547796Y-107811098D01*
X154038287Y-108014768D01*
X154388494Y-108015073D01*
X154599881Y-108226461D01*
X154015057Y-108468106D01*
X153554722Y-108927637D01*
X153305284Y-109528352D01*
X153304716Y-110178795D01*
X153553106Y-110779943D01*
X153793082Y-111020339D01*
X150379056Y-114434364D01*
X150361856Y-113969540D01*
X150159387Y-113480736D01*
X149892532Y-113382073D01*
X148919605Y-114355000D01*
X148933748Y-114369143D01*
X148754143Y-114548748D01*
X148740000Y-114534605D01*
X148725858Y-114548748D01*
X148546253Y-114369143D01*
X148560395Y-114355000D01*
X147587468Y-113382073D01*
X147320613Y-113480736D01*
X147094092Y-114090461D01*
X147118144Y-114740460D01*
X147320613Y-115229264D01*
X147566028Y-115320000D01*
X143413972Y-115320000D01*
X143659387Y-115229264D01*
X143885908Y-114619539D01*
X143861856Y-113969540D01*
X143659387Y-113480736D01*
X143392532Y-113382073D01*
X142419605Y-114355000D01*
X142433748Y-114369143D01*
X142254143Y-114548748D01*
X142240000Y-114534605D01*
X142225858Y-114548748D01*
X142046253Y-114369143D01*
X142060395Y-114355000D01*
X141087468Y-113382073D01*
X140820613Y-113480736D01*
X140594092Y-114090461D01*
X140618144Y-114740460D01*
X140820613Y-115229264D01*
X141066028Y-115320000D01*
X139700005Y-115320000D01*
X139700000Y-115319999D01*
X139361325Y-115387367D01*
X139074210Y-115579210D01*
X139074208Y-115579213D01*
X138063420Y-116590000D01*
X137079432Y-116590000D01*
X136969147Y-116424946D01*
X136639974Y-116205000D01*
X136969147Y-115985054D01*
X137079432Y-115820000D01*
X137159995Y-115820000D01*
X137160000Y-115820001D01*
X137442484Y-115763810D01*
X137498675Y-115752633D01*
X137785790Y-115560790D01*
X140144111Y-113202468D01*
X141267073Y-113202468D01*
X142240000Y-114175395D01*
X143212927Y-113202468D01*
X147767073Y-113202468D01*
X148740000Y-114175395D01*
X149712927Y-113202468D01*
X149614264Y-112935613D01*
X149004539Y-112709092D01*
X148354540Y-112733144D01*
X147865736Y-112935613D01*
X147767073Y-113202468D01*
X143212927Y-113202468D01*
X143114264Y-112935613D01*
X142504539Y-112709092D01*
X141854540Y-112733144D01*
X141365736Y-112935613D01*
X141267073Y-113202468D01*
X140144111Y-113202468D01*
X141873437Y-111473142D01*
X141913352Y-111489716D01*
X142563795Y-111490284D01*
X143164943Y-111241894D01*
X143625278Y-110782363D01*
X143874716Y-110181648D01*
X143874718Y-110178795D01*
X147104716Y-110178795D01*
X147353106Y-110779943D01*
X147812637Y-111240278D01*
X148413352Y-111489716D01*
X149063795Y-111490284D01*
X149664943Y-111241894D01*
X150125278Y-110782363D01*
X150374716Y-110181648D01*
X150375284Y-109531205D01*
X150126894Y-108930057D01*
X149667363Y-108469722D01*
X149066648Y-108220284D01*
X148416205Y-108219716D01*
X147815057Y-108468106D01*
X147354722Y-108927637D01*
X147105284Y-109528352D01*
X147104716Y-110178795D01*
X143874718Y-110178795D01*
X143875284Y-109531205D01*
X143626894Y-108930057D01*
X143167363Y-108469722D01*
X143125000Y-108452131D01*
X143125000Y-107315005D01*
X143125001Y-107315000D01*
X143057634Y-106976326D01*
X142941718Y-106802846D01*
X142966154Y-106680000D01*
X142889573Y-106295000D01*
X147939349Y-106295000D01*
X147890232Y-106413287D01*
X147889769Y-106944383D01*
X148092582Y-107435229D01*
X148467796Y-107811098D01*
X148958287Y-108014768D01*
X149489383Y-108015231D01*
X149980229Y-107812418D01*
X150356098Y-107437204D01*
X150559768Y-106946713D01*
X150560231Y-106415617D01*
X150421139Y-106078988D01*
X150485790Y-106035790D01*
X153334273Y-103187307D01*
X153294092Y-103295461D01*
X153294092Y-103295461D01*
G37*
X153294092Y-103295461D02*
X153318144Y-103945460D01*
X153520613Y-104434264D01*
X153787468Y-104532927D01*
X154760395Y-103560000D01*
X154746253Y-103545858D01*
X154925858Y-103366253D01*
X154940000Y-103380395D01*
X154954143Y-103366253D01*
X155133748Y-103545858D01*
X155119605Y-103560000D01*
X155133748Y-103574143D01*
X154954143Y-103753748D01*
X154940000Y-103739605D01*
X153967073Y-104712532D01*
X154065736Y-104979387D01*
X154675461Y-105205908D01*
X155181227Y-105187193D01*
X154890723Y-105477697D01*
X154571713Y-105345232D01*
X154040617Y-105344769D01*
X153549771Y-105547582D01*
X153173902Y-105922796D01*
X152970232Y-106413287D01*
X152969769Y-106944383D01*
X153172582Y-107435229D01*
X153547796Y-107811098D01*
X154038287Y-108014768D01*
X154388494Y-108015073D01*
X154599881Y-108226461D01*
X154015057Y-108468106D01*
X153554722Y-108927637D01*
X153305284Y-109528352D01*
X153304716Y-110178795D01*
X153553106Y-110779943D01*
X153793082Y-111020339D01*
X150379056Y-114434364D01*
X150361856Y-113969540D01*
X150159387Y-113480736D01*
X149892532Y-113382073D01*
X148919605Y-114355000D01*
X148933748Y-114369143D01*
X148754143Y-114548748D01*
X148740000Y-114534605D01*
X148725858Y-114548748D01*
X148546253Y-114369143D01*
X148560395Y-114355000D01*
X147587468Y-113382073D01*
X147320613Y-113480736D01*
X147094092Y-114090461D01*
X147118144Y-114740460D01*
X147320613Y-115229264D01*
X147566028Y-115320000D01*
X143413972Y-115320000D01*
X143659387Y-115229264D01*
X143885908Y-114619539D01*
X143861856Y-113969540D01*
X143659387Y-113480736D01*
X143392532Y-113382073D01*
X142419605Y-114355000D01*
X142433748Y-114369143D01*
X142254143Y-114548748D01*
X142240000Y-114534605D01*
X142225858Y-114548748D01*
X142046253Y-114369143D01*
X142060395Y-114355000D01*
X141087468Y-113382073D01*
X140820613Y-113480736D01*
X140594092Y-114090461D01*
X140618144Y-114740460D01*
X140820613Y-115229264D01*
X141066028Y-115320000D01*
X139700005Y-115320000D01*
X139700000Y-115319999D01*
X139361325Y-115387367D01*
X139074210Y-115579210D01*
X139074208Y-115579213D01*
X138063420Y-116590000D01*
X137079432Y-116590000D01*
X136969147Y-116424946D01*
X136639974Y-116205000D01*
X136969147Y-115985054D01*
X137079432Y-115820000D01*
X137159995Y-115820000D01*
X137160000Y-115820001D01*
X137442484Y-115763810D01*
X137498675Y-115752633D01*
X137785790Y-115560790D01*
X140144111Y-113202468D01*
X141267073Y-113202468D01*
X142240000Y-114175395D01*
X143212927Y-113202468D01*
X147767073Y-113202468D01*
X148740000Y-114175395D01*
X149712927Y-113202468D01*
X149614264Y-112935613D01*
X149004539Y-112709092D01*
X148354540Y-112733144D01*
X147865736Y-112935613D01*
X147767073Y-113202468D01*
X143212927Y-113202468D01*
X143114264Y-112935613D01*
X142504539Y-112709092D01*
X141854540Y-112733144D01*
X141365736Y-112935613D01*
X141267073Y-113202468D01*
X140144111Y-113202468D01*
X141873437Y-111473142D01*
X141913352Y-111489716D01*
X142563795Y-111490284D01*
X143164943Y-111241894D01*
X143625278Y-110782363D01*
X143874716Y-110181648D01*
X143874718Y-110178795D01*
X147104716Y-110178795D01*
X147353106Y-110779943D01*
X147812637Y-111240278D01*
X148413352Y-111489716D01*
X149063795Y-111490284D01*
X149664943Y-111241894D01*
X150125278Y-110782363D01*
X150374716Y-110181648D01*
X150375284Y-109531205D01*
X150126894Y-108930057D01*
X149667363Y-108469722D01*
X149066648Y-108220284D01*
X148416205Y-108219716D01*
X147815057Y-108468106D01*
X147354722Y-108927637D01*
X147105284Y-109528352D01*
X147104716Y-110178795D01*
X143874718Y-110178795D01*
X143875284Y-109531205D01*
X143626894Y-108930057D01*
X143167363Y-108469722D01*
X143125000Y-108452131D01*
X143125000Y-107315005D01*
X143125001Y-107315000D01*
X143057634Y-106976326D01*
X142941718Y-106802846D01*
X142966154Y-106680000D01*
X142889573Y-106295000D01*
X147939349Y-106295000D01*
X147890232Y-106413287D01*
X147889769Y-106944383D01*
X148092582Y-107435229D01*
X148467796Y-107811098D01*
X148958287Y-108014768D01*
X149489383Y-108015231D01*
X149980229Y-107812418D01*
X150356098Y-107437204D01*
X150559768Y-106946713D01*
X150560231Y-106415617D01*
X150421139Y-106078988D01*
X150485790Y-106035790D01*
X153334273Y-103187307D01*
X153294092Y-103295461D01*
M02*
