G04 #@! TF.FileFunction,Soldermask,Top*
%FSLAX46Y46*%
G04 Gerber Fmt 4.6, Leading zero omitted, Abs format (unit mm)*
G04 Created by KiCad (PCBNEW 4.0.7+dfsg1-1~bpo9+1) date Mon Apr  2 19:59:58 2018*
%MOMM*%
%LPD*%
G01*
G04 APERTURE LIST*
%ADD10C,0.100000*%
%ADD11R,1.700000X1.700000*%
%ADD12O,1.700000X1.700000*%
%ADD13C,3.200000*%
%ADD14C,1.400000*%
%ADD15O,1.400000X1.400000*%
%ADD16C,2.000000*%
G04 APERTURE END LIST*
D10*
D11*
X168275000Y-92075000D03*
D12*
X168275000Y-94615000D03*
X168275000Y-97155000D03*
X168275000Y-99695000D03*
X168275000Y-102235000D03*
X168275000Y-104775000D03*
X168275000Y-107315000D03*
X168275000Y-109855000D03*
X168275000Y-112395000D03*
X168275000Y-114935000D03*
X168275000Y-117475000D03*
X168275000Y-120015000D03*
X168275000Y-122555000D03*
D13*
X128270000Y-86360000D03*
X170180000Y-86360000D03*
X170180000Y-128270000D03*
X128270000Y-128270000D03*
D11*
X130175000Y-92075000D03*
D12*
X130175000Y-94615000D03*
X130175000Y-97155000D03*
X130175000Y-99695000D03*
X130175000Y-102235000D03*
X130175000Y-104775000D03*
X130175000Y-107315000D03*
X130175000Y-109855000D03*
X130175000Y-112395000D03*
X130175000Y-114935000D03*
X130175000Y-117475000D03*
X130175000Y-120015000D03*
X130175000Y-122555000D03*
D11*
X133350000Y-104775000D03*
D12*
X133350000Y-107315000D03*
X133350000Y-109855000D03*
X133350000Y-112395000D03*
X133350000Y-114935000D03*
X133350000Y-117475000D03*
X133350000Y-120015000D03*
X133350000Y-122555000D03*
D11*
X135890000Y-104775000D03*
D12*
X135890000Y-107315000D03*
X135890000Y-109855000D03*
X135890000Y-112395000D03*
X135890000Y-114935000D03*
X135890000Y-117475000D03*
X135890000Y-120015000D03*
X135890000Y-122555000D03*
D14*
X149225000Y-85090000D03*
D15*
X141605000Y-85090000D03*
D14*
X154305000Y-85090000D03*
D15*
X161925000Y-85090000D03*
D14*
X149225000Y-95885000D03*
D15*
X141605000Y-95885000D03*
D14*
X154305000Y-95885000D03*
D15*
X161925000Y-95885000D03*
D14*
X149225000Y-106680000D03*
D15*
X141605000Y-106680000D03*
D14*
X154305000Y-106680000D03*
D15*
X161925000Y-106680000D03*
D14*
X149225000Y-117475000D03*
D15*
X141605000Y-117475000D03*
D14*
X154305000Y-117475000D03*
D15*
X161925000Y-117475000D03*
D16*
X142240000Y-92765000D03*
X142240000Y-88265000D03*
X148740000Y-92765000D03*
X148740000Y-88265000D03*
X154940000Y-92765000D03*
X154940000Y-88265000D03*
X161440000Y-92765000D03*
X161440000Y-88265000D03*
X142240000Y-103560000D03*
X142240000Y-99060000D03*
X148740000Y-103560000D03*
X148740000Y-99060000D03*
X154940000Y-103560000D03*
X154940000Y-99060000D03*
X161440000Y-103560000D03*
X161440000Y-99060000D03*
X142240000Y-114355000D03*
X142240000Y-109855000D03*
X148740000Y-114355000D03*
X148740000Y-109855000D03*
X154940000Y-114355000D03*
X154940000Y-109855000D03*
X161440000Y-114355000D03*
X161440000Y-109855000D03*
X142240000Y-125150000D03*
X142240000Y-120650000D03*
X148740000Y-125150000D03*
X148740000Y-120650000D03*
X154940000Y-125150000D03*
X154940000Y-120650000D03*
X161440000Y-125150000D03*
X161440000Y-120650000D03*
M02*
