M48
;DRILL file {KiCad 4.0.7+dfsg1-1~bpo9+1} date Wed May  2 15:36:38 2018
;FORMAT={-:-/ absolute / metric / decimal}
FMAT,2
METRIC,TZ
T1C0.400
T2C0.800
T3C0.900
T4C1.000
T5C1.097
T6C3.200
%
G90
G05
M71
T1
X79.375Y-104.775
X79.375Y-109.855
X79.375Y-114.935
X79.375Y-120.015
X80.645Y-89.535
X81.915Y-147.955
X83.82Y-167.64
X84.455Y-141.605
X85.09Y-148.59
X88.9Y-141.605
X90.17Y-106.68
X90.17Y-111.76
X90.17Y-116.84
X90.17Y-121.92
X93.345Y-141.605
X109.22Y-151.765
X111.125Y-143.51
X111.76Y-151.765
X116.205Y-143.51
X116.84Y-151.765
X130.175Y-148.59
X131.445Y-147.955
X133.35Y-176.53
X134.62Y-150.495
X136.525Y-156.21
X137.795Y-155.575
X143.51Y-159.385
X144.78Y-139.065
X149.225Y-159.385
X150.368Y-128.016
X150.495Y-167.64
X151.765Y-167.64
X153.035Y-175.895
X154.305Y-175.895
X161.925Y-116.205
X164.465Y-113.665
X165.1Y-155.575
X165.1Y-163.83
X165.1Y-171.45
X165.1Y-179.705
T2
X80.645Y-100.965
X80.645Y-103.505
X80.645Y-106.045
X80.645Y-108.585
X80.645Y-111.125
X80.645Y-113.665
X80.645Y-116.205
X80.645Y-118.745
X80.645Y-121.285
X91.44Y-100.965
X91.44Y-103.505
X91.44Y-106.045
X91.44Y-108.585
X91.44Y-111.125
X91.44Y-113.665
X91.44Y-116.205
X91.44Y-118.745
X91.44Y-121.285
X106.045Y-146.05
X108.585Y-146.05
X111.125Y-146.05
X113.665Y-146.05
X116.205Y-146.05
X133.985Y-90.805
X133.985Y-98.425
X134.62Y-135.255
X134.62Y-142.875
X136.525Y-90.805
X136.525Y-98.425
X136.525Y-161.33
X136.525Y-163.83
X136.525Y-166.41
X136.525Y-168.91
X137.16Y-135.255
X137.16Y-142.875
X139.065Y-90.805
X139.065Y-98.425
X139.7Y-135.255
X139.7Y-142.875
X141.605Y-90.805
X141.605Y-98.425
X142.24Y-135.255
X142.24Y-142.875
X144.145Y-90.805
X144.145Y-98.425
X144.78Y-135.255
X144.78Y-142.875
X146.685Y-90.805
X146.685Y-98.425
X147.32Y-135.255
X147.32Y-142.875
X149.225Y-90.805
X149.225Y-98.425
X149.86Y-135.255
X149.86Y-142.875
X151.765Y-90.805
X151.765Y-98.425
X152.4Y-135.255
X152.4Y-142.875
X154.305Y-90.805
X154.305Y-98.425
X154.345Y-100.965
X154.94Y-135.255
X154.94Y-142.875
X156.845Y-90.805
X156.845Y-98.425
X156.845Y-100.965
X157.48Y-135.255
X157.48Y-142.875
X159.385Y-90.805
X159.385Y-98.425
X161.925Y-90.805
X161.925Y-98.425
X164.465Y-90.805
X164.465Y-98.425
X167.005Y-90.805
X167.005Y-98.425
T3
X134.495Y-172.72
X134.495Y-175.22
X134.495Y-177.72
X137.795Y-172.72
X137.795Y-175.22
X137.795Y-177.72
T4
X78.105Y-93.345
X78.105Y-95.885
X78.105Y-98.425
X78.105Y-100.965
X78.105Y-103.505
X78.105Y-106.045
X78.105Y-108.585
X78.105Y-111.125
X78.105Y-113.665
X78.105Y-116.205
X78.105Y-118.745
X78.105Y-121.285
X78.105Y-143.51
X78.105Y-146.05
X78.105Y-148.59
X78.105Y-151.13
X78.105Y-153.67
X78.105Y-156.21
X78.105Y-158.75
X78.105Y-161.29
X78.105Y-163.83
X78.105Y-166.37
X78.105Y-168.91
X78.105Y-171.45
X80.645Y-153.67
X80.645Y-156.21
X80.645Y-158.75
X80.645Y-161.29
X80.645Y-163.83
X80.645Y-166.37
X80.645Y-168.91
X80.645Y-171.45
X82.55Y-136.525
X83.185Y-158.75
X83.185Y-161.29
X83.185Y-163.83
X83.185Y-178.435
X85.09Y-136.525
X85.725Y-178.435
X87.63Y-136.525
X88.265Y-147.32
X88.265Y-149.86
X88.265Y-152.4
X88.265Y-157.48
X88.265Y-160.02
X88.265Y-162.56
X88.265Y-167.64
X88.265Y-170.18
X88.265Y-172.72
X88.265Y-178.435
X90.17Y-136.525
X90.805Y-178.435
X94.615Y-93.345
X94.615Y-95.885
X94.615Y-98.425
X94.615Y-100.965
X94.615Y-103.505
X94.615Y-106.045
X94.615Y-108.585
X94.615Y-111.125
X94.615Y-113.665
X94.615Y-116.205
X94.615Y-118.745
X94.615Y-121.285
X95.25Y-143.51
X95.25Y-146.05
X95.25Y-148.59
X95.25Y-151.13
X95.25Y-153.67
X95.25Y-156.21
X95.25Y-158.75
X95.25Y-161.29
X95.25Y-163.83
X95.25Y-166.37
X95.25Y-168.91
X95.25Y-171.45
X102.87Y-143.51
X102.87Y-146.05
X102.87Y-148.59
X102.87Y-151.13
X102.87Y-153.67
X102.87Y-156.21
X102.87Y-158.75
X102.87Y-161.29
X102.87Y-163.83
X102.87Y-166.37
X102.87Y-168.91
X102.87Y-171.45
X103.505Y-93.345
X103.505Y-95.885
X103.505Y-98.425
X103.505Y-100.965
X103.505Y-103.505
X103.505Y-106.045
X103.505Y-108.585
X103.505Y-111.125
X103.505Y-113.665
X103.505Y-116.205
X103.505Y-118.745
X103.505Y-121.285
X105.41Y-153.67
X105.41Y-156.21
X105.41Y-158.75
X105.41Y-161.29
X105.41Y-163.83
X105.41Y-166.37
X105.41Y-168.91
X105.41Y-171.45
X107.315Y-136.525
X107.95Y-158.75
X107.95Y-161.29
X107.95Y-163.83
X109.22Y-103.505
X109.22Y-106.045
X109.22Y-108.585
X109.22Y-111.125
X109.22Y-113.665
X109.22Y-116.205
X109.22Y-118.745
X109.22Y-121.285
X109.855Y-136.525
X111.76Y-103.505
X111.76Y-106.045
X111.76Y-108.585
X111.76Y-111.125
X111.76Y-113.665
X111.76Y-116.205
X111.76Y-118.745
X111.76Y-121.285
X112.395Y-136.525
X114.3Y-100.965
X114.3Y-103.505
X114.3Y-106.045
X114.3Y-108.585
X114.3Y-111.125
X114.3Y-113.665
X114.3Y-116.205
X114.3Y-118.745
X114.3Y-121.285
X114.3Y-123.825
X114.935Y-136.525
X120.015Y-93.345
X120.015Y-95.885
X120.015Y-98.425
X120.015Y-100.965
X120.015Y-103.505
X120.015Y-106.045
X120.015Y-108.585
X120.015Y-111.125
X120.015Y-113.665
X120.015Y-116.205
X120.015Y-118.745
X120.015Y-121.285
X120.015Y-143.51
X120.015Y-146.05
X120.015Y-148.59
X120.015Y-151.13
X120.015Y-153.67
X120.015Y-156.21
X120.015Y-158.75
X120.015Y-161.29
X120.015Y-163.83
X120.015Y-166.37
X120.015Y-168.91
X120.015Y-171.45
X128.27Y-93.345
X128.27Y-95.885
X128.27Y-98.425
X128.27Y-100.965
X128.27Y-103.505
X128.27Y-106.045
X128.27Y-108.585
X128.27Y-111.125
X128.27Y-113.665
X128.27Y-116.205
X128.27Y-118.745
X128.27Y-121.285
X128.27Y-143.51
X128.27Y-146.05
X128.27Y-148.59
X128.27Y-151.13
X128.27Y-153.67
X128.27Y-156.21
X128.27Y-158.75
X128.27Y-161.29
X128.27Y-163.83
X128.27Y-166.37
X128.27Y-168.91
X128.27Y-171.45
X130.81Y-103.505
X130.81Y-106.045
X130.81Y-108.585
X130.81Y-111.125
X130.81Y-113.665
X130.81Y-116.205
X130.81Y-118.745
X130.81Y-121.285
X131.445Y-153.67
X131.445Y-156.21
X131.445Y-158.75
X131.445Y-161.29
X131.445Y-163.83
X131.445Y-166.37
X131.445Y-168.91
X131.445Y-171.45
X133.985Y-163.83
X133.985Y-166.37
X134.62Y-146.05
X135.255Y-86.36
X135.255Y-127.635
X137.16Y-146.05
X137.795Y-86.36
X137.795Y-127.635
X139.065Y-112.395
X139.065Y-114.935
X139.065Y-117.475
X139.065Y-120.015
X139.7Y-146.05
X140.335Y-86.36
X140.335Y-127.635
X142.24Y-146.05
X142.875Y-86.36
X142.875Y-127.635
X144.78Y-146.05
X145.415Y-86.36
X145.415Y-127.635
X147.32Y-146.05
X147.955Y-86.36
X147.955Y-127.635
X149.225Y-112.395
X149.225Y-114.935
X149.225Y-117.475
X149.225Y-120.015
X149.86Y-146.05
X150.495Y-86.36
X150.495Y-127.635
X152.4Y-146.05
X153.035Y-86.36
X153.035Y-127.635
X154.94Y-146.05
X155.575Y-86.36
X155.575Y-127.635
X156.845Y-104.775
X156.845Y-107.315
X157.48Y-146.05
X158.115Y-86.36
X158.115Y-127.635
X159.385Y-112.395
X159.385Y-114.935
X159.385Y-117.475
X159.385Y-120.015
X160.02Y-146.05
X160.655Y-86.36
X160.655Y-127.635
X162.56Y-146.05
X163.195Y-86.36
X163.195Y-127.635
X165.1Y-146.05
X167.64Y-146.05
X170.18Y-93.345
X170.18Y-95.885
X170.18Y-98.425
X170.18Y-100.965
X170.18Y-103.505
X170.18Y-106.045
X170.18Y-108.585
X170.18Y-111.125
X170.18Y-113.665
X170.18Y-116.205
X170.18Y-118.745
X170.18Y-121.285
X170.18Y-143.51
X170.18Y-146.05
X170.18Y-148.59
X170.18Y-151.13
X170.18Y-153.67
X170.18Y-156.21
X170.18Y-158.75
X170.18Y-161.29
X170.18Y-163.83
X170.18Y-166.37
X170.18Y-168.91
X170.18Y-171.45
T5
X109.22Y-90.805
X109.22Y-128.905
X111.76Y-90.805
X111.76Y-128.905
X114.3Y-90.805
X114.3Y-128.905
T6
X78.105Y-86.36
X78.105Y-128.27
X78.105Y-136.525
X78.105Y-178.435
X94.615Y-86.36
X94.615Y-128.27
X95.25Y-136.525
X95.25Y-178.435
X102.87Y-136.525
X102.87Y-178.435
X103.505Y-86.36
X103.505Y-128.27
X120.015Y-86.36
X120.015Y-128.27
X120.015Y-136.525
X120.015Y-178.435
X128.27Y-86.36
X128.27Y-128.27
X128.27Y-136.525
X128.27Y-178.435
X170.18Y-86.36
X170.18Y-128.27
X170.18Y-136.525
X170.18Y-178.435
T0
M30
