G04 #@! TF.FileFunction,Soldermask,Bot*
%FSLAX46Y46*%
G04 Gerber Fmt 4.6, Leading zero omitted, Abs format (unit mm)*
G04 Created by KiCad (PCBNEW 4.0.7+dfsg1-1~bpo9+1) date Wed May  2 15:36:30 2018*
%MOMM*%
%LPD*%
G01*
G04 APERTURE LIST*
%ADD10C,0.100000*%
%ADD11R,1.700000X1.700000*%
%ADD12O,1.700000X1.700000*%
%ADD13R,1.600000X1.600000*%
%ADD14O,1.600000X1.600000*%
%ADD15C,3.200000*%
%ADD16R,1.270000X0.970000*%
%ADD17C,1.600000*%
%ADD18R,1.400000X1.400000*%
%ADD19C,1.400000*%
%ADD20O,1.998980X1.998980*%
%ADD21R,1.998980X1.998980*%
%ADD22R,1.800000X1.800000*%
%ADD23O,1.800000X1.800000*%
G04 APERTURE END LIST*
D10*
D11*
X135255000Y-86360000D03*
D12*
X137795000Y-86360000D03*
X140335000Y-86360000D03*
X142875000Y-86360000D03*
X145415000Y-86360000D03*
X147955000Y-86360000D03*
X150495000Y-86360000D03*
X153035000Y-86360000D03*
X155575000Y-86360000D03*
X158115000Y-86360000D03*
X160655000Y-86360000D03*
X163195000Y-86360000D03*
D13*
X133985000Y-98425000D03*
D14*
X167005000Y-90805000D03*
X136525000Y-98425000D03*
X164465000Y-90805000D03*
X139065000Y-98425000D03*
X161925000Y-90805000D03*
X141605000Y-98425000D03*
X159385000Y-90805000D03*
X144145000Y-98425000D03*
X156845000Y-90805000D03*
X146685000Y-98425000D03*
X154305000Y-90805000D03*
X149225000Y-98425000D03*
X151765000Y-90805000D03*
X151765000Y-98425000D03*
X149225000Y-90805000D03*
X154305000Y-98425000D03*
X146685000Y-90805000D03*
X156845000Y-98425000D03*
X144145000Y-90805000D03*
X159385000Y-98425000D03*
X141605000Y-90805000D03*
X161925000Y-98425000D03*
X139065000Y-90805000D03*
X164465000Y-98425000D03*
X136525000Y-90805000D03*
X167005000Y-98425000D03*
X133985000Y-90805000D03*
D11*
X163195000Y-127635000D03*
D12*
X160655000Y-127635000D03*
X158115000Y-127635000D03*
X155575000Y-127635000D03*
X153035000Y-127635000D03*
X150495000Y-127635000D03*
X147955000Y-127635000D03*
X145415000Y-127635000D03*
X142875000Y-127635000D03*
X140335000Y-127635000D03*
X137795000Y-127635000D03*
X135255000Y-127635000D03*
D15*
X128270000Y-86360000D03*
X170180000Y-86360000D03*
X170180000Y-128270000D03*
X128270000Y-128270000D03*
D11*
X130810000Y-103505000D03*
D12*
X130810000Y-106045000D03*
X130810000Y-108585000D03*
X130810000Y-111125000D03*
X130810000Y-113665000D03*
X130810000Y-116205000D03*
X130810000Y-118745000D03*
X130810000Y-121285000D03*
D16*
X167005000Y-93345000D03*
X167005000Y-94615000D03*
X167005000Y-95885000D03*
X163195000Y-93345000D03*
X163195000Y-94615000D03*
X163195000Y-95885000D03*
X159385000Y-93345000D03*
X159385000Y-94615000D03*
X159385000Y-95885000D03*
D11*
X159385000Y-120015000D03*
D12*
X159385000Y-117475000D03*
X159385000Y-114935000D03*
X159385000Y-112395000D03*
D11*
X170180000Y-93345000D03*
D12*
X170180000Y-95885000D03*
X170180000Y-98425000D03*
X170180000Y-100965000D03*
X170180000Y-103505000D03*
X170180000Y-106045000D03*
X170180000Y-108585000D03*
X170180000Y-111125000D03*
X170180000Y-113665000D03*
X170180000Y-116205000D03*
X170180000Y-118745000D03*
X170180000Y-121285000D03*
D11*
X128270000Y-93345000D03*
D12*
X128270000Y-95885000D03*
X128270000Y-98425000D03*
X128270000Y-100965000D03*
X128270000Y-103505000D03*
X128270000Y-106045000D03*
X128270000Y-108585000D03*
X128270000Y-111125000D03*
X128270000Y-113665000D03*
X128270000Y-116205000D03*
X128270000Y-118745000D03*
X128270000Y-121285000D03*
D17*
X156845000Y-100965000D03*
X154345000Y-100965000D03*
D11*
X156845000Y-104775000D03*
D12*
X156845000Y-107315000D03*
D11*
X139065000Y-120015000D03*
D12*
X139065000Y-117475000D03*
X139065000Y-114935000D03*
X139065000Y-112395000D03*
D11*
X149225000Y-120015000D03*
D12*
X149225000Y-117475000D03*
X149225000Y-114935000D03*
X149225000Y-112395000D03*
D13*
X134620000Y-142875000D03*
D14*
X157480000Y-135255000D03*
X137160000Y-142875000D03*
X154940000Y-135255000D03*
X139700000Y-142875000D03*
X152400000Y-135255000D03*
X142240000Y-142875000D03*
X149860000Y-135255000D03*
X144780000Y-142875000D03*
X147320000Y-135255000D03*
X147320000Y-142875000D03*
X144780000Y-135255000D03*
X149860000Y-142875000D03*
X142240000Y-135255000D03*
X152400000Y-142875000D03*
X139700000Y-135255000D03*
X154940000Y-142875000D03*
X137160000Y-135255000D03*
X157480000Y-142875000D03*
X134620000Y-135255000D03*
D15*
X128270000Y-136525000D03*
X170180000Y-136525000D03*
X170180000Y-178435000D03*
X128270000Y-178435000D03*
D11*
X128270000Y-143510000D03*
D12*
X128270000Y-146050000D03*
X128270000Y-148590000D03*
X128270000Y-151130000D03*
X128270000Y-153670000D03*
X128270000Y-156210000D03*
X128270000Y-158750000D03*
X128270000Y-161290000D03*
X128270000Y-163830000D03*
X128270000Y-166370000D03*
X128270000Y-168910000D03*
X128270000Y-171450000D03*
D11*
X170180000Y-143510000D03*
D12*
X170180000Y-146050000D03*
X170180000Y-148590000D03*
X170180000Y-151130000D03*
X170180000Y-153670000D03*
X170180000Y-156210000D03*
X170180000Y-158750000D03*
X170180000Y-161290000D03*
X170180000Y-163830000D03*
X170180000Y-166370000D03*
X170180000Y-168910000D03*
X170180000Y-171450000D03*
D11*
X131445000Y-153670000D03*
D12*
X131445000Y-156210000D03*
X131445000Y-158750000D03*
X131445000Y-161290000D03*
X131445000Y-163830000D03*
X131445000Y-166370000D03*
X131445000Y-168910000D03*
X131445000Y-171450000D03*
D11*
X133985000Y-166370000D03*
D12*
X133985000Y-163830000D03*
D11*
X134620000Y-146050000D03*
D12*
X137160000Y-146050000D03*
X139700000Y-146050000D03*
X142240000Y-146050000D03*
X144780000Y-146050000D03*
X147320000Y-146050000D03*
X149860000Y-146050000D03*
X152400000Y-146050000D03*
D11*
X154940000Y-146050000D03*
D12*
X157480000Y-146050000D03*
X160020000Y-146050000D03*
X162560000Y-146050000D03*
X165100000Y-146050000D03*
X167640000Y-146050000D03*
D17*
X136525000Y-168910000D03*
X136525000Y-166410000D03*
X136525000Y-163830000D03*
X136525000Y-161330000D03*
D18*
X137795000Y-172720000D03*
D19*
X137795000Y-175220000D03*
X137795000Y-177720000D03*
X134495000Y-172720000D03*
X134495000Y-175220000D03*
X134495000Y-177720000D03*
D15*
X103505000Y-128270000D03*
X94615000Y-128270000D03*
X78105000Y-128270000D03*
X120015000Y-128270000D03*
X103505000Y-86360000D03*
X94615000Y-86360000D03*
X78105000Y-86360000D03*
X120015000Y-86360000D03*
D11*
X78105000Y-93345000D03*
D12*
X78105000Y-95885000D03*
X78105000Y-98425000D03*
X78105000Y-100965000D03*
X78105000Y-103505000D03*
X78105000Y-106045000D03*
X78105000Y-108585000D03*
X78105000Y-111125000D03*
X78105000Y-113665000D03*
X78105000Y-116205000D03*
X78105000Y-118745000D03*
X78105000Y-121285000D03*
D11*
X94615000Y-93345000D03*
D12*
X94615000Y-95885000D03*
X94615000Y-98425000D03*
X94615000Y-100965000D03*
X94615000Y-103505000D03*
X94615000Y-106045000D03*
X94615000Y-108585000D03*
X94615000Y-111125000D03*
X94615000Y-113665000D03*
X94615000Y-116205000D03*
X94615000Y-118745000D03*
X94615000Y-121285000D03*
D13*
X91440000Y-100965000D03*
D14*
X91440000Y-103505000D03*
X91440000Y-106045000D03*
X91440000Y-108585000D03*
X91440000Y-111125000D03*
X91440000Y-113665000D03*
X91440000Y-116205000D03*
X91440000Y-118745000D03*
X91440000Y-121285000D03*
D11*
X114300000Y-103505000D03*
D12*
X114300000Y-106045000D03*
X114300000Y-108585000D03*
X114300000Y-111125000D03*
X114300000Y-113665000D03*
X114300000Y-116205000D03*
X114300000Y-118745000D03*
X114300000Y-121285000D03*
D11*
X109220000Y-103505000D03*
D12*
X109220000Y-106045000D03*
X109220000Y-108585000D03*
X109220000Y-111125000D03*
X109220000Y-113665000D03*
X109220000Y-116205000D03*
X109220000Y-118745000D03*
X109220000Y-121285000D03*
D11*
X111760000Y-103505000D03*
D12*
X111760000Y-106045000D03*
X111760000Y-108585000D03*
X111760000Y-111125000D03*
X111760000Y-113665000D03*
X111760000Y-116205000D03*
X111760000Y-118745000D03*
X111760000Y-121285000D03*
D11*
X103505000Y-93345000D03*
D12*
X103505000Y-95885000D03*
X103505000Y-98425000D03*
X103505000Y-100965000D03*
X103505000Y-103505000D03*
X103505000Y-106045000D03*
X103505000Y-108585000D03*
X103505000Y-111125000D03*
X103505000Y-113665000D03*
X103505000Y-116205000D03*
X103505000Y-118745000D03*
X103505000Y-121285000D03*
D11*
X120015000Y-93345000D03*
D12*
X120015000Y-95885000D03*
X120015000Y-98425000D03*
X120015000Y-100965000D03*
X120015000Y-103505000D03*
X120015000Y-106045000D03*
X120015000Y-108585000D03*
X120015000Y-111125000D03*
X120015000Y-113665000D03*
X120015000Y-116205000D03*
X120015000Y-118745000D03*
X120015000Y-121285000D03*
D13*
X80645000Y-100965000D03*
D14*
X80645000Y-103505000D03*
X80645000Y-106045000D03*
X80645000Y-108585000D03*
X80645000Y-111125000D03*
X80645000Y-113665000D03*
X80645000Y-116205000D03*
X80645000Y-118745000D03*
X80645000Y-121285000D03*
D20*
X114300000Y-128905000D03*
D21*
X109220000Y-128905000D03*
D20*
X111760000Y-128905000D03*
D11*
X114300000Y-123825000D03*
X114300000Y-100965000D03*
D20*
X114300000Y-90805000D03*
D21*
X109220000Y-90805000D03*
D20*
X111760000Y-90805000D03*
D11*
X83185000Y-163830000D03*
D12*
X83185000Y-161290000D03*
X83185000Y-158750000D03*
D15*
X78105000Y-178435000D03*
X95250000Y-178435000D03*
X78105000Y-136525000D03*
X120015000Y-136525000D03*
X120015000Y-178435000D03*
X95250000Y-136525000D03*
X102870000Y-136525000D03*
X102870000Y-178435000D03*
D11*
X78105000Y-143510000D03*
D12*
X78105000Y-146050000D03*
X78105000Y-148590000D03*
X78105000Y-151130000D03*
X78105000Y-153670000D03*
X78105000Y-156210000D03*
X78105000Y-158750000D03*
X78105000Y-161290000D03*
X78105000Y-163830000D03*
X78105000Y-166370000D03*
X78105000Y-168910000D03*
X78105000Y-171450000D03*
D11*
X102870000Y-143510000D03*
D12*
X102870000Y-146050000D03*
X102870000Y-148590000D03*
X102870000Y-151130000D03*
X102870000Y-153670000D03*
X102870000Y-156210000D03*
X102870000Y-158750000D03*
X102870000Y-161290000D03*
X102870000Y-163830000D03*
X102870000Y-166370000D03*
X102870000Y-168910000D03*
X102870000Y-171450000D03*
D11*
X95250000Y-143510000D03*
D12*
X95250000Y-146050000D03*
X95250000Y-148590000D03*
X95250000Y-151130000D03*
X95250000Y-153670000D03*
X95250000Y-156210000D03*
X95250000Y-158750000D03*
X95250000Y-161290000D03*
X95250000Y-163830000D03*
X95250000Y-166370000D03*
X95250000Y-168910000D03*
X95250000Y-171450000D03*
D11*
X120015000Y-143510000D03*
D12*
X120015000Y-146050000D03*
X120015000Y-148590000D03*
X120015000Y-151130000D03*
X120015000Y-153670000D03*
X120015000Y-156210000D03*
X120015000Y-158750000D03*
X120015000Y-161290000D03*
X120015000Y-163830000D03*
X120015000Y-166370000D03*
X120015000Y-168910000D03*
X120015000Y-171450000D03*
D11*
X82550000Y-136525000D03*
D12*
X85090000Y-136525000D03*
X87630000Y-136525000D03*
X90170000Y-136525000D03*
D11*
X80645000Y-153670000D03*
D12*
X80645000Y-156210000D03*
X80645000Y-158750000D03*
X80645000Y-161290000D03*
X80645000Y-163830000D03*
X80645000Y-166370000D03*
X80645000Y-168910000D03*
X80645000Y-171450000D03*
D22*
X88265000Y-147320000D03*
D23*
X88265000Y-149860000D03*
X88265000Y-152400000D03*
D22*
X88265000Y-157480000D03*
D23*
X88265000Y-160020000D03*
X88265000Y-162560000D03*
D22*
X88265000Y-167640000D03*
D23*
X88265000Y-170180000D03*
X88265000Y-172720000D03*
D11*
X83185000Y-178435000D03*
D12*
X85725000Y-178435000D03*
X88265000Y-178435000D03*
X90805000Y-178435000D03*
D11*
X105410000Y-153670000D03*
D12*
X105410000Y-156210000D03*
X105410000Y-158750000D03*
X105410000Y-161290000D03*
X105410000Y-163830000D03*
X105410000Y-166370000D03*
X105410000Y-168910000D03*
X105410000Y-171450000D03*
D11*
X107950000Y-158750000D03*
D12*
X107950000Y-161290000D03*
X107950000Y-163830000D03*
D11*
X107315000Y-136525000D03*
D12*
X109855000Y-136525000D03*
X112395000Y-136525000D03*
X114935000Y-136525000D03*
D13*
X106045000Y-146050000D03*
D14*
X108585000Y-146050000D03*
X111125000Y-146050000D03*
X113665000Y-146050000D03*
X116205000Y-146050000D03*
M02*
