G04 #@! TF.FileFunction,Legend,Top*
%FSLAX46Y46*%
G04 Gerber Fmt 4.6, Leading zero omitted, Abs format (unit mm)*
G04 Created by KiCad (PCBNEW 4.0.7+dfsg1-1~bpo9+1) date Wed May  2 15:36:30 2018*
%MOMM*%
%LPD*%
G01*
G04 APERTURE LIST*
%ADD10C,0.100000*%
%ADD11C,0.300000*%
%ADD12C,0.200000*%
%ADD13C,0.250000*%
%ADD14C,0.120000*%
%ADD15C,0.150000*%
G04 APERTURE END LIST*
D10*
D11*
X152983572Y-116883571D02*
X152983572Y-115383571D01*
X153626429Y-115026429D02*
X153769286Y-114955000D01*
X153983572Y-114955000D01*
X154126429Y-115026429D01*
X154197858Y-115169286D01*
X154197858Y-115312143D01*
X154126429Y-115455000D01*
X153626429Y-115955000D01*
X154197858Y-115955000D01*
X155697858Y-116740714D02*
X155626429Y-116812143D01*
X155412143Y-116883571D01*
X155269286Y-116883571D01*
X155055001Y-116812143D01*
X154912143Y-116669286D01*
X154840715Y-116526429D01*
X154769286Y-116240714D01*
X154769286Y-116026429D01*
X154840715Y-115740714D01*
X154912143Y-115597857D01*
X155055001Y-115455000D01*
X155269286Y-115383571D01*
X155412143Y-115383571D01*
X155626429Y-115455000D01*
X155697858Y-115526429D01*
X130766429Y-97900713D02*
X130695000Y-97829284D01*
X130623571Y-97686427D01*
X130623571Y-97329284D01*
X130695000Y-97186427D01*
X130766429Y-97114998D01*
X130909286Y-97043570D01*
X131052143Y-97043570D01*
X131266429Y-97114998D01*
X132123571Y-97972141D01*
X132123571Y-97043570D01*
X130623571Y-96543570D02*
X130623571Y-95614999D01*
X131195000Y-96114999D01*
X131195000Y-95900713D01*
X131266429Y-95757856D01*
X131337857Y-95686427D01*
X131480714Y-95614999D01*
X131837857Y-95614999D01*
X131980714Y-95686427D01*
X132052143Y-95757856D01*
X132123571Y-95900713D01*
X132123571Y-96329285D01*
X132052143Y-96472142D01*
X131980714Y-96543570D01*
X130623571Y-94686428D02*
X130623571Y-94543571D01*
X130695000Y-94400714D01*
X130766429Y-94329285D01*
X130909286Y-94257856D01*
X131195000Y-94186428D01*
X131552143Y-94186428D01*
X131837857Y-94257856D01*
X131980714Y-94329285D01*
X132052143Y-94400714D01*
X132123571Y-94543571D01*
X132123571Y-94686428D01*
X132052143Y-94829285D01*
X131980714Y-94900714D01*
X131837857Y-94972142D01*
X131552143Y-95043571D01*
X131195000Y-95043571D01*
X130909286Y-94972142D01*
X130766429Y-94900714D01*
X130695000Y-94829285D01*
X130623571Y-94686428D01*
X132123571Y-92757857D02*
X132123571Y-93615000D01*
X132123571Y-93186428D02*
X130623571Y-93186428D01*
X130837857Y-93329285D01*
X130980714Y-93472143D01*
X131052143Y-93615000D01*
X130623571Y-92257857D02*
X130623571Y-91257857D01*
X132123571Y-91900714D01*
X141890714Y-115542143D02*
X142105000Y-115613571D01*
X142462143Y-115613571D01*
X142605000Y-115542143D01*
X142676429Y-115470714D01*
X142747857Y-115327857D01*
X142747857Y-115185000D01*
X142676429Y-115042143D01*
X142605000Y-114970714D01*
X142462143Y-114899286D01*
X142176429Y-114827857D01*
X142033571Y-114756429D01*
X141962143Y-114685000D01*
X141890714Y-114542143D01*
X141890714Y-114399286D01*
X141962143Y-114256429D01*
X142033571Y-114185000D01*
X142176429Y-114113571D01*
X142533571Y-114113571D01*
X142747857Y-114185000D01*
X144247857Y-115470714D02*
X144176428Y-115542143D01*
X143962142Y-115613571D01*
X143819285Y-115613571D01*
X143605000Y-115542143D01*
X143462142Y-115399286D01*
X143390714Y-115256429D01*
X143319285Y-114970714D01*
X143319285Y-114756429D01*
X143390714Y-114470714D01*
X143462142Y-114327857D01*
X143605000Y-114185000D01*
X143819285Y-114113571D01*
X143962142Y-114113571D01*
X144176428Y-114185000D01*
X144247857Y-114256429D01*
X145605000Y-115613571D02*
X144890714Y-115613571D01*
X144890714Y-114113571D01*
X141747857Y-116653571D02*
X142247857Y-118153571D01*
X142747857Y-116653571D01*
X144105000Y-118010714D02*
X144033571Y-118082143D01*
X143819285Y-118153571D01*
X143676428Y-118153571D01*
X143462143Y-118082143D01*
X143319285Y-117939286D01*
X143247857Y-117796429D01*
X143176428Y-117510714D01*
X143176428Y-117296429D01*
X143247857Y-117010714D01*
X143319285Y-116867857D01*
X143462143Y-116725000D01*
X143676428Y-116653571D01*
X143819285Y-116653571D01*
X144033571Y-116725000D01*
X144105000Y-116796429D01*
X145605000Y-118010714D02*
X145533571Y-118082143D01*
X145319285Y-118153571D01*
X145176428Y-118153571D01*
X144962143Y-118082143D01*
X144819285Y-117939286D01*
X144747857Y-117796429D01*
X144676428Y-117510714D01*
X144676428Y-117296429D01*
X144747857Y-117010714D01*
X144819285Y-116867857D01*
X144962143Y-116725000D01*
X145176428Y-116653571D01*
X145319285Y-116653571D01*
X145533571Y-116725000D01*
X145605000Y-116796429D01*
X142747857Y-119265000D02*
X142605000Y-119193571D01*
X142390714Y-119193571D01*
X142176429Y-119265000D01*
X142033571Y-119407857D01*
X141962143Y-119550714D01*
X141890714Y-119836429D01*
X141890714Y-120050714D01*
X141962143Y-120336429D01*
X142033571Y-120479286D01*
X142176429Y-120622143D01*
X142390714Y-120693571D01*
X142533571Y-120693571D01*
X142747857Y-120622143D01*
X142819286Y-120550714D01*
X142819286Y-120050714D01*
X142533571Y-120050714D01*
X143462143Y-120693571D02*
X143462143Y-119193571D01*
X144319286Y-120693571D01*
X144319286Y-119193571D01*
X145033572Y-120693571D02*
X145033572Y-119193571D01*
X145390715Y-119193571D01*
X145605000Y-119265000D01*
X145747858Y-119407857D01*
X145819286Y-119550714D01*
X145890715Y-119836429D01*
X145890715Y-120050714D01*
X145819286Y-120336429D01*
X145747858Y-120479286D01*
X145605000Y-120622143D01*
X145390715Y-120693571D01*
X145033572Y-120693571D01*
X141890714Y-113002143D02*
X142105000Y-113073571D01*
X142462143Y-113073571D01*
X142605000Y-113002143D01*
X142676429Y-112930714D01*
X142747857Y-112787857D01*
X142747857Y-112645000D01*
X142676429Y-112502143D01*
X142605000Y-112430714D01*
X142462143Y-112359286D01*
X142176429Y-112287857D01*
X142033571Y-112216429D01*
X141962143Y-112145000D01*
X141890714Y-112002143D01*
X141890714Y-111859286D01*
X141962143Y-111716429D01*
X142033571Y-111645000D01*
X142176429Y-111573571D01*
X142533571Y-111573571D01*
X142747857Y-111645000D01*
X143390714Y-113073571D02*
X143390714Y-111573571D01*
X143747857Y-111573571D01*
X143962142Y-111645000D01*
X144105000Y-111787857D01*
X144176428Y-111930714D01*
X144247857Y-112216429D01*
X144247857Y-112430714D01*
X144176428Y-112716429D01*
X144105000Y-112859286D01*
X143962142Y-113002143D01*
X143747857Y-113073571D01*
X143390714Y-113073571D01*
X144819285Y-112645000D02*
X145533571Y-112645000D01*
X144676428Y-113073571D02*
X145176428Y-111573571D01*
X145676428Y-113073571D01*
X159492143Y-104667857D02*
X159706429Y-104739286D01*
X159777857Y-104810714D01*
X159849286Y-104953571D01*
X159849286Y-105167857D01*
X159777857Y-105310714D01*
X159706429Y-105382143D01*
X159563571Y-105453571D01*
X158992143Y-105453571D01*
X158992143Y-103953571D01*
X159492143Y-103953571D01*
X159635000Y-104025000D01*
X159706429Y-104096429D01*
X159777857Y-104239286D01*
X159777857Y-104382143D01*
X159706429Y-104525000D01*
X159635000Y-104596429D01*
X159492143Y-104667857D01*
X158992143Y-104667857D01*
X159027857Y-107565000D02*
X159742143Y-107565000D01*
X158885000Y-107993571D02*
X159385000Y-106493571D01*
X159885000Y-107993571D01*
X162695001Y-88078571D02*
X163695001Y-88078571D01*
X163052144Y-89578571D01*
X160940715Y-88078571D02*
X160655001Y-88078571D01*
X160512144Y-88150000D01*
X160440715Y-88221429D01*
X160297858Y-88435714D01*
X160226429Y-88721429D01*
X160226429Y-89292857D01*
X160297858Y-89435714D01*
X160369286Y-89507143D01*
X160512144Y-89578571D01*
X160797858Y-89578571D01*
X160940715Y-89507143D01*
X161012144Y-89435714D01*
X161083572Y-89292857D01*
X161083572Y-88935714D01*
X161012144Y-88792857D01*
X160940715Y-88721429D01*
X160797858Y-88650000D01*
X160512144Y-88650000D01*
X160369286Y-88721429D01*
X160297858Y-88792857D01*
X160226429Y-88935714D01*
X158472144Y-88078571D02*
X157757858Y-88078571D01*
X157686429Y-88792857D01*
X157757858Y-88721429D01*
X157900715Y-88650000D01*
X158257858Y-88650000D01*
X158400715Y-88721429D01*
X158472144Y-88792857D01*
X158543572Y-88935714D01*
X158543572Y-89292857D01*
X158472144Y-89435714D01*
X158400715Y-89507143D01*
X158257858Y-89578571D01*
X157900715Y-89578571D01*
X157757858Y-89507143D01*
X157686429Y-89435714D01*
X155860715Y-88578571D02*
X155860715Y-89578571D01*
X155503572Y-88007143D02*
X155146429Y-89078571D01*
X156075001Y-89078571D01*
X152535001Y-88078571D02*
X153463572Y-88078571D01*
X152963572Y-88650000D01*
X153177858Y-88650000D01*
X153320715Y-88721429D01*
X153392144Y-88792857D01*
X153463572Y-88935714D01*
X153463572Y-89292857D01*
X153392144Y-89435714D01*
X153320715Y-89507143D01*
X153177858Y-89578571D01*
X152749286Y-89578571D01*
X152606429Y-89507143D01*
X152535001Y-89435714D01*
X150066429Y-88221429D02*
X150137858Y-88150000D01*
X150280715Y-88078571D01*
X150637858Y-88078571D01*
X150780715Y-88150000D01*
X150852144Y-88221429D01*
X150923572Y-88364286D01*
X150923572Y-88507143D01*
X150852144Y-88721429D01*
X149995001Y-89578571D01*
X150923572Y-89578571D01*
X148383572Y-89578571D02*
X147526429Y-89578571D01*
X147955001Y-89578571D02*
X147955001Y-88078571D01*
X147812144Y-88292857D01*
X147669286Y-88435714D01*
X147526429Y-88507143D01*
X145343572Y-88078571D02*
X145486429Y-88078571D01*
X145629286Y-88150000D01*
X145700715Y-88221429D01*
X145772144Y-88364286D01*
X145843572Y-88650000D01*
X145843572Y-89007143D01*
X145772144Y-89292857D01*
X145700715Y-89435714D01*
X145629286Y-89507143D01*
X145486429Y-89578571D01*
X145343572Y-89578571D01*
X145200715Y-89507143D01*
X145129286Y-89435714D01*
X145057858Y-89292857D01*
X144986429Y-89007143D01*
X144986429Y-88650000D01*
X145057858Y-88364286D01*
X145129286Y-88221429D01*
X145200715Y-88150000D01*
X145343572Y-88078571D01*
X134755001Y-123638571D02*
X135755001Y-123638571D01*
X135112144Y-125138571D01*
X138080715Y-123638571D02*
X137795001Y-123638571D01*
X137652144Y-123710000D01*
X137580715Y-123781429D01*
X137437858Y-123995714D01*
X137366429Y-124281429D01*
X137366429Y-124852857D01*
X137437858Y-124995714D01*
X137509286Y-125067143D01*
X137652144Y-125138571D01*
X137937858Y-125138571D01*
X138080715Y-125067143D01*
X138152144Y-124995714D01*
X138223572Y-124852857D01*
X138223572Y-124495714D01*
X138152144Y-124352857D01*
X138080715Y-124281429D01*
X137937858Y-124210000D01*
X137652144Y-124210000D01*
X137509286Y-124281429D01*
X137437858Y-124352857D01*
X137366429Y-124495714D01*
X140692144Y-123638571D02*
X139977858Y-123638571D01*
X139906429Y-124352857D01*
X139977858Y-124281429D01*
X140120715Y-124210000D01*
X140477858Y-124210000D01*
X140620715Y-124281429D01*
X140692144Y-124352857D01*
X140763572Y-124495714D01*
X140763572Y-124852857D01*
X140692144Y-124995714D01*
X140620715Y-125067143D01*
X140477858Y-125138571D01*
X140120715Y-125138571D01*
X139977858Y-125067143D01*
X139906429Y-124995714D01*
X143160715Y-124138571D02*
X143160715Y-125138571D01*
X142803572Y-123567143D02*
X142446429Y-124638571D01*
X143375001Y-124638571D01*
X144915001Y-123638571D02*
X145843572Y-123638571D01*
X145343572Y-124210000D01*
X145557858Y-124210000D01*
X145700715Y-124281429D01*
X145772144Y-124352857D01*
X145843572Y-124495714D01*
X145843572Y-124852857D01*
X145772144Y-124995714D01*
X145700715Y-125067143D01*
X145557858Y-125138571D01*
X145129286Y-125138571D01*
X144986429Y-125067143D01*
X144915001Y-124995714D01*
X147526429Y-123781429D02*
X147597858Y-123710000D01*
X147740715Y-123638571D01*
X148097858Y-123638571D01*
X148240715Y-123710000D01*
X148312144Y-123781429D01*
X148383572Y-123924286D01*
X148383572Y-124067143D01*
X148312144Y-124281429D01*
X147455001Y-125138571D01*
X148383572Y-125138571D01*
X150923572Y-125138571D02*
X150066429Y-125138571D01*
X150495001Y-125138571D02*
X150495001Y-123638571D01*
X150352144Y-123852857D01*
X150209286Y-123995714D01*
X150066429Y-124067143D01*
X152963572Y-123638571D02*
X153106429Y-123638571D01*
X153249286Y-123710000D01*
X153320715Y-123781429D01*
X153392144Y-123924286D01*
X153463572Y-124210000D01*
X153463572Y-124567143D01*
X153392144Y-124852857D01*
X153320715Y-124995714D01*
X153249286Y-125067143D01*
X153106429Y-125138571D01*
X152963572Y-125138571D01*
X152820715Y-125067143D01*
X152749286Y-124995714D01*
X152677858Y-124852857D01*
X152606429Y-124567143D01*
X152606429Y-124210000D01*
X152677858Y-123924286D01*
X152749286Y-123781429D01*
X152820715Y-123710000D01*
X152963572Y-123638571D01*
X144760715Y-106723571D02*
X144760715Y-105223571D01*
X145475001Y-105723571D02*
X145475001Y-106723571D01*
X145475001Y-105866429D02*
X145546429Y-105795000D01*
X145689287Y-105723571D01*
X145903572Y-105723571D01*
X146046429Y-105795000D01*
X146117858Y-105937857D01*
X146117858Y-106723571D01*
X146617858Y-105723571D02*
X147189287Y-105723571D01*
X146832144Y-105223571D02*
X146832144Y-106509286D01*
X146903572Y-106652143D01*
X147046430Y-106723571D01*
X147189287Y-106723571D01*
X148260715Y-106652143D02*
X148117858Y-106723571D01*
X147832144Y-106723571D01*
X147689287Y-106652143D01*
X147617858Y-106509286D01*
X147617858Y-105937857D01*
X147689287Y-105795000D01*
X147832144Y-105723571D01*
X148117858Y-105723571D01*
X148260715Y-105795000D01*
X148332144Y-105937857D01*
X148332144Y-106080714D01*
X147617858Y-106223571D01*
X148975001Y-106723571D02*
X148975001Y-105723571D01*
X148975001Y-106009286D02*
X149046429Y-105866429D01*
X149117858Y-105795000D01*
X149260715Y-105723571D01*
X149403572Y-105723571D01*
X149903572Y-106723571D02*
X149903572Y-105723571D01*
X149903572Y-106009286D02*
X149975000Y-105866429D01*
X150046429Y-105795000D01*
X150189286Y-105723571D01*
X150332143Y-105723571D01*
X151475000Y-105723571D02*
X151475000Y-106723571D01*
X150832143Y-105723571D02*
X150832143Y-106509286D01*
X150903571Y-106652143D01*
X151046429Y-106723571D01*
X151260714Y-106723571D01*
X151403571Y-106652143D01*
X151475000Y-106580714D01*
X152189286Y-105723571D02*
X152189286Y-107223571D01*
X152189286Y-105795000D02*
X152332143Y-105723571D01*
X152617857Y-105723571D01*
X152760714Y-105795000D01*
X152832143Y-105866429D01*
X152903572Y-106009286D01*
X152903572Y-106437857D01*
X152832143Y-106580714D01*
X152760714Y-106652143D01*
X152617857Y-106723571D01*
X152332143Y-106723571D01*
X152189286Y-106652143D01*
X153332143Y-105723571D02*
X153903572Y-105723571D01*
X153546429Y-105223571D02*
X153546429Y-106509286D01*
X153617857Y-106652143D01*
X153760715Y-106723571D01*
X153903572Y-106723571D01*
X143478572Y-93936429D02*
X143550001Y-93865000D01*
X143692858Y-93793571D01*
X144050001Y-93793571D01*
X144192858Y-93865000D01*
X144264287Y-93936429D01*
X144335715Y-94079286D01*
X144335715Y-94222143D01*
X144264287Y-94436429D01*
X143407144Y-95293571D01*
X144335715Y-95293571D01*
X144835715Y-93793571D02*
X145764286Y-93793571D01*
X145264286Y-94365000D01*
X145478572Y-94365000D01*
X145621429Y-94436429D01*
X145692858Y-94507857D01*
X145764286Y-94650714D01*
X145764286Y-95007857D01*
X145692858Y-95150714D01*
X145621429Y-95222143D01*
X145478572Y-95293571D01*
X145050000Y-95293571D01*
X144907143Y-95222143D01*
X144835715Y-95150714D01*
X146692857Y-93793571D02*
X146835714Y-93793571D01*
X146978571Y-93865000D01*
X147050000Y-93936429D01*
X147121429Y-94079286D01*
X147192857Y-94365000D01*
X147192857Y-94722143D01*
X147121429Y-95007857D01*
X147050000Y-95150714D01*
X146978571Y-95222143D01*
X146835714Y-95293571D01*
X146692857Y-95293571D01*
X146550000Y-95222143D01*
X146478571Y-95150714D01*
X146407143Y-95007857D01*
X146335714Y-94722143D01*
X146335714Y-94365000D01*
X146407143Y-94079286D01*
X146478571Y-93936429D01*
X146550000Y-93865000D01*
X146692857Y-93793571D01*
X147692857Y-93793571D02*
X148692857Y-93793571D01*
X148050000Y-95293571D01*
X165377857Y-127885000D02*
X166092143Y-127885000D01*
X165235000Y-128313571D02*
X165735000Y-126813571D01*
X166235000Y-128313571D01*
X165842143Y-86252857D02*
X166056429Y-86324286D01*
X166127857Y-86395714D01*
X166199286Y-86538571D01*
X166199286Y-86752857D01*
X166127857Y-86895714D01*
X166056429Y-86967143D01*
X165913571Y-87038571D01*
X165342143Y-87038571D01*
X165342143Y-85538571D01*
X165842143Y-85538571D01*
X165985000Y-85610000D01*
X166056429Y-85681429D01*
X166127857Y-85824286D01*
X166127857Y-85967143D01*
X166056429Y-86110000D01*
X165985000Y-86181429D01*
X165842143Y-86252857D01*
X165342143Y-86252857D01*
X167930000Y-123003571D02*
X168787143Y-123003571D01*
X168358572Y-124503571D02*
X168358572Y-123003571D01*
X169287143Y-124503571D02*
X169287143Y-123003571D01*
X169930000Y-124503571D02*
X169930000Y-123717857D01*
X169858571Y-123575000D01*
X169715714Y-123503571D01*
X169501429Y-123503571D01*
X169358571Y-123575000D01*
X169287143Y-123646429D01*
X170644286Y-124503571D02*
X170644286Y-123503571D01*
X170644286Y-123789286D02*
X170715714Y-123646429D01*
X170787143Y-123575000D01*
X170930000Y-123503571D01*
X171072857Y-123503571D01*
X172215714Y-123503571D02*
X172215714Y-124503571D01*
X171572857Y-123503571D02*
X171572857Y-124289286D01*
X171644285Y-124432143D01*
X171787143Y-124503571D01*
X172001428Y-124503571D01*
X172144285Y-124432143D01*
X172215714Y-124360714D01*
X126575715Y-124432143D02*
X126790001Y-124503571D01*
X127147144Y-124503571D01*
X127290001Y-124432143D01*
X127361430Y-124360714D01*
X127432858Y-124217857D01*
X127432858Y-124075000D01*
X127361430Y-123932143D01*
X127290001Y-123860714D01*
X127147144Y-123789286D01*
X126861430Y-123717857D01*
X126718572Y-123646429D01*
X126647144Y-123575000D01*
X126575715Y-123432143D01*
X126575715Y-123289286D01*
X126647144Y-123146429D01*
X126718572Y-123075000D01*
X126861430Y-123003571D01*
X127218572Y-123003571D01*
X127432858Y-123075000D01*
X128647143Y-124432143D02*
X128504286Y-124503571D01*
X128218572Y-124503571D01*
X128075715Y-124432143D01*
X128004286Y-124289286D01*
X128004286Y-123717857D01*
X128075715Y-123575000D01*
X128218572Y-123503571D01*
X128504286Y-123503571D01*
X128647143Y-123575000D01*
X128718572Y-123717857D01*
X128718572Y-123860714D01*
X128004286Y-124003571D01*
X129361429Y-124503571D02*
X129361429Y-123503571D01*
X129361429Y-123789286D02*
X129432857Y-123646429D01*
X129504286Y-123575000D01*
X129647143Y-123503571D01*
X129790000Y-123503571D01*
X130290000Y-124503571D02*
X130290000Y-123503571D01*
X130290000Y-123003571D02*
X130218571Y-123075000D01*
X130290000Y-123146429D01*
X130361428Y-123075000D01*
X130290000Y-123003571D01*
X130290000Y-123146429D01*
X131647143Y-124503571D02*
X131647143Y-123717857D01*
X131575714Y-123575000D01*
X131432857Y-123503571D01*
X131147143Y-123503571D01*
X131004286Y-123575000D01*
X131647143Y-124432143D02*
X131504286Y-124503571D01*
X131147143Y-124503571D01*
X131004286Y-124432143D01*
X130932857Y-124289286D01*
X130932857Y-124146429D01*
X131004286Y-124003571D01*
X131147143Y-123932143D01*
X131504286Y-123932143D01*
X131647143Y-123860714D01*
X132575715Y-124503571D02*
X132432857Y-124432143D01*
X132361429Y-124289286D01*
X132361429Y-123003571D01*
X133707143Y-102913571D02*
X133707143Y-101413571D01*
X134350000Y-101056429D02*
X134492857Y-100985000D01*
X134707143Y-100985000D01*
X134850000Y-101056429D01*
X134921429Y-101199286D01*
X134921429Y-101342143D01*
X134850000Y-101485000D01*
X134350000Y-101985000D01*
X134921429Y-101985000D01*
X136421429Y-102770714D02*
X136350000Y-102842143D01*
X136135714Y-102913571D01*
X135992857Y-102913571D01*
X135778572Y-102842143D01*
X135635714Y-102699286D01*
X135564286Y-102556429D01*
X135492857Y-102270714D01*
X135492857Y-102056429D01*
X135564286Y-101770714D01*
X135635714Y-101627857D01*
X135778572Y-101485000D01*
X135992857Y-101413571D01*
X136135714Y-101413571D01*
X136350000Y-101485000D01*
X136421429Y-101556429D01*
X138207143Y-102913571D02*
X138207143Y-101413571D01*
X139207143Y-101413571D02*
X139492857Y-101413571D01*
X139635715Y-101485000D01*
X139778572Y-101627857D01*
X139850000Y-101913571D01*
X139850000Y-102413571D01*
X139778572Y-102699286D01*
X139635715Y-102842143D01*
X139492857Y-102913571D01*
X139207143Y-102913571D01*
X139064286Y-102842143D01*
X138921429Y-102699286D01*
X138850000Y-102413571D01*
X138850000Y-101913571D01*
X138921429Y-101627857D01*
X139064286Y-101485000D01*
X139207143Y-101413571D01*
X141635715Y-102127857D02*
X142135715Y-102127857D01*
X142350001Y-102913571D02*
X141635715Y-102913571D01*
X141635715Y-101413571D01*
X142350001Y-101413571D01*
X142850001Y-102913571D02*
X143635715Y-101913571D01*
X142850001Y-101913571D02*
X143635715Y-102913571D01*
X144207144Y-101913571D02*
X144207144Y-103413571D01*
X144207144Y-101985000D02*
X144350001Y-101913571D01*
X144635715Y-101913571D01*
X144778572Y-101985000D01*
X144850001Y-102056429D01*
X144921430Y-102199286D01*
X144921430Y-102627857D01*
X144850001Y-102770714D01*
X144778572Y-102842143D01*
X144635715Y-102913571D01*
X144350001Y-102913571D01*
X144207144Y-102842143D01*
X146207144Y-102913571D02*
X146207144Y-102127857D01*
X146135715Y-101985000D01*
X145992858Y-101913571D01*
X145707144Y-101913571D01*
X145564287Y-101985000D01*
X146207144Y-102842143D02*
X146064287Y-102913571D01*
X145707144Y-102913571D01*
X145564287Y-102842143D01*
X145492858Y-102699286D01*
X145492858Y-102556429D01*
X145564287Y-102413571D01*
X145707144Y-102342143D01*
X146064287Y-102342143D01*
X146207144Y-102270714D01*
X146921430Y-101913571D02*
X146921430Y-102913571D01*
X146921430Y-102056429D02*
X146992858Y-101985000D01*
X147135716Y-101913571D01*
X147350001Y-101913571D01*
X147492858Y-101985000D01*
X147564287Y-102127857D01*
X147564287Y-102913571D01*
X148207144Y-102842143D02*
X148350001Y-102913571D01*
X148635716Y-102913571D01*
X148778573Y-102842143D01*
X148850001Y-102699286D01*
X148850001Y-102627857D01*
X148778573Y-102485000D01*
X148635716Y-102413571D01*
X148421430Y-102413571D01*
X148278573Y-102342143D01*
X148207144Y-102199286D01*
X148207144Y-102127857D01*
X148278573Y-101985000D01*
X148421430Y-101913571D01*
X148635716Y-101913571D01*
X148778573Y-101985000D01*
X149492859Y-102913571D02*
X149492859Y-101913571D01*
X149492859Y-101413571D02*
X149421430Y-101485000D01*
X149492859Y-101556429D01*
X149564287Y-101485000D01*
X149492859Y-101413571D01*
X149492859Y-101556429D01*
X150421431Y-102913571D02*
X150278573Y-102842143D01*
X150207145Y-102770714D01*
X150135716Y-102627857D01*
X150135716Y-102199286D01*
X150207145Y-102056429D01*
X150278573Y-101985000D01*
X150421431Y-101913571D01*
X150635716Y-101913571D01*
X150778573Y-101985000D01*
X150850002Y-102056429D01*
X150921431Y-102199286D01*
X150921431Y-102627857D01*
X150850002Y-102770714D01*
X150778573Y-102842143D01*
X150635716Y-102913571D01*
X150421431Y-102913571D01*
X151564288Y-101913571D02*
X151564288Y-102913571D01*
X151564288Y-102056429D02*
X151635716Y-101985000D01*
X151778574Y-101913571D01*
X151992859Y-101913571D01*
X152135716Y-101985000D01*
X152207145Y-102127857D01*
X152207145Y-102913571D01*
X132607857Y-178387143D02*
X132679286Y-178172857D01*
X132750714Y-178101429D01*
X132893571Y-178030000D01*
X133107857Y-178030000D01*
X133250714Y-178101429D01*
X133322143Y-178172857D01*
X133393571Y-178315715D01*
X133393571Y-178887143D01*
X131893571Y-178887143D01*
X131893571Y-178387143D01*
X131965000Y-178244286D01*
X132036429Y-178172857D01*
X132179286Y-178101429D01*
X132322143Y-178101429D01*
X132465000Y-178172857D01*
X132536429Y-178244286D01*
X132607857Y-178387143D01*
X132607857Y-178887143D01*
X133393571Y-176744286D02*
X132607857Y-176744286D01*
X132465000Y-176815715D01*
X132393571Y-176958572D01*
X132393571Y-177244286D01*
X132465000Y-177387143D01*
X133322143Y-176744286D02*
X133393571Y-176887143D01*
X133393571Y-177244286D01*
X133322143Y-177387143D01*
X133179286Y-177458572D01*
X133036429Y-177458572D01*
X132893571Y-177387143D01*
X132822143Y-177244286D01*
X132822143Y-176887143D01*
X132750714Y-176744286D01*
X132393571Y-176030000D02*
X133393571Y-176030000D01*
X132536429Y-176030000D02*
X132465000Y-175958572D01*
X132393571Y-175815714D01*
X132393571Y-175601429D01*
X132465000Y-175458572D01*
X132607857Y-175387143D01*
X133393571Y-175387143D01*
X133393571Y-174672857D02*
X131893571Y-174672857D01*
X132822143Y-174530000D02*
X133393571Y-174101429D01*
X132393571Y-174101429D02*
X132965000Y-174672857D01*
D12*
X153670000Y-147955000D02*
X153670000Y-150495000D01*
D11*
X158782143Y-149268571D02*
X158782143Y-147768571D01*
X159139286Y-147768571D01*
X159353571Y-147840000D01*
X159496429Y-147982857D01*
X159567857Y-148125714D01*
X159639286Y-148411429D01*
X159639286Y-148625714D01*
X159567857Y-148911429D01*
X159496429Y-149054286D01*
X159353571Y-149197143D01*
X159139286Y-149268571D01*
X158782143Y-149268571D01*
X160282143Y-149268571D02*
X160282143Y-147768571D01*
X161782143Y-147840000D02*
X161639286Y-147768571D01*
X161425000Y-147768571D01*
X161210715Y-147840000D01*
X161067857Y-147982857D01*
X160996429Y-148125714D01*
X160925000Y-148411429D01*
X160925000Y-148625714D01*
X160996429Y-148911429D01*
X161067857Y-149054286D01*
X161210715Y-149197143D01*
X161425000Y-149268571D01*
X161567857Y-149268571D01*
X161782143Y-149197143D01*
X161853572Y-149125714D01*
X161853572Y-148625714D01*
X161567857Y-148625714D01*
X162496429Y-149268571D02*
X162496429Y-147768571D01*
X162996429Y-147768571D02*
X163853572Y-147768571D01*
X163425001Y-149268571D02*
X163425001Y-147768571D01*
X164282143Y-149197143D02*
X164496429Y-149268571D01*
X164853572Y-149268571D01*
X164996429Y-149197143D01*
X165067858Y-149125714D01*
X165139286Y-148982857D01*
X165139286Y-148840000D01*
X165067858Y-148697143D01*
X164996429Y-148625714D01*
X164853572Y-148554286D01*
X164567858Y-148482857D01*
X164425000Y-148411429D01*
X164353572Y-148340000D01*
X164282143Y-148197143D01*
X164282143Y-148054286D01*
X164353572Y-147911429D01*
X164425000Y-147840000D01*
X164567858Y-147768571D01*
X164925000Y-147768571D01*
X165139286Y-147840000D01*
X138045714Y-149197143D02*
X138260000Y-149268571D01*
X138617143Y-149268571D01*
X138760000Y-149197143D01*
X138831429Y-149125714D01*
X138902857Y-148982857D01*
X138902857Y-148840000D01*
X138831429Y-148697143D01*
X138760000Y-148625714D01*
X138617143Y-148554286D01*
X138331429Y-148482857D01*
X138188571Y-148411429D01*
X138117143Y-148340000D01*
X138045714Y-148197143D01*
X138045714Y-148054286D01*
X138117143Y-147911429D01*
X138188571Y-147840000D01*
X138331429Y-147768571D01*
X138688571Y-147768571D01*
X138902857Y-147840000D01*
X139545714Y-148482857D02*
X140045714Y-148482857D01*
X140260000Y-149268571D02*
X139545714Y-149268571D01*
X139545714Y-147768571D01*
X140260000Y-147768571D01*
X141688571Y-147840000D02*
X141545714Y-147768571D01*
X141331428Y-147768571D01*
X141117143Y-147840000D01*
X140974285Y-147982857D01*
X140902857Y-148125714D01*
X140831428Y-148411429D01*
X140831428Y-148625714D01*
X140902857Y-148911429D01*
X140974285Y-149054286D01*
X141117143Y-149197143D01*
X141331428Y-149268571D01*
X141474285Y-149268571D01*
X141688571Y-149197143D01*
X141760000Y-149125714D01*
X141760000Y-148625714D01*
X141474285Y-148625714D01*
X142402857Y-149268571D02*
X142402857Y-147768571D01*
X142902857Y-148840000D01*
X143402857Y-147768571D01*
X143402857Y-149268571D01*
X144117143Y-148482857D02*
X144617143Y-148482857D01*
X144831429Y-149268571D02*
X144117143Y-149268571D01*
X144117143Y-147768571D01*
X144831429Y-147768571D01*
X145474286Y-149268571D02*
X145474286Y-147768571D01*
X146331429Y-149268571D01*
X146331429Y-147768571D01*
X146831429Y-147768571D02*
X147688572Y-147768571D01*
X147260001Y-149268571D02*
X147260001Y-147768571D01*
X148117143Y-149197143D02*
X148331429Y-149268571D01*
X148688572Y-149268571D01*
X148831429Y-149197143D01*
X148902858Y-149125714D01*
X148974286Y-148982857D01*
X148974286Y-148840000D01*
X148902858Y-148697143D01*
X148831429Y-148625714D01*
X148688572Y-148554286D01*
X148402858Y-148482857D01*
X148260000Y-148411429D01*
X148188572Y-148340000D01*
X148117143Y-148197143D01*
X148117143Y-148054286D01*
X148188572Y-147911429D01*
X148260000Y-147840000D01*
X148402858Y-147768571D01*
X148760000Y-147768571D01*
X148974286Y-147840000D01*
X165592144Y-177621429D02*
X165449286Y-177550000D01*
X165377858Y-177478571D01*
X165306429Y-177335714D01*
X165306429Y-177264286D01*
X165377858Y-177121429D01*
X165449286Y-177050000D01*
X165592144Y-176978571D01*
X165877858Y-176978571D01*
X166020715Y-177050000D01*
X166092144Y-177121429D01*
X166163572Y-177264286D01*
X166163572Y-177335714D01*
X166092144Y-177478571D01*
X166020715Y-177550000D01*
X165877858Y-177621429D01*
X165592144Y-177621429D01*
X165449286Y-177692857D01*
X165377858Y-177764286D01*
X165306429Y-177907143D01*
X165306429Y-178192857D01*
X165377858Y-178335714D01*
X165449286Y-178407143D01*
X165592144Y-178478571D01*
X165877858Y-178478571D01*
X166020715Y-178407143D01*
X166092144Y-178335714D01*
X166163572Y-178192857D01*
X166163572Y-177907143D01*
X166092144Y-177764286D01*
X166020715Y-177692857D01*
X165877858Y-177621429D01*
X148725001Y-176978571D02*
X149725001Y-176978571D01*
X149082144Y-178478571D01*
X166020715Y-168723571D02*
X165735001Y-168723571D01*
X165592144Y-168795000D01*
X165520715Y-168866429D01*
X165377858Y-169080714D01*
X165306429Y-169366429D01*
X165306429Y-169937857D01*
X165377858Y-170080714D01*
X165449286Y-170152143D01*
X165592144Y-170223571D01*
X165877858Y-170223571D01*
X166020715Y-170152143D01*
X166092144Y-170080714D01*
X166163572Y-169937857D01*
X166163572Y-169580714D01*
X166092144Y-169437857D01*
X166020715Y-169366429D01*
X165877858Y-169295000D01*
X165592144Y-169295000D01*
X165449286Y-169366429D01*
X165377858Y-169437857D01*
X165306429Y-169580714D01*
X149582144Y-168723571D02*
X148867858Y-168723571D01*
X148796429Y-169437857D01*
X148867858Y-169366429D01*
X149010715Y-169295000D01*
X149367858Y-169295000D01*
X149510715Y-169366429D01*
X149582144Y-169437857D01*
X149653572Y-169580714D01*
X149653572Y-169937857D01*
X149582144Y-170080714D01*
X149510715Y-170152143D01*
X149367858Y-170223571D01*
X149010715Y-170223571D01*
X148867858Y-170152143D01*
X148796429Y-170080714D01*
X166020715Y-160968571D02*
X166020715Y-161968571D01*
X165663572Y-160397143D02*
X165306429Y-161468571D01*
X166235001Y-161468571D01*
X148725001Y-160468571D02*
X149653572Y-160468571D01*
X149153572Y-161040000D01*
X149367858Y-161040000D01*
X149510715Y-161111429D01*
X149582144Y-161182857D01*
X149653572Y-161325714D01*
X149653572Y-161682857D01*
X149582144Y-161825714D01*
X149510715Y-161897143D01*
X149367858Y-161968571D01*
X148939286Y-161968571D01*
X148796429Y-161897143D01*
X148725001Y-161825714D01*
X165306429Y-152356429D02*
X165377858Y-152285000D01*
X165520715Y-152213571D01*
X165877858Y-152213571D01*
X166020715Y-152285000D01*
X166092144Y-152356429D01*
X166163572Y-152499286D01*
X166163572Y-152642143D01*
X166092144Y-152856429D01*
X165235001Y-153713571D01*
X166163572Y-153713571D01*
X149653572Y-153713571D02*
X148796429Y-153713571D01*
X149225001Y-153713571D02*
X149225001Y-152213571D01*
X149082144Y-152427857D01*
X148939286Y-152570714D01*
X148796429Y-152642143D01*
X134663571Y-162190714D02*
X133163571Y-162190714D01*
X133163571Y-161833571D01*
X133235000Y-161619286D01*
X133377857Y-161476428D01*
X133520714Y-161405000D01*
X133806429Y-161333571D01*
X134020714Y-161333571D01*
X134306429Y-161405000D01*
X134449286Y-161476428D01*
X134592143Y-161619286D01*
X134663571Y-161833571D01*
X134663571Y-162190714D01*
X134663571Y-160690714D02*
X133163571Y-160690714D01*
X133163571Y-159690714D02*
X133163571Y-159405000D01*
X133235000Y-159262142D01*
X133377857Y-159119285D01*
X133663571Y-159047857D01*
X134163571Y-159047857D01*
X134449286Y-159119285D01*
X134592143Y-159262142D01*
X134663571Y-159405000D01*
X134663571Y-159690714D01*
X134592143Y-159833571D01*
X134449286Y-159976428D01*
X134163571Y-160047857D01*
X133663571Y-160047857D01*
X133377857Y-159976428D01*
X133235000Y-159833571D01*
X133163571Y-159690714D01*
X134520714Y-170437857D02*
X134592143Y-170509286D01*
X134663571Y-170723572D01*
X134663571Y-170866429D01*
X134592143Y-171080714D01*
X134449286Y-171223572D01*
X134306429Y-171295000D01*
X134020714Y-171366429D01*
X133806429Y-171366429D01*
X133520714Y-171295000D01*
X133377857Y-171223572D01*
X133235000Y-171080714D01*
X133163571Y-170866429D01*
X133163571Y-170723572D01*
X133235000Y-170509286D01*
X133306429Y-170437857D01*
X134663571Y-169080714D02*
X134663571Y-169795000D01*
X133163571Y-169795000D01*
X134663571Y-168580714D02*
X133163571Y-168580714D01*
X134663571Y-167723571D02*
X133806429Y-168366428D01*
X133163571Y-167723571D02*
X134020714Y-168580714D01*
X111260000Y-123638571D02*
X111760000Y-125138571D01*
X112260000Y-123638571D01*
X109612857Y-123710000D02*
X109470000Y-123638571D01*
X109255714Y-123638571D01*
X109041429Y-123710000D01*
X108898571Y-123852857D01*
X108827143Y-123995714D01*
X108755714Y-124281429D01*
X108755714Y-124495714D01*
X108827143Y-124781429D01*
X108898571Y-124924286D01*
X109041429Y-125067143D01*
X109255714Y-125138571D01*
X109398571Y-125138571D01*
X109612857Y-125067143D01*
X109684286Y-124995714D01*
X109684286Y-124495714D01*
X109398571Y-124495714D01*
D12*
X114300000Y-126365000D02*
X114300000Y-125730000D01*
X114300000Y-125095000D02*
X114300000Y-126365000D01*
X114300000Y-93980000D02*
X114300000Y-125095000D01*
X114300000Y-99060000D02*
X114300000Y-93980000D01*
D11*
X107617143Y-87038571D02*
X107617143Y-85538571D01*
X107617143Y-86252857D02*
X108474286Y-86252857D01*
X108474286Y-87038571D02*
X108474286Y-85538571D01*
X109760000Y-86967143D02*
X109617143Y-87038571D01*
X109331429Y-87038571D01*
X109188572Y-86967143D01*
X109117143Y-86824286D01*
X109117143Y-86252857D01*
X109188572Y-86110000D01*
X109331429Y-86038571D01*
X109617143Y-86038571D01*
X109760000Y-86110000D01*
X109831429Y-86252857D01*
X109831429Y-86395714D01*
X109117143Y-86538571D01*
X111117143Y-87038571D02*
X111117143Y-86252857D01*
X111045714Y-86110000D01*
X110902857Y-86038571D01*
X110617143Y-86038571D01*
X110474286Y-86110000D01*
X111117143Y-86967143D02*
X110974286Y-87038571D01*
X110617143Y-87038571D01*
X110474286Y-86967143D01*
X110402857Y-86824286D01*
X110402857Y-86681429D01*
X110474286Y-86538571D01*
X110617143Y-86467143D01*
X110974286Y-86467143D01*
X111117143Y-86395714D01*
X112474286Y-87038571D02*
X112474286Y-85538571D01*
X112474286Y-86967143D02*
X112331429Y-87038571D01*
X112045715Y-87038571D01*
X111902857Y-86967143D01*
X111831429Y-86895714D01*
X111760000Y-86752857D01*
X111760000Y-86324286D01*
X111831429Y-86181429D01*
X111902857Y-86110000D01*
X112045715Y-86038571D01*
X112331429Y-86038571D01*
X112474286Y-86110000D01*
X113760000Y-86967143D02*
X113617143Y-87038571D01*
X113331429Y-87038571D01*
X113188572Y-86967143D01*
X113117143Y-86824286D01*
X113117143Y-86252857D01*
X113188572Y-86110000D01*
X113331429Y-86038571D01*
X113617143Y-86038571D01*
X113760000Y-86110000D01*
X113831429Y-86252857D01*
X113831429Y-86395714D01*
X113117143Y-86538571D01*
X114474286Y-87038571D02*
X114474286Y-86038571D01*
X114474286Y-86324286D02*
X114545714Y-86181429D01*
X114617143Y-86110000D01*
X114760000Y-86038571D01*
X114902857Y-86038571D01*
X115331428Y-86967143D02*
X115474285Y-87038571D01*
X115760000Y-87038571D01*
X115902857Y-86967143D01*
X115974285Y-86824286D01*
X115974285Y-86752857D01*
X115902857Y-86610000D01*
X115760000Y-86538571D01*
X115545714Y-86538571D01*
X115402857Y-86467143D01*
X115331428Y-86324286D01*
X115331428Y-86252857D01*
X115402857Y-86110000D01*
X115545714Y-86038571D01*
X115760000Y-86038571D01*
X115902857Y-86110000D01*
X87955715Y-95063571D02*
X88884286Y-95063571D01*
X88384286Y-95635000D01*
X88598572Y-95635000D01*
X88741429Y-95706429D01*
X88812858Y-95777857D01*
X88884286Y-95920714D01*
X88884286Y-96277857D01*
X88812858Y-96420714D01*
X88741429Y-96492143D01*
X88598572Y-96563571D01*
X88170000Y-96563571D01*
X88027143Y-96492143D01*
X87955715Y-96420714D01*
X89527143Y-96420714D02*
X89598571Y-96492143D01*
X89527143Y-96563571D01*
X89455714Y-96492143D01*
X89527143Y-96420714D01*
X89527143Y-96563571D01*
X90098572Y-95063571D02*
X91027143Y-95063571D01*
X90527143Y-95635000D01*
X90741429Y-95635000D01*
X90884286Y-95706429D01*
X90955715Y-95777857D01*
X91027143Y-95920714D01*
X91027143Y-96277857D01*
X90955715Y-96420714D01*
X90884286Y-96492143D01*
X90741429Y-96563571D01*
X90312857Y-96563571D01*
X90170000Y-96492143D01*
X90098572Y-96420714D01*
X91455714Y-95063571D02*
X91955714Y-96563571D01*
X92455714Y-95063571D01*
X80994287Y-95063571D02*
X80280001Y-95063571D01*
X80208572Y-95777857D01*
X80280001Y-95706429D01*
X80422858Y-95635000D01*
X80780001Y-95635000D01*
X80922858Y-95706429D01*
X80994287Y-95777857D01*
X81065715Y-95920714D01*
X81065715Y-96277857D01*
X80994287Y-96420714D01*
X80922858Y-96492143D01*
X80780001Y-96563571D01*
X80422858Y-96563571D01*
X80280001Y-96492143D01*
X80208572Y-96420714D01*
X81494286Y-95063571D02*
X81994286Y-96563571D01*
X82494286Y-95063571D01*
D13*
X84693334Y-85183333D02*
X84026667Y-85183333D01*
X84026667Y-83783333D01*
X85693334Y-85116667D02*
X85560000Y-85183333D01*
X85293334Y-85183333D01*
X85160000Y-85116667D01*
X85093334Y-84983333D01*
X85093334Y-84450000D01*
X85160000Y-84316667D01*
X85293334Y-84250000D01*
X85560000Y-84250000D01*
X85693334Y-84316667D01*
X85760000Y-84450000D01*
X85760000Y-84583333D01*
X85093334Y-84716667D01*
X86226667Y-84250000D02*
X86560000Y-85183333D01*
X86893334Y-84250000D01*
X87960001Y-85116667D02*
X87826667Y-85183333D01*
X87560001Y-85183333D01*
X87426667Y-85116667D01*
X87360001Y-84983333D01*
X87360001Y-84450000D01*
X87426667Y-84316667D01*
X87560001Y-84250000D01*
X87826667Y-84250000D01*
X87960001Y-84316667D01*
X88026667Y-84450000D01*
X88026667Y-84583333D01*
X87360001Y-84716667D01*
X88826667Y-85183333D02*
X88693334Y-85116667D01*
X88626667Y-84983333D01*
X88626667Y-83783333D01*
X82526666Y-87400000D02*
X82460000Y-87466667D01*
X82260000Y-87533333D01*
X82126666Y-87533333D01*
X81926666Y-87466667D01*
X81793333Y-87333333D01*
X81726666Y-87200000D01*
X81660000Y-86933333D01*
X81660000Y-86733333D01*
X81726666Y-86466667D01*
X81793333Y-86333333D01*
X81926666Y-86200000D01*
X82126666Y-86133333D01*
X82260000Y-86133333D01*
X82460000Y-86200000D01*
X82526666Y-86266667D01*
X83326666Y-87533333D02*
X83193333Y-87466667D01*
X83126666Y-87400000D01*
X83060000Y-87266667D01*
X83060000Y-86866667D01*
X83126666Y-86733333D01*
X83193333Y-86666667D01*
X83326666Y-86600000D01*
X83526666Y-86600000D01*
X83660000Y-86666667D01*
X83726666Y-86733333D01*
X83793333Y-86866667D01*
X83793333Y-87266667D01*
X83726666Y-87400000D01*
X83660000Y-87466667D01*
X83526666Y-87533333D01*
X83326666Y-87533333D01*
X84393333Y-86600000D02*
X84393333Y-87533333D01*
X84393333Y-86733333D02*
X84460000Y-86666667D01*
X84593333Y-86600000D01*
X84793333Y-86600000D01*
X84926667Y-86666667D01*
X84993333Y-86800000D01*
X84993333Y-87533333D01*
X85526667Y-86600000D02*
X85860000Y-87533333D01*
X86193334Y-86600000D01*
X87260001Y-87466667D02*
X87126667Y-87533333D01*
X86860001Y-87533333D01*
X86726667Y-87466667D01*
X86660001Y-87333333D01*
X86660001Y-86800000D01*
X86726667Y-86666667D01*
X86860001Y-86600000D01*
X87126667Y-86600000D01*
X87260001Y-86666667D01*
X87326667Y-86800000D01*
X87326667Y-86933333D01*
X86660001Y-87066667D01*
X87926667Y-87533333D02*
X87926667Y-86600000D01*
X87926667Y-86866667D02*
X87993334Y-86733333D01*
X88060001Y-86666667D01*
X88193334Y-86600000D01*
X88326667Y-86600000D01*
X88593334Y-86600000D02*
X89126668Y-86600000D01*
X88793334Y-86133333D02*
X88793334Y-87333333D01*
X88860001Y-87466667D01*
X88993334Y-87533333D01*
X89126668Y-87533333D01*
X90126668Y-87466667D02*
X89993334Y-87533333D01*
X89726668Y-87533333D01*
X89593334Y-87466667D01*
X89526668Y-87333333D01*
X89526668Y-86800000D01*
X89593334Y-86666667D01*
X89726668Y-86600000D01*
X89993334Y-86600000D01*
X90126668Y-86666667D01*
X90193334Y-86800000D01*
X90193334Y-86933333D01*
X89526668Y-87066667D01*
X90793334Y-87533333D02*
X90793334Y-86600000D01*
X90793334Y-86866667D02*
X90860001Y-86733333D01*
X90926668Y-86666667D01*
X91060001Y-86600000D01*
X91193334Y-86600000D01*
D11*
X117518571Y-163027857D02*
X116804286Y-163527857D01*
X117518571Y-163885000D02*
X116018571Y-163885000D01*
X116018571Y-163313572D01*
X116090000Y-163170714D01*
X116161429Y-163099286D01*
X116304286Y-163027857D01*
X116518571Y-163027857D01*
X116661429Y-163099286D01*
X116732857Y-163170714D01*
X116804286Y-163313572D01*
X116804286Y-163885000D01*
X116090000Y-161599286D02*
X116018571Y-161742143D01*
X116018571Y-161956429D01*
X116090000Y-162170714D01*
X116232857Y-162313572D01*
X116375714Y-162385000D01*
X116661429Y-162456429D01*
X116875714Y-162456429D01*
X117161429Y-162385000D01*
X117304286Y-162313572D01*
X117447143Y-162170714D01*
X117518571Y-161956429D01*
X117518571Y-161813572D01*
X117447143Y-161599286D01*
X117375714Y-161527857D01*
X116875714Y-161527857D01*
X116875714Y-161813572D01*
X116732857Y-160385000D02*
X116804286Y-160170714D01*
X116875714Y-160099286D01*
X117018571Y-160027857D01*
X117232857Y-160027857D01*
X117375714Y-160099286D01*
X117447143Y-160170714D01*
X117518571Y-160313572D01*
X117518571Y-160885000D01*
X116018571Y-160885000D01*
X116018571Y-160385000D01*
X116090000Y-160242143D01*
X116161429Y-160170714D01*
X116304286Y-160099286D01*
X116447143Y-160099286D01*
X116590000Y-160170714D01*
X116661429Y-160242143D01*
X116732857Y-160385000D01*
X116732857Y-160885000D01*
X117518571Y-157527857D02*
X117518571Y-158242143D01*
X116018571Y-158242143D01*
X116732857Y-157027857D02*
X116732857Y-156527857D01*
X117518571Y-156313571D02*
X117518571Y-157027857D01*
X116018571Y-157027857D01*
X116018571Y-156313571D01*
X117518571Y-155670714D02*
X116018571Y-155670714D01*
X116018571Y-155313571D01*
X116090000Y-155099286D01*
X116232857Y-154956428D01*
X116375714Y-154885000D01*
X116661429Y-154813571D01*
X116875714Y-154813571D01*
X117161429Y-154885000D01*
X117304286Y-154956428D01*
X117447143Y-155099286D01*
X117518571Y-155313571D01*
X117518571Y-155670714D01*
X92753571Y-163662857D02*
X92039286Y-164162857D01*
X92753571Y-164520000D02*
X91253571Y-164520000D01*
X91253571Y-163948572D01*
X91325000Y-163805714D01*
X91396429Y-163734286D01*
X91539286Y-163662857D01*
X91753571Y-163662857D01*
X91896429Y-163734286D01*
X91967857Y-163805714D01*
X92039286Y-163948572D01*
X92039286Y-164520000D01*
X91325000Y-162234286D02*
X91253571Y-162377143D01*
X91253571Y-162591429D01*
X91325000Y-162805714D01*
X91467857Y-162948572D01*
X91610714Y-163020000D01*
X91896429Y-163091429D01*
X92110714Y-163091429D01*
X92396429Y-163020000D01*
X92539286Y-162948572D01*
X92682143Y-162805714D01*
X92753571Y-162591429D01*
X92753571Y-162448572D01*
X92682143Y-162234286D01*
X92610714Y-162162857D01*
X92110714Y-162162857D01*
X92110714Y-162448572D01*
X91967857Y-161020000D02*
X92039286Y-160805714D01*
X92110714Y-160734286D01*
X92253571Y-160662857D01*
X92467857Y-160662857D01*
X92610714Y-160734286D01*
X92682143Y-160805714D01*
X92753571Y-160948572D01*
X92753571Y-161520000D01*
X91253571Y-161520000D01*
X91253571Y-161020000D01*
X91325000Y-160877143D01*
X91396429Y-160805714D01*
X91539286Y-160734286D01*
X91682143Y-160734286D01*
X91825000Y-160805714D01*
X91896429Y-160877143D01*
X91967857Y-161020000D01*
X91967857Y-161520000D01*
X92753571Y-158162857D02*
X92753571Y-158877143D01*
X91253571Y-158877143D01*
X91967857Y-157662857D02*
X91967857Y-157162857D01*
X92753571Y-156948571D02*
X92753571Y-157662857D01*
X91253571Y-157662857D01*
X91253571Y-156948571D01*
X92753571Y-156305714D02*
X91253571Y-156305714D01*
X91253571Y-155948571D01*
X91325000Y-155734286D01*
X91467857Y-155591428D01*
X91610714Y-155520000D01*
X91896429Y-155448571D01*
X92110714Y-155448571D01*
X92396429Y-155520000D01*
X92539286Y-155591428D01*
X92682143Y-155734286D01*
X92753571Y-155948571D01*
X92753571Y-156305714D01*
D12*
X84851905Y-139231667D02*
X85328096Y-139231667D01*
X84756667Y-139517381D02*
X85090000Y-138517381D01*
X85423334Y-139517381D01*
X87701429Y-138993571D02*
X87844286Y-139041190D01*
X87891905Y-139088810D01*
X87939524Y-139184048D01*
X87939524Y-139326905D01*
X87891905Y-139422143D01*
X87844286Y-139469762D01*
X87749048Y-139517381D01*
X87368095Y-139517381D01*
X87368095Y-138517381D01*
X87701429Y-138517381D01*
X87796667Y-138565000D01*
X87844286Y-138612619D01*
X87891905Y-138707857D01*
X87891905Y-138803095D01*
X87844286Y-138898333D01*
X87796667Y-138945952D01*
X87701429Y-138993571D01*
X87368095Y-138993571D01*
X90479524Y-139422143D02*
X90431905Y-139469762D01*
X90289048Y-139517381D01*
X90193810Y-139517381D01*
X90050952Y-139469762D01*
X89955714Y-139374524D01*
X89908095Y-139279286D01*
X89860476Y-139088810D01*
X89860476Y-138945952D01*
X89908095Y-138755476D01*
X89955714Y-138660238D01*
X90050952Y-138565000D01*
X90193810Y-138517381D01*
X90289048Y-138517381D01*
X90431905Y-138565000D01*
X90479524Y-138612619D01*
X90479524Y-134342143D02*
X90431905Y-134389762D01*
X90289048Y-134437381D01*
X90193810Y-134437381D01*
X90050952Y-134389762D01*
X89955714Y-134294524D01*
X89908095Y-134199286D01*
X89860476Y-134008810D01*
X89860476Y-133865952D01*
X89908095Y-133675476D01*
X89955714Y-133580238D01*
X90050952Y-133485000D01*
X90193810Y-133437381D01*
X90289048Y-133437381D01*
X90431905Y-133485000D01*
X90479524Y-133532619D01*
X87701429Y-133913571D02*
X87844286Y-133961190D01*
X87891905Y-134008810D01*
X87939524Y-134104048D01*
X87939524Y-134246905D01*
X87891905Y-134342143D01*
X87844286Y-134389762D01*
X87749048Y-134437381D01*
X87368095Y-134437381D01*
X87368095Y-133437381D01*
X87701429Y-133437381D01*
X87796667Y-133485000D01*
X87844286Y-133532619D01*
X87891905Y-133627857D01*
X87891905Y-133723095D01*
X87844286Y-133818333D01*
X87796667Y-133865952D01*
X87701429Y-133913571D01*
X87368095Y-133913571D01*
X84851905Y-134151667D02*
X85328096Y-134151667D01*
X84756667Y-134437381D02*
X85090000Y-133437381D01*
X85423334Y-134437381D01*
X115244524Y-139422143D02*
X115196905Y-139469762D01*
X115054048Y-139517381D01*
X114958810Y-139517381D01*
X114815952Y-139469762D01*
X114720714Y-139374524D01*
X114673095Y-139279286D01*
X114625476Y-139088810D01*
X114625476Y-138945952D01*
X114673095Y-138755476D01*
X114720714Y-138660238D01*
X114815952Y-138565000D01*
X114958810Y-138517381D01*
X115054048Y-138517381D01*
X115196905Y-138565000D01*
X115244524Y-138612619D01*
X112466429Y-138993571D02*
X112609286Y-139041190D01*
X112656905Y-139088810D01*
X112704524Y-139184048D01*
X112704524Y-139326905D01*
X112656905Y-139422143D01*
X112609286Y-139469762D01*
X112514048Y-139517381D01*
X112133095Y-139517381D01*
X112133095Y-138517381D01*
X112466429Y-138517381D01*
X112561667Y-138565000D01*
X112609286Y-138612619D01*
X112656905Y-138707857D01*
X112656905Y-138803095D01*
X112609286Y-138898333D01*
X112561667Y-138945952D01*
X112466429Y-138993571D01*
X112133095Y-138993571D01*
X109616905Y-139231667D02*
X110093096Y-139231667D01*
X109521667Y-139517381D02*
X109855000Y-138517381D01*
X110188334Y-139517381D01*
X115244524Y-134342143D02*
X115196905Y-134389762D01*
X115054048Y-134437381D01*
X114958810Y-134437381D01*
X114815952Y-134389762D01*
X114720714Y-134294524D01*
X114673095Y-134199286D01*
X114625476Y-134008810D01*
X114625476Y-133865952D01*
X114673095Y-133675476D01*
X114720714Y-133580238D01*
X114815952Y-133485000D01*
X114958810Y-133437381D01*
X115054048Y-133437381D01*
X115196905Y-133485000D01*
X115244524Y-133532619D01*
X112466429Y-133913571D02*
X112609286Y-133961190D01*
X112656905Y-134008810D01*
X112704524Y-134104048D01*
X112704524Y-134246905D01*
X112656905Y-134342143D01*
X112609286Y-134389762D01*
X112514048Y-134437381D01*
X112133095Y-134437381D01*
X112133095Y-133437381D01*
X112466429Y-133437381D01*
X112561667Y-133485000D01*
X112609286Y-133532619D01*
X112656905Y-133627857D01*
X112656905Y-133723095D01*
X112609286Y-133818333D01*
X112561667Y-133865952D01*
X112466429Y-133913571D01*
X112133095Y-133913571D01*
X109616905Y-134151667D02*
X110093096Y-134151667D01*
X109521667Y-134437381D02*
X109855000Y-133437381D01*
X110188334Y-134437381D01*
X107576905Y-138565000D02*
X107481667Y-138517381D01*
X107338810Y-138517381D01*
X107195952Y-138565000D01*
X107100714Y-138660238D01*
X107053095Y-138755476D01*
X107005476Y-138945952D01*
X107005476Y-139088810D01*
X107053095Y-139279286D01*
X107100714Y-139374524D01*
X107195952Y-139469762D01*
X107338810Y-139517381D01*
X107434048Y-139517381D01*
X107576905Y-139469762D01*
X107624524Y-139422143D01*
X107624524Y-139088810D01*
X107434048Y-139088810D01*
D11*
X81978572Y-134092143D02*
X83121429Y-134092143D01*
X82550000Y-134663571D02*
X82550000Y-133520714D01*
D12*
X106553096Y-133485000D02*
X106457858Y-133437381D01*
X106315001Y-133437381D01*
X106172143Y-133485000D01*
X106076905Y-133580238D01*
X106029286Y-133675476D01*
X105981667Y-133865952D01*
X105981667Y-134008810D01*
X106029286Y-134199286D01*
X106076905Y-134294524D01*
X106172143Y-134389762D01*
X106315001Y-134437381D01*
X106410239Y-134437381D01*
X106553096Y-134389762D01*
X106600715Y-134342143D01*
X106600715Y-134008810D01*
X106410239Y-134008810D01*
X107029286Y-134437381D02*
X107029286Y-133437381D01*
X107600715Y-134437381D01*
X107600715Y-133437381D01*
X108076905Y-134437381D02*
X108076905Y-133437381D01*
X108315000Y-133437381D01*
X108457858Y-133485000D01*
X108553096Y-133580238D01*
X108600715Y-133675476D01*
X108648334Y-133865952D01*
X108648334Y-134008810D01*
X108600715Y-134199286D01*
X108553096Y-134294524D01*
X108457858Y-134389762D01*
X108315000Y-134437381D01*
X108076905Y-134437381D01*
D11*
X82613572Y-175367143D02*
X83756429Y-175367143D01*
X83185000Y-175938571D02*
X83185000Y-174795714D01*
X81978572Y-139172143D02*
X83121429Y-139172143D01*
X82550000Y-139743571D02*
X82550000Y-138600714D01*
D12*
X99060000Y-133350000D02*
X99060000Y-181610000D01*
D14*
X136525000Y-87690000D02*
X164525000Y-87690000D01*
X164525000Y-87690000D02*
X164525000Y-85030000D01*
X164525000Y-85030000D02*
X136525000Y-85030000D01*
X136525000Y-85030000D02*
X136525000Y-87690000D01*
X135255000Y-87690000D02*
X133925000Y-87690000D01*
X133925000Y-87690000D02*
X133925000Y-86360000D01*
X132595000Y-95615000D02*
X132595000Y-97385000D01*
X132595000Y-97385000D02*
X168395000Y-97385000D01*
X168395000Y-97385000D02*
X168395000Y-91845000D01*
X168395000Y-91845000D02*
X132595000Y-91845000D01*
X132595000Y-91845000D02*
X132595000Y-93615000D01*
X132595000Y-93615000D02*
G75*
G02X132595000Y-95615000I0J-1000000D01*
G01*
X161925000Y-126305000D02*
X133925000Y-126305000D01*
X133925000Y-126305000D02*
X133925000Y-128965000D01*
X133925000Y-128965000D02*
X161925000Y-128965000D01*
X161925000Y-128965000D02*
X161925000Y-126305000D01*
X163195000Y-126305000D02*
X164525000Y-126305000D01*
X164525000Y-126305000D02*
X164525000Y-127635000D01*
X129480000Y-122615000D02*
X132140000Y-122615000D01*
X129480000Y-104775000D02*
X129480000Y-122615000D01*
X132140000Y-104775000D02*
X132140000Y-122615000D01*
X129480000Y-104775000D02*
X132140000Y-104775000D01*
X129480000Y-103505000D02*
X129480000Y-102175000D01*
X129480000Y-102175000D02*
X130810000Y-102175000D01*
X160715000Y-111065000D02*
X158055000Y-111065000D01*
X160715000Y-118745000D02*
X160715000Y-111065000D01*
X158055000Y-118745000D02*
X158055000Y-111065000D01*
X160715000Y-118745000D02*
X158055000Y-118745000D01*
X160715000Y-120015000D02*
X160715000Y-121345000D01*
X160715000Y-121345000D02*
X159385000Y-121345000D01*
X168850000Y-94615000D02*
X168850000Y-122615000D01*
X168850000Y-122615000D02*
X171510000Y-122615000D01*
X171510000Y-122615000D02*
X171510000Y-94615000D01*
X171510000Y-94615000D02*
X168850000Y-94615000D01*
X168850000Y-93345000D02*
X168850000Y-92015000D01*
X168850000Y-92015000D02*
X170180000Y-92015000D01*
X126940000Y-94615000D02*
X126940000Y-122615000D01*
X126940000Y-122615000D02*
X129600000Y-122615000D01*
X129600000Y-122615000D02*
X129600000Y-94615000D01*
X129600000Y-94615000D02*
X126940000Y-94615000D01*
X126940000Y-93345000D02*
X126940000Y-92015000D01*
X126940000Y-92015000D02*
X128270000Y-92015000D01*
X157555000Y-102325000D02*
X153635000Y-102325000D01*
X157555000Y-99605000D02*
X153635000Y-99605000D01*
X157555000Y-102325000D02*
X157555000Y-101715000D01*
X157555000Y-100215000D02*
X157555000Y-99605000D01*
X153635000Y-102325000D02*
X153635000Y-101715000D01*
X153635000Y-100215000D02*
X153635000Y-99605000D01*
X155515000Y-108645000D02*
X158175000Y-108645000D01*
X155515000Y-106045000D02*
X155515000Y-108645000D01*
X158175000Y-106045000D02*
X158175000Y-108645000D01*
X155515000Y-106045000D02*
X158175000Y-106045000D01*
X155515000Y-104775000D02*
X155515000Y-103445000D01*
X155515000Y-103445000D02*
X156845000Y-103445000D01*
X140395000Y-111065000D02*
X137735000Y-111065000D01*
X140395000Y-118745000D02*
X140395000Y-111065000D01*
X137735000Y-118745000D02*
X137735000Y-111065000D01*
X140395000Y-118745000D02*
X137735000Y-118745000D01*
X140395000Y-120015000D02*
X140395000Y-121345000D01*
X140395000Y-121345000D02*
X139065000Y-121345000D01*
X150555000Y-111065000D02*
X147895000Y-111065000D01*
X150555000Y-118745000D02*
X150555000Y-111065000D01*
X147895000Y-118745000D02*
X147895000Y-111065000D01*
X150555000Y-118745000D02*
X147895000Y-118745000D01*
X150555000Y-120015000D02*
X150555000Y-121345000D01*
X150555000Y-121345000D02*
X149225000Y-121345000D01*
X133230000Y-140065000D02*
X133230000Y-141835000D01*
X133230000Y-141835000D02*
X158870000Y-141835000D01*
X158870000Y-141835000D02*
X158870000Y-136295000D01*
X158870000Y-136295000D02*
X133230000Y-136295000D01*
X133230000Y-136295000D02*
X133230000Y-138065000D01*
X133230000Y-138065000D02*
G75*
G02X133230000Y-140065000I0J-1000000D01*
G01*
X126940000Y-172780000D02*
X129600000Y-172780000D01*
X126940000Y-144780000D02*
X126940000Y-172780000D01*
X129600000Y-144780000D02*
X129600000Y-172780000D01*
X126940000Y-144780000D02*
X129600000Y-144780000D01*
X126940000Y-143510000D02*
X126940000Y-142180000D01*
X126940000Y-142180000D02*
X128270000Y-142180000D01*
X168850000Y-144780000D02*
X168850000Y-172780000D01*
X168850000Y-172780000D02*
X171510000Y-172780000D01*
X171510000Y-172780000D02*
X171510000Y-144780000D01*
X171510000Y-144780000D02*
X168850000Y-144780000D01*
X168850000Y-143510000D02*
X168850000Y-142180000D01*
X168850000Y-142180000D02*
X170180000Y-142180000D01*
X130115000Y-172780000D02*
X132775000Y-172780000D01*
X130115000Y-154940000D02*
X130115000Y-172780000D01*
X132775000Y-154940000D02*
X132775000Y-172780000D01*
X130115000Y-154940000D02*
X132775000Y-154940000D01*
X130115000Y-153670000D02*
X130115000Y-152340000D01*
X130115000Y-152340000D02*
X131445000Y-152340000D01*
X135315000Y-162500000D02*
X132655000Y-162500000D01*
X135315000Y-165100000D02*
X135315000Y-162500000D01*
X132655000Y-165100000D02*
X132655000Y-162500000D01*
X135315000Y-165100000D02*
X132655000Y-165100000D01*
X135315000Y-166370000D02*
X135315000Y-167700000D01*
X135315000Y-167700000D02*
X133985000Y-167700000D01*
X153730000Y-147380000D02*
X153730000Y-144720000D01*
X135890000Y-147380000D02*
X153730000Y-147380000D01*
X135890000Y-144720000D02*
X153730000Y-144720000D01*
X135890000Y-147380000D02*
X135890000Y-144720000D01*
X134620000Y-147380000D02*
X133290000Y-147380000D01*
X133290000Y-147380000D02*
X133290000Y-146050000D01*
X168970000Y-147380000D02*
X168970000Y-144720000D01*
X156210000Y-147380000D02*
X168970000Y-147380000D01*
X156210000Y-144720000D02*
X168970000Y-144720000D01*
X156210000Y-147380000D02*
X156210000Y-144720000D01*
X154940000Y-147380000D02*
X153610000Y-147380000D01*
X153610000Y-147380000D02*
X153610000Y-146050000D01*
X156670000Y-155685000D02*
X156670000Y-156135000D01*
X156670000Y-156135000D02*
X163370000Y-156135000D01*
X163370000Y-156135000D02*
X163370000Y-155735000D01*
X156670000Y-154385000D02*
X156670000Y-151685000D01*
X163370000Y-151685000D02*
X163370000Y-154385000D01*
X156670000Y-149935000D02*
X163370000Y-149935000D01*
X163370000Y-149935000D02*
X163370000Y-150385000D01*
X156670000Y-150385000D02*
X156670000Y-149935000D01*
X140160000Y-155685000D02*
X140160000Y-156135000D01*
X140160000Y-156135000D02*
X146860000Y-156135000D01*
X146860000Y-156135000D02*
X146860000Y-155735000D01*
X140160000Y-154385000D02*
X140160000Y-151685000D01*
X146860000Y-151685000D02*
X146860000Y-154385000D01*
X140160000Y-149935000D02*
X146860000Y-149935000D01*
X146860000Y-149935000D02*
X146860000Y-150385000D01*
X140160000Y-150385000D02*
X140160000Y-149935000D01*
X140160000Y-163940000D02*
X140160000Y-164390000D01*
X140160000Y-164390000D02*
X146860000Y-164390000D01*
X146860000Y-164390000D02*
X146860000Y-163990000D01*
X140160000Y-162640000D02*
X140160000Y-159940000D01*
X146860000Y-159940000D02*
X146860000Y-162640000D01*
X140160000Y-158190000D02*
X146860000Y-158190000D01*
X146860000Y-158190000D02*
X146860000Y-158640000D01*
X140160000Y-158640000D02*
X140160000Y-158190000D01*
X156670000Y-163940000D02*
X156670000Y-164390000D01*
X156670000Y-164390000D02*
X163370000Y-164390000D01*
X163370000Y-164390000D02*
X163370000Y-163990000D01*
X156670000Y-162640000D02*
X156670000Y-159940000D01*
X163370000Y-159940000D02*
X163370000Y-162640000D01*
X156670000Y-158190000D02*
X163370000Y-158190000D01*
X163370000Y-158190000D02*
X163370000Y-158640000D01*
X156670000Y-158640000D02*
X156670000Y-158190000D01*
X140160000Y-172195000D02*
X140160000Y-172645000D01*
X140160000Y-172645000D02*
X146860000Y-172645000D01*
X146860000Y-172645000D02*
X146860000Y-172245000D01*
X140160000Y-170895000D02*
X140160000Y-168195000D01*
X146860000Y-168195000D02*
X146860000Y-170895000D01*
X140160000Y-166445000D02*
X146860000Y-166445000D01*
X146860000Y-166445000D02*
X146860000Y-166895000D01*
X140160000Y-166895000D02*
X140160000Y-166445000D01*
X156670000Y-172195000D02*
X156670000Y-172645000D01*
X156670000Y-172645000D02*
X163370000Y-172645000D01*
X163370000Y-172645000D02*
X163370000Y-172245000D01*
X156670000Y-170895000D02*
X156670000Y-168195000D01*
X163370000Y-168195000D02*
X163370000Y-170895000D01*
X156670000Y-166445000D02*
X163370000Y-166445000D01*
X163370000Y-166445000D02*
X163370000Y-166895000D01*
X156670000Y-166895000D02*
X156670000Y-166445000D01*
X140160000Y-180450000D02*
X140160000Y-180900000D01*
X140160000Y-180900000D02*
X146860000Y-180900000D01*
X146860000Y-180900000D02*
X146860000Y-180500000D01*
X140160000Y-179150000D02*
X140160000Y-176450000D01*
X146860000Y-176450000D02*
X146860000Y-179150000D01*
X140160000Y-174700000D02*
X146860000Y-174700000D01*
X146860000Y-174700000D02*
X146860000Y-175150000D01*
X140160000Y-175150000D02*
X140160000Y-174700000D01*
X156670000Y-180450000D02*
X156670000Y-180900000D01*
X156670000Y-180900000D02*
X163370000Y-180900000D01*
X163370000Y-180900000D02*
X163370000Y-180500000D01*
X156670000Y-179150000D02*
X156670000Y-176450000D01*
X163370000Y-176450000D02*
X163370000Y-179150000D01*
X156670000Y-174700000D02*
X163370000Y-174700000D01*
X163370000Y-174700000D02*
X163370000Y-175150000D01*
X156670000Y-175150000D02*
X156670000Y-174700000D01*
X135664000Y-168247000D02*
X135664000Y-167073000D01*
X137386000Y-168247000D02*
X137386000Y-167073000D01*
X135664000Y-163167000D02*
X135664000Y-161993000D01*
X137386000Y-163167000D02*
X137386000Y-161993000D01*
X138545000Y-170320000D02*
X137345000Y-170320000D01*
X138545000Y-171520000D02*
X138545000Y-170320000D01*
X134045000Y-179820000D02*
X134045000Y-178620000D01*
X138245000Y-179820000D02*
X134045000Y-179820000D01*
X138245000Y-178620000D02*
X138245000Y-179820000D01*
X134045000Y-170620000D02*
X134045000Y-171820000D01*
X138245000Y-170620000D02*
X134045000Y-170620000D01*
X138245000Y-171820000D02*
X138245000Y-170620000D01*
X76775000Y-122615000D02*
X79435000Y-122615000D01*
X76775000Y-94615000D02*
X76775000Y-122615000D01*
X79435000Y-94615000D02*
X79435000Y-122615000D01*
X76775000Y-94615000D02*
X79435000Y-94615000D01*
X76775000Y-93345000D02*
X76775000Y-92015000D01*
X76775000Y-92015000D02*
X78105000Y-92015000D01*
X93285000Y-94615000D02*
X93285000Y-122615000D01*
X93285000Y-122615000D02*
X95945000Y-122615000D01*
X95945000Y-122615000D02*
X95945000Y-94615000D01*
X95945000Y-94615000D02*
X93285000Y-94615000D01*
X93285000Y-93345000D02*
X93285000Y-92015000D01*
X93285000Y-92015000D02*
X94615000Y-92015000D01*
X88270000Y-94850000D02*
X88270000Y-93590000D01*
X88270000Y-88030000D02*
X88270000Y-89290000D01*
X84510000Y-94850000D02*
X88270000Y-94850000D01*
X82260000Y-88030000D02*
X88270000Y-88030000D01*
X92840000Y-99525000D02*
X90040000Y-99525000D01*
X90040000Y-99525000D02*
X90040000Y-122725000D01*
X90040000Y-122725000D02*
X92840000Y-122725000D01*
X92840000Y-122725000D02*
X92840000Y-99525000D01*
X92840000Y-102235000D02*
X90040000Y-102235000D01*
X83060000Y-101925000D02*
X83060000Y-102855000D01*
X83060000Y-105085000D02*
X83060000Y-104155000D01*
X83060000Y-105085000D02*
X85220000Y-105085000D01*
X83060000Y-101925000D02*
X84520000Y-101925000D01*
X87505000Y-104465000D02*
X87505000Y-105395000D01*
X87505000Y-107625000D02*
X87505000Y-106695000D01*
X87505000Y-107625000D02*
X89665000Y-107625000D01*
X87505000Y-104465000D02*
X88965000Y-104465000D01*
X83060000Y-107005000D02*
X83060000Y-107935000D01*
X83060000Y-110165000D02*
X83060000Y-109235000D01*
X83060000Y-110165000D02*
X85220000Y-110165000D01*
X83060000Y-107005000D02*
X84520000Y-107005000D01*
X87505000Y-109545000D02*
X87505000Y-110475000D01*
X87505000Y-112705000D02*
X87505000Y-111775000D01*
X87505000Y-112705000D02*
X89665000Y-112705000D01*
X87505000Y-109545000D02*
X88965000Y-109545000D01*
X83060000Y-112085000D02*
X83060000Y-113015000D01*
X83060000Y-115245000D02*
X83060000Y-114315000D01*
X83060000Y-115245000D02*
X85220000Y-115245000D01*
X83060000Y-112085000D02*
X84520000Y-112085000D01*
X87505000Y-114625000D02*
X87505000Y-115555000D01*
X87505000Y-117785000D02*
X87505000Y-116855000D01*
X87505000Y-117785000D02*
X89665000Y-117785000D01*
X87505000Y-114625000D02*
X88965000Y-114625000D01*
X83060000Y-117165000D02*
X83060000Y-118095000D01*
X83060000Y-120325000D02*
X83060000Y-119395000D01*
X83060000Y-120325000D02*
X85220000Y-120325000D01*
X83060000Y-117165000D02*
X84520000Y-117165000D01*
X87505000Y-119705000D02*
X87505000Y-120635000D01*
X87505000Y-122865000D02*
X87505000Y-121935000D01*
X87505000Y-122865000D02*
X89665000Y-122865000D01*
X87505000Y-119705000D02*
X88965000Y-119705000D01*
X112970000Y-122615000D02*
X115630000Y-122615000D01*
X112970000Y-104775000D02*
X112970000Y-122615000D01*
X115630000Y-104775000D02*
X115630000Y-122615000D01*
X112970000Y-104775000D02*
X115630000Y-104775000D01*
X112970000Y-103505000D02*
X112970000Y-102175000D01*
X112970000Y-102175000D02*
X114300000Y-102175000D01*
X107890000Y-122615000D02*
X110550000Y-122615000D01*
X107890000Y-104775000D02*
X107890000Y-122615000D01*
X110550000Y-104775000D02*
X110550000Y-122615000D01*
X107890000Y-104775000D02*
X110550000Y-104775000D01*
X107890000Y-103505000D02*
X107890000Y-102175000D01*
X107890000Y-102175000D02*
X109220000Y-102175000D01*
X110430000Y-122615000D02*
X113090000Y-122615000D01*
X110430000Y-104775000D02*
X110430000Y-122615000D01*
X113090000Y-104775000D02*
X113090000Y-122615000D01*
X110430000Y-104775000D02*
X113090000Y-104775000D01*
X110430000Y-103505000D02*
X110430000Y-102175000D01*
X110430000Y-102175000D02*
X111760000Y-102175000D01*
X102175000Y-122615000D02*
X104835000Y-122615000D01*
X102175000Y-94615000D02*
X102175000Y-122615000D01*
X104835000Y-94615000D02*
X104835000Y-122615000D01*
X102175000Y-94615000D02*
X104835000Y-94615000D01*
X102175000Y-93345000D02*
X102175000Y-92015000D01*
X102175000Y-92015000D02*
X103505000Y-92015000D01*
X118685000Y-94615000D02*
X118685000Y-122615000D01*
X118685000Y-122615000D02*
X121345000Y-122615000D01*
X121345000Y-122615000D02*
X121345000Y-94615000D01*
X121345000Y-94615000D02*
X118685000Y-94615000D01*
X118685000Y-93345000D02*
X118685000Y-92015000D01*
X118685000Y-92015000D02*
X120015000Y-92015000D01*
X82045000Y-99525000D02*
X79245000Y-99525000D01*
X79245000Y-99525000D02*
X79245000Y-122725000D01*
X79245000Y-122725000D02*
X82045000Y-122725000D01*
X82045000Y-122725000D02*
X82045000Y-99525000D01*
X82045000Y-102235000D02*
X79245000Y-102235000D01*
D15*
X115859560Y-125806200D02*
X107660440Y-125806200D01*
X115859560Y-126204980D02*
X107660440Y-126204980D01*
X115859560Y-131505960D02*
X107660440Y-131505960D01*
X107660440Y-132003800D02*
X115859560Y-132003800D01*
X113060480Y-131505960D02*
X113060480Y-132003800D01*
X107861100Y-132003800D02*
X107861100Y-131505960D01*
X115661440Y-131505960D02*
X115661440Y-132003800D01*
X110462060Y-132003800D02*
X110462060Y-131505960D01*
X115859560Y-132003800D02*
X115859560Y-125806200D01*
X107662980Y-125806200D02*
X107662980Y-132003800D01*
D14*
X112970000Y-125155000D02*
X115630000Y-125155000D01*
X112970000Y-125095000D02*
X112970000Y-125155000D01*
X115630000Y-125095000D02*
X115630000Y-125155000D01*
X112970000Y-125095000D02*
X115630000Y-125095000D01*
X112970000Y-123825000D02*
X112970000Y-122495000D01*
X112970000Y-122495000D02*
X114300000Y-122495000D01*
X112970000Y-102295000D02*
X115630000Y-102295000D01*
X112970000Y-102235000D02*
X112970000Y-102295000D01*
X115630000Y-102235000D02*
X115630000Y-102295000D01*
X112970000Y-102235000D02*
X115630000Y-102235000D01*
X112970000Y-100965000D02*
X112970000Y-99635000D01*
X112970000Y-99635000D02*
X114300000Y-99635000D01*
D15*
X115859560Y-87706200D02*
X107660440Y-87706200D01*
X115859560Y-88104980D02*
X107660440Y-88104980D01*
X115859560Y-93405960D02*
X107660440Y-93405960D01*
X107660440Y-93903800D02*
X115859560Y-93903800D01*
X113060480Y-93405960D02*
X113060480Y-93903800D01*
X107861100Y-93903800D02*
X107861100Y-93405960D01*
X115661440Y-93405960D02*
X115661440Y-93903800D01*
X110462060Y-93903800D02*
X110462060Y-93405960D01*
X115859560Y-93903800D02*
X115859560Y-87706200D01*
X107662980Y-87706200D02*
X107662980Y-93903800D01*
D14*
X107625000Y-140210000D02*
X106695000Y-140210000D01*
X104465000Y-140210000D02*
X105395000Y-140210000D01*
X104465000Y-140210000D02*
X104465000Y-142370000D01*
X107625000Y-140210000D02*
X107625000Y-141670000D01*
X84515000Y-157420000D02*
X81855000Y-157420000D01*
X84515000Y-162560000D02*
X84515000Y-157420000D01*
X81855000Y-162560000D02*
X81855000Y-157420000D01*
X84515000Y-162560000D02*
X81855000Y-162560000D01*
X84515000Y-163830000D02*
X84515000Y-165160000D01*
X84515000Y-165160000D02*
X83185000Y-165160000D01*
X76775000Y-172780000D02*
X79435000Y-172780000D01*
X76775000Y-144780000D02*
X76775000Y-172780000D01*
X79435000Y-144780000D02*
X79435000Y-172780000D01*
X76775000Y-144780000D02*
X79435000Y-144780000D01*
X76775000Y-143510000D02*
X76775000Y-142180000D01*
X76775000Y-142180000D02*
X78105000Y-142180000D01*
X101540000Y-172780000D02*
X104200000Y-172780000D01*
X101540000Y-144780000D02*
X101540000Y-172780000D01*
X104200000Y-144780000D02*
X104200000Y-172780000D01*
X101540000Y-144780000D02*
X104200000Y-144780000D01*
X101540000Y-143510000D02*
X101540000Y-142180000D01*
X101540000Y-142180000D02*
X102870000Y-142180000D01*
X93920000Y-144780000D02*
X93920000Y-172780000D01*
X93920000Y-172780000D02*
X96580000Y-172780000D01*
X96580000Y-172780000D02*
X96580000Y-144780000D01*
X96580000Y-144780000D02*
X93920000Y-144780000D01*
X93920000Y-143510000D02*
X93920000Y-142180000D01*
X93920000Y-142180000D02*
X95250000Y-142180000D01*
X118685000Y-144780000D02*
X118685000Y-172780000D01*
X118685000Y-172780000D02*
X121345000Y-172780000D01*
X121345000Y-172780000D02*
X121345000Y-144780000D01*
X121345000Y-144780000D02*
X118685000Y-144780000D01*
X118685000Y-143510000D02*
X118685000Y-142180000D01*
X118685000Y-142180000D02*
X120015000Y-142180000D01*
X91500000Y-137855000D02*
X91500000Y-135195000D01*
X83820000Y-137855000D02*
X91500000Y-137855000D01*
X83820000Y-135195000D02*
X91500000Y-135195000D01*
X83820000Y-137855000D02*
X83820000Y-135195000D01*
X82550000Y-137855000D02*
X81220000Y-137855000D01*
X81220000Y-137855000D02*
X81220000Y-136525000D01*
X79315000Y-172780000D02*
X81975000Y-172780000D01*
X79315000Y-154940000D02*
X79315000Y-172780000D01*
X81975000Y-154940000D02*
X81975000Y-172780000D01*
X79315000Y-154940000D02*
X81975000Y-154940000D01*
X79315000Y-153670000D02*
X79315000Y-152340000D01*
X79315000Y-152340000D02*
X80645000Y-152340000D01*
X92385000Y-142115000D02*
X91455000Y-142115000D01*
X89225000Y-142115000D02*
X90155000Y-142115000D01*
X89225000Y-142115000D02*
X89225000Y-144275000D01*
X92385000Y-142115000D02*
X92385000Y-143575000D01*
X87940000Y-142115000D02*
X87010000Y-142115000D01*
X84780000Y-142115000D02*
X85710000Y-142115000D01*
X84780000Y-142115000D02*
X84780000Y-144275000D01*
X87940000Y-142115000D02*
X87940000Y-143575000D01*
X83495000Y-142115000D02*
X82565000Y-142115000D01*
X80335000Y-142115000D02*
X81265000Y-142115000D01*
X80335000Y-142115000D02*
X80335000Y-144275000D01*
X83495000Y-142115000D02*
X83495000Y-143575000D01*
X90885000Y-144740000D02*
X90885000Y-154980000D01*
X86244000Y-144740000D02*
X86244000Y-154980000D01*
X90885000Y-144740000D02*
X86244000Y-144740000D01*
X90885000Y-154980000D02*
X86244000Y-154980000D01*
X89375000Y-144740000D02*
X89375000Y-154980000D01*
X90885000Y-148010000D02*
X89375000Y-148010000D01*
X90885000Y-151711000D02*
X89375000Y-151711000D01*
X90885000Y-154900000D02*
X90885000Y-165140000D01*
X86244000Y-154900000D02*
X86244000Y-165140000D01*
X90885000Y-154900000D02*
X86244000Y-154900000D01*
X90885000Y-165140000D02*
X86244000Y-165140000D01*
X89375000Y-154900000D02*
X89375000Y-165140000D01*
X90885000Y-158170000D02*
X89375000Y-158170000D01*
X90885000Y-161871000D02*
X89375000Y-161871000D01*
X90885000Y-165060000D02*
X90885000Y-175300000D01*
X86244000Y-165060000D02*
X86244000Y-175300000D01*
X90885000Y-165060000D02*
X86244000Y-165060000D01*
X90885000Y-175300000D02*
X86244000Y-175300000D01*
X89375000Y-165060000D02*
X89375000Y-175300000D01*
X90885000Y-168330000D02*
X89375000Y-168330000D01*
X90885000Y-172031000D02*
X89375000Y-172031000D01*
X92135000Y-179765000D02*
X92135000Y-177105000D01*
X84455000Y-179765000D02*
X92135000Y-179765000D01*
X84455000Y-177105000D02*
X92135000Y-177105000D01*
X84455000Y-179765000D02*
X84455000Y-177105000D01*
X83185000Y-179765000D02*
X81855000Y-179765000D01*
X81855000Y-179765000D02*
X81855000Y-178435000D01*
X104080000Y-172780000D02*
X106740000Y-172780000D01*
X104080000Y-154940000D02*
X104080000Y-172780000D01*
X106740000Y-154940000D02*
X106740000Y-172780000D01*
X104080000Y-154940000D02*
X106740000Y-154940000D01*
X104080000Y-153670000D02*
X104080000Y-152340000D01*
X104080000Y-152340000D02*
X105410000Y-152340000D01*
X106620000Y-165160000D02*
X109280000Y-165160000D01*
X106620000Y-160020000D02*
X106620000Y-165160000D01*
X109280000Y-160020000D02*
X109280000Y-165160000D01*
X106620000Y-160020000D02*
X109280000Y-160020000D01*
X106620000Y-158750000D02*
X106620000Y-157420000D01*
X106620000Y-157420000D02*
X107950000Y-157420000D01*
X116265000Y-137855000D02*
X116265000Y-135195000D01*
X108585000Y-137855000D02*
X116265000Y-137855000D01*
X108585000Y-135195000D02*
X116265000Y-135195000D01*
X108585000Y-137855000D02*
X108585000Y-135195000D01*
X107315000Y-137855000D02*
X105985000Y-137855000D01*
X105985000Y-137855000D02*
X105985000Y-136525000D01*
X112705000Y-140210000D02*
X111775000Y-140210000D01*
X109545000Y-140210000D02*
X110475000Y-140210000D01*
X109545000Y-140210000D02*
X109545000Y-142370000D01*
X112705000Y-140210000D02*
X112705000Y-141670000D01*
X117785000Y-140210000D02*
X116855000Y-140210000D01*
X114625000Y-140210000D02*
X115555000Y-140210000D01*
X114625000Y-140210000D02*
X114625000Y-142370000D01*
X117785000Y-140210000D02*
X117785000Y-141670000D01*
X104605000Y-144650000D02*
X104605000Y-147450000D01*
X104605000Y-147450000D02*
X117645000Y-147450000D01*
X117645000Y-147450000D02*
X117645000Y-144650000D01*
X117645000Y-144650000D02*
X104605000Y-144650000D01*
X107315000Y-144650000D02*
X107315000Y-147450000D01*
X108895000Y-149100000D02*
X107965000Y-149100000D01*
X105735000Y-149100000D02*
X106665000Y-149100000D01*
X105735000Y-149100000D02*
X105735000Y-151260000D01*
X108895000Y-149100000D02*
X108895000Y-150560000D01*
X113340000Y-149100000D02*
X112410000Y-149100000D01*
X110180000Y-149100000D02*
X111110000Y-149100000D01*
X110180000Y-149100000D02*
X110180000Y-151260000D01*
X113340000Y-149100000D02*
X113340000Y-150560000D01*
X117785000Y-149100000D02*
X116855000Y-149100000D01*
X114625000Y-149100000D02*
X115555000Y-149100000D01*
X114625000Y-149100000D02*
X114625000Y-151260000D01*
X117785000Y-149100000D02*
X117785000Y-150560000D01*
D15*
X159218334Y-101322143D02*
X159170715Y-101369762D01*
X159027858Y-101417381D01*
X158932620Y-101417381D01*
X158789762Y-101369762D01*
X158694524Y-101274524D01*
X158646905Y-101179286D01*
X158599286Y-100988810D01*
X158599286Y-100845952D01*
X158646905Y-100655476D01*
X158694524Y-100560238D01*
X158789762Y-100465000D01*
X158932620Y-100417381D01*
X159027858Y-100417381D01*
X159170715Y-100465000D01*
X159218334Y-100512619D01*
X160170715Y-101417381D02*
X159599286Y-101417381D01*
X159885000Y-101417381D02*
X159885000Y-100417381D01*
X159789762Y-100560238D01*
X159694524Y-100655476D01*
X159599286Y-100703095D01*
X134707381Y-139826905D02*
X135516905Y-139826905D01*
X135612143Y-139779286D01*
X135659762Y-139731667D01*
X135707381Y-139636429D01*
X135707381Y-139445952D01*
X135659762Y-139350714D01*
X135612143Y-139303095D01*
X135516905Y-139255476D01*
X134707381Y-139255476D01*
X135707381Y-138255476D02*
X135707381Y-138826905D01*
X135707381Y-138541191D02*
X134707381Y-138541191D01*
X134850238Y-138636429D01*
X134945476Y-138731667D01*
X134993095Y-138826905D01*
X160107381Y-141826905D02*
X160107381Y-141255476D01*
X161107381Y-141541191D02*
X160107381Y-141541191D01*
X161107381Y-140922143D02*
X160107381Y-140922143D01*
X160821667Y-140588809D01*
X160107381Y-140255476D01*
X161107381Y-140255476D01*
X161107381Y-139255476D02*
X161107381Y-139826905D01*
X161107381Y-139541191D02*
X160107381Y-139541191D01*
X160250238Y-139636429D01*
X160345476Y-139731667D01*
X160393095Y-139826905D01*
X160107381Y-138398333D02*
X160107381Y-138588810D01*
X160155000Y-138684048D01*
X160202619Y-138731667D01*
X160345476Y-138826905D01*
X160535952Y-138874524D01*
X160916905Y-138874524D01*
X161012143Y-138826905D01*
X161059762Y-138779286D01*
X161107381Y-138684048D01*
X161107381Y-138493571D01*
X161059762Y-138398333D01*
X161012143Y-138350714D01*
X160916905Y-138303095D01*
X160678810Y-138303095D01*
X160583571Y-138350714D01*
X160535952Y-138398333D01*
X160488333Y-138493571D01*
X160488333Y-138684048D01*
X160535952Y-138779286D01*
X160583571Y-138826905D01*
X160678810Y-138874524D01*
X160107381Y-137969762D02*
X160107381Y-137350714D01*
X160488333Y-137684048D01*
X160488333Y-137541190D01*
X160535952Y-137445952D01*
X160583571Y-137398333D01*
X160678810Y-137350714D01*
X160916905Y-137350714D01*
X161012143Y-137398333D01*
X161059762Y-137445952D01*
X161107381Y-137541190D01*
X161107381Y-137826905D01*
X161059762Y-137922143D01*
X161012143Y-137969762D01*
X160107381Y-137017381D02*
X160107381Y-136350714D01*
X161107381Y-136779286D01*
X133651667Y-164552381D02*
X133651667Y-165266667D01*
X133604047Y-165409524D01*
X133508809Y-165504762D01*
X133365952Y-165552381D01*
X133270714Y-165552381D01*
X134651667Y-165552381D02*
X134080238Y-165552381D01*
X134365952Y-165552381D02*
X134365952Y-164552381D01*
X134270714Y-164695238D01*
X134175476Y-164790476D01*
X134080238Y-164838095D01*
X131742381Y-146383333D02*
X132456667Y-146383333D01*
X132599524Y-146430953D01*
X132694762Y-146526191D01*
X132742381Y-146669048D01*
X132742381Y-146764286D01*
X131837619Y-145954762D02*
X131790000Y-145907143D01*
X131742381Y-145811905D01*
X131742381Y-145573809D01*
X131790000Y-145478571D01*
X131837619Y-145430952D01*
X131932857Y-145383333D01*
X132028095Y-145383333D01*
X132170952Y-145430952D01*
X132742381Y-146002381D01*
X132742381Y-145383333D01*
X152062381Y-146383333D02*
X152776667Y-146383333D01*
X152919524Y-146430953D01*
X153014762Y-146526191D01*
X153062381Y-146669048D01*
X153062381Y-146764286D01*
X152062381Y-146002381D02*
X152062381Y-145383333D01*
X152443333Y-145716667D01*
X152443333Y-145573809D01*
X152490952Y-145478571D01*
X152538571Y-145430952D01*
X152633810Y-145383333D01*
X152871905Y-145383333D01*
X152967143Y-145430952D01*
X153014762Y-145478571D01*
X153062381Y-145573809D01*
X153062381Y-145859524D01*
X153014762Y-145954762D01*
X152967143Y-146002381D01*
X158686667Y-153439762D02*
X158829524Y-153487381D01*
X159067620Y-153487381D01*
X159162858Y-153439762D01*
X159210477Y-153392143D01*
X159258096Y-153296905D01*
X159258096Y-153201667D01*
X159210477Y-153106429D01*
X159162858Y-153058810D01*
X159067620Y-153011190D01*
X158877143Y-152963571D01*
X158781905Y-152915952D01*
X158734286Y-152868333D01*
X158686667Y-152773095D01*
X158686667Y-152677857D01*
X158734286Y-152582619D01*
X158781905Y-152535000D01*
X158877143Y-152487381D01*
X159115239Y-152487381D01*
X159258096Y-152535000D01*
X159591429Y-152487381D02*
X159829524Y-153487381D01*
X160020001Y-152773095D01*
X160210477Y-153487381D01*
X160448572Y-152487381D01*
X160781905Y-152582619D02*
X160829524Y-152535000D01*
X160924762Y-152487381D01*
X161162858Y-152487381D01*
X161258096Y-152535000D01*
X161305715Y-152582619D01*
X161353334Y-152677857D01*
X161353334Y-152773095D01*
X161305715Y-152915952D01*
X160734286Y-153487381D01*
X161353334Y-153487381D01*
X142176667Y-153439762D02*
X142319524Y-153487381D01*
X142557620Y-153487381D01*
X142652858Y-153439762D01*
X142700477Y-153392143D01*
X142748096Y-153296905D01*
X142748096Y-153201667D01*
X142700477Y-153106429D01*
X142652858Y-153058810D01*
X142557620Y-153011190D01*
X142367143Y-152963571D01*
X142271905Y-152915952D01*
X142224286Y-152868333D01*
X142176667Y-152773095D01*
X142176667Y-152677857D01*
X142224286Y-152582619D01*
X142271905Y-152535000D01*
X142367143Y-152487381D01*
X142605239Y-152487381D01*
X142748096Y-152535000D01*
X143081429Y-152487381D02*
X143319524Y-153487381D01*
X143510001Y-152773095D01*
X143700477Y-153487381D01*
X143938572Y-152487381D01*
X144843334Y-153487381D02*
X144271905Y-153487381D01*
X144557619Y-153487381D02*
X144557619Y-152487381D01*
X144462381Y-152630238D01*
X144367143Y-152725476D01*
X144271905Y-152773095D01*
X142176667Y-161694762D02*
X142319524Y-161742381D01*
X142557620Y-161742381D01*
X142652858Y-161694762D01*
X142700477Y-161647143D01*
X142748096Y-161551905D01*
X142748096Y-161456667D01*
X142700477Y-161361429D01*
X142652858Y-161313810D01*
X142557620Y-161266190D01*
X142367143Y-161218571D01*
X142271905Y-161170952D01*
X142224286Y-161123333D01*
X142176667Y-161028095D01*
X142176667Y-160932857D01*
X142224286Y-160837619D01*
X142271905Y-160790000D01*
X142367143Y-160742381D01*
X142605239Y-160742381D01*
X142748096Y-160790000D01*
X143081429Y-160742381D02*
X143319524Y-161742381D01*
X143510001Y-161028095D01*
X143700477Y-161742381D01*
X143938572Y-160742381D01*
X144224286Y-160742381D02*
X144843334Y-160742381D01*
X144510000Y-161123333D01*
X144652858Y-161123333D01*
X144748096Y-161170952D01*
X144795715Y-161218571D01*
X144843334Y-161313810D01*
X144843334Y-161551905D01*
X144795715Y-161647143D01*
X144748096Y-161694762D01*
X144652858Y-161742381D01*
X144367143Y-161742381D01*
X144271905Y-161694762D01*
X144224286Y-161647143D01*
X158686667Y-161694762D02*
X158829524Y-161742381D01*
X159067620Y-161742381D01*
X159162858Y-161694762D01*
X159210477Y-161647143D01*
X159258096Y-161551905D01*
X159258096Y-161456667D01*
X159210477Y-161361429D01*
X159162858Y-161313810D01*
X159067620Y-161266190D01*
X158877143Y-161218571D01*
X158781905Y-161170952D01*
X158734286Y-161123333D01*
X158686667Y-161028095D01*
X158686667Y-160932857D01*
X158734286Y-160837619D01*
X158781905Y-160790000D01*
X158877143Y-160742381D01*
X159115239Y-160742381D01*
X159258096Y-160790000D01*
X159591429Y-160742381D02*
X159829524Y-161742381D01*
X160020001Y-161028095D01*
X160210477Y-161742381D01*
X160448572Y-160742381D01*
X161258096Y-161075714D02*
X161258096Y-161742381D01*
X161020000Y-160694762D02*
X160781905Y-161409048D01*
X161400953Y-161409048D01*
X142176667Y-169949762D02*
X142319524Y-169997381D01*
X142557620Y-169997381D01*
X142652858Y-169949762D01*
X142700477Y-169902143D01*
X142748096Y-169806905D01*
X142748096Y-169711667D01*
X142700477Y-169616429D01*
X142652858Y-169568810D01*
X142557620Y-169521190D01*
X142367143Y-169473571D01*
X142271905Y-169425952D01*
X142224286Y-169378333D01*
X142176667Y-169283095D01*
X142176667Y-169187857D01*
X142224286Y-169092619D01*
X142271905Y-169045000D01*
X142367143Y-168997381D01*
X142605239Y-168997381D01*
X142748096Y-169045000D01*
X143081429Y-168997381D02*
X143319524Y-169997381D01*
X143510001Y-169283095D01*
X143700477Y-169997381D01*
X143938572Y-168997381D01*
X144795715Y-168997381D02*
X144319524Y-168997381D01*
X144271905Y-169473571D01*
X144319524Y-169425952D01*
X144414762Y-169378333D01*
X144652858Y-169378333D01*
X144748096Y-169425952D01*
X144795715Y-169473571D01*
X144843334Y-169568810D01*
X144843334Y-169806905D01*
X144795715Y-169902143D01*
X144748096Y-169949762D01*
X144652858Y-169997381D01*
X144414762Y-169997381D01*
X144319524Y-169949762D01*
X144271905Y-169902143D01*
X158686667Y-169949762D02*
X158829524Y-169997381D01*
X159067620Y-169997381D01*
X159162858Y-169949762D01*
X159210477Y-169902143D01*
X159258096Y-169806905D01*
X159258096Y-169711667D01*
X159210477Y-169616429D01*
X159162858Y-169568810D01*
X159067620Y-169521190D01*
X158877143Y-169473571D01*
X158781905Y-169425952D01*
X158734286Y-169378333D01*
X158686667Y-169283095D01*
X158686667Y-169187857D01*
X158734286Y-169092619D01*
X158781905Y-169045000D01*
X158877143Y-168997381D01*
X159115239Y-168997381D01*
X159258096Y-169045000D01*
X159591429Y-168997381D02*
X159829524Y-169997381D01*
X160020001Y-169283095D01*
X160210477Y-169997381D01*
X160448572Y-168997381D01*
X161258096Y-168997381D02*
X161067619Y-168997381D01*
X160972381Y-169045000D01*
X160924762Y-169092619D01*
X160829524Y-169235476D01*
X160781905Y-169425952D01*
X160781905Y-169806905D01*
X160829524Y-169902143D01*
X160877143Y-169949762D01*
X160972381Y-169997381D01*
X161162858Y-169997381D01*
X161258096Y-169949762D01*
X161305715Y-169902143D01*
X161353334Y-169806905D01*
X161353334Y-169568810D01*
X161305715Y-169473571D01*
X161258096Y-169425952D01*
X161162858Y-169378333D01*
X160972381Y-169378333D01*
X160877143Y-169425952D01*
X160829524Y-169473571D01*
X160781905Y-169568810D01*
X142176667Y-178204762D02*
X142319524Y-178252381D01*
X142557620Y-178252381D01*
X142652858Y-178204762D01*
X142700477Y-178157143D01*
X142748096Y-178061905D01*
X142748096Y-177966667D01*
X142700477Y-177871429D01*
X142652858Y-177823810D01*
X142557620Y-177776190D01*
X142367143Y-177728571D01*
X142271905Y-177680952D01*
X142224286Y-177633333D01*
X142176667Y-177538095D01*
X142176667Y-177442857D01*
X142224286Y-177347619D01*
X142271905Y-177300000D01*
X142367143Y-177252381D01*
X142605239Y-177252381D01*
X142748096Y-177300000D01*
X143081429Y-177252381D02*
X143319524Y-178252381D01*
X143510001Y-177538095D01*
X143700477Y-178252381D01*
X143938572Y-177252381D01*
X144224286Y-177252381D02*
X144890953Y-177252381D01*
X144462381Y-178252381D01*
X158686667Y-178204762D02*
X158829524Y-178252381D01*
X159067620Y-178252381D01*
X159162858Y-178204762D01*
X159210477Y-178157143D01*
X159258096Y-178061905D01*
X159258096Y-177966667D01*
X159210477Y-177871429D01*
X159162858Y-177823810D01*
X159067620Y-177776190D01*
X158877143Y-177728571D01*
X158781905Y-177680952D01*
X158734286Y-177633333D01*
X158686667Y-177538095D01*
X158686667Y-177442857D01*
X158734286Y-177347619D01*
X158781905Y-177300000D01*
X158877143Y-177252381D01*
X159115239Y-177252381D01*
X159258096Y-177300000D01*
X159591429Y-177252381D02*
X159829524Y-178252381D01*
X160020001Y-177538095D01*
X160210477Y-178252381D01*
X160448572Y-177252381D01*
X160972381Y-177680952D02*
X160877143Y-177633333D01*
X160829524Y-177585714D01*
X160781905Y-177490476D01*
X160781905Y-177442857D01*
X160829524Y-177347619D01*
X160877143Y-177300000D01*
X160972381Y-177252381D01*
X161162858Y-177252381D01*
X161258096Y-177300000D01*
X161305715Y-177347619D01*
X161353334Y-177442857D01*
X161353334Y-177490476D01*
X161305715Y-177585714D01*
X161258096Y-177633333D01*
X161162858Y-177680952D01*
X160972381Y-177680952D01*
X160877143Y-177728571D01*
X160829524Y-177776190D01*
X160781905Y-177871429D01*
X160781905Y-178061905D01*
X160829524Y-178157143D01*
X160877143Y-178204762D01*
X160972381Y-178252381D01*
X161162858Y-178252381D01*
X161258096Y-178204762D01*
X161305715Y-178157143D01*
X161353334Y-178061905D01*
X161353334Y-177871429D01*
X161305715Y-177776190D01*
X161258096Y-177728571D01*
X161162858Y-177680952D01*
X117292381Y-113895000D02*
X116292381Y-113895000D01*
X116292381Y-113656905D01*
X116340000Y-113514047D01*
X116435238Y-113418809D01*
X116530476Y-113371190D01*
X116720952Y-113323571D01*
X116863810Y-113323571D01*
X117054286Y-113371190D01*
X117149524Y-113418809D01*
X117244762Y-113514047D01*
X117292381Y-113656905D01*
X117292381Y-113895000D01*
X117006667Y-112942619D02*
X117006667Y-112466428D01*
X117292381Y-113037857D02*
X116292381Y-112704524D01*
X117292381Y-112371190D01*
X116292381Y-112180714D02*
X116292381Y-111609285D01*
X117292381Y-111895000D02*
X116292381Y-111895000D01*
X117006667Y-111323571D02*
X117006667Y-110847380D01*
X117292381Y-111418809D02*
X116292381Y-111085476D01*
X117292381Y-110752142D01*
X108720000Y-100456904D02*
X108672381Y-100552142D01*
X108672381Y-100694999D01*
X108720000Y-100837857D01*
X108815238Y-100933095D01*
X108910476Y-100980714D01*
X109100952Y-101028333D01*
X109243810Y-101028333D01*
X109434286Y-100980714D01*
X109529524Y-100933095D01*
X109624762Y-100837857D01*
X109672381Y-100694999D01*
X109672381Y-100599761D01*
X109624762Y-100456904D01*
X109577143Y-100409285D01*
X109243810Y-100409285D01*
X109243810Y-100599761D01*
X109672381Y-99980714D02*
X108672381Y-99980714D01*
X109672381Y-99409285D01*
X108672381Y-99409285D01*
X109672381Y-98933095D02*
X108672381Y-98933095D01*
X108672381Y-98695000D01*
X108720000Y-98552142D01*
X108815238Y-98456904D01*
X108910476Y-98409285D01*
X109100952Y-98361666D01*
X109243810Y-98361666D01*
X109434286Y-98409285D01*
X109529524Y-98456904D01*
X109624762Y-98552142D01*
X109672381Y-98695000D01*
X109672381Y-98933095D01*
X111212381Y-101028333D02*
X112212381Y-100695000D01*
X111212381Y-100361666D01*
X112117143Y-99456904D02*
X112164762Y-99504523D01*
X112212381Y-99647380D01*
X112212381Y-99742618D01*
X112164762Y-99885476D01*
X112069524Y-99980714D01*
X111974286Y-100028333D01*
X111783810Y-100075952D01*
X111640952Y-100075952D01*
X111450476Y-100028333D01*
X111355238Y-99980714D01*
X111260000Y-99885476D01*
X111212381Y-99742618D01*
X111212381Y-99647380D01*
X111260000Y-99504523D01*
X111307619Y-99456904D01*
X112117143Y-98456904D02*
X112164762Y-98504523D01*
X112212381Y-98647380D01*
X112212381Y-98742618D01*
X112164762Y-98885476D01*
X112069524Y-98980714D01*
X111974286Y-99028333D01*
X111783810Y-99075952D01*
X111640952Y-99075952D01*
X111450476Y-99028333D01*
X111355238Y-98980714D01*
X111260000Y-98885476D01*
X111212381Y-98742618D01*
X111212381Y-98647380D01*
X111260000Y-98504523D01*
X111307619Y-98456904D01*
X108497619Y-143446428D02*
X108450000Y-143541666D01*
X108354762Y-143636904D01*
X108211905Y-143779761D01*
X108164286Y-143875000D01*
X108164286Y-143970238D01*
X108402381Y-143922619D02*
X108354762Y-144017857D01*
X108259524Y-144113095D01*
X108069048Y-144160714D01*
X107735714Y-144160714D01*
X107545238Y-144113095D01*
X107450000Y-144017857D01*
X107402381Y-143922619D01*
X107402381Y-143732142D01*
X107450000Y-143636904D01*
X107545238Y-143541666D01*
X107735714Y-143494047D01*
X108069048Y-143494047D01*
X108259524Y-143541666D01*
X108354762Y-143636904D01*
X108402381Y-143732142D01*
X108402381Y-143922619D01*
X108402381Y-142541666D02*
X108402381Y-143113095D01*
X108402381Y-142827381D02*
X107402381Y-142827381D01*
X107545238Y-142922619D01*
X107640476Y-143017857D01*
X107688095Y-143113095D01*
X107402381Y-141922619D02*
X107402381Y-141827380D01*
X107450000Y-141732142D01*
X107497619Y-141684523D01*
X107592857Y-141636904D01*
X107783333Y-141589285D01*
X108021429Y-141589285D01*
X108211905Y-141636904D01*
X108307143Y-141684523D01*
X108354762Y-141732142D01*
X108402381Y-141827380D01*
X108402381Y-141922619D01*
X108354762Y-142017857D01*
X108307143Y-142065476D01*
X108211905Y-142113095D01*
X108021429Y-142160714D01*
X107783333Y-142160714D01*
X107592857Y-142113095D01*
X107497619Y-142065476D01*
X107450000Y-142017857D01*
X107402381Y-141922619D01*
X83589762Y-156424048D02*
X83637381Y-156281191D01*
X83637381Y-156043095D01*
X83589762Y-155947857D01*
X83542143Y-155900238D01*
X83446905Y-155852619D01*
X83351667Y-155852619D01*
X83256429Y-155900238D01*
X83208810Y-155947857D01*
X83161190Y-156043095D01*
X83113571Y-156233572D01*
X83065952Y-156328810D01*
X83018333Y-156376429D01*
X82923095Y-156424048D01*
X82827857Y-156424048D01*
X82732619Y-156376429D01*
X82685000Y-156328810D01*
X82637381Y-156233572D01*
X82637381Y-155995476D01*
X82685000Y-155852619D01*
X83589762Y-155043095D02*
X83637381Y-155138333D01*
X83637381Y-155328810D01*
X83589762Y-155424048D01*
X83494524Y-155471667D01*
X83113571Y-155471667D01*
X83018333Y-155424048D01*
X82970714Y-155328810D01*
X82970714Y-155138333D01*
X83018333Y-155043095D01*
X83113571Y-154995476D01*
X83208810Y-154995476D01*
X83304048Y-155471667D01*
X83637381Y-154424048D02*
X83589762Y-154519286D01*
X83494524Y-154566905D01*
X82637381Y-154566905D01*
X83589762Y-153662142D02*
X83637381Y-153757380D01*
X83637381Y-153947857D01*
X83589762Y-154043095D01*
X83494524Y-154090714D01*
X83113571Y-154090714D01*
X83018333Y-154043095D01*
X82970714Y-153947857D01*
X82970714Y-153757380D01*
X83018333Y-153662142D01*
X83113571Y-153614523D01*
X83208810Y-153614523D01*
X83304048Y-154090714D01*
X83589762Y-152757380D02*
X83637381Y-152852618D01*
X83637381Y-153043095D01*
X83589762Y-153138333D01*
X83542143Y-153185952D01*
X83446905Y-153233571D01*
X83161190Y-153233571D01*
X83065952Y-153185952D01*
X83018333Y-153138333D01*
X82970714Y-153043095D01*
X82970714Y-152852618D01*
X83018333Y-152757380D01*
X82970714Y-152471666D02*
X82970714Y-152090714D01*
X82637381Y-152328809D02*
X83494524Y-152328809D01*
X83589762Y-152281190D01*
X83637381Y-152185952D01*
X83637381Y-152090714D01*
X81002143Y-150915476D02*
X81049762Y-150963095D01*
X81097381Y-151105952D01*
X81097381Y-151201190D01*
X81049762Y-151344048D01*
X80954524Y-151439286D01*
X80859286Y-151486905D01*
X80668810Y-151534524D01*
X80525952Y-151534524D01*
X80335476Y-151486905D01*
X80240238Y-151439286D01*
X80145000Y-151344048D01*
X80097381Y-151201190D01*
X80097381Y-151105952D01*
X80145000Y-150963095D01*
X80192619Y-150915476D01*
X81097381Y-150486905D02*
X80097381Y-150486905D01*
X81097381Y-150058333D02*
X80573571Y-150058333D01*
X80478333Y-150105952D01*
X80430714Y-150201190D01*
X80430714Y-150344048D01*
X80478333Y-150439286D01*
X80525952Y-150486905D01*
X81097381Y-149439286D02*
X81049762Y-149534524D01*
X81002143Y-149582143D01*
X80906905Y-149629762D01*
X80621190Y-149629762D01*
X80525952Y-149582143D01*
X80478333Y-149534524D01*
X80430714Y-149439286D01*
X80430714Y-149296428D01*
X80478333Y-149201190D01*
X80525952Y-149153571D01*
X80621190Y-149105952D01*
X80906905Y-149105952D01*
X81002143Y-149153571D01*
X81049762Y-149201190D01*
X81097381Y-149296428D01*
X81097381Y-149439286D01*
X81097381Y-148677381D02*
X80430714Y-148677381D01*
X80097381Y-148677381D02*
X80145000Y-148725000D01*
X80192619Y-148677381D01*
X80145000Y-148629762D01*
X80097381Y-148677381D01*
X80192619Y-148677381D01*
X81049762Y-147772619D02*
X81097381Y-147867857D01*
X81097381Y-148058334D01*
X81049762Y-148153572D01*
X81002143Y-148201191D01*
X80906905Y-148248810D01*
X80621190Y-148248810D01*
X80525952Y-148201191D01*
X80478333Y-148153572D01*
X80430714Y-148058334D01*
X80430714Y-147867857D01*
X80478333Y-147772619D01*
X81049762Y-146963095D02*
X81097381Y-147058333D01*
X81097381Y-147248810D01*
X81049762Y-147344048D01*
X80954524Y-147391667D01*
X80573571Y-147391667D01*
X80478333Y-147344048D01*
X80430714Y-147248810D01*
X80430714Y-147058333D01*
X80478333Y-146963095D01*
X80573571Y-146915476D01*
X80668810Y-146915476D01*
X80764048Y-147391667D01*
X105132143Y-150915476D02*
X105179762Y-150963095D01*
X105227381Y-151105952D01*
X105227381Y-151201190D01*
X105179762Y-151344048D01*
X105084524Y-151439286D01*
X104989286Y-151486905D01*
X104798810Y-151534524D01*
X104655952Y-151534524D01*
X104465476Y-151486905D01*
X104370238Y-151439286D01*
X104275000Y-151344048D01*
X104227381Y-151201190D01*
X104227381Y-151105952D01*
X104275000Y-150963095D01*
X104322619Y-150915476D01*
X105227381Y-150486905D02*
X104227381Y-150486905D01*
X105227381Y-150058333D02*
X104703571Y-150058333D01*
X104608333Y-150105952D01*
X104560714Y-150201190D01*
X104560714Y-150344048D01*
X104608333Y-150439286D01*
X104655952Y-150486905D01*
X105227381Y-149439286D02*
X105179762Y-149534524D01*
X105132143Y-149582143D01*
X105036905Y-149629762D01*
X104751190Y-149629762D01*
X104655952Y-149582143D01*
X104608333Y-149534524D01*
X104560714Y-149439286D01*
X104560714Y-149296428D01*
X104608333Y-149201190D01*
X104655952Y-149153571D01*
X104751190Y-149105952D01*
X105036905Y-149105952D01*
X105132143Y-149153571D01*
X105179762Y-149201190D01*
X105227381Y-149296428D01*
X105227381Y-149439286D01*
X105227381Y-148677381D02*
X104560714Y-148677381D01*
X104227381Y-148677381D02*
X104275000Y-148725000D01*
X104322619Y-148677381D01*
X104275000Y-148629762D01*
X104227381Y-148677381D01*
X104322619Y-148677381D01*
X105179762Y-147772619D02*
X105227381Y-147867857D01*
X105227381Y-148058334D01*
X105179762Y-148153572D01*
X105132143Y-148201191D01*
X105036905Y-148248810D01*
X104751190Y-148248810D01*
X104655952Y-148201191D01*
X104608333Y-148153572D01*
X104560714Y-148058334D01*
X104560714Y-147867857D01*
X104608333Y-147772619D01*
X105179762Y-146963095D02*
X105227381Y-147058333D01*
X105227381Y-147248810D01*
X105179762Y-147344048D01*
X105084524Y-147391667D01*
X104703571Y-147391667D01*
X104608333Y-147344048D01*
X104560714Y-147248810D01*
X104560714Y-147058333D01*
X104608333Y-146963095D01*
X104703571Y-146915476D01*
X104798810Y-146915476D01*
X104894048Y-147391667D01*
X108354762Y-156424048D02*
X108402381Y-156281191D01*
X108402381Y-156043095D01*
X108354762Y-155947857D01*
X108307143Y-155900238D01*
X108211905Y-155852619D01*
X108116667Y-155852619D01*
X108021429Y-155900238D01*
X107973810Y-155947857D01*
X107926190Y-156043095D01*
X107878571Y-156233572D01*
X107830952Y-156328810D01*
X107783333Y-156376429D01*
X107688095Y-156424048D01*
X107592857Y-156424048D01*
X107497619Y-156376429D01*
X107450000Y-156328810D01*
X107402381Y-156233572D01*
X107402381Y-155995476D01*
X107450000Y-155852619D01*
X108354762Y-155043095D02*
X108402381Y-155138333D01*
X108402381Y-155328810D01*
X108354762Y-155424048D01*
X108259524Y-155471667D01*
X107878571Y-155471667D01*
X107783333Y-155424048D01*
X107735714Y-155328810D01*
X107735714Y-155138333D01*
X107783333Y-155043095D01*
X107878571Y-154995476D01*
X107973810Y-154995476D01*
X108069048Y-155471667D01*
X108402381Y-154424048D02*
X108354762Y-154519286D01*
X108259524Y-154566905D01*
X107402381Y-154566905D01*
X108354762Y-153662142D02*
X108402381Y-153757380D01*
X108402381Y-153947857D01*
X108354762Y-154043095D01*
X108259524Y-154090714D01*
X107878571Y-154090714D01*
X107783333Y-154043095D01*
X107735714Y-153947857D01*
X107735714Y-153757380D01*
X107783333Y-153662142D01*
X107878571Y-153614523D01*
X107973810Y-153614523D01*
X108069048Y-154090714D01*
X108354762Y-152757380D02*
X108402381Y-152852618D01*
X108402381Y-153043095D01*
X108354762Y-153138333D01*
X108307143Y-153185952D01*
X108211905Y-153233571D01*
X107926190Y-153233571D01*
X107830952Y-153185952D01*
X107783333Y-153138333D01*
X107735714Y-153043095D01*
X107735714Y-152852618D01*
X107783333Y-152757380D01*
X107735714Y-152471666D02*
X107735714Y-152090714D01*
X107402381Y-152328809D02*
X108259524Y-152328809D01*
X108354762Y-152281190D01*
X108402381Y-152185952D01*
X108402381Y-152090714D01*
X113577619Y-143446428D02*
X113530000Y-143541666D01*
X113434762Y-143636904D01*
X113291905Y-143779761D01*
X113244286Y-143875000D01*
X113244286Y-143970238D01*
X113482381Y-143922619D02*
X113434762Y-144017857D01*
X113339524Y-144113095D01*
X113149048Y-144160714D01*
X112815714Y-144160714D01*
X112625238Y-144113095D01*
X112530000Y-144017857D01*
X112482381Y-143922619D01*
X112482381Y-143732142D01*
X112530000Y-143636904D01*
X112625238Y-143541666D01*
X112815714Y-143494047D01*
X113149048Y-143494047D01*
X113339524Y-143541666D01*
X113434762Y-143636904D01*
X113482381Y-143732142D01*
X113482381Y-143922619D01*
X113482381Y-142541666D02*
X113482381Y-143113095D01*
X113482381Y-142827381D02*
X112482381Y-142827381D01*
X112625238Y-142922619D01*
X112720476Y-143017857D01*
X112768095Y-143113095D01*
X113482381Y-141589285D02*
X113482381Y-142160714D01*
X113482381Y-141875000D02*
X112482381Y-141875000D01*
X112625238Y-141970238D01*
X112720476Y-142065476D01*
X112768095Y-142160714D01*
X118657619Y-143446428D02*
X118610000Y-143541666D01*
X118514762Y-143636904D01*
X118371905Y-143779761D01*
X118324286Y-143875000D01*
X118324286Y-143970238D01*
X118562381Y-143922619D02*
X118514762Y-144017857D01*
X118419524Y-144113095D01*
X118229048Y-144160714D01*
X117895714Y-144160714D01*
X117705238Y-144113095D01*
X117610000Y-144017857D01*
X117562381Y-143922619D01*
X117562381Y-143732142D01*
X117610000Y-143636904D01*
X117705238Y-143541666D01*
X117895714Y-143494047D01*
X118229048Y-143494047D01*
X118419524Y-143541666D01*
X118514762Y-143636904D01*
X118562381Y-143732142D01*
X118562381Y-143922619D01*
X118562381Y-142541666D02*
X118562381Y-143113095D01*
X118562381Y-142827381D02*
X117562381Y-142827381D01*
X117705238Y-142922619D01*
X117800476Y-143017857D01*
X117848095Y-143113095D01*
X117657619Y-142160714D02*
X117610000Y-142113095D01*
X117562381Y-142017857D01*
X117562381Y-141779761D01*
X117610000Y-141684523D01*
X117657619Y-141636904D01*
X117752857Y-141589285D01*
X117848095Y-141589285D01*
X117990952Y-141636904D01*
X118562381Y-142208333D01*
X118562381Y-141589285D01*
X109767619Y-148050238D02*
X109720000Y-148145476D01*
X109624762Y-148240714D01*
X109481905Y-148383571D01*
X109434286Y-148478810D01*
X109434286Y-148574048D01*
X109672381Y-148526429D02*
X109624762Y-148621667D01*
X109529524Y-148716905D01*
X109339048Y-148764524D01*
X109005714Y-148764524D01*
X108815238Y-148716905D01*
X108720000Y-148621667D01*
X108672381Y-148526429D01*
X108672381Y-148335952D01*
X108720000Y-148240714D01*
X108815238Y-148145476D01*
X109005714Y-148097857D01*
X109339048Y-148097857D01*
X109529524Y-148145476D01*
X109624762Y-148240714D01*
X109672381Y-148335952D01*
X109672381Y-148526429D01*
X108672381Y-147764524D02*
X108672381Y-147097857D01*
X109672381Y-147526429D01*
X114212619Y-148050238D02*
X114165000Y-148145476D01*
X114069762Y-148240714D01*
X113926905Y-148383571D01*
X113879286Y-148478810D01*
X113879286Y-148574048D01*
X114117381Y-148526429D02*
X114069762Y-148621667D01*
X113974524Y-148716905D01*
X113784048Y-148764524D01*
X113450714Y-148764524D01*
X113260238Y-148716905D01*
X113165000Y-148621667D01*
X113117381Y-148526429D01*
X113117381Y-148335952D01*
X113165000Y-148240714D01*
X113260238Y-148145476D01*
X113450714Y-148097857D01*
X113784048Y-148097857D01*
X113974524Y-148145476D01*
X114069762Y-148240714D01*
X114117381Y-148335952D01*
X114117381Y-148526429D01*
X113545952Y-147526429D02*
X113498333Y-147621667D01*
X113450714Y-147669286D01*
X113355476Y-147716905D01*
X113307857Y-147716905D01*
X113212619Y-147669286D01*
X113165000Y-147621667D01*
X113117381Y-147526429D01*
X113117381Y-147335952D01*
X113165000Y-147240714D01*
X113212619Y-147193095D01*
X113307857Y-147145476D01*
X113355476Y-147145476D01*
X113450714Y-147193095D01*
X113498333Y-147240714D01*
X113545952Y-147335952D01*
X113545952Y-147526429D01*
X113593571Y-147621667D01*
X113641190Y-147669286D01*
X113736429Y-147716905D01*
X113926905Y-147716905D01*
X114022143Y-147669286D01*
X114069762Y-147621667D01*
X114117381Y-147526429D01*
X114117381Y-147335952D01*
X114069762Y-147240714D01*
X114022143Y-147193095D01*
X113926905Y-147145476D01*
X113736429Y-147145476D01*
X113641190Y-147193095D01*
X113593571Y-147240714D01*
X113545952Y-147335952D01*
X118657619Y-148050238D02*
X118610000Y-148145476D01*
X118514762Y-148240714D01*
X118371905Y-148383571D01*
X118324286Y-148478810D01*
X118324286Y-148574048D01*
X118562381Y-148526429D02*
X118514762Y-148621667D01*
X118419524Y-148716905D01*
X118229048Y-148764524D01*
X117895714Y-148764524D01*
X117705238Y-148716905D01*
X117610000Y-148621667D01*
X117562381Y-148526429D01*
X117562381Y-148335952D01*
X117610000Y-148240714D01*
X117705238Y-148145476D01*
X117895714Y-148097857D01*
X118229048Y-148097857D01*
X118419524Y-148145476D01*
X118514762Y-148240714D01*
X118562381Y-148335952D01*
X118562381Y-148526429D01*
X118562381Y-147621667D02*
X118562381Y-147431191D01*
X118514762Y-147335952D01*
X118467143Y-147288333D01*
X118324286Y-147193095D01*
X118133810Y-147145476D01*
X117752857Y-147145476D01*
X117657619Y-147193095D01*
X117610000Y-147240714D01*
X117562381Y-147335952D01*
X117562381Y-147526429D01*
X117610000Y-147621667D01*
X117657619Y-147669286D01*
X117752857Y-147716905D01*
X117990952Y-147716905D01*
X118086190Y-147669286D01*
X118133810Y-147621667D01*
X118181429Y-147526429D01*
X118181429Y-147335952D01*
X118133810Y-147240714D01*
X118086190Y-147193095D01*
X117990952Y-147145476D01*
M02*
