G04 #@! TF.FileFunction,Legend,Bot*
%FSLAX46Y46*%
G04 Gerber Fmt 4.6, Leading zero omitted, Abs format (unit mm)*
G04 Created by KiCad (PCBNEW 4.0.7+dfsg1-1~bpo9+1) date Wed May  2 15:36:30 2018*
%MOMM*%
%LPD*%
G01*
G04 APERTURE LIST*
%ADD10C,0.100000*%
%ADD11C,0.300000*%
%ADD12C,0.120000*%
%ADD13C,0.150000*%
G04 APERTURE END LIST*
D10*
D11*
X153947857Y-109888571D02*
X153947857Y-108388571D01*
X153305000Y-108031429D02*
X153162143Y-107960000D01*
X152947857Y-107960000D01*
X152805000Y-108031429D01*
X152733571Y-108174286D01*
X152733571Y-108317143D01*
X152805000Y-108460000D01*
X153305000Y-108960000D01*
X152733571Y-108960000D01*
X151233571Y-109745714D02*
X151305000Y-109817143D01*
X151519286Y-109888571D01*
X151662143Y-109888571D01*
X151876428Y-109817143D01*
X152019286Y-109674286D01*
X152090714Y-109531429D01*
X152162143Y-109245714D01*
X152162143Y-109031429D01*
X152090714Y-108745714D01*
X152019286Y-108602857D01*
X151876428Y-108460000D01*
X151662143Y-108388571D01*
X151519286Y-108388571D01*
X151305000Y-108460000D01*
X151233571Y-108531429D01*
X149447857Y-109888571D02*
X149447857Y-108388571D01*
X148447857Y-108388571D02*
X148162143Y-108388571D01*
X148019285Y-108460000D01*
X147876428Y-108602857D01*
X147805000Y-108888571D01*
X147805000Y-109388571D01*
X147876428Y-109674286D01*
X148019285Y-109817143D01*
X148162143Y-109888571D01*
X148447857Y-109888571D01*
X148590714Y-109817143D01*
X148733571Y-109674286D01*
X148805000Y-109388571D01*
X148805000Y-108888571D01*
X148733571Y-108602857D01*
X148590714Y-108460000D01*
X148447857Y-108388571D01*
X146019285Y-109102857D02*
X145519285Y-109102857D01*
X145304999Y-109888571D02*
X146019285Y-109888571D01*
X146019285Y-108388571D01*
X145304999Y-108388571D01*
X144804999Y-109888571D02*
X144019285Y-108888571D01*
X144804999Y-108888571D02*
X144019285Y-109888571D01*
X143447856Y-108888571D02*
X143447856Y-110388571D01*
X143447856Y-108960000D02*
X143304999Y-108888571D01*
X143019285Y-108888571D01*
X142876428Y-108960000D01*
X142804999Y-109031429D01*
X142733570Y-109174286D01*
X142733570Y-109602857D01*
X142804999Y-109745714D01*
X142876428Y-109817143D01*
X143019285Y-109888571D01*
X143304999Y-109888571D01*
X143447856Y-109817143D01*
X141447856Y-109888571D02*
X141447856Y-109102857D01*
X141519285Y-108960000D01*
X141662142Y-108888571D01*
X141947856Y-108888571D01*
X142090713Y-108960000D01*
X141447856Y-109817143D02*
X141590713Y-109888571D01*
X141947856Y-109888571D01*
X142090713Y-109817143D01*
X142162142Y-109674286D01*
X142162142Y-109531429D01*
X142090713Y-109388571D01*
X141947856Y-109317143D01*
X141590713Y-109317143D01*
X141447856Y-109245714D01*
X140733570Y-108888571D02*
X140733570Y-109888571D01*
X140733570Y-109031429D02*
X140662142Y-108960000D01*
X140519284Y-108888571D01*
X140304999Y-108888571D01*
X140162142Y-108960000D01*
X140090713Y-109102857D01*
X140090713Y-109888571D01*
X139447856Y-109817143D02*
X139304999Y-109888571D01*
X139019284Y-109888571D01*
X138876427Y-109817143D01*
X138804999Y-109674286D01*
X138804999Y-109602857D01*
X138876427Y-109460000D01*
X139019284Y-109388571D01*
X139233570Y-109388571D01*
X139376427Y-109317143D01*
X139447856Y-109174286D01*
X139447856Y-109102857D01*
X139376427Y-108960000D01*
X139233570Y-108888571D01*
X139019284Y-108888571D01*
X138876427Y-108960000D01*
X138162141Y-109888571D02*
X138162141Y-108888571D01*
X138162141Y-108388571D02*
X138233570Y-108460000D01*
X138162141Y-108531429D01*
X138090713Y-108460000D01*
X138162141Y-108388571D01*
X138162141Y-108531429D01*
X137233569Y-109888571D02*
X137376427Y-109817143D01*
X137447855Y-109745714D01*
X137519284Y-109602857D01*
X137519284Y-109174286D01*
X137447855Y-109031429D01*
X137376427Y-108960000D01*
X137233569Y-108888571D01*
X137019284Y-108888571D01*
X136876427Y-108960000D01*
X136804998Y-109031429D01*
X136733569Y-109174286D01*
X136733569Y-109602857D01*
X136804998Y-109745714D01*
X136876427Y-109817143D01*
X137019284Y-109888571D01*
X137233569Y-109888571D01*
X136090712Y-108888571D02*
X136090712Y-109888571D01*
X136090712Y-109031429D02*
X136019284Y-108960000D01*
X135876426Y-108888571D01*
X135662141Y-108888571D01*
X135519284Y-108960000D01*
X135447855Y-109102857D01*
X135447855Y-109888571D01*
X154090714Y-111438571D02*
X153733571Y-112438571D01*
X153376429Y-111438571D01*
X152019286Y-112438571D02*
X152876429Y-112438571D01*
X152447857Y-112438571D02*
X152447857Y-110938571D01*
X152590714Y-111152857D01*
X152733572Y-111295714D01*
X152876429Y-111367143D01*
X151376429Y-112295714D02*
X151305001Y-112367143D01*
X151376429Y-112438571D01*
X151447858Y-112367143D01*
X151376429Y-112295714D01*
X151376429Y-112438571D01*
X150376429Y-110938571D02*
X150233572Y-110938571D01*
X150090715Y-111010000D01*
X150019286Y-111081429D01*
X149947857Y-111224286D01*
X149876429Y-111510000D01*
X149876429Y-111867143D01*
X149947857Y-112152857D01*
X150019286Y-112295714D01*
X150090715Y-112367143D01*
X150233572Y-112438571D01*
X150376429Y-112438571D01*
X150519286Y-112367143D01*
X150590715Y-112295714D01*
X150662143Y-112152857D01*
X150733572Y-111867143D01*
X150733572Y-111510000D01*
X150662143Y-111224286D01*
X150590715Y-111081429D01*
X150519286Y-111010000D01*
X150376429Y-110938571D01*
X153947857Y-113988571D02*
X153947857Y-114988571D01*
X153947857Y-114131429D02*
X153876429Y-114060000D01*
X153733571Y-113988571D01*
X153519286Y-113988571D01*
X153376429Y-114060000D01*
X153305000Y-114202857D01*
X153305000Y-114988571D01*
X152590714Y-114988571D02*
X152590714Y-113988571D01*
X152590714Y-113488571D02*
X152662143Y-113560000D01*
X152590714Y-113631429D01*
X152519286Y-113560000D01*
X152590714Y-113488571D01*
X152590714Y-113631429D01*
X151233571Y-114917143D02*
X151376428Y-114988571D01*
X151662142Y-114988571D01*
X151805000Y-114917143D01*
X151876428Y-114845714D01*
X151947857Y-114702857D01*
X151947857Y-114274286D01*
X151876428Y-114131429D01*
X151805000Y-114060000D01*
X151662142Y-113988571D01*
X151376428Y-113988571D01*
X151233571Y-114060000D01*
X150590714Y-114988571D02*
X150590714Y-113488571D01*
X150447857Y-114417143D02*
X150019286Y-114988571D01*
X150019286Y-113988571D02*
X150590714Y-114560000D01*
X149590714Y-113988571D02*
X149019285Y-113988571D01*
X149376428Y-113488571D02*
X149376428Y-114774286D01*
X149305000Y-114917143D01*
X149162142Y-114988571D01*
X149019285Y-114988571D01*
X148519285Y-114988571D02*
X148519285Y-113488571D01*
X147876428Y-114988571D02*
X147876428Y-114202857D01*
X147947857Y-114060000D01*
X148090714Y-113988571D01*
X148304999Y-113988571D01*
X148447857Y-114060000D01*
X148519285Y-114131429D01*
X146590714Y-114917143D02*
X146733571Y-114988571D01*
X147019285Y-114988571D01*
X147162142Y-114917143D01*
X147233571Y-114774286D01*
X147233571Y-114202857D01*
X147162142Y-114060000D01*
X147019285Y-113988571D01*
X146733571Y-113988571D01*
X146590714Y-114060000D01*
X146519285Y-114202857D01*
X146519285Y-114345714D01*
X147233571Y-114488571D01*
X145233571Y-114917143D02*
X145376428Y-114988571D01*
X145662142Y-114988571D01*
X145805000Y-114917143D01*
X145876428Y-114845714D01*
X145947857Y-114702857D01*
X145947857Y-114274286D01*
X145876428Y-114131429D01*
X145805000Y-114060000D01*
X145662142Y-113988571D01*
X145376428Y-113988571D01*
X145233571Y-114060000D01*
X144376428Y-114988571D02*
X144519286Y-114917143D01*
X144590714Y-114845714D01*
X144662143Y-114702857D01*
X144662143Y-114274286D01*
X144590714Y-114131429D01*
X144519286Y-114060000D01*
X144376428Y-113988571D01*
X144162143Y-113988571D01*
X144019286Y-114060000D01*
X143947857Y-114131429D01*
X143876428Y-114274286D01*
X143876428Y-114702857D01*
X143947857Y-114845714D01*
X144019286Y-114917143D01*
X144162143Y-114988571D01*
X144376428Y-114988571D01*
X142590714Y-114988571D02*
X142590714Y-113488571D01*
X142590714Y-114917143D02*
X142733571Y-114988571D01*
X143019285Y-114988571D01*
X143162143Y-114917143D01*
X143233571Y-114845714D01*
X143305000Y-114702857D01*
X143305000Y-114274286D01*
X143233571Y-114131429D01*
X143162143Y-114060000D01*
X143019285Y-113988571D01*
X142733571Y-113988571D01*
X142590714Y-114060000D01*
X141305000Y-114917143D02*
X141447857Y-114988571D01*
X141733571Y-114988571D01*
X141876428Y-114917143D01*
X141947857Y-114774286D01*
X141947857Y-114202857D01*
X141876428Y-114060000D01*
X141733571Y-113988571D01*
X141447857Y-113988571D01*
X141305000Y-114060000D01*
X141233571Y-114202857D01*
X141233571Y-114345714D01*
X141947857Y-114488571D01*
X140590714Y-114988571D02*
X140590714Y-113988571D01*
X140590714Y-114274286D02*
X140519286Y-114131429D01*
X140447857Y-114060000D01*
X140305000Y-113988571D01*
X140162143Y-113988571D01*
X139662143Y-114845714D02*
X139590715Y-114917143D01*
X139662143Y-114988571D01*
X139733572Y-114917143D01*
X139662143Y-114845714D01*
X139662143Y-114988571D01*
X138305000Y-114917143D02*
X138447857Y-114988571D01*
X138733571Y-114988571D01*
X138876429Y-114917143D01*
X138947857Y-114845714D01*
X139019286Y-114702857D01*
X139019286Y-114274286D01*
X138947857Y-114131429D01*
X138876429Y-114060000D01*
X138733571Y-113988571D01*
X138447857Y-113988571D01*
X138305000Y-114060000D01*
X137447857Y-114988571D02*
X137590715Y-114917143D01*
X137662143Y-114845714D01*
X137733572Y-114702857D01*
X137733572Y-114274286D01*
X137662143Y-114131429D01*
X137590715Y-114060000D01*
X137447857Y-113988571D01*
X137233572Y-113988571D01*
X137090715Y-114060000D01*
X137019286Y-114131429D01*
X136947857Y-114274286D01*
X136947857Y-114702857D01*
X137019286Y-114845714D01*
X137090715Y-114917143D01*
X137233572Y-114988571D01*
X137447857Y-114988571D01*
X136305000Y-114845714D02*
X136233572Y-114917143D01*
X136305000Y-114988571D01*
X136376429Y-114917143D01*
X136305000Y-114845714D01*
X136305000Y-114988571D01*
X134947857Y-113988571D02*
X134947857Y-114988571D01*
X135590714Y-113988571D02*
X135590714Y-114774286D01*
X135519286Y-114917143D01*
X135376428Y-114988571D01*
X135162143Y-114988571D01*
X135019286Y-114917143D01*
X134947857Y-114845714D01*
X134233571Y-114988571D02*
X134233571Y-113488571D01*
X134090714Y-114417143D02*
X133662143Y-114988571D01*
X133662143Y-113988571D02*
X134233571Y-114560000D01*
X157551428Y-95063571D02*
X157408571Y-95063571D01*
X157265714Y-95135000D01*
X157194285Y-95206429D01*
X157122856Y-95349286D01*
X157051428Y-95635000D01*
X157051428Y-95992143D01*
X157122856Y-96277857D01*
X157194285Y-96420714D01*
X157265714Y-96492143D01*
X157408571Y-96563571D01*
X157551428Y-96563571D01*
X157694285Y-96492143D01*
X157765714Y-96420714D01*
X157837142Y-96277857D01*
X157908571Y-95992143D01*
X157908571Y-95635000D01*
X157837142Y-95349286D01*
X157765714Y-95206429D01*
X157694285Y-95135000D01*
X157551428Y-95063571D01*
X157051428Y-94023571D02*
X157908571Y-94023571D01*
X157479999Y-94023571D02*
X157479999Y-92523571D01*
X157622856Y-92737857D01*
X157765714Y-92880714D01*
X157908571Y-92952143D01*
X155439285Y-95293571D02*
X155439285Y-93793571D01*
X154796428Y-93436429D02*
X154653571Y-93365000D01*
X154439285Y-93365000D01*
X154296428Y-93436429D01*
X154224999Y-93579286D01*
X154224999Y-93722143D01*
X154296428Y-93865000D01*
X154796428Y-94365000D01*
X154224999Y-94365000D01*
X152724999Y-95150714D02*
X152796428Y-95222143D01*
X153010714Y-95293571D01*
X153153571Y-95293571D01*
X153367856Y-95222143D01*
X153510714Y-95079286D01*
X153582142Y-94936429D01*
X153653571Y-94650714D01*
X153653571Y-94436429D01*
X153582142Y-94150714D01*
X153510714Y-94007857D01*
X153367856Y-93865000D01*
X153153571Y-93793571D01*
X153010714Y-93793571D01*
X152796428Y-93865000D01*
X152724999Y-93936429D01*
X151010714Y-94865000D02*
X150296428Y-94865000D01*
X151153571Y-95293571D02*
X150653571Y-93793571D01*
X150153571Y-95293571D01*
X149010714Y-95293571D02*
X149010714Y-93793571D01*
X149010714Y-95222143D02*
X149153571Y-95293571D01*
X149439285Y-95293571D01*
X149582143Y-95222143D01*
X149653571Y-95150714D01*
X149725000Y-95007857D01*
X149725000Y-94579286D01*
X149653571Y-94436429D01*
X149582143Y-94365000D01*
X149439285Y-94293571D01*
X149153571Y-94293571D01*
X149010714Y-94365000D01*
X147653571Y-95293571D02*
X147653571Y-93793571D01*
X147653571Y-95222143D02*
X147796428Y-95293571D01*
X148082142Y-95293571D01*
X148225000Y-95222143D01*
X148296428Y-95150714D01*
X148367857Y-95007857D01*
X148367857Y-94579286D01*
X148296428Y-94436429D01*
X148225000Y-94365000D01*
X148082142Y-94293571D01*
X147796428Y-94293571D01*
X147653571Y-94365000D01*
X146939285Y-95293571D02*
X146939285Y-94293571D01*
X146939285Y-94579286D02*
X146867857Y-94436429D01*
X146796428Y-94365000D01*
X146653571Y-94293571D01*
X146510714Y-94293571D01*
X145439286Y-95222143D02*
X145582143Y-95293571D01*
X145867857Y-95293571D01*
X146010714Y-95222143D01*
X146082143Y-95079286D01*
X146082143Y-94507857D01*
X146010714Y-94365000D01*
X145867857Y-94293571D01*
X145582143Y-94293571D01*
X145439286Y-94365000D01*
X145367857Y-94507857D01*
X145367857Y-94650714D01*
X146082143Y-94793571D01*
X144796429Y-95222143D02*
X144653572Y-95293571D01*
X144367857Y-95293571D01*
X144225000Y-95222143D01*
X144153572Y-95079286D01*
X144153572Y-95007857D01*
X144225000Y-94865000D01*
X144367857Y-94793571D01*
X144582143Y-94793571D01*
X144725000Y-94722143D01*
X144796429Y-94579286D01*
X144796429Y-94507857D01*
X144725000Y-94365000D01*
X144582143Y-94293571D01*
X144367857Y-94293571D01*
X144225000Y-94365000D01*
X143582143Y-95222143D02*
X143439286Y-95293571D01*
X143153571Y-95293571D01*
X143010714Y-95222143D01*
X142939286Y-95079286D01*
X142939286Y-95007857D01*
X143010714Y-94865000D01*
X143153571Y-94793571D01*
X143367857Y-94793571D01*
X143510714Y-94722143D01*
X143582143Y-94579286D01*
X143582143Y-94507857D01*
X143510714Y-94365000D01*
X143367857Y-94293571D01*
X143153571Y-94293571D01*
X143010714Y-94365000D01*
X163472857Y-175298571D02*
X163472857Y-173798571D01*
X162972857Y-174870000D01*
X162472857Y-173798571D01*
X162472857Y-175298571D01*
X161544285Y-175298571D02*
X161687143Y-175227143D01*
X161758571Y-175155714D01*
X161830000Y-175012857D01*
X161830000Y-174584286D01*
X161758571Y-174441429D01*
X161687143Y-174370000D01*
X161544285Y-174298571D01*
X161330000Y-174298571D01*
X161187143Y-174370000D01*
X161115714Y-174441429D01*
X161044285Y-174584286D01*
X161044285Y-175012857D01*
X161115714Y-175155714D01*
X161187143Y-175227143D01*
X161330000Y-175298571D01*
X161544285Y-175298571D01*
X159758571Y-175298571D02*
X159758571Y-173798571D01*
X159758571Y-175227143D02*
X159901428Y-175298571D01*
X160187142Y-175298571D01*
X160330000Y-175227143D01*
X160401428Y-175155714D01*
X160472857Y-175012857D01*
X160472857Y-174584286D01*
X160401428Y-174441429D01*
X160330000Y-174370000D01*
X160187142Y-174298571D01*
X159901428Y-174298571D01*
X159758571Y-174370000D01*
X158401428Y-174298571D02*
X158401428Y-175298571D01*
X159044285Y-174298571D02*
X159044285Y-175084286D01*
X158972857Y-175227143D01*
X158829999Y-175298571D01*
X158615714Y-175298571D01*
X158472857Y-175227143D01*
X158401428Y-175155714D01*
X157472856Y-175298571D02*
X157615714Y-175227143D01*
X157687142Y-175084286D01*
X157687142Y-173798571D01*
X156330000Y-175227143D02*
X156472857Y-175298571D01*
X156758571Y-175298571D01*
X156901428Y-175227143D01*
X156972857Y-175084286D01*
X156972857Y-174512857D01*
X156901428Y-174370000D01*
X156758571Y-174298571D01*
X156472857Y-174298571D01*
X156330000Y-174370000D01*
X156258571Y-174512857D01*
X156258571Y-174655714D01*
X156972857Y-174798571D01*
X154472857Y-175298571D02*
X154472857Y-173798571D01*
X153615714Y-175298571D01*
X153615714Y-173798571D01*
X152258571Y-175298571D02*
X152258571Y-174512857D01*
X152330000Y-174370000D01*
X152472857Y-174298571D01*
X152758571Y-174298571D01*
X152901428Y-174370000D01*
X152258571Y-175227143D02*
X152401428Y-175298571D01*
X152758571Y-175298571D01*
X152901428Y-175227143D01*
X152972857Y-175084286D01*
X152972857Y-174941429D01*
X152901428Y-174798571D01*
X152758571Y-174727143D01*
X152401428Y-174727143D01*
X152258571Y-174655714D01*
X151544285Y-175298571D02*
X151544285Y-174298571D01*
X151544285Y-174441429D02*
X151472857Y-174370000D01*
X151329999Y-174298571D01*
X151115714Y-174298571D01*
X150972857Y-174370000D01*
X150901428Y-174512857D01*
X150901428Y-175298571D01*
X150901428Y-174512857D02*
X150829999Y-174370000D01*
X150687142Y-174298571D01*
X150472857Y-174298571D01*
X150329999Y-174370000D01*
X150258571Y-174512857D01*
X150258571Y-175298571D01*
X148972857Y-175227143D02*
X149115714Y-175298571D01*
X149401428Y-175298571D01*
X149544285Y-175227143D01*
X149615714Y-175084286D01*
X149615714Y-174512857D01*
X149544285Y-174370000D01*
X149401428Y-174298571D01*
X149115714Y-174298571D01*
X148972857Y-174370000D01*
X148901428Y-174512857D01*
X148901428Y-174655714D01*
X149615714Y-174798571D01*
X147330000Y-173798571D02*
X146830000Y-175298571D01*
X146330000Y-173798571D01*
X145044286Y-175298571D02*
X145901429Y-175298571D01*
X145472857Y-175298571D02*
X145472857Y-173798571D01*
X145615714Y-174012857D01*
X145758572Y-174155714D01*
X145901429Y-174227143D01*
X144401429Y-175155714D02*
X144330001Y-175227143D01*
X144401429Y-175298571D01*
X144472858Y-175227143D01*
X144401429Y-175155714D01*
X144401429Y-175298571D01*
X143401429Y-173798571D02*
X143258572Y-173798571D01*
X143115715Y-173870000D01*
X143044286Y-173941429D01*
X142972857Y-174084286D01*
X142901429Y-174370000D01*
X142901429Y-174727143D01*
X142972857Y-175012857D01*
X143044286Y-175155714D01*
X143115715Y-175227143D01*
X143258572Y-175298571D01*
X143401429Y-175298571D01*
X143544286Y-175227143D01*
X143615715Y-175155714D01*
X143687143Y-175012857D01*
X143758572Y-174727143D01*
X143758572Y-174370000D01*
X143687143Y-174084286D01*
X143615715Y-173941429D01*
X143544286Y-173870000D01*
X143401429Y-173798571D01*
X163472857Y-177848571D02*
X163472857Y-176348571D01*
X162830000Y-177848571D02*
X162830000Y-177062857D01*
X162901429Y-176920000D01*
X163044286Y-176848571D01*
X163258571Y-176848571D01*
X163401429Y-176920000D01*
X163472857Y-176991429D01*
X162330000Y-176848571D02*
X161758571Y-176848571D01*
X162115714Y-176348571D02*
X162115714Y-177634286D01*
X162044286Y-177777143D01*
X161901428Y-177848571D01*
X161758571Y-177848571D01*
X161472857Y-176848571D02*
X160901428Y-176848571D01*
X161258571Y-176348571D02*
X161258571Y-177634286D01*
X161187143Y-177777143D01*
X161044285Y-177848571D01*
X160901428Y-177848571D01*
X160401428Y-176848571D02*
X160401428Y-178348571D01*
X160401428Y-176920000D02*
X160258571Y-176848571D01*
X159972857Y-176848571D01*
X159830000Y-176920000D01*
X159758571Y-176991429D01*
X159687142Y-177134286D01*
X159687142Y-177562857D01*
X159758571Y-177705714D01*
X159830000Y-177777143D01*
X159972857Y-177848571D01*
X160258571Y-177848571D01*
X160401428Y-177777143D01*
X159044285Y-177705714D02*
X158972857Y-177777143D01*
X159044285Y-177848571D01*
X159115714Y-177777143D01*
X159044285Y-177705714D01*
X159044285Y-177848571D01*
X159044285Y-176920000D02*
X158972857Y-176991429D01*
X159044285Y-177062857D01*
X159115714Y-176991429D01*
X159044285Y-176920000D01*
X159044285Y-177062857D01*
X157258571Y-176277143D02*
X158544285Y-178205714D01*
X155687142Y-176277143D02*
X156972856Y-178205714D01*
X155187141Y-176848571D02*
X155187141Y-177848571D01*
X155187141Y-176991429D02*
X155115713Y-176920000D01*
X154972855Y-176848571D01*
X154758570Y-176848571D01*
X154615713Y-176920000D01*
X154544284Y-177062857D01*
X154544284Y-177848571D01*
X153829998Y-177848571D02*
X153829998Y-176848571D01*
X153829998Y-176348571D02*
X153901427Y-176420000D01*
X153829998Y-176491429D01*
X153758570Y-176420000D01*
X153829998Y-176348571D01*
X153829998Y-176491429D01*
X152472855Y-177777143D02*
X152615712Y-177848571D01*
X152901426Y-177848571D01*
X153044284Y-177777143D01*
X153115712Y-177705714D01*
X153187141Y-177562857D01*
X153187141Y-177134286D01*
X153115712Y-176991429D01*
X153044284Y-176920000D01*
X152901426Y-176848571D01*
X152615712Y-176848571D01*
X152472855Y-176920000D01*
X151829998Y-177848571D02*
X151829998Y-176348571D01*
X151687141Y-177277143D02*
X151258570Y-177848571D01*
X151258570Y-176848571D02*
X151829998Y-177420000D01*
X150829998Y-176848571D02*
X150258569Y-176848571D01*
X150615712Y-176348571D02*
X150615712Y-177634286D01*
X150544284Y-177777143D01*
X150401426Y-177848571D01*
X150258569Y-177848571D01*
X149758569Y-177848571D02*
X149758569Y-176348571D01*
X149115712Y-177848571D02*
X149115712Y-177062857D01*
X149187141Y-176920000D01*
X149329998Y-176848571D01*
X149544283Y-176848571D01*
X149687141Y-176920000D01*
X149758569Y-176991429D01*
X147829998Y-177777143D02*
X147972855Y-177848571D01*
X148258569Y-177848571D01*
X148401426Y-177777143D01*
X148472855Y-177634286D01*
X148472855Y-177062857D01*
X148401426Y-176920000D01*
X148258569Y-176848571D01*
X147972855Y-176848571D01*
X147829998Y-176920000D01*
X147758569Y-177062857D01*
X147758569Y-177205714D01*
X148472855Y-177348571D01*
X146472855Y-177777143D02*
X146615712Y-177848571D01*
X146901426Y-177848571D01*
X147044284Y-177777143D01*
X147115712Y-177705714D01*
X147187141Y-177562857D01*
X147187141Y-177134286D01*
X147115712Y-176991429D01*
X147044284Y-176920000D01*
X146901426Y-176848571D01*
X146615712Y-176848571D01*
X146472855Y-176920000D01*
X145615712Y-177848571D02*
X145758570Y-177777143D01*
X145829998Y-177705714D01*
X145901427Y-177562857D01*
X145901427Y-177134286D01*
X145829998Y-176991429D01*
X145758570Y-176920000D01*
X145615712Y-176848571D01*
X145401427Y-176848571D01*
X145258570Y-176920000D01*
X145187141Y-176991429D01*
X145115712Y-177134286D01*
X145115712Y-177562857D01*
X145187141Y-177705714D01*
X145258570Y-177777143D01*
X145401427Y-177848571D01*
X145615712Y-177848571D01*
X143829998Y-177848571D02*
X143829998Y-176348571D01*
X143829998Y-177777143D02*
X143972855Y-177848571D01*
X144258569Y-177848571D01*
X144401427Y-177777143D01*
X144472855Y-177705714D01*
X144544284Y-177562857D01*
X144544284Y-177134286D01*
X144472855Y-176991429D01*
X144401427Y-176920000D01*
X144258569Y-176848571D01*
X143972855Y-176848571D01*
X143829998Y-176920000D01*
X142544284Y-177777143D02*
X142687141Y-177848571D01*
X142972855Y-177848571D01*
X143115712Y-177777143D01*
X143187141Y-177634286D01*
X143187141Y-177062857D01*
X143115712Y-176920000D01*
X142972855Y-176848571D01*
X142687141Y-176848571D01*
X142544284Y-176920000D01*
X142472855Y-177062857D01*
X142472855Y-177205714D01*
X143187141Y-177348571D01*
X141829998Y-177848571D02*
X141829998Y-176848571D01*
X141829998Y-177134286D02*
X141758570Y-176991429D01*
X141687141Y-176920000D01*
X141544284Y-176848571D01*
X141401427Y-176848571D01*
X140901427Y-177705714D02*
X140829999Y-177777143D01*
X140901427Y-177848571D01*
X140972856Y-177777143D01*
X140901427Y-177705714D01*
X140901427Y-177848571D01*
X139544284Y-177777143D02*
X139687141Y-177848571D01*
X139972855Y-177848571D01*
X140115713Y-177777143D01*
X140187141Y-177705714D01*
X140258570Y-177562857D01*
X140258570Y-177134286D01*
X140187141Y-176991429D01*
X140115713Y-176920000D01*
X139972855Y-176848571D01*
X139687141Y-176848571D01*
X139544284Y-176920000D01*
X138687141Y-177848571D02*
X138829999Y-177777143D01*
X138901427Y-177705714D01*
X138972856Y-177562857D01*
X138972856Y-177134286D01*
X138901427Y-176991429D01*
X138829999Y-176920000D01*
X138687141Y-176848571D01*
X138472856Y-176848571D01*
X138329999Y-176920000D01*
X138258570Y-176991429D01*
X138187141Y-177134286D01*
X138187141Y-177562857D01*
X138258570Y-177705714D01*
X138329999Y-177777143D01*
X138472856Y-177848571D01*
X138687141Y-177848571D01*
X137544284Y-177705714D02*
X137472856Y-177777143D01*
X137544284Y-177848571D01*
X137615713Y-177777143D01*
X137544284Y-177705714D01*
X137544284Y-177848571D01*
X136187141Y-176848571D02*
X136187141Y-177848571D01*
X136829998Y-176848571D02*
X136829998Y-177634286D01*
X136758570Y-177777143D01*
X136615712Y-177848571D01*
X136401427Y-177848571D01*
X136258570Y-177777143D01*
X136187141Y-177705714D01*
X135472855Y-177848571D02*
X135472855Y-176348571D01*
X135329998Y-177277143D02*
X134901427Y-177848571D01*
X134901427Y-176848571D02*
X135472855Y-177420000D01*
X109811429Y-165790714D02*
X110525714Y-166290714D01*
X109811429Y-166647857D02*
X111311429Y-166647857D01*
X111311429Y-166076429D01*
X111240000Y-165933571D01*
X111168571Y-165862143D01*
X111025714Y-165790714D01*
X110811429Y-165790714D01*
X110668571Y-165862143D01*
X110597143Y-165933571D01*
X110525714Y-166076429D01*
X110525714Y-166647857D01*
X111240000Y-164362143D02*
X111311429Y-164505000D01*
X111311429Y-164719286D01*
X111240000Y-164933571D01*
X111097143Y-165076429D01*
X110954286Y-165147857D01*
X110668571Y-165219286D01*
X110454286Y-165219286D01*
X110168571Y-165147857D01*
X110025714Y-165076429D01*
X109882857Y-164933571D01*
X109811429Y-164719286D01*
X109811429Y-164576429D01*
X109882857Y-164362143D01*
X109954286Y-164290714D01*
X110454286Y-164290714D01*
X110454286Y-164576429D01*
X110597143Y-163147857D02*
X110525714Y-162933571D01*
X110454286Y-162862143D01*
X110311429Y-162790714D01*
X110097143Y-162790714D01*
X109954286Y-162862143D01*
X109882857Y-162933571D01*
X109811429Y-163076429D01*
X109811429Y-163647857D01*
X111311429Y-163647857D01*
X111311429Y-163147857D01*
X111240000Y-163005000D01*
X111168571Y-162933571D01*
X111025714Y-162862143D01*
X110882857Y-162862143D01*
X110740000Y-162933571D01*
X110668571Y-163005000D01*
X110597143Y-163147857D01*
X110597143Y-163647857D01*
X109811429Y-160290714D02*
X109811429Y-161005000D01*
X111311429Y-161005000D01*
X110597143Y-159790714D02*
X110597143Y-159290714D01*
X109811429Y-159076428D02*
X109811429Y-159790714D01*
X111311429Y-159790714D01*
X111311429Y-159076428D01*
X109811429Y-158433571D02*
X111311429Y-158433571D01*
X111311429Y-158076428D01*
X111240000Y-157862143D01*
X111097143Y-157719285D01*
X110954286Y-157647857D01*
X110668571Y-157576428D01*
X110454286Y-157576428D01*
X110168571Y-157647857D01*
X110025714Y-157719285D01*
X109882857Y-157862143D01*
X109811429Y-158076428D01*
X109811429Y-158433571D01*
X110811429Y-155933571D02*
X109811429Y-155576428D01*
X110811429Y-155219286D01*
X109811429Y-153862143D02*
X109811429Y-154719286D01*
X109811429Y-154290714D02*
X111311429Y-154290714D01*
X111097143Y-154433571D01*
X110954286Y-154576429D01*
X110882857Y-154719286D01*
X109954286Y-153219286D02*
X109882857Y-153147858D01*
X109811429Y-153219286D01*
X109882857Y-153290715D01*
X109954286Y-153219286D01*
X109811429Y-153219286D01*
X111311429Y-152219286D02*
X111311429Y-152076429D01*
X111240000Y-151933572D01*
X111168571Y-151862143D01*
X111025714Y-151790714D01*
X110740000Y-151719286D01*
X110382857Y-151719286D01*
X110097143Y-151790714D01*
X109954286Y-151862143D01*
X109882857Y-151933572D01*
X109811429Y-152076429D01*
X109811429Y-152219286D01*
X109882857Y-152362143D01*
X109954286Y-152433572D01*
X110097143Y-152505000D01*
X110382857Y-152576429D01*
X110740000Y-152576429D01*
X111025714Y-152505000D01*
X111168571Y-152433572D01*
X111240000Y-152362143D01*
X111311429Y-152219286D01*
X85046429Y-165790714D02*
X85760714Y-166290714D01*
X85046429Y-166647857D02*
X86546429Y-166647857D01*
X86546429Y-166076429D01*
X86475000Y-165933571D01*
X86403571Y-165862143D01*
X86260714Y-165790714D01*
X86046429Y-165790714D01*
X85903571Y-165862143D01*
X85832143Y-165933571D01*
X85760714Y-166076429D01*
X85760714Y-166647857D01*
X86475000Y-164362143D02*
X86546429Y-164505000D01*
X86546429Y-164719286D01*
X86475000Y-164933571D01*
X86332143Y-165076429D01*
X86189286Y-165147857D01*
X85903571Y-165219286D01*
X85689286Y-165219286D01*
X85403571Y-165147857D01*
X85260714Y-165076429D01*
X85117857Y-164933571D01*
X85046429Y-164719286D01*
X85046429Y-164576429D01*
X85117857Y-164362143D01*
X85189286Y-164290714D01*
X85689286Y-164290714D01*
X85689286Y-164576429D01*
X85832143Y-163147857D02*
X85760714Y-162933571D01*
X85689286Y-162862143D01*
X85546429Y-162790714D01*
X85332143Y-162790714D01*
X85189286Y-162862143D01*
X85117857Y-162933571D01*
X85046429Y-163076429D01*
X85046429Y-163647857D01*
X86546429Y-163647857D01*
X86546429Y-163147857D01*
X86475000Y-163005000D01*
X86403571Y-162933571D01*
X86260714Y-162862143D01*
X86117857Y-162862143D01*
X85975000Y-162933571D01*
X85903571Y-163005000D01*
X85832143Y-163147857D01*
X85832143Y-163647857D01*
X85046429Y-160290714D02*
X85046429Y-161005000D01*
X86546429Y-161005000D01*
X85832143Y-159790714D02*
X85832143Y-159290714D01*
X85046429Y-159076428D02*
X85046429Y-159790714D01*
X86546429Y-159790714D01*
X86546429Y-159076428D01*
X85046429Y-158433571D02*
X86546429Y-158433571D01*
X86546429Y-158076428D01*
X86475000Y-157862143D01*
X86332143Y-157719285D01*
X86189286Y-157647857D01*
X85903571Y-157576428D01*
X85689286Y-157576428D01*
X85403571Y-157647857D01*
X85260714Y-157719285D01*
X85117857Y-157862143D01*
X85046429Y-158076428D01*
X85046429Y-158433571D01*
X86046429Y-155933571D02*
X85046429Y-155576428D01*
X86046429Y-155219286D01*
X85046429Y-153862143D02*
X85046429Y-154719286D01*
X85046429Y-154290714D02*
X86546429Y-154290714D01*
X86332143Y-154433571D01*
X86189286Y-154576429D01*
X86117857Y-154719286D01*
X85189286Y-153219286D02*
X85117857Y-153147858D01*
X85046429Y-153219286D01*
X85117857Y-153290715D01*
X85189286Y-153219286D01*
X85046429Y-153219286D01*
X86546429Y-152219286D02*
X86546429Y-152076429D01*
X86475000Y-151933572D01*
X86403571Y-151862143D01*
X86260714Y-151790714D01*
X85975000Y-151719286D01*
X85617857Y-151719286D01*
X85332143Y-151790714D01*
X85189286Y-151862143D01*
X85117857Y-151933572D01*
X85046429Y-152076429D01*
X85046429Y-152219286D01*
X85117857Y-152362143D01*
X85189286Y-152433572D01*
X85332143Y-152505000D01*
X85617857Y-152576429D01*
X85975000Y-152576429D01*
X86260714Y-152505000D01*
X86403571Y-152433572D01*
X86475000Y-152362143D01*
X86546429Y-152219286D01*
X122241429Y-167917857D02*
X121241429Y-167917857D01*
X122098571Y-167917857D02*
X122170000Y-167846429D01*
X122241429Y-167703571D01*
X122241429Y-167489286D01*
X122170000Y-167346429D01*
X122027143Y-167275000D01*
X121241429Y-167275000D01*
X121241429Y-166560714D02*
X122241429Y-166560714D01*
X122741429Y-166560714D02*
X122670000Y-166632143D01*
X122598571Y-166560714D01*
X122670000Y-166489286D01*
X122741429Y-166560714D01*
X122598571Y-166560714D01*
X121312857Y-165203571D02*
X121241429Y-165346428D01*
X121241429Y-165632142D01*
X121312857Y-165775000D01*
X121384286Y-165846428D01*
X121527143Y-165917857D01*
X121955714Y-165917857D01*
X122098571Y-165846428D01*
X122170000Y-165775000D01*
X122241429Y-165632142D01*
X122241429Y-165346428D01*
X122170000Y-165203571D01*
X121241429Y-164560714D02*
X122741429Y-164560714D01*
X121812857Y-164417857D02*
X121241429Y-163989286D01*
X122241429Y-163989286D02*
X121670000Y-164560714D01*
X122241429Y-163560714D02*
X122241429Y-162989285D01*
X122741429Y-163346428D02*
X121455714Y-163346428D01*
X121312857Y-163275000D01*
X121241429Y-163132142D01*
X121241429Y-162989285D01*
X121241429Y-162489285D02*
X122741429Y-162489285D01*
X121241429Y-161846428D02*
X122027143Y-161846428D01*
X122170000Y-161917857D01*
X122241429Y-162060714D01*
X122241429Y-162274999D01*
X122170000Y-162417857D01*
X122098571Y-162489285D01*
X121312857Y-160560714D02*
X121241429Y-160703571D01*
X121241429Y-160989285D01*
X121312857Y-161132142D01*
X121455714Y-161203571D01*
X122027143Y-161203571D01*
X122170000Y-161132142D01*
X122241429Y-160989285D01*
X122241429Y-160703571D01*
X122170000Y-160560714D01*
X122027143Y-160489285D01*
X121884286Y-160489285D01*
X121741429Y-161203571D01*
X121312857Y-159203571D02*
X121241429Y-159346428D01*
X121241429Y-159632142D01*
X121312857Y-159775000D01*
X121384286Y-159846428D01*
X121527143Y-159917857D01*
X121955714Y-159917857D01*
X122098571Y-159846428D01*
X122170000Y-159775000D01*
X122241429Y-159632142D01*
X122241429Y-159346428D01*
X122170000Y-159203571D01*
X121241429Y-158346428D02*
X121312857Y-158489286D01*
X121384286Y-158560714D01*
X121527143Y-158632143D01*
X121955714Y-158632143D01*
X122098571Y-158560714D01*
X122170000Y-158489286D01*
X122241429Y-158346428D01*
X122241429Y-158132143D01*
X122170000Y-157989286D01*
X122098571Y-157917857D01*
X121955714Y-157846428D01*
X121527143Y-157846428D01*
X121384286Y-157917857D01*
X121312857Y-157989286D01*
X121241429Y-158132143D01*
X121241429Y-158346428D01*
X121241429Y-156560714D02*
X122741429Y-156560714D01*
X121312857Y-156560714D02*
X121241429Y-156703571D01*
X121241429Y-156989285D01*
X121312857Y-157132143D01*
X121384286Y-157203571D01*
X121527143Y-157275000D01*
X121955714Y-157275000D01*
X122098571Y-157203571D01*
X122170000Y-157132143D01*
X122241429Y-156989285D01*
X122241429Y-156703571D01*
X122170000Y-156560714D01*
X121312857Y-155275000D02*
X121241429Y-155417857D01*
X121241429Y-155703571D01*
X121312857Y-155846428D01*
X121455714Y-155917857D01*
X122027143Y-155917857D01*
X122170000Y-155846428D01*
X122241429Y-155703571D01*
X122241429Y-155417857D01*
X122170000Y-155275000D01*
X122027143Y-155203571D01*
X121884286Y-155203571D01*
X121741429Y-155917857D01*
X121241429Y-154560714D02*
X122241429Y-154560714D01*
X121955714Y-154560714D02*
X122098571Y-154489286D01*
X122170000Y-154417857D01*
X122241429Y-154275000D01*
X122241429Y-154132143D01*
X121384286Y-153632143D02*
X121312857Y-153560715D01*
X121241429Y-153632143D01*
X121312857Y-153703572D01*
X121384286Y-153632143D01*
X121241429Y-153632143D01*
X121312857Y-152275000D02*
X121241429Y-152417857D01*
X121241429Y-152703571D01*
X121312857Y-152846429D01*
X121384286Y-152917857D01*
X121527143Y-152989286D01*
X121955714Y-152989286D01*
X122098571Y-152917857D01*
X122170000Y-152846429D01*
X122241429Y-152703571D01*
X122241429Y-152417857D01*
X122170000Y-152275000D01*
X121241429Y-151417857D02*
X121312857Y-151560715D01*
X121384286Y-151632143D01*
X121527143Y-151703572D01*
X121955714Y-151703572D01*
X122098571Y-151632143D01*
X122170000Y-151560715D01*
X122241429Y-151417857D01*
X122241429Y-151203572D01*
X122170000Y-151060715D01*
X122098571Y-150989286D01*
X121955714Y-150917857D01*
X121527143Y-150917857D01*
X121384286Y-150989286D01*
X121312857Y-151060715D01*
X121241429Y-151203572D01*
X121241429Y-151417857D01*
X121384286Y-150275000D02*
X121312857Y-150203572D01*
X121241429Y-150275000D01*
X121312857Y-150346429D01*
X121384286Y-150275000D01*
X121241429Y-150275000D01*
X122241429Y-148917857D02*
X121241429Y-148917857D01*
X122241429Y-149560714D02*
X121455714Y-149560714D01*
X121312857Y-149489286D01*
X121241429Y-149346428D01*
X121241429Y-149132143D01*
X121312857Y-148989286D01*
X121384286Y-148917857D01*
X121241429Y-148203571D02*
X122741429Y-148203571D01*
X121812857Y-148060714D02*
X121241429Y-147632143D01*
X122241429Y-147632143D02*
X121670000Y-148203571D01*
X75886429Y-167917857D02*
X74886429Y-167917857D01*
X75743571Y-167917857D02*
X75815000Y-167846429D01*
X75886429Y-167703571D01*
X75886429Y-167489286D01*
X75815000Y-167346429D01*
X75672143Y-167275000D01*
X74886429Y-167275000D01*
X74886429Y-166560714D02*
X75886429Y-166560714D01*
X76386429Y-166560714D02*
X76315000Y-166632143D01*
X76243571Y-166560714D01*
X76315000Y-166489286D01*
X76386429Y-166560714D01*
X76243571Y-166560714D01*
X74957857Y-165203571D02*
X74886429Y-165346428D01*
X74886429Y-165632142D01*
X74957857Y-165775000D01*
X75029286Y-165846428D01*
X75172143Y-165917857D01*
X75600714Y-165917857D01*
X75743571Y-165846428D01*
X75815000Y-165775000D01*
X75886429Y-165632142D01*
X75886429Y-165346428D01*
X75815000Y-165203571D01*
X74886429Y-164560714D02*
X76386429Y-164560714D01*
X75457857Y-164417857D02*
X74886429Y-163989286D01*
X75886429Y-163989286D02*
X75315000Y-164560714D01*
X75886429Y-163560714D02*
X75886429Y-162989285D01*
X76386429Y-163346428D02*
X75100714Y-163346428D01*
X74957857Y-163275000D01*
X74886429Y-163132142D01*
X74886429Y-162989285D01*
X74886429Y-162489285D02*
X76386429Y-162489285D01*
X74886429Y-161846428D02*
X75672143Y-161846428D01*
X75815000Y-161917857D01*
X75886429Y-162060714D01*
X75886429Y-162274999D01*
X75815000Y-162417857D01*
X75743571Y-162489285D01*
X74957857Y-160560714D02*
X74886429Y-160703571D01*
X74886429Y-160989285D01*
X74957857Y-161132142D01*
X75100714Y-161203571D01*
X75672143Y-161203571D01*
X75815000Y-161132142D01*
X75886429Y-160989285D01*
X75886429Y-160703571D01*
X75815000Y-160560714D01*
X75672143Y-160489285D01*
X75529286Y-160489285D01*
X75386429Y-161203571D01*
X74957857Y-159203571D02*
X74886429Y-159346428D01*
X74886429Y-159632142D01*
X74957857Y-159775000D01*
X75029286Y-159846428D01*
X75172143Y-159917857D01*
X75600714Y-159917857D01*
X75743571Y-159846428D01*
X75815000Y-159775000D01*
X75886429Y-159632142D01*
X75886429Y-159346428D01*
X75815000Y-159203571D01*
X74886429Y-158346428D02*
X74957857Y-158489286D01*
X75029286Y-158560714D01*
X75172143Y-158632143D01*
X75600714Y-158632143D01*
X75743571Y-158560714D01*
X75815000Y-158489286D01*
X75886429Y-158346428D01*
X75886429Y-158132143D01*
X75815000Y-157989286D01*
X75743571Y-157917857D01*
X75600714Y-157846428D01*
X75172143Y-157846428D01*
X75029286Y-157917857D01*
X74957857Y-157989286D01*
X74886429Y-158132143D01*
X74886429Y-158346428D01*
X74886429Y-156560714D02*
X76386429Y-156560714D01*
X74957857Y-156560714D02*
X74886429Y-156703571D01*
X74886429Y-156989285D01*
X74957857Y-157132143D01*
X75029286Y-157203571D01*
X75172143Y-157275000D01*
X75600714Y-157275000D01*
X75743571Y-157203571D01*
X75815000Y-157132143D01*
X75886429Y-156989285D01*
X75886429Y-156703571D01*
X75815000Y-156560714D01*
X74957857Y-155275000D02*
X74886429Y-155417857D01*
X74886429Y-155703571D01*
X74957857Y-155846428D01*
X75100714Y-155917857D01*
X75672143Y-155917857D01*
X75815000Y-155846428D01*
X75886429Y-155703571D01*
X75886429Y-155417857D01*
X75815000Y-155275000D01*
X75672143Y-155203571D01*
X75529286Y-155203571D01*
X75386429Y-155917857D01*
X74886429Y-154560714D02*
X75886429Y-154560714D01*
X75600714Y-154560714D02*
X75743571Y-154489286D01*
X75815000Y-154417857D01*
X75886429Y-154275000D01*
X75886429Y-154132143D01*
X75029286Y-153632143D02*
X74957857Y-153560715D01*
X74886429Y-153632143D01*
X74957857Y-153703572D01*
X75029286Y-153632143D01*
X74886429Y-153632143D01*
X74957857Y-152275000D02*
X74886429Y-152417857D01*
X74886429Y-152703571D01*
X74957857Y-152846429D01*
X75029286Y-152917857D01*
X75172143Y-152989286D01*
X75600714Y-152989286D01*
X75743571Y-152917857D01*
X75815000Y-152846429D01*
X75886429Y-152703571D01*
X75886429Y-152417857D01*
X75815000Y-152275000D01*
X74886429Y-151417857D02*
X74957857Y-151560715D01*
X75029286Y-151632143D01*
X75172143Y-151703572D01*
X75600714Y-151703572D01*
X75743571Y-151632143D01*
X75815000Y-151560715D01*
X75886429Y-151417857D01*
X75886429Y-151203572D01*
X75815000Y-151060715D01*
X75743571Y-150989286D01*
X75600714Y-150917857D01*
X75172143Y-150917857D01*
X75029286Y-150989286D01*
X74957857Y-151060715D01*
X74886429Y-151203572D01*
X74886429Y-151417857D01*
X75029286Y-150275000D02*
X74957857Y-150203572D01*
X74886429Y-150275000D01*
X74957857Y-150346429D01*
X75029286Y-150275000D01*
X74886429Y-150275000D01*
X75886429Y-148917857D02*
X74886429Y-148917857D01*
X75886429Y-149560714D02*
X75100714Y-149560714D01*
X74957857Y-149489286D01*
X74886429Y-149346428D01*
X74886429Y-149132143D01*
X74957857Y-148989286D01*
X75029286Y-148917857D01*
X74886429Y-148203571D02*
X76386429Y-148203571D01*
X75457857Y-148060714D02*
X74886429Y-147632143D01*
X75886429Y-147632143D02*
X75315000Y-148203571D01*
D12*
X167895000Y-92705000D02*
X167895000Y-96525000D01*
X167895000Y-96525000D02*
X166115000Y-96525000D01*
X166115000Y-96525000D02*
X166115000Y-92705000D01*
X167895000Y-92705000D02*
X166115000Y-92705000D01*
X164085000Y-92705000D02*
X164085000Y-96525000D01*
X164085000Y-96525000D02*
X162305000Y-96525000D01*
X162305000Y-96525000D02*
X162305000Y-92705000D01*
X164085000Y-92705000D02*
X162305000Y-92705000D01*
X160275000Y-92705000D02*
X160275000Y-96525000D01*
X160275000Y-96525000D02*
X158495000Y-96525000D01*
X158495000Y-96525000D02*
X158495000Y-92705000D01*
X160275000Y-92705000D02*
X158495000Y-92705000D01*
D13*
X169243333Y-94067381D02*
X169243333Y-94781667D01*
X169290953Y-94924524D01*
X169386191Y-95019762D01*
X169529048Y-95067381D01*
X169624286Y-95067381D01*
X168243333Y-95067381D02*
X168814762Y-95067381D01*
X168529048Y-95067381D02*
X168529048Y-94067381D01*
X168624286Y-94210238D01*
X168719524Y-94305476D01*
X168814762Y-94353095D01*
X165433333Y-94067381D02*
X165433333Y-94781667D01*
X165480953Y-94924524D01*
X165576191Y-95019762D01*
X165719048Y-95067381D01*
X165814286Y-95067381D01*
X165004762Y-94162619D02*
X164957143Y-94115000D01*
X164861905Y-94067381D01*
X164623809Y-94067381D01*
X164528571Y-94115000D01*
X164480952Y-94162619D01*
X164433333Y-94257857D01*
X164433333Y-94353095D01*
X164480952Y-94495952D01*
X165052381Y-95067381D01*
X164433333Y-95067381D01*
X161623333Y-94067381D02*
X161623333Y-94781667D01*
X161670953Y-94924524D01*
X161766191Y-95019762D01*
X161909048Y-95067381D01*
X162004286Y-95067381D01*
X161242381Y-94067381D02*
X160623333Y-94067381D01*
X160956667Y-94448333D01*
X160813809Y-94448333D01*
X160718571Y-94495952D01*
X160670952Y-94543571D01*
X160623333Y-94638810D01*
X160623333Y-94876905D01*
X160670952Y-94972143D01*
X160718571Y-95019762D01*
X160813809Y-95067381D01*
X161099524Y-95067381D01*
X161194762Y-95019762D01*
X161242381Y-94972143D01*
M02*
