G04 #@! TF.FileFunction,Copper,L2,Bot,Signal*
%FSLAX46Y46*%
G04 Gerber Fmt 4.6, Leading zero omitted, Abs format (unit mm)*
G04 Created by KiCad (PCBNEW 4.0.7+dfsg1-1~bpo9+1) date Wed May  2 15:24:50 2018*
%MOMM*%
%LPD*%
G01*
G04 APERTURE LIST*
%ADD10C,0.100000*%
%ADD11C,1.727200*%
%ADD12R,1.700000X1.700000*%
%ADD13O,1.700000X1.700000*%
%ADD14R,1.270000X0.970000*%
%ADD15R,1.727200X1.727200*%
%ADD16C,0.600000*%
%ADD17C,0.250000*%
%ADD18C,0.500000*%
%ADD19C,0.254000*%
G04 APERTURE END LIST*
D10*
D11*
X71755000Y-48260000D03*
X74295000Y-48260000D03*
X76835000Y-48260000D03*
X79375000Y-48260000D03*
X81915000Y-48260000D03*
X84455000Y-48260000D03*
X86995000Y-48260000D03*
X89535000Y-48260000D03*
X92075000Y-48260000D03*
X94615000Y-48260000D03*
X97155000Y-48260000D03*
X99695000Y-48260000D03*
X102235000Y-48260000D03*
X104775000Y-48260000D03*
X107315000Y-48260000D03*
X109855000Y-48260000D03*
X112395000Y-48260000D03*
X114935000Y-48260000D03*
X117475000Y-48260000D03*
X120015000Y-48260000D03*
X71755000Y-63500000D03*
X74295000Y-63500000D03*
X76835000Y-63500000D03*
X79375000Y-63500000D03*
X81915000Y-63500000D03*
X84455000Y-63500000D03*
X86995000Y-63500000D03*
X89535000Y-63500000D03*
X92075000Y-63500000D03*
X94615000Y-63500000D03*
X97155000Y-63500000D03*
X99695000Y-63500000D03*
X102235000Y-63500000D03*
X104775000Y-63500000D03*
X107315000Y-63500000D03*
X109855000Y-63500000D03*
X112395000Y-63500000D03*
X114935000Y-63500000D03*
X117475000Y-63500000D03*
X120015000Y-63500000D03*
D12*
X147320000Y-76835000D03*
D13*
X144780000Y-76835000D03*
X142240000Y-76835000D03*
X139700000Y-76835000D03*
X137160000Y-76835000D03*
X134620000Y-76835000D03*
X132080000Y-76835000D03*
X129540000Y-76835000D03*
X127000000Y-76835000D03*
X124460000Y-76835000D03*
X121920000Y-76835000D03*
X119380000Y-76835000D03*
D12*
X154305000Y-41910000D03*
D13*
X154305000Y-44450000D03*
X154305000Y-46990000D03*
X154305000Y-49530000D03*
X154305000Y-52070000D03*
X154305000Y-54610000D03*
X154305000Y-57150000D03*
X154305000Y-59690000D03*
X154305000Y-62230000D03*
X154305000Y-64770000D03*
X154305000Y-67310000D03*
X154305000Y-69850000D03*
D12*
X119380000Y-34925000D03*
D13*
X121920000Y-34925000D03*
X124460000Y-34925000D03*
X127000000Y-34925000D03*
X129540000Y-34925000D03*
X132080000Y-34925000D03*
X134620000Y-34925000D03*
X137160000Y-34925000D03*
X139700000Y-34925000D03*
X142240000Y-34925000D03*
X144780000Y-34925000D03*
X147320000Y-34925000D03*
D12*
X69850000Y-34925000D03*
D13*
X72390000Y-34925000D03*
X74930000Y-34925000D03*
X77470000Y-34925000D03*
X80010000Y-34925000D03*
X82550000Y-34925000D03*
X85090000Y-34925000D03*
X87630000Y-34925000D03*
X90170000Y-34925000D03*
X92710000Y-34925000D03*
X95250000Y-34925000D03*
X97790000Y-34925000D03*
D12*
X97790000Y-76835000D03*
D13*
X95250000Y-76835000D03*
X92710000Y-76835000D03*
X90170000Y-76835000D03*
X87630000Y-76835000D03*
X85090000Y-76835000D03*
X82550000Y-76835000D03*
X80010000Y-76835000D03*
X77470000Y-76835000D03*
X74930000Y-76835000D03*
X72390000Y-76835000D03*
X69850000Y-76835000D03*
D14*
X102235000Y-107320000D03*
X102235000Y-106040000D03*
D12*
X104140000Y-92075000D03*
D13*
X104140000Y-94615000D03*
X104140000Y-97155000D03*
X104140000Y-99695000D03*
X104140000Y-102235000D03*
X104140000Y-104775000D03*
X104140000Y-107315000D03*
X104140000Y-109855000D03*
X104140000Y-112395000D03*
X104140000Y-114935000D03*
X104140000Y-117475000D03*
X104140000Y-120015000D03*
D12*
X64135000Y-102235000D03*
D13*
X64135000Y-104775000D03*
X64135000Y-107315000D03*
X64135000Y-109855000D03*
X64135000Y-112395000D03*
X64135000Y-114935000D03*
X64135000Y-117475000D03*
X64135000Y-120015000D03*
D12*
X66675000Y-102235000D03*
D13*
X66675000Y-104775000D03*
X66675000Y-107315000D03*
X66675000Y-109855000D03*
X66675000Y-112395000D03*
X66675000Y-114935000D03*
X66675000Y-117475000D03*
X66675000Y-120015000D03*
D12*
X66675000Y-97155000D03*
D13*
X69215000Y-97155000D03*
X71755000Y-97155000D03*
X74295000Y-97155000D03*
X76835000Y-97155000D03*
X79375000Y-97155000D03*
X81915000Y-97155000D03*
X84455000Y-97155000D03*
X86995000Y-97155000D03*
X89535000Y-97155000D03*
X92075000Y-97155000D03*
X94615000Y-97155000D03*
X97155000Y-97155000D03*
X99695000Y-97155000D03*
D12*
X66675000Y-99695000D03*
D13*
X69215000Y-99695000D03*
X71755000Y-99695000D03*
X74295000Y-99695000D03*
X76835000Y-99695000D03*
X79375000Y-99695000D03*
X81915000Y-99695000D03*
X84455000Y-99695000D03*
X86995000Y-99695000D03*
X89535000Y-99695000D03*
X92075000Y-99695000D03*
X94615000Y-99695000D03*
X97155000Y-99695000D03*
X99695000Y-99695000D03*
D12*
X66675000Y-89535000D03*
D13*
X69215000Y-89535000D03*
X71755000Y-89535000D03*
X74295000Y-89535000D03*
X76835000Y-89535000D03*
X79375000Y-89535000D03*
X81915000Y-89535000D03*
X84455000Y-89535000D03*
X86995000Y-89535000D03*
X89535000Y-89535000D03*
X92075000Y-89535000D03*
X94615000Y-89535000D03*
X97155000Y-89535000D03*
X99695000Y-89535000D03*
D12*
X61595000Y-92075000D03*
D13*
X61595000Y-94615000D03*
X61595000Y-97155000D03*
X61595000Y-99695000D03*
X61595000Y-102235000D03*
X61595000Y-104775000D03*
X61595000Y-107315000D03*
X61595000Y-109855000D03*
X61595000Y-112395000D03*
X61595000Y-114935000D03*
X61595000Y-117475000D03*
X61595000Y-120015000D03*
D12*
X69215000Y-84455000D03*
D13*
X71755000Y-84455000D03*
X74295000Y-84455000D03*
X76835000Y-84455000D03*
X79375000Y-84455000D03*
X81915000Y-84455000D03*
X84455000Y-84455000D03*
X86995000Y-84455000D03*
X89535000Y-84455000D03*
X92075000Y-84455000D03*
X94615000Y-84455000D03*
X97155000Y-84455000D03*
D12*
X97155000Y-127635000D03*
D13*
X94615000Y-127635000D03*
X92075000Y-127635000D03*
X89535000Y-127635000D03*
X86995000Y-127635000D03*
X84455000Y-127635000D03*
X81915000Y-127635000D03*
X79375000Y-127635000D03*
X76835000Y-127635000D03*
X74295000Y-127635000D03*
X71755000Y-127635000D03*
X69215000Y-127635000D03*
D12*
X97155000Y-102235000D03*
D13*
X97155000Y-104775000D03*
X97155000Y-107315000D03*
X97155000Y-109855000D03*
X97155000Y-112395000D03*
X97155000Y-114935000D03*
X97155000Y-117475000D03*
X97155000Y-120015000D03*
D12*
X81915000Y-102235000D03*
D13*
X81915000Y-104775000D03*
X81915000Y-107315000D03*
X81915000Y-109855000D03*
X81915000Y-112395000D03*
X81915000Y-114935000D03*
X81915000Y-117475000D03*
X81915000Y-120015000D03*
D12*
X79375000Y-102235000D03*
D13*
X79375000Y-104775000D03*
X79375000Y-107315000D03*
X79375000Y-109855000D03*
X79375000Y-112395000D03*
X79375000Y-114935000D03*
X79375000Y-117475000D03*
X79375000Y-120015000D03*
D12*
X89535000Y-102235000D03*
D13*
X89535000Y-104775000D03*
X89535000Y-107315000D03*
X89535000Y-109855000D03*
X89535000Y-112395000D03*
X89535000Y-114935000D03*
X89535000Y-117475000D03*
X89535000Y-120015000D03*
D12*
X86995000Y-102235000D03*
D13*
X86995000Y-104775000D03*
X86995000Y-107315000D03*
X86995000Y-109855000D03*
X86995000Y-112395000D03*
X86995000Y-114935000D03*
X86995000Y-117475000D03*
X86995000Y-120015000D03*
D12*
X71755000Y-102235000D03*
D13*
X71755000Y-104775000D03*
X71755000Y-107315000D03*
X71755000Y-109855000D03*
X71755000Y-112395000D03*
X71755000Y-114935000D03*
X71755000Y-117475000D03*
X71755000Y-120015000D03*
D12*
X76835000Y-102235000D03*
D13*
X76835000Y-104775000D03*
X76835000Y-107315000D03*
X76835000Y-109855000D03*
X76835000Y-112395000D03*
X76835000Y-114935000D03*
X76835000Y-117475000D03*
X76835000Y-120015000D03*
D12*
X99695000Y-102235000D03*
D13*
X99695000Y-104775000D03*
X99695000Y-107315000D03*
X99695000Y-109855000D03*
X99695000Y-112395000D03*
X99695000Y-114935000D03*
X99695000Y-117475000D03*
X99695000Y-120015000D03*
D14*
X102235000Y-102240000D03*
X102235000Y-100960000D03*
X106045000Y-104780000D03*
X106045000Y-103500000D03*
X106045000Y-109860000D03*
X106045000Y-108580000D03*
X102235000Y-112400000D03*
X102235000Y-111120000D03*
X106045000Y-114940000D03*
X106045000Y-113660000D03*
X102235000Y-117480000D03*
X102235000Y-116200000D03*
X106045000Y-120020000D03*
X106045000Y-118740000D03*
D12*
X84455000Y-102235000D03*
D13*
X84455000Y-104775000D03*
X84455000Y-107315000D03*
X84455000Y-109855000D03*
X84455000Y-112395000D03*
X84455000Y-114935000D03*
X84455000Y-117475000D03*
X84455000Y-120015000D03*
D12*
X74295000Y-102235000D03*
D13*
X74295000Y-104775000D03*
X74295000Y-107315000D03*
X74295000Y-109855000D03*
X74295000Y-112395000D03*
X74295000Y-114935000D03*
X74295000Y-117475000D03*
X74295000Y-120015000D03*
D12*
X66675000Y-94615000D03*
D13*
X69215000Y-94615000D03*
X71755000Y-94615000D03*
X74295000Y-94615000D03*
X76835000Y-94615000D03*
X79375000Y-94615000D03*
X81915000Y-94615000D03*
X84455000Y-94615000D03*
X86995000Y-94615000D03*
X89535000Y-94615000D03*
X92075000Y-94615000D03*
X94615000Y-94615000D03*
X97155000Y-94615000D03*
X99695000Y-94615000D03*
D12*
X66675000Y-92075000D03*
D13*
X69215000Y-92075000D03*
X71755000Y-92075000D03*
X74295000Y-92075000D03*
X76835000Y-92075000D03*
X79375000Y-92075000D03*
X81915000Y-92075000D03*
X84455000Y-92075000D03*
X86995000Y-92075000D03*
X89535000Y-92075000D03*
X92075000Y-92075000D03*
X94615000Y-92075000D03*
X97155000Y-92075000D03*
X99695000Y-92075000D03*
D12*
X92075000Y-102235000D03*
D13*
X92075000Y-104775000D03*
X92075000Y-107315000D03*
X92075000Y-109855000D03*
X92075000Y-112395000D03*
X92075000Y-114935000D03*
X92075000Y-117475000D03*
X92075000Y-120015000D03*
D12*
X94615000Y-102235000D03*
D13*
X94615000Y-104775000D03*
X94615000Y-107315000D03*
X94615000Y-109855000D03*
X94615000Y-112395000D03*
X94615000Y-114935000D03*
X94615000Y-117475000D03*
X94615000Y-120015000D03*
D12*
X69215000Y-102235000D03*
D13*
X69215000Y-104775000D03*
X69215000Y-107315000D03*
X69215000Y-109855000D03*
X69215000Y-112395000D03*
X69215000Y-114935000D03*
X69215000Y-117475000D03*
X69215000Y-120015000D03*
D12*
X69215000Y-125095000D03*
D13*
X71755000Y-125095000D03*
X74295000Y-125095000D03*
X76835000Y-125095000D03*
X79375000Y-125095000D03*
X81915000Y-125095000D03*
X84455000Y-125095000D03*
X86995000Y-125095000D03*
D12*
X79375000Y-86995000D03*
D13*
X81915000Y-86995000D03*
X84455000Y-86995000D03*
X86995000Y-86995000D03*
X89535000Y-86995000D03*
X92075000Y-86995000D03*
X94615000Y-86995000D03*
X97155000Y-86995000D03*
D12*
X66675000Y-122555000D03*
D13*
X69215000Y-122555000D03*
X71755000Y-122555000D03*
X74295000Y-122555000D03*
X76835000Y-122555000D03*
X79375000Y-122555000D03*
X81915000Y-122555000D03*
X84455000Y-122555000D03*
X86995000Y-122555000D03*
X89535000Y-122555000D03*
X92075000Y-122555000D03*
X94615000Y-122555000D03*
X97155000Y-122555000D03*
X99695000Y-122555000D03*
D12*
X119380000Y-85090000D03*
D13*
X121920000Y-85090000D03*
X124460000Y-85090000D03*
X127000000Y-85090000D03*
X129540000Y-85090000D03*
X132080000Y-85090000D03*
X134620000Y-85090000D03*
X137160000Y-85090000D03*
X139700000Y-85090000D03*
X142240000Y-85090000D03*
X144780000Y-85090000D03*
X147320000Y-85090000D03*
D12*
X154305000Y-92075000D03*
D13*
X154305000Y-94615000D03*
X154305000Y-97155000D03*
X154305000Y-99695000D03*
X154305000Y-102235000D03*
X154305000Y-104775000D03*
X154305000Y-107315000D03*
X154305000Y-109855000D03*
X154305000Y-112395000D03*
X154305000Y-114935000D03*
X154305000Y-117475000D03*
X154305000Y-120015000D03*
D12*
X147320000Y-127000000D03*
D13*
X144780000Y-127000000D03*
X142240000Y-127000000D03*
X139700000Y-127000000D03*
X137160000Y-127000000D03*
X134620000Y-127000000D03*
X132080000Y-127000000D03*
X129540000Y-127000000D03*
X127000000Y-127000000D03*
X124460000Y-127000000D03*
X121920000Y-127000000D03*
X119380000Y-127000000D03*
D11*
X146050000Y-116205000D03*
X143510000Y-116205000D03*
X140970000Y-116205000D03*
X138430000Y-116205000D03*
X135890000Y-116205000D03*
X133350000Y-116205000D03*
X130810000Y-116205000D03*
X128270000Y-116205000D03*
X125730000Y-116205000D03*
X123190000Y-116205000D03*
X120650000Y-116205000D03*
X118110000Y-116205000D03*
X115570000Y-116205000D03*
X113030000Y-116205000D03*
X110490000Y-116205000D03*
X110490000Y-100965000D03*
X113030000Y-100965000D03*
X115570000Y-100965000D03*
X118110000Y-100965000D03*
X120650000Y-100965000D03*
X123190000Y-100965000D03*
X125730000Y-100965000D03*
X128270000Y-100965000D03*
X130810000Y-100965000D03*
X133350000Y-100965000D03*
X135890000Y-100965000D03*
X138430000Y-100965000D03*
X140970000Y-100965000D03*
X143510000Y-100965000D03*
D15*
X146050000Y-100965000D03*
D12*
X146050000Y-97155000D03*
D13*
X143510000Y-97155000D03*
X140970000Y-97155000D03*
X138430000Y-97155000D03*
X135890000Y-97155000D03*
X133350000Y-97155000D03*
X130810000Y-97155000D03*
X128270000Y-97155000D03*
X125730000Y-97155000D03*
X123190000Y-97155000D03*
X120650000Y-97155000D03*
X118110000Y-97155000D03*
X115570000Y-97155000D03*
X113030000Y-97155000D03*
X110490000Y-97155000D03*
D12*
X146050000Y-120015000D03*
D13*
X143510000Y-120015000D03*
X140970000Y-120015000D03*
X138430000Y-120015000D03*
X135890000Y-120015000D03*
X133350000Y-120015000D03*
X130810000Y-120015000D03*
X128270000Y-120015000D03*
X125730000Y-120015000D03*
X123190000Y-120015000D03*
X120650000Y-120015000D03*
X118110000Y-120015000D03*
X115570000Y-120015000D03*
X113030000Y-120015000D03*
X110490000Y-120015000D03*
D16*
X99060000Y-65405000D03*
X135890000Y-93980000D03*
X100965000Y-69215000D03*
X133350000Y-93980000D03*
X100965000Y-73025000D03*
X100965000Y-74930000D03*
X132080000Y-113665000D03*
X128270000Y-113665000D03*
X118110000Y-111760000D03*
X97155000Y-66675000D03*
X95885000Y-67945000D03*
X107315000Y-70485000D03*
X104775000Y-70485000D03*
X93345000Y-70485000D03*
X78105000Y-60960000D03*
X80010000Y-71755000D03*
X83820000Y-41275000D03*
X88265000Y-45085000D03*
X90805000Y-45085000D03*
X93345000Y-45085000D03*
X87630000Y-71755000D03*
X85090000Y-70485000D03*
D17*
X97155000Y-48260000D02*
X97155000Y-59690000D01*
X98425000Y-64770000D02*
X99060000Y-65405000D01*
X98425000Y-60960000D02*
X98425000Y-64770000D01*
X97155000Y-59690000D02*
X98425000Y-60960000D01*
X134620000Y-99060000D02*
X134620000Y-95250000D01*
X134620000Y-95250000D02*
X135890000Y-93980000D01*
X134620000Y-112395000D02*
X134620000Y-99060000D01*
X130810000Y-116205000D02*
X134620000Y-112395000D01*
X142240000Y-84455000D02*
X142240000Y-85090000D01*
X99695000Y-49530000D02*
X99695000Y-48260000D01*
X100965000Y-50800000D02*
X99695000Y-49530000D01*
X100965000Y-69215000D02*
X100965000Y-50800000D01*
X132080000Y-98425000D02*
X132080000Y-95250000D01*
X132080000Y-95250000D02*
X133350000Y-93980000D01*
X132080000Y-112395000D02*
X132080000Y-98425000D01*
X128270000Y-116205000D02*
X132080000Y-112395000D01*
X139700000Y-84455000D02*
X139700000Y-85090000D01*
X103505000Y-70485000D02*
X100965000Y-73025000D01*
X102235000Y-48260000D02*
X102235000Y-49530000D01*
X103505000Y-50800000D02*
X103505000Y-70485000D01*
X102235000Y-49530000D02*
X103505000Y-50800000D01*
X106045000Y-70485000D02*
X106045000Y-71120000D01*
X106045000Y-71120000D02*
X102235000Y-74930000D01*
X102235000Y-74930000D02*
X100965000Y-74930000D01*
X104775000Y-48260000D02*
X104775000Y-49530000D01*
X106045000Y-50800000D02*
X106045000Y-70485000D01*
X104775000Y-49530000D02*
X106045000Y-50800000D01*
D18*
X66675000Y-92075000D02*
X65405000Y-92075000D01*
X71755000Y-85725000D02*
X71755000Y-84455000D01*
X70485000Y-86995000D02*
X71755000Y-85725000D01*
X66040000Y-86995000D02*
X70485000Y-86995000D01*
X64770000Y-88265000D02*
X66040000Y-86995000D01*
X64770000Y-91440000D02*
X64770000Y-88265000D01*
X65405000Y-92075000D02*
X64770000Y-91440000D01*
X156210000Y-121920000D02*
X151765000Y-121920000D01*
X156845000Y-121285000D02*
X156210000Y-121920000D01*
X156845000Y-95885000D02*
X156845000Y-121285000D01*
X155575000Y-94615000D02*
X156845000Y-95885000D01*
X154940000Y-94615000D02*
X155575000Y-94615000D01*
X151765000Y-121920000D02*
X147955000Y-118110000D01*
X147955000Y-118110000D02*
X140335000Y-118110000D01*
X140335000Y-118110000D02*
X138430000Y-116205000D01*
X153670000Y-94615000D02*
X150495000Y-91440000D01*
X121920000Y-84455000D02*
X121920000Y-83820000D01*
X121920000Y-83820000D02*
X123190000Y-82550000D01*
X150495000Y-83820000D02*
X150495000Y-91440000D01*
X149225000Y-82550000D02*
X150495000Y-83820000D01*
X123190000Y-82550000D02*
X149225000Y-82550000D01*
X153670000Y-94615000D02*
X154940000Y-94615000D01*
X107950000Y-33020000D02*
X113665000Y-33020000D01*
X113665000Y-33020000D02*
X117475000Y-33020000D01*
X97790000Y-76835000D02*
X97790000Y-77470000D01*
X97790000Y-77470000D02*
X99060000Y-78740000D01*
X99060000Y-78740000D02*
X145415000Y-78740000D01*
X145415000Y-78740000D02*
X147320000Y-76835000D01*
X149860000Y-73660000D02*
X150177500Y-73342500D01*
X150177500Y-73342500D02*
X150495000Y-73025000D01*
X150495000Y-73025000D02*
X154305000Y-73025000D01*
X147320000Y-76835000D02*
X147320000Y-76200000D01*
X147320000Y-76200000D02*
X148590000Y-74930000D01*
X154305000Y-41910000D02*
X154940000Y-41910000D01*
X154940000Y-41910000D02*
X156210000Y-43180000D01*
X156210000Y-43180000D02*
X156210000Y-71120000D01*
X156210000Y-71120000D02*
X154305000Y-73025000D01*
X149860000Y-73660000D02*
X148590000Y-74930000D01*
X119380000Y-34925000D02*
X119380000Y-34290000D01*
X119380000Y-34290000D02*
X120650000Y-33020000D01*
X150495000Y-38100000D02*
X154305000Y-41910000D01*
X150495000Y-34925000D02*
X150495000Y-38100000D01*
X148590000Y-33020000D02*
X150495000Y-34925000D01*
X120650000Y-33020000D02*
X148590000Y-33020000D01*
X69850000Y-34925000D02*
X69850000Y-34290000D01*
X69850000Y-34290000D02*
X71120000Y-33020000D01*
X117475000Y-33020000D02*
X119380000Y-34925000D01*
X71120000Y-33020000D02*
X107950000Y-33020000D01*
X61595000Y-92075000D02*
X60325000Y-92075000D01*
X66675000Y-127000000D02*
X66675000Y-125730000D01*
X66675000Y-125730000D02*
X63500000Y-122555000D01*
X63500000Y-122555000D02*
X61595000Y-122555000D01*
X60960000Y-122555000D02*
X60325000Y-121920000D01*
X61595000Y-122555000D02*
X60960000Y-122555000D01*
X66675000Y-128270000D02*
X67945000Y-129540000D01*
X67945000Y-129540000D02*
X92710000Y-129540000D01*
X92710000Y-129540000D02*
X95250000Y-129540000D01*
X95250000Y-129540000D02*
X97155000Y-127635000D01*
X66675000Y-127000000D02*
X66675000Y-128270000D01*
X59690000Y-121285000D02*
X59690000Y-92710000D01*
X59690000Y-92710000D02*
X60325000Y-92075000D01*
X60325000Y-121920000D02*
X59690000Y-121285000D01*
D17*
X94615000Y-49530000D02*
X94615000Y-48260000D01*
X94615000Y-49530000D02*
X94615000Y-48260000D01*
X95885000Y-50800000D02*
X94615000Y-49530000D01*
X95885000Y-55245000D02*
X95885000Y-65405000D01*
X95885000Y-55245000D02*
X95885000Y-50800000D01*
X95885000Y-65405000D02*
X97155000Y-66675000D01*
X92075000Y-54610000D02*
X93345000Y-55880000D01*
X93345000Y-55880000D02*
X93345000Y-65405000D01*
X93345000Y-65405000D02*
X95885000Y-67945000D01*
X92075000Y-49530000D02*
X92075000Y-54610000D01*
X92075000Y-49530000D02*
X92075000Y-48260000D01*
X107315000Y-65405000D02*
X107315000Y-70485000D01*
X107315000Y-65405000D02*
X107315000Y-63500000D01*
X104775000Y-65405000D02*
X104775000Y-70485000D01*
X104775000Y-65405000D02*
X104775000Y-63500000D01*
X86995000Y-63500000D02*
X86995000Y-64135000D01*
X86995000Y-64135000D02*
X93345000Y-70485000D01*
X109855000Y-63500000D02*
X108585000Y-62230000D01*
X108585000Y-62230000D02*
X108585000Y-46355000D01*
X108585000Y-46355000D02*
X101600000Y-39370000D01*
X101600000Y-39370000D02*
X99695000Y-39370000D01*
X99695000Y-39370000D02*
X95250000Y-34925000D01*
X112395000Y-63500000D02*
X111125000Y-62230000D01*
X111125000Y-62230000D02*
X111125000Y-46355000D01*
X111125000Y-46355000D02*
X99695000Y-34925000D01*
X99695000Y-34925000D02*
X97790000Y-34925000D01*
X74930000Y-76835000D02*
X74930000Y-71755000D01*
X84455000Y-51435000D02*
X84455000Y-48260000D01*
X75565000Y-60325000D02*
X84455000Y-51435000D01*
X75565000Y-71120000D02*
X75565000Y-60325000D01*
X74930000Y-71755000D02*
X75565000Y-71120000D01*
X77470000Y-75565000D02*
X78105000Y-74930000D01*
X78105000Y-74930000D02*
X78105000Y-60960000D01*
X77470000Y-76835000D02*
X77470000Y-75565000D01*
X80010000Y-76835000D02*
X80010000Y-71755000D01*
X92710000Y-34925000D02*
X92710000Y-36830000D01*
X88265000Y-41275000D02*
X83820000Y-41275000D01*
X92710000Y-36830000D02*
X88265000Y-41275000D01*
X89535000Y-62230000D02*
X89535000Y-55880000D01*
X89535000Y-63500000D02*
X89535000Y-62230000D01*
X89535000Y-55880000D02*
X88265000Y-54610000D01*
X88265000Y-54610000D02*
X88265000Y-45085000D01*
X92075000Y-63500000D02*
X92075000Y-56515000D01*
X92075000Y-56515000D02*
X90805000Y-55245000D01*
X90805000Y-55245000D02*
X90805000Y-45085000D01*
X92075000Y-62865000D02*
X92075000Y-63500000D01*
X94615000Y-61595000D02*
X94615000Y-52705000D01*
X94615000Y-52705000D02*
X93345000Y-51435000D01*
X93345000Y-51435000D02*
X93345000Y-45085000D01*
X94615000Y-61595000D02*
X94615000Y-63500000D01*
X117475000Y-48260000D02*
X117475000Y-47625000D01*
X87630000Y-71755000D02*
X87630000Y-76835000D01*
X85090000Y-70485000D02*
X85090000Y-76835000D01*
X85090000Y-76200000D02*
X85090000Y-76835000D01*
X79375000Y-63500000D02*
X79375000Y-64770000D01*
X82550000Y-67945000D02*
X82550000Y-76835000D01*
X79375000Y-64770000D02*
X82550000Y-67945000D01*
X102235000Y-100960000D02*
X67950000Y-100960000D01*
X67950000Y-100960000D02*
X65410000Y-100960000D01*
X65410000Y-100960000D02*
X64135000Y-102235000D01*
X106045000Y-103500000D02*
X67950000Y-103500000D01*
X67950000Y-103500000D02*
X65410000Y-103500000D01*
X65410000Y-103500000D02*
X64135000Y-104775000D01*
X67945000Y-106040000D02*
X65410000Y-106040000D01*
X65410000Y-106040000D02*
X64135000Y-107315000D01*
X102235000Y-106040000D02*
X67945000Y-106040000D01*
X67950000Y-108580000D02*
X65410000Y-108580000D01*
X65405000Y-108585000D02*
X64135000Y-109855000D01*
X65410000Y-108580000D02*
X65405000Y-108585000D01*
X106045000Y-108580000D02*
X67950000Y-108580000D01*
X67950000Y-111120000D02*
X65410000Y-111120000D01*
X65410000Y-111120000D02*
X64135000Y-112395000D01*
X102235000Y-111120000D02*
X67950000Y-111120000D01*
X67945000Y-113660000D02*
X65410000Y-113660000D01*
X65410000Y-113660000D02*
X64135000Y-114935000D01*
X106045000Y-113660000D02*
X67945000Y-113660000D01*
X67950000Y-116200000D02*
X65410000Y-116200000D01*
X65410000Y-116200000D02*
X64135000Y-117475000D01*
X102235000Y-116200000D02*
X67950000Y-116200000D01*
X65410000Y-118740000D02*
X64135000Y-120015000D01*
X67945000Y-118740000D02*
X65410000Y-118740000D01*
X106045000Y-118740000D02*
X67945000Y-118740000D01*
X102235000Y-102240000D02*
X99700000Y-102240000D01*
X102240000Y-102235000D02*
X102235000Y-102240000D01*
X104140000Y-102235000D02*
X102240000Y-102235000D01*
X99700000Y-102240000D02*
X99695000Y-102235000D01*
X106040000Y-104775000D02*
X106045000Y-104780000D01*
X106040000Y-104775000D02*
X106045000Y-104780000D01*
X99695000Y-104775000D02*
X104140000Y-104775000D01*
X104140000Y-104775000D02*
X106040000Y-104775000D01*
X102235000Y-107320000D02*
X99700000Y-107320000D01*
X102240000Y-107315000D02*
X102235000Y-107320000D01*
X104140000Y-107315000D02*
X102240000Y-107315000D01*
X99700000Y-107320000D02*
X99695000Y-107315000D01*
X104140000Y-109855000D02*
X99695000Y-109855000D01*
X106045000Y-109860000D02*
X104145000Y-109860000D01*
X104145000Y-109860000D02*
X104140000Y-109855000D01*
X104775000Y-109855000D02*
X104140000Y-109855000D01*
X102235000Y-112400000D02*
X104135000Y-112400000D01*
X102230000Y-112395000D02*
X102235000Y-112400000D01*
X99695000Y-112395000D02*
X102230000Y-112395000D01*
X104135000Y-112400000D02*
X104140000Y-112395000D01*
X104140000Y-114935000D02*
X99695000Y-114935000D01*
X106045000Y-114940000D02*
X104145000Y-114940000D01*
X104145000Y-114940000D02*
X104140000Y-114935000D01*
X102235000Y-117480000D02*
X104135000Y-117480000D01*
X102230000Y-117475000D02*
X102235000Y-117480000D01*
X99695000Y-117475000D02*
X102230000Y-117475000D01*
X104135000Y-117480000D02*
X104140000Y-117475000D01*
X104140000Y-120015000D02*
X99695000Y-120015000D01*
X106045000Y-120020000D02*
X104145000Y-120020000D01*
X104145000Y-120020000D02*
X104140000Y-120015000D01*
X129540000Y-95885000D02*
X129540000Y-91440000D01*
X129540000Y-98425000D02*
X129540000Y-95885000D01*
X129540000Y-84455000D02*
X129540000Y-91440000D01*
X129540000Y-98425000D02*
X129540000Y-102235000D01*
X113030000Y-113665000D02*
X110490000Y-116205000D01*
X118110000Y-113665000D02*
X113030000Y-113665000D01*
X129540000Y-102235000D02*
X118110000Y-113665000D01*
X143510000Y-97155000D02*
X147320000Y-93345000D01*
X147320000Y-93345000D02*
X147320000Y-85090000D01*
D19*
G36*
X69460860Y-33427560D02*
X69000000Y-33427560D01*
X68764683Y-33471838D01*
X68548559Y-33610910D01*
X68403569Y-33823110D01*
X68352560Y-34075000D01*
X68352560Y-35775000D01*
X68396838Y-36010317D01*
X68535910Y-36226441D01*
X68748110Y-36371431D01*
X69000000Y-36422440D01*
X70700000Y-36422440D01*
X70935317Y-36378162D01*
X71151441Y-36239090D01*
X71296431Y-36026890D01*
X71310086Y-35959459D01*
X71339946Y-36004147D01*
X71821715Y-36326054D01*
X72390000Y-36439093D01*
X72958285Y-36326054D01*
X73440054Y-36004147D01*
X73667702Y-35663447D01*
X73734817Y-35806358D01*
X74163076Y-36196645D01*
X74573110Y-36366476D01*
X74803000Y-36245155D01*
X74803000Y-35052000D01*
X74783000Y-35052000D01*
X74783000Y-34798000D01*
X74803000Y-34798000D01*
X74803000Y-34778000D01*
X75057000Y-34778000D01*
X75057000Y-34798000D01*
X75077000Y-34798000D01*
X75077000Y-35052000D01*
X75057000Y-35052000D01*
X75057000Y-36245155D01*
X75286890Y-36366476D01*
X75696924Y-36196645D01*
X76125183Y-35806358D01*
X76192298Y-35663447D01*
X76419946Y-36004147D01*
X76901715Y-36326054D01*
X77470000Y-36439093D01*
X78038285Y-36326054D01*
X78520054Y-36004147D01*
X78740000Y-35674974D01*
X78959946Y-36004147D01*
X79441715Y-36326054D01*
X80010000Y-36439093D01*
X80578285Y-36326054D01*
X81060054Y-36004147D01*
X81280000Y-35674974D01*
X81499946Y-36004147D01*
X81981715Y-36326054D01*
X82550000Y-36439093D01*
X83118285Y-36326054D01*
X83600054Y-36004147D01*
X83820000Y-35674974D01*
X84039946Y-36004147D01*
X84521715Y-36326054D01*
X85090000Y-36439093D01*
X85658285Y-36326054D01*
X86140054Y-36004147D01*
X86360000Y-35674974D01*
X86579946Y-36004147D01*
X87061715Y-36326054D01*
X87630000Y-36439093D01*
X88198285Y-36326054D01*
X88680054Y-36004147D01*
X88900000Y-35674974D01*
X89119946Y-36004147D01*
X89601715Y-36326054D01*
X90170000Y-36439093D01*
X90738285Y-36326054D01*
X91220054Y-36004147D01*
X91440000Y-35674974D01*
X91659946Y-36004147D01*
X91950000Y-36197954D01*
X91950000Y-36515198D01*
X87950198Y-40515000D01*
X84382463Y-40515000D01*
X84350327Y-40482808D01*
X84006799Y-40340162D01*
X83634833Y-40339838D01*
X83291057Y-40481883D01*
X83027808Y-40744673D01*
X82885162Y-41088201D01*
X82884838Y-41460167D01*
X83026883Y-41803943D01*
X83289673Y-42067192D01*
X83633201Y-42209838D01*
X84005167Y-42210162D01*
X84348943Y-42068117D01*
X84382118Y-42035000D01*
X88265000Y-42035000D01*
X88555839Y-41977148D01*
X88802401Y-41812401D01*
X93247401Y-37367401D01*
X93412148Y-37120840D01*
X93470000Y-36830000D01*
X93470000Y-36197954D01*
X93760054Y-36004147D01*
X93980000Y-35674974D01*
X94199946Y-36004147D01*
X94681715Y-36326054D01*
X95250000Y-36439093D01*
X95616408Y-36366210D01*
X99157599Y-39907401D01*
X99404160Y-40072148D01*
X99695000Y-40130000D01*
X101285198Y-40130000D01*
X107825000Y-46669802D01*
X107825000Y-46849111D01*
X107614398Y-46761661D01*
X107018218Y-46761141D01*
X106467220Y-46988808D01*
X106045290Y-47410003D01*
X106044905Y-47410931D01*
X105624997Y-46990290D01*
X105074398Y-46761661D01*
X104478218Y-46761141D01*
X103927220Y-46988808D01*
X103505290Y-47410003D01*
X103504905Y-47410931D01*
X103084997Y-46990290D01*
X102534398Y-46761661D01*
X101938218Y-46761141D01*
X101387220Y-46988808D01*
X100965290Y-47410003D01*
X100964905Y-47410931D01*
X100544997Y-46990290D01*
X99994398Y-46761661D01*
X99398218Y-46761141D01*
X98847220Y-46988808D01*
X98425290Y-47410003D01*
X98424905Y-47410931D01*
X98004997Y-46990290D01*
X97454398Y-46761661D01*
X96858218Y-46761141D01*
X96307220Y-46988808D01*
X95885290Y-47410003D01*
X95884905Y-47410931D01*
X95464997Y-46990290D01*
X94914398Y-46761661D01*
X94318218Y-46761141D01*
X94105000Y-46849241D01*
X94105000Y-45647463D01*
X94137192Y-45615327D01*
X94279838Y-45271799D01*
X94280162Y-44899833D01*
X94138117Y-44556057D01*
X93875327Y-44292808D01*
X93531799Y-44150162D01*
X93159833Y-44149838D01*
X92816057Y-44291883D01*
X92552808Y-44554673D01*
X92410162Y-44898201D01*
X92409838Y-45270167D01*
X92551883Y-45613943D01*
X92585000Y-45647118D01*
X92585000Y-46849111D01*
X92374398Y-46761661D01*
X91778218Y-46761141D01*
X91565000Y-46849241D01*
X91565000Y-45647463D01*
X91597192Y-45615327D01*
X91739838Y-45271799D01*
X91740162Y-44899833D01*
X91598117Y-44556057D01*
X91335327Y-44292808D01*
X90991799Y-44150162D01*
X90619833Y-44149838D01*
X90276057Y-44291883D01*
X90012808Y-44554673D01*
X89870162Y-44898201D01*
X89869838Y-45270167D01*
X90011883Y-45613943D01*
X90045000Y-45647118D01*
X90045000Y-46849111D01*
X89834398Y-46761661D01*
X89238218Y-46761141D01*
X89025000Y-46849241D01*
X89025000Y-45647463D01*
X89057192Y-45615327D01*
X89199838Y-45271799D01*
X89200162Y-44899833D01*
X89058117Y-44556057D01*
X88795327Y-44292808D01*
X88451799Y-44150162D01*
X88079833Y-44149838D01*
X87736057Y-44291883D01*
X87472808Y-44554673D01*
X87330162Y-44898201D01*
X87329838Y-45270167D01*
X87471883Y-45613943D01*
X87505000Y-45647118D01*
X87505000Y-46849111D01*
X87294398Y-46761661D01*
X86698218Y-46761141D01*
X86147220Y-46988808D01*
X85725290Y-47410003D01*
X85724905Y-47410931D01*
X85304997Y-46990290D01*
X84754398Y-46761661D01*
X84158218Y-46761141D01*
X83607220Y-46988808D01*
X83185290Y-47410003D01*
X83184905Y-47410931D01*
X82764997Y-46990290D01*
X82214398Y-46761661D01*
X81618218Y-46761141D01*
X81067220Y-46988808D01*
X80645290Y-47410003D01*
X80644905Y-47410931D01*
X80224997Y-46990290D01*
X79674398Y-46761661D01*
X79078218Y-46761141D01*
X78527220Y-46988808D01*
X78105290Y-47410003D01*
X78104905Y-47410931D01*
X77684997Y-46990290D01*
X77134398Y-46761661D01*
X76538218Y-46761141D01*
X75987220Y-46988808D01*
X75565290Y-47410003D01*
X75548459Y-47450537D01*
X75348805Y-47385800D01*
X74474605Y-48260000D01*
X75348805Y-49134200D01*
X75548033Y-49069601D01*
X75563808Y-49107780D01*
X75985003Y-49529710D01*
X76535602Y-49758339D01*
X77131782Y-49758859D01*
X77682780Y-49531192D01*
X78104710Y-49109997D01*
X78105095Y-49109069D01*
X78525003Y-49529710D01*
X79075602Y-49758339D01*
X79671782Y-49758859D01*
X80222780Y-49531192D01*
X80644710Y-49109997D01*
X80645095Y-49109069D01*
X81065003Y-49529710D01*
X81615602Y-49758339D01*
X82211782Y-49758859D01*
X82762780Y-49531192D01*
X83184710Y-49109997D01*
X83185095Y-49109069D01*
X83605003Y-49529710D01*
X83695000Y-49567080D01*
X83695000Y-51120198D01*
X75027599Y-59787599D01*
X74862852Y-60034161D01*
X74805000Y-60325000D01*
X74805000Y-62089111D01*
X74594398Y-62001661D01*
X73998218Y-62001141D01*
X73447220Y-62228808D01*
X73025290Y-62650003D01*
X73024905Y-62650931D01*
X72604997Y-62230290D01*
X72054398Y-62001661D01*
X71458218Y-62001141D01*
X70907220Y-62228808D01*
X70485290Y-62650003D01*
X70256661Y-63200602D01*
X70256141Y-63796782D01*
X70483808Y-64347780D01*
X70905003Y-64769710D01*
X71455602Y-64998339D01*
X72051782Y-64998859D01*
X72602780Y-64771192D01*
X73024710Y-64349997D01*
X73025095Y-64349069D01*
X73445003Y-64769710D01*
X73995602Y-64998339D01*
X74591782Y-64998859D01*
X74805000Y-64910759D01*
X74805000Y-70805198D01*
X74392599Y-71217599D01*
X74227852Y-71464161D01*
X74170000Y-71755000D01*
X74170000Y-75562046D01*
X73879946Y-75755853D01*
X73660000Y-76085026D01*
X73440054Y-75755853D01*
X72958285Y-75433946D01*
X72390000Y-75320907D01*
X71821715Y-75433946D01*
X71339946Y-75755853D01*
X71120000Y-76085026D01*
X70900054Y-75755853D01*
X70418285Y-75433946D01*
X69850000Y-75320907D01*
X69281715Y-75433946D01*
X68799946Y-75755853D01*
X68478039Y-76237622D01*
X68365000Y-76805907D01*
X68365000Y-76864093D01*
X68478039Y-77432378D01*
X68799946Y-77914147D01*
X69281715Y-78236054D01*
X69850000Y-78349093D01*
X70418285Y-78236054D01*
X70900054Y-77914147D01*
X71120000Y-77584974D01*
X71339946Y-77914147D01*
X71821715Y-78236054D01*
X72390000Y-78349093D01*
X72958285Y-78236054D01*
X73440054Y-77914147D01*
X73660000Y-77584974D01*
X73879946Y-77914147D01*
X74361715Y-78236054D01*
X74930000Y-78349093D01*
X75498285Y-78236054D01*
X75980054Y-77914147D01*
X76200000Y-77584974D01*
X76419946Y-77914147D01*
X76901715Y-78236054D01*
X77470000Y-78349093D01*
X78038285Y-78236054D01*
X78520054Y-77914147D01*
X78740000Y-77584974D01*
X78959946Y-77914147D01*
X79441715Y-78236054D01*
X80010000Y-78349093D01*
X80578285Y-78236054D01*
X81060054Y-77914147D01*
X81280000Y-77584974D01*
X81499946Y-77914147D01*
X81981715Y-78236054D01*
X82550000Y-78349093D01*
X83118285Y-78236054D01*
X83600054Y-77914147D01*
X83820000Y-77584974D01*
X84039946Y-77914147D01*
X84521715Y-78236054D01*
X85090000Y-78349093D01*
X85658285Y-78236054D01*
X86140054Y-77914147D01*
X86360000Y-77584974D01*
X86579946Y-77914147D01*
X87061715Y-78236054D01*
X87630000Y-78349093D01*
X88198285Y-78236054D01*
X88680054Y-77914147D01*
X88900000Y-77584974D01*
X89119946Y-77914147D01*
X89601715Y-78236054D01*
X90170000Y-78349093D01*
X90738285Y-78236054D01*
X91220054Y-77914147D01*
X91447702Y-77573447D01*
X91514817Y-77716358D01*
X91943076Y-78106645D01*
X92353110Y-78276476D01*
X92583000Y-78155155D01*
X92583000Y-76962000D01*
X92563000Y-76962000D01*
X92563000Y-76708000D01*
X92583000Y-76708000D01*
X92583000Y-75514845D01*
X92353110Y-75393524D01*
X91943076Y-75563355D01*
X91514817Y-75953642D01*
X91447702Y-76096553D01*
X91220054Y-75755853D01*
X90738285Y-75433946D01*
X90170000Y-75320907D01*
X89601715Y-75433946D01*
X89119946Y-75755853D01*
X88900000Y-76085026D01*
X88680054Y-75755853D01*
X88390000Y-75562046D01*
X88390000Y-72317463D01*
X88422192Y-72285327D01*
X88564838Y-71941799D01*
X88565162Y-71569833D01*
X88423117Y-71226057D01*
X88160327Y-70962808D01*
X87816799Y-70820162D01*
X87444833Y-70819838D01*
X87101057Y-70961883D01*
X86837808Y-71224673D01*
X86695162Y-71568201D01*
X86694838Y-71940167D01*
X86836883Y-72283943D01*
X86870000Y-72317118D01*
X86870000Y-75562046D01*
X86579946Y-75755853D01*
X86360000Y-76085026D01*
X86140054Y-75755853D01*
X85850000Y-75562046D01*
X85850000Y-71047463D01*
X85882192Y-71015327D01*
X86024838Y-70671799D01*
X86025162Y-70299833D01*
X85883117Y-69956057D01*
X85620327Y-69692808D01*
X85276799Y-69550162D01*
X84904833Y-69549838D01*
X84561057Y-69691883D01*
X84297808Y-69954673D01*
X84155162Y-70298201D01*
X84154838Y-70670167D01*
X84296883Y-71013943D01*
X84330000Y-71047118D01*
X84330000Y-75562046D01*
X84039946Y-75755853D01*
X83820000Y-76085026D01*
X83600054Y-75755853D01*
X83310000Y-75562046D01*
X83310000Y-67945000D01*
X83252148Y-67654161D01*
X83087401Y-67407599D01*
X80336986Y-64657184D01*
X80644710Y-64349997D01*
X80645095Y-64349069D01*
X81065003Y-64769710D01*
X81615602Y-64998339D01*
X82211782Y-64998859D01*
X82762780Y-64771192D01*
X83184710Y-64349997D01*
X83185095Y-64349069D01*
X83605003Y-64769710D01*
X84155602Y-64998339D01*
X84751782Y-64998859D01*
X85302780Y-64771192D01*
X85724710Y-64349997D01*
X85725095Y-64349069D01*
X86145003Y-64769710D01*
X86695602Y-64998339D01*
X86783614Y-64998416D01*
X92409878Y-70624680D01*
X92409838Y-70670167D01*
X92551883Y-71013943D01*
X92814673Y-71277192D01*
X93158201Y-71419838D01*
X93530167Y-71420162D01*
X93873943Y-71278117D01*
X94137192Y-71015327D01*
X94279838Y-70671799D01*
X94280162Y-70299833D01*
X94138117Y-69956057D01*
X93875327Y-69692808D01*
X93531799Y-69550162D01*
X93484923Y-69550121D01*
X88718365Y-64783563D01*
X89235602Y-64998339D01*
X89831782Y-64998859D01*
X90382780Y-64771192D01*
X90804710Y-64349997D01*
X90805095Y-64349069D01*
X91225003Y-64769710D01*
X91775602Y-64998339D01*
X92371782Y-64998859D01*
X92585000Y-64910759D01*
X92585000Y-65405000D01*
X92642852Y-65695839D01*
X92807599Y-65942401D01*
X94949878Y-68084680D01*
X94949838Y-68130167D01*
X95091883Y-68473943D01*
X95354673Y-68737192D01*
X95698201Y-68879838D01*
X96070167Y-68880162D01*
X96413943Y-68738117D01*
X96677192Y-68475327D01*
X96819838Y-68131799D01*
X96820162Y-67759833D01*
X96714690Y-67504570D01*
X96968201Y-67609838D01*
X97340167Y-67610162D01*
X97683943Y-67468117D01*
X97947192Y-67205327D01*
X98089838Y-66861799D01*
X98090162Y-66489833D01*
X97948117Y-66146057D01*
X97685327Y-65882808D01*
X97341799Y-65740162D01*
X97294923Y-65740121D01*
X96645000Y-65090198D01*
X96645000Y-64910889D01*
X96855602Y-64998339D01*
X97451782Y-64998859D01*
X97690873Y-64900069D01*
X97722852Y-65060839D01*
X97887599Y-65307401D01*
X98124878Y-65544680D01*
X98124838Y-65590167D01*
X98266883Y-65933943D01*
X98529673Y-66197192D01*
X98873201Y-66339838D01*
X99245167Y-66340162D01*
X99588943Y-66198117D01*
X99852192Y-65935327D01*
X99994838Y-65591799D01*
X99995162Y-65219833D01*
X99903826Y-64998782D01*
X99991782Y-64998859D01*
X100205000Y-64910759D01*
X100205000Y-68652537D01*
X100172808Y-68684673D01*
X100030162Y-69028201D01*
X100029838Y-69400167D01*
X100171883Y-69743943D01*
X100434673Y-70007192D01*
X100778201Y-70149838D01*
X101150167Y-70150162D01*
X101493943Y-70008117D01*
X101757192Y-69745327D01*
X101899838Y-69401799D01*
X101900162Y-69029833D01*
X101758117Y-68686057D01*
X101725000Y-68652882D01*
X101725000Y-64910889D01*
X101935602Y-64998339D01*
X102531782Y-64998859D01*
X102745000Y-64910759D01*
X102745000Y-70170198D01*
X100825320Y-72089878D01*
X100779833Y-72089838D01*
X100436057Y-72231883D01*
X100172808Y-72494673D01*
X100030162Y-72838201D01*
X100029838Y-73210167D01*
X100171883Y-73553943D01*
X100434673Y-73817192D01*
X100778201Y-73959838D01*
X101150167Y-73960162D01*
X101493943Y-73818117D01*
X101757192Y-73555327D01*
X101899838Y-73211799D01*
X101899879Y-73164923D01*
X104016341Y-71048461D01*
X104244673Y-71277192D01*
X104588201Y-71419838D01*
X104670288Y-71419910D01*
X101920198Y-74170000D01*
X101527463Y-74170000D01*
X101495327Y-74137808D01*
X101151799Y-73995162D01*
X100779833Y-73994838D01*
X100436057Y-74136883D01*
X100172808Y-74399673D01*
X100030162Y-74743201D01*
X100029838Y-75115167D01*
X100171883Y-75458943D01*
X100434673Y-75722192D01*
X100778201Y-75864838D01*
X101150167Y-75865162D01*
X101493943Y-75723117D01*
X101527118Y-75690000D01*
X102235000Y-75690000D01*
X102525839Y-75632148D01*
X102772401Y-75467401D01*
X106582401Y-71657401D01*
X106747148Y-71410839D01*
X106775550Y-71268053D01*
X106784673Y-71277192D01*
X107128201Y-71419838D01*
X107500167Y-71420162D01*
X107843943Y-71278117D01*
X108107192Y-71015327D01*
X108249838Y-70671799D01*
X108250162Y-70299833D01*
X108108117Y-69956057D01*
X108075000Y-69922882D01*
X108075000Y-64807462D01*
X108162780Y-64771192D01*
X108584710Y-64349997D01*
X108585095Y-64349069D01*
X109005003Y-64769710D01*
X109555602Y-64998339D01*
X110151782Y-64998859D01*
X110702780Y-64771192D01*
X111124710Y-64349997D01*
X111125095Y-64349069D01*
X111545003Y-64769710D01*
X112095602Y-64998339D01*
X112691782Y-64998859D01*
X113242780Y-64771192D01*
X113664710Y-64349997D01*
X113665095Y-64349069D01*
X114085003Y-64769710D01*
X114635602Y-64998339D01*
X115231782Y-64998859D01*
X115782780Y-64771192D01*
X116000546Y-64553805D01*
X116600800Y-64553805D01*
X116682741Y-64806516D01*
X117243030Y-65010248D01*
X117838635Y-64984058D01*
X118267259Y-64806516D01*
X118349200Y-64553805D01*
X117475000Y-63679605D01*
X116600800Y-64553805D01*
X116000546Y-64553805D01*
X116204710Y-64349997D01*
X116221541Y-64309463D01*
X116421195Y-64374200D01*
X117295395Y-63500000D01*
X117654605Y-63500000D01*
X118528805Y-64374200D01*
X118728033Y-64309601D01*
X118743808Y-64347780D01*
X119165003Y-64769710D01*
X119715602Y-64998339D01*
X120311782Y-64998859D01*
X120862780Y-64771192D01*
X121284710Y-64349997D01*
X121513339Y-63799398D01*
X121513859Y-63203218D01*
X121286192Y-62652220D01*
X120864997Y-62230290D01*
X120314398Y-62001661D01*
X119718218Y-62001141D01*
X119167220Y-62228808D01*
X118745290Y-62650003D01*
X118728459Y-62690537D01*
X118528805Y-62625800D01*
X117654605Y-63500000D01*
X117295395Y-63500000D01*
X116421195Y-62625800D01*
X116221967Y-62690399D01*
X116206192Y-62652220D01*
X116000526Y-62446195D01*
X116600800Y-62446195D01*
X117475000Y-63320395D01*
X118349200Y-62446195D01*
X118267259Y-62193484D01*
X117706970Y-61989752D01*
X117111365Y-62015942D01*
X116682741Y-62193484D01*
X116600800Y-62446195D01*
X116000526Y-62446195D01*
X115784997Y-62230290D01*
X115234398Y-62001661D01*
X114638218Y-62001141D01*
X114087220Y-62228808D01*
X113665290Y-62650003D01*
X113664905Y-62650931D01*
X113244997Y-62230290D01*
X112694398Y-62001661D01*
X112098218Y-62001141D01*
X112008156Y-62038354D01*
X111885000Y-61915198D01*
X111885000Y-49670889D01*
X112095602Y-49758339D01*
X112691782Y-49758859D01*
X113242780Y-49531192D01*
X113664710Y-49109997D01*
X113665095Y-49109069D01*
X114085003Y-49529710D01*
X114635602Y-49758339D01*
X115231782Y-49758859D01*
X115782780Y-49531192D01*
X116204710Y-49109997D01*
X116205095Y-49109069D01*
X116625003Y-49529710D01*
X117175602Y-49758339D01*
X117771782Y-49758859D01*
X118322780Y-49531192D01*
X118744710Y-49109997D01*
X118745095Y-49109069D01*
X119165003Y-49529710D01*
X119715602Y-49758339D01*
X120311782Y-49758859D01*
X120862780Y-49531192D01*
X121284710Y-49109997D01*
X121513339Y-48559398D01*
X121513859Y-47963218D01*
X121286192Y-47412220D01*
X120864997Y-46990290D01*
X120314398Y-46761661D01*
X119718218Y-46761141D01*
X119167220Y-46988808D01*
X118745290Y-47410003D01*
X118744905Y-47410931D01*
X118324997Y-46990290D01*
X117774398Y-46761661D01*
X117178218Y-46761141D01*
X116627220Y-46988808D01*
X116205290Y-47410003D01*
X116204905Y-47410931D01*
X115784997Y-46990290D01*
X115234398Y-46761661D01*
X114638218Y-46761141D01*
X114087220Y-46988808D01*
X113665290Y-47410003D01*
X113664905Y-47410931D01*
X113244997Y-46990290D01*
X112694398Y-46761661D01*
X112098218Y-46761141D01*
X111885000Y-46849241D01*
X111885000Y-46355000D01*
X111827148Y-46064161D01*
X111662401Y-45817599D01*
X100232401Y-34387599D01*
X99985839Y-34222852D01*
X99695000Y-34165000D01*
X99053301Y-34165000D01*
X98879575Y-33905000D01*
X117108420Y-33905000D01*
X117882560Y-34679139D01*
X117882560Y-35775000D01*
X117926838Y-36010317D01*
X118065910Y-36226441D01*
X118278110Y-36371431D01*
X118530000Y-36422440D01*
X120230000Y-36422440D01*
X120465317Y-36378162D01*
X120681441Y-36239090D01*
X120826431Y-36026890D01*
X120840086Y-35959459D01*
X120869946Y-36004147D01*
X121351715Y-36326054D01*
X121920000Y-36439093D01*
X122488285Y-36326054D01*
X122970054Y-36004147D01*
X123197702Y-35663447D01*
X123264817Y-35806358D01*
X123693076Y-36196645D01*
X124103110Y-36366476D01*
X124333000Y-36245155D01*
X124333000Y-35052000D01*
X124313000Y-35052000D01*
X124313000Y-34798000D01*
X124333000Y-34798000D01*
X124333000Y-34778000D01*
X124587000Y-34778000D01*
X124587000Y-34798000D01*
X124607000Y-34798000D01*
X124607000Y-35052000D01*
X124587000Y-35052000D01*
X124587000Y-36245155D01*
X124816890Y-36366476D01*
X125226924Y-36196645D01*
X125655183Y-35806358D01*
X125722298Y-35663447D01*
X125949946Y-36004147D01*
X126431715Y-36326054D01*
X127000000Y-36439093D01*
X127568285Y-36326054D01*
X128050054Y-36004147D01*
X128270000Y-35674974D01*
X128489946Y-36004147D01*
X128971715Y-36326054D01*
X129540000Y-36439093D01*
X130108285Y-36326054D01*
X130590054Y-36004147D01*
X130810000Y-35674974D01*
X131029946Y-36004147D01*
X131511715Y-36326054D01*
X132080000Y-36439093D01*
X132648285Y-36326054D01*
X133130054Y-36004147D01*
X133350000Y-35674974D01*
X133569946Y-36004147D01*
X134051715Y-36326054D01*
X134620000Y-36439093D01*
X135188285Y-36326054D01*
X135670054Y-36004147D01*
X135890000Y-35674974D01*
X136109946Y-36004147D01*
X136591715Y-36326054D01*
X137160000Y-36439093D01*
X137728285Y-36326054D01*
X138210054Y-36004147D01*
X138430000Y-35674974D01*
X138649946Y-36004147D01*
X139131715Y-36326054D01*
X139700000Y-36439093D01*
X140268285Y-36326054D01*
X140750054Y-36004147D01*
X140970000Y-35674974D01*
X141189946Y-36004147D01*
X141671715Y-36326054D01*
X142240000Y-36439093D01*
X142808285Y-36326054D01*
X143290054Y-36004147D01*
X143510000Y-35674974D01*
X143729946Y-36004147D01*
X144211715Y-36326054D01*
X144780000Y-36439093D01*
X145348285Y-36326054D01*
X145830054Y-36004147D01*
X146050000Y-35674974D01*
X146269946Y-36004147D01*
X146751715Y-36326054D01*
X147320000Y-36439093D01*
X147888285Y-36326054D01*
X148370054Y-36004147D01*
X148691961Y-35522378D01*
X148805000Y-34954093D01*
X148805000Y-34895907D01*
X148703363Y-34384942D01*
X149610000Y-35291579D01*
X149610000Y-38099995D01*
X149609999Y-38100000D01*
X149666190Y-38382484D01*
X149677367Y-38438675D01*
X149791842Y-38610000D01*
X149869210Y-38725790D01*
X152807560Y-41664139D01*
X152807560Y-42760000D01*
X152851838Y-42995317D01*
X152990910Y-43211441D01*
X153203110Y-43356431D01*
X153270541Y-43370086D01*
X153225853Y-43399946D01*
X152903946Y-43881715D01*
X152790907Y-44450000D01*
X152903946Y-45018285D01*
X153225853Y-45500054D01*
X153566553Y-45727702D01*
X153423642Y-45794817D01*
X153033355Y-46223076D01*
X152863524Y-46633110D01*
X152984845Y-46863000D01*
X154178000Y-46863000D01*
X154178000Y-46843000D01*
X154432000Y-46843000D01*
X154432000Y-46863000D01*
X154452000Y-46863000D01*
X154452000Y-47117000D01*
X154432000Y-47117000D01*
X154432000Y-47137000D01*
X154178000Y-47137000D01*
X154178000Y-47117000D01*
X152984845Y-47117000D01*
X152863524Y-47346890D01*
X153033355Y-47756924D01*
X153423642Y-48185183D01*
X153566553Y-48252298D01*
X153225853Y-48479946D01*
X152903946Y-48961715D01*
X152790907Y-49530000D01*
X152903946Y-50098285D01*
X153225853Y-50580054D01*
X153555026Y-50800000D01*
X153225853Y-51019946D01*
X152903946Y-51501715D01*
X152790907Y-52070000D01*
X152903946Y-52638285D01*
X153225853Y-53120054D01*
X153555026Y-53340000D01*
X153225853Y-53559946D01*
X152903946Y-54041715D01*
X152790907Y-54610000D01*
X152903946Y-55178285D01*
X153225853Y-55660054D01*
X153555026Y-55880000D01*
X153225853Y-56099946D01*
X152903946Y-56581715D01*
X152790907Y-57150000D01*
X152903946Y-57718285D01*
X153225853Y-58200054D01*
X153555026Y-58420000D01*
X153225853Y-58639946D01*
X152903946Y-59121715D01*
X152790907Y-59690000D01*
X152903946Y-60258285D01*
X153225853Y-60740054D01*
X153555026Y-60960000D01*
X153225853Y-61179946D01*
X152903946Y-61661715D01*
X152790907Y-62230000D01*
X152903946Y-62798285D01*
X153225853Y-63280054D01*
X153555026Y-63500000D01*
X153225853Y-63719946D01*
X152903946Y-64201715D01*
X152790907Y-64770000D01*
X152903946Y-65338285D01*
X153225853Y-65820054D01*
X153555026Y-66040000D01*
X153225853Y-66259946D01*
X152903946Y-66741715D01*
X152790907Y-67310000D01*
X152903946Y-67878285D01*
X153225853Y-68360054D01*
X153555026Y-68580000D01*
X153225853Y-68799946D01*
X152903946Y-69281715D01*
X152790907Y-69850000D01*
X152903946Y-70418285D01*
X153225853Y-70900054D01*
X153707622Y-71221961D01*
X154275907Y-71335000D01*
X154334093Y-71335000D01*
X154845058Y-71233363D01*
X153938420Y-72140000D01*
X150495005Y-72140000D01*
X150495000Y-72139999D01*
X150212516Y-72196190D01*
X150156325Y-72207367D01*
X149869210Y-72399210D01*
X149869208Y-72399213D01*
X149551710Y-72716710D01*
X149551708Y-72716713D01*
X149234210Y-73034210D01*
X149234208Y-73034213D01*
X147964210Y-74304210D01*
X147964208Y-74304213D01*
X146930860Y-75337560D01*
X146470000Y-75337560D01*
X146234683Y-75381838D01*
X146018559Y-75520910D01*
X145873569Y-75733110D01*
X145859914Y-75800541D01*
X145830054Y-75755853D01*
X145348285Y-75433946D01*
X144780000Y-75320907D01*
X144211715Y-75433946D01*
X143729946Y-75755853D01*
X143502298Y-76096553D01*
X143435183Y-75953642D01*
X143006924Y-75563355D01*
X142596890Y-75393524D01*
X142367000Y-75514845D01*
X142367000Y-76708000D01*
X142387000Y-76708000D01*
X142387000Y-76962000D01*
X142367000Y-76962000D01*
X142367000Y-76982000D01*
X142113000Y-76982000D01*
X142113000Y-76962000D01*
X142093000Y-76962000D01*
X142093000Y-76708000D01*
X142113000Y-76708000D01*
X142113000Y-75514845D01*
X141883110Y-75393524D01*
X141473076Y-75563355D01*
X141044817Y-75953642D01*
X140977702Y-76096553D01*
X140750054Y-75755853D01*
X140268285Y-75433946D01*
X139700000Y-75320907D01*
X139131715Y-75433946D01*
X138649946Y-75755853D01*
X138430000Y-76085026D01*
X138210054Y-75755853D01*
X137728285Y-75433946D01*
X137160000Y-75320907D01*
X136591715Y-75433946D01*
X136109946Y-75755853D01*
X135890000Y-76085026D01*
X135670054Y-75755853D01*
X135188285Y-75433946D01*
X134620000Y-75320907D01*
X134051715Y-75433946D01*
X133569946Y-75755853D01*
X133350000Y-76085026D01*
X133130054Y-75755853D01*
X132648285Y-75433946D01*
X132080000Y-75320907D01*
X131511715Y-75433946D01*
X131029946Y-75755853D01*
X130810000Y-76085026D01*
X130590054Y-75755853D01*
X130108285Y-75433946D01*
X129540000Y-75320907D01*
X128971715Y-75433946D01*
X128489946Y-75755853D01*
X128270000Y-76085026D01*
X128050054Y-75755853D01*
X127568285Y-75433946D01*
X127000000Y-75320907D01*
X126431715Y-75433946D01*
X125949946Y-75755853D01*
X125730000Y-76085026D01*
X125510054Y-75755853D01*
X125028285Y-75433946D01*
X124460000Y-75320907D01*
X123891715Y-75433946D01*
X123409946Y-75755853D01*
X123190000Y-76085026D01*
X122970054Y-75755853D01*
X122488285Y-75433946D01*
X121920000Y-75320907D01*
X121351715Y-75433946D01*
X120869946Y-75755853D01*
X120650000Y-76085026D01*
X120430054Y-75755853D01*
X119948285Y-75433946D01*
X119380000Y-75320907D01*
X118811715Y-75433946D01*
X118329946Y-75755853D01*
X118008039Y-76237622D01*
X117895000Y-76805907D01*
X117895000Y-76864093D01*
X118008039Y-77432378D01*
X118290425Y-77855000D01*
X99426579Y-77855000D01*
X99282243Y-77710664D01*
X99287440Y-77685000D01*
X99287440Y-75985000D01*
X99243162Y-75749683D01*
X99104090Y-75533559D01*
X98891890Y-75388569D01*
X98640000Y-75337560D01*
X96940000Y-75337560D01*
X96704683Y-75381838D01*
X96488559Y-75520910D01*
X96343569Y-75733110D01*
X96329914Y-75800541D01*
X96300054Y-75755853D01*
X95818285Y-75433946D01*
X95250000Y-75320907D01*
X94681715Y-75433946D01*
X94199946Y-75755853D01*
X93972298Y-76096553D01*
X93905183Y-75953642D01*
X93476924Y-75563355D01*
X93066890Y-75393524D01*
X92837000Y-75514845D01*
X92837000Y-76708000D01*
X92857000Y-76708000D01*
X92857000Y-76962000D01*
X92837000Y-76962000D01*
X92837000Y-78155155D01*
X93066890Y-78276476D01*
X93476924Y-78106645D01*
X93905183Y-77716358D01*
X93972298Y-77573447D01*
X94199946Y-77914147D01*
X94681715Y-78236054D01*
X95250000Y-78349093D01*
X95818285Y-78236054D01*
X96300054Y-77914147D01*
X96327850Y-77872548D01*
X96336838Y-77920317D01*
X96475910Y-78136441D01*
X96688110Y-78281431D01*
X96940000Y-78332440D01*
X97400860Y-78332440D01*
X98316421Y-79248000D01*
X59817000Y-79248000D01*
X59817000Y-77277619D01*
X59994613Y-77277619D01*
X60334155Y-78099372D01*
X60962321Y-78728636D01*
X61783481Y-79069611D01*
X62672619Y-79070387D01*
X63494372Y-78730845D01*
X64123636Y-78102679D01*
X64464611Y-77281519D01*
X64465387Y-76392381D01*
X64125845Y-75570628D01*
X63497679Y-74941364D01*
X62676519Y-74600389D01*
X61787381Y-74599613D01*
X60965628Y-74939155D01*
X60336364Y-75567321D01*
X59995389Y-76388481D01*
X59994613Y-77277619D01*
X59817000Y-77277619D01*
X59817000Y-49313805D01*
X70880800Y-49313805D01*
X70962741Y-49566516D01*
X71523030Y-49770248D01*
X72118635Y-49744058D01*
X72547259Y-49566516D01*
X72629200Y-49313805D01*
X73420800Y-49313805D01*
X73502741Y-49566516D01*
X74063030Y-49770248D01*
X74658635Y-49744058D01*
X75087259Y-49566516D01*
X75169200Y-49313805D01*
X74295000Y-48439605D01*
X73420800Y-49313805D01*
X72629200Y-49313805D01*
X71755000Y-48439605D01*
X70880800Y-49313805D01*
X59817000Y-49313805D01*
X59817000Y-48028030D01*
X70244752Y-48028030D01*
X70270942Y-48623635D01*
X70448484Y-49052259D01*
X70701195Y-49134200D01*
X71575395Y-48260000D01*
X71934605Y-48260000D01*
X72808805Y-49134200D01*
X73025000Y-49064099D01*
X73241195Y-49134200D01*
X74115395Y-48260000D01*
X73241195Y-47385800D01*
X73025000Y-47455901D01*
X72808805Y-47385800D01*
X71934605Y-48260000D01*
X71575395Y-48260000D01*
X70701195Y-47385800D01*
X70448484Y-47467741D01*
X70244752Y-48028030D01*
X59817000Y-48028030D01*
X59817000Y-47206195D01*
X70880800Y-47206195D01*
X71755000Y-48080395D01*
X72629200Y-47206195D01*
X73420800Y-47206195D01*
X74295000Y-48080395D01*
X75169200Y-47206195D01*
X75087259Y-46953484D01*
X74526970Y-46749752D01*
X73931365Y-46775942D01*
X73502741Y-46953484D01*
X73420800Y-47206195D01*
X72629200Y-47206195D01*
X72547259Y-46953484D01*
X71986970Y-46749752D01*
X71391365Y-46775942D01*
X70962741Y-46953484D01*
X70880800Y-47206195D01*
X59817000Y-47206195D01*
X59817000Y-35367619D01*
X59994613Y-35367619D01*
X60334155Y-36189372D01*
X60962321Y-36818636D01*
X61783481Y-37159611D01*
X62672619Y-37160387D01*
X63494372Y-36820845D01*
X64123636Y-36192679D01*
X64464611Y-35371519D01*
X64465387Y-34482381D01*
X64125845Y-33660628D01*
X63497679Y-33031364D01*
X62676519Y-32690389D01*
X61787381Y-32689613D01*
X60965628Y-33029155D01*
X60336364Y-33657321D01*
X59995389Y-34478481D01*
X59994613Y-35367619D01*
X59817000Y-35367619D01*
X59817000Y-32512000D01*
X70376421Y-32512000D01*
X69460860Y-33427560D01*
X69460860Y-33427560D01*
G37*
X69460860Y-33427560D02*
X69000000Y-33427560D01*
X68764683Y-33471838D01*
X68548559Y-33610910D01*
X68403569Y-33823110D01*
X68352560Y-34075000D01*
X68352560Y-35775000D01*
X68396838Y-36010317D01*
X68535910Y-36226441D01*
X68748110Y-36371431D01*
X69000000Y-36422440D01*
X70700000Y-36422440D01*
X70935317Y-36378162D01*
X71151441Y-36239090D01*
X71296431Y-36026890D01*
X71310086Y-35959459D01*
X71339946Y-36004147D01*
X71821715Y-36326054D01*
X72390000Y-36439093D01*
X72958285Y-36326054D01*
X73440054Y-36004147D01*
X73667702Y-35663447D01*
X73734817Y-35806358D01*
X74163076Y-36196645D01*
X74573110Y-36366476D01*
X74803000Y-36245155D01*
X74803000Y-35052000D01*
X74783000Y-35052000D01*
X74783000Y-34798000D01*
X74803000Y-34798000D01*
X74803000Y-34778000D01*
X75057000Y-34778000D01*
X75057000Y-34798000D01*
X75077000Y-34798000D01*
X75077000Y-35052000D01*
X75057000Y-35052000D01*
X75057000Y-36245155D01*
X75286890Y-36366476D01*
X75696924Y-36196645D01*
X76125183Y-35806358D01*
X76192298Y-35663447D01*
X76419946Y-36004147D01*
X76901715Y-36326054D01*
X77470000Y-36439093D01*
X78038285Y-36326054D01*
X78520054Y-36004147D01*
X78740000Y-35674974D01*
X78959946Y-36004147D01*
X79441715Y-36326054D01*
X80010000Y-36439093D01*
X80578285Y-36326054D01*
X81060054Y-36004147D01*
X81280000Y-35674974D01*
X81499946Y-36004147D01*
X81981715Y-36326054D01*
X82550000Y-36439093D01*
X83118285Y-36326054D01*
X83600054Y-36004147D01*
X83820000Y-35674974D01*
X84039946Y-36004147D01*
X84521715Y-36326054D01*
X85090000Y-36439093D01*
X85658285Y-36326054D01*
X86140054Y-36004147D01*
X86360000Y-35674974D01*
X86579946Y-36004147D01*
X87061715Y-36326054D01*
X87630000Y-36439093D01*
X88198285Y-36326054D01*
X88680054Y-36004147D01*
X88900000Y-35674974D01*
X89119946Y-36004147D01*
X89601715Y-36326054D01*
X90170000Y-36439093D01*
X90738285Y-36326054D01*
X91220054Y-36004147D01*
X91440000Y-35674974D01*
X91659946Y-36004147D01*
X91950000Y-36197954D01*
X91950000Y-36515198D01*
X87950198Y-40515000D01*
X84382463Y-40515000D01*
X84350327Y-40482808D01*
X84006799Y-40340162D01*
X83634833Y-40339838D01*
X83291057Y-40481883D01*
X83027808Y-40744673D01*
X82885162Y-41088201D01*
X82884838Y-41460167D01*
X83026883Y-41803943D01*
X83289673Y-42067192D01*
X83633201Y-42209838D01*
X84005167Y-42210162D01*
X84348943Y-42068117D01*
X84382118Y-42035000D01*
X88265000Y-42035000D01*
X88555839Y-41977148D01*
X88802401Y-41812401D01*
X93247401Y-37367401D01*
X93412148Y-37120840D01*
X93470000Y-36830000D01*
X93470000Y-36197954D01*
X93760054Y-36004147D01*
X93980000Y-35674974D01*
X94199946Y-36004147D01*
X94681715Y-36326054D01*
X95250000Y-36439093D01*
X95616408Y-36366210D01*
X99157599Y-39907401D01*
X99404160Y-40072148D01*
X99695000Y-40130000D01*
X101285198Y-40130000D01*
X107825000Y-46669802D01*
X107825000Y-46849111D01*
X107614398Y-46761661D01*
X107018218Y-46761141D01*
X106467220Y-46988808D01*
X106045290Y-47410003D01*
X106044905Y-47410931D01*
X105624997Y-46990290D01*
X105074398Y-46761661D01*
X104478218Y-46761141D01*
X103927220Y-46988808D01*
X103505290Y-47410003D01*
X103504905Y-47410931D01*
X103084997Y-46990290D01*
X102534398Y-46761661D01*
X101938218Y-46761141D01*
X101387220Y-46988808D01*
X100965290Y-47410003D01*
X100964905Y-47410931D01*
X100544997Y-46990290D01*
X99994398Y-46761661D01*
X99398218Y-46761141D01*
X98847220Y-46988808D01*
X98425290Y-47410003D01*
X98424905Y-47410931D01*
X98004997Y-46990290D01*
X97454398Y-46761661D01*
X96858218Y-46761141D01*
X96307220Y-46988808D01*
X95885290Y-47410003D01*
X95884905Y-47410931D01*
X95464997Y-46990290D01*
X94914398Y-46761661D01*
X94318218Y-46761141D01*
X94105000Y-46849241D01*
X94105000Y-45647463D01*
X94137192Y-45615327D01*
X94279838Y-45271799D01*
X94280162Y-44899833D01*
X94138117Y-44556057D01*
X93875327Y-44292808D01*
X93531799Y-44150162D01*
X93159833Y-44149838D01*
X92816057Y-44291883D01*
X92552808Y-44554673D01*
X92410162Y-44898201D01*
X92409838Y-45270167D01*
X92551883Y-45613943D01*
X92585000Y-45647118D01*
X92585000Y-46849111D01*
X92374398Y-46761661D01*
X91778218Y-46761141D01*
X91565000Y-46849241D01*
X91565000Y-45647463D01*
X91597192Y-45615327D01*
X91739838Y-45271799D01*
X91740162Y-44899833D01*
X91598117Y-44556057D01*
X91335327Y-44292808D01*
X90991799Y-44150162D01*
X90619833Y-44149838D01*
X90276057Y-44291883D01*
X90012808Y-44554673D01*
X89870162Y-44898201D01*
X89869838Y-45270167D01*
X90011883Y-45613943D01*
X90045000Y-45647118D01*
X90045000Y-46849111D01*
X89834398Y-46761661D01*
X89238218Y-46761141D01*
X89025000Y-46849241D01*
X89025000Y-45647463D01*
X89057192Y-45615327D01*
X89199838Y-45271799D01*
X89200162Y-44899833D01*
X89058117Y-44556057D01*
X88795327Y-44292808D01*
X88451799Y-44150162D01*
X88079833Y-44149838D01*
X87736057Y-44291883D01*
X87472808Y-44554673D01*
X87330162Y-44898201D01*
X87329838Y-45270167D01*
X87471883Y-45613943D01*
X87505000Y-45647118D01*
X87505000Y-46849111D01*
X87294398Y-46761661D01*
X86698218Y-46761141D01*
X86147220Y-46988808D01*
X85725290Y-47410003D01*
X85724905Y-47410931D01*
X85304997Y-46990290D01*
X84754398Y-46761661D01*
X84158218Y-46761141D01*
X83607220Y-46988808D01*
X83185290Y-47410003D01*
X83184905Y-47410931D01*
X82764997Y-46990290D01*
X82214398Y-46761661D01*
X81618218Y-46761141D01*
X81067220Y-46988808D01*
X80645290Y-47410003D01*
X80644905Y-47410931D01*
X80224997Y-46990290D01*
X79674398Y-46761661D01*
X79078218Y-46761141D01*
X78527220Y-46988808D01*
X78105290Y-47410003D01*
X78104905Y-47410931D01*
X77684997Y-46990290D01*
X77134398Y-46761661D01*
X76538218Y-46761141D01*
X75987220Y-46988808D01*
X75565290Y-47410003D01*
X75548459Y-47450537D01*
X75348805Y-47385800D01*
X74474605Y-48260000D01*
X75348805Y-49134200D01*
X75548033Y-49069601D01*
X75563808Y-49107780D01*
X75985003Y-49529710D01*
X76535602Y-49758339D01*
X77131782Y-49758859D01*
X77682780Y-49531192D01*
X78104710Y-49109997D01*
X78105095Y-49109069D01*
X78525003Y-49529710D01*
X79075602Y-49758339D01*
X79671782Y-49758859D01*
X80222780Y-49531192D01*
X80644710Y-49109997D01*
X80645095Y-49109069D01*
X81065003Y-49529710D01*
X81615602Y-49758339D01*
X82211782Y-49758859D01*
X82762780Y-49531192D01*
X83184710Y-49109997D01*
X83185095Y-49109069D01*
X83605003Y-49529710D01*
X83695000Y-49567080D01*
X83695000Y-51120198D01*
X75027599Y-59787599D01*
X74862852Y-60034161D01*
X74805000Y-60325000D01*
X74805000Y-62089111D01*
X74594398Y-62001661D01*
X73998218Y-62001141D01*
X73447220Y-62228808D01*
X73025290Y-62650003D01*
X73024905Y-62650931D01*
X72604997Y-62230290D01*
X72054398Y-62001661D01*
X71458218Y-62001141D01*
X70907220Y-62228808D01*
X70485290Y-62650003D01*
X70256661Y-63200602D01*
X70256141Y-63796782D01*
X70483808Y-64347780D01*
X70905003Y-64769710D01*
X71455602Y-64998339D01*
X72051782Y-64998859D01*
X72602780Y-64771192D01*
X73024710Y-64349997D01*
X73025095Y-64349069D01*
X73445003Y-64769710D01*
X73995602Y-64998339D01*
X74591782Y-64998859D01*
X74805000Y-64910759D01*
X74805000Y-70805198D01*
X74392599Y-71217599D01*
X74227852Y-71464161D01*
X74170000Y-71755000D01*
X74170000Y-75562046D01*
X73879946Y-75755853D01*
X73660000Y-76085026D01*
X73440054Y-75755853D01*
X72958285Y-75433946D01*
X72390000Y-75320907D01*
X71821715Y-75433946D01*
X71339946Y-75755853D01*
X71120000Y-76085026D01*
X70900054Y-75755853D01*
X70418285Y-75433946D01*
X69850000Y-75320907D01*
X69281715Y-75433946D01*
X68799946Y-75755853D01*
X68478039Y-76237622D01*
X68365000Y-76805907D01*
X68365000Y-76864093D01*
X68478039Y-77432378D01*
X68799946Y-77914147D01*
X69281715Y-78236054D01*
X69850000Y-78349093D01*
X70418285Y-78236054D01*
X70900054Y-77914147D01*
X71120000Y-77584974D01*
X71339946Y-77914147D01*
X71821715Y-78236054D01*
X72390000Y-78349093D01*
X72958285Y-78236054D01*
X73440054Y-77914147D01*
X73660000Y-77584974D01*
X73879946Y-77914147D01*
X74361715Y-78236054D01*
X74930000Y-78349093D01*
X75498285Y-78236054D01*
X75980054Y-77914147D01*
X76200000Y-77584974D01*
X76419946Y-77914147D01*
X76901715Y-78236054D01*
X77470000Y-78349093D01*
X78038285Y-78236054D01*
X78520054Y-77914147D01*
X78740000Y-77584974D01*
X78959946Y-77914147D01*
X79441715Y-78236054D01*
X80010000Y-78349093D01*
X80578285Y-78236054D01*
X81060054Y-77914147D01*
X81280000Y-77584974D01*
X81499946Y-77914147D01*
X81981715Y-78236054D01*
X82550000Y-78349093D01*
X83118285Y-78236054D01*
X83600054Y-77914147D01*
X83820000Y-77584974D01*
X84039946Y-77914147D01*
X84521715Y-78236054D01*
X85090000Y-78349093D01*
X85658285Y-78236054D01*
X86140054Y-77914147D01*
X86360000Y-77584974D01*
X86579946Y-77914147D01*
X87061715Y-78236054D01*
X87630000Y-78349093D01*
X88198285Y-78236054D01*
X88680054Y-77914147D01*
X88900000Y-77584974D01*
X89119946Y-77914147D01*
X89601715Y-78236054D01*
X90170000Y-78349093D01*
X90738285Y-78236054D01*
X91220054Y-77914147D01*
X91447702Y-77573447D01*
X91514817Y-77716358D01*
X91943076Y-78106645D01*
X92353110Y-78276476D01*
X92583000Y-78155155D01*
X92583000Y-76962000D01*
X92563000Y-76962000D01*
X92563000Y-76708000D01*
X92583000Y-76708000D01*
X92583000Y-75514845D01*
X92353110Y-75393524D01*
X91943076Y-75563355D01*
X91514817Y-75953642D01*
X91447702Y-76096553D01*
X91220054Y-75755853D01*
X90738285Y-75433946D01*
X90170000Y-75320907D01*
X89601715Y-75433946D01*
X89119946Y-75755853D01*
X88900000Y-76085026D01*
X88680054Y-75755853D01*
X88390000Y-75562046D01*
X88390000Y-72317463D01*
X88422192Y-72285327D01*
X88564838Y-71941799D01*
X88565162Y-71569833D01*
X88423117Y-71226057D01*
X88160327Y-70962808D01*
X87816799Y-70820162D01*
X87444833Y-70819838D01*
X87101057Y-70961883D01*
X86837808Y-71224673D01*
X86695162Y-71568201D01*
X86694838Y-71940167D01*
X86836883Y-72283943D01*
X86870000Y-72317118D01*
X86870000Y-75562046D01*
X86579946Y-75755853D01*
X86360000Y-76085026D01*
X86140054Y-75755853D01*
X85850000Y-75562046D01*
X85850000Y-71047463D01*
X85882192Y-71015327D01*
X86024838Y-70671799D01*
X86025162Y-70299833D01*
X85883117Y-69956057D01*
X85620327Y-69692808D01*
X85276799Y-69550162D01*
X84904833Y-69549838D01*
X84561057Y-69691883D01*
X84297808Y-69954673D01*
X84155162Y-70298201D01*
X84154838Y-70670167D01*
X84296883Y-71013943D01*
X84330000Y-71047118D01*
X84330000Y-75562046D01*
X84039946Y-75755853D01*
X83820000Y-76085026D01*
X83600054Y-75755853D01*
X83310000Y-75562046D01*
X83310000Y-67945000D01*
X83252148Y-67654161D01*
X83087401Y-67407599D01*
X80336986Y-64657184D01*
X80644710Y-64349997D01*
X80645095Y-64349069D01*
X81065003Y-64769710D01*
X81615602Y-64998339D01*
X82211782Y-64998859D01*
X82762780Y-64771192D01*
X83184710Y-64349997D01*
X83185095Y-64349069D01*
X83605003Y-64769710D01*
X84155602Y-64998339D01*
X84751782Y-64998859D01*
X85302780Y-64771192D01*
X85724710Y-64349997D01*
X85725095Y-64349069D01*
X86145003Y-64769710D01*
X86695602Y-64998339D01*
X86783614Y-64998416D01*
X92409878Y-70624680D01*
X92409838Y-70670167D01*
X92551883Y-71013943D01*
X92814673Y-71277192D01*
X93158201Y-71419838D01*
X93530167Y-71420162D01*
X93873943Y-71278117D01*
X94137192Y-71015327D01*
X94279838Y-70671799D01*
X94280162Y-70299833D01*
X94138117Y-69956057D01*
X93875327Y-69692808D01*
X93531799Y-69550162D01*
X93484923Y-69550121D01*
X88718365Y-64783563D01*
X89235602Y-64998339D01*
X89831782Y-64998859D01*
X90382780Y-64771192D01*
X90804710Y-64349997D01*
X90805095Y-64349069D01*
X91225003Y-64769710D01*
X91775602Y-64998339D01*
X92371782Y-64998859D01*
X92585000Y-64910759D01*
X92585000Y-65405000D01*
X92642852Y-65695839D01*
X92807599Y-65942401D01*
X94949878Y-68084680D01*
X94949838Y-68130167D01*
X95091883Y-68473943D01*
X95354673Y-68737192D01*
X95698201Y-68879838D01*
X96070167Y-68880162D01*
X96413943Y-68738117D01*
X96677192Y-68475327D01*
X96819838Y-68131799D01*
X96820162Y-67759833D01*
X96714690Y-67504570D01*
X96968201Y-67609838D01*
X97340167Y-67610162D01*
X97683943Y-67468117D01*
X97947192Y-67205327D01*
X98089838Y-66861799D01*
X98090162Y-66489833D01*
X97948117Y-66146057D01*
X97685327Y-65882808D01*
X97341799Y-65740162D01*
X97294923Y-65740121D01*
X96645000Y-65090198D01*
X96645000Y-64910889D01*
X96855602Y-64998339D01*
X97451782Y-64998859D01*
X97690873Y-64900069D01*
X97722852Y-65060839D01*
X97887599Y-65307401D01*
X98124878Y-65544680D01*
X98124838Y-65590167D01*
X98266883Y-65933943D01*
X98529673Y-66197192D01*
X98873201Y-66339838D01*
X99245167Y-66340162D01*
X99588943Y-66198117D01*
X99852192Y-65935327D01*
X99994838Y-65591799D01*
X99995162Y-65219833D01*
X99903826Y-64998782D01*
X99991782Y-64998859D01*
X100205000Y-64910759D01*
X100205000Y-68652537D01*
X100172808Y-68684673D01*
X100030162Y-69028201D01*
X100029838Y-69400167D01*
X100171883Y-69743943D01*
X100434673Y-70007192D01*
X100778201Y-70149838D01*
X101150167Y-70150162D01*
X101493943Y-70008117D01*
X101757192Y-69745327D01*
X101899838Y-69401799D01*
X101900162Y-69029833D01*
X101758117Y-68686057D01*
X101725000Y-68652882D01*
X101725000Y-64910889D01*
X101935602Y-64998339D01*
X102531782Y-64998859D01*
X102745000Y-64910759D01*
X102745000Y-70170198D01*
X100825320Y-72089878D01*
X100779833Y-72089838D01*
X100436057Y-72231883D01*
X100172808Y-72494673D01*
X100030162Y-72838201D01*
X100029838Y-73210167D01*
X100171883Y-73553943D01*
X100434673Y-73817192D01*
X100778201Y-73959838D01*
X101150167Y-73960162D01*
X101493943Y-73818117D01*
X101757192Y-73555327D01*
X101899838Y-73211799D01*
X101899879Y-73164923D01*
X104016341Y-71048461D01*
X104244673Y-71277192D01*
X104588201Y-71419838D01*
X104670288Y-71419910D01*
X101920198Y-74170000D01*
X101527463Y-74170000D01*
X101495327Y-74137808D01*
X101151799Y-73995162D01*
X100779833Y-73994838D01*
X100436057Y-74136883D01*
X100172808Y-74399673D01*
X100030162Y-74743201D01*
X100029838Y-75115167D01*
X100171883Y-75458943D01*
X100434673Y-75722192D01*
X100778201Y-75864838D01*
X101150167Y-75865162D01*
X101493943Y-75723117D01*
X101527118Y-75690000D01*
X102235000Y-75690000D01*
X102525839Y-75632148D01*
X102772401Y-75467401D01*
X106582401Y-71657401D01*
X106747148Y-71410839D01*
X106775550Y-71268053D01*
X106784673Y-71277192D01*
X107128201Y-71419838D01*
X107500167Y-71420162D01*
X107843943Y-71278117D01*
X108107192Y-71015327D01*
X108249838Y-70671799D01*
X108250162Y-70299833D01*
X108108117Y-69956057D01*
X108075000Y-69922882D01*
X108075000Y-64807462D01*
X108162780Y-64771192D01*
X108584710Y-64349997D01*
X108585095Y-64349069D01*
X109005003Y-64769710D01*
X109555602Y-64998339D01*
X110151782Y-64998859D01*
X110702780Y-64771192D01*
X111124710Y-64349997D01*
X111125095Y-64349069D01*
X111545003Y-64769710D01*
X112095602Y-64998339D01*
X112691782Y-64998859D01*
X113242780Y-64771192D01*
X113664710Y-64349997D01*
X113665095Y-64349069D01*
X114085003Y-64769710D01*
X114635602Y-64998339D01*
X115231782Y-64998859D01*
X115782780Y-64771192D01*
X116000546Y-64553805D01*
X116600800Y-64553805D01*
X116682741Y-64806516D01*
X117243030Y-65010248D01*
X117838635Y-64984058D01*
X118267259Y-64806516D01*
X118349200Y-64553805D01*
X117475000Y-63679605D01*
X116600800Y-64553805D01*
X116000546Y-64553805D01*
X116204710Y-64349997D01*
X116221541Y-64309463D01*
X116421195Y-64374200D01*
X117295395Y-63500000D01*
X117654605Y-63500000D01*
X118528805Y-64374200D01*
X118728033Y-64309601D01*
X118743808Y-64347780D01*
X119165003Y-64769710D01*
X119715602Y-64998339D01*
X120311782Y-64998859D01*
X120862780Y-64771192D01*
X121284710Y-64349997D01*
X121513339Y-63799398D01*
X121513859Y-63203218D01*
X121286192Y-62652220D01*
X120864997Y-62230290D01*
X120314398Y-62001661D01*
X119718218Y-62001141D01*
X119167220Y-62228808D01*
X118745290Y-62650003D01*
X118728459Y-62690537D01*
X118528805Y-62625800D01*
X117654605Y-63500000D01*
X117295395Y-63500000D01*
X116421195Y-62625800D01*
X116221967Y-62690399D01*
X116206192Y-62652220D01*
X116000526Y-62446195D01*
X116600800Y-62446195D01*
X117475000Y-63320395D01*
X118349200Y-62446195D01*
X118267259Y-62193484D01*
X117706970Y-61989752D01*
X117111365Y-62015942D01*
X116682741Y-62193484D01*
X116600800Y-62446195D01*
X116000526Y-62446195D01*
X115784997Y-62230290D01*
X115234398Y-62001661D01*
X114638218Y-62001141D01*
X114087220Y-62228808D01*
X113665290Y-62650003D01*
X113664905Y-62650931D01*
X113244997Y-62230290D01*
X112694398Y-62001661D01*
X112098218Y-62001141D01*
X112008156Y-62038354D01*
X111885000Y-61915198D01*
X111885000Y-49670889D01*
X112095602Y-49758339D01*
X112691782Y-49758859D01*
X113242780Y-49531192D01*
X113664710Y-49109997D01*
X113665095Y-49109069D01*
X114085003Y-49529710D01*
X114635602Y-49758339D01*
X115231782Y-49758859D01*
X115782780Y-49531192D01*
X116204710Y-49109997D01*
X116205095Y-49109069D01*
X116625003Y-49529710D01*
X117175602Y-49758339D01*
X117771782Y-49758859D01*
X118322780Y-49531192D01*
X118744710Y-49109997D01*
X118745095Y-49109069D01*
X119165003Y-49529710D01*
X119715602Y-49758339D01*
X120311782Y-49758859D01*
X120862780Y-49531192D01*
X121284710Y-49109997D01*
X121513339Y-48559398D01*
X121513859Y-47963218D01*
X121286192Y-47412220D01*
X120864997Y-46990290D01*
X120314398Y-46761661D01*
X119718218Y-46761141D01*
X119167220Y-46988808D01*
X118745290Y-47410003D01*
X118744905Y-47410931D01*
X118324997Y-46990290D01*
X117774398Y-46761661D01*
X117178218Y-46761141D01*
X116627220Y-46988808D01*
X116205290Y-47410003D01*
X116204905Y-47410931D01*
X115784997Y-46990290D01*
X115234398Y-46761661D01*
X114638218Y-46761141D01*
X114087220Y-46988808D01*
X113665290Y-47410003D01*
X113664905Y-47410931D01*
X113244997Y-46990290D01*
X112694398Y-46761661D01*
X112098218Y-46761141D01*
X111885000Y-46849241D01*
X111885000Y-46355000D01*
X111827148Y-46064161D01*
X111662401Y-45817599D01*
X100232401Y-34387599D01*
X99985839Y-34222852D01*
X99695000Y-34165000D01*
X99053301Y-34165000D01*
X98879575Y-33905000D01*
X117108420Y-33905000D01*
X117882560Y-34679139D01*
X117882560Y-35775000D01*
X117926838Y-36010317D01*
X118065910Y-36226441D01*
X118278110Y-36371431D01*
X118530000Y-36422440D01*
X120230000Y-36422440D01*
X120465317Y-36378162D01*
X120681441Y-36239090D01*
X120826431Y-36026890D01*
X120840086Y-35959459D01*
X120869946Y-36004147D01*
X121351715Y-36326054D01*
X121920000Y-36439093D01*
X122488285Y-36326054D01*
X122970054Y-36004147D01*
X123197702Y-35663447D01*
X123264817Y-35806358D01*
X123693076Y-36196645D01*
X124103110Y-36366476D01*
X124333000Y-36245155D01*
X124333000Y-35052000D01*
X124313000Y-35052000D01*
X124313000Y-34798000D01*
X124333000Y-34798000D01*
X124333000Y-34778000D01*
X124587000Y-34778000D01*
X124587000Y-34798000D01*
X124607000Y-34798000D01*
X124607000Y-35052000D01*
X124587000Y-35052000D01*
X124587000Y-36245155D01*
X124816890Y-36366476D01*
X125226924Y-36196645D01*
X125655183Y-35806358D01*
X125722298Y-35663447D01*
X125949946Y-36004147D01*
X126431715Y-36326054D01*
X127000000Y-36439093D01*
X127568285Y-36326054D01*
X128050054Y-36004147D01*
X128270000Y-35674974D01*
X128489946Y-36004147D01*
X128971715Y-36326054D01*
X129540000Y-36439093D01*
X130108285Y-36326054D01*
X130590054Y-36004147D01*
X130810000Y-35674974D01*
X131029946Y-36004147D01*
X131511715Y-36326054D01*
X132080000Y-36439093D01*
X132648285Y-36326054D01*
X133130054Y-36004147D01*
X133350000Y-35674974D01*
X133569946Y-36004147D01*
X134051715Y-36326054D01*
X134620000Y-36439093D01*
X135188285Y-36326054D01*
X135670054Y-36004147D01*
X135890000Y-35674974D01*
X136109946Y-36004147D01*
X136591715Y-36326054D01*
X137160000Y-36439093D01*
X137728285Y-36326054D01*
X138210054Y-36004147D01*
X138430000Y-35674974D01*
X138649946Y-36004147D01*
X139131715Y-36326054D01*
X139700000Y-36439093D01*
X140268285Y-36326054D01*
X140750054Y-36004147D01*
X140970000Y-35674974D01*
X141189946Y-36004147D01*
X141671715Y-36326054D01*
X142240000Y-36439093D01*
X142808285Y-36326054D01*
X143290054Y-36004147D01*
X143510000Y-35674974D01*
X143729946Y-36004147D01*
X144211715Y-36326054D01*
X144780000Y-36439093D01*
X145348285Y-36326054D01*
X145830054Y-36004147D01*
X146050000Y-35674974D01*
X146269946Y-36004147D01*
X146751715Y-36326054D01*
X147320000Y-36439093D01*
X147888285Y-36326054D01*
X148370054Y-36004147D01*
X148691961Y-35522378D01*
X148805000Y-34954093D01*
X148805000Y-34895907D01*
X148703363Y-34384942D01*
X149610000Y-35291579D01*
X149610000Y-38099995D01*
X149609999Y-38100000D01*
X149666190Y-38382484D01*
X149677367Y-38438675D01*
X149791842Y-38610000D01*
X149869210Y-38725790D01*
X152807560Y-41664139D01*
X152807560Y-42760000D01*
X152851838Y-42995317D01*
X152990910Y-43211441D01*
X153203110Y-43356431D01*
X153270541Y-43370086D01*
X153225853Y-43399946D01*
X152903946Y-43881715D01*
X152790907Y-44450000D01*
X152903946Y-45018285D01*
X153225853Y-45500054D01*
X153566553Y-45727702D01*
X153423642Y-45794817D01*
X153033355Y-46223076D01*
X152863524Y-46633110D01*
X152984845Y-46863000D01*
X154178000Y-46863000D01*
X154178000Y-46843000D01*
X154432000Y-46843000D01*
X154432000Y-46863000D01*
X154452000Y-46863000D01*
X154452000Y-47117000D01*
X154432000Y-47117000D01*
X154432000Y-47137000D01*
X154178000Y-47137000D01*
X154178000Y-47117000D01*
X152984845Y-47117000D01*
X152863524Y-47346890D01*
X153033355Y-47756924D01*
X153423642Y-48185183D01*
X153566553Y-48252298D01*
X153225853Y-48479946D01*
X152903946Y-48961715D01*
X152790907Y-49530000D01*
X152903946Y-50098285D01*
X153225853Y-50580054D01*
X153555026Y-50800000D01*
X153225853Y-51019946D01*
X152903946Y-51501715D01*
X152790907Y-52070000D01*
X152903946Y-52638285D01*
X153225853Y-53120054D01*
X153555026Y-53340000D01*
X153225853Y-53559946D01*
X152903946Y-54041715D01*
X152790907Y-54610000D01*
X152903946Y-55178285D01*
X153225853Y-55660054D01*
X153555026Y-55880000D01*
X153225853Y-56099946D01*
X152903946Y-56581715D01*
X152790907Y-57150000D01*
X152903946Y-57718285D01*
X153225853Y-58200054D01*
X153555026Y-58420000D01*
X153225853Y-58639946D01*
X152903946Y-59121715D01*
X152790907Y-59690000D01*
X152903946Y-60258285D01*
X153225853Y-60740054D01*
X153555026Y-60960000D01*
X153225853Y-61179946D01*
X152903946Y-61661715D01*
X152790907Y-62230000D01*
X152903946Y-62798285D01*
X153225853Y-63280054D01*
X153555026Y-63500000D01*
X153225853Y-63719946D01*
X152903946Y-64201715D01*
X152790907Y-64770000D01*
X152903946Y-65338285D01*
X153225853Y-65820054D01*
X153555026Y-66040000D01*
X153225853Y-66259946D01*
X152903946Y-66741715D01*
X152790907Y-67310000D01*
X152903946Y-67878285D01*
X153225853Y-68360054D01*
X153555026Y-68580000D01*
X153225853Y-68799946D01*
X152903946Y-69281715D01*
X152790907Y-69850000D01*
X152903946Y-70418285D01*
X153225853Y-70900054D01*
X153707622Y-71221961D01*
X154275907Y-71335000D01*
X154334093Y-71335000D01*
X154845058Y-71233363D01*
X153938420Y-72140000D01*
X150495005Y-72140000D01*
X150495000Y-72139999D01*
X150212516Y-72196190D01*
X150156325Y-72207367D01*
X149869210Y-72399210D01*
X149869208Y-72399213D01*
X149551710Y-72716710D01*
X149551708Y-72716713D01*
X149234210Y-73034210D01*
X149234208Y-73034213D01*
X147964210Y-74304210D01*
X147964208Y-74304213D01*
X146930860Y-75337560D01*
X146470000Y-75337560D01*
X146234683Y-75381838D01*
X146018559Y-75520910D01*
X145873569Y-75733110D01*
X145859914Y-75800541D01*
X145830054Y-75755853D01*
X145348285Y-75433946D01*
X144780000Y-75320907D01*
X144211715Y-75433946D01*
X143729946Y-75755853D01*
X143502298Y-76096553D01*
X143435183Y-75953642D01*
X143006924Y-75563355D01*
X142596890Y-75393524D01*
X142367000Y-75514845D01*
X142367000Y-76708000D01*
X142387000Y-76708000D01*
X142387000Y-76962000D01*
X142367000Y-76962000D01*
X142367000Y-76982000D01*
X142113000Y-76982000D01*
X142113000Y-76962000D01*
X142093000Y-76962000D01*
X142093000Y-76708000D01*
X142113000Y-76708000D01*
X142113000Y-75514845D01*
X141883110Y-75393524D01*
X141473076Y-75563355D01*
X141044817Y-75953642D01*
X140977702Y-76096553D01*
X140750054Y-75755853D01*
X140268285Y-75433946D01*
X139700000Y-75320907D01*
X139131715Y-75433946D01*
X138649946Y-75755853D01*
X138430000Y-76085026D01*
X138210054Y-75755853D01*
X137728285Y-75433946D01*
X137160000Y-75320907D01*
X136591715Y-75433946D01*
X136109946Y-75755853D01*
X135890000Y-76085026D01*
X135670054Y-75755853D01*
X135188285Y-75433946D01*
X134620000Y-75320907D01*
X134051715Y-75433946D01*
X133569946Y-75755853D01*
X133350000Y-76085026D01*
X133130054Y-75755853D01*
X132648285Y-75433946D01*
X132080000Y-75320907D01*
X131511715Y-75433946D01*
X131029946Y-75755853D01*
X130810000Y-76085026D01*
X130590054Y-75755853D01*
X130108285Y-75433946D01*
X129540000Y-75320907D01*
X128971715Y-75433946D01*
X128489946Y-75755853D01*
X128270000Y-76085026D01*
X128050054Y-75755853D01*
X127568285Y-75433946D01*
X127000000Y-75320907D01*
X126431715Y-75433946D01*
X125949946Y-75755853D01*
X125730000Y-76085026D01*
X125510054Y-75755853D01*
X125028285Y-75433946D01*
X124460000Y-75320907D01*
X123891715Y-75433946D01*
X123409946Y-75755853D01*
X123190000Y-76085026D01*
X122970054Y-75755853D01*
X122488285Y-75433946D01*
X121920000Y-75320907D01*
X121351715Y-75433946D01*
X120869946Y-75755853D01*
X120650000Y-76085026D01*
X120430054Y-75755853D01*
X119948285Y-75433946D01*
X119380000Y-75320907D01*
X118811715Y-75433946D01*
X118329946Y-75755853D01*
X118008039Y-76237622D01*
X117895000Y-76805907D01*
X117895000Y-76864093D01*
X118008039Y-77432378D01*
X118290425Y-77855000D01*
X99426579Y-77855000D01*
X99282243Y-77710664D01*
X99287440Y-77685000D01*
X99287440Y-75985000D01*
X99243162Y-75749683D01*
X99104090Y-75533559D01*
X98891890Y-75388569D01*
X98640000Y-75337560D01*
X96940000Y-75337560D01*
X96704683Y-75381838D01*
X96488559Y-75520910D01*
X96343569Y-75733110D01*
X96329914Y-75800541D01*
X96300054Y-75755853D01*
X95818285Y-75433946D01*
X95250000Y-75320907D01*
X94681715Y-75433946D01*
X94199946Y-75755853D01*
X93972298Y-76096553D01*
X93905183Y-75953642D01*
X93476924Y-75563355D01*
X93066890Y-75393524D01*
X92837000Y-75514845D01*
X92837000Y-76708000D01*
X92857000Y-76708000D01*
X92857000Y-76962000D01*
X92837000Y-76962000D01*
X92837000Y-78155155D01*
X93066890Y-78276476D01*
X93476924Y-78106645D01*
X93905183Y-77716358D01*
X93972298Y-77573447D01*
X94199946Y-77914147D01*
X94681715Y-78236054D01*
X95250000Y-78349093D01*
X95818285Y-78236054D01*
X96300054Y-77914147D01*
X96327850Y-77872548D01*
X96336838Y-77920317D01*
X96475910Y-78136441D01*
X96688110Y-78281431D01*
X96940000Y-78332440D01*
X97400860Y-78332440D01*
X98316421Y-79248000D01*
X59817000Y-79248000D01*
X59817000Y-77277619D01*
X59994613Y-77277619D01*
X60334155Y-78099372D01*
X60962321Y-78728636D01*
X61783481Y-79069611D01*
X62672619Y-79070387D01*
X63494372Y-78730845D01*
X64123636Y-78102679D01*
X64464611Y-77281519D01*
X64465387Y-76392381D01*
X64125845Y-75570628D01*
X63497679Y-74941364D01*
X62676519Y-74600389D01*
X61787381Y-74599613D01*
X60965628Y-74939155D01*
X60336364Y-75567321D01*
X59995389Y-76388481D01*
X59994613Y-77277619D01*
X59817000Y-77277619D01*
X59817000Y-49313805D01*
X70880800Y-49313805D01*
X70962741Y-49566516D01*
X71523030Y-49770248D01*
X72118635Y-49744058D01*
X72547259Y-49566516D01*
X72629200Y-49313805D01*
X73420800Y-49313805D01*
X73502741Y-49566516D01*
X74063030Y-49770248D01*
X74658635Y-49744058D01*
X75087259Y-49566516D01*
X75169200Y-49313805D01*
X74295000Y-48439605D01*
X73420800Y-49313805D01*
X72629200Y-49313805D01*
X71755000Y-48439605D01*
X70880800Y-49313805D01*
X59817000Y-49313805D01*
X59817000Y-48028030D01*
X70244752Y-48028030D01*
X70270942Y-48623635D01*
X70448484Y-49052259D01*
X70701195Y-49134200D01*
X71575395Y-48260000D01*
X71934605Y-48260000D01*
X72808805Y-49134200D01*
X73025000Y-49064099D01*
X73241195Y-49134200D01*
X74115395Y-48260000D01*
X73241195Y-47385800D01*
X73025000Y-47455901D01*
X72808805Y-47385800D01*
X71934605Y-48260000D01*
X71575395Y-48260000D01*
X70701195Y-47385800D01*
X70448484Y-47467741D01*
X70244752Y-48028030D01*
X59817000Y-48028030D01*
X59817000Y-47206195D01*
X70880800Y-47206195D01*
X71755000Y-48080395D01*
X72629200Y-47206195D01*
X73420800Y-47206195D01*
X74295000Y-48080395D01*
X75169200Y-47206195D01*
X75087259Y-46953484D01*
X74526970Y-46749752D01*
X73931365Y-46775942D01*
X73502741Y-46953484D01*
X73420800Y-47206195D01*
X72629200Y-47206195D01*
X72547259Y-46953484D01*
X71986970Y-46749752D01*
X71391365Y-46775942D01*
X70962741Y-46953484D01*
X70880800Y-47206195D01*
X59817000Y-47206195D01*
X59817000Y-35367619D01*
X59994613Y-35367619D01*
X60334155Y-36189372D01*
X60962321Y-36818636D01*
X61783481Y-37159611D01*
X62672619Y-37160387D01*
X63494372Y-36820845D01*
X64123636Y-36192679D01*
X64464611Y-35371519D01*
X64465387Y-34482381D01*
X64125845Y-33660628D01*
X63497679Y-33031364D01*
X62676519Y-32690389D01*
X61787381Y-32689613D01*
X60965628Y-33029155D01*
X60336364Y-33657321D01*
X59995389Y-34478481D01*
X59994613Y-35367619D01*
X59817000Y-35367619D01*
X59817000Y-32512000D01*
X70376421Y-32512000D01*
X69460860Y-33427560D01*
G36*
X103060853Y-121065054D02*
X103542622Y-121386961D01*
X104110907Y-121500000D01*
X104169093Y-121500000D01*
X104737378Y-121386961D01*
X105163171Y-121102456D01*
X105410000Y-121152440D01*
X106553000Y-121152440D01*
X106553000Y-129413000D01*
X96628579Y-129413000D01*
X96909139Y-129132440D01*
X98005000Y-129132440D01*
X98240317Y-129088162D01*
X98456441Y-128949090D01*
X98601431Y-128736890D01*
X98652440Y-128485000D01*
X98652440Y-127442619D01*
X101904613Y-127442619D01*
X102244155Y-128264372D01*
X102872321Y-128893636D01*
X103693481Y-129234611D01*
X104582619Y-129235387D01*
X105404372Y-128895845D01*
X106033636Y-128267679D01*
X106374611Y-127446519D01*
X106375387Y-126557381D01*
X106035845Y-125735628D01*
X105407679Y-125106364D01*
X104586519Y-124765389D01*
X103697381Y-124764613D01*
X102875628Y-125104155D01*
X102246364Y-125732321D01*
X101905389Y-126553481D01*
X101904613Y-127442619D01*
X98652440Y-127442619D01*
X98652440Y-126785000D01*
X98608162Y-126549683D01*
X98469090Y-126333559D01*
X98256890Y-126188569D01*
X98005000Y-126137560D01*
X96305000Y-126137560D01*
X96069683Y-126181838D01*
X95853559Y-126320910D01*
X95708569Y-126533110D01*
X95694914Y-126600541D01*
X95665054Y-126555853D01*
X95183285Y-126233946D01*
X94615000Y-126120907D01*
X94046715Y-126233946D01*
X93564946Y-126555853D01*
X93337298Y-126896553D01*
X93270183Y-126753642D01*
X92841924Y-126363355D01*
X92431890Y-126193524D01*
X92202000Y-126314845D01*
X92202000Y-127508000D01*
X92222000Y-127508000D01*
X92222000Y-127762000D01*
X92202000Y-127762000D01*
X92202000Y-127782000D01*
X91948000Y-127782000D01*
X91948000Y-127762000D01*
X91928000Y-127762000D01*
X91928000Y-127508000D01*
X91948000Y-127508000D01*
X91948000Y-126314845D01*
X91718110Y-126193524D01*
X91308076Y-126363355D01*
X90879817Y-126753642D01*
X90812702Y-126896553D01*
X90585054Y-126555853D01*
X90103285Y-126233946D01*
X89535000Y-126120907D01*
X88966715Y-126233946D01*
X88484946Y-126555853D01*
X88265000Y-126885026D01*
X88045054Y-126555853D01*
X87759422Y-126365000D01*
X88045054Y-126174147D01*
X88366961Y-125692378D01*
X88480000Y-125124093D01*
X88480000Y-125065907D01*
X88366961Y-124497622D01*
X88045054Y-124015853D01*
X87759422Y-123825000D01*
X88045054Y-123634147D01*
X88265000Y-123304974D01*
X88484946Y-123634147D01*
X88966715Y-123956054D01*
X89535000Y-124069093D01*
X90103285Y-123956054D01*
X90585054Y-123634147D01*
X90805000Y-123304974D01*
X91024946Y-123634147D01*
X91506715Y-123956054D01*
X92075000Y-124069093D01*
X92643285Y-123956054D01*
X93125054Y-123634147D01*
X93345000Y-123304974D01*
X93564946Y-123634147D01*
X94046715Y-123956054D01*
X94615000Y-124069093D01*
X95183285Y-123956054D01*
X95665054Y-123634147D01*
X95885000Y-123304974D01*
X96104946Y-123634147D01*
X96586715Y-123956054D01*
X97155000Y-124069093D01*
X97723285Y-123956054D01*
X98205054Y-123634147D01*
X98425000Y-123304974D01*
X98644946Y-123634147D01*
X99126715Y-123956054D01*
X99695000Y-124069093D01*
X100263285Y-123956054D01*
X100745054Y-123634147D01*
X101066961Y-123152378D01*
X101180000Y-122584093D01*
X101180000Y-122525907D01*
X101066961Y-121957622D01*
X100745054Y-121475853D01*
X100452198Y-121280173D01*
X100774147Y-121065054D01*
X100967954Y-120775000D01*
X102867046Y-120775000D01*
X103060853Y-121065054D01*
X103060853Y-121065054D01*
G37*
X103060853Y-121065054D02*
X103542622Y-121386961D01*
X104110907Y-121500000D01*
X104169093Y-121500000D01*
X104737378Y-121386961D01*
X105163171Y-121102456D01*
X105410000Y-121152440D01*
X106553000Y-121152440D01*
X106553000Y-129413000D01*
X96628579Y-129413000D01*
X96909139Y-129132440D01*
X98005000Y-129132440D01*
X98240317Y-129088162D01*
X98456441Y-128949090D01*
X98601431Y-128736890D01*
X98652440Y-128485000D01*
X98652440Y-127442619D01*
X101904613Y-127442619D01*
X102244155Y-128264372D01*
X102872321Y-128893636D01*
X103693481Y-129234611D01*
X104582619Y-129235387D01*
X105404372Y-128895845D01*
X106033636Y-128267679D01*
X106374611Y-127446519D01*
X106375387Y-126557381D01*
X106035845Y-125735628D01*
X105407679Y-125106364D01*
X104586519Y-124765389D01*
X103697381Y-124764613D01*
X102875628Y-125104155D01*
X102246364Y-125732321D01*
X101905389Y-126553481D01*
X101904613Y-127442619D01*
X98652440Y-127442619D01*
X98652440Y-126785000D01*
X98608162Y-126549683D01*
X98469090Y-126333559D01*
X98256890Y-126188569D01*
X98005000Y-126137560D01*
X96305000Y-126137560D01*
X96069683Y-126181838D01*
X95853559Y-126320910D01*
X95708569Y-126533110D01*
X95694914Y-126600541D01*
X95665054Y-126555853D01*
X95183285Y-126233946D01*
X94615000Y-126120907D01*
X94046715Y-126233946D01*
X93564946Y-126555853D01*
X93337298Y-126896553D01*
X93270183Y-126753642D01*
X92841924Y-126363355D01*
X92431890Y-126193524D01*
X92202000Y-126314845D01*
X92202000Y-127508000D01*
X92222000Y-127508000D01*
X92222000Y-127762000D01*
X92202000Y-127762000D01*
X92202000Y-127782000D01*
X91948000Y-127782000D01*
X91948000Y-127762000D01*
X91928000Y-127762000D01*
X91928000Y-127508000D01*
X91948000Y-127508000D01*
X91948000Y-126314845D01*
X91718110Y-126193524D01*
X91308076Y-126363355D01*
X90879817Y-126753642D01*
X90812702Y-126896553D01*
X90585054Y-126555853D01*
X90103285Y-126233946D01*
X89535000Y-126120907D01*
X88966715Y-126233946D01*
X88484946Y-126555853D01*
X88265000Y-126885026D01*
X88045054Y-126555853D01*
X87759422Y-126365000D01*
X88045054Y-126174147D01*
X88366961Y-125692378D01*
X88480000Y-125124093D01*
X88480000Y-125065907D01*
X88366961Y-124497622D01*
X88045054Y-124015853D01*
X87759422Y-123825000D01*
X88045054Y-123634147D01*
X88265000Y-123304974D01*
X88484946Y-123634147D01*
X88966715Y-123956054D01*
X89535000Y-124069093D01*
X90103285Y-123956054D01*
X90585054Y-123634147D01*
X90805000Y-123304974D01*
X91024946Y-123634147D01*
X91506715Y-123956054D01*
X92075000Y-124069093D01*
X92643285Y-123956054D01*
X93125054Y-123634147D01*
X93345000Y-123304974D01*
X93564946Y-123634147D01*
X94046715Y-123956054D01*
X94615000Y-124069093D01*
X95183285Y-123956054D01*
X95665054Y-123634147D01*
X95885000Y-123304974D01*
X96104946Y-123634147D01*
X96586715Y-123956054D01*
X97155000Y-124069093D01*
X97723285Y-123956054D01*
X98205054Y-123634147D01*
X98425000Y-123304974D01*
X98644946Y-123634147D01*
X99126715Y-123956054D01*
X99695000Y-124069093D01*
X100263285Y-123956054D01*
X100745054Y-123634147D01*
X101066961Y-123152378D01*
X101180000Y-122584093D01*
X101180000Y-122525907D01*
X101066961Y-121957622D01*
X100745054Y-121475853D01*
X100452198Y-121280173D01*
X100774147Y-121065054D01*
X100967954Y-120775000D01*
X102867046Y-120775000D01*
X103060853Y-121065054D01*
G36*
X106553000Y-102367560D02*
X105627725Y-102367560D01*
X105654093Y-102235000D01*
X105541054Y-101666715D01*
X105219147Y-101184946D01*
X104889974Y-100965000D01*
X105219147Y-100745054D01*
X105541054Y-100263285D01*
X105654093Y-99695000D01*
X105541054Y-99126715D01*
X105219147Y-98644946D01*
X104878447Y-98417298D01*
X105021358Y-98350183D01*
X105411645Y-97921924D01*
X105581476Y-97511890D01*
X105460155Y-97282000D01*
X104267000Y-97282000D01*
X104267000Y-97302000D01*
X104013000Y-97302000D01*
X104013000Y-97282000D01*
X102819845Y-97282000D01*
X102698524Y-97511890D01*
X102868355Y-97921924D01*
X103258642Y-98350183D01*
X103401553Y-98417298D01*
X103060853Y-98644946D01*
X102738946Y-99126715D01*
X102625907Y-99695000D01*
X102652275Y-99827560D01*
X101600000Y-99827560D01*
X101364683Y-99871838D01*
X101148559Y-100010910D01*
X101112431Y-100063785D01*
X101180000Y-99724093D01*
X101180000Y-99665907D01*
X101066961Y-99097622D01*
X100745054Y-98615853D01*
X100459422Y-98425000D01*
X100745054Y-98234147D01*
X101066961Y-97752378D01*
X101180000Y-97184093D01*
X101180000Y-97125907D01*
X101066961Y-96557622D01*
X100745054Y-96075853D01*
X100461899Y-95886655D01*
X100461924Y-95886645D01*
X100890183Y-95496358D01*
X101136486Y-94971892D01*
X101015819Y-94742000D01*
X99822000Y-94742000D01*
X99822000Y-94762000D01*
X99568000Y-94762000D01*
X99568000Y-94742000D01*
X97282000Y-94742000D01*
X97282000Y-94762000D01*
X97028000Y-94762000D01*
X97028000Y-94742000D01*
X94742000Y-94742000D01*
X94742000Y-94762000D01*
X94488000Y-94762000D01*
X94488000Y-94742000D01*
X92202000Y-94742000D01*
X92202000Y-94762000D01*
X91948000Y-94762000D01*
X91948000Y-94742000D01*
X89662000Y-94742000D01*
X89662000Y-94762000D01*
X89408000Y-94762000D01*
X89408000Y-94742000D01*
X87122000Y-94742000D01*
X87122000Y-94762000D01*
X86868000Y-94762000D01*
X86868000Y-94742000D01*
X84582000Y-94742000D01*
X84582000Y-94762000D01*
X84328000Y-94762000D01*
X84328000Y-94742000D01*
X82042000Y-94742000D01*
X82042000Y-94762000D01*
X81788000Y-94762000D01*
X81788000Y-94742000D01*
X79502000Y-94742000D01*
X79502000Y-94762000D01*
X79248000Y-94762000D01*
X79248000Y-94742000D01*
X76962000Y-94742000D01*
X76962000Y-94762000D01*
X76708000Y-94762000D01*
X76708000Y-94742000D01*
X74422000Y-94742000D01*
X74422000Y-94762000D01*
X74168000Y-94762000D01*
X74168000Y-94742000D01*
X71882000Y-94742000D01*
X71882000Y-94762000D01*
X71628000Y-94762000D01*
X71628000Y-94742000D01*
X69342000Y-94742000D01*
X69342000Y-94762000D01*
X69088000Y-94762000D01*
X69088000Y-94742000D01*
X66802000Y-94742000D01*
X66802000Y-94762000D01*
X66548000Y-94762000D01*
X66548000Y-94742000D01*
X65348750Y-94742000D01*
X65190000Y-94900750D01*
X65190000Y-95591309D01*
X65286673Y-95824698D01*
X65344871Y-95882896D01*
X65228569Y-96053110D01*
X65177560Y-96305000D01*
X65177560Y-98005000D01*
X65221838Y-98240317D01*
X65342015Y-98427077D01*
X65228569Y-98593110D01*
X65177560Y-98845000D01*
X65177560Y-100246235D01*
X65119160Y-100257852D01*
X64872599Y-100422599D01*
X64557638Y-100737560D01*
X63285000Y-100737560D01*
X63049683Y-100781838D01*
X62833559Y-100920910D01*
X62688569Y-101133110D01*
X62677159Y-101189454D01*
X62674147Y-101184946D01*
X62344974Y-100965000D01*
X62674147Y-100745054D01*
X62996054Y-100263285D01*
X63109093Y-99695000D01*
X62996054Y-99126715D01*
X62674147Y-98644946D01*
X62333447Y-98417298D01*
X62476358Y-98350183D01*
X62866645Y-97921924D01*
X63036476Y-97511890D01*
X62915155Y-97282000D01*
X61722000Y-97282000D01*
X61722000Y-97302000D01*
X61468000Y-97302000D01*
X61468000Y-97282000D01*
X61448000Y-97282000D01*
X61448000Y-97028000D01*
X61468000Y-97028000D01*
X61468000Y-97008000D01*
X61722000Y-97008000D01*
X61722000Y-97028000D01*
X62915155Y-97028000D01*
X63036476Y-96798110D01*
X62866645Y-96388076D01*
X62476358Y-95959817D01*
X62333447Y-95892702D01*
X62674147Y-95665054D01*
X62996054Y-95183285D01*
X63109093Y-94615000D01*
X102625907Y-94615000D01*
X102738946Y-95183285D01*
X103060853Y-95665054D01*
X103401553Y-95892702D01*
X103258642Y-95959817D01*
X102868355Y-96388076D01*
X102698524Y-96798110D01*
X102819845Y-97028000D01*
X104013000Y-97028000D01*
X104013000Y-97008000D01*
X104267000Y-97008000D01*
X104267000Y-97028000D01*
X105460155Y-97028000D01*
X105581476Y-96798110D01*
X105411645Y-96388076D01*
X105021358Y-95959817D01*
X104878447Y-95892702D01*
X105219147Y-95665054D01*
X105541054Y-95183285D01*
X105654093Y-94615000D01*
X105541054Y-94046715D01*
X105219147Y-93564946D01*
X105177548Y-93537150D01*
X105225317Y-93528162D01*
X105441441Y-93389090D01*
X105586431Y-93176890D01*
X105637440Y-92925000D01*
X105637440Y-91225000D01*
X105593162Y-90989683D01*
X105454090Y-90773559D01*
X105241890Y-90628569D01*
X104990000Y-90577560D01*
X103290000Y-90577560D01*
X103054683Y-90621838D01*
X102838559Y-90760910D01*
X102693569Y-90973110D01*
X102642560Y-91225000D01*
X102642560Y-92925000D01*
X102686838Y-93160317D01*
X102825910Y-93376441D01*
X103038110Y-93521431D01*
X103105541Y-93535086D01*
X103060853Y-93564946D01*
X102738946Y-94046715D01*
X102625907Y-94615000D01*
X63109093Y-94615000D01*
X62996054Y-94046715D01*
X62674147Y-93564946D01*
X62632548Y-93537150D01*
X62680317Y-93528162D01*
X62896441Y-93389090D01*
X63041431Y-93176890D01*
X63092440Y-92925000D01*
X63092440Y-91225000D01*
X63048162Y-90989683D01*
X62909090Y-90773559D01*
X62696890Y-90628569D01*
X62445000Y-90577560D01*
X60745000Y-90577560D01*
X60509683Y-90621838D01*
X60293559Y-90760910D01*
X60148569Y-90973110D01*
X60097560Y-91225000D01*
X60097560Y-91235240D01*
X59986326Y-91257366D01*
X59986324Y-91257367D01*
X59986325Y-91257367D01*
X59817000Y-91370506D01*
X59817000Y-88265000D01*
X63884999Y-88265000D01*
X63885000Y-88265005D01*
X63885000Y-91439995D01*
X63884999Y-91440000D01*
X63941190Y-91722484D01*
X63952367Y-91778675D01*
X64130925Y-92045907D01*
X64144210Y-92065790D01*
X64779208Y-92700787D01*
X64779210Y-92700790D01*
X64971054Y-92828975D01*
X65066326Y-92892634D01*
X65177560Y-92914760D01*
X65177560Y-92925000D01*
X65221838Y-93160317D01*
X65343144Y-93348831D01*
X65286673Y-93405302D01*
X65190000Y-93638691D01*
X65190000Y-94329250D01*
X65348750Y-94488000D01*
X66548000Y-94488000D01*
X66548000Y-94468000D01*
X66802000Y-94468000D01*
X66802000Y-94488000D01*
X69088000Y-94488000D01*
X69088000Y-94468000D01*
X69342000Y-94468000D01*
X69342000Y-94488000D01*
X71628000Y-94488000D01*
X71628000Y-94468000D01*
X71882000Y-94468000D01*
X71882000Y-94488000D01*
X74168000Y-94488000D01*
X74168000Y-94468000D01*
X74422000Y-94468000D01*
X74422000Y-94488000D01*
X76708000Y-94488000D01*
X76708000Y-94468000D01*
X76962000Y-94468000D01*
X76962000Y-94488000D01*
X79248000Y-94488000D01*
X79248000Y-94468000D01*
X79502000Y-94468000D01*
X79502000Y-94488000D01*
X81788000Y-94488000D01*
X81788000Y-94468000D01*
X82042000Y-94468000D01*
X82042000Y-94488000D01*
X84328000Y-94488000D01*
X84328000Y-94468000D01*
X84582000Y-94468000D01*
X84582000Y-94488000D01*
X86868000Y-94488000D01*
X86868000Y-94468000D01*
X87122000Y-94468000D01*
X87122000Y-94488000D01*
X89408000Y-94488000D01*
X89408000Y-94468000D01*
X89662000Y-94468000D01*
X89662000Y-94488000D01*
X91948000Y-94488000D01*
X91948000Y-94468000D01*
X92202000Y-94468000D01*
X92202000Y-94488000D01*
X94488000Y-94488000D01*
X94488000Y-94468000D01*
X94742000Y-94468000D01*
X94742000Y-94488000D01*
X97028000Y-94488000D01*
X97028000Y-94468000D01*
X97282000Y-94468000D01*
X97282000Y-94488000D01*
X99568000Y-94488000D01*
X99568000Y-94468000D01*
X99822000Y-94468000D01*
X99822000Y-94488000D01*
X101015819Y-94488000D01*
X101136486Y-94258108D01*
X100890183Y-93733642D01*
X100461924Y-93343355D01*
X100461899Y-93343345D01*
X100745054Y-93154147D01*
X101066961Y-92672378D01*
X101180000Y-92104093D01*
X101180000Y-92045907D01*
X101066961Y-91477622D01*
X100745054Y-90995853D01*
X100459422Y-90805000D01*
X100745054Y-90614147D01*
X101066961Y-90132378D01*
X101180000Y-89564093D01*
X101180000Y-89505907D01*
X101066961Y-88937622D01*
X100745054Y-88455853D01*
X100263285Y-88133946D01*
X99695000Y-88020907D01*
X99126715Y-88133946D01*
X98644946Y-88455853D01*
X98425000Y-88785026D01*
X98205054Y-88455853D01*
X97919422Y-88265000D01*
X98205054Y-88074147D01*
X98526961Y-87592378D01*
X98640000Y-87024093D01*
X98640000Y-86965907D01*
X98526961Y-86397622D01*
X98205054Y-85915853D01*
X97919422Y-85725000D01*
X98205054Y-85534147D01*
X98206074Y-85532619D01*
X101904613Y-85532619D01*
X102244155Y-86354372D01*
X102872321Y-86983636D01*
X103693481Y-87324611D01*
X104582619Y-87325387D01*
X105404372Y-86985845D01*
X106033636Y-86357679D01*
X106374611Y-85536519D01*
X106375387Y-84647381D01*
X106035845Y-83825628D01*
X105407679Y-83196364D01*
X104586519Y-82855389D01*
X103697381Y-82854613D01*
X102875628Y-83194155D01*
X102246364Y-83822321D01*
X101905389Y-84643481D01*
X101904613Y-85532619D01*
X98206074Y-85532619D01*
X98526961Y-85052378D01*
X98640000Y-84484093D01*
X98640000Y-84425907D01*
X98526961Y-83857622D01*
X98205054Y-83375853D01*
X97723285Y-83053946D01*
X97155000Y-82940907D01*
X96586715Y-83053946D01*
X96104946Y-83375853D01*
X95885000Y-83705026D01*
X95665054Y-83375853D01*
X95183285Y-83053946D01*
X94615000Y-82940907D01*
X94046715Y-83053946D01*
X93564946Y-83375853D01*
X93345000Y-83705026D01*
X93125054Y-83375853D01*
X92643285Y-83053946D01*
X92075000Y-82940907D01*
X91506715Y-83053946D01*
X91024946Y-83375853D01*
X90805000Y-83705026D01*
X90585054Y-83375853D01*
X90103285Y-83053946D01*
X89535000Y-82940907D01*
X88966715Y-83053946D01*
X88484946Y-83375853D01*
X88265000Y-83705026D01*
X88045054Y-83375853D01*
X87563285Y-83053946D01*
X86995000Y-82940907D01*
X86426715Y-83053946D01*
X85944946Y-83375853D01*
X85725000Y-83705026D01*
X85505054Y-83375853D01*
X85023285Y-83053946D01*
X84455000Y-82940907D01*
X83886715Y-83053946D01*
X83404946Y-83375853D01*
X83185000Y-83705026D01*
X82965054Y-83375853D01*
X82483285Y-83053946D01*
X81915000Y-82940907D01*
X81346715Y-83053946D01*
X80864946Y-83375853D01*
X80645000Y-83705026D01*
X80425054Y-83375853D01*
X79943285Y-83053946D01*
X79375000Y-82940907D01*
X78806715Y-83053946D01*
X78324946Y-83375853D01*
X78105000Y-83705026D01*
X77885054Y-83375853D01*
X77403285Y-83053946D01*
X76835000Y-82940907D01*
X76266715Y-83053946D01*
X75784946Y-83375853D01*
X75557298Y-83716553D01*
X75490183Y-83573642D01*
X75061924Y-83183355D01*
X74651890Y-83013524D01*
X74422000Y-83134845D01*
X74422000Y-84328000D01*
X74442000Y-84328000D01*
X74442000Y-84582000D01*
X74422000Y-84582000D01*
X74422000Y-85775155D01*
X74651890Y-85896476D01*
X75061924Y-85726645D01*
X75490183Y-85336358D01*
X75557298Y-85193447D01*
X75784946Y-85534147D01*
X76266715Y-85856054D01*
X76835000Y-85969093D01*
X77403285Y-85856054D01*
X77885054Y-85534147D01*
X78105000Y-85204974D01*
X78324946Y-85534147D01*
X78326179Y-85534971D01*
X78289683Y-85541838D01*
X78073559Y-85680910D01*
X77928569Y-85893110D01*
X77877560Y-86145000D01*
X77877560Y-87845000D01*
X77921838Y-88080317D01*
X78060910Y-88296441D01*
X78273110Y-88441431D01*
X78329454Y-88452841D01*
X78324946Y-88455853D01*
X78105000Y-88785026D01*
X77885054Y-88455853D01*
X77403285Y-88133946D01*
X76835000Y-88020907D01*
X76266715Y-88133946D01*
X75784946Y-88455853D01*
X75565000Y-88785026D01*
X75345054Y-88455853D01*
X74863285Y-88133946D01*
X74295000Y-88020907D01*
X73726715Y-88133946D01*
X73244946Y-88455853D01*
X73025000Y-88785026D01*
X72805054Y-88455853D01*
X72323285Y-88133946D01*
X71755000Y-88020907D01*
X71186715Y-88133946D01*
X70704946Y-88455853D01*
X70485000Y-88785026D01*
X70265054Y-88455853D01*
X69783285Y-88133946D01*
X69215000Y-88020907D01*
X68646715Y-88133946D01*
X68164946Y-88455853D01*
X68137150Y-88497452D01*
X68128162Y-88449683D01*
X67989090Y-88233559D01*
X67776890Y-88088569D01*
X67525000Y-88037560D01*
X66249019Y-88037560D01*
X66406579Y-87880000D01*
X70484995Y-87880000D01*
X70485000Y-87880001D01*
X70767484Y-87823810D01*
X70823675Y-87812633D01*
X71110790Y-87620790D01*
X72380787Y-86350792D01*
X72380790Y-86350790D01*
X72572633Y-86063675D01*
X72602037Y-85915853D01*
X72640001Y-85725000D01*
X72640000Y-85724995D01*
X72640000Y-85644432D01*
X72805054Y-85534147D01*
X73032702Y-85193447D01*
X73099817Y-85336358D01*
X73528076Y-85726645D01*
X73938110Y-85896476D01*
X74168000Y-85775155D01*
X74168000Y-84582000D01*
X74148000Y-84582000D01*
X74148000Y-84328000D01*
X74168000Y-84328000D01*
X74168000Y-83134845D01*
X73938110Y-83013524D01*
X73528076Y-83183355D01*
X73099817Y-83573642D01*
X73032702Y-83716553D01*
X72805054Y-83375853D01*
X72323285Y-83053946D01*
X71755000Y-82940907D01*
X71186715Y-83053946D01*
X70704946Y-83375853D01*
X70677150Y-83417452D01*
X70668162Y-83369683D01*
X70529090Y-83153559D01*
X70316890Y-83008569D01*
X70065000Y-82957560D01*
X68365000Y-82957560D01*
X68129683Y-83001838D01*
X67913559Y-83140910D01*
X67768569Y-83353110D01*
X67717560Y-83605000D01*
X67717560Y-85305000D01*
X67761838Y-85540317D01*
X67900910Y-85756441D01*
X68113110Y-85901431D01*
X68365000Y-85952440D01*
X70065000Y-85952440D01*
X70300317Y-85908162D01*
X70356251Y-85872170D01*
X70118420Y-86110000D01*
X66040005Y-86110000D01*
X66040000Y-86109999D01*
X65701325Y-86177367D01*
X65414210Y-86369210D01*
X65414208Y-86369213D01*
X64144210Y-87639210D01*
X63952367Y-87926325D01*
X63952367Y-87926326D01*
X63884999Y-88265000D01*
X59817000Y-88265000D01*
X59817000Y-85532619D01*
X59994613Y-85532619D01*
X60334155Y-86354372D01*
X60962321Y-86983636D01*
X61783481Y-87324611D01*
X62672619Y-87325387D01*
X63494372Y-86985845D01*
X64123636Y-86357679D01*
X64464611Y-85536519D01*
X64465387Y-84647381D01*
X64125845Y-83825628D01*
X63497679Y-83196364D01*
X62676519Y-82855389D01*
X61787381Y-82854613D01*
X60965628Y-83194155D01*
X60336364Y-83822321D01*
X59995389Y-84643481D01*
X59994613Y-85532619D01*
X59817000Y-85532619D01*
X59817000Y-82677000D01*
X106553000Y-82677000D01*
X106553000Y-102367560D01*
X106553000Y-102367560D01*
G37*
X106553000Y-102367560D02*
X105627725Y-102367560D01*
X105654093Y-102235000D01*
X105541054Y-101666715D01*
X105219147Y-101184946D01*
X104889974Y-100965000D01*
X105219147Y-100745054D01*
X105541054Y-100263285D01*
X105654093Y-99695000D01*
X105541054Y-99126715D01*
X105219147Y-98644946D01*
X104878447Y-98417298D01*
X105021358Y-98350183D01*
X105411645Y-97921924D01*
X105581476Y-97511890D01*
X105460155Y-97282000D01*
X104267000Y-97282000D01*
X104267000Y-97302000D01*
X104013000Y-97302000D01*
X104013000Y-97282000D01*
X102819845Y-97282000D01*
X102698524Y-97511890D01*
X102868355Y-97921924D01*
X103258642Y-98350183D01*
X103401553Y-98417298D01*
X103060853Y-98644946D01*
X102738946Y-99126715D01*
X102625907Y-99695000D01*
X102652275Y-99827560D01*
X101600000Y-99827560D01*
X101364683Y-99871838D01*
X101148559Y-100010910D01*
X101112431Y-100063785D01*
X101180000Y-99724093D01*
X101180000Y-99665907D01*
X101066961Y-99097622D01*
X100745054Y-98615853D01*
X100459422Y-98425000D01*
X100745054Y-98234147D01*
X101066961Y-97752378D01*
X101180000Y-97184093D01*
X101180000Y-97125907D01*
X101066961Y-96557622D01*
X100745054Y-96075853D01*
X100461899Y-95886655D01*
X100461924Y-95886645D01*
X100890183Y-95496358D01*
X101136486Y-94971892D01*
X101015819Y-94742000D01*
X99822000Y-94742000D01*
X99822000Y-94762000D01*
X99568000Y-94762000D01*
X99568000Y-94742000D01*
X97282000Y-94742000D01*
X97282000Y-94762000D01*
X97028000Y-94762000D01*
X97028000Y-94742000D01*
X94742000Y-94742000D01*
X94742000Y-94762000D01*
X94488000Y-94762000D01*
X94488000Y-94742000D01*
X92202000Y-94742000D01*
X92202000Y-94762000D01*
X91948000Y-94762000D01*
X91948000Y-94742000D01*
X89662000Y-94742000D01*
X89662000Y-94762000D01*
X89408000Y-94762000D01*
X89408000Y-94742000D01*
X87122000Y-94742000D01*
X87122000Y-94762000D01*
X86868000Y-94762000D01*
X86868000Y-94742000D01*
X84582000Y-94742000D01*
X84582000Y-94762000D01*
X84328000Y-94762000D01*
X84328000Y-94742000D01*
X82042000Y-94742000D01*
X82042000Y-94762000D01*
X81788000Y-94762000D01*
X81788000Y-94742000D01*
X79502000Y-94742000D01*
X79502000Y-94762000D01*
X79248000Y-94762000D01*
X79248000Y-94742000D01*
X76962000Y-94742000D01*
X76962000Y-94762000D01*
X76708000Y-94762000D01*
X76708000Y-94742000D01*
X74422000Y-94742000D01*
X74422000Y-94762000D01*
X74168000Y-94762000D01*
X74168000Y-94742000D01*
X71882000Y-94742000D01*
X71882000Y-94762000D01*
X71628000Y-94762000D01*
X71628000Y-94742000D01*
X69342000Y-94742000D01*
X69342000Y-94762000D01*
X69088000Y-94762000D01*
X69088000Y-94742000D01*
X66802000Y-94742000D01*
X66802000Y-94762000D01*
X66548000Y-94762000D01*
X66548000Y-94742000D01*
X65348750Y-94742000D01*
X65190000Y-94900750D01*
X65190000Y-95591309D01*
X65286673Y-95824698D01*
X65344871Y-95882896D01*
X65228569Y-96053110D01*
X65177560Y-96305000D01*
X65177560Y-98005000D01*
X65221838Y-98240317D01*
X65342015Y-98427077D01*
X65228569Y-98593110D01*
X65177560Y-98845000D01*
X65177560Y-100246235D01*
X65119160Y-100257852D01*
X64872599Y-100422599D01*
X64557638Y-100737560D01*
X63285000Y-100737560D01*
X63049683Y-100781838D01*
X62833559Y-100920910D01*
X62688569Y-101133110D01*
X62677159Y-101189454D01*
X62674147Y-101184946D01*
X62344974Y-100965000D01*
X62674147Y-100745054D01*
X62996054Y-100263285D01*
X63109093Y-99695000D01*
X62996054Y-99126715D01*
X62674147Y-98644946D01*
X62333447Y-98417298D01*
X62476358Y-98350183D01*
X62866645Y-97921924D01*
X63036476Y-97511890D01*
X62915155Y-97282000D01*
X61722000Y-97282000D01*
X61722000Y-97302000D01*
X61468000Y-97302000D01*
X61468000Y-97282000D01*
X61448000Y-97282000D01*
X61448000Y-97028000D01*
X61468000Y-97028000D01*
X61468000Y-97008000D01*
X61722000Y-97008000D01*
X61722000Y-97028000D01*
X62915155Y-97028000D01*
X63036476Y-96798110D01*
X62866645Y-96388076D01*
X62476358Y-95959817D01*
X62333447Y-95892702D01*
X62674147Y-95665054D01*
X62996054Y-95183285D01*
X63109093Y-94615000D01*
X102625907Y-94615000D01*
X102738946Y-95183285D01*
X103060853Y-95665054D01*
X103401553Y-95892702D01*
X103258642Y-95959817D01*
X102868355Y-96388076D01*
X102698524Y-96798110D01*
X102819845Y-97028000D01*
X104013000Y-97028000D01*
X104013000Y-97008000D01*
X104267000Y-97008000D01*
X104267000Y-97028000D01*
X105460155Y-97028000D01*
X105581476Y-96798110D01*
X105411645Y-96388076D01*
X105021358Y-95959817D01*
X104878447Y-95892702D01*
X105219147Y-95665054D01*
X105541054Y-95183285D01*
X105654093Y-94615000D01*
X105541054Y-94046715D01*
X105219147Y-93564946D01*
X105177548Y-93537150D01*
X105225317Y-93528162D01*
X105441441Y-93389090D01*
X105586431Y-93176890D01*
X105637440Y-92925000D01*
X105637440Y-91225000D01*
X105593162Y-90989683D01*
X105454090Y-90773559D01*
X105241890Y-90628569D01*
X104990000Y-90577560D01*
X103290000Y-90577560D01*
X103054683Y-90621838D01*
X102838559Y-90760910D01*
X102693569Y-90973110D01*
X102642560Y-91225000D01*
X102642560Y-92925000D01*
X102686838Y-93160317D01*
X102825910Y-93376441D01*
X103038110Y-93521431D01*
X103105541Y-93535086D01*
X103060853Y-93564946D01*
X102738946Y-94046715D01*
X102625907Y-94615000D01*
X63109093Y-94615000D01*
X62996054Y-94046715D01*
X62674147Y-93564946D01*
X62632548Y-93537150D01*
X62680317Y-93528162D01*
X62896441Y-93389090D01*
X63041431Y-93176890D01*
X63092440Y-92925000D01*
X63092440Y-91225000D01*
X63048162Y-90989683D01*
X62909090Y-90773559D01*
X62696890Y-90628569D01*
X62445000Y-90577560D01*
X60745000Y-90577560D01*
X60509683Y-90621838D01*
X60293559Y-90760910D01*
X60148569Y-90973110D01*
X60097560Y-91225000D01*
X60097560Y-91235240D01*
X59986326Y-91257366D01*
X59986324Y-91257367D01*
X59986325Y-91257367D01*
X59817000Y-91370506D01*
X59817000Y-88265000D01*
X63884999Y-88265000D01*
X63885000Y-88265005D01*
X63885000Y-91439995D01*
X63884999Y-91440000D01*
X63941190Y-91722484D01*
X63952367Y-91778675D01*
X64130925Y-92045907D01*
X64144210Y-92065790D01*
X64779208Y-92700787D01*
X64779210Y-92700790D01*
X64971054Y-92828975D01*
X65066326Y-92892634D01*
X65177560Y-92914760D01*
X65177560Y-92925000D01*
X65221838Y-93160317D01*
X65343144Y-93348831D01*
X65286673Y-93405302D01*
X65190000Y-93638691D01*
X65190000Y-94329250D01*
X65348750Y-94488000D01*
X66548000Y-94488000D01*
X66548000Y-94468000D01*
X66802000Y-94468000D01*
X66802000Y-94488000D01*
X69088000Y-94488000D01*
X69088000Y-94468000D01*
X69342000Y-94468000D01*
X69342000Y-94488000D01*
X71628000Y-94488000D01*
X71628000Y-94468000D01*
X71882000Y-94468000D01*
X71882000Y-94488000D01*
X74168000Y-94488000D01*
X74168000Y-94468000D01*
X74422000Y-94468000D01*
X74422000Y-94488000D01*
X76708000Y-94488000D01*
X76708000Y-94468000D01*
X76962000Y-94468000D01*
X76962000Y-94488000D01*
X79248000Y-94488000D01*
X79248000Y-94468000D01*
X79502000Y-94468000D01*
X79502000Y-94488000D01*
X81788000Y-94488000D01*
X81788000Y-94468000D01*
X82042000Y-94468000D01*
X82042000Y-94488000D01*
X84328000Y-94488000D01*
X84328000Y-94468000D01*
X84582000Y-94468000D01*
X84582000Y-94488000D01*
X86868000Y-94488000D01*
X86868000Y-94468000D01*
X87122000Y-94468000D01*
X87122000Y-94488000D01*
X89408000Y-94488000D01*
X89408000Y-94468000D01*
X89662000Y-94468000D01*
X89662000Y-94488000D01*
X91948000Y-94488000D01*
X91948000Y-94468000D01*
X92202000Y-94468000D01*
X92202000Y-94488000D01*
X94488000Y-94488000D01*
X94488000Y-94468000D01*
X94742000Y-94468000D01*
X94742000Y-94488000D01*
X97028000Y-94488000D01*
X97028000Y-94468000D01*
X97282000Y-94468000D01*
X97282000Y-94488000D01*
X99568000Y-94488000D01*
X99568000Y-94468000D01*
X99822000Y-94468000D01*
X99822000Y-94488000D01*
X101015819Y-94488000D01*
X101136486Y-94258108D01*
X100890183Y-93733642D01*
X100461924Y-93343355D01*
X100461899Y-93343345D01*
X100745054Y-93154147D01*
X101066961Y-92672378D01*
X101180000Y-92104093D01*
X101180000Y-92045907D01*
X101066961Y-91477622D01*
X100745054Y-90995853D01*
X100459422Y-90805000D01*
X100745054Y-90614147D01*
X101066961Y-90132378D01*
X101180000Y-89564093D01*
X101180000Y-89505907D01*
X101066961Y-88937622D01*
X100745054Y-88455853D01*
X100263285Y-88133946D01*
X99695000Y-88020907D01*
X99126715Y-88133946D01*
X98644946Y-88455853D01*
X98425000Y-88785026D01*
X98205054Y-88455853D01*
X97919422Y-88265000D01*
X98205054Y-88074147D01*
X98526961Y-87592378D01*
X98640000Y-87024093D01*
X98640000Y-86965907D01*
X98526961Y-86397622D01*
X98205054Y-85915853D01*
X97919422Y-85725000D01*
X98205054Y-85534147D01*
X98206074Y-85532619D01*
X101904613Y-85532619D01*
X102244155Y-86354372D01*
X102872321Y-86983636D01*
X103693481Y-87324611D01*
X104582619Y-87325387D01*
X105404372Y-86985845D01*
X106033636Y-86357679D01*
X106374611Y-85536519D01*
X106375387Y-84647381D01*
X106035845Y-83825628D01*
X105407679Y-83196364D01*
X104586519Y-82855389D01*
X103697381Y-82854613D01*
X102875628Y-83194155D01*
X102246364Y-83822321D01*
X101905389Y-84643481D01*
X101904613Y-85532619D01*
X98206074Y-85532619D01*
X98526961Y-85052378D01*
X98640000Y-84484093D01*
X98640000Y-84425907D01*
X98526961Y-83857622D01*
X98205054Y-83375853D01*
X97723285Y-83053946D01*
X97155000Y-82940907D01*
X96586715Y-83053946D01*
X96104946Y-83375853D01*
X95885000Y-83705026D01*
X95665054Y-83375853D01*
X95183285Y-83053946D01*
X94615000Y-82940907D01*
X94046715Y-83053946D01*
X93564946Y-83375853D01*
X93345000Y-83705026D01*
X93125054Y-83375853D01*
X92643285Y-83053946D01*
X92075000Y-82940907D01*
X91506715Y-83053946D01*
X91024946Y-83375853D01*
X90805000Y-83705026D01*
X90585054Y-83375853D01*
X90103285Y-83053946D01*
X89535000Y-82940907D01*
X88966715Y-83053946D01*
X88484946Y-83375853D01*
X88265000Y-83705026D01*
X88045054Y-83375853D01*
X87563285Y-83053946D01*
X86995000Y-82940907D01*
X86426715Y-83053946D01*
X85944946Y-83375853D01*
X85725000Y-83705026D01*
X85505054Y-83375853D01*
X85023285Y-83053946D01*
X84455000Y-82940907D01*
X83886715Y-83053946D01*
X83404946Y-83375853D01*
X83185000Y-83705026D01*
X82965054Y-83375853D01*
X82483285Y-83053946D01*
X81915000Y-82940907D01*
X81346715Y-83053946D01*
X80864946Y-83375853D01*
X80645000Y-83705026D01*
X80425054Y-83375853D01*
X79943285Y-83053946D01*
X79375000Y-82940907D01*
X78806715Y-83053946D01*
X78324946Y-83375853D01*
X78105000Y-83705026D01*
X77885054Y-83375853D01*
X77403285Y-83053946D01*
X76835000Y-82940907D01*
X76266715Y-83053946D01*
X75784946Y-83375853D01*
X75557298Y-83716553D01*
X75490183Y-83573642D01*
X75061924Y-83183355D01*
X74651890Y-83013524D01*
X74422000Y-83134845D01*
X74422000Y-84328000D01*
X74442000Y-84328000D01*
X74442000Y-84582000D01*
X74422000Y-84582000D01*
X74422000Y-85775155D01*
X74651890Y-85896476D01*
X75061924Y-85726645D01*
X75490183Y-85336358D01*
X75557298Y-85193447D01*
X75784946Y-85534147D01*
X76266715Y-85856054D01*
X76835000Y-85969093D01*
X77403285Y-85856054D01*
X77885054Y-85534147D01*
X78105000Y-85204974D01*
X78324946Y-85534147D01*
X78326179Y-85534971D01*
X78289683Y-85541838D01*
X78073559Y-85680910D01*
X77928569Y-85893110D01*
X77877560Y-86145000D01*
X77877560Y-87845000D01*
X77921838Y-88080317D01*
X78060910Y-88296441D01*
X78273110Y-88441431D01*
X78329454Y-88452841D01*
X78324946Y-88455853D01*
X78105000Y-88785026D01*
X77885054Y-88455853D01*
X77403285Y-88133946D01*
X76835000Y-88020907D01*
X76266715Y-88133946D01*
X75784946Y-88455853D01*
X75565000Y-88785026D01*
X75345054Y-88455853D01*
X74863285Y-88133946D01*
X74295000Y-88020907D01*
X73726715Y-88133946D01*
X73244946Y-88455853D01*
X73025000Y-88785026D01*
X72805054Y-88455853D01*
X72323285Y-88133946D01*
X71755000Y-88020907D01*
X71186715Y-88133946D01*
X70704946Y-88455853D01*
X70485000Y-88785026D01*
X70265054Y-88455853D01*
X69783285Y-88133946D01*
X69215000Y-88020907D01*
X68646715Y-88133946D01*
X68164946Y-88455853D01*
X68137150Y-88497452D01*
X68128162Y-88449683D01*
X67989090Y-88233559D01*
X67776890Y-88088569D01*
X67525000Y-88037560D01*
X66249019Y-88037560D01*
X66406579Y-87880000D01*
X70484995Y-87880000D01*
X70485000Y-87880001D01*
X70767484Y-87823810D01*
X70823675Y-87812633D01*
X71110790Y-87620790D01*
X72380787Y-86350792D01*
X72380790Y-86350790D01*
X72572633Y-86063675D01*
X72602037Y-85915853D01*
X72640001Y-85725000D01*
X72640000Y-85724995D01*
X72640000Y-85644432D01*
X72805054Y-85534147D01*
X73032702Y-85193447D01*
X73099817Y-85336358D01*
X73528076Y-85726645D01*
X73938110Y-85896476D01*
X74168000Y-85775155D01*
X74168000Y-84582000D01*
X74148000Y-84582000D01*
X74148000Y-84328000D01*
X74168000Y-84328000D01*
X74168000Y-83134845D01*
X73938110Y-83013524D01*
X73528076Y-83183355D01*
X73099817Y-83573642D01*
X73032702Y-83716553D01*
X72805054Y-83375853D01*
X72323285Y-83053946D01*
X71755000Y-82940907D01*
X71186715Y-83053946D01*
X70704946Y-83375853D01*
X70677150Y-83417452D01*
X70668162Y-83369683D01*
X70529090Y-83153559D01*
X70316890Y-83008569D01*
X70065000Y-82957560D01*
X68365000Y-82957560D01*
X68129683Y-83001838D01*
X67913559Y-83140910D01*
X67768569Y-83353110D01*
X67717560Y-83605000D01*
X67717560Y-85305000D01*
X67761838Y-85540317D01*
X67900910Y-85756441D01*
X68113110Y-85901431D01*
X68365000Y-85952440D01*
X70065000Y-85952440D01*
X70300317Y-85908162D01*
X70356251Y-85872170D01*
X70118420Y-86110000D01*
X66040005Y-86110000D01*
X66040000Y-86109999D01*
X65701325Y-86177367D01*
X65414210Y-86369210D01*
X65414208Y-86369213D01*
X64144210Y-87639210D01*
X63952367Y-87926325D01*
X63952367Y-87926326D01*
X63884999Y-88265000D01*
X59817000Y-88265000D01*
X59817000Y-85532619D01*
X59994613Y-85532619D01*
X60334155Y-86354372D01*
X60962321Y-86983636D01*
X61783481Y-87324611D01*
X62672619Y-87325387D01*
X63494372Y-86985845D01*
X64123636Y-86357679D01*
X64464611Y-85536519D01*
X64465387Y-84647381D01*
X64125845Y-83825628D01*
X63497679Y-83196364D01*
X62676519Y-82855389D01*
X61787381Y-82854613D01*
X60965628Y-83194155D01*
X60336364Y-83822321D01*
X59995389Y-84643481D01*
X59994613Y-85532619D01*
X59817000Y-85532619D01*
X59817000Y-82677000D01*
X106553000Y-82677000D01*
X106553000Y-102367560D01*
G36*
X151139208Y-122545787D02*
X151139210Y-122545790D01*
X151426325Y-122737633D01*
X151482516Y-122748810D01*
X151765000Y-122805001D01*
X151765005Y-122805000D01*
X156209995Y-122805000D01*
X156210000Y-122805001D01*
X156492484Y-122748810D01*
X156548675Y-122737633D01*
X156718000Y-122624494D01*
X156718000Y-129413000D01*
X109982000Y-129413000D01*
X109982000Y-127442619D01*
X110159613Y-127442619D01*
X110499155Y-128264372D01*
X111127321Y-128893636D01*
X111948481Y-129234611D01*
X112837619Y-129235387D01*
X113659372Y-128895845D01*
X114288636Y-128267679D01*
X114629611Y-127446519D01*
X114630026Y-126970907D01*
X117895000Y-126970907D01*
X117895000Y-127029093D01*
X118008039Y-127597378D01*
X118329946Y-128079147D01*
X118811715Y-128401054D01*
X119380000Y-128514093D01*
X119948285Y-128401054D01*
X120430054Y-128079147D01*
X120650000Y-127749974D01*
X120869946Y-128079147D01*
X121351715Y-128401054D01*
X121920000Y-128514093D01*
X122488285Y-128401054D01*
X122970054Y-128079147D01*
X123190000Y-127749974D01*
X123409946Y-128079147D01*
X123891715Y-128401054D01*
X124460000Y-128514093D01*
X125028285Y-128401054D01*
X125510054Y-128079147D01*
X125730000Y-127749974D01*
X125949946Y-128079147D01*
X126431715Y-128401054D01*
X127000000Y-128514093D01*
X127568285Y-128401054D01*
X128050054Y-128079147D01*
X128270000Y-127749974D01*
X128489946Y-128079147D01*
X128971715Y-128401054D01*
X129540000Y-128514093D01*
X130108285Y-128401054D01*
X130590054Y-128079147D01*
X130810000Y-127749974D01*
X131029946Y-128079147D01*
X131511715Y-128401054D01*
X132080000Y-128514093D01*
X132648285Y-128401054D01*
X133130054Y-128079147D01*
X133350000Y-127749974D01*
X133569946Y-128079147D01*
X134051715Y-128401054D01*
X134620000Y-128514093D01*
X135188285Y-128401054D01*
X135670054Y-128079147D01*
X135890000Y-127749974D01*
X136109946Y-128079147D01*
X136591715Y-128401054D01*
X137160000Y-128514093D01*
X137728285Y-128401054D01*
X138210054Y-128079147D01*
X138430000Y-127749974D01*
X138649946Y-128079147D01*
X139131715Y-128401054D01*
X139700000Y-128514093D01*
X140268285Y-128401054D01*
X140750054Y-128079147D01*
X140977702Y-127738447D01*
X141044817Y-127881358D01*
X141473076Y-128271645D01*
X141883110Y-128441476D01*
X142113000Y-128320155D01*
X142113000Y-127127000D01*
X142093000Y-127127000D01*
X142093000Y-126873000D01*
X142113000Y-126873000D01*
X142113000Y-125679845D01*
X142367000Y-125679845D01*
X142367000Y-126873000D01*
X142387000Y-126873000D01*
X142387000Y-127127000D01*
X142367000Y-127127000D01*
X142367000Y-128320155D01*
X142596890Y-128441476D01*
X143006924Y-128271645D01*
X143435183Y-127881358D01*
X143502298Y-127738447D01*
X143729946Y-128079147D01*
X144211715Y-128401054D01*
X144780000Y-128514093D01*
X145348285Y-128401054D01*
X145830054Y-128079147D01*
X145857850Y-128037548D01*
X145866838Y-128085317D01*
X146005910Y-128301441D01*
X146218110Y-128446431D01*
X146470000Y-128497440D01*
X148170000Y-128497440D01*
X148405317Y-128453162D01*
X148621441Y-128314090D01*
X148766431Y-128101890D01*
X148817440Y-127850000D01*
X148817440Y-127442619D01*
X152069613Y-127442619D01*
X152409155Y-128264372D01*
X153037321Y-128893636D01*
X153858481Y-129234611D01*
X154747619Y-129235387D01*
X155569372Y-128895845D01*
X156198636Y-128267679D01*
X156539611Y-127446519D01*
X156540387Y-126557381D01*
X156200845Y-125735628D01*
X155572679Y-125106364D01*
X154751519Y-124765389D01*
X153862381Y-124764613D01*
X153040628Y-125104155D01*
X152411364Y-125732321D01*
X152070389Y-126553481D01*
X152069613Y-127442619D01*
X148817440Y-127442619D01*
X148817440Y-126150000D01*
X148773162Y-125914683D01*
X148634090Y-125698559D01*
X148421890Y-125553569D01*
X148170000Y-125502560D01*
X146470000Y-125502560D01*
X146234683Y-125546838D01*
X146018559Y-125685910D01*
X145873569Y-125898110D01*
X145859914Y-125965541D01*
X145830054Y-125920853D01*
X145348285Y-125598946D01*
X144780000Y-125485907D01*
X144211715Y-125598946D01*
X143729946Y-125920853D01*
X143502298Y-126261553D01*
X143435183Y-126118642D01*
X143006924Y-125728355D01*
X142596890Y-125558524D01*
X142367000Y-125679845D01*
X142113000Y-125679845D01*
X141883110Y-125558524D01*
X141473076Y-125728355D01*
X141044817Y-126118642D01*
X140977702Y-126261553D01*
X140750054Y-125920853D01*
X140268285Y-125598946D01*
X139700000Y-125485907D01*
X139131715Y-125598946D01*
X138649946Y-125920853D01*
X138430000Y-126250026D01*
X138210054Y-125920853D01*
X137728285Y-125598946D01*
X137160000Y-125485907D01*
X136591715Y-125598946D01*
X136109946Y-125920853D01*
X135890000Y-126250026D01*
X135670054Y-125920853D01*
X135188285Y-125598946D01*
X134620000Y-125485907D01*
X134051715Y-125598946D01*
X133569946Y-125920853D01*
X133350000Y-126250026D01*
X133130054Y-125920853D01*
X132648285Y-125598946D01*
X132080000Y-125485907D01*
X131511715Y-125598946D01*
X131029946Y-125920853D01*
X130810000Y-126250026D01*
X130590054Y-125920853D01*
X130108285Y-125598946D01*
X129540000Y-125485907D01*
X128971715Y-125598946D01*
X128489946Y-125920853D01*
X128270000Y-126250026D01*
X128050054Y-125920853D01*
X127568285Y-125598946D01*
X127000000Y-125485907D01*
X126431715Y-125598946D01*
X125949946Y-125920853D01*
X125730000Y-126250026D01*
X125510054Y-125920853D01*
X125028285Y-125598946D01*
X124460000Y-125485907D01*
X123891715Y-125598946D01*
X123409946Y-125920853D01*
X123190000Y-126250026D01*
X122970054Y-125920853D01*
X122488285Y-125598946D01*
X121920000Y-125485907D01*
X121351715Y-125598946D01*
X120869946Y-125920853D01*
X120650000Y-126250026D01*
X120430054Y-125920853D01*
X119948285Y-125598946D01*
X119380000Y-125485907D01*
X118811715Y-125598946D01*
X118329946Y-125920853D01*
X118008039Y-126402622D01*
X117895000Y-126970907D01*
X114630026Y-126970907D01*
X114630387Y-126557381D01*
X114290845Y-125735628D01*
X113662679Y-125106364D01*
X112841519Y-124765389D01*
X111952381Y-124764613D01*
X111130628Y-125104155D01*
X110501364Y-125732321D01*
X110160389Y-126553481D01*
X110159613Y-127442619D01*
X109982000Y-127442619D01*
X109982000Y-121428045D01*
X110490000Y-121529093D01*
X111058285Y-121416054D01*
X111540054Y-121094147D01*
X111760000Y-120764974D01*
X111979946Y-121094147D01*
X112461715Y-121416054D01*
X113030000Y-121529093D01*
X113598285Y-121416054D01*
X114080054Y-121094147D01*
X114300000Y-120764974D01*
X114519946Y-121094147D01*
X115001715Y-121416054D01*
X115570000Y-121529093D01*
X116138285Y-121416054D01*
X116620054Y-121094147D01*
X116840000Y-120764974D01*
X117059946Y-121094147D01*
X117541715Y-121416054D01*
X118110000Y-121529093D01*
X118678285Y-121416054D01*
X119160054Y-121094147D01*
X119380000Y-120764974D01*
X119599946Y-121094147D01*
X120081715Y-121416054D01*
X120650000Y-121529093D01*
X121218285Y-121416054D01*
X121700054Y-121094147D01*
X121920000Y-120764974D01*
X122139946Y-121094147D01*
X122621715Y-121416054D01*
X123190000Y-121529093D01*
X123758285Y-121416054D01*
X124240054Y-121094147D01*
X124460000Y-120764974D01*
X124679946Y-121094147D01*
X125161715Y-121416054D01*
X125730000Y-121529093D01*
X126298285Y-121416054D01*
X126780054Y-121094147D01*
X127000000Y-120764974D01*
X127219946Y-121094147D01*
X127701715Y-121416054D01*
X128270000Y-121529093D01*
X128838285Y-121416054D01*
X129320054Y-121094147D01*
X129540000Y-120764974D01*
X129759946Y-121094147D01*
X130241715Y-121416054D01*
X130810000Y-121529093D01*
X131378285Y-121416054D01*
X131860054Y-121094147D01*
X132080000Y-120764974D01*
X132299946Y-121094147D01*
X132781715Y-121416054D01*
X133350000Y-121529093D01*
X133918285Y-121416054D01*
X134400054Y-121094147D01*
X134620000Y-120764974D01*
X134839946Y-121094147D01*
X135321715Y-121416054D01*
X135890000Y-121529093D01*
X136458285Y-121416054D01*
X136940054Y-121094147D01*
X137160000Y-120764974D01*
X137379946Y-121094147D01*
X137861715Y-121416054D01*
X138430000Y-121529093D01*
X138998285Y-121416054D01*
X139480054Y-121094147D01*
X139700000Y-120764974D01*
X139919946Y-121094147D01*
X140401715Y-121416054D01*
X140970000Y-121529093D01*
X141538285Y-121416054D01*
X142020054Y-121094147D01*
X142247702Y-120753447D01*
X142314817Y-120896358D01*
X142743076Y-121286645D01*
X143153110Y-121456476D01*
X143383000Y-121335155D01*
X143383000Y-120142000D01*
X143363000Y-120142000D01*
X143363000Y-119888000D01*
X143383000Y-119888000D01*
X143383000Y-119868000D01*
X143637000Y-119868000D01*
X143637000Y-119888000D01*
X143657000Y-119888000D01*
X143657000Y-120142000D01*
X143637000Y-120142000D01*
X143637000Y-121335155D01*
X143866890Y-121456476D01*
X144276924Y-121286645D01*
X144579937Y-121010499D01*
X144596838Y-121100317D01*
X144735910Y-121316441D01*
X144948110Y-121461431D01*
X145200000Y-121512440D01*
X146900000Y-121512440D01*
X147135317Y-121468162D01*
X147351441Y-121329090D01*
X147496431Y-121116890D01*
X147547440Y-120865000D01*
X147547440Y-119165000D01*
X147515452Y-118995000D01*
X147588420Y-118995000D01*
X151139208Y-122545787D01*
X151139208Y-122545787D01*
G37*
X151139208Y-122545787D02*
X151139210Y-122545790D01*
X151426325Y-122737633D01*
X151482516Y-122748810D01*
X151765000Y-122805001D01*
X151765005Y-122805000D01*
X156209995Y-122805000D01*
X156210000Y-122805001D01*
X156492484Y-122748810D01*
X156548675Y-122737633D01*
X156718000Y-122624494D01*
X156718000Y-129413000D01*
X109982000Y-129413000D01*
X109982000Y-127442619D01*
X110159613Y-127442619D01*
X110499155Y-128264372D01*
X111127321Y-128893636D01*
X111948481Y-129234611D01*
X112837619Y-129235387D01*
X113659372Y-128895845D01*
X114288636Y-128267679D01*
X114629611Y-127446519D01*
X114630026Y-126970907D01*
X117895000Y-126970907D01*
X117895000Y-127029093D01*
X118008039Y-127597378D01*
X118329946Y-128079147D01*
X118811715Y-128401054D01*
X119380000Y-128514093D01*
X119948285Y-128401054D01*
X120430054Y-128079147D01*
X120650000Y-127749974D01*
X120869946Y-128079147D01*
X121351715Y-128401054D01*
X121920000Y-128514093D01*
X122488285Y-128401054D01*
X122970054Y-128079147D01*
X123190000Y-127749974D01*
X123409946Y-128079147D01*
X123891715Y-128401054D01*
X124460000Y-128514093D01*
X125028285Y-128401054D01*
X125510054Y-128079147D01*
X125730000Y-127749974D01*
X125949946Y-128079147D01*
X126431715Y-128401054D01*
X127000000Y-128514093D01*
X127568285Y-128401054D01*
X128050054Y-128079147D01*
X128270000Y-127749974D01*
X128489946Y-128079147D01*
X128971715Y-128401054D01*
X129540000Y-128514093D01*
X130108285Y-128401054D01*
X130590054Y-128079147D01*
X130810000Y-127749974D01*
X131029946Y-128079147D01*
X131511715Y-128401054D01*
X132080000Y-128514093D01*
X132648285Y-128401054D01*
X133130054Y-128079147D01*
X133350000Y-127749974D01*
X133569946Y-128079147D01*
X134051715Y-128401054D01*
X134620000Y-128514093D01*
X135188285Y-128401054D01*
X135670054Y-128079147D01*
X135890000Y-127749974D01*
X136109946Y-128079147D01*
X136591715Y-128401054D01*
X137160000Y-128514093D01*
X137728285Y-128401054D01*
X138210054Y-128079147D01*
X138430000Y-127749974D01*
X138649946Y-128079147D01*
X139131715Y-128401054D01*
X139700000Y-128514093D01*
X140268285Y-128401054D01*
X140750054Y-128079147D01*
X140977702Y-127738447D01*
X141044817Y-127881358D01*
X141473076Y-128271645D01*
X141883110Y-128441476D01*
X142113000Y-128320155D01*
X142113000Y-127127000D01*
X142093000Y-127127000D01*
X142093000Y-126873000D01*
X142113000Y-126873000D01*
X142113000Y-125679845D01*
X142367000Y-125679845D01*
X142367000Y-126873000D01*
X142387000Y-126873000D01*
X142387000Y-127127000D01*
X142367000Y-127127000D01*
X142367000Y-128320155D01*
X142596890Y-128441476D01*
X143006924Y-128271645D01*
X143435183Y-127881358D01*
X143502298Y-127738447D01*
X143729946Y-128079147D01*
X144211715Y-128401054D01*
X144780000Y-128514093D01*
X145348285Y-128401054D01*
X145830054Y-128079147D01*
X145857850Y-128037548D01*
X145866838Y-128085317D01*
X146005910Y-128301441D01*
X146218110Y-128446431D01*
X146470000Y-128497440D01*
X148170000Y-128497440D01*
X148405317Y-128453162D01*
X148621441Y-128314090D01*
X148766431Y-128101890D01*
X148817440Y-127850000D01*
X148817440Y-127442619D01*
X152069613Y-127442619D01*
X152409155Y-128264372D01*
X153037321Y-128893636D01*
X153858481Y-129234611D01*
X154747619Y-129235387D01*
X155569372Y-128895845D01*
X156198636Y-128267679D01*
X156539611Y-127446519D01*
X156540387Y-126557381D01*
X156200845Y-125735628D01*
X155572679Y-125106364D01*
X154751519Y-124765389D01*
X153862381Y-124764613D01*
X153040628Y-125104155D01*
X152411364Y-125732321D01*
X152070389Y-126553481D01*
X152069613Y-127442619D01*
X148817440Y-127442619D01*
X148817440Y-126150000D01*
X148773162Y-125914683D01*
X148634090Y-125698559D01*
X148421890Y-125553569D01*
X148170000Y-125502560D01*
X146470000Y-125502560D01*
X146234683Y-125546838D01*
X146018559Y-125685910D01*
X145873569Y-125898110D01*
X145859914Y-125965541D01*
X145830054Y-125920853D01*
X145348285Y-125598946D01*
X144780000Y-125485907D01*
X144211715Y-125598946D01*
X143729946Y-125920853D01*
X143502298Y-126261553D01*
X143435183Y-126118642D01*
X143006924Y-125728355D01*
X142596890Y-125558524D01*
X142367000Y-125679845D01*
X142113000Y-125679845D01*
X141883110Y-125558524D01*
X141473076Y-125728355D01*
X141044817Y-126118642D01*
X140977702Y-126261553D01*
X140750054Y-125920853D01*
X140268285Y-125598946D01*
X139700000Y-125485907D01*
X139131715Y-125598946D01*
X138649946Y-125920853D01*
X138430000Y-126250026D01*
X138210054Y-125920853D01*
X137728285Y-125598946D01*
X137160000Y-125485907D01*
X136591715Y-125598946D01*
X136109946Y-125920853D01*
X135890000Y-126250026D01*
X135670054Y-125920853D01*
X135188285Y-125598946D01*
X134620000Y-125485907D01*
X134051715Y-125598946D01*
X133569946Y-125920853D01*
X133350000Y-126250026D01*
X133130054Y-125920853D01*
X132648285Y-125598946D01*
X132080000Y-125485907D01*
X131511715Y-125598946D01*
X131029946Y-125920853D01*
X130810000Y-126250026D01*
X130590054Y-125920853D01*
X130108285Y-125598946D01*
X129540000Y-125485907D01*
X128971715Y-125598946D01*
X128489946Y-125920853D01*
X128270000Y-126250026D01*
X128050054Y-125920853D01*
X127568285Y-125598946D01*
X127000000Y-125485907D01*
X126431715Y-125598946D01*
X125949946Y-125920853D01*
X125730000Y-126250026D01*
X125510054Y-125920853D01*
X125028285Y-125598946D01*
X124460000Y-125485907D01*
X123891715Y-125598946D01*
X123409946Y-125920853D01*
X123190000Y-126250026D01*
X122970054Y-125920853D01*
X122488285Y-125598946D01*
X121920000Y-125485907D01*
X121351715Y-125598946D01*
X120869946Y-125920853D01*
X120650000Y-126250026D01*
X120430054Y-125920853D01*
X119948285Y-125598946D01*
X119380000Y-125485907D01*
X118811715Y-125598946D01*
X118329946Y-125920853D01*
X118008039Y-126402622D01*
X117895000Y-126970907D01*
X114630026Y-126970907D01*
X114630387Y-126557381D01*
X114290845Y-125735628D01*
X113662679Y-125106364D01*
X112841519Y-124765389D01*
X111952381Y-124764613D01*
X111130628Y-125104155D01*
X110501364Y-125732321D01*
X110160389Y-126553481D01*
X110159613Y-127442619D01*
X109982000Y-127442619D01*
X109982000Y-121428045D01*
X110490000Y-121529093D01*
X111058285Y-121416054D01*
X111540054Y-121094147D01*
X111760000Y-120764974D01*
X111979946Y-121094147D01*
X112461715Y-121416054D01*
X113030000Y-121529093D01*
X113598285Y-121416054D01*
X114080054Y-121094147D01*
X114300000Y-120764974D01*
X114519946Y-121094147D01*
X115001715Y-121416054D01*
X115570000Y-121529093D01*
X116138285Y-121416054D01*
X116620054Y-121094147D01*
X116840000Y-120764974D01*
X117059946Y-121094147D01*
X117541715Y-121416054D01*
X118110000Y-121529093D01*
X118678285Y-121416054D01*
X119160054Y-121094147D01*
X119380000Y-120764974D01*
X119599946Y-121094147D01*
X120081715Y-121416054D01*
X120650000Y-121529093D01*
X121218285Y-121416054D01*
X121700054Y-121094147D01*
X121920000Y-120764974D01*
X122139946Y-121094147D01*
X122621715Y-121416054D01*
X123190000Y-121529093D01*
X123758285Y-121416054D01*
X124240054Y-121094147D01*
X124460000Y-120764974D01*
X124679946Y-121094147D01*
X125161715Y-121416054D01*
X125730000Y-121529093D01*
X126298285Y-121416054D01*
X126780054Y-121094147D01*
X127000000Y-120764974D01*
X127219946Y-121094147D01*
X127701715Y-121416054D01*
X128270000Y-121529093D01*
X128838285Y-121416054D01*
X129320054Y-121094147D01*
X129540000Y-120764974D01*
X129759946Y-121094147D01*
X130241715Y-121416054D01*
X130810000Y-121529093D01*
X131378285Y-121416054D01*
X131860054Y-121094147D01*
X132080000Y-120764974D01*
X132299946Y-121094147D01*
X132781715Y-121416054D01*
X133350000Y-121529093D01*
X133918285Y-121416054D01*
X134400054Y-121094147D01*
X134620000Y-120764974D01*
X134839946Y-121094147D01*
X135321715Y-121416054D01*
X135890000Y-121529093D01*
X136458285Y-121416054D01*
X136940054Y-121094147D01*
X137160000Y-120764974D01*
X137379946Y-121094147D01*
X137861715Y-121416054D01*
X138430000Y-121529093D01*
X138998285Y-121416054D01*
X139480054Y-121094147D01*
X139700000Y-120764974D01*
X139919946Y-121094147D01*
X140401715Y-121416054D01*
X140970000Y-121529093D01*
X141538285Y-121416054D01*
X142020054Y-121094147D01*
X142247702Y-120753447D01*
X142314817Y-120896358D01*
X142743076Y-121286645D01*
X143153110Y-121456476D01*
X143383000Y-121335155D01*
X143383000Y-120142000D01*
X143363000Y-120142000D01*
X143363000Y-119888000D01*
X143383000Y-119888000D01*
X143383000Y-119868000D01*
X143637000Y-119868000D01*
X143637000Y-119888000D01*
X143657000Y-119888000D01*
X143657000Y-120142000D01*
X143637000Y-120142000D01*
X143637000Y-121335155D01*
X143866890Y-121456476D01*
X144276924Y-121286645D01*
X144579937Y-121010499D01*
X144596838Y-121100317D01*
X144735910Y-121316441D01*
X144948110Y-121461431D01*
X145200000Y-121512440D01*
X146900000Y-121512440D01*
X147135317Y-121468162D01*
X147351441Y-121329090D01*
X147496431Y-121116890D01*
X147547440Y-120865000D01*
X147547440Y-119165000D01*
X147515452Y-118995000D01*
X147588420Y-118995000D01*
X151139208Y-122545787D01*
G36*
X121294210Y-83194210D02*
X121102367Y-83481325D01*
X121102367Y-83481326D01*
X121034999Y-83820000D01*
X121035000Y-83820005D01*
X121035000Y-83900568D01*
X120869946Y-84010853D01*
X120842150Y-84052452D01*
X120833162Y-84004683D01*
X120694090Y-83788559D01*
X120481890Y-83643569D01*
X120230000Y-83592560D01*
X118530000Y-83592560D01*
X118294683Y-83636838D01*
X118078559Y-83775910D01*
X117933569Y-83988110D01*
X117882560Y-84240000D01*
X117882560Y-85940000D01*
X117926838Y-86175317D01*
X118065910Y-86391441D01*
X118278110Y-86536431D01*
X118530000Y-86587440D01*
X120230000Y-86587440D01*
X120465317Y-86543162D01*
X120681441Y-86404090D01*
X120826431Y-86191890D01*
X120840086Y-86124459D01*
X120869946Y-86169147D01*
X121351715Y-86491054D01*
X121920000Y-86604093D01*
X122488285Y-86491054D01*
X122970054Y-86169147D01*
X123197702Y-85828447D01*
X123264817Y-85971358D01*
X123693076Y-86361645D01*
X124103110Y-86531476D01*
X124333000Y-86410155D01*
X124333000Y-85217000D01*
X124313000Y-85217000D01*
X124313000Y-84963000D01*
X124333000Y-84963000D01*
X124333000Y-83769845D01*
X124103110Y-83648524D01*
X123693076Y-83818355D01*
X123264817Y-84208642D01*
X123197702Y-84351553D01*
X122974329Y-84017251D01*
X123556579Y-83435000D01*
X148858420Y-83435000D01*
X149610000Y-84186579D01*
X149610000Y-91439995D01*
X149609999Y-91440000D01*
X149666190Y-91722484D01*
X149677367Y-91778675D01*
X149810151Y-91977401D01*
X149869210Y-92065790D01*
X152883396Y-95079975D01*
X152903946Y-95183285D01*
X153225853Y-95665054D01*
X153566553Y-95892702D01*
X153423642Y-95959817D01*
X153033355Y-96388076D01*
X152863524Y-96798110D01*
X152984845Y-97028000D01*
X154178000Y-97028000D01*
X154178000Y-97008000D01*
X154432000Y-97008000D01*
X154432000Y-97028000D01*
X155625155Y-97028000D01*
X155746476Y-96798110D01*
X155576645Y-96388076D01*
X155186358Y-95959817D01*
X155043447Y-95892702D01*
X155377749Y-95669329D01*
X155960000Y-96251579D01*
X155960000Y-120918421D01*
X155843420Y-121035000D01*
X155404228Y-121035000D01*
X155706054Y-120583285D01*
X155819093Y-120015000D01*
X155706054Y-119446715D01*
X155384147Y-118964946D01*
X155054974Y-118745000D01*
X155384147Y-118525054D01*
X155706054Y-118043285D01*
X155819093Y-117475000D01*
X155706054Y-116906715D01*
X155384147Y-116424946D01*
X155054974Y-116205000D01*
X155384147Y-115985054D01*
X155706054Y-115503285D01*
X155819093Y-114935000D01*
X155706054Y-114366715D01*
X155384147Y-113884946D01*
X155054974Y-113665000D01*
X155384147Y-113445054D01*
X155706054Y-112963285D01*
X155819093Y-112395000D01*
X155706054Y-111826715D01*
X155384147Y-111344946D01*
X155054974Y-111125000D01*
X155384147Y-110905054D01*
X155706054Y-110423285D01*
X155819093Y-109855000D01*
X155706054Y-109286715D01*
X155384147Y-108804946D01*
X155054974Y-108585000D01*
X155384147Y-108365054D01*
X155706054Y-107883285D01*
X155819093Y-107315000D01*
X155706054Y-106746715D01*
X155384147Y-106264946D01*
X155054974Y-106045000D01*
X155384147Y-105825054D01*
X155706054Y-105343285D01*
X155819093Y-104775000D01*
X155706054Y-104206715D01*
X155384147Y-103724946D01*
X155054974Y-103505000D01*
X155384147Y-103285054D01*
X155706054Y-102803285D01*
X155819093Y-102235000D01*
X155706054Y-101666715D01*
X155384147Y-101184946D01*
X155054974Y-100965000D01*
X155384147Y-100745054D01*
X155706054Y-100263285D01*
X155819093Y-99695000D01*
X155706054Y-99126715D01*
X155384147Y-98644946D01*
X155043447Y-98417298D01*
X155186358Y-98350183D01*
X155576645Y-97921924D01*
X155746476Y-97511890D01*
X155625155Y-97282000D01*
X154432000Y-97282000D01*
X154432000Y-97302000D01*
X154178000Y-97302000D01*
X154178000Y-97282000D01*
X152984845Y-97282000D01*
X152863524Y-97511890D01*
X153033355Y-97921924D01*
X153423642Y-98350183D01*
X153566553Y-98417298D01*
X153225853Y-98644946D01*
X152903946Y-99126715D01*
X152790907Y-99695000D01*
X152903946Y-100263285D01*
X153225853Y-100745054D01*
X153555026Y-100965000D01*
X153225853Y-101184946D01*
X152903946Y-101666715D01*
X152790907Y-102235000D01*
X152903946Y-102803285D01*
X153225853Y-103285054D01*
X153555026Y-103505000D01*
X153225853Y-103724946D01*
X152903946Y-104206715D01*
X152790907Y-104775000D01*
X152903946Y-105343285D01*
X153225853Y-105825054D01*
X153555026Y-106045000D01*
X153225853Y-106264946D01*
X152903946Y-106746715D01*
X152790907Y-107315000D01*
X152903946Y-107883285D01*
X153225853Y-108365054D01*
X153555026Y-108585000D01*
X153225853Y-108804946D01*
X152903946Y-109286715D01*
X152790907Y-109855000D01*
X152903946Y-110423285D01*
X153225853Y-110905054D01*
X153555026Y-111125000D01*
X153225853Y-111344946D01*
X152903946Y-111826715D01*
X152790907Y-112395000D01*
X152903946Y-112963285D01*
X153225853Y-113445054D01*
X153555026Y-113665000D01*
X153225853Y-113884946D01*
X152903946Y-114366715D01*
X152790907Y-114935000D01*
X152903946Y-115503285D01*
X153225853Y-115985054D01*
X153555026Y-116205000D01*
X153225853Y-116424946D01*
X152903946Y-116906715D01*
X152790907Y-117475000D01*
X152903946Y-118043285D01*
X153225853Y-118525054D01*
X153555026Y-118745000D01*
X153225853Y-118964946D01*
X152903946Y-119446715D01*
X152790907Y-120015000D01*
X152903946Y-120583285D01*
X153205772Y-121035000D01*
X152131579Y-121035000D01*
X148580790Y-117484210D01*
X148566572Y-117474710D01*
X148293675Y-117292367D01*
X148237484Y-117281190D01*
X147955000Y-117224999D01*
X147954995Y-117225000D01*
X147149410Y-117225000D01*
X147319710Y-117054997D01*
X147548339Y-116504398D01*
X147548859Y-115908218D01*
X147321192Y-115357220D01*
X146899997Y-114935290D01*
X146349398Y-114706661D01*
X145753218Y-114706141D01*
X145202220Y-114933808D01*
X144780290Y-115355003D01*
X144763459Y-115395537D01*
X144563805Y-115330800D01*
X143689605Y-116205000D01*
X143703748Y-116219143D01*
X143524143Y-116398748D01*
X143510000Y-116384605D01*
X143495858Y-116398748D01*
X143316253Y-116219143D01*
X143330395Y-116205000D01*
X142456195Y-115330800D01*
X142256967Y-115395399D01*
X142241192Y-115357220D01*
X142035526Y-115151195D01*
X142635800Y-115151195D01*
X143510000Y-116025395D01*
X144384200Y-115151195D01*
X144302259Y-114898484D01*
X143741970Y-114694752D01*
X143146365Y-114720942D01*
X142717741Y-114898484D01*
X142635800Y-115151195D01*
X142035526Y-115151195D01*
X141819997Y-114935290D01*
X141269398Y-114706661D01*
X140673218Y-114706141D01*
X140122220Y-114933808D01*
X139700290Y-115355003D01*
X139699905Y-115355931D01*
X139279997Y-114935290D01*
X138729398Y-114706661D01*
X138133218Y-114706141D01*
X137582220Y-114933808D01*
X137160290Y-115355003D01*
X137159905Y-115355931D01*
X136739997Y-114935290D01*
X136189398Y-114706661D01*
X135593218Y-114706141D01*
X135042220Y-114933808D01*
X134620290Y-115355003D01*
X134619905Y-115355931D01*
X134199997Y-114935290D01*
X133649398Y-114706661D01*
X133383373Y-114706429D01*
X135157401Y-112932401D01*
X135322148Y-112685839D01*
X135380000Y-112395000D01*
X135380000Y-102375889D01*
X135590602Y-102463339D01*
X136186782Y-102463859D01*
X136737780Y-102236192D01*
X136955546Y-102018805D01*
X137555800Y-102018805D01*
X137637741Y-102271516D01*
X138198030Y-102475248D01*
X138793635Y-102449058D01*
X139222259Y-102271516D01*
X139304200Y-102018805D01*
X138430000Y-101144605D01*
X137555800Y-102018805D01*
X136955546Y-102018805D01*
X137159710Y-101814997D01*
X137176541Y-101774463D01*
X137376195Y-101839200D01*
X138250395Y-100965000D01*
X138609605Y-100965000D01*
X139483805Y-101839200D01*
X139683033Y-101774601D01*
X139698808Y-101812780D01*
X140120003Y-102234710D01*
X140670602Y-102463339D01*
X141266782Y-102463859D01*
X141817780Y-102236192D01*
X142239710Y-101814997D01*
X142240095Y-101814069D01*
X142660003Y-102234710D01*
X143210602Y-102463339D01*
X143806782Y-102463859D01*
X144357780Y-102236192D01*
X144574876Y-102019475D01*
X144583238Y-102063917D01*
X144722310Y-102280041D01*
X144934510Y-102425031D01*
X145186400Y-102476040D01*
X146913600Y-102476040D01*
X147148917Y-102431762D01*
X147365041Y-102292690D01*
X147510031Y-102080490D01*
X147561040Y-101828600D01*
X147561040Y-100101400D01*
X147516762Y-99866083D01*
X147377690Y-99649959D01*
X147165490Y-99504969D01*
X146913600Y-99453960D01*
X145186400Y-99453960D01*
X144951083Y-99498238D01*
X144734959Y-99637310D01*
X144589969Y-99849510D01*
X144577148Y-99912820D01*
X144359997Y-99695290D01*
X143809398Y-99466661D01*
X143213218Y-99466141D01*
X142662220Y-99693808D01*
X142240290Y-100115003D01*
X142239905Y-100115931D01*
X141819997Y-99695290D01*
X141269398Y-99466661D01*
X140673218Y-99466141D01*
X140122220Y-99693808D01*
X139700290Y-100115003D01*
X139683459Y-100155537D01*
X139483805Y-100090800D01*
X138609605Y-100965000D01*
X138250395Y-100965000D01*
X137376195Y-100090800D01*
X137176967Y-100155399D01*
X137161192Y-100117220D01*
X136955526Y-99911195D01*
X137555800Y-99911195D01*
X138430000Y-100785395D01*
X139304200Y-99911195D01*
X139222259Y-99658484D01*
X138661970Y-99454752D01*
X138066365Y-99480942D01*
X137637741Y-99658484D01*
X137555800Y-99911195D01*
X136955526Y-99911195D01*
X136739997Y-99695290D01*
X136189398Y-99466661D01*
X135593218Y-99466141D01*
X135380000Y-99554241D01*
X135380000Y-98567648D01*
X135890000Y-98669093D01*
X136458285Y-98556054D01*
X136940054Y-98234147D01*
X137167702Y-97893447D01*
X137234817Y-98036358D01*
X137663076Y-98426645D01*
X138073110Y-98596476D01*
X138303000Y-98475155D01*
X138303000Y-97282000D01*
X138283000Y-97282000D01*
X138283000Y-97028000D01*
X138303000Y-97028000D01*
X138303000Y-95834845D01*
X138073110Y-95713524D01*
X137663076Y-95883355D01*
X137234817Y-96273642D01*
X137167702Y-96416553D01*
X136940054Y-96075853D01*
X136458285Y-95753946D01*
X135890000Y-95640907D01*
X135380000Y-95742352D01*
X135380000Y-95564802D01*
X136029680Y-94915122D01*
X136075167Y-94915162D01*
X136418943Y-94773117D01*
X136682192Y-94510327D01*
X136824838Y-94166799D01*
X136825162Y-93794833D01*
X136683117Y-93451057D01*
X136420327Y-93187808D01*
X136076799Y-93045162D01*
X135704833Y-93044838D01*
X135361057Y-93186883D01*
X135097808Y-93449673D01*
X134955162Y-93793201D01*
X134955121Y-93840077D01*
X134082599Y-94712599D01*
X133917852Y-94959161D01*
X133860000Y-95250000D01*
X133860000Y-95742352D01*
X133350000Y-95640907D01*
X132840000Y-95742352D01*
X132840000Y-95564802D01*
X133489680Y-94915122D01*
X133535167Y-94915162D01*
X133878943Y-94773117D01*
X134142192Y-94510327D01*
X134284838Y-94166799D01*
X134285162Y-93794833D01*
X134143117Y-93451057D01*
X133880327Y-93187808D01*
X133536799Y-93045162D01*
X133164833Y-93044838D01*
X132821057Y-93186883D01*
X132557808Y-93449673D01*
X132415162Y-93793201D01*
X132415121Y-93840077D01*
X131542599Y-94712599D01*
X131377852Y-94959161D01*
X131320000Y-95250000D01*
X131320000Y-95742352D01*
X130810000Y-95640907D01*
X130300000Y-95742352D01*
X130300000Y-86362954D01*
X130590054Y-86169147D01*
X130810000Y-85839974D01*
X131029946Y-86169147D01*
X131511715Y-86491054D01*
X132080000Y-86604093D01*
X132648285Y-86491054D01*
X133130054Y-86169147D01*
X133350000Y-85839974D01*
X133569946Y-86169147D01*
X134051715Y-86491054D01*
X134620000Y-86604093D01*
X135188285Y-86491054D01*
X135670054Y-86169147D01*
X135890000Y-85839974D01*
X136109946Y-86169147D01*
X136591715Y-86491054D01*
X137160000Y-86604093D01*
X137728285Y-86491054D01*
X138210054Y-86169147D01*
X138430000Y-85839974D01*
X138649946Y-86169147D01*
X139131715Y-86491054D01*
X139700000Y-86604093D01*
X140268285Y-86491054D01*
X140750054Y-86169147D01*
X140970000Y-85839974D01*
X141189946Y-86169147D01*
X141671715Y-86491054D01*
X142240000Y-86604093D01*
X142808285Y-86491054D01*
X143290054Y-86169147D01*
X143510000Y-85839974D01*
X143729946Y-86169147D01*
X144211715Y-86491054D01*
X144780000Y-86604093D01*
X145348285Y-86491054D01*
X145830054Y-86169147D01*
X146050000Y-85839974D01*
X146269946Y-86169147D01*
X146560000Y-86362954D01*
X146560000Y-93030198D01*
X143876408Y-95713790D01*
X143510000Y-95640907D01*
X142941715Y-95753946D01*
X142459946Y-96075853D01*
X142240000Y-96405026D01*
X142020054Y-96075853D01*
X141538285Y-95753946D01*
X140970000Y-95640907D01*
X140401715Y-95753946D01*
X139919946Y-96075853D01*
X139692298Y-96416553D01*
X139625183Y-96273642D01*
X139196924Y-95883355D01*
X138786890Y-95713524D01*
X138557000Y-95834845D01*
X138557000Y-97028000D01*
X138577000Y-97028000D01*
X138577000Y-97282000D01*
X138557000Y-97282000D01*
X138557000Y-98475155D01*
X138786890Y-98596476D01*
X139196924Y-98426645D01*
X139625183Y-98036358D01*
X139692298Y-97893447D01*
X139919946Y-98234147D01*
X140401715Y-98556054D01*
X140970000Y-98669093D01*
X141538285Y-98556054D01*
X142020054Y-98234147D01*
X142240000Y-97904974D01*
X142459946Y-98234147D01*
X142941715Y-98556054D01*
X143510000Y-98669093D01*
X144078285Y-98556054D01*
X144560054Y-98234147D01*
X144587850Y-98192548D01*
X144596838Y-98240317D01*
X144735910Y-98456441D01*
X144948110Y-98601431D01*
X145200000Y-98652440D01*
X146900000Y-98652440D01*
X147135317Y-98608162D01*
X147351441Y-98469090D01*
X147496431Y-98256890D01*
X147547440Y-98005000D01*
X147547440Y-96305000D01*
X147503162Y-96069683D01*
X147364090Y-95853559D01*
X147151890Y-95708569D01*
X146900000Y-95657560D01*
X146082242Y-95657560D01*
X147857401Y-93882401D01*
X148022148Y-93635839D01*
X148080000Y-93345000D01*
X148080000Y-86362954D01*
X148370054Y-86169147D01*
X148691961Y-85687378D01*
X148805000Y-85119093D01*
X148805000Y-85060907D01*
X148691961Y-84492622D01*
X148370054Y-84010853D01*
X147888285Y-83688946D01*
X147320000Y-83575907D01*
X146751715Y-83688946D01*
X146269946Y-84010853D01*
X146050000Y-84340026D01*
X145830054Y-84010853D01*
X145348285Y-83688946D01*
X144780000Y-83575907D01*
X144211715Y-83688946D01*
X143729946Y-84010853D01*
X143510000Y-84340026D01*
X143290054Y-84010853D01*
X142808285Y-83688946D01*
X142240000Y-83575907D01*
X141671715Y-83688946D01*
X141189946Y-84010853D01*
X140970000Y-84340026D01*
X140750054Y-84010853D01*
X140268285Y-83688946D01*
X139700000Y-83575907D01*
X139131715Y-83688946D01*
X138649946Y-84010853D01*
X138430000Y-84340026D01*
X138210054Y-84010853D01*
X137728285Y-83688946D01*
X137160000Y-83575907D01*
X136591715Y-83688946D01*
X136109946Y-84010853D01*
X135890000Y-84340026D01*
X135670054Y-84010853D01*
X135188285Y-83688946D01*
X134620000Y-83575907D01*
X134051715Y-83688946D01*
X133569946Y-84010853D01*
X133350000Y-84340026D01*
X133130054Y-84010853D01*
X132648285Y-83688946D01*
X132080000Y-83575907D01*
X131511715Y-83688946D01*
X131029946Y-84010853D01*
X130810000Y-84340026D01*
X130590054Y-84010853D01*
X130108285Y-83688946D01*
X129540000Y-83575907D01*
X128971715Y-83688946D01*
X128489946Y-84010853D01*
X128270000Y-84340026D01*
X128050054Y-84010853D01*
X127568285Y-83688946D01*
X127000000Y-83575907D01*
X126431715Y-83688946D01*
X125949946Y-84010853D01*
X125722298Y-84351553D01*
X125655183Y-84208642D01*
X125226924Y-83818355D01*
X124816890Y-83648524D01*
X124587000Y-83769845D01*
X124587000Y-84963000D01*
X124607000Y-84963000D01*
X124607000Y-85217000D01*
X124587000Y-85217000D01*
X124587000Y-86410155D01*
X124816890Y-86531476D01*
X125226924Y-86361645D01*
X125655183Y-85971358D01*
X125722298Y-85828447D01*
X125949946Y-86169147D01*
X126431715Y-86491054D01*
X127000000Y-86604093D01*
X127568285Y-86491054D01*
X128050054Y-86169147D01*
X128270000Y-85839974D01*
X128489946Y-86169147D01*
X128780000Y-86362954D01*
X128780000Y-95742352D01*
X128270000Y-95640907D01*
X127701715Y-95753946D01*
X127219946Y-96075853D01*
X127000000Y-96405026D01*
X126780054Y-96075853D01*
X126298285Y-95753946D01*
X125730000Y-95640907D01*
X125161715Y-95753946D01*
X124679946Y-96075853D01*
X124460000Y-96405026D01*
X124240054Y-96075853D01*
X123758285Y-95753946D01*
X123190000Y-95640907D01*
X122621715Y-95753946D01*
X122139946Y-96075853D01*
X121920000Y-96405026D01*
X121700054Y-96075853D01*
X121218285Y-95753946D01*
X120650000Y-95640907D01*
X120081715Y-95753946D01*
X119599946Y-96075853D01*
X119380000Y-96405026D01*
X119160054Y-96075853D01*
X118678285Y-95753946D01*
X118110000Y-95640907D01*
X117541715Y-95753946D01*
X117059946Y-96075853D01*
X116840000Y-96405026D01*
X116620054Y-96075853D01*
X116138285Y-95753946D01*
X115570000Y-95640907D01*
X115001715Y-95753946D01*
X114519946Y-96075853D01*
X114300000Y-96405026D01*
X114080054Y-96075853D01*
X113598285Y-95753946D01*
X113030000Y-95640907D01*
X112461715Y-95753946D01*
X111979946Y-96075853D01*
X111760000Y-96405026D01*
X111540054Y-96075853D01*
X111058285Y-95753946D01*
X110490000Y-95640907D01*
X109982000Y-95741955D01*
X109982000Y-85532619D01*
X110159613Y-85532619D01*
X110499155Y-86354372D01*
X111127321Y-86983636D01*
X111948481Y-87324611D01*
X112837619Y-87325387D01*
X113659372Y-86985845D01*
X114288636Y-86357679D01*
X114629611Y-85536519D01*
X114630387Y-84647381D01*
X114290845Y-83825628D01*
X113662679Y-83196364D01*
X112841519Y-82855389D01*
X111952381Y-82854613D01*
X111130628Y-83194155D01*
X110501364Y-83822321D01*
X110160389Y-84643481D01*
X110159613Y-85532619D01*
X109982000Y-85532619D01*
X109982000Y-82677000D01*
X121811420Y-82677000D01*
X121294210Y-83194210D01*
X121294210Y-83194210D01*
G37*
X121294210Y-83194210D02*
X121102367Y-83481325D01*
X121102367Y-83481326D01*
X121034999Y-83820000D01*
X121035000Y-83820005D01*
X121035000Y-83900568D01*
X120869946Y-84010853D01*
X120842150Y-84052452D01*
X120833162Y-84004683D01*
X120694090Y-83788559D01*
X120481890Y-83643569D01*
X120230000Y-83592560D01*
X118530000Y-83592560D01*
X118294683Y-83636838D01*
X118078559Y-83775910D01*
X117933569Y-83988110D01*
X117882560Y-84240000D01*
X117882560Y-85940000D01*
X117926838Y-86175317D01*
X118065910Y-86391441D01*
X118278110Y-86536431D01*
X118530000Y-86587440D01*
X120230000Y-86587440D01*
X120465317Y-86543162D01*
X120681441Y-86404090D01*
X120826431Y-86191890D01*
X120840086Y-86124459D01*
X120869946Y-86169147D01*
X121351715Y-86491054D01*
X121920000Y-86604093D01*
X122488285Y-86491054D01*
X122970054Y-86169147D01*
X123197702Y-85828447D01*
X123264817Y-85971358D01*
X123693076Y-86361645D01*
X124103110Y-86531476D01*
X124333000Y-86410155D01*
X124333000Y-85217000D01*
X124313000Y-85217000D01*
X124313000Y-84963000D01*
X124333000Y-84963000D01*
X124333000Y-83769845D01*
X124103110Y-83648524D01*
X123693076Y-83818355D01*
X123264817Y-84208642D01*
X123197702Y-84351553D01*
X122974329Y-84017251D01*
X123556579Y-83435000D01*
X148858420Y-83435000D01*
X149610000Y-84186579D01*
X149610000Y-91439995D01*
X149609999Y-91440000D01*
X149666190Y-91722484D01*
X149677367Y-91778675D01*
X149810151Y-91977401D01*
X149869210Y-92065790D01*
X152883396Y-95079975D01*
X152903946Y-95183285D01*
X153225853Y-95665054D01*
X153566553Y-95892702D01*
X153423642Y-95959817D01*
X153033355Y-96388076D01*
X152863524Y-96798110D01*
X152984845Y-97028000D01*
X154178000Y-97028000D01*
X154178000Y-97008000D01*
X154432000Y-97008000D01*
X154432000Y-97028000D01*
X155625155Y-97028000D01*
X155746476Y-96798110D01*
X155576645Y-96388076D01*
X155186358Y-95959817D01*
X155043447Y-95892702D01*
X155377749Y-95669329D01*
X155960000Y-96251579D01*
X155960000Y-120918421D01*
X155843420Y-121035000D01*
X155404228Y-121035000D01*
X155706054Y-120583285D01*
X155819093Y-120015000D01*
X155706054Y-119446715D01*
X155384147Y-118964946D01*
X155054974Y-118745000D01*
X155384147Y-118525054D01*
X155706054Y-118043285D01*
X155819093Y-117475000D01*
X155706054Y-116906715D01*
X155384147Y-116424946D01*
X155054974Y-116205000D01*
X155384147Y-115985054D01*
X155706054Y-115503285D01*
X155819093Y-114935000D01*
X155706054Y-114366715D01*
X155384147Y-113884946D01*
X155054974Y-113665000D01*
X155384147Y-113445054D01*
X155706054Y-112963285D01*
X155819093Y-112395000D01*
X155706054Y-111826715D01*
X155384147Y-111344946D01*
X155054974Y-111125000D01*
X155384147Y-110905054D01*
X155706054Y-110423285D01*
X155819093Y-109855000D01*
X155706054Y-109286715D01*
X155384147Y-108804946D01*
X155054974Y-108585000D01*
X155384147Y-108365054D01*
X155706054Y-107883285D01*
X155819093Y-107315000D01*
X155706054Y-106746715D01*
X155384147Y-106264946D01*
X155054974Y-106045000D01*
X155384147Y-105825054D01*
X155706054Y-105343285D01*
X155819093Y-104775000D01*
X155706054Y-104206715D01*
X155384147Y-103724946D01*
X155054974Y-103505000D01*
X155384147Y-103285054D01*
X155706054Y-102803285D01*
X155819093Y-102235000D01*
X155706054Y-101666715D01*
X155384147Y-101184946D01*
X155054974Y-100965000D01*
X155384147Y-100745054D01*
X155706054Y-100263285D01*
X155819093Y-99695000D01*
X155706054Y-99126715D01*
X155384147Y-98644946D01*
X155043447Y-98417298D01*
X155186358Y-98350183D01*
X155576645Y-97921924D01*
X155746476Y-97511890D01*
X155625155Y-97282000D01*
X154432000Y-97282000D01*
X154432000Y-97302000D01*
X154178000Y-97302000D01*
X154178000Y-97282000D01*
X152984845Y-97282000D01*
X152863524Y-97511890D01*
X153033355Y-97921924D01*
X153423642Y-98350183D01*
X153566553Y-98417298D01*
X153225853Y-98644946D01*
X152903946Y-99126715D01*
X152790907Y-99695000D01*
X152903946Y-100263285D01*
X153225853Y-100745054D01*
X153555026Y-100965000D01*
X153225853Y-101184946D01*
X152903946Y-101666715D01*
X152790907Y-102235000D01*
X152903946Y-102803285D01*
X153225853Y-103285054D01*
X153555026Y-103505000D01*
X153225853Y-103724946D01*
X152903946Y-104206715D01*
X152790907Y-104775000D01*
X152903946Y-105343285D01*
X153225853Y-105825054D01*
X153555026Y-106045000D01*
X153225853Y-106264946D01*
X152903946Y-106746715D01*
X152790907Y-107315000D01*
X152903946Y-107883285D01*
X153225853Y-108365054D01*
X153555026Y-108585000D01*
X153225853Y-108804946D01*
X152903946Y-109286715D01*
X152790907Y-109855000D01*
X152903946Y-110423285D01*
X153225853Y-110905054D01*
X153555026Y-111125000D01*
X153225853Y-111344946D01*
X152903946Y-111826715D01*
X152790907Y-112395000D01*
X152903946Y-112963285D01*
X153225853Y-113445054D01*
X153555026Y-113665000D01*
X153225853Y-113884946D01*
X152903946Y-114366715D01*
X152790907Y-114935000D01*
X152903946Y-115503285D01*
X153225853Y-115985054D01*
X153555026Y-116205000D01*
X153225853Y-116424946D01*
X152903946Y-116906715D01*
X152790907Y-117475000D01*
X152903946Y-118043285D01*
X153225853Y-118525054D01*
X153555026Y-118745000D01*
X153225853Y-118964946D01*
X152903946Y-119446715D01*
X152790907Y-120015000D01*
X152903946Y-120583285D01*
X153205772Y-121035000D01*
X152131579Y-121035000D01*
X148580790Y-117484210D01*
X148566572Y-117474710D01*
X148293675Y-117292367D01*
X148237484Y-117281190D01*
X147955000Y-117224999D01*
X147954995Y-117225000D01*
X147149410Y-117225000D01*
X147319710Y-117054997D01*
X147548339Y-116504398D01*
X147548859Y-115908218D01*
X147321192Y-115357220D01*
X146899997Y-114935290D01*
X146349398Y-114706661D01*
X145753218Y-114706141D01*
X145202220Y-114933808D01*
X144780290Y-115355003D01*
X144763459Y-115395537D01*
X144563805Y-115330800D01*
X143689605Y-116205000D01*
X143703748Y-116219143D01*
X143524143Y-116398748D01*
X143510000Y-116384605D01*
X143495858Y-116398748D01*
X143316253Y-116219143D01*
X143330395Y-116205000D01*
X142456195Y-115330800D01*
X142256967Y-115395399D01*
X142241192Y-115357220D01*
X142035526Y-115151195D01*
X142635800Y-115151195D01*
X143510000Y-116025395D01*
X144384200Y-115151195D01*
X144302259Y-114898484D01*
X143741970Y-114694752D01*
X143146365Y-114720942D01*
X142717741Y-114898484D01*
X142635800Y-115151195D01*
X142035526Y-115151195D01*
X141819997Y-114935290D01*
X141269398Y-114706661D01*
X140673218Y-114706141D01*
X140122220Y-114933808D01*
X139700290Y-115355003D01*
X139699905Y-115355931D01*
X139279997Y-114935290D01*
X138729398Y-114706661D01*
X138133218Y-114706141D01*
X137582220Y-114933808D01*
X137160290Y-115355003D01*
X137159905Y-115355931D01*
X136739997Y-114935290D01*
X136189398Y-114706661D01*
X135593218Y-114706141D01*
X135042220Y-114933808D01*
X134620290Y-115355003D01*
X134619905Y-115355931D01*
X134199997Y-114935290D01*
X133649398Y-114706661D01*
X133383373Y-114706429D01*
X135157401Y-112932401D01*
X135322148Y-112685839D01*
X135380000Y-112395000D01*
X135380000Y-102375889D01*
X135590602Y-102463339D01*
X136186782Y-102463859D01*
X136737780Y-102236192D01*
X136955546Y-102018805D01*
X137555800Y-102018805D01*
X137637741Y-102271516D01*
X138198030Y-102475248D01*
X138793635Y-102449058D01*
X139222259Y-102271516D01*
X139304200Y-102018805D01*
X138430000Y-101144605D01*
X137555800Y-102018805D01*
X136955546Y-102018805D01*
X137159710Y-101814997D01*
X137176541Y-101774463D01*
X137376195Y-101839200D01*
X138250395Y-100965000D01*
X138609605Y-100965000D01*
X139483805Y-101839200D01*
X139683033Y-101774601D01*
X139698808Y-101812780D01*
X140120003Y-102234710D01*
X140670602Y-102463339D01*
X141266782Y-102463859D01*
X141817780Y-102236192D01*
X142239710Y-101814997D01*
X142240095Y-101814069D01*
X142660003Y-102234710D01*
X143210602Y-102463339D01*
X143806782Y-102463859D01*
X144357780Y-102236192D01*
X144574876Y-102019475D01*
X144583238Y-102063917D01*
X144722310Y-102280041D01*
X144934510Y-102425031D01*
X145186400Y-102476040D01*
X146913600Y-102476040D01*
X147148917Y-102431762D01*
X147365041Y-102292690D01*
X147510031Y-102080490D01*
X147561040Y-101828600D01*
X147561040Y-100101400D01*
X147516762Y-99866083D01*
X147377690Y-99649959D01*
X147165490Y-99504969D01*
X146913600Y-99453960D01*
X145186400Y-99453960D01*
X144951083Y-99498238D01*
X144734959Y-99637310D01*
X144589969Y-99849510D01*
X144577148Y-99912820D01*
X144359997Y-99695290D01*
X143809398Y-99466661D01*
X143213218Y-99466141D01*
X142662220Y-99693808D01*
X142240290Y-100115003D01*
X142239905Y-100115931D01*
X141819997Y-99695290D01*
X141269398Y-99466661D01*
X140673218Y-99466141D01*
X140122220Y-99693808D01*
X139700290Y-100115003D01*
X139683459Y-100155537D01*
X139483805Y-100090800D01*
X138609605Y-100965000D01*
X138250395Y-100965000D01*
X137376195Y-100090800D01*
X137176967Y-100155399D01*
X137161192Y-100117220D01*
X136955526Y-99911195D01*
X137555800Y-99911195D01*
X138430000Y-100785395D01*
X139304200Y-99911195D01*
X139222259Y-99658484D01*
X138661970Y-99454752D01*
X138066365Y-99480942D01*
X137637741Y-99658484D01*
X137555800Y-99911195D01*
X136955526Y-99911195D01*
X136739997Y-99695290D01*
X136189398Y-99466661D01*
X135593218Y-99466141D01*
X135380000Y-99554241D01*
X135380000Y-98567648D01*
X135890000Y-98669093D01*
X136458285Y-98556054D01*
X136940054Y-98234147D01*
X137167702Y-97893447D01*
X137234817Y-98036358D01*
X137663076Y-98426645D01*
X138073110Y-98596476D01*
X138303000Y-98475155D01*
X138303000Y-97282000D01*
X138283000Y-97282000D01*
X138283000Y-97028000D01*
X138303000Y-97028000D01*
X138303000Y-95834845D01*
X138073110Y-95713524D01*
X137663076Y-95883355D01*
X137234817Y-96273642D01*
X137167702Y-96416553D01*
X136940054Y-96075853D01*
X136458285Y-95753946D01*
X135890000Y-95640907D01*
X135380000Y-95742352D01*
X135380000Y-95564802D01*
X136029680Y-94915122D01*
X136075167Y-94915162D01*
X136418943Y-94773117D01*
X136682192Y-94510327D01*
X136824838Y-94166799D01*
X136825162Y-93794833D01*
X136683117Y-93451057D01*
X136420327Y-93187808D01*
X136076799Y-93045162D01*
X135704833Y-93044838D01*
X135361057Y-93186883D01*
X135097808Y-93449673D01*
X134955162Y-93793201D01*
X134955121Y-93840077D01*
X134082599Y-94712599D01*
X133917852Y-94959161D01*
X133860000Y-95250000D01*
X133860000Y-95742352D01*
X133350000Y-95640907D01*
X132840000Y-95742352D01*
X132840000Y-95564802D01*
X133489680Y-94915122D01*
X133535167Y-94915162D01*
X133878943Y-94773117D01*
X134142192Y-94510327D01*
X134284838Y-94166799D01*
X134285162Y-93794833D01*
X134143117Y-93451057D01*
X133880327Y-93187808D01*
X133536799Y-93045162D01*
X133164833Y-93044838D01*
X132821057Y-93186883D01*
X132557808Y-93449673D01*
X132415162Y-93793201D01*
X132415121Y-93840077D01*
X131542599Y-94712599D01*
X131377852Y-94959161D01*
X131320000Y-95250000D01*
X131320000Y-95742352D01*
X130810000Y-95640907D01*
X130300000Y-95742352D01*
X130300000Y-86362954D01*
X130590054Y-86169147D01*
X130810000Y-85839974D01*
X131029946Y-86169147D01*
X131511715Y-86491054D01*
X132080000Y-86604093D01*
X132648285Y-86491054D01*
X133130054Y-86169147D01*
X133350000Y-85839974D01*
X133569946Y-86169147D01*
X134051715Y-86491054D01*
X134620000Y-86604093D01*
X135188285Y-86491054D01*
X135670054Y-86169147D01*
X135890000Y-85839974D01*
X136109946Y-86169147D01*
X136591715Y-86491054D01*
X137160000Y-86604093D01*
X137728285Y-86491054D01*
X138210054Y-86169147D01*
X138430000Y-85839974D01*
X138649946Y-86169147D01*
X139131715Y-86491054D01*
X139700000Y-86604093D01*
X140268285Y-86491054D01*
X140750054Y-86169147D01*
X140970000Y-85839974D01*
X141189946Y-86169147D01*
X141671715Y-86491054D01*
X142240000Y-86604093D01*
X142808285Y-86491054D01*
X143290054Y-86169147D01*
X143510000Y-85839974D01*
X143729946Y-86169147D01*
X144211715Y-86491054D01*
X144780000Y-86604093D01*
X145348285Y-86491054D01*
X145830054Y-86169147D01*
X146050000Y-85839974D01*
X146269946Y-86169147D01*
X146560000Y-86362954D01*
X146560000Y-93030198D01*
X143876408Y-95713790D01*
X143510000Y-95640907D01*
X142941715Y-95753946D01*
X142459946Y-96075853D01*
X142240000Y-96405026D01*
X142020054Y-96075853D01*
X141538285Y-95753946D01*
X140970000Y-95640907D01*
X140401715Y-95753946D01*
X139919946Y-96075853D01*
X139692298Y-96416553D01*
X139625183Y-96273642D01*
X139196924Y-95883355D01*
X138786890Y-95713524D01*
X138557000Y-95834845D01*
X138557000Y-97028000D01*
X138577000Y-97028000D01*
X138577000Y-97282000D01*
X138557000Y-97282000D01*
X138557000Y-98475155D01*
X138786890Y-98596476D01*
X139196924Y-98426645D01*
X139625183Y-98036358D01*
X139692298Y-97893447D01*
X139919946Y-98234147D01*
X140401715Y-98556054D01*
X140970000Y-98669093D01*
X141538285Y-98556054D01*
X142020054Y-98234147D01*
X142240000Y-97904974D01*
X142459946Y-98234147D01*
X142941715Y-98556054D01*
X143510000Y-98669093D01*
X144078285Y-98556054D01*
X144560054Y-98234147D01*
X144587850Y-98192548D01*
X144596838Y-98240317D01*
X144735910Y-98456441D01*
X144948110Y-98601431D01*
X145200000Y-98652440D01*
X146900000Y-98652440D01*
X147135317Y-98608162D01*
X147351441Y-98469090D01*
X147496431Y-98256890D01*
X147547440Y-98005000D01*
X147547440Y-96305000D01*
X147503162Y-96069683D01*
X147364090Y-95853559D01*
X147151890Y-95708569D01*
X146900000Y-95657560D01*
X146082242Y-95657560D01*
X147857401Y-93882401D01*
X148022148Y-93635839D01*
X148080000Y-93345000D01*
X148080000Y-86362954D01*
X148370054Y-86169147D01*
X148691961Y-85687378D01*
X148805000Y-85119093D01*
X148805000Y-85060907D01*
X148691961Y-84492622D01*
X148370054Y-84010853D01*
X147888285Y-83688946D01*
X147320000Y-83575907D01*
X146751715Y-83688946D01*
X146269946Y-84010853D01*
X146050000Y-84340026D01*
X145830054Y-84010853D01*
X145348285Y-83688946D01*
X144780000Y-83575907D01*
X144211715Y-83688946D01*
X143729946Y-84010853D01*
X143510000Y-84340026D01*
X143290054Y-84010853D01*
X142808285Y-83688946D01*
X142240000Y-83575907D01*
X141671715Y-83688946D01*
X141189946Y-84010853D01*
X140970000Y-84340026D01*
X140750054Y-84010853D01*
X140268285Y-83688946D01*
X139700000Y-83575907D01*
X139131715Y-83688946D01*
X138649946Y-84010853D01*
X138430000Y-84340026D01*
X138210054Y-84010853D01*
X137728285Y-83688946D01*
X137160000Y-83575907D01*
X136591715Y-83688946D01*
X136109946Y-84010853D01*
X135890000Y-84340026D01*
X135670054Y-84010853D01*
X135188285Y-83688946D01*
X134620000Y-83575907D01*
X134051715Y-83688946D01*
X133569946Y-84010853D01*
X133350000Y-84340026D01*
X133130054Y-84010853D01*
X132648285Y-83688946D01*
X132080000Y-83575907D01*
X131511715Y-83688946D01*
X131029946Y-84010853D01*
X130810000Y-84340026D01*
X130590054Y-84010853D01*
X130108285Y-83688946D01*
X129540000Y-83575907D01*
X128971715Y-83688946D01*
X128489946Y-84010853D01*
X128270000Y-84340026D01*
X128050054Y-84010853D01*
X127568285Y-83688946D01*
X127000000Y-83575907D01*
X126431715Y-83688946D01*
X125949946Y-84010853D01*
X125722298Y-84351553D01*
X125655183Y-84208642D01*
X125226924Y-83818355D01*
X124816890Y-83648524D01*
X124587000Y-83769845D01*
X124587000Y-84963000D01*
X124607000Y-84963000D01*
X124607000Y-85217000D01*
X124587000Y-85217000D01*
X124587000Y-86410155D01*
X124816890Y-86531476D01*
X125226924Y-86361645D01*
X125655183Y-85971358D01*
X125722298Y-85828447D01*
X125949946Y-86169147D01*
X126431715Y-86491054D01*
X127000000Y-86604093D01*
X127568285Y-86491054D01*
X128050054Y-86169147D01*
X128270000Y-85839974D01*
X128489946Y-86169147D01*
X128780000Y-86362954D01*
X128780000Y-95742352D01*
X128270000Y-95640907D01*
X127701715Y-95753946D01*
X127219946Y-96075853D01*
X127000000Y-96405026D01*
X126780054Y-96075853D01*
X126298285Y-95753946D01*
X125730000Y-95640907D01*
X125161715Y-95753946D01*
X124679946Y-96075853D01*
X124460000Y-96405026D01*
X124240054Y-96075853D01*
X123758285Y-95753946D01*
X123190000Y-95640907D01*
X122621715Y-95753946D01*
X122139946Y-96075853D01*
X121920000Y-96405026D01*
X121700054Y-96075853D01*
X121218285Y-95753946D01*
X120650000Y-95640907D01*
X120081715Y-95753946D01*
X119599946Y-96075853D01*
X119380000Y-96405026D01*
X119160054Y-96075853D01*
X118678285Y-95753946D01*
X118110000Y-95640907D01*
X117541715Y-95753946D01*
X117059946Y-96075853D01*
X116840000Y-96405026D01*
X116620054Y-96075853D01*
X116138285Y-95753946D01*
X115570000Y-95640907D01*
X115001715Y-95753946D01*
X114519946Y-96075853D01*
X114300000Y-96405026D01*
X114080054Y-96075853D01*
X113598285Y-95753946D01*
X113030000Y-95640907D01*
X112461715Y-95753946D01*
X111979946Y-96075853D01*
X111760000Y-96405026D01*
X111540054Y-96075853D01*
X111058285Y-95753946D01*
X110490000Y-95640907D01*
X109982000Y-95741955D01*
X109982000Y-85532619D01*
X110159613Y-85532619D01*
X110499155Y-86354372D01*
X111127321Y-86983636D01*
X111948481Y-87324611D01*
X112837619Y-87325387D01*
X113659372Y-86985845D01*
X114288636Y-86357679D01*
X114629611Y-85536519D01*
X114630387Y-84647381D01*
X114290845Y-83825628D01*
X113662679Y-83196364D01*
X112841519Y-82855389D01*
X111952381Y-82854613D01*
X111130628Y-83194155D01*
X110501364Y-83822321D01*
X110160389Y-84643481D01*
X110159613Y-85532619D01*
X109982000Y-85532619D01*
X109982000Y-82677000D01*
X121811420Y-82677000D01*
X121294210Y-83194210D01*
G36*
X130510602Y-102463339D02*
X131106782Y-102463859D01*
X131320000Y-102375759D01*
X131320000Y-112080198D01*
X128657114Y-114743084D01*
X128569398Y-114706661D01*
X127973218Y-114706141D01*
X127422220Y-114933808D01*
X127000290Y-115355003D01*
X126999905Y-115355931D01*
X126579997Y-114935290D01*
X126029398Y-114706661D01*
X125433218Y-114706141D01*
X124882220Y-114933808D01*
X124460290Y-115355003D01*
X124459905Y-115355931D01*
X124039997Y-114935290D01*
X123489398Y-114706661D01*
X122893218Y-114706141D01*
X122342220Y-114933808D01*
X121920290Y-115355003D01*
X121919905Y-115355931D01*
X121499997Y-114935290D01*
X120949398Y-114706661D01*
X120353218Y-114706141D01*
X119802220Y-114933808D01*
X119380290Y-115355003D01*
X119379905Y-115355931D01*
X118959997Y-114935290D01*
X118409398Y-114706661D01*
X117813218Y-114706141D01*
X117262220Y-114933808D01*
X116840290Y-115355003D01*
X116839905Y-115355931D01*
X116419997Y-114935290D01*
X115869398Y-114706661D01*
X115273218Y-114706141D01*
X114722220Y-114933808D01*
X114300290Y-115355003D01*
X114299905Y-115355931D01*
X113879997Y-114935290D01*
X113329398Y-114706661D01*
X113063373Y-114706429D01*
X113344802Y-114425000D01*
X118110000Y-114425000D01*
X118400839Y-114367148D01*
X118647401Y-114202401D01*
X130077401Y-102772401D01*
X130242148Y-102525839D01*
X130274113Y-102365140D01*
X130510602Y-102463339D01*
X130510602Y-102463339D01*
G37*
X130510602Y-102463339D02*
X131106782Y-102463859D01*
X131320000Y-102375759D01*
X131320000Y-112080198D01*
X128657114Y-114743084D01*
X128569398Y-114706661D01*
X127973218Y-114706141D01*
X127422220Y-114933808D01*
X127000290Y-115355003D01*
X126999905Y-115355931D01*
X126579997Y-114935290D01*
X126029398Y-114706661D01*
X125433218Y-114706141D01*
X124882220Y-114933808D01*
X124460290Y-115355003D01*
X124459905Y-115355931D01*
X124039997Y-114935290D01*
X123489398Y-114706661D01*
X122893218Y-114706141D01*
X122342220Y-114933808D01*
X121920290Y-115355003D01*
X121919905Y-115355931D01*
X121499997Y-114935290D01*
X120949398Y-114706661D01*
X120353218Y-114706141D01*
X119802220Y-114933808D01*
X119380290Y-115355003D01*
X119379905Y-115355931D01*
X118959997Y-114935290D01*
X118409398Y-114706661D01*
X117813218Y-114706141D01*
X117262220Y-114933808D01*
X116840290Y-115355003D01*
X116839905Y-115355931D01*
X116419997Y-114935290D01*
X115869398Y-114706661D01*
X115273218Y-114706141D01*
X114722220Y-114933808D01*
X114300290Y-115355003D01*
X114299905Y-115355931D01*
X113879997Y-114935290D01*
X113329398Y-114706661D01*
X113063373Y-114706429D01*
X113344802Y-114425000D01*
X118110000Y-114425000D01*
X118400839Y-114367148D01*
X118647401Y-114202401D01*
X130077401Y-102772401D01*
X130242148Y-102525839D01*
X130274113Y-102365140D01*
X130510602Y-102463339D01*
G36*
X127420003Y-102234710D02*
X127970602Y-102463339D01*
X128236627Y-102463571D01*
X117795198Y-112905000D01*
X113030000Y-112905000D01*
X112787414Y-112953254D01*
X112739160Y-112962852D01*
X112492599Y-113127599D01*
X110877114Y-114743084D01*
X110789398Y-114706661D01*
X110193218Y-114706141D01*
X109982000Y-114793414D01*
X109982000Y-102376720D01*
X110190602Y-102463339D01*
X110786782Y-102463859D01*
X111337780Y-102236192D01*
X111759710Y-101814997D01*
X111760095Y-101814069D01*
X112180003Y-102234710D01*
X112730602Y-102463339D01*
X113326782Y-102463859D01*
X113877780Y-102236192D01*
X114299710Y-101814997D01*
X114300095Y-101814069D01*
X114720003Y-102234710D01*
X115270602Y-102463339D01*
X115866782Y-102463859D01*
X116417780Y-102236192D01*
X116839710Y-101814997D01*
X116840095Y-101814069D01*
X117260003Y-102234710D01*
X117810602Y-102463339D01*
X118406782Y-102463859D01*
X118957780Y-102236192D01*
X119379710Y-101814997D01*
X119380095Y-101814069D01*
X119800003Y-102234710D01*
X120350602Y-102463339D01*
X120946782Y-102463859D01*
X121497780Y-102236192D01*
X121919710Y-101814997D01*
X121920095Y-101814069D01*
X122340003Y-102234710D01*
X122890602Y-102463339D01*
X123486782Y-102463859D01*
X124037780Y-102236192D01*
X124459710Y-101814997D01*
X124460095Y-101814069D01*
X124880003Y-102234710D01*
X125430602Y-102463339D01*
X126026782Y-102463859D01*
X126577780Y-102236192D01*
X126999710Y-101814997D01*
X127000095Y-101814069D01*
X127420003Y-102234710D01*
X127420003Y-102234710D01*
G37*
X127420003Y-102234710D02*
X127970602Y-102463339D01*
X128236627Y-102463571D01*
X117795198Y-112905000D01*
X113030000Y-112905000D01*
X112787414Y-112953254D01*
X112739160Y-112962852D01*
X112492599Y-113127599D01*
X110877114Y-114743084D01*
X110789398Y-114706661D01*
X110193218Y-114706141D01*
X109982000Y-114793414D01*
X109982000Y-102376720D01*
X110190602Y-102463339D01*
X110786782Y-102463859D01*
X111337780Y-102236192D01*
X111759710Y-101814997D01*
X111760095Y-101814069D01*
X112180003Y-102234710D01*
X112730602Y-102463339D01*
X113326782Y-102463859D01*
X113877780Y-102236192D01*
X114299710Y-101814997D01*
X114300095Y-101814069D01*
X114720003Y-102234710D01*
X115270602Y-102463339D01*
X115866782Y-102463859D01*
X116417780Y-102236192D01*
X116839710Y-101814997D01*
X116840095Y-101814069D01*
X117260003Y-102234710D01*
X117810602Y-102463339D01*
X118406782Y-102463859D01*
X118957780Y-102236192D01*
X119379710Y-101814997D01*
X119380095Y-101814069D01*
X119800003Y-102234710D01*
X120350602Y-102463339D01*
X120946782Y-102463859D01*
X121497780Y-102236192D01*
X121919710Y-101814997D01*
X121920095Y-101814069D01*
X122340003Y-102234710D01*
X122890602Y-102463339D01*
X123486782Y-102463859D01*
X124037780Y-102236192D01*
X124459710Y-101814997D01*
X124460095Y-101814069D01*
X124880003Y-102234710D01*
X125430602Y-102463339D01*
X126026782Y-102463859D01*
X126577780Y-102236192D01*
X126999710Y-101814997D01*
X127000095Y-101814069D01*
X127420003Y-102234710D01*
G36*
X133860000Y-112080198D02*
X131197114Y-114743084D01*
X131109398Y-114706661D01*
X130843373Y-114706429D01*
X132617401Y-112932401D01*
X132782148Y-112685839D01*
X132840000Y-112395000D01*
X132840000Y-102375889D01*
X133050602Y-102463339D01*
X133646782Y-102463859D01*
X133860000Y-102375759D01*
X133860000Y-112080198D01*
X133860000Y-112080198D01*
G37*
X133860000Y-112080198D02*
X131197114Y-114743084D01*
X131109398Y-114706661D01*
X130843373Y-114706429D01*
X132617401Y-112932401D01*
X132782148Y-112685839D01*
X132840000Y-112395000D01*
X132840000Y-102375889D01*
X133050602Y-102463339D01*
X133646782Y-102463859D01*
X133860000Y-102375759D01*
X133860000Y-112080198D01*
M02*
