G04 #@! TF.FileFunction,Legend,Bot*
%FSLAX46Y46*%
G04 Gerber Fmt 4.6, Leading zero omitted, Abs format (unit mm)*
G04 Created by KiCad (PCBNEW 4.0.7+dfsg1-1~bpo9+1) date Wed May  2 15:24:50 2018*
%MOMM*%
%LPD*%
G01*
G04 APERTURE LIST*
%ADD10C,0.100000*%
%ADD11C,0.300000*%
%ADD12C,0.120000*%
G04 APERTURE END LIST*
D10*
D11*
X106723571Y-89313571D02*
X105223571Y-89313571D01*
X105223571Y-89884999D01*
X105295000Y-90027857D01*
X105366429Y-90099285D01*
X105509286Y-90170714D01*
X105723571Y-90170714D01*
X105866429Y-90099285D01*
X105937857Y-90027857D01*
X106009286Y-89884999D01*
X106009286Y-89313571D01*
X106723571Y-91456428D02*
X105937857Y-91456428D01*
X105795000Y-91384999D01*
X105723571Y-91242142D01*
X105723571Y-90956428D01*
X105795000Y-90813571D01*
X106652143Y-91456428D02*
X106723571Y-91313571D01*
X106723571Y-90956428D01*
X106652143Y-90813571D01*
X106509286Y-90742142D01*
X106366429Y-90742142D01*
X106223571Y-90813571D01*
X106152143Y-90956428D01*
X106152143Y-91313571D01*
X106080714Y-91456428D01*
X106652143Y-92099285D02*
X106723571Y-92242142D01*
X106723571Y-92527857D01*
X106652143Y-92670714D01*
X106509286Y-92742142D01*
X106437857Y-92742142D01*
X106295000Y-92670714D01*
X106223571Y-92527857D01*
X106223571Y-92313571D01*
X106152143Y-92170714D01*
X106009286Y-92099285D01*
X105937857Y-92099285D01*
X105795000Y-92170714D01*
X105723571Y-92313571D01*
X105723571Y-92527857D01*
X105795000Y-92670714D01*
X106652143Y-93313571D02*
X106723571Y-93456428D01*
X106723571Y-93742143D01*
X106652143Y-93885000D01*
X106509286Y-93956428D01*
X106437857Y-93956428D01*
X106295000Y-93885000D01*
X106223571Y-93742143D01*
X106223571Y-93527857D01*
X106152143Y-93385000D01*
X106009286Y-93313571D01*
X105937857Y-93313571D01*
X105795000Y-93385000D01*
X105723571Y-93527857D01*
X105723571Y-93742143D01*
X105795000Y-93885000D01*
X105723571Y-94385000D02*
X105723571Y-94956429D01*
X105223571Y-94599286D02*
X106509286Y-94599286D01*
X106652143Y-94670714D01*
X106723571Y-94813572D01*
X106723571Y-94956429D01*
X106723571Y-95456429D02*
X105223571Y-95456429D01*
X106723571Y-96099286D02*
X105937857Y-96099286D01*
X105795000Y-96027857D01*
X105723571Y-95885000D01*
X105723571Y-95670715D01*
X105795000Y-95527857D01*
X105866429Y-95456429D01*
X106723571Y-96813572D02*
X105723571Y-96813572D01*
X106009286Y-96813572D02*
X105866429Y-96885000D01*
X105795000Y-96956429D01*
X105723571Y-97099286D01*
X105723571Y-97242143D01*
X106723571Y-97956429D02*
X106652143Y-97813571D01*
X106580714Y-97742143D01*
X106437857Y-97670714D01*
X106009286Y-97670714D01*
X105866429Y-97742143D01*
X105795000Y-97813571D01*
X105723571Y-97956429D01*
X105723571Y-98170714D01*
X105795000Y-98313571D01*
X105866429Y-98385000D01*
X106009286Y-98456429D01*
X106437857Y-98456429D01*
X106580714Y-98385000D01*
X106652143Y-98313571D01*
X106723571Y-98170714D01*
X106723571Y-97956429D01*
X105723571Y-99742143D02*
X106723571Y-99742143D01*
X105723571Y-99099286D02*
X106509286Y-99099286D01*
X106652143Y-99170714D01*
X106723571Y-99313572D01*
X106723571Y-99527857D01*
X106652143Y-99670714D01*
X106580714Y-99742143D01*
X105723571Y-101099286D02*
X106937857Y-101099286D01*
X107080714Y-101027857D01*
X107152143Y-100956429D01*
X107223571Y-100813572D01*
X107223571Y-100599286D01*
X107152143Y-100456429D01*
X106652143Y-101099286D02*
X106723571Y-100956429D01*
X106723571Y-100670715D01*
X106652143Y-100527857D01*
X106580714Y-100456429D01*
X106437857Y-100385000D01*
X106009286Y-100385000D01*
X105866429Y-100456429D01*
X105795000Y-100527857D01*
X105723571Y-100670715D01*
X105723571Y-100956429D01*
X105795000Y-101099286D01*
X106723571Y-101813572D02*
X105223571Y-101813572D01*
X106723571Y-102456429D02*
X105937857Y-102456429D01*
X105795000Y-102385000D01*
X105723571Y-102242143D01*
X105723571Y-102027858D01*
X105795000Y-101885000D01*
X105866429Y-101813572D01*
X102127857Y-92492143D02*
X102127857Y-92992143D01*
X102913571Y-93206429D02*
X102913571Y-92492143D01*
X101413571Y-92492143D01*
X101413571Y-93206429D01*
X101913571Y-93849286D02*
X102913571Y-93849286D01*
X102056429Y-93849286D02*
X101985000Y-93920714D01*
X101913571Y-94063572D01*
X101913571Y-94277857D01*
X101985000Y-94420714D01*
X102127857Y-94492143D01*
X102913571Y-94492143D01*
X102913571Y-95849286D02*
X102127857Y-95849286D01*
X101985000Y-95777857D01*
X101913571Y-95635000D01*
X101913571Y-95349286D01*
X101985000Y-95206429D01*
X102842143Y-95849286D02*
X102913571Y-95706429D01*
X102913571Y-95349286D01*
X102842143Y-95206429D01*
X102699286Y-95135000D01*
X102556429Y-95135000D01*
X102413571Y-95206429D01*
X102342143Y-95349286D01*
X102342143Y-95706429D01*
X102270714Y-95849286D01*
X102913571Y-96563572D02*
X101413571Y-96563572D01*
X101985000Y-96563572D02*
X101913571Y-96706429D01*
X101913571Y-96992143D01*
X101985000Y-97135000D01*
X102056429Y-97206429D01*
X102199286Y-97277858D01*
X102627857Y-97277858D01*
X102770714Y-97206429D01*
X102842143Y-97135000D01*
X102913571Y-96992143D01*
X102913571Y-96706429D01*
X102842143Y-96563572D01*
X102913571Y-98135001D02*
X102842143Y-97992143D01*
X102699286Y-97920715D01*
X101413571Y-97920715D01*
X102842143Y-99277857D02*
X102913571Y-99135000D01*
X102913571Y-98849286D01*
X102842143Y-98706429D01*
X102699286Y-98635000D01*
X102127857Y-98635000D01*
X101985000Y-98706429D01*
X101913571Y-98849286D01*
X101913571Y-99135000D01*
X101985000Y-99277857D01*
X102127857Y-99349286D01*
X102270714Y-99349286D01*
X102413571Y-98635000D01*
D12*
X101345000Y-107950000D02*
X101345000Y-105410000D01*
X103125000Y-105410000D02*
X103125000Y-107950000D01*
X103125000Y-105410000D02*
X101345000Y-105410000D01*
X101345000Y-107950000D02*
X103125000Y-107950000D01*
X65465000Y-121345000D02*
X62805000Y-121345000D01*
X65465000Y-103505000D02*
X65465000Y-121345000D01*
X62805000Y-103505000D02*
X62805000Y-121345000D01*
X65465000Y-103505000D02*
X62805000Y-103505000D01*
X65465000Y-102235000D02*
X65465000Y-100905000D01*
X65465000Y-100905000D02*
X64135000Y-100905000D01*
X68005000Y-121345000D02*
X65345000Y-121345000D01*
X68005000Y-103505000D02*
X68005000Y-121345000D01*
X65345000Y-103505000D02*
X65345000Y-121345000D01*
X68005000Y-103505000D02*
X65345000Y-103505000D01*
X68005000Y-102235000D02*
X68005000Y-100905000D01*
X68005000Y-100905000D02*
X66675000Y-100905000D01*
X101025000Y-95825000D02*
X101025000Y-98485000D01*
X67945000Y-95825000D02*
X101025000Y-95825000D01*
X67945000Y-98485000D02*
X101025000Y-98485000D01*
X67945000Y-95825000D02*
X67945000Y-98485000D01*
X66675000Y-95825000D02*
X65345000Y-95825000D01*
X65345000Y-95825000D02*
X65345000Y-97155000D01*
X101025000Y-98365000D02*
X101025000Y-101025000D01*
X67945000Y-98365000D02*
X101025000Y-98365000D01*
X67945000Y-101025000D02*
X101025000Y-101025000D01*
X67945000Y-98365000D02*
X67945000Y-101025000D01*
X66675000Y-98365000D02*
X65345000Y-98365000D01*
X65345000Y-98365000D02*
X65345000Y-99695000D01*
X101025000Y-88205000D02*
X101025000Y-90865000D01*
X67945000Y-88205000D02*
X101025000Y-88205000D01*
X67945000Y-90865000D02*
X101025000Y-90865000D01*
X67945000Y-88205000D02*
X67945000Y-90865000D01*
X66675000Y-88205000D02*
X65345000Y-88205000D01*
X65345000Y-88205000D02*
X65345000Y-89535000D01*
X98485000Y-121345000D02*
X95825000Y-121345000D01*
X98485000Y-103505000D02*
X98485000Y-121345000D01*
X95825000Y-103505000D02*
X95825000Y-121345000D01*
X98485000Y-103505000D02*
X95825000Y-103505000D01*
X98485000Y-102235000D02*
X98485000Y-100905000D01*
X98485000Y-100905000D02*
X97155000Y-100905000D01*
X83245000Y-121345000D02*
X80585000Y-121345000D01*
X83245000Y-103505000D02*
X83245000Y-121345000D01*
X80585000Y-103505000D02*
X80585000Y-121345000D01*
X83245000Y-103505000D02*
X80585000Y-103505000D01*
X83245000Y-102235000D02*
X83245000Y-100905000D01*
X83245000Y-100905000D02*
X81915000Y-100905000D01*
X80705000Y-121345000D02*
X78045000Y-121345000D01*
X80705000Y-103505000D02*
X80705000Y-121345000D01*
X78045000Y-103505000D02*
X78045000Y-121345000D01*
X80705000Y-103505000D02*
X78045000Y-103505000D01*
X80705000Y-102235000D02*
X80705000Y-100905000D01*
X80705000Y-100905000D02*
X79375000Y-100905000D01*
X90865000Y-121345000D02*
X88205000Y-121345000D01*
X90865000Y-103505000D02*
X90865000Y-121345000D01*
X88205000Y-103505000D02*
X88205000Y-121345000D01*
X90865000Y-103505000D02*
X88205000Y-103505000D01*
X90865000Y-102235000D02*
X90865000Y-100905000D01*
X90865000Y-100905000D02*
X89535000Y-100905000D01*
X88325000Y-121345000D02*
X85665000Y-121345000D01*
X88325000Y-103505000D02*
X88325000Y-121345000D01*
X85665000Y-103505000D02*
X85665000Y-121345000D01*
X88325000Y-103505000D02*
X85665000Y-103505000D01*
X88325000Y-102235000D02*
X88325000Y-100905000D01*
X88325000Y-100905000D02*
X86995000Y-100905000D01*
X73085000Y-121345000D02*
X70425000Y-121345000D01*
X73085000Y-103505000D02*
X73085000Y-121345000D01*
X70425000Y-103505000D02*
X70425000Y-121345000D01*
X73085000Y-103505000D02*
X70425000Y-103505000D01*
X73085000Y-102235000D02*
X73085000Y-100905000D01*
X73085000Y-100905000D02*
X71755000Y-100905000D01*
X78165000Y-121345000D02*
X75505000Y-121345000D01*
X78165000Y-103505000D02*
X78165000Y-121345000D01*
X75505000Y-103505000D02*
X75505000Y-121345000D01*
X78165000Y-103505000D02*
X75505000Y-103505000D01*
X78165000Y-102235000D02*
X78165000Y-100905000D01*
X78165000Y-100905000D02*
X76835000Y-100905000D01*
X101025000Y-121345000D02*
X98365000Y-121345000D01*
X101025000Y-103505000D02*
X101025000Y-121345000D01*
X98365000Y-103505000D02*
X98365000Y-121345000D01*
X101025000Y-103505000D02*
X98365000Y-103505000D01*
X101025000Y-102235000D02*
X101025000Y-100905000D01*
X101025000Y-100905000D02*
X99695000Y-100905000D01*
X101345000Y-102870000D02*
X101345000Y-100330000D01*
X103125000Y-100330000D02*
X103125000Y-102870000D01*
X103125000Y-100330000D02*
X101345000Y-100330000D01*
X101345000Y-102870000D02*
X103125000Y-102870000D01*
X105155000Y-105410000D02*
X105155000Y-102870000D01*
X106935000Y-102870000D02*
X106935000Y-105410000D01*
X106935000Y-102870000D02*
X105155000Y-102870000D01*
X105155000Y-105410000D02*
X106935000Y-105410000D01*
X105155000Y-110490000D02*
X105155000Y-107950000D01*
X106935000Y-107950000D02*
X106935000Y-110490000D01*
X106935000Y-107950000D02*
X105155000Y-107950000D01*
X105155000Y-110490000D02*
X106935000Y-110490000D01*
X101345000Y-113030000D02*
X101345000Y-110490000D01*
X103125000Y-110490000D02*
X103125000Y-113030000D01*
X103125000Y-110490000D02*
X101345000Y-110490000D01*
X101345000Y-113030000D02*
X103125000Y-113030000D01*
X105155000Y-115570000D02*
X105155000Y-113030000D01*
X106935000Y-113030000D02*
X106935000Y-115570000D01*
X106935000Y-113030000D02*
X105155000Y-113030000D01*
X105155000Y-115570000D02*
X106935000Y-115570000D01*
X101345000Y-118110000D02*
X101345000Y-115570000D01*
X103125000Y-115570000D02*
X103125000Y-118110000D01*
X103125000Y-115570000D02*
X101345000Y-115570000D01*
X101345000Y-118110000D02*
X103125000Y-118110000D01*
X105155000Y-120650000D02*
X105155000Y-118110000D01*
X106935000Y-118110000D02*
X106935000Y-120650000D01*
X106935000Y-118110000D02*
X105155000Y-118110000D01*
X105155000Y-120650000D02*
X106935000Y-120650000D01*
X85785000Y-121345000D02*
X83125000Y-121345000D01*
X85785000Y-103505000D02*
X85785000Y-121345000D01*
X83125000Y-103505000D02*
X83125000Y-121345000D01*
X85785000Y-103505000D02*
X83125000Y-103505000D01*
X85785000Y-102235000D02*
X85785000Y-100905000D01*
X85785000Y-100905000D02*
X84455000Y-100905000D01*
X75625000Y-121345000D02*
X72965000Y-121345000D01*
X75625000Y-103505000D02*
X75625000Y-121345000D01*
X72965000Y-103505000D02*
X72965000Y-121345000D01*
X75625000Y-103505000D02*
X72965000Y-103505000D01*
X75625000Y-102235000D02*
X75625000Y-100905000D01*
X75625000Y-100905000D02*
X74295000Y-100905000D01*
X101025000Y-93285000D02*
X101025000Y-95945000D01*
X67945000Y-93285000D02*
X101025000Y-93285000D01*
X67945000Y-95945000D02*
X101025000Y-95945000D01*
X67945000Y-93285000D02*
X67945000Y-95945000D01*
X66675000Y-93285000D02*
X65345000Y-93285000D01*
X65345000Y-93285000D02*
X65345000Y-94615000D01*
X101025000Y-90745000D02*
X101025000Y-93405000D01*
X67945000Y-90745000D02*
X101025000Y-90745000D01*
X67945000Y-93405000D02*
X101025000Y-93405000D01*
X67945000Y-90745000D02*
X67945000Y-93405000D01*
X66675000Y-90745000D02*
X65345000Y-90745000D01*
X65345000Y-90745000D02*
X65345000Y-92075000D01*
X93405000Y-121345000D02*
X90745000Y-121345000D01*
X93405000Y-103505000D02*
X93405000Y-121345000D01*
X90745000Y-103505000D02*
X90745000Y-121345000D01*
X93405000Y-103505000D02*
X90745000Y-103505000D01*
X93405000Y-102235000D02*
X93405000Y-100905000D01*
X93405000Y-100905000D02*
X92075000Y-100905000D01*
X95945000Y-121345000D02*
X93285000Y-121345000D01*
X95945000Y-103505000D02*
X95945000Y-121345000D01*
X93285000Y-103505000D02*
X93285000Y-121345000D01*
X95945000Y-103505000D02*
X93285000Y-103505000D01*
X95945000Y-102235000D02*
X95945000Y-100905000D01*
X95945000Y-100905000D02*
X94615000Y-100905000D01*
X70545000Y-121345000D02*
X67885000Y-121345000D01*
X70545000Y-103505000D02*
X70545000Y-121345000D01*
X67885000Y-103505000D02*
X67885000Y-121345000D01*
X70545000Y-103505000D02*
X67885000Y-103505000D01*
X70545000Y-102235000D02*
X70545000Y-100905000D01*
X70545000Y-100905000D02*
X69215000Y-100905000D01*
X88325000Y-123765000D02*
X88325000Y-126425000D01*
X70485000Y-123765000D02*
X88325000Y-123765000D01*
X70485000Y-126425000D02*
X88325000Y-126425000D01*
X70485000Y-123765000D02*
X70485000Y-126425000D01*
X69215000Y-123765000D02*
X67885000Y-123765000D01*
X67885000Y-123765000D02*
X67885000Y-125095000D01*
X98485000Y-85665000D02*
X98485000Y-88325000D01*
X80645000Y-85665000D02*
X98485000Y-85665000D01*
X80645000Y-88325000D02*
X98485000Y-88325000D01*
X80645000Y-85665000D02*
X80645000Y-88325000D01*
X79375000Y-85665000D02*
X78045000Y-85665000D01*
X78045000Y-85665000D02*
X78045000Y-86995000D01*
X101025000Y-121225000D02*
X101025000Y-123885000D01*
X67945000Y-121225000D02*
X101025000Y-121225000D01*
X67945000Y-123885000D02*
X101025000Y-123885000D01*
X67945000Y-121225000D02*
X67945000Y-123885000D01*
X66675000Y-121225000D02*
X65345000Y-121225000D01*
X65345000Y-121225000D02*
X65345000Y-122555000D01*
M02*
