G04 #@! TF.FileFunction,Soldermask,Top*
%FSLAX46Y46*%
G04 Gerber Fmt 4.6, Leading zero omitted, Abs format (unit mm)*
G04 Created by KiCad (PCBNEW 4.0.7+dfsg1-1~bpo9+1) date Wed May  2 15:41:06 2018*
%MOMM*%
%LPD*%
G01*
G04 APERTURE LIST*
%ADD10C,0.100000*%
%ADD11C,3.200000*%
%ADD12R,1.700000X1.700000*%
%ADD13O,1.700000X1.700000*%
%ADD14C,1.727200*%
%ADD15R,1.600000X1.600000*%
%ADD16O,1.600000X1.600000*%
%ADD17C,1.600000*%
%ADD18C,1.400000*%
%ADD19O,1.400000X1.400000*%
%ADD20C,1.750000*%
%ADD21O,4.000000X4.000000*%
G04 APERTURE END LIST*
D10*
D11*
X154305000Y-34925000D03*
X112395000Y-34925000D03*
D12*
X119380000Y-34925000D03*
D13*
X121920000Y-34925000D03*
X124460000Y-34925000D03*
X127000000Y-34925000D03*
X129540000Y-34925000D03*
X132080000Y-34925000D03*
X134620000Y-34925000D03*
X137160000Y-34925000D03*
X139700000Y-34925000D03*
X142240000Y-34925000D03*
X144780000Y-34925000D03*
X147320000Y-34925000D03*
D12*
X154305000Y-41910000D03*
D13*
X154305000Y-44450000D03*
X154305000Y-46990000D03*
X154305000Y-49530000D03*
X154305000Y-52070000D03*
X154305000Y-54610000D03*
X154305000Y-57150000D03*
X154305000Y-59690000D03*
X154305000Y-62230000D03*
X154305000Y-64770000D03*
X154305000Y-67310000D03*
X154305000Y-69850000D03*
D12*
X147320000Y-76835000D03*
D13*
X144780000Y-76835000D03*
X142240000Y-76835000D03*
X139700000Y-76835000D03*
X137160000Y-76835000D03*
X134620000Y-76835000D03*
X132080000Y-76835000D03*
X129540000Y-76835000D03*
X127000000Y-76835000D03*
X124460000Y-76835000D03*
X121920000Y-76835000D03*
X119380000Y-76835000D03*
D11*
X154305000Y-76835000D03*
X112395000Y-76835000D03*
D14*
X118110000Y-62865000D03*
X120650000Y-62865000D03*
X123190000Y-62865000D03*
X125730000Y-62865000D03*
X128270000Y-62865000D03*
X130810000Y-62865000D03*
X133350000Y-62865000D03*
X132080000Y-60325000D03*
X134620000Y-60325000D03*
X115570000Y-57785000D03*
X115570000Y-60325000D03*
X121920000Y-60325000D03*
X124460000Y-60325000D03*
X115570000Y-55245000D03*
X135890000Y-62865000D03*
X138430000Y-62865000D03*
X140970000Y-62865000D03*
X143510000Y-62865000D03*
X115570000Y-62865000D03*
X143620000Y-47625000D03*
X140970000Y-47625000D03*
X138430000Y-47625000D03*
X135890000Y-47625000D03*
X133350000Y-47625000D03*
X130810000Y-47625000D03*
X128270000Y-47625000D03*
X125730000Y-47625000D03*
X123190000Y-47625000D03*
X120650000Y-47625000D03*
X118110000Y-47625000D03*
X115570000Y-47625000D03*
D12*
X111760000Y-58420000D03*
D13*
X111760000Y-60960000D03*
X111760000Y-63500000D03*
X111760000Y-66040000D03*
X111760000Y-68580000D03*
X111760000Y-71120000D03*
D12*
X111760000Y-40640000D03*
D13*
X111760000Y-43180000D03*
X111760000Y-45720000D03*
X111760000Y-48260000D03*
X111760000Y-50800000D03*
X111760000Y-53340000D03*
D11*
X162560000Y-34925000D03*
X204470000Y-34925000D03*
X204470000Y-76835000D03*
X162560000Y-76835000D03*
D12*
X162560000Y-41910000D03*
D13*
X162560000Y-44450000D03*
X162560000Y-46990000D03*
X162560000Y-49530000D03*
X162560000Y-52070000D03*
X162560000Y-54610000D03*
X162560000Y-57150000D03*
X162560000Y-59690000D03*
X162560000Y-62230000D03*
X162560000Y-64770000D03*
X162560000Y-67310000D03*
X162560000Y-69850000D03*
D12*
X165100000Y-52070000D03*
D13*
X165100000Y-54610000D03*
X165100000Y-57150000D03*
X165100000Y-59690000D03*
X165100000Y-62230000D03*
X165100000Y-64770000D03*
X165100000Y-67310000D03*
X165100000Y-69850000D03*
D12*
X197485000Y-34925000D03*
D13*
X194945000Y-34925000D03*
X192405000Y-34925000D03*
X189865000Y-34925000D03*
X187325000Y-34925000D03*
X184785000Y-34925000D03*
X182245000Y-34925000D03*
X179705000Y-34925000D03*
X177165000Y-34925000D03*
X174625000Y-34925000D03*
X172085000Y-34925000D03*
X169545000Y-34925000D03*
D12*
X197485000Y-76835000D03*
D13*
X194945000Y-76835000D03*
X192405000Y-76835000D03*
X189865000Y-76835000D03*
X187325000Y-76835000D03*
X184785000Y-76835000D03*
X182245000Y-76835000D03*
X179705000Y-76835000D03*
X177165000Y-76835000D03*
X174625000Y-76835000D03*
X172085000Y-76835000D03*
X169545000Y-76835000D03*
D12*
X204470000Y-41910000D03*
D13*
X204470000Y-44450000D03*
X204470000Y-46990000D03*
X204470000Y-49530000D03*
X204470000Y-52070000D03*
X204470000Y-54610000D03*
X204470000Y-57150000D03*
X204470000Y-59690000D03*
X204470000Y-62230000D03*
X204470000Y-64770000D03*
X204470000Y-67310000D03*
X204470000Y-69850000D03*
D15*
X188595000Y-40640000D03*
D16*
X170815000Y-48260000D03*
X186055000Y-40640000D03*
X173355000Y-48260000D03*
X183515000Y-40640000D03*
X175895000Y-48260000D03*
X180975000Y-40640000D03*
X178435000Y-48260000D03*
X178435000Y-40640000D03*
X180975000Y-48260000D03*
X175895000Y-40640000D03*
X183515000Y-48260000D03*
X173355000Y-40640000D03*
X186055000Y-48260000D03*
X170815000Y-40640000D03*
X188595000Y-48260000D03*
D15*
X188595000Y-52070000D03*
D16*
X196215000Y-69850000D03*
X188595000Y-54610000D03*
X196215000Y-67310000D03*
X188595000Y-57150000D03*
X196215000Y-64770000D03*
X188595000Y-59690000D03*
X196215000Y-62230000D03*
X188595000Y-62230000D03*
X196215000Y-59690000D03*
X188595000Y-64770000D03*
X196215000Y-57150000D03*
X188595000Y-67310000D03*
X196215000Y-54610000D03*
X188595000Y-69850000D03*
X196215000Y-52070000D03*
D12*
X170180000Y-64135000D03*
D13*
X170180000Y-61595000D03*
X170180000Y-59055000D03*
X170180000Y-56515000D03*
D11*
X112395000Y-85090000D03*
X154305000Y-85090000D03*
X154305000Y-127000000D03*
X112395000Y-127000000D03*
D12*
X112395000Y-92075000D03*
D13*
X112395000Y-94615000D03*
X112395000Y-97155000D03*
X112395000Y-99695000D03*
X112395000Y-102235000D03*
X112395000Y-104775000D03*
X112395000Y-107315000D03*
X112395000Y-109855000D03*
X112395000Y-112395000D03*
X112395000Y-114935000D03*
X112395000Y-117475000D03*
X112395000Y-120015000D03*
D15*
X140970000Y-114300000D03*
D16*
X123190000Y-121920000D03*
X138430000Y-114300000D03*
X125730000Y-121920000D03*
X135890000Y-114300000D03*
X128270000Y-121920000D03*
X133350000Y-114300000D03*
X130810000Y-121920000D03*
X130810000Y-114300000D03*
X133350000Y-121920000D03*
X128270000Y-114300000D03*
X135890000Y-121920000D03*
X125730000Y-114300000D03*
X138430000Y-121920000D03*
X123190000Y-114300000D03*
X140970000Y-121920000D03*
D12*
X116840000Y-102235000D03*
D13*
X116840000Y-104775000D03*
X116840000Y-107315000D03*
X116840000Y-109855000D03*
X116840000Y-112395000D03*
X116840000Y-114935000D03*
X116840000Y-117475000D03*
X116840000Y-120015000D03*
D12*
X119380000Y-102235000D03*
D13*
X119380000Y-104775000D03*
X119380000Y-107315000D03*
X119380000Y-109855000D03*
D17*
X143510000Y-121920000D03*
X146010000Y-121920000D03*
X125730000Y-89535000D03*
X123230000Y-89535000D03*
D12*
X154305000Y-92075000D03*
D13*
X154305000Y-94615000D03*
X154305000Y-97155000D03*
X154305000Y-99695000D03*
X154305000Y-102235000D03*
X154305000Y-104775000D03*
X154305000Y-107315000D03*
X154305000Y-109855000D03*
X154305000Y-112395000D03*
X154305000Y-114935000D03*
X154305000Y-117475000D03*
X154305000Y-120015000D03*
D12*
X147320000Y-127000000D03*
D13*
X144780000Y-127000000D03*
X142240000Y-127000000D03*
X139700000Y-127000000D03*
X137160000Y-127000000D03*
X134620000Y-127000000D03*
X132080000Y-127000000D03*
X129540000Y-127000000D03*
X127000000Y-127000000D03*
X124460000Y-127000000D03*
X121920000Y-127000000D03*
X119380000Y-127000000D03*
D12*
X119380000Y-85090000D03*
D13*
X121920000Y-85090000D03*
X124460000Y-85090000D03*
X127000000Y-85090000D03*
X129540000Y-85090000D03*
X132080000Y-85090000D03*
X134620000Y-85090000D03*
X137160000Y-85090000D03*
X139700000Y-85090000D03*
X142240000Y-85090000D03*
X144780000Y-85090000D03*
X147320000Y-85090000D03*
D15*
X128270000Y-97155000D03*
D16*
X146050000Y-89535000D03*
X130810000Y-97155000D03*
X143510000Y-89535000D03*
X133350000Y-97155000D03*
X140970000Y-89535000D03*
X135890000Y-97155000D03*
X138430000Y-89535000D03*
X138430000Y-97155000D03*
X135890000Y-89535000D03*
X140970000Y-97155000D03*
X133350000Y-89535000D03*
X143510000Y-97155000D03*
X130810000Y-89535000D03*
X146050000Y-97155000D03*
X128270000Y-89535000D03*
D11*
X162560000Y-85090000D03*
X204470000Y-85090000D03*
X204470000Y-127000000D03*
X162560000Y-127000000D03*
D12*
X162560000Y-92075000D03*
D13*
X162560000Y-94615000D03*
X162560000Y-97155000D03*
X162560000Y-99695000D03*
X162560000Y-102235000D03*
X162560000Y-104775000D03*
X162560000Y-107315000D03*
X162560000Y-109855000D03*
X162560000Y-112395000D03*
X162560000Y-114935000D03*
X162560000Y-117475000D03*
X162560000Y-120015000D03*
D12*
X204470000Y-92075000D03*
D13*
X204470000Y-94615000D03*
X204470000Y-97155000D03*
X204470000Y-99695000D03*
X204470000Y-102235000D03*
X204470000Y-104775000D03*
X204470000Y-107315000D03*
X204470000Y-109855000D03*
X204470000Y-112395000D03*
X204470000Y-114935000D03*
X204470000Y-117475000D03*
X204470000Y-120015000D03*
D12*
X166370000Y-102235000D03*
D13*
X166370000Y-104775000D03*
X166370000Y-107315000D03*
X166370000Y-109855000D03*
X166370000Y-112395000D03*
X166370000Y-114935000D03*
X166370000Y-117475000D03*
X166370000Y-120015000D03*
D12*
X168910000Y-107315000D03*
D13*
X168910000Y-109855000D03*
X168910000Y-112395000D03*
X168910000Y-114935000D03*
X168910000Y-117475000D03*
X168910000Y-120015000D03*
D18*
X171450000Y-100965000D03*
D19*
X179070000Y-100965000D03*
D18*
X196850000Y-100965000D03*
D19*
X189230000Y-100965000D03*
D18*
X180340000Y-83820000D03*
D19*
X187960000Y-83820000D03*
D18*
X171450000Y-123190000D03*
D19*
X179070000Y-123190000D03*
D18*
X180340000Y-106045000D03*
D19*
X187960000Y-106045000D03*
D18*
X196850000Y-123190000D03*
D19*
X189230000Y-123190000D03*
D20*
X181650000Y-100845000D03*
X186650000Y-100845000D03*
X184150000Y-100845000D03*
X186650000Y-86345000D03*
X181650000Y-86345000D03*
D21*
X190350000Y-93345000D03*
X177950000Y-93345000D03*
D20*
X181650000Y-123070000D03*
X186650000Y-123070000D03*
X184150000Y-123070000D03*
X186650000Y-108570000D03*
X181650000Y-108570000D03*
D21*
X190350000Y-115570000D03*
X177950000Y-115570000D03*
M02*
