G04 #@! TF.FileFunction,Soldermask,Bot*
%FSLAX46Y46*%
G04 Gerber Fmt 4.6, Leading zero omitted, Abs format (unit mm)*
G04 Created by KiCad (PCBNEW 4.0.7+dfsg1-1~bpo9+1) date Tue May  1 16:34:38 2018*
%MOMM*%
%LPD*%
G01*
G04 APERTURE LIST*
%ADD10C,0.100000*%
%ADD11R,1.700000X1.700000*%
%ADD12O,1.700000X1.700000*%
%ADD13C,3.200000*%
%ADD14C,1.727200*%
%ADD15R,1.727200X1.727200*%
%ADD16R,1.600000X1.600000*%
%ADD17O,1.600000X1.600000*%
%ADD18O,1.998980X1.998980*%
%ADD19R,1.998980X1.998980*%
%ADD20R,1.270000X0.970000*%
%ADD21R,1.800000X1.800000*%
%ADD22O,1.800000X1.800000*%
G04 APERTURE END LIST*
D10*
D11*
X114935000Y-34290000D03*
D12*
X117475000Y-34290000D03*
X120015000Y-34290000D03*
X122555000Y-34290000D03*
X125095000Y-34290000D03*
X127635000Y-34290000D03*
X130175000Y-34290000D03*
X132715000Y-34290000D03*
X135255000Y-34290000D03*
X137795000Y-34290000D03*
X140335000Y-34290000D03*
X142875000Y-34290000D03*
D11*
X149860000Y-41275000D03*
D12*
X149860000Y-43815000D03*
X149860000Y-46355000D03*
X149860000Y-48895000D03*
X149860000Y-51435000D03*
X149860000Y-53975000D03*
X149860000Y-56515000D03*
X149860000Y-59055000D03*
X149860000Y-61595000D03*
X149860000Y-64135000D03*
X149860000Y-66675000D03*
X149860000Y-69215000D03*
D11*
X142875000Y-76200000D03*
D12*
X140335000Y-76200000D03*
X137795000Y-76200000D03*
X135255000Y-76200000D03*
X132715000Y-76200000D03*
X130175000Y-76200000D03*
X127635000Y-76200000D03*
X125095000Y-76200000D03*
X122555000Y-76200000D03*
X120015000Y-76200000D03*
X117475000Y-76200000D03*
X114935000Y-76200000D03*
D13*
X149860000Y-34290000D03*
X149860000Y-76200000D03*
X107950000Y-76200000D03*
X107950000Y-34290000D03*
D14*
X141605000Y-65405000D03*
X139065000Y-65405000D03*
X136525000Y-65405000D03*
X133985000Y-65405000D03*
X131445000Y-65405000D03*
X128905000Y-65405000D03*
X126365000Y-65405000D03*
X123825000Y-65405000D03*
X121285000Y-65405000D03*
X118745000Y-65405000D03*
X116205000Y-65405000D03*
X113665000Y-65405000D03*
X111125000Y-65405000D03*
X108585000Y-65405000D03*
X106045000Y-65405000D03*
X106045000Y-50165000D03*
X108585000Y-50165000D03*
X111125000Y-50165000D03*
X113665000Y-50165000D03*
X116205000Y-50165000D03*
X118745000Y-50165000D03*
X121285000Y-50165000D03*
X123825000Y-50165000D03*
X126365000Y-50165000D03*
X128905000Y-50165000D03*
X131445000Y-50165000D03*
X133985000Y-50165000D03*
X136525000Y-50165000D03*
X139065000Y-50165000D03*
D15*
X141605000Y-50165000D03*
D13*
X83185000Y-76200000D03*
X74295000Y-76200000D03*
X57785000Y-76200000D03*
X99695000Y-76200000D03*
X83185000Y-34290000D03*
X74295000Y-34290000D03*
X57785000Y-34290000D03*
X99695000Y-34290000D03*
D11*
X57785000Y-41275000D03*
D12*
X57785000Y-43815000D03*
X57785000Y-46355000D03*
X57785000Y-48895000D03*
X57785000Y-51435000D03*
X57785000Y-53975000D03*
X57785000Y-56515000D03*
X57785000Y-59055000D03*
X57785000Y-61595000D03*
X57785000Y-64135000D03*
X57785000Y-66675000D03*
X57785000Y-69215000D03*
D11*
X74295000Y-41275000D03*
D12*
X74295000Y-43815000D03*
X74295000Y-46355000D03*
X74295000Y-48895000D03*
X74295000Y-51435000D03*
X74295000Y-53975000D03*
X74295000Y-56515000D03*
X74295000Y-59055000D03*
X74295000Y-61595000D03*
X74295000Y-64135000D03*
X74295000Y-66675000D03*
X74295000Y-69215000D03*
D16*
X71120000Y-48895000D03*
D17*
X71120000Y-51435000D03*
X71120000Y-53975000D03*
X71120000Y-56515000D03*
X71120000Y-59055000D03*
X71120000Y-61595000D03*
X71120000Y-64135000D03*
X71120000Y-66675000D03*
X71120000Y-69215000D03*
D11*
X93980000Y-51435000D03*
D12*
X93980000Y-53975000D03*
X93980000Y-56515000D03*
X93980000Y-59055000D03*
X93980000Y-61595000D03*
X93980000Y-64135000D03*
X93980000Y-66675000D03*
X93980000Y-69215000D03*
D11*
X88900000Y-51435000D03*
D12*
X88900000Y-53975000D03*
X88900000Y-56515000D03*
X88900000Y-59055000D03*
X88900000Y-61595000D03*
X88900000Y-64135000D03*
X88900000Y-66675000D03*
X88900000Y-69215000D03*
D11*
X91440000Y-51435000D03*
D12*
X91440000Y-53975000D03*
X91440000Y-56515000D03*
X91440000Y-59055000D03*
X91440000Y-61595000D03*
X91440000Y-64135000D03*
X91440000Y-66675000D03*
X91440000Y-69215000D03*
D11*
X83185000Y-41275000D03*
D12*
X83185000Y-43815000D03*
X83185000Y-46355000D03*
X83185000Y-48895000D03*
X83185000Y-51435000D03*
X83185000Y-53975000D03*
X83185000Y-56515000D03*
X83185000Y-59055000D03*
X83185000Y-61595000D03*
X83185000Y-64135000D03*
X83185000Y-66675000D03*
X83185000Y-69215000D03*
D11*
X99695000Y-41275000D03*
D12*
X99695000Y-43815000D03*
X99695000Y-46355000D03*
X99695000Y-48895000D03*
X99695000Y-51435000D03*
X99695000Y-53975000D03*
X99695000Y-56515000D03*
X99695000Y-59055000D03*
X99695000Y-61595000D03*
X99695000Y-64135000D03*
X99695000Y-66675000D03*
X99695000Y-69215000D03*
D16*
X60325000Y-48895000D03*
D17*
X60325000Y-51435000D03*
X60325000Y-53975000D03*
X60325000Y-56515000D03*
X60325000Y-59055000D03*
X60325000Y-61595000D03*
X60325000Y-64135000D03*
X60325000Y-66675000D03*
X60325000Y-69215000D03*
D18*
X93980000Y-76835000D03*
D19*
X88900000Y-76835000D03*
D18*
X91440000Y-76835000D03*
D11*
X93980000Y-71755000D03*
X93980000Y-48895000D03*
D18*
X93980000Y-38735000D03*
D19*
X88900000Y-38735000D03*
D18*
X91440000Y-38735000D03*
D20*
X147955000Y-106685000D03*
X147955000Y-105405000D03*
D11*
X149860000Y-91440000D03*
D12*
X149860000Y-93980000D03*
X149860000Y-96520000D03*
X149860000Y-99060000D03*
X149860000Y-101600000D03*
X149860000Y-104140000D03*
X149860000Y-106680000D03*
X149860000Y-109220000D03*
X149860000Y-111760000D03*
X149860000Y-114300000D03*
X149860000Y-116840000D03*
X149860000Y-119380000D03*
D11*
X109855000Y-101600000D03*
D12*
X109855000Y-104140000D03*
X109855000Y-106680000D03*
X109855000Y-109220000D03*
X109855000Y-111760000D03*
X109855000Y-114300000D03*
X109855000Y-116840000D03*
X109855000Y-119380000D03*
D11*
X112395000Y-101600000D03*
D12*
X112395000Y-104140000D03*
X112395000Y-106680000D03*
X112395000Y-109220000D03*
X112395000Y-111760000D03*
X112395000Y-114300000D03*
X112395000Y-116840000D03*
X112395000Y-119380000D03*
D11*
X112395000Y-96520000D03*
D12*
X114935000Y-96520000D03*
X117475000Y-96520000D03*
X120015000Y-96520000D03*
X122555000Y-96520000D03*
X125095000Y-96520000D03*
X127635000Y-96520000D03*
X130175000Y-96520000D03*
X132715000Y-96520000D03*
X135255000Y-96520000D03*
X137795000Y-96520000D03*
X140335000Y-96520000D03*
X142875000Y-96520000D03*
X145415000Y-96520000D03*
D11*
X112395000Y-99060000D03*
D12*
X114935000Y-99060000D03*
X117475000Y-99060000D03*
X120015000Y-99060000D03*
X122555000Y-99060000D03*
X125095000Y-99060000D03*
X127635000Y-99060000D03*
X130175000Y-99060000D03*
X132715000Y-99060000D03*
X135255000Y-99060000D03*
X137795000Y-99060000D03*
X140335000Y-99060000D03*
X142875000Y-99060000D03*
X145415000Y-99060000D03*
D11*
X112395000Y-88900000D03*
D12*
X114935000Y-88900000D03*
X117475000Y-88900000D03*
X120015000Y-88900000D03*
X122555000Y-88900000D03*
X125095000Y-88900000D03*
X127635000Y-88900000D03*
X130175000Y-88900000D03*
X132715000Y-88900000D03*
X135255000Y-88900000D03*
X137795000Y-88900000D03*
X140335000Y-88900000D03*
X142875000Y-88900000D03*
X145415000Y-88900000D03*
D13*
X107950000Y-84455000D03*
X149860000Y-84455000D03*
X149860000Y-126365000D03*
X107950000Y-126365000D03*
D11*
X107315000Y-91440000D03*
D12*
X107315000Y-93980000D03*
X107315000Y-96520000D03*
X107315000Y-99060000D03*
X107315000Y-101600000D03*
X107315000Y-104140000D03*
X107315000Y-106680000D03*
X107315000Y-109220000D03*
X107315000Y-111760000D03*
X107315000Y-114300000D03*
X107315000Y-116840000D03*
X107315000Y-119380000D03*
D11*
X114935000Y-83820000D03*
D12*
X117475000Y-83820000D03*
X120015000Y-83820000D03*
X122555000Y-83820000D03*
X125095000Y-83820000D03*
X127635000Y-83820000D03*
X130175000Y-83820000D03*
X132715000Y-83820000D03*
X135255000Y-83820000D03*
X137795000Y-83820000D03*
X140335000Y-83820000D03*
X142875000Y-83820000D03*
D11*
X142875000Y-127000000D03*
D12*
X140335000Y-127000000D03*
X137795000Y-127000000D03*
X135255000Y-127000000D03*
X132715000Y-127000000D03*
X130175000Y-127000000D03*
X127635000Y-127000000D03*
X125095000Y-127000000D03*
X122555000Y-127000000D03*
X120015000Y-127000000D03*
X117475000Y-127000000D03*
X114935000Y-127000000D03*
D11*
X142875000Y-101600000D03*
D12*
X142875000Y-104140000D03*
X142875000Y-106680000D03*
X142875000Y-109220000D03*
X142875000Y-111760000D03*
X142875000Y-114300000D03*
X142875000Y-116840000D03*
X142875000Y-119380000D03*
D11*
X127635000Y-101600000D03*
D12*
X127635000Y-104140000D03*
X127635000Y-106680000D03*
X127635000Y-109220000D03*
X127635000Y-111760000D03*
X127635000Y-114300000D03*
X127635000Y-116840000D03*
X127635000Y-119380000D03*
D11*
X125095000Y-101600000D03*
D12*
X125095000Y-104140000D03*
X125095000Y-106680000D03*
X125095000Y-109220000D03*
X125095000Y-111760000D03*
X125095000Y-114300000D03*
X125095000Y-116840000D03*
X125095000Y-119380000D03*
D11*
X135255000Y-101600000D03*
D12*
X135255000Y-104140000D03*
X135255000Y-106680000D03*
X135255000Y-109220000D03*
X135255000Y-111760000D03*
X135255000Y-114300000D03*
X135255000Y-116840000D03*
X135255000Y-119380000D03*
D11*
X132715000Y-101600000D03*
D12*
X132715000Y-104140000D03*
X132715000Y-106680000D03*
X132715000Y-109220000D03*
X132715000Y-111760000D03*
X132715000Y-114300000D03*
X132715000Y-116840000D03*
X132715000Y-119380000D03*
D11*
X117475000Y-101600000D03*
D12*
X117475000Y-104140000D03*
X117475000Y-106680000D03*
X117475000Y-109220000D03*
X117475000Y-111760000D03*
X117475000Y-114300000D03*
X117475000Y-116840000D03*
X117475000Y-119380000D03*
D11*
X122555000Y-101600000D03*
D12*
X122555000Y-104140000D03*
X122555000Y-106680000D03*
X122555000Y-109220000D03*
X122555000Y-111760000D03*
X122555000Y-114300000D03*
X122555000Y-116840000D03*
X122555000Y-119380000D03*
D11*
X145415000Y-101600000D03*
D12*
X145415000Y-104140000D03*
X145415000Y-106680000D03*
X145415000Y-109220000D03*
X145415000Y-111760000D03*
X145415000Y-114300000D03*
X145415000Y-116840000D03*
X145415000Y-119380000D03*
D20*
X147955000Y-101605000D03*
X147955000Y-100325000D03*
X151765000Y-104145000D03*
X151765000Y-102865000D03*
X151765000Y-109225000D03*
X151765000Y-107945000D03*
X147955000Y-111765000D03*
X147955000Y-110485000D03*
X151765000Y-114305000D03*
X151765000Y-113025000D03*
X147955000Y-116845000D03*
X147955000Y-115565000D03*
X151765000Y-119385000D03*
X151765000Y-118105000D03*
D11*
X130175000Y-101600000D03*
D12*
X130175000Y-104140000D03*
X130175000Y-106680000D03*
X130175000Y-109220000D03*
X130175000Y-111760000D03*
X130175000Y-114300000D03*
X130175000Y-116840000D03*
X130175000Y-119380000D03*
D11*
X120015000Y-101600000D03*
D12*
X120015000Y-104140000D03*
X120015000Y-106680000D03*
X120015000Y-109220000D03*
X120015000Y-111760000D03*
X120015000Y-114300000D03*
X120015000Y-116840000D03*
X120015000Y-119380000D03*
D11*
X112395000Y-93980000D03*
D12*
X114935000Y-93980000D03*
X117475000Y-93980000D03*
X120015000Y-93980000D03*
X122555000Y-93980000D03*
X125095000Y-93980000D03*
X127635000Y-93980000D03*
X130175000Y-93980000D03*
X132715000Y-93980000D03*
X135255000Y-93980000D03*
X137795000Y-93980000D03*
X140335000Y-93980000D03*
X142875000Y-93980000D03*
X145415000Y-93980000D03*
D11*
X112395000Y-91440000D03*
D12*
X114935000Y-91440000D03*
X117475000Y-91440000D03*
X120015000Y-91440000D03*
X122555000Y-91440000D03*
X125095000Y-91440000D03*
X127635000Y-91440000D03*
X130175000Y-91440000D03*
X132715000Y-91440000D03*
X135255000Y-91440000D03*
X137795000Y-91440000D03*
X140335000Y-91440000D03*
X142875000Y-91440000D03*
X145415000Y-91440000D03*
D11*
X137795000Y-101600000D03*
D12*
X137795000Y-104140000D03*
X137795000Y-106680000D03*
X137795000Y-109220000D03*
X137795000Y-111760000D03*
X137795000Y-114300000D03*
X137795000Y-116840000D03*
X137795000Y-119380000D03*
D11*
X140335000Y-101600000D03*
D12*
X140335000Y-104140000D03*
X140335000Y-106680000D03*
X140335000Y-109220000D03*
X140335000Y-111760000D03*
X140335000Y-114300000D03*
X140335000Y-116840000D03*
X140335000Y-119380000D03*
D11*
X114935000Y-101600000D03*
D12*
X114935000Y-104140000D03*
X114935000Y-106680000D03*
X114935000Y-109220000D03*
X114935000Y-111760000D03*
X114935000Y-114300000D03*
X114935000Y-116840000D03*
X114935000Y-119380000D03*
D11*
X114935000Y-124460000D03*
D12*
X117475000Y-124460000D03*
X120015000Y-124460000D03*
X122555000Y-124460000D03*
X125095000Y-124460000D03*
X127635000Y-124460000D03*
X130175000Y-124460000D03*
X132715000Y-124460000D03*
D11*
X125095000Y-86360000D03*
D12*
X127635000Y-86360000D03*
X130175000Y-86360000D03*
X132715000Y-86360000D03*
X135255000Y-86360000D03*
X137795000Y-86360000D03*
X140335000Y-86360000D03*
X142875000Y-86360000D03*
D11*
X112395000Y-121920000D03*
D12*
X114935000Y-121920000D03*
X117475000Y-121920000D03*
X120015000Y-121920000D03*
X122555000Y-121920000D03*
X125095000Y-121920000D03*
X127635000Y-121920000D03*
X130175000Y-121920000D03*
X132715000Y-121920000D03*
X135255000Y-121920000D03*
X137795000Y-121920000D03*
X140335000Y-121920000D03*
X142875000Y-121920000D03*
X145415000Y-121920000D03*
D11*
X62865000Y-111760000D03*
D12*
X62865000Y-109220000D03*
X62865000Y-106680000D03*
D13*
X57785000Y-126365000D03*
X74930000Y-126365000D03*
X57785000Y-84455000D03*
X99695000Y-84455000D03*
X99695000Y-126365000D03*
X74930000Y-84455000D03*
X82550000Y-84455000D03*
X82550000Y-126365000D03*
D11*
X57785000Y-91440000D03*
D12*
X57785000Y-93980000D03*
X57785000Y-96520000D03*
X57785000Y-99060000D03*
X57785000Y-101600000D03*
X57785000Y-104140000D03*
X57785000Y-106680000D03*
X57785000Y-109220000D03*
X57785000Y-111760000D03*
X57785000Y-114300000D03*
X57785000Y-116840000D03*
X57785000Y-119380000D03*
D11*
X82550000Y-91440000D03*
D12*
X82550000Y-93980000D03*
X82550000Y-96520000D03*
X82550000Y-99060000D03*
X82550000Y-101600000D03*
X82550000Y-104140000D03*
X82550000Y-106680000D03*
X82550000Y-109220000D03*
X82550000Y-111760000D03*
X82550000Y-114300000D03*
X82550000Y-116840000D03*
X82550000Y-119380000D03*
D11*
X74930000Y-91440000D03*
D12*
X74930000Y-93980000D03*
X74930000Y-96520000D03*
X74930000Y-99060000D03*
X74930000Y-101600000D03*
X74930000Y-104140000D03*
X74930000Y-106680000D03*
X74930000Y-109220000D03*
X74930000Y-111760000D03*
X74930000Y-114300000D03*
X74930000Y-116840000D03*
X74930000Y-119380000D03*
D11*
X99695000Y-91440000D03*
D12*
X99695000Y-93980000D03*
X99695000Y-96520000D03*
X99695000Y-99060000D03*
X99695000Y-101600000D03*
X99695000Y-104140000D03*
X99695000Y-106680000D03*
X99695000Y-109220000D03*
X99695000Y-111760000D03*
X99695000Y-114300000D03*
X99695000Y-116840000D03*
X99695000Y-119380000D03*
D11*
X62230000Y-84455000D03*
D12*
X64770000Y-84455000D03*
X67310000Y-84455000D03*
X69850000Y-84455000D03*
D11*
X60325000Y-101600000D03*
D12*
X60325000Y-104140000D03*
X60325000Y-106680000D03*
X60325000Y-109220000D03*
X60325000Y-111760000D03*
X60325000Y-114300000D03*
X60325000Y-116840000D03*
X60325000Y-119380000D03*
D21*
X67945000Y-95250000D03*
D22*
X67945000Y-97790000D03*
X67945000Y-100330000D03*
D21*
X67945000Y-105410000D03*
D22*
X67945000Y-107950000D03*
X67945000Y-110490000D03*
D21*
X67945000Y-115570000D03*
D22*
X67945000Y-118110000D03*
X67945000Y-120650000D03*
D11*
X62865000Y-126365000D03*
D12*
X65405000Y-126365000D03*
X67945000Y-126365000D03*
X70485000Y-126365000D03*
D11*
X85090000Y-101600000D03*
D12*
X85090000Y-104140000D03*
X85090000Y-106680000D03*
X85090000Y-109220000D03*
X85090000Y-111760000D03*
X85090000Y-114300000D03*
X85090000Y-116840000D03*
X85090000Y-119380000D03*
D11*
X87630000Y-106680000D03*
D12*
X87630000Y-109220000D03*
X87630000Y-111760000D03*
D11*
X86995000Y-84455000D03*
D12*
X89535000Y-84455000D03*
X92075000Y-84455000D03*
X94615000Y-84455000D03*
D16*
X85725000Y-93980000D03*
D17*
X88265000Y-93980000D03*
X90805000Y-93980000D03*
X93345000Y-93980000D03*
X95885000Y-93980000D03*
M02*
