M48
;DRILL file {KiCad 4.0.7+dfsg1-1~bpo9+1} date Tue May  1 16:35:23 2018
;FORMAT={-:-/ absolute / metric / decimal}
FMAT,2
METRIC,TZ
T1C0.400
T2C0.800
T3C1.000
T4C1.016
T5C1.097
T6C3.200
%
G90
G05
M71
T1
X59.055Y-52.705
X59.055Y-57.785
X59.055Y-62.865
X59.055Y-67.945
X60.325Y-37.465
X61.595Y-95.885
X63.5Y-115.57
X64.135Y-89.535
X64.77Y-96.52
X68.58Y-89.535
X69.85Y-54.61
X69.85Y-59.69
X69.85Y-64.77
X69.85Y-69.85
X73.025Y-89.535
X88.9Y-99.695
X90.805Y-91.44
X91.44Y-99.695
X95.885Y-91.44
X96.52Y-99.695
X116.84Y-71.12
X117.475Y-73.66
X118.745Y-68.58
X120.015Y-72.39
X121.285Y-69.85
X125.095Y-40.64
X125.095Y-47.625
X125.095Y-69.85
X126.365Y-72.39
X127.635Y-47.625
X127.635Y-68.58
X128.905Y-73.66
X130.175Y-48.26
X130.175Y-71.12
X131.445Y-74.93
X142.875Y-46.355
T2
X60.325Y-48.895
X60.325Y-51.435
X60.325Y-53.975
X60.325Y-56.515
X60.325Y-59.055
X60.325Y-61.595
X60.325Y-64.135
X60.325Y-66.675
X60.325Y-69.215
X71.12Y-48.895
X71.12Y-51.435
X71.12Y-53.975
X71.12Y-56.515
X71.12Y-59.055
X71.12Y-61.595
X71.12Y-64.135
X71.12Y-66.675
X71.12Y-69.215
X85.725Y-93.98
X88.265Y-93.98
X90.805Y-93.98
X93.345Y-93.98
X95.885Y-93.98
T3
X57.785Y-41.275
X57.785Y-43.815
X57.785Y-46.355
X57.785Y-48.895
X57.785Y-51.435
X57.785Y-53.975
X57.785Y-56.515
X57.785Y-59.055
X57.785Y-61.595
X57.785Y-64.135
X57.785Y-66.675
X57.785Y-69.215
X57.785Y-91.44
X57.785Y-93.98
X57.785Y-96.52
X57.785Y-99.06
X57.785Y-101.6
X57.785Y-104.14
X57.785Y-106.68
X57.785Y-109.22
X57.785Y-111.76
X57.785Y-114.3
X57.785Y-116.84
X57.785Y-119.38
X60.325Y-101.6
X60.325Y-104.14
X60.325Y-106.68
X60.325Y-109.22
X60.325Y-111.76
X60.325Y-114.3
X60.325Y-116.84
X60.325Y-119.38
X62.23Y-84.455
X62.865Y-106.68
X62.865Y-109.22
X62.865Y-111.76
X62.865Y-126.365
X64.77Y-84.455
X65.405Y-126.365
X67.31Y-84.455
X67.945Y-95.25
X67.945Y-97.79
X67.945Y-100.33
X67.945Y-105.41
X67.945Y-107.95
X67.945Y-110.49
X67.945Y-115.57
X67.945Y-118.11
X67.945Y-120.65
X67.945Y-126.365
X69.85Y-84.455
X70.485Y-126.365
X74.295Y-41.275
X74.295Y-43.815
X74.295Y-46.355
X74.295Y-48.895
X74.295Y-51.435
X74.295Y-53.975
X74.295Y-56.515
X74.295Y-59.055
X74.295Y-61.595
X74.295Y-64.135
X74.295Y-66.675
X74.295Y-69.215
X74.93Y-91.44
X74.93Y-93.98
X74.93Y-96.52
X74.93Y-99.06
X74.93Y-101.6
X74.93Y-104.14
X74.93Y-106.68
X74.93Y-109.22
X74.93Y-111.76
X74.93Y-114.3
X74.93Y-116.84
X74.93Y-119.38
X82.55Y-91.44
X82.55Y-93.98
X82.55Y-96.52
X82.55Y-99.06
X82.55Y-101.6
X82.55Y-104.14
X82.55Y-106.68
X82.55Y-109.22
X82.55Y-111.76
X82.55Y-114.3
X82.55Y-116.84
X82.55Y-119.38
X83.185Y-41.275
X83.185Y-43.815
X83.185Y-46.355
X83.185Y-48.895
X83.185Y-51.435
X83.185Y-53.975
X83.185Y-56.515
X83.185Y-59.055
X83.185Y-61.595
X83.185Y-64.135
X83.185Y-66.675
X83.185Y-69.215
X85.09Y-101.6
X85.09Y-104.14
X85.09Y-106.68
X85.09Y-109.22
X85.09Y-111.76
X85.09Y-114.3
X85.09Y-116.84
X85.09Y-119.38
X86.995Y-84.455
X87.63Y-106.68
X87.63Y-109.22
X87.63Y-111.76
X88.9Y-51.435
X88.9Y-53.975
X88.9Y-56.515
X88.9Y-59.055
X88.9Y-61.595
X88.9Y-64.135
X88.9Y-66.675
X88.9Y-69.215
X89.535Y-84.455
X91.44Y-51.435
X91.44Y-53.975
X91.44Y-56.515
X91.44Y-59.055
X91.44Y-61.595
X91.44Y-64.135
X91.44Y-66.675
X91.44Y-69.215
X92.075Y-84.455
X93.98Y-48.895
X93.98Y-51.435
X93.98Y-53.975
X93.98Y-56.515
X93.98Y-59.055
X93.98Y-61.595
X93.98Y-64.135
X93.98Y-66.675
X93.98Y-69.215
X93.98Y-71.755
X94.615Y-84.455
X99.695Y-41.275
X99.695Y-43.815
X99.695Y-46.355
X99.695Y-48.895
X99.695Y-51.435
X99.695Y-53.975
X99.695Y-56.515
X99.695Y-59.055
X99.695Y-61.595
X99.695Y-64.135
X99.695Y-66.675
X99.695Y-69.215
X99.695Y-91.44
X99.695Y-93.98
X99.695Y-96.52
X99.695Y-99.06
X99.695Y-101.6
X99.695Y-104.14
X99.695Y-106.68
X99.695Y-109.22
X99.695Y-111.76
X99.695Y-114.3
X99.695Y-116.84
X99.695Y-119.38
X107.315Y-91.44
X107.315Y-93.98
X107.315Y-96.52
X107.315Y-99.06
X107.315Y-101.6
X107.315Y-104.14
X107.315Y-106.68
X107.315Y-109.22
X107.315Y-111.76
X107.315Y-114.3
X107.315Y-116.84
X107.315Y-119.38
X109.855Y-101.6
X109.855Y-104.14
X109.855Y-106.68
X109.855Y-109.22
X109.855Y-111.76
X109.855Y-114.3
X109.855Y-116.84
X109.855Y-119.38
X112.395Y-88.9
X112.395Y-91.44
X112.395Y-93.98
X112.395Y-96.52
X112.395Y-99.06
X112.395Y-101.6
X112.395Y-104.14
X112.395Y-106.68
X112.395Y-109.22
X112.395Y-111.76
X112.395Y-114.3
X112.395Y-116.84
X112.395Y-119.38
X112.395Y-121.92
X114.935Y-34.29
X114.935Y-76.2
X114.935Y-83.82
X114.935Y-88.9
X114.935Y-91.44
X114.935Y-93.98
X114.935Y-96.52
X114.935Y-99.06
X114.935Y-101.6
X114.935Y-104.14
X114.935Y-106.68
X114.935Y-109.22
X114.935Y-111.76
X114.935Y-114.3
X114.935Y-116.84
X114.935Y-119.38
X114.935Y-121.92
X114.935Y-124.46
X114.935Y-127.
X117.475Y-34.29
X117.475Y-76.2
X117.475Y-83.82
X117.475Y-88.9
X117.475Y-91.44
X117.475Y-93.98
X117.475Y-96.52
X117.475Y-99.06
X117.475Y-101.6
X117.475Y-104.14
X117.475Y-106.68
X117.475Y-109.22
X117.475Y-111.76
X117.475Y-114.3
X117.475Y-116.84
X117.475Y-119.38
X117.475Y-121.92
X117.475Y-124.46
X117.475Y-127.
X120.015Y-34.29
X120.015Y-76.2
X120.015Y-83.82
X120.015Y-88.9
X120.015Y-91.44
X120.015Y-93.98
X120.015Y-96.52
X120.015Y-99.06
X120.015Y-101.6
X120.015Y-104.14
X120.015Y-106.68
X120.015Y-109.22
X120.015Y-111.76
X120.015Y-114.3
X120.015Y-116.84
X120.015Y-119.38
X120.015Y-121.92
X120.015Y-124.46
X120.015Y-127.
X122.555Y-34.29
X122.555Y-76.2
X122.555Y-83.82
X122.555Y-88.9
X122.555Y-91.44
X122.555Y-93.98
X122.555Y-96.52
X122.555Y-99.06
X122.555Y-101.6
X122.555Y-104.14
X122.555Y-106.68
X122.555Y-109.22
X122.555Y-111.76
X122.555Y-114.3
X122.555Y-116.84
X122.555Y-119.38
X122.555Y-121.92
X122.555Y-124.46
X122.555Y-127.
X125.095Y-34.29
X125.095Y-76.2
X125.095Y-83.82
X125.095Y-86.36
X125.095Y-88.9
X125.095Y-91.44
X125.095Y-93.98
X125.095Y-96.52
X125.095Y-99.06
X125.095Y-101.6
X125.095Y-104.14
X125.095Y-106.68
X125.095Y-109.22
X125.095Y-111.76
X125.095Y-114.3
X125.095Y-116.84
X125.095Y-119.38
X125.095Y-121.92
X125.095Y-124.46
X125.095Y-127.
X127.635Y-34.29
X127.635Y-76.2
X127.635Y-83.82
X127.635Y-86.36
X127.635Y-88.9
X127.635Y-91.44
X127.635Y-93.98
X127.635Y-96.52
X127.635Y-99.06
X127.635Y-101.6
X127.635Y-104.14
X127.635Y-106.68
X127.635Y-109.22
X127.635Y-111.76
X127.635Y-114.3
X127.635Y-116.84
X127.635Y-119.38
X127.635Y-121.92
X127.635Y-124.46
X127.635Y-127.
X130.175Y-34.29
X130.175Y-76.2
X130.175Y-83.82
X130.175Y-86.36
X130.175Y-88.9
X130.175Y-91.44
X130.175Y-93.98
X130.175Y-96.52
X130.175Y-99.06
X130.175Y-101.6
X130.175Y-104.14
X130.175Y-106.68
X130.175Y-109.22
X130.175Y-111.76
X130.175Y-114.3
X130.175Y-116.84
X130.175Y-119.38
X130.175Y-121.92
X130.175Y-124.46
X130.175Y-127.
X132.715Y-34.29
X132.715Y-76.2
X132.715Y-83.82
X132.715Y-86.36
X132.715Y-88.9
X132.715Y-91.44
X132.715Y-93.98
X132.715Y-96.52
X132.715Y-99.06
X132.715Y-101.6
X132.715Y-104.14
X132.715Y-106.68
X132.715Y-109.22
X132.715Y-111.76
X132.715Y-114.3
X132.715Y-116.84
X132.715Y-119.38
X132.715Y-121.92
X132.715Y-124.46
X132.715Y-127.
X135.255Y-34.29
X135.255Y-76.2
X135.255Y-83.82
X135.255Y-86.36
X135.255Y-88.9
X135.255Y-91.44
X135.255Y-93.98
X135.255Y-96.52
X135.255Y-99.06
X135.255Y-101.6
X135.255Y-104.14
X135.255Y-106.68
X135.255Y-109.22
X135.255Y-111.76
X135.255Y-114.3
X135.255Y-116.84
X135.255Y-119.38
X135.255Y-121.92
X135.255Y-127.
X137.795Y-34.29
X137.795Y-76.2
X137.795Y-83.82
X137.795Y-86.36
X137.795Y-88.9
X137.795Y-91.44
X137.795Y-93.98
X137.795Y-96.52
X137.795Y-99.06
X137.795Y-101.6
X137.795Y-104.14
X137.795Y-106.68
X137.795Y-109.22
X137.795Y-111.76
X137.795Y-114.3
X137.795Y-116.84
X137.795Y-119.38
X137.795Y-121.92
X137.795Y-127.
X140.335Y-34.29
X140.335Y-76.2
X140.335Y-83.82
X140.335Y-86.36
X140.335Y-88.9
X140.335Y-91.44
X140.335Y-93.98
X140.335Y-96.52
X140.335Y-99.06
X140.335Y-101.6
X140.335Y-104.14
X140.335Y-106.68
X140.335Y-109.22
X140.335Y-111.76
X140.335Y-114.3
X140.335Y-116.84
X140.335Y-119.38
X140.335Y-121.92
X140.335Y-127.
X142.875Y-34.29
X142.875Y-76.2
X142.875Y-83.82
X142.875Y-86.36
X142.875Y-88.9
X142.875Y-91.44
X142.875Y-93.98
X142.875Y-96.52
X142.875Y-99.06
X142.875Y-101.6
X142.875Y-104.14
X142.875Y-106.68
X142.875Y-109.22
X142.875Y-111.76
X142.875Y-114.3
X142.875Y-116.84
X142.875Y-119.38
X142.875Y-121.92
X142.875Y-127.
X145.415Y-88.9
X145.415Y-91.44
X145.415Y-93.98
X145.415Y-96.52
X145.415Y-99.06
X145.415Y-101.6
X145.415Y-104.14
X145.415Y-106.68
X145.415Y-109.22
X145.415Y-111.76
X145.415Y-114.3
X145.415Y-116.84
X145.415Y-119.38
X145.415Y-121.92
X149.86Y-41.275
X149.86Y-43.815
X149.86Y-46.355
X149.86Y-48.895
X149.86Y-51.435
X149.86Y-53.975
X149.86Y-56.515
X149.86Y-59.055
X149.86Y-61.595
X149.86Y-64.135
X149.86Y-66.675
X149.86Y-69.215
X149.86Y-91.44
X149.86Y-93.98
X149.86Y-96.52
X149.86Y-99.06
X149.86Y-101.6
X149.86Y-104.14
X149.86Y-106.68
X149.86Y-109.22
X149.86Y-111.76
X149.86Y-114.3
X149.86Y-116.84
X149.86Y-119.38
T4
X106.045Y-50.165
X106.045Y-65.405
X108.585Y-50.165
X108.585Y-65.405
X111.125Y-50.165
X111.125Y-65.405
X113.665Y-50.165
X113.665Y-65.405
X116.205Y-50.165
X116.205Y-65.405
X118.745Y-50.165
X118.745Y-65.405
X121.285Y-50.165
X121.285Y-65.405
X123.825Y-50.165
X123.825Y-65.405
X126.365Y-50.165
X126.365Y-65.405
X128.905Y-50.165
X128.905Y-65.405
X131.445Y-50.165
X131.445Y-65.405
X133.985Y-50.165
X133.985Y-65.405
X136.525Y-50.165
X136.525Y-65.405
X139.065Y-50.165
X139.065Y-65.405
X141.605Y-50.165
X141.605Y-65.405
T5
X88.9Y-38.735
X88.9Y-76.835
X91.44Y-38.735
X91.44Y-76.835
X93.98Y-38.735
X93.98Y-76.835
T6
X57.785Y-34.29
X57.785Y-76.2
X57.785Y-84.455
X57.785Y-126.365
X74.295Y-34.29
X74.295Y-76.2
X74.93Y-84.455
X74.93Y-126.365
X82.55Y-84.455
X82.55Y-126.365
X83.185Y-34.29
X83.185Y-76.2
X99.695Y-34.29
X99.695Y-76.2
X99.695Y-84.455
X99.695Y-126.365
X107.95Y-34.29
X107.95Y-76.2
X107.95Y-84.455
X107.95Y-126.365
X149.86Y-34.29
X149.86Y-76.2
X149.86Y-84.455
X149.86Y-126.365
T0
M30
