M48
;DRILL file {KiCad 4.0.7+dfsg1-1~bpo9+1} date Wed May  2 15:25:19 2018
;FORMAT={-:-/ absolute / metric / decimal}
FMAT,2
METRIC,TZ
T1C0.400
T2C1.000
T3C1.016
T4C3.200
%
G90
G05
M71
T1
X78.105Y-60.96
X80.01Y-71.755
X83.82Y-41.275
X85.09Y-70.485
X87.63Y-71.755
X88.265Y-45.085
X90.805Y-45.085
X93.345Y-45.085
X93.345Y-70.485
X95.885Y-67.945
X97.155Y-66.675
X99.06Y-65.405
X100.965Y-69.215
X100.965Y-73.025
X100.965Y-74.93
X104.775Y-70.485
X107.315Y-70.485
X118.11Y-111.76
X128.27Y-113.665
X132.08Y-113.665
X133.35Y-93.98
X135.89Y-93.98
T2
X61.595Y-92.075
X61.595Y-94.615
X61.595Y-97.155
X61.595Y-99.695
X61.595Y-102.235
X61.595Y-104.775
X61.595Y-107.315
X61.595Y-109.855
X61.595Y-112.395
X61.595Y-114.935
X61.595Y-117.475
X61.595Y-120.015
X64.135Y-102.235
X64.135Y-104.775
X64.135Y-107.315
X64.135Y-109.855
X64.135Y-112.395
X64.135Y-114.935
X64.135Y-117.475
X64.135Y-120.015
X66.675Y-89.535
X66.675Y-92.075
X66.675Y-94.615
X66.675Y-97.155
X66.675Y-99.695
X66.675Y-102.235
X66.675Y-104.775
X66.675Y-107.315
X66.675Y-109.855
X66.675Y-112.395
X66.675Y-114.935
X66.675Y-117.475
X66.675Y-120.015
X66.675Y-122.555
X69.215Y-84.455
X69.215Y-89.535
X69.215Y-92.075
X69.215Y-94.615
X69.215Y-97.155
X69.215Y-99.695
X69.215Y-102.235
X69.215Y-104.775
X69.215Y-107.315
X69.215Y-109.855
X69.215Y-112.395
X69.215Y-114.935
X69.215Y-117.475
X69.215Y-120.015
X69.215Y-122.555
X69.215Y-125.095
X69.215Y-127.635
X69.85Y-34.925
X69.85Y-76.835
X71.755Y-84.455
X71.755Y-89.535
X71.755Y-92.075
X71.755Y-94.615
X71.755Y-97.155
X71.755Y-99.695
X71.755Y-102.235
X71.755Y-104.775
X71.755Y-107.315
X71.755Y-109.855
X71.755Y-112.395
X71.755Y-114.935
X71.755Y-117.475
X71.755Y-120.015
X71.755Y-122.555
X71.755Y-125.095
X71.755Y-127.635
X72.39Y-34.925
X72.39Y-76.835
X74.295Y-84.455
X74.295Y-89.535
X74.295Y-92.075
X74.295Y-94.615
X74.295Y-97.155
X74.295Y-99.695
X74.295Y-102.235
X74.295Y-104.775
X74.295Y-107.315
X74.295Y-109.855
X74.295Y-112.395
X74.295Y-114.935
X74.295Y-117.475
X74.295Y-120.015
X74.295Y-122.555
X74.295Y-125.095
X74.295Y-127.635
X74.93Y-34.925
X74.93Y-76.835
X76.835Y-84.455
X76.835Y-89.535
X76.835Y-92.075
X76.835Y-94.615
X76.835Y-97.155
X76.835Y-99.695
X76.835Y-102.235
X76.835Y-104.775
X76.835Y-107.315
X76.835Y-109.855
X76.835Y-112.395
X76.835Y-114.935
X76.835Y-117.475
X76.835Y-120.015
X76.835Y-122.555
X76.835Y-125.095
X76.835Y-127.635
X77.47Y-34.925
X77.47Y-76.835
X79.375Y-84.455
X79.375Y-86.995
X79.375Y-89.535
X79.375Y-92.075
X79.375Y-94.615
X79.375Y-97.155
X79.375Y-99.695
X79.375Y-102.235
X79.375Y-104.775
X79.375Y-107.315
X79.375Y-109.855
X79.375Y-112.395
X79.375Y-114.935
X79.375Y-117.475
X79.375Y-120.015
X79.375Y-122.555
X79.375Y-125.095
X79.375Y-127.635
X80.01Y-34.925
X80.01Y-76.835
X81.915Y-84.455
X81.915Y-86.995
X81.915Y-89.535
X81.915Y-92.075
X81.915Y-94.615
X81.915Y-97.155
X81.915Y-99.695
X81.915Y-102.235
X81.915Y-104.775
X81.915Y-107.315
X81.915Y-109.855
X81.915Y-112.395
X81.915Y-114.935
X81.915Y-117.475
X81.915Y-120.015
X81.915Y-122.555
X81.915Y-125.095
X81.915Y-127.635
X82.55Y-34.925
X82.55Y-76.835
X84.455Y-84.455
X84.455Y-86.995
X84.455Y-89.535
X84.455Y-92.075
X84.455Y-94.615
X84.455Y-97.155
X84.455Y-99.695
X84.455Y-102.235
X84.455Y-104.775
X84.455Y-107.315
X84.455Y-109.855
X84.455Y-112.395
X84.455Y-114.935
X84.455Y-117.475
X84.455Y-120.015
X84.455Y-122.555
X84.455Y-125.095
X84.455Y-127.635
X85.09Y-34.925
X85.09Y-76.835
X86.995Y-84.455
X86.995Y-86.995
X86.995Y-89.535
X86.995Y-92.075
X86.995Y-94.615
X86.995Y-97.155
X86.995Y-99.695
X86.995Y-102.235
X86.995Y-104.775
X86.995Y-107.315
X86.995Y-109.855
X86.995Y-112.395
X86.995Y-114.935
X86.995Y-117.475
X86.995Y-120.015
X86.995Y-122.555
X86.995Y-125.095
X86.995Y-127.635
X87.63Y-34.925
X87.63Y-76.835
X89.535Y-84.455
X89.535Y-86.995
X89.535Y-89.535
X89.535Y-92.075
X89.535Y-94.615
X89.535Y-97.155
X89.535Y-99.695
X89.535Y-102.235
X89.535Y-104.775
X89.535Y-107.315
X89.535Y-109.855
X89.535Y-112.395
X89.535Y-114.935
X89.535Y-117.475
X89.535Y-120.015
X89.535Y-122.555
X89.535Y-127.635
X90.17Y-34.925
X90.17Y-76.835
X92.075Y-84.455
X92.075Y-86.995
X92.075Y-89.535
X92.075Y-92.075
X92.075Y-94.615
X92.075Y-97.155
X92.075Y-99.695
X92.075Y-102.235
X92.075Y-104.775
X92.075Y-107.315
X92.075Y-109.855
X92.075Y-112.395
X92.075Y-114.935
X92.075Y-117.475
X92.075Y-120.015
X92.075Y-122.555
X92.075Y-127.635
X92.71Y-34.925
X92.71Y-76.835
X94.615Y-84.455
X94.615Y-86.995
X94.615Y-89.535
X94.615Y-92.075
X94.615Y-94.615
X94.615Y-97.155
X94.615Y-99.695
X94.615Y-102.235
X94.615Y-104.775
X94.615Y-107.315
X94.615Y-109.855
X94.615Y-112.395
X94.615Y-114.935
X94.615Y-117.475
X94.615Y-120.015
X94.615Y-122.555
X94.615Y-127.635
X95.25Y-34.925
X95.25Y-76.835
X97.155Y-84.455
X97.155Y-86.995
X97.155Y-89.535
X97.155Y-92.075
X97.155Y-94.615
X97.155Y-97.155
X97.155Y-99.695
X97.155Y-102.235
X97.155Y-104.775
X97.155Y-107.315
X97.155Y-109.855
X97.155Y-112.395
X97.155Y-114.935
X97.155Y-117.475
X97.155Y-120.015
X97.155Y-122.555
X97.155Y-127.635
X97.79Y-34.925
X97.79Y-76.835
X99.695Y-89.535
X99.695Y-92.075
X99.695Y-94.615
X99.695Y-97.155
X99.695Y-99.695
X99.695Y-102.235
X99.695Y-104.775
X99.695Y-107.315
X99.695Y-109.855
X99.695Y-112.395
X99.695Y-114.935
X99.695Y-117.475
X99.695Y-120.015
X99.695Y-122.555
X104.14Y-92.075
X104.14Y-94.615
X104.14Y-97.155
X104.14Y-99.695
X104.14Y-102.235
X104.14Y-104.775
X104.14Y-107.315
X104.14Y-109.855
X104.14Y-112.395
X104.14Y-114.935
X104.14Y-117.475
X104.14Y-120.015
X110.49Y-97.155
X110.49Y-120.015
X113.03Y-97.155
X113.03Y-120.015
X115.57Y-97.155
X115.57Y-120.015
X118.11Y-97.155
X118.11Y-120.015
X119.38Y-34.925
X119.38Y-76.835
X119.38Y-85.09
X119.38Y-127.
X120.65Y-97.155
X120.65Y-120.015
X121.92Y-34.925
X121.92Y-76.835
X121.92Y-85.09
X121.92Y-127.
X123.19Y-97.155
X123.19Y-120.015
X124.46Y-34.925
X124.46Y-76.835
X124.46Y-85.09
X124.46Y-127.
X125.73Y-97.155
X125.73Y-120.015
X127.Y-34.925
X127.Y-76.835
X127.Y-85.09
X127.Y-127.
X128.27Y-97.155
X128.27Y-120.015
X129.54Y-34.925
X129.54Y-76.835
X129.54Y-85.09
X129.54Y-127.
X130.81Y-97.155
X130.81Y-120.015
X132.08Y-34.925
X132.08Y-76.835
X132.08Y-85.09
X132.08Y-127.
X133.35Y-97.155
X133.35Y-120.015
X134.62Y-34.925
X134.62Y-76.835
X134.62Y-85.09
X134.62Y-127.
X135.89Y-97.155
X135.89Y-120.015
X137.16Y-34.925
X137.16Y-76.835
X137.16Y-85.09
X137.16Y-127.
X138.43Y-97.155
X138.43Y-120.015
X139.7Y-34.925
X139.7Y-76.835
X139.7Y-85.09
X139.7Y-127.
X140.97Y-97.155
X140.97Y-120.015
X142.24Y-34.925
X142.24Y-76.835
X142.24Y-85.09
X142.24Y-127.
X143.51Y-97.155
X143.51Y-120.015
X144.78Y-34.925
X144.78Y-76.835
X144.78Y-85.09
X144.78Y-127.
X146.05Y-97.155
X146.05Y-120.015
X147.32Y-34.925
X147.32Y-76.835
X147.32Y-85.09
X147.32Y-127.
X154.305Y-41.91
X154.305Y-44.45
X154.305Y-46.99
X154.305Y-49.53
X154.305Y-52.07
X154.305Y-54.61
X154.305Y-57.15
X154.305Y-59.69
X154.305Y-62.23
X154.305Y-64.77
X154.305Y-67.31
X154.305Y-69.85
X154.305Y-92.075
X154.305Y-94.615
X154.305Y-97.155
X154.305Y-99.695
X154.305Y-102.235
X154.305Y-104.775
X154.305Y-107.315
X154.305Y-109.855
X154.305Y-112.395
X154.305Y-114.935
X154.305Y-117.475
X154.305Y-120.015
T3
X71.755Y-48.26
X71.755Y-63.5
X74.295Y-48.26
X74.295Y-63.5
X76.835Y-48.26
X76.835Y-63.5
X79.375Y-48.26
X79.375Y-63.5
X81.915Y-48.26
X81.915Y-63.5
X84.455Y-48.26
X84.455Y-63.5
X86.995Y-48.26
X86.995Y-63.5
X89.535Y-48.26
X89.535Y-63.5
X92.075Y-48.26
X92.075Y-63.5
X94.615Y-48.26
X94.615Y-63.5
X97.155Y-48.26
X97.155Y-63.5
X99.695Y-48.26
X99.695Y-63.5
X102.235Y-48.26
X102.235Y-63.5
X104.775Y-48.26
X104.775Y-63.5
X107.315Y-48.26
X107.315Y-63.5
X109.855Y-48.26
X109.855Y-63.5
X110.49Y-100.965
X110.49Y-116.205
X112.395Y-48.26
X112.395Y-63.5
X113.03Y-100.965
X113.03Y-116.205
X114.935Y-48.26
X114.935Y-63.5
X115.57Y-100.965
X115.57Y-116.205
X117.475Y-48.26
X117.475Y-63.5
X118.11Y-100.965
X118.11Y-116.205
X120.015Y-48.26
X120.015Y-63.5
X120.65Y-100.965
X120.65Y-116.205
X123.19Y-100.965
X123.19Y-116.205
X125.73Y-100.965
X125.73Y-116.205
X128.27Y-100.965
X128.27Y-116.205
X130.81Y-100.965
X130.81Y-116.205
X133.35Y-100.965
X133.35Y-116.205
X135.89Y-100.965
X135.89Y-116.205
X138.43Y-100.965
X138.43Y-116.205
X140.97Y-100.965
X140.97Y-116.205
X143.51Y-100.965
X143.51Y-116.205
X146.05Y-100.965
X146.05Y-116.205
T4
X62.23Y-34.925
X62.23Y-76.835
X62.23Y-85.09
X62.23Y-127.
X104.14Y-85.09
X104.14Y-127.
X112.395Y-85.09
X112.395Y-127.
X154.305Y-34.925
X154.305Y-76.835
X154.305Y-85.09
X154.305Y-127.
T0
M30
