G04 #@! TF.FileFunction,Legend,Top*
%FSLAX46Y46*%
G04 Gerber Fmt 4.6, Leading zero omitted, Abs format (unit mm)*
G04 Created by KiCad (PCBNEW 4.0.7+dfsg1-1~bpo9+1) date Tue May  1 16:34:38 2018*
%MOMM*%
%LPD*%
G01*
G04 APERTURE LIST*
%ADD10C,0.100000*%
%ADD11C,0.200000*%
%ADD12C,0.300000*%
%ADD13C,0.250000*%
%ADD14C,0.120000*%
%ADD15C,0.150000*%
G04 APERTURE END LIST*
D10*
D11*
X78740000Y-81280000D02*
X78740000Y-31115000D01*
D12*
X117809285Y-58035000D02*
X118523571Y-58035000D01*
X117666428Y-58463571D02*
X118166428Y-56963571D01*
X118666428Y-58463571D01*
X119166428Y-58463571D02*
X119166428Y-57463571D01*
X119166428Y-57749286D02*
X119237856Y-57606429D01*
X119309285Y-57535000D01*
X119452142Y-57463571D01*
X119594999Y-57463571D01*
X120737856Y-58463571D02*
X120737856Y-56963571D01*
X120737856Y-58392143D02*
X120594999Y-58463571D01*
X120309285Y-58463571D01*
X120166427Y-58392143D01*
X120094999Y-58320714D01*
X120023570Y-58177857D01*
X120023570Y-57749286D01*
X120094999Y-57606429D01*
X120166427Y-57535000D01*
X120309285Y-57463571D01*
X120594999Y-57463571D01*
X120737856Y-57535000D01*
X122094999Y-57463571D02*
X122094999Y-58463571D01*
X121452142Y-57463571D02*
X121452142Y-58249286D01*
X121523570Y-58392143D01*
X121666428Y-58463571D01*
X121880713Y-58463571D01*
X122023570Y-58392143D01*
X122094999Y-58320714D01*
X122809285Y-58463571D02*
X122809285Y-57463571D01*
X122809285Y-56963571D02*
X122737856Y-57035000D01*
X122809285Y-57106429D01*
X122880713Y-57035000D01*
X122809285Y-56963571D01*
X122809285Y-57106429D01*
X123523571Y-57463571D02*
X123523571Y-58463571D01*
X123523571Y-57606429D02*
X123594999Y-57535000D01*
X123737857Y-57463571D01*
X123952142Y-57463571D01*
X124094999Y-57535000D01*
X124166428Y-57677857D01*
X124166428Y-58463571D01*
X125095000Y-58463571D02*
X124952142Y-58392143D01*
X124880714Y-58320714D01*
X124809285Y-58177857D01*
X124809285Y-57749286D01*
X124880714Y-57606429D01*
X124952142Y-57535000D01*
X125095000Y-57463571D01*
X125309285Y-57463571D01*
X125452142Y-57535000D01*
X125523571Y-57606429D01*
X125595000Y-57749286D01*
X125595000Y-58177857D01*
X125523571Y-58320714D01*
X125452142Y-58392143D01*
X125309285Y-58463571D01*
X125095000Y-58463571D01*
X127380714Y-58463571D02*
X127380714Y-56963571D01*
X128237857Y-58463571D01*
X128237857Y-56963571D01*
X129595000Y-58463571D02*
X129595000Y-57677857D01*
X129523571Y-57535000D01*
X129380714Y-57463571D01*
X129095000Y-57463571D01*
X128952143Y-57535000D01*
X129595000Y-58392143D02*
X129452143Y-58463571D01*
X129095000Y-58463571D01*
X128952143Y-58392143D01*
X128880714Y-58249286D01*
X128880714Y-58106429D01*
X128952143Y-57963571D01*
X129095000Y-57892143D01*
X129452143Y-57892143D01*
X129595000Y-57820714D01*
X130309286Y-57463571D02*
X130309286Y-58463571D01*
X130309286Y-57606429D02*
X130380714Y-57535000D01*
X130523572Y-57463571D01*
X130737857Y-57463571D01*
X130880714Y-57535000D01*
X130952143Y-57677857D01*
X130952143Y-58463571D01*
X131880715Y-58463571D02*
X131737857Y-58392143D01*
X131666429Y-58320714D01*
X131595000Y-58177857D01*
X131595000Y-57749286D01*
X131666429Y-57606429D01*
X131737857Y-57535000D01*
X131880715Y-57463571D01*
X132095000Y-57463571D01*
X132237857Y-57535000D01*
X132309286Y-57606429D01*
X132380715Y-57749286D01*
X132380715Y-58177857D01*
X132309286Y-58320714D01*
X132237857Y-58392143D01*
X132095000Y-58463571D01*
X131880715Y-58463571D01*
X106493571Y-59677857D02*
X107707857Y-59677857D01*
X107850714Y-59606429D01*
X107922143Y-59535000D01*
X107993571Y-59392143D01*
X107993571Y-59106429D01*
X107922143Y-58963571D01*
X107850714Y-58892143D01*
X107707857Y-58820714D01*
X106493571Y-58820714D01*
X107922143Y-58177857D02*
X107993571Y-57963571D01*
X107993571Y-57606428D01*
X107922143Y-57463571D01*
X107850714Y-57392142D01*
X107707857Y-57320714D01*
X107565000Y-57320714D01*
X107422143Y-57392142D01*
X107350714Y-57463571D01*
X107279286Y-57606428D01*
X107207857Y-57892142D01*
X107136429Y-58035000D01*
X107065000Y-58106428D01*
X106922143Y-58177857D01*
X106779286Y-58177857D01*
X106636429Y-58106428D01*
X106565000Y-58035000D01*
X106493571Y-57892142D01*
X106493571Y-57535000D01*
X106565000Y-57320714D01*
X107207857Y-56177857D02*
X107279286Y-55963571D01*
X107350714Y-55892143D01*
X107493571Y-55820714D01*
X107707857Y-55820714D01*
X107850714Y-55892143D01*
X107922143Y-55963571D01*
X107993571Y-56106429D01*
X107993571Y-56677857D01*
X106493571Y-56677857D01*
X106493571Y-56177857D01*
X106565000Y-56035000D01*
X106636429Y-55963571D01*
X106779286Y-55892143D01*
X106922143Y-55892143D01*
X107065000Y-55963571D01*
X107136429Y-56035000D01*
X107207857Y-56177857D01*
X107207857Y-56677857D01*
D11*
X114220714Y-73191667D02*
X114696905Y-73191667D01*
X114125476Y-73477381D02*
X114458809Y-72477381D01*
X114792143Y-73477381D01*
X115030238Y-72477381D02*
X115696905Y-72477381D01*
X115268333Y-73477381D01*
X116760714Y-73191667D02*
X117236905Y-73191667D01*
X116665476Y-73477381D02*
X116998809Y-72477381D01*
X117332143Y-73477381D01*
X118094048Y-72477381D02*
X117903571Y-72477381D01*
X117808333Y-72525000D01*
X117760714Y-72572619D01*
X117665476Y-72715476D01*
X117617857Y-72905952D01*
X117617857Y-73286905D01*
X117665476Y-73382143D01*
X117713095Y-73429762D01*
X117808333Y-73477381D01*
X117998810Y-73477381D01*
X118094048Y-73429762D01*
X118141667Y-73382143D01*
X118189286Y-73286905D01*
X118189286Y-73048810D01*
X118141667Y-72953571D01*
X118094048Y-72905952D01*
X117998810Y-72858333D01*
X117808333Y-72858333D01*
X117713095Y-72905952D01*
X117665476Y-72953571D01*
X117617857Y-73048810D01*
D12*
X135771428Y-73275000D02*
X136485714Y-73275000D01*
X135628571Y-73703571D02*
X136128571Y-72203571D01*
X136628571Y-73703571D01*
X137128571Y-73703571D02*
X137128571Y-72203571D01*
X137985714Y-73703571D01*
X137985714Y-72203571D01*
X138628571Y-73275000D02*
X139342857Y-73275000D01*
X138485714Y-73703571D02*
X138985714Y-72203571D01*
X139485714Y-73703571D01*
X140700000Y-73703571D02*
X139985714Y-73703571D01*
X139985714Y-72203571D01*
X141485714Y-72203571D02*
X141771428Y-72203571D01*
X141914286Y-72275000D01*
X142057143Y-72417857D01*
X142128571Y-72703571D01*
X142128571Y-73203571D01*
X142057143Y-73489286D01*
X141914286Y-73632143D01*
X141771428Y-73703571D01*
X141485714Y-73703571D01*
X141342857Y-73632143D01*
X141200000Y-73489286D01*
X141128571Y-73203571D01*
X141128571Y-72703571D01*
X141200000Y-72417857D01*
X141342857Y-72275000D01*
X141485714Y-72203571D01*
X143557143Y-72275000D02*
X143414286Y-72203571D01*
X143200000Y-72203571D01*
X142985715Y-72275000D01*
X142842857Y-72417857D01*
X142771429Y-72560714D01*
X142700000Y-72846429D01*
X142700000Y-73060714D01*
X142771429Y-73346429D01*
X142842857Y-73489286D01*
X142985715Y-73632143D01*
X143200000Y-73703571D01*
X143342857Y-73703571D01*
X143557143Y-73632143D01*
X143628572Y-73560714D01*
X143628572Y-73060714D01*
X143342857Y-73060714D01*
D11*
X127182619Y-37068095D02*
X128182619Y-37068095D01*
X127468333Y-37401429D01*
X128182619Y-37734762D01*
X127182619Y-37734762D01*
X127182619Y-38210952D02*
X128182619Y-38210952D01*
X127230238Y-38639523D02*
X127182619Y-38782380D01*
X127182619Y-39020476D01*
X127230238Y-39115714D01*
X127277857Y-39163333D01*
X127373095Y-39210952D01*
X127468333Y-39210952D01*
X127563571Y-39163333D01*
X127611190Y-39115714D01*
X127658810Y-39020476D01*
X127706429Y-38829999D01*
X127754048Y-38734761D01*
X127801667Y-38687142D01*
X127896905Y-38639523D01*
X127992143Y-38639523D01*
X128087381Y-38687142D01*
X128135000Y-38734761D01*
X128182619Y-38829999D01*
X128182619Y-39068095D01*
X128135000Y-39210952D01*
X128182619Y-39829999D02*
X128182619Y-40020476D01*
X128135000Y-40115714D01*
X128039762Y-40210952D01*
X127849286Y-40258571D01*
X127515952Y-40258571D01*
X127325476Y-40210952D01*
X127230238Y-40115714D01*
X127182619Y-40020476D01*
X127182619Y-39829999D01*
X127230238Y-39734761D01*
X127325476Y-39639523D01*
X127515952Y-39591904D01*
X127849286Y-39591904D01*
X128039762Y-39639523D01*
X128135000Y-39734761D01*
X128182619Y-39829999D01*
X126801667Y-41734762D02*
X126849286Y-41687142D01*
X126992143Y-41591904D01*
X127087381Y-41544285D01*
X127230238Y-41496666D01*
X127468333Y-41449047D01*
X127658810Y-41449047D01*
X127896905Y-41496666D01*
X128039762Y-41544285D01*
X128135000Y-41591904D01*
X128277857Y-41687142D01*
X128325476Y-41734762D01*
X127182619Y-42115714D02*
X128182619Y-42115714D01*
X128182619Y-42353809D01*
X128135000Y-42496667D01*
X128039762Y-42591905D01*
X127944524Y-42639524D01*
X127754048Y-42687143D01*
X127611190Y-42687143D01*
X127420714Y-42639524D01*
X127325476Y-42591905D01*
X127230238Y-42496667D01*
X127182619Y-42353809D01*
X127182619Y-42115714D01*
X127182619Y-43639524D02*
X127182619Y-43068095D01*
X127182619Y-43353809D02*
X128182619Y-43353809D01*
X128039762Y-43258571D01*
X127944524Y-43163333D01*
X127896905Y-43068095D01*
X128087381Y-44020476D02*
X128135000Y-44068095D01*
X128182619Y-44163333D01*
X128182619Y-44401429D01*
X128135000Y-44496667D01*
X128087381Y-44544286D01*
X127992143Y-44591905D01*
X127896905Y-44591905D01*
X127754048Y-44544286D01*
X127182619Y-43972857D01*
X127182619Y-44591905D01*
X126801667Y-44925238D02*
X126849286Y-44972857D01*
X126992143Y-45068095D01*
X127087381Y-45115714D01*
X127230238Y-45163333D01*
X127468333Y-45210952D01*
X127658810Y-45210952D01*
X127896905Y-45163333D01*
X128039762Y-45115714D01*
X128135000Y-45068095D01*
X128277857Y-44972857D01*
X128325476Y-44925238D01*
X132000714Y-73191667D02*
X132476905Y-73191667D01*
X131905476Y-73477381D02*
X132238809Y-72477381D01*
X132572143Y-73477381D01*
X133095952Y-72477381D02*
X133191191Y-72477381D01*
X133286429Y-72525000D01*
X133334048Y-72572619D01*
X133381667Y-72667857D01*
X133429286Y-72858333D01*
X133429286Y-73096429D01*
X133381667Y-73286905D01*
X133334048Y-73382143D01*
X133286429Y-73429762D01*
X133191191Y-73477381D01*
X133095952Y-73477381D01*
X133000714Y-73429762D01*
X132953095Y-73382143D01*
X132905476Y-73286905D01*
X132857857Y-73096429D01*
X132857857Y-72858333D01*
X132905476Y-72667857D01*
X132953095Y-72572619D01*
X133000714Y-72525000D01*
X133095952Y-72477381D01*
X129460714Y-73191667D02*
X129936905Y-73191667D01*
X129365476Y-73477381D02*
X129698809Y-72477381D01*
X130032143Y-73477381D01*
X130889286Y-73477381D02*
X130317857Y-73477381D01*
X130603571Y-73477381D02*
X130603571Y-72477381D01*
X130508333Y-72620238D01*
X130413095Y-72715476D01*
X130317857Y-72763095D01*
X119300714Y-73191667D02*
X119776905Y-73191667D01*
X119205476Y-73477381D02*
X119538809Y-72477381D01*
X119872143Y-73477381D01*
X120681667Y-72477381D02*
X120205476Y-72477381D01*
X120157857Y-72953571D01*
X120205476Y-72905952D01*
X120300714Y-72858333D01*
X120538810Y-72858333D01*
X120634048Y-72905952D01*
X120681667Y-72953571D01*
X120729286Y-73048810D01*
X120729286Y-73286905D01*
X120681667Y-73382143D01*
X120634048Y-73429762D01*
X120538810Y-73477381D01*
X120300714Y-73477381D01*
X120205476Y-73429762D01*
X120157857Y-73382143D01*
X121840714Y-73191667D02*
X122316905Y-73191667D01*
X121745476Y-73477381D02*
X122078809Y-72477381D01*
X122412143Y-73477381D01*
X123174048Y-72810714D02*
X123174048Y-73477381D01*
X122935952Y-72429762D02*
X122697857Y-73144048D01*
X123316905Y-73144048D01*
X124380714Y-73191667D02*
X124856905Y-73191667D01*
X124285476Y-73477381D02*
X124618809Y-72477381D01*
X124952143Y-73477381D01*
X125190238Y-72477381D02*
X125809286Y-72477381D01*
X125475952Y-72858333D01*
X125618810Y-72858333D01*
X125714048Y-72905952D01*
X125761667Y-72953571D01*
X125809286Y-73048810D01*
X125809286Y-73286905D01*
X125761667Y-73382143D01*
X125714048Y-73429762D01*
X125618810Y-73477381D01*
X125333095Y-73477381D01*
X125237857Y-73429762D01*
X125190238Y-73382143D01*
X126920714Y-73191667D02*
X127396905Y-73191667D01*
X126825476Y-73477381D02*
X127158809Y-72477381D01*
X127492143Y-73477381D01*
X127777857Y-72572619D02*
X127825476Y-72525000D01*
X127920714Y-72477381D01*
X128158810Y-72477381D01*
X128254048Y-72525000D01*
X128301667Y-72572619D01*
X128349286Y-72667857D01*
X128349286Y-72763095D01*
X128301667Y-72905952D01*
X127730238Y-73477381D01*
X128349286Y-73477381D01*
X124690238Y-37020476D02*
X124642619Y-37163333D01*
X124642619Y-37401429D01*
X124690238Y-37496667D01*
X124737857Y-37544286D01*
X124833095Y-37591905D01*
X124928333Y-37591905D01*
X125023571Y-37544286D01*
X125071190Y-37496667D01*
X125118810Y-37401429D01*
X125166429Y-37210952D01*
X125214048Y-37115714D01*
X125261667Y-37068095D01*
X125356905Y-37020476D01*
X125452143Y-37020476D01*
X125547381Y-37068095D01*
X125595000Y-37115714D01*
X125642619Y-37210952D01*
X125642619Y-37449048D01*
X125595000Y-37591905D01*
X124737857Y-38591905D02*
X124690238Y-38544286D01*
X124642619Y-38401429D01*
X124642619Y-38306191D01*
X124690238Y-38163333D01*
X124785476Y-38068095D01*
X124880714Y-38020476D01*
X125071190Y-37972857D01*
X125214048Y-37972857D01*
X125404524Y-38020476D01*
X125499762Y-38068095D01*
X125595000Y-38163333D01*
X125642619Y-38306191D01*
X125642619Y-38401429D01*
X125595000Y-38544286D01*
X125547381Y-38591905D01*
X124642619Y-39020476D02*
X125642619Y-39020476D01*
X124642619Y-39591905D02*
X125214048Y-39163333D01*
X125642619Y-39591905D02*
X125071190Y-39020476D01*
X124261667Y-41068096D02*
X124309286Y-41020476D01*
X124452143Y-40925238D01*
X124547381Y-40877619D01*
X124690238Y-40830000D01*
X124928333Y-40782381D01*
X125118810Y-40782381D01*
X125356905Y-40830000D01*
X125499762Y-40877619D01*
X125595000Y-40925238D01*
X125737857Y-41020476D01*
X125785476Y-41068096D01*
X124642619Y-41449048D02*
X125642619Y-41449048D01*
X125642619Y-41687143D01*
X125595000Y-41830001D01*
X125499762Y-41925239D01*
X125404524Y-41972858D01*
X125214048Y-42020477D01*
X125071190Y-42020477D01*
X124880714Y-41972858D01*
X124785476Y-41925239D01*
X124690238Y-41830001D01*
X124642619Y-41687143D01*
X124642619Y-41449048D01*
X124642619Y-42972858D02*
X124642619Y-42401429D01*
X124642619Y-42687143D02*
X125642619Y-42687143D01*
X125499762Y-42591905D01*
X125404524Y-42496667D01*
X125356905Y-42401429D01*
X125642619Y-43306191D02*
X125642619Y-43925239D01*
X125261667Y-43591905D01*
X125261667Y-43734763D01*
X125214048Y-43830001D01*
X125166429Y-43877620D01*
X125071190Y-43925239D01*
X124833095Y-43925239D01*
X124737857Y-43877620D01*
X124690238Y-43830001D01*
X124642619Y-43734763D01*
X124642619Y-43449048D01*
X124690238Y-43353810D01*
X124737857Y-43306191D01*
X124261667Y-44258572D02*
X124309286Y-44306191D01*
X124452143Y-44401429D01*
X124547381Y-44449048D01*
X124690238Y-44496667D01*
X124928333Y-44544286D01*
X125118810Y-44544286D01*
X125356905Y-44496667D01*
X125499762Y-44449048D01*
X125595000Y-44401429D01*
X125737857Y-44306191D01*
X125785476Y-44258572D01*
X142422619Y-37639524D02*
X142898810Y-37306190D01*
X142422619Y-37068095D02*
X143422619Y-37068095D01*
X143422619Y-37449048D01*
X143375000Y-37544286D01*
X143327381Y-37591905D01*
X143232143Y-37639524D01*
X143089286Y-37639524D01*
X142994048Y-37591905D01*
X142946429Y-37544286D01*
X142898810Y-37449048D01*
X142898810Y-37068095D01*
X143422619Y-37972857D02*
X142422619Y-38639524D01*
X143422619Y-38639524D02*
X142422619Y-37972857D01*
X142422619Y-39020476D02*
X143422619Y-39020476D01*
X143422619Y-39258571D01*
X143375000Y-39401429D01*
X143279762Y-39496667D01*
X143184524Y-39544286D01*
X142994048Y-39591905D01*
X142851190Y-39591905D01*
X142660714Y-39544286D01*
X142565476Y-39496667D01*
X142470238Y-39401429D01*
X142422619Y-39258571D01*
X142422619Y-39020476D01*
X142041667Y-41068096D02*
X142089286Y-41020476D01*
X142232143Y-40925238D01*
X142327381Y-40877619D01*
X142470238Y-40830000D01*
X142708333Y-40782381D01*
X142898810Y-40782381D01*
X143136905Y-40830000D01*
X143279762Y-40877619D01*
X143375000Y-40925238D01*
X143517857Y-41020476D01*
X143565476Y-41068096D01*
X142422619Y-41449048D02*
X143422619Y-41449048D01*
X143422619Y-41687143D01*
X143375000Y-41830001D01*
X143279762Y-41925239D01*
X143184524Y-41972858D01*
X142994048Y-42020477D01*
X142851190Y-42020477D01*
X142660714Y-41972858D01*
X142565476Y-41925239D01*
X142470238Y-41830001D01*
X142422619Y-41687143D01*
X142422619Y-41449048D01*
X143422619Y-42639524D02*
X143422619Y-42734763D01*
X143375000Y-42830001D01*
X143327381Y-42877620D01*
X143232143Y-42925239D01*
X143041667Y-42972858D01*
X142803571Y-42972858D01*
X142613095Y-42925239D01*
X142517857Y-42877620D01*
X142470238Y-42830001D01*
X142422619Y-42734763D01*
X142422619Y-42639524D01*
X142470238Y-42544286D01*
X142517857Y-42496667D01*
X142613095Y-42449048D01*
X142803571Y-42401429D01*
X143041667Y-42401429D01*
X143232143Y-42449048D01*
X143327381Y-42496667D01*
X143375000Y-42544286D01*
X143422619Y-42639524D01*
X142041667Y-43306191D02*
X142089286Y-43353810D01*
X142232143Y-43449048D01*
X142327381Y-43496667D01*
X142470238Y-43544286D01*
X142708333Y-43591905D01*
X142898810Y-43591905D01*
X143136905Y-43544286D01*
X143279762Y-43496667D01*
X143375000Y-43449048D01*
X143517857Y-43353810D01*
X143565476Y-43306191D01*
X137390238Y-37020476D02*
X137342619Y-37163333D01*
X137342619Y-37401429D01*
X137390238Y-37496667D01*
X137437857Y-37544286D01*
X137533095Y-37591905D01*
X137628333Y-37591905D01*
X137723571Y-37544286D01*
X137771190Y-37496667D01*
X137818810Y-37401429D01*
X137866429Y-37210952D01*
X137914048Y-37115714D01*
X137961667Y-37068095D01*
X138056905Y-37020476D01*
X138152143Y-37020476D01*
X138247381Y-37068095D01*
X138295000Y-37115714D01*
X138342619Y-37210952D01*
X138342619Y-37449048D01*
X138295000Y-37591905D01*
X137437857Y-38591905D02*
X137390238Y-38544286D01*
X137342619Y-38401429D01*
X137342619Y-38306191D01*
X137390238Y-38163333D01*
X137485476Y-38068095D01*
X137580714Y-38020476D01*
X137771190Y-37972857D01*
X137914048Y-37972857D01*
X138104524Y-38020476D01*
X138199762Y-38068095D01*
X138295000Y-38163333D01*
X138342619Y-38306191D01*
X138342619Y-38401429D01*
X138295000Y-38544286D01*
X138247381Y-38591905D01*
X137342619Y-39496667D02*
X137342619Y-39020476D01*
X138342619Y-39020476D01*
X136961667Y-40877620D02*
X137009286Y-40830000D01*
X137152143Y-40734762D01*
X137247381Y-40687143D01*
X137390238Y-40639524D01*
X137628333Y-40591905D01*
X137818810Y-40591905D01*
X138056905Y-40639524D01*
X138199762Y-40687143D01*
X138295000Y-40734762D01*
X138437857Y-40830000D01*
X138485476Y-40877620D01*
X137628333Y-41210953D02*
X137628333Y-41687144D01*
X137342619Y-41115715D02*
X138342619Y-41449048D01*
X137342619Y-41782382D01*
X138342619Y-42591906D02*
X138342619Y-42115715D01*
X137866429Y-42068096D01*
X137914048Y-42115715D01*
X137961667Y-42210953D01*
X137961667Y-42449049D01*
X137914048Y-42544287D01*
X137866429Y-42591906D01*
X137771190Y-42639525D01*
X137533095Y-42639525D01*
X137437857Y-42591906D01*
X137390238Y-42544287D01*
X137342619Y-42449049D01*
X137342619Y-42210953D01*
X137390238Y-42115715D01*
X137437857Y-42068096D01*
X136961667Y-42972858D02*
X137009286Y-43020477D01*
X137152143Y-43115715D01*
X137247381Y-43163334D01*
X137390238Y-43210953D01*
X137628333Y-43258572D01*
X137818810Y-43258572D01*
X138056905Y-43210953D01*
X138199762Y-43163334D01*
X138295000Y-43115715D01*
X138437857Y-43020477D01*
X138485476Y-42972858D01*
X134850238Y-37020476D02*
X134802619Y-37163333D01*
X134802619Y-37401429D01*
X134850238Y-37496667D01*
X134897857Y-37544286D01*
X134993095Y-37591905D01*
X135088333Y-37591905D01*
X135183571Y-37544286D01*
X135231190Y-37496667D01*
X135278810Y-37401429D01*
X135326429Y-37210952D01*
X135374048Y-37115714D01*
X135421667Y-37068095D01*
X135516905Y-37020476D01*
X135612143Y-37020476D01*
X135707381Y-37068095D01*
X135755000Y-37115714D01*
X135802619Y-37210952D01*
X135802619Y-37449048D01*
X135755000Y-37591905D01*
X134802619Y-38020476D02*
X135802619Y-38020476D01*
X135802619Y-38258571D01*
X135755000Y-38401429D01*
X135659762Y-38496667D01*
X135564524Y-38544286D01*
X135374048Y-38591905D01*
X135231190Y-38591905D01*
X135040714Y-38544286D01*
X134945476Y-38496667D01*
X134850238Y-38401429D01*
X134802619Y-38258571D01*
X134802619Y-38020476D01*
X135088333Y-38972857D02*
X135088333Y-39449048D01*
X134802619Y-38877619D02*
X135802619Y-39210952D01*
X134802619Y-39544286D01*
X134421667Y-40925239D02*
X134469286Y-40877619D01*
X134612143Y-40782381D01*
X134707381Y-40734762D01*
X134850238Y-40687143D01*
X135088333Y-40639524D01*
X135278810Y-40639524D01*
X135516905Y-40687143D01*
X135659762Y-40734762D01*
X135755000Y-40782381D01*
X135897857Y-40877619D01*
X135945476Y-40925239D01*
X135088333Y-41258572D02*
X135088333Y-41734763D01*
X134802619Y-41163334D02*
X135802619Y-41496667D01*
X134802619Y-41830001D01*
X135469286Y-42591906D02*
X134802619Y-42591906D01*
X135850238Y-42353810D02*
X135135952Y-42115715D01*
X135135952Y-42734763D01*
X134421667Y-43020477D02*
X134469286Y-43068096D01*
X134612143Y-43163334D01*
X134707381Y-43210953D01*
X134850238Y-43258572D01*
X135088333Y-43306191D01*
X135278810Y-43306191D01*
X135516905Y-43258572D01*
X135659762Y-43210953D01*
X135755000Y-43163334D01*
X135897857Y-43068096D01*
X135945476Y-43020477D01*
X140882619Y-36925238D02*
X140882619Y-37496667D01*
X139882619Y-37210952D02*
X140882619Y-37210952D01*
X140882619Y-37734762D02*
X139882619Y-38401429D01*
X140882619Y-38401429D02*
X139882619Y-37734762D01*
X139882619Y-38782381D02*
X140882619Y-38782381D01*
X140882619Y-39020476D01*
X140835000Y-39163334D01*
X140739762Y-39258572D01*
X140644524Y-39306191D01*
X140454048Y-39353810D01*
X140311190Y-39353810D01*
X140120714Y-39306191D01*
X140025476Y-39258572D01*
X139930238Y-39163334D01*
X139882619Y-39020476D01*
X139882619Y-38782381D01*
X139501667Y-40830001D02*
X139549286Y-40782381D01*
X139692143Y-40687143D01*
X139787381Y-40639524D01*
X139930238Y-40591905D01*
X140168333Y-40544286D01*
X140358810Y-40544286D01*
X140596905Y-40591905D01*
X140739762Y-40639524D01*
X140835000Y-40687143D01*
X140977857Y-40782381D01*
X141025476Y-40830001D01*
X139882619Y-41210953D02*
X140882619Y-41210953D01*
X140882619Y-41449048D01*
X140835000Y-41591906D01*
X140739762Y-41687144D01*
X140644524Y-41734763D01*
X140454048Y-41782382D01*
X140311190Y-41782382D01*
X140120714Y-41734763D01*
X140025476Y-41687144D01*
X139930238Y-41591906D01*
X139882619Y-41449048D01*
X139882619Y-41210953D01*
X139882619Y-42734763D02*
X139882619Y-42163334D01*
X139882619Y-42449048D02*
X140882619Y-42449048D01*
X140739762Y-42353810D01*
X140644524Y-42258572D01*
X140596905Y-42163334D01*
X139501667Y-43068096D02*
X139549286Y-43115715D01*
X139692143Y-43210953D01*
X139787381Y-43258572D01*
X139930238Y-43306191D01*
X140168333Y-43353810D01*
X140358810Y-43353810D01*
X140596905Y-43306191D01*
X140739762Y-43258572D01*
X140835000Y-43210953D01*
X140977857Y-43115715D01*
X141025476Y-43068096D01*
X132262619Y-37068095D02*
X133262619Y-37068095D01*
X133262619Y-37306190D01*
X133215000Y-37449048D01*
X133119762Y-37544286D01*
X133024524Y-37591905D01*
X132834048Y-37639524D01*
X132691190Y-37639524D01*
X132500714Y-37591905D01*
X132405476Y-37544286D01*
X132310238Y-37449048D01*
X132262619Y-37306190D01*
X132262619Y-37068095D01*
X132262619Y-38591905D02*
X132262619Y-38020476D01*
X132262619Y-38306190D02*
X133262619Y-38306190D01*
X133119762Y-38210952D01*
X133024524Y-38115714D01*
X132976905Y-38020476D01*
X133262619Y-39210952D02*
X133262619Y-39306191D01*
X133215000Y-39401429D01*
X133167381Y-39449048D01*
X133072143Y-39496667D01*
X132881667Y-39544286D01*
X132643571Y-39544286D01*
X132453095Y-39496667D01*
X132357857Y-39449048D01*
X132310238Y-39401429D01*
X132262619Y-39306191D01*
X132262619Y-39210952D01*
X132310238Y-39115714D01*
X132357857Y-39068095D01*
X132453095Y-39020476D01*
X132643571Y-38972857D01*
X132881667Y-38972857D01*
X133072143Y-39020476D01*
X133167381Y-39068095D01*
X133215000Y-39115714D01*
X133262619Y-39210952D01*
X129722619Y-37068095D02*
X130722619Y-37068095D01*
X130008333Y-37401429D01*
X130722619Y-37734762D01*
X129722619Y-37734762D01*
X130722619Y-38401428D02*
X130722619Y-38591905D01*
X130675000Y-38687143D01*
X130579762Y-38782381D01*
X130389286Y-38830000D01*
X130055952Y-38830000D01*
X129865476Y-38782381D01*
X129770238Y-38687143D01*
X129722619Y-38591905D01*
X129722619Y-38401428D01*
X129770238Y-38306190D01*
X129865476Y-38210952D01*
X130055952Y-38163333D01*
X130389286Y-38163333D01*
X130579762Y-38210952D01*
X130675000Y-38306190D01*
X130722619Y-38401428D01*
X129770238Y-39210952D02*
X129722619Y-39353809D01*
X129722619Y-39591905D01*
X129770238Y-39687143D01*
X129817857Y-39734762D01*
X129913095Y-39782381D01*
X130008333Y-39782381D01*
X130103571Y-39734762D01*
X130151190Y-39687143D01*
X130198810Y-39591905D01*
X130246429Y-39401428D01*
X130294048Y-39306190D01*
X130341667Y-39258571D01*
X130436905Y-39210952D01*
X130532143Y-39210952D01*
X130627381Y-39258571D01*
X130675000Y-39306190D01*
X130722619Y-39401428D01*
X130722619Y-39639524D01*
X130675000Y-39782381D01*
X129722619Y-40210952D02*
X130722619Y-40210952D01*
X129341667Y-41734762D02*
X129389286Y-41687142D01*
X129532143Y-41591904D01*
X129627381Y-41544285D01*
X129770238Y-41496666D01*
X130008333Y-41449047D01*
X130198810Y-41449047D01*
X130436905Y-41496666D01*
X130579762Y-41544285D01*
X130675000Y-41591904D01*
X130817857Y-41687142D01*
X130865476Y-41734762D01*
X129722619Y-42115714D02*
X130722619Y-42115714D01*
X130722619Y-42353809D01*
X130675000Y-42496667D01*
X130579762Y-42591905D01*
X130484524Y-42639524D01*
X130294048Y-42687143D01*
X130151190Y-42687143D01*
X129960714Y-42639524D01*
X129865476Y-42591905D01*
X129770238Y-42496667D01*
X129722619Y-42353809D01*
X129722619Y-42115714D01*
X129722619Y-43639524D02*
X129722619Y-43068095D01*
X129722619Y-43353809D02*
X130722619Y-43353809D01*
X130579762Y-43258571D01*
X130484524Y-43163333D01*
X130436905Y-43068095D01*
X129722619Y-44591905D02*
X129722619Y-44020476D01*
X129722619Y-44306190D02*
X130722619Y-44306190D01*
X130579762Y-44210952D01*
X130484524Y-44115714D01*
X130436905Y-44020476D01*
X129341667Y-44925238D02*
X129389286Y-44972857D01*
X129532143Y-45068095D01*
X129627381Y-45115714D01*
X129770238Y-45163333D01*
X130008333Y-45210952D01*
X130198810Y-45210952D01*
X130436905Y-45163333D01*
X130579762Y-45115714D01*
X130675000Y-45068095D01*
X130817857Y-44972857D01*
X130865476Y-44925238D01*
X145946905Y-69667381D02*
X145946905Y-68667381D01*
X146185000Y-68667381D01*
X146327858Y-68715000D01*
X146423096Y-68810238D01*
X146470715Y-68905476D01*
X146518334Y-69095952D01*
X146518334Y-69238810D01*
X146470715Y-69429286D01*
X146423096Y-69524524D01*
X146327858Y-69619762D01*
X146185000Y-69667381D01*
X145946905Y-69667381D01*
X146994524Y-69667381D02*
X147185000Y-69667381D01*
X147280239Y-69619762D01*
X147327858Y-69572143D01*
X147423096Y-69429286D01*
X147470715Y-69238810D01*
X147470715Y-68857857D01*
X147423096Y-68762619D01*
X147375477Y-68715000D01*
X147280239Y-68667381D01*
X147089762Y-68667381D01*
X146994524Y-68715000D01*
X146946905Y-68762619D01*
X146899286Y-68857857D01*
X146899286Y-69095952D01*
X146946905Y-69191190D01*
X146994524Y-69238810D01*
X147089762Y-69286429D01*
X147280239Y-69286429D01*
X147375477Y-69238810D01*
X147423096Y-69191190D01*
X147470715Y-69095952D01*
X145946905Y-67127381D02*
X145946905Y-66127381D01*
X146185000Y-66127381D01*
X146327858Y-66175000D01*
X146423096Y-66270238D01*
X146470715Y-66365476D01*
X146518334Y-66555952D01*
X146518334Y-66698810D01*
X146470715Y-66889286D01*
X146423096Y-66984524D01*
X146327858Y-67079762D01*
X146185000Y-67127381D01*
X145946905Y-67127381D01*
X147089762Y-66555952D02*
X146994524Y-66508333D01*
X146946905Y-66460714D01*
X146899286Y-66365476D01*
X146899286Y-66317857D01*
X146946905Y-66222619D01*
X146994524Y-66175000D01*
X147089762Y-66127381D01*
X147280239Y-66127381D01*
X147375477Y-66175000D01*
X147423096Y-66222619D01*
X147470715Y-66317857D01*
X147470715Y-66365476D01*
X147423096Y-66460714D01*
X147375477Y-66508333D01*
X147280239Y-66555952D01*
X147089762Y-66555952D01*
X146994524Y-66603571D01*
X146946905Y-66651190D01*
X146899286Y-66746429D01*
X146899286Y-66936905D01*
X146946905Y-67032143D01*
X146994524Y-67079762D01*
X147089762Y-67127381D01*
X147280239Y-67127381D01*
X147375477Y-67079762D01*
X147423096Y-67032143D01*
X147470715Y-66936905D01*
X147470715Y-66746429D01*
X147423096Y-66651190D01*
X147375477Y-66603571D01*
X147280239Y-66555952D01*
X145946905Y-64587381D02*
X145946905Y-63587381D01*
X146185000Y-63587381D01*
X146327858Y-63635000D01*
X146423096Y-63730238D01*
X146470715Y-63825476D01*
X146518334Y-64015952D01*
X146518334Y-64158810D01*
X146470715Y-64349286D01*
X146423096Y-64444524D01*
X146327858Y-64539762D01*
X146185000Y-64587381D01*
X145946905Y-64587381D01*
X146851667Y-63587381D02*
X147518334Y-63587381D01*
X147089762Y-64587381D01*
X145946905Y-62047381D02*
X145946905Y-61047381D01*
X146185000Y-61047381D01*
X146327858Y-61095000D01*
X146423096Y-61190238D01*
X146470715Y-61285476D01*
X146518334Y-61475952D01*
X146518334Y-61618810D01*
X146470715Y-61809286D01*
X146423096Y-61904524D01*
X146327858Y-61999762D01*
X146185000Y-62047381D01*
X145946905Y-62047381D01*
X147375477Y-61047381D02*
X147185000Y-61047381D01*
X147089762Y-61095000D01*
X147042143Y-61142619D01*
X146946905Y-61285476D01*
X146899286Y-61475952D01*
X146899286Y-61856905D01*
X146946905Y-61952143D01*
X146994524Y-61999762D01*
X147089762Y-62047381D01*
X147280239Y-62047381D01*
X147375477Y-61999762D01*
X147423096Y-61952143D01*
X147470715Y-61856905D01*
X147470715Y-61618810D01*
X147423096Y-61523571D01*
X147375477Y-61475952D01*
X147280239Y-61428333D01*
X147089762Y-61428333D01*
X146994524Y-61475952D01*
X146946905Y-61523571D01*
X146899286Y-61618810D01*
X145946905Y-59507381D02*
X145946905Y-58507381D01*
X146185000Y-58507381D01*
X146327858Y-58555000D01*
X146423096Y-58650238D01*
X146470715Y-58745476D01*
X146518334Y-58935952D01*
X146518334Y-59078810D01*
X146470715Y-59269286D01*
X146423096Y-59364524D01*
X146327858Y-59459762D01*
X146185000Y-59507381D01*
X145946905Y-59507381D01*
X147423096Y-58507381D02*
X146946905Y-58507381D01*
X146899286Y-58983571D01*
X146946905Y-58935952D01*
X147042143Y-58888333D01*
X147280239Y-58888333D01*
X147375477Y-58935952D01*
X147423096Y-58983571D01*
X147470715Y-59078810D01*
X147470715Y-59316905D01*
X147423096Y-59412143D01*
X147375477Y-59459762D01*
X147280239Y-59507381D01*
X147042143Y-59507381D01*
X146946905Y-59459762D01*
X146899286Y-59412143D01*
X145946905Y-56967381D02*
X145946905Y-55967381D01*
X146185000Y-55967381D01*
X146327858Y-56015000D01*
X146423096Y-56110238D01*
X146470715Y-56205476D01*
X146518334Y-56395952D01*
X146518334Y-56538810D01*
X146470715Y-56729286D01*
X146423096Y-56824524D01*
X146327858Y-56919762D01*
X146185000Y-56967381D01*
X145946905Y-56967381D01*
X147375477Y-56300714D02*
X147375477Y-56967381D01*
X147137381Y-55919762D02*
X146899286Y-56634048D01*
X147518334Y-56634048D01*
X145946905Y-54427381D02*
X145946905Y-53427381D01*
X146185000Y-53427381D01*
X146327858Y-53475000D01*
X146423096Y-53570238D01*
X146470715Y-53665476D01*
X146518334Y-53855952D01*
X146518334Y-53998810D01*
X146470715Y-54189286D01*
X146423096Y-54284524D01*
X146327858Y-54379762D01*
X146185000Y-54427381D01*
X145946905Y-54427381D01*
X146851667Y-53427381D02*
X147470715Y-53427381D01*
X147137381Y-53808333D01*
X147280239Y-53808333D01*
X147375477Y-53855952D01*
X147423096Y-53903571D01*
X147470715Y-53998810D01*
X147470715Y-54236905D01*
X147423096Y-54332143D01*
X147375477Y-54379762D01*
X147280239Y-54427381D01*
X146994524Y-54427381D01*
X146899286Y-54379762D01*
X146851667Y-54332143D01*
X145946905Y-51887381D02*
X145946905Y-50887381D01*
X146185000Y-50887381D01*
X146327858Y-50935000D01*
X146423096Y-51030238D01*
X146470715Y-51125476D01*
X146518334Y-51315952D01*
X146518334Y-51458810D01*
X146470715Y-51649286D01*
X146423096Y-51744524D01*
X146327858Y-51839762D01*
X146185000Y-51887381D01*
X145946905Y-51887381D01*
X146899286Y-50982619D02*
X146946905Y-50935000D01*
X147042143Y-50887381D01*
X147280239Y-50887381D01*
X147375477Y-50935000D01*
X147423096Y-50982619D01*
X147470715Y-51077857D01*
X147470715Y-51173095D01*
X147423096Y-51315952D01*
X146851667Y-51887381D01*
X147470715Y-51887381D01*
D12*
X113375714Y-38072143D02*
X113590000Y-38143571D01*
X113947143Y-38143571D01*
X114090000Y-38072143D01*
X114161429Y-38000714D01*
X114232857Y-37857857D01*
X114232857Y-37715000D01*
X114161429Y-37572143D01*
X114090000Y-37500714D01*
X113947143Y-37429286D01*
X113661429Y-37357857D01*
X113518571Y-37286429D01*
X113447143Y-37215000D01*
X113375714Y-37072143D01*
X113375714Y-36929286D01*
X113447143Y-36786429D01*
X113518571Y-36715000D01*
X113661429Y-36643571D01*
X114018571Y-36643571D01*
X114232857Y-36715000D01*
X114875714Y-37357857D02*
X115375714Y-37357857D01*
X115590000Y-38143571D02*
X114875714Y-38143571D01*
X114875714Y-36643571D01*
X115590000Y-36643571D01*
X117090000Y-38143571D02*
X116590000Y-37429286D01*
X116232857Y-38143571D02*
X116232857Y-36643571D01*
X116804285Y-36643571D01*
X116947143Y-36715000D01*
X117018571Y-36786429D01*
X117090000Y-36929286D01*
X117090000Y-37143571D01*
X117018571Y-37286429D01*
X116947143Y-37357857D01*
X116804285Y-37429286D01*
X116232857Y-37429286D01*
X117732857Y-38143571D02*
X117732857Y-36643571D01*
X118375714Y-37715000D02*
X119090000Y-37715000D01*
X118232857Y-38143571D02*
X118732857Y-36643571D01*
X119232857Y-38143571D01*
X120447143Y-38143571D02*
X119732857Y-38143571D01*
X119732857Y-36643571D01*
X147363571Y-48763571D02*
X145863571Y-48763571D01*
X145863571Y-48406428D01*
X145935000Y-48192143D01*
X146077857Y-48049285D01*
X146220714Y-47977857D01*
X146506429Y-47906428D01*
X146720714Y-47906428D01*
X147006429Y-47977857D01*
X147149286Y-48049285D01*
X147292143Y-48192143D01*
X147363571Y-48406428D01*
X147363571Y-48763571D01*
X147363571Y-47263571D02*
X145863571Y-47263571D01*
X145935000Y-45763571D02*
X145863571Y-45906428D01*
X145863571Y-46120714D01*
X145935000Y-46334999D01*
X146077857Y-46477857D01*
X146220714Y-46549285D01*
X146506429Y-46620714D01*
X146720714Y-46620714D01*
X147006429Y-46549285D01*
X147149286Y-46477857D01*
X147292143Y-46334999D01*
X147363571Y-46120714D01*
X147363571Y-45977857D01*
X147292143Y-45763571D01*
X147220714Y-45692142D01*
X146720714Y-45692142D01*
X146720714Y-45977857D01*
X147363571Y-45049285D02*
X145863571Y-45049285D01*
X145863571Y-44549285D02*
X145863571Y-43692142D01*
X147363571Y-44120713D02*
X145863571Y-44120713D01*
X146935000Y-43263571D02*
X146935000Y-42549285D01*
X147363571Y-43406428D02*
X145863571Y-42906428D01*
X147363571Y-42406428D01*
X147363571Y-41192142D02*
X147363571Y-41906428D01*
X145863571Y-41906428D01*
X90940000Y-71568571D02*
X91440000Y-73068571D01*
X91940000Y-71568571D01*
X89292857Y-71640000D02*
X89150000Y-71568571D01*
X88935714Y-71568571D01*
X88721429Y-71640000D01*
X88578571Y-71782857D01*
X88507143Y-71925714D01*
X88435714Y-72211429D01*
X88435714Y-72425714D01*
X88507143Y-72711429D01*
X88578571Y-72854286D01*
X88721429Y-72997143D01*
X88935714Y-73068571D01*
X89078571Y-73068571D01*
X89292857Y-72997143D01*
X89364286Y-72925714D01*
X89364286Y-72425714D01*
X89078571Y-72425714D01*
D11*
X93980000Y-74295000D02*
X93980000Y-73660000D01*
X93980000Y-73025000D02*
X93980000Y-74295000D01*
X93980000Y-41910000D02*
X93980000Y-73025000D01*
X93980000Y-46990000D02*
X93980000Y-41910000D01*
D12*
X87297143Y-34968571D02*
X87297143Y-33468571D01*
X87297143Y-34182857D02*
X88154286Y-34182857D01*
X88154286Y-34968571D02*
X88154286Y-33468571D01*
X89440000Y-34897143D02*
X89297143Y-34968571D01*
X89011429Y-34968571D01*
X88868572Y-34897143D01*
X88797143Y-34754286D01*
X88797143Y-34182857D01*
X88868572Y-34040000D01*
X89011429Y-33968571D01*
X89297143Y-33968571D01*
X89440000Y-34040000D01*
X89511429Y-34182857D01*
X89511429Y-34325714D01*
X88797143Y-34468571D01*
X90797143Y-34968571D02*
X90797143Y-34182857D01*
X90725714Y-34040000D01*
X90582857Y-33968571D01*
X90297143Y-33968571D01*
X90154286Y-34040000D01*
X90797143Y-34897143D02*
X90654286Y-34968571D01*
X90297143Y-34968571D01*
X90154286Y-34897143D01*
X90082857Y-34754286D01*
X90082857Y-34611429D01*
X90154286Y-34468571D01*
X90297143Y-34397143D01*
X90654286Y-34397143D01*
X90797143Y-34325714D01*
X92154286Y-34968571D02*
X92154286Y-33468571D01*
X92154286Y-34897143D02*
X92011429Y-34968571D01*
X91725715Y-34968571D01*
X91582857Y-34897143D01*
X91511429Y-34825714D01*
X91440000Y-34682857D01*
X91440000Y-34254286D01*
X91511429Y-34111429D01*
X91582857Y-34040000D01*
X91725715Y-33968571D01*
X92011429Y-33968571D01*
X92154286Y-34040000D01*
X93440000Y-34897143D02*
X93297143Y-34968571D01*
X93011429Y-34968571D01*
X92868572Y-34897143D01*
X92797143Y-34754286D01*
X92797143Y-34182857D01*
X92868572Y-34040000D01*
X93011429Y-33968571D01*
X93297143Y-33968571D01*
X93440000Y-34040000D01*
X93511429Y-34182857D01*
X93511429Y-34325714D01*
X92797143Y-34468571D01*
X94154286Y-34968571D02*
X94154286Y-33968571D01*
X94154286Y-34254286D02*
X94225714Y-34111429D01*
X94297143Y-34040000D01*
X94440000Y-33968571D01*
X94582857Y-33968571D01*
X95011428Y-34897143D02*
X95154285Y-34968571D01*
X95440000Y-34968571D01*
X95582857Y-34897143D01*
X95654285Y-34754286D01*
X95654285Y-34682857D01*
X95582857Y-34540000D01*
X95440000Y-34468571D01*
X95225714Y-34468571D01*
X95082857Y-34397143D01*
X95011428Y-34254286D01*
X95011428Y-34182857D01*
X95082857Y-34040000D01*
X95225714Y-33968571D01*
X95440000Y-33968571D01*
X95582857Y-34040000D01*
X67635715Y-42993571D02*
X68564286Y-42993571D01*
X68064286Y-43565000D01*
X68278572Y-43565000D01*
X68421429Y-43636429D01*
X68492858Y-43707857D01*
X68564286Y-43850714D01*
X68564286Y-44207857D01*
X68492858Y-44350714D01*
X68421429Y-44422143D01*
X68278572Y-44493571D01*
X67850000Y-44493571D01*
X67707143Y-44422143D01*
X67635715Y-44350714D01*
X69207143Y-44350714D02*
X69278571Y-44422143D01*
X69207143Y-44493571D01*
X69135714Y-44422143D01*
X69207143Y-44350714D01*
X69207143Y-44493571D01*
X69778572Y-42993571D02*
X70707143Y-42993571D01*
X70207143Y-43565000D01*
X70421429Y-43565000D01*
X70564286Y-43636429D01*
X70635715Y-43707857D01*
X70707143Y-43850714D01*
X70707143Y-44207857D01*
X70635715Y-44350714D01*
X70564286Y-44422143D01*
X70421429Y-44493571D01*
X69992857Y-44493571D01*
X69850000Y-44422143D01*
X69778572Y-44350714D01*
X71135714Y-42993571D02*
X71635714Y-44493571D01*
X72135714Y-42993571D01*
X60674287Y-42993571D02*
X59960001Y-42993571D01*
X59888572Y-43707857D01*
X59960001Y-43636429D01*
X60102858Y-43565000D01*
X60460001Y-43565000D01*
X60602858Y-43636429D01*
X60674287Y-43707857D01*
X60745715Y-43850714D01*
X60745715Y-44207857D01*
X60674287Y-44350714D01*
X60602858Y-44422143D01*
X60460001Y-44493571D01*
X60102858Y-44493571D01*
X59960001Y-44422143D01*
X59888572Y-44350714D01*
X61174286Y-42993571D02*
X61674286Y-44493571D01*
X62174286Y-42993571D01*
D13*
X64373334Y-33113333D02*
X63706667Y-33113333D01*
X63706667Y-31713333D01*
X65373334Y-33046667D02*
X65240000Y-33113333D01*
X64973334Y-33113333D01*
X64840000Y-33046667D01*
X64773334Y-32913333D01*
X64773334Y-32380000D01*
X64840000Y-32246667D01*
X64973334Y-32180000D01*
X65240000Y-32180000D01*
X65373334Y-32246667D01*
X65440000Y-32380000D01*
X65440000Y-32513333D01*
X64773334Y-32646667D01*
X65906667Y-32180000D02*
X66240000Y-33113333D01*
X66573334Y-32180000D01*
X67640001Y-33046667D02*
X67506667Y-33113333D01*
X67240001Y-33113333D01*
X67106667Y-33046667D01*
X67040001Y-32913333D01*
X67040001Y-32380000D01*
X67106667Y-32246667D01*
X67240001Y-32180000D01*
X67506667Y-32180000D01*
X67640001Y-32246667D01*
X67706667Y-32380000D01*
X67706667Y-32513333D01*
X67040001Y-32646667D01*
X68506667Y-33113333D02*
X68373334Y-33046667D01*
X68306667Y-32913333D01*
X68306667Y-31713333D01*
X62206666Y-35330000D02*
X62140000Y-35396667D01*
X61940000Y-35463333D01*
X61806666Y-35463333D01*
X61606666Y-35396667D01*
X61473333Y-35263333D01*
X61406666Y-35130000D01*
X61340000Y-34863333D01*
X61340000Y-34663333D01*
X61406666Y-34396667D01*
X61473333Y-34263333D01*
X61606666Y-34130000D01*
X61806666Y-34063333D01*
X61940000Y-34063333D01*
X62140000Y-34130000D01*
X62206666Y-34196667D01*
X63006666Y-35463333D02*
X62873333Y-35396667D01*
X62806666Y-35330000D01*
X62740000Y-35196667D01*
X62740000Y-34796667D01*
X62806666Y-34663333D01*
X62873333Y-34596667D01*
X63006666Y-34530000D01*
X63206666Y-34530000D01*
X63340000Y-34596667D01*
X63406666Y-34663333D01*
X63473333Y-34796667D01*
X63473333Y-35196667D01*
X63406666Y-35330000D01*
X63340000Y-35396667D01*
X63206666Y-35463333D01*
X63006666Y-35463333D01*
X64073333Y-34530000D02*
X64073333Y-35463333D01*
X64073333Y-34663333D02*
X64140000Y-34596667D01*
X64273333Y-34530000D01*
X64473333Y-34530000D01*
X64606667Y-34596667D01*
X64673333Y-34730000D01*
X64673333Y-35463333D01*
X65206667Y-34530000D02*
X65540000Y-35463333D01*
X65873334Y-34530000D01*
X66940001Y-35396667D02*
X66806667Y-35463333D01*
X66540001Y-35463333D01*
X66406667Y-35396667D01*
X66340001Y-35263333D01*
X66340001Y-34730000D01*
X66406667Y-34596667D01*
X66540001Y-34530000D01*
X66806667Y-34530000D01*
X66940001Y-34596667D01*
X67006667Y-34730000D01*
X67006667Y-34863333D01*
X66340001Y-34996667D01*
X67606667Y-35463333D02*
X67606667Y-34530000D01*
X67606667Y-34796667D02*
X67673334Y-34663333D01*
X67740001Y-34596667D01*
X67873334Y-34530000D01*
X68006667Y-34530000D01*
X68273334Y-34530000D02*
X68806668Y-34530000D01*
X68473334Y-34063333D02*
X68473334Y-35263333D01*
X68540001Y-35396667D01*
X68673334Y-35463333D01*
X68806668Y-35463333D01*
X69806668Y-35396667D02*
X69673334Y-35463333D01*
X69406668Y-35463333D01*
X69273334Y-35396667D01*
X69206668Y-35263333D01*
X69206668Y-34730000D01*
X69273334Y-34596667D01*
X69406668Y-34530000D01*
X69673334Y-34530000D01*
X69806668Y-34596667D01*
X69873334Y-34730000D01*
X69873334Y-34863333D01*
X69206668Y-34996667D01*
X70473334Y-35463333D02*
X70473334Y-34530000D01*
X70473334Y-34796667D02*
X70540001Y-34663333D01*
X70606668Y-34596667D01*
X70740001Y-34530000D01*
X70873334Y-34530000D01*
D11*
X146685000Y-119380000D02*
X148590000Y-119380000D01*
X146685000Y-116840000D02*
X148590000Y-116840000D01*
X146685000Y-114300000D02*
X148590000Y-114300000D01*
X146685000Y-111760000D02*
X148590000Y-111760000D01*
X146685000Y-109220000D02*
X148590000Y-109220000D01*
X146685000Y-106680000D02*
X148590000Y-106680000D01*
X146685000Y-104140000D02*
X148590000Y-104140000D01*
X146685000Y-101600000D02*
X148590000Y-101600000D01*
X109990000Y-94741904D02*
X109942381Y-94837142D01*
X109942381Y-94979999D01*
X109990000Y-95122857D01*
X110085238Y-95218095D01*
X110180476Y-95265714D01*
X110370952Y-95313333D01*
X110513810Y-95313333D01*
X110704286Y-95265714D01*
X110799524Y-95218095D01*
X110894762Y-95122857D01*
X110942381Y-94979999D01*
X110942381Y-94884761D01*
X110894762Y-94741904D01*
X110847143Y-94694285D01*
X110513810Y-94694285D01*
X110513810Y-94884761D01*
X110942381Y-94265714D02*
X109942381Y-94265714D01*
X110942381Y-93694285D01*
X109942381Y-93694285D01*
X110942381Y-93218095D02*
X109942381Y-93218095D01*
X109942381Y-92980000D01*
X109990000Y-92837142D01*
X110085238Y-92741904D01*
X110180476Y-92694285D01*
X110370952Y-92646666D01*
X110513810Y-92646666D01*
X110704286Y-92694285D01*
X110799524Y-92741904D01*
X110894762Y-92837142D01*
X110942381Y-92980000D01*
X110942381Y-93218095D01*
X146772381Y-92773333D02*
X147772381Y-92440000D01*
X146772381Y-92106666D01*
X147677143Y-91201904D02*
X147724762Y-91249523D01*
X147772381Y-91392380D01*
X147772381Y-91487618D01*
X147724762Y-91630476D01*
X147629524Y-91725714D01*
X147534286Y-91773333D01*
X147343810Y-91820952D01*
X147200952Y-91820952D01*
X147010476Y-91773333D01*
X146915238Y-91725714D01*
X146820000Y-91630476D01*
X146772381Y-91487618D01*
X146772381Y-91392380D01*
X146820000Y-91249523D01*
X146867619Y-91201904D01*
X147677143Y-90201904D02*
X147724762Y-90249523D01*
X147772381Y-90392380D01*
X147772381Y-90487618D01*
X147724762Y-90630476D01*
X147629524Y-90725714D01*
X147534286Y-90773333D01*
X147343810Y-90820952D01*
X147200952Y-90820952D01*
X147010476Y-90773333D01*
X146915238Y-90725714D01*
X146820000Y-90630476D01*
X146772381Y-90487618D01*
X146772381Y-90392380D01*
X146820000Y-90249523D01*
X146867619Y-90201904D01*
X109942381Y-89995238D02*
X110942381Y-89661905D01*
X109942381Y-89328571D01*
X110942381Y-88995238D02*
X109942381Y-88995238D01*
X110942381Y-88519048D02*
X109942381Y-88519048D01*
X110942381Y-87947619D01*
X109942381Y-87947619D01*
X123428095Y-82367381D02*
X123428095Y-81367381D01*
X123809048Y-81367381D01*
X123904286Y-81415000D01*
X123951905Y-81462619D01*
X123999524Y-81557857D01*
X123999524Y-81700714D01*
X123951905Y-81795952D01*
X123904286Y-81843571D01*
X123809048Y-81891190D01*
X123428095Y-81891190D01*
X124428095Y-82367381D02*
X124428095Y-81700714D01*
X124428095Y-81891190D02*
X124475714Y-81795952D01*
X124523333Y-81748333D01*
X124618571Y-81700714D01*
X124713810Y-81700714D01*
X125190000Y-82367381D02*
X125094762Y-82319762D01*
X125047143Y-82272143D01*
X124999524Y-82176905D01*
X124999524Y-81891190D01*
X125047143Y-81795952D01*
X125094762Y-81748333D01*
X125190000Y-81700714D01*
X125332858Y-81700714D01*
X125428096Y-81748333D01*
X125475715Y-81795952D01*
X125523334Y-81891190D01*
X125523334Y-82176905D01*
X125475715Y-82272143D01*
X125428096Y-82319762D01*
X125332858Y-82367381D01*
X125190000Y-82367381D01*
X125809048Y-81700714D02*
X126190000Y-81700714D01*
X125951905Y-81367381D02*
X125951905Y-82224524D01*
X125999524Y-82319762D01*
X126094762Y-82367381D01*
X126190000Y-82367381D01*
X126666191Y-82367381D02*
X126570953Y-82319762D01*
X126523334Y-82272143D01*
X126475715Y-82176905D01*
X126475715Y-81891190D01*
X126523334Y-81795952D01*
X126570953Y-81748333D01*
X126666191Y-81700714D01*
X126809049Y-81700714D01*
X126904287Y-81748333D01*
X126951906Y-81795952D01*
X126999525Y-81891190D01*
X126999525Y-82176905D01*
X126951906Y-82272143D01*
X126904287Y-82319762D01*
X126809049Y-82367381D01*
X126666191Y-82367381D01*
X127285239Y-81700714D02*
X127666191Y-81700714D01*
X127428096Y-81367381D02*
X127428096Y-82224524D01*
X127475715Y-82319762D01*
X127570953Y-82367381D01*
X127666191Y-82367381D01*
X127904287Y-81700714D02*
X128142382Y-82367381D01*
X128380478Y-81700714D02*
X128142382Y-82367381D01*
X128047144Y-82605476D01*
X127999525Y-82653095D01*
X127904287Y-82700714D01*
X128761430Y-81700714D02*
X128761430Y-82700714D01*
X128761430Y-81748333D02*
X128856668Y-81700714D01*
X129047145Y-81700714D01*
X129142383Y-81748333D01*
X129190002Y-81795952D01*
X129237621Y-81891190D01*
X129237621Y-82176905D01*
X129190002Y-82272143D01*
X129142383Y-82319762D01*
X129047145Y-82367381D01*
X128856668Y-82367381D01*
X128761430Y-82319762D01*
X130047145Y-82319762D02*
X129951907Y-82367381D01*
X129761430Y-82367381D01*
X129666192Y-82319762D01*
X129618573Y-82224524D01*
X129618573Y-81843571D01*
X129666192Y-81748333D01*
X129761430Y-81700714D01*
X129951907Y-81700714D01*
X130047145Y-81748333D01*
X130094764Y-81843571D01*
X130094764Y-81938810D01*
X129618573Y-82034048D01*
X131190002Y-81700714D02*
X131428097Y-82367381D01*
X131666193Y-81700714D01*
X132570955Y-82367381D02*
X131999526Y-82367381D01*
X132285240Y-82367381D02*
X132285240Y-81367381D01*
X132190002Y-81510238D01*
X132094764Y-81605476D01*
X131999526Y-81653095D01*
X132999526Y-82272143D02*
X133047145Y-82319762D01*
X132999526Y-82367381D01*
X132951907Y-82319762D01*
X132999526Y-82272143D01*
X132999526Y-82367381D01*
X133666192Y-81367381D02*
X133761431Y-81367381D01*
X133856669Y-81415000D01*
X133904288Y-81462619D01*
X133951907Y-81557857D01*
X133999526Y-81748333D01*
X133999526Y-81986429D01*
X133951907Y-82176905D01*
X133904288Y-82272143D01*
X133856669Y-82319762D01*
X133761431Y-82367381D01*
X133666192Y-82367381D01*
X133570954Y-82319762D01*
X133523335Y-82272143D01*
X133475716Y-82176905D01*
X133428097Y-81986429D01*
X133428097Y-81748333D01*
X133475716Y-81557857D01*
X133523335Y-81462619D01*
X133570954Y-81415000D01*
X133666192Y-81367381D01*
X120253095Y-129357381D02*
X120253095Y-128357381D01*
X120681667Y-129357381D02*
X120681667Y-128833571D01*
X120634048Y-128738333D01*
X120538810Y-128690714D01*
X120395952Y-128690714D01*
X120300714Y-128738333D01*
X120253095Y-128785952D01*
X121015000Y-128690714D02*
X121395952Y-128690714D01*
X121157857Y-128357381D02*
X121157857Y-129214524D01*
X121205476Y-129309762D01*
X121300714Y-129357381D01*
X121395952Y-129357381D01*
X121586429Y-128690714D02*
X121967381Y-128690714D01*
X121729286Y-128357381D02*
X121729286Y-129214524D01*
X121776905Y-129309762D01*
X121872143Y-129357381D01*
X121967381Y-129357381D01*
X122300715Y-128690714D02*
X122300715Y-129690714D01*
X122300715Y-128738333D02*
X122395953Y-128690714D01*
X122586430Y-128690714D01*
X122681668Y-128738333D01*
X122729287Y-128785952D01*
X122776906Y-128881190D01*
X122776906Y-129166905D01*
X122729287Y-129262143D01*
X122681668Y-129309762D01*
X122586430Y-129357381D01*
X122395953Y-129357381D01*
X122300715Y-129309762D01*
X123205477Y-129262143D02*
X123253096Y-129309762D01*
X123205477Y-129357381D01*
X123157858Y-129309762D01*
X123205477Y-129262143D01*
X123205477Y-129357381D01*
X123205477Y-128738333D02*
X123253096Y-128785952D01*
X123205477Y-128833571D01*
X123157858Y-128785952D01*
X123205477Y-128738333D01*
X123205477Y-128833571D01*
X124395953Y-128309762D02*
X123538810Y-129595476D01*
X125443572Y-128309762D02*
X124586429Y-129595476D01*
X125776905Y-128690714D02*
X125776905Y-129357381D01*
X125776905Y-128785952D02*
X125824524Y-128738333D01*
X125919762Y-128690714D01*
X126062620Y-128690714D01*
X126157858Y-128738333D01*
X126205477Y-128833571D01*
X126205477Y-129357381D01*
X126681667Y-129357381D02*
X126681667Y-128690714D01*
X126681667Y-128357381D02*
X126634048Y-128405000D01*
X126681667Y-128452619D01*
X126729286Y-128405000D01*
X126681667Y-128357381D01*
X126681667Y-128452619D01*
X127586429Y-129309762D02*
X127491191Y-129357381D01*
X127300714Y-129357381D01*
X127205476Y-129309762D01*
X127157857Y-129262143D01*
X127110238Y-129166905D01*
X127110238Y-128881190D01*
X127157857Y-128785952D01*
X127205476Y-128738333D01*
X127300714Y-128690714D01*
X127491191Y-128690714D01*
X127586429Y-128738333D01*
X128015000Y-129357381D02*
X128015000Y-128357381D01*
X128110238Y-128976429D02*
X128395953Y-129357381D01*
X128395953Y-128690714D02*
X128015000Y-129071667D01*
X128681667Y-128690714D02*
X129062619Y-128690714D01*
X128824524Y-128357381D02*
X128824524Y-129214524D01*
X128872143Y-129309762D01*
X128967381Y-129357381D01*
X129062619Y-129357381D01*
X129395953Y-129357381D02*
X129395953Y-128357381D01*
X129824525Y-129357381D02*
X129824525Y-128833571D01*
X129776906Y-128738333D01*
X129681668Y-128690714D01*
X129538810Y-128690714D01*
X129443572Y-128738333D01*
X129395953Y-128785952D01*
X130681668Y-129309762D02*
X130586430Y-129357381D01*
X130395953Y-129357381D01*
X130300715Y-129309762D01*
X130253096Y-129214524D01*
X130253096Y-128833571D01*
X130300715Y-128738333D01*
X130395953Y-128690714D01*
X130586430Y-128690714D01*
X130681668Y-128738333D01*
X130729287Y-128833571D01*
X130729287Y-128928810D01*
X130253096Y-129024048D01*
X131586430Y-129309762D02*
X131491192Y-129357381D01*
X131300715Y-129357381D01*
X131205477Y-129309762D01*
X131157858Y-129262143D01*
X131110239Y-129166905D01*
X131110239Y-128881190D01*
X131157858Y-128785952D01*
X131205477Y-128738333D01*
X131300715Y-128690714D01*
X131491192Y-128690714D01*
X131586430Y-128738333D01*
X132157858Y-129357381D02*
X132062620Y-129309762D01*
X132015001Y-129262143D01*
X131967382Y-129166905D01*
X131967382Y-128881190D01*
X132015001Y-128785952D01*
X132062620Y-128738333D01*
X132157858Y-128690714D01*
X132300716Y-128690714D01*
X132395954Y-128738333D01*
X132443573Y-128785952D01*
X132491192Y-128881190D01*
X132491192Y-129166905D01*
X132443573Y-129262143D01*
X132395954Y-129309762D01*
X132300716Y-129357381D01*
X132157858Y-129357381D01*
X133348335Y-129357381D02*
X133348335Y-128357381D01*
X133348335Y-129309762D02*
X133253097Y-129357381D01*
X133062620Y-129357381D01*
X132967382Y-129309762D01*
X132919763Y-129262143D01*
X132872144Y-129166905D01*
X132872144Y-128881190D01*
X132919763Y-128785952D01*
X132967382Y-128738333D01*
X133062620Y-128690714D01*
X133253097Y-128690714D01*
X133348335Y-128738333D01*
X134205478Y-129309762D02*
X134110240Y-129357381D01*
X133919763Y-129357381D01*
X133824525Y-129309762D01*
X133776906Y-129214524D01*
X133776906Y-128833571D01*
X133824525Y-128738333D01*
X133919763Y-128690714D01*
X134110240Y-128690714D01*
X134205478Y-128738333D01*
X134253097Y-128833571D01*
X134253097Y-128928810D01*
X133776906Y-129024048D01*
X134681668Y-129357381D02*
X134681668Y-128690714D01*
X134681668Y-128881190D02*
X134729287Y-128785952D01*
X134776906Y-128738333D01*
X134872144Y-128690714D01*
X134967383Y-128690714D01*
X135300716Y-129262143D02*
X135348335Y-129309762D01*
X135300716Y-129357381D01*
X135253097Y-129309762D01*
X135300716Y-129262143D01*
X135300716Y-129357381D01*
X136205478Y-129309762D02*
X136110240Y-129357381D01*
X135919763Y-129357381D01*
X135824525Y-129309762D01*
X135776906Y-129262143D01*
X135729287Y-129166905D01*
X135729287Y-128881190D01*
X135776906Y-128785952D01*
X135824525Y-128738333D01*
X135919763Y-128690714D01*
X136110240Y-128690714D01*
X136205478Y-128738333D01*
X136776906Y-129357381D02*
X136681668Y-129309762D01*
X136634049Y-129262143D01*
X136586430Y-129166905D01*
X136586430Y-128881190D01*
X136634049Y-128785952D01*
X136681668Y-128738333D01*
X136776906Y-128690714D01*
X136919764Y-128690714D01*
X137015002Y-128738333D01*
X137062621Y-128785952D01*
X137110240Y-128881190D01*
X137110240Y-129166905D01*
X137062621Y-129262143D01*
X137015002Y-129309762D01*
X136919764Y-129357381D01*
X136776906Y-129357381D01*
X137538811Y-129262143D02*
X137586430Y-129309762D01*
X137538811Y-129357381D01*
X137491192Y-129309762D01*
X137538811Y-129262143D01*
X137538811Y-129357381D01*
X138443573Y-128690714D02*
X138443573Y-129357381D01*
X138015001Y-128690714D02*
X138015001Y-129214524D01*
X138062620Y-129309762D01*
X138157858Y-129357381D01*
X138300716Y-129357381D01*
X138395954Y-129309762D01*
X138443573Y-129262143D01*
X138919763Y-129357381D02*
X138919763Y-128357381D01*
X139015001Y-128976429D02*
X139300716Y-129357381D01*
X139300716Y-128690714D02*
X138919763Y-129071667D01*
D12*
X97198571Y-110957857D02*
X96484286Y-111457857D01*
X97198571Y-111815000D02*
X95698571Y-111815000D01*
X95698571Y-111243572D01*
X95770000Y-111100714D01*
X95841429Y-111029286D01*
X95984286Y-110957857D01*
X96198571Y-110957857D01*
X96341429Y-111029286D01*
X96412857Y-111100714D01*
X96484286Y-111243572D01*
X96484286Y-111815000D01*
X95770000Y-109529286D02*
X95698571Y-109672143D01*
X95698571Y-109886429D01*
X95770000Y-110100714D01*
X95912857Y-110243572D01*
X96055714Y-110315000D01*
X96341429Y-110386429D01*
X96555714Y-110386429D01*
X96841429Y-110315000D01*
X96984286Y-110243572D01*
X97127143Y-110100714D01*
X97198571Y-109886429D01*
X97198571Y-109743572D01*
X97127143Y-109529286D01*
X97055714Y-109457857D01*
X96555714Y-109457857D01*
X96555714Y-109743572D01*
X96412857Y-108315000D02*
X96484286Y-108100714D01*
X96555714Y-108029286D01*
X96698571Y-107957857D01*
X96912857Y-107957857D01*
X97055714Y-108029286D01*
X97127143Y-108100714D01*
X97198571Y-108243572D01*
X97198571Y-108815000D01*
X95698571Y-108815000D01*
X95698571Y-108315000D01*
X95770000Y-108172143D01*
X95841429Y-108100714D01*
X95984286Y-108029286D01*
X96127143Y-108029286D01*
X96270000Y-108100714D01*
X96341429Y-108172143D01*
X96412857Y-108315000D01*
X96412857Y-108815000D01*
X97198571Y-105457857D02*
X97198571Y-106172143D01*
X95698571Y-106172143D01*
X96412857Y-104957857D02*
X96412857Y-104457857D01*
X97198571Y-104243571D02*
X97198571Y-104957857D01*
X95698571Y-104957857D01*
X95698571Y-104243571D01*
X97198571Y-103600714D02*
X95698571Y-103600714D01*
X95698571Y-103243571D01*
X95770000Y-103029286D01*
X95912857Y-102886428D01*
X96055714Y-102815000D01*
X96341429Y-102743571D01*
X96555714Y-102743571D01*
X96841429Y-102815000D01*
X96984286Y-102886428D01*
X97127143Y-103029286D01*
X97198571Y-103243571D01*
X97198571Y-103600714D01*
X72433571Y-111592857D02*
X71719286Y-112092857D01*
X72433571Y-112450000D02*
X70933571Y-112450000D01*
X70933571Y-111878572D01*
X71005000Y-111735714D01*
X71076429Y-111664286D01*
X71219286Y-111592857D01*
X71433571Y-111592857D01*
X71576429Y-111664286D01*
X71647857Y-111735714D01*
X71719286Y-111878572D01*
X71719286Y-112450000D01*
X71005000Y-110164286D02*
X70933571Y-110307143D01*
X70933571Y-110521429D01*
X71005000Y-110735714D01*
X71147857Y-110878572D01*
X71290714Y-110950000D01*
X71576429Y-111021429D01*
X71790714Y-111021429D01*
X72076429Y-110950000D01*
X72219286Y-110878572D01*
X72362143Y-110735714D01*
X72433571Y-110521429D01*
X72433571Y-110378572D01*
X72362143Y-110164286D01*
X72290714Y-110092857D01*
X71790714Y-110092857D01*
X71790714Y-110378572D01*
X71647857Y-108950000D02*
X71719286Y-108735714D01*
X71790714Y-108664286D01*
X71933571Y-108592857D01*
X72147857Y-108592857D01*
X72290714Y-108664286D01*
X72362143Y-108735714D01*
X72433571Y-108878572D01*
X72433571Y-109450000D01*
X70933571Y-109450000D01*
X70933571Y-108950000D01*
X71005000Y-108807143D01*
X71076429Y-108735714D01*
X71219286Y-108664286D01*
X71362143Y-108664286D01*
X71505000Y-108735714D01*
X71576429Y-108807143D01*
X71647857Y-108950000D01*
X71647857Y-109450000D01*
X72433571Y-106092857D02*
X72433571Y-106807143D01*
X70933571Y-106807143D01*
X71647857Y-105592857D02*
X71647857Y-105092857D01*
X72433571Y-104878571D02*
X72433571Y-105592857D01*
X70933571Y-105592857D01*
X70933571Y-104878571D01*
X72433571Y-104235714D02*
X70933571Y-104235714D01*
X70933571Y-103878571D01*
X71005000Y-103664286D01*
X71147857Y-103521428D01*
X71290714Y-103450000D01*
X71576429Y-103378571D01*
X71790714Y-103378571D01*
X72076429Y-103450000D01*
X72219286Y-103521428D01*
X72362143Y-103664286D01*
X72433571Y-103878571D01*
X72433571Y-104235714D01*
D11*
X64531905Y-87161667D02*
X65008096Y-87161667D01*
X64436667Y-87447381D02*
X64770000Y-86447381D01*
X65103334Y-87447381D01*
X67381429Y-86923571D02*
X67524286Y-86971190D01*
X67571905Y-87018810D01*
X67619524Y-87114048D01*
X67619524Y-87256905D01*
X67571905Y-87352143D01*
X67524286Y-87399762D01*
X67429048Y-87447381D01*
X67048095Y-87447381D01*
X67048095Y-86447381D01*
X67381429Y-86447381D01*
X67476667Y-86495000D01*
X67524286Y-86542619D01*
X67571905Y-86637857D01*
X67571905Y-86733095D01*
X67524286Y-86828333D01*
X67476667Y-86875952D01*
X67381429Y-86923571D01*
X67048095Y-86923571D01*
X70159524Y-87352143D02*
X70111905Y-87399762D01*
X69969048Y-87447381D01*
X69873810Y-87447381D01*
X69730952Y-87399762D01*
X69635714Y-87304524D01*
X69588095Y-87209286D01*
X69540476Y-87018810D01*
X69540476Y-86875952D01*
X69588095Y-86685476D01*
X69635714Y-86590238D01*
X69730952Y-86495000D01*
X69873810Y-86447381D01*
X69969048Y-86447381D01*
X70111905Y-86495000D01*
X70159524Y-86542619D01*
X70159524Y-82272143D02*
X70111905Y-82319762D01*
X69969048Y-82367381D01*
X69873810Y-82367381D01*
X69730952Y-82319762D01*
X69635714Y-82224524D01*
X69588095Y-82129286D01*
X69540476Y-81938810D01*
X69540476Y-81795952D01*
X69588095Y-81605476D01*
X69635714Y-81510238D01*
X69730952Y-81415000D01*
X69873810Y-81367381D01*
X69969048Y-81367381D01*
X70111905Y-81415000D01*
X70159524Y-81462619D01*
X67381429Y-81843571D02*
X67524286Y-81891190D01*
X67571905Y-81938810D01*
X67619524Y-82034048D01*
X67619524Y-82176905D01*
X67571905Y-82272143D01*
X67524286Y-82319762D01*
X67429048Y-82367381D01*
X67048095Y-82367381D01*
X67048095Y-81367381D01*
X67381429Y-81367381D01*
X67476667Y-81415000D01*
X67524286Y-81462619D01*
X67571905Y-81557857D01*
X67571905Y-81653095D01*
X67524286Y-81748333D01*
X67476667Y-81795952D01*
X67381429Y-81843571D01*
X67048095Y-81843571D01*
X64531905Y-82081667D02*
X65008096Y-82081667D01*
X64436667Y-82367381D02*
X64770000Y-81367381D01*
X65103334Y-82367381D01*
X94924524Y-87352143D02*
X94876905Y-87399762D01*
X94734048Y-87447381D01*
X94638810Y-87447381D01*
X94495952Y-87399762D01*
X94400714Y-87304524D01*
X94353095Y-87209286D01*
X94305476Y-87018810D01*
X94305476Y-86875952D01*
X94353095Y-86685476D01*
X94400714Y-86590238D01*
X94495952Y-86495000D01*
X94638810Y-86447381D01*
X94734048Y-86447381D01*
X94876905Y-86495000D01*
X94924524Y-86542619D01*
X92146429Y-86923571D02*
X92289286Y-86971190D01*
X92336905Y-87018810D01*
X92384524Y-87114048D01*
X92384524Y-87256905D01*
X92336905Y-87352143D01*
X92289286Y-87399762D01*
X92194048Y-87447381D01*
X91813095Y-87447381D01*
X91813095Y-86447381D01*
X92146429Y-86447381D01*
X92241667Y-86495000D01*
X92289286Y-86542619D01*
X92336905Y-86637857D01*
X92336905Y-86733095D01*
X92289286Y-86828333D01*
X92241667Y-86875952D01*
X92146429Y-86923571D01*
X91813095Y-86923571D01*
X89296905Y-87161667D02*
X89773096Y-87161667D01*
X89201667Y-87447381D02*
X89535000Y-86447381D01*
X89868334Y-87447381D01*
X94924524Y-82272143D02*
X94876905Y-82319762D01*
X94734048Y-82367381D01*
X94638810Y-82367381D01*
X94495952Y-82319762D01*
X94400714Y-82224524D01*
X94353095Y-82129286D01*
X94305476Y-81938810D01*
X94305476Y-81795952D01*
X94353095Y-81605476D01*
X94400714Y-81510238D01*
X94495952Y-81415000D01*
X94638810Y-81367381D01*
X94734048Y-81367381D01*
X94876905Y-81415000D01*
X94924524Y-81462619D01*
X92146429Y-81843571D02*
X92289286Y-81891190D01*
X92336905Y-81938810D01*
X92384524Y-82034048D01*
X92384524Y-82176905D01*
X92336905Y-82272143D01*
X92289286Y-82319762D01*
X92194048Y-82367381D01*
X91813095Y-82367381D01*
X91813095Y-81367381D01*
X92146429Y-81367381D01*
X92241667Y-81415000D01*
X92289286Y-81462619D01*
X92336905Y-81557857D01*
X92336905Y-81653095D01*
X92289286Y-81748333D01*
X92241667Y-81795952D01*
X92146429Y-81843571D01*
X91813095Y-81843571D01*
X89296905Y-82081667D02*
X89773096Y-82081667D01*
X89201667Y-82367381D02*
X89535000Y-81367381D01*
X89868334Y-82367381D01*
X87256905Y-86495000D02*
X87161667Y-86447381D01*
X87018810Y-86447381D01*
X86875952Y-86495000D01*
X86780714Y-86590238D01*
X86733095Y-86685476D01*
X86685476Y-86875952D01*
X86685476Y-87018810D01*
X86733095Y-87209286D01*
X86780714Y-87304524D01*
X86875952Y-87399762D01*
X87018810Y-87447381D01*
X87114048Y-87447381D01*
X87256905Y-87399762D01*
X87304524Y-87352143D01*
X87304524Y-87018810D01*
X87114048Y-87018810D01*
D12*
X61658572Y-82022143D02*
X62801429Y-82022143D01*
X62230000Y-82593571D02*
X62230000Y-81450714D01*
D11*
X86233096Y-81415000D02*
X86137858Y-81367381D01*
X85995001Y-81367381D01*
X85852143Y-81415000D01*
X85756905Y-81510238D01*
X85709286Y-81605476D01*
X85661667Y-81795952D01*
X85661667Y-81938810D01*
X85709286Y-82129286D01*
X85756905Y-82224524D01*
X85852143Y-82319762D01*
X85995001Y-82367381D01*
X86090239Y-82367381D01*
X86233096Y-82319762D01*
X86280715Y-82272143D01*
X86280715Y-81938810D01*
X86090239Y-81938810D01*
X86709286Y-82367381D02*
X86709286Y-81367381D01*
X87280715Y-82367381D01*
X87280715Y-81367381D01*
X87756905Y-82367381D02*
X87756905Y-81367381D01*
X87995000Y-81367381D01*
X88137858Y-81415000D01*
X88233096Y-81510238D01*
X88280715Y-81605476D01*
X88328334Y-81795952D01*
X88328334Y-81938810D01*
X88280715Y-82129286D01*
X88233096Y-82224524D01*
X88137858Y-82319762D01*
X87995000Y-82367381D01*
X87756905Y-82367381D01*
D12*
X62293572Y-123297143D02*
X63436429Y-123297143D01*
X62865000Y-123868571D02*
X62865000Y-122725714D01*
X61658572Y-87102143D02*
X62801429Y-87102143D01*
X62230000Y-87673571D02*
X62230000Y-86530714D01*
D11*
X78740000Y-81280000D02*
X78740000Y-129540000D01*
D14*
X116205000Y-35620000D02*
X144205000Y-35620000D01*
X144205000Y-35620000D02*
X144205000Y-32960000D01*
X144205000Y-32960000D02*
X116205000Y-32960000D01*
X116205000Y-32960000D02*
X116205000Y-35620000D01*
X114935000Y-35620000D02*
X113605000Y-35620000D01*
X113605000Y-35620000D02*
X113605000Y-34290000D01*
X148530000Y-42545000D02*
X148530000Y-70545000D01*
X148530000Y-70545000D02*
X151190000Y-70545000D01*
X151190000Y-70545000D02*
X151190000Y-42545000D01*
X151190000Y-42545000D02*
X148530000Y-42545000D01*
X148530000Y-41275000D02*
X148530000Y-39945000D01*
X148530000Y-39945000D02*
X149860000Y-39945000D01*
X141605000Y-74870000D02*
X113605000Y-74870000D01*
X113605000Y-74870000D02*
X113605000Y-77530000D01*
X113605000Y-77530000D02*
X141605000Y-77530000D01*
X141605000Y-77530000D02*
X141605000Y-74870000D01*
X142875000Y-74870000D02*
X144205000Y-74870000D01*
X144205000Y-74870000D02*
X144205000Y-76200000D01*
X56455000Y-70545000D02*
X59115000Y-70545000D01*
X56455000Y-42545000D02*
X56455000Y-70545000D01*
X59115000Y-42545000D02*
X59115000Y-70545000D01*
X56455000Y-42545000D02*
X59115000Y-42545000D01*
X56455000Y-41275000D02*
X56455000Y-39945000D01*
X56455000Y-39945000D02*
X57785000Y-39945000D01*
X72965000Y-42545000D02*
X72965000Y-70545000D01*
X72965000Y-70545000D02*
X75625000Y-70545000D01*
X75625000Y-70545000D02*
X75625000Y-42545000D01*
X75625000Y-42545000D02*
X72965000Y-42545000D01*
X72965000Y-41275000D02*
X72965000Y-39945000D01*
X72965000Y-39945000D02*
X74295000Y-39945000D01*
X67950000Y-42780000D02*
X67950000Y-41520000D01*
X67950000Y-35960000D02*
X67950000Y-37220000D01*
X64190000Y-42780000D02*
X67950000Y-42780000D01*
X61940000Y-35960000D02*
X67950000Y-35960000D01*
X72520000Y-47455000D02*
X69720000Y-47455000D01*
X69720000Y-47455000D02*
X69720000Y-70655000D01*
X69720000Y-70655000D02*
X72520000Y-70655000D01*
X72520000Y-70655000D02*
X72520000Y-47455000D01*
X72520000Y-50165000D02*
X69720000Y-50165000D01*
X62740000Y-49855000D02*
X62740000Y-50785000D01*
X62740000Y-53015000D02*
X62740000Y-52085000D01*
X62740000Y-53015000D02*
X64900000Y-53015000D01*
X62740000Y-49855000D02*
X64200000Y-49855000D01*
X67185000Y-52395000D02*
X67185000Y-53325000D01*
X67185000Y-55555000D02*
X67185000Y-54625000D01*
X67185000Y-55555000D02*
X69345000Y-55555000D01*
X67185000Y-52395000D02*
X68645000Y-52395000D01*
X62740000Y-54935000D02*
X62740000Y-55865000D01*
X62740000Y-58095000D02*
X62740000Y-57165000D01*
X62740000Y-58095000D02*
X64900000Y-58095000D01*
X62740000Y-54935000D02*
X64200000Y-54935000D01*
X67185000Y-57475000D02*
X67185000Y-58405000D01*
X67185000Y-60635000D02*
X67185000Y-59705000D01*
X67185000Y-60635000D02*
X69345000Y-60635000D01*
X67185000Y-57475000D02*
X68645000Y-57475000D01*
X62740000Y-60015000D02*
X62740000Y-60945000D01*
X62740000Y-63175000D02*
X62740000Y-62245000D01*
X62740000Y-63175000D02*
X64900000Y-63175000D01*
X62740000Y-60015000D02*
X64200000Y-60015000D01*
X67185000Y-62555000D02*
X67185000Y-63485000D01*
X67185000Y-65715000D02*
X67185000Y-64785000D01*
X67185000Y-65715000D02*
X69345000Y-65715000D01*
X67185000Y-62555000D02*
X68645000Y-62555000D01*
X62740000Y-65095000D02*
X62740000Y-66025000D01*
X62740000Y-68255000D02*
X62740000Y-67325000D01*
X62740000Y-68255000D02*
X64900000Y-68255000D01*
X62740000Y-65095000D02*
X64200000Y-65095000D01*
X67185000Y-67635000D02*
X67185000Y-68565000D01*
X67185000Y-70795000D02*
X67185000Y-69865000D01*
X67185000Y-70795000D02*
X69345000Y-70795000D01*
X67185000Y-67635000D02*
X68645000Y-67635000D01*
X92650000Y-70545000D02*
X95310000Y-70545000D01*
X92650000Y-52705000D02*
X92650000Y-70545000D01*
X95310000Y-52705000D02*
X95310000Y-70545000D01*
X92650000Y-52705000D02*
X95310000Y-52705000D01*
X92650000Y-51435000D02*
X92650000Y-50105000D01*
X92650000Y-50105000D02*
X93980000Y-50105000D01*
X87570000Y-70545000D02*
X90230000Y-70545000D01*
X87570000Y-52705000D02*
X87570000Y-70545000D01*
X90230000Y-52705000D02*
X90230000Y-70545000D01*
X87570000Y-52705000D02*
X90230000Y-52705000D01*
X87570000Y-51435000D02*
X87570000Y-50105000D01*
X87570000Y-50105000D02*
X88900000Y-50105000D01*
X90110000Y-70545000D02*
X92770000Y-70545000D01*
X90110000Y-52705000D02*
X90110000Y-70545000D01*
X92770000Y-52705000D02*
X92770000Y-70545000D01*
X90110000Y-52705000D02*
X92770000Y-52705000D01*
X90110000Y-51435000D02*
X90110000Y-50105000D01*
X90110000Y-50105000D02*
X91440000Y-50105000D01*
X81855000Y-70545000D02*
X84515000Y-70545000D01*
X81855000Y-42545000D02*
X81855000Y-70545000D01*
X84515000Y-42545000D02*
X84515000Y-70545000D01*
X81855000Y-42545000D02*
X84515000Y-42545000D01*
X81855000Y-41275000D02*
X81855000Y-39945000D01*
X81855000Y-39945000D02*
X83185000Y-39945000D01*
X98365000Y-42545000D02*
X98365000Y-70545000D01*
X98365000Y-70545000D02*
X101025000Y-70545000D01*
X101025000Y-70545000D02*
X101025000Y-42545000D01*
X101025000Y-42545000D02*
X98365000Y-42545000D01*
X98365000Y-41275000D02*
X98365000Y-39945000D01*
X98365000Y-39945000D02*
X99695000Y-39945000D01*
X61725000Y-47455000D02*
X58925000Y-47455000D01*
X58925000Y-47455000D02*
X58925000Y-70655000D01*
X58925000Y-70655000D02*
X61725000Y-70655000D01*
X61725000Y-70655000D02*
X61725000Y-47455000D01*
X61725000Y-50165000D02*
X58925000Y-50165000D01*
D15*
X95539560Y-73736200D02*
X87340440Y-73736200D01*
X95539560Y-74134980D02*
X87340440Y-74134980D01*
X95539560Y-79435960D02*
X87340440Y-79435960D01*
X87340440Y-79933800D02*
X95539560Y-79933800D01*
X92740480Y-79435960D02*
X92740480Y-79933800D01*
X87541100Y-79933800D02*
X87541100Y-79435960D01*
X95341440Y-79435960D02*
X95341440Y-79933800D01*
X90142060Y-79933800D02*
X90142060Y-79435960D01*
X95539560Y-79933800D02*
X95539560Y-73736200D01*
X87342980Y-73736200D02*
X87342980Y-79933800D01*
D14*
X92650000Y-73085000D02*
X95310000Y-73085000D01*
X92650000Y-73025000D02*
X92650000Y-73085000D01*
X95310000Y-73025000D02*
X95310000Y-73085000D01*
X92650000Y-73025000D02*
X95310000Y-73025000D01*
X92650000Y-71755000D02*
X92650000Y-70425000D01*
X92650000Y-70425000D02*
X93980000Y-70425000D01*
X92650000Y-50225000D02*
X95310000Y-50225000D01*
X92650000Y-50165000D02*
X92650000Y-50225000D01*
X95310000Y-50165000D02*
X95310000Y-50225000D01*
X92650000Y-50165000D02*
X95310000Y-50165000D01*
X92650000Y-48895000D02*
X92650000Y-47565000D01*
X92650000Y-47565000D02*
X93980000Y-47565000D01*
D15*
X95539560Y-35636200D02*
X87340440Y-35636200D01*
X95539560Y-36034980D02*
X87340440Y-36034980D01*
X95539560Y-41335960D02*
X87340440Y-41335960D01*
X87340440Y-41833800D02*
X95539560Y-41833800D01*
X92740480Y-41335960D02*
X92740480Y-41833800D01*
X87541100Y-41833800D02*
X87541100Y-41335960D01*
X95341440Y-41335960D02*
X95341440Y-41833800D01*
X90142060Y-41833800D02*
X90142060Y-41335960D01*
X95539560Y-41833800D02*
X95539560Y-35636200D01*
X87342980Y-35636200D02*
X87342980Y-41833800D01*
D14*
X148530000Y-92710000D02*
X148530000Y-120710000D01*
X148530000Y-120710000D02*
X151190000Y-120710000D01*
X151190000Y-120710000D02*
X151190000Y-92710000D01*
X151190000Y-92710000D02*
X148530000Y-92710000D01*
X148530000Y-91440000D02*
X148530000Y-90110000D01*
X148530000Y-90110000D02*
X149860000Y-90110000D01*
X105985000Y-120710000D02*
X108645000Y-120710000D01*
X105985000Y-92710000D02*
X105985000Y-120710000D01*
X108645000Y-92710000D02*
X108645000Y-120710000D01*
X105985000Y-92710000D02*
X108645000Y-92710000D01*
X105985000Y-91440000D02*
X105985000Y-90110000D01*
X105985000Y-90110000D02*
X107315000Y-90110000D01*
X144205000Y-85150000D02*
X144205000Y-82490000D01*
X116205000Y-85150000D02*
X144205000Y-85150000D01*
X116205000Y-82490000D02*
X144205000Y-82490000D01*
X116205000Y-85150000D02*
X116205000Y-82490000D01*
X114935000Y-85150000D02*
X113605000Y-85150000D01*
X113605000Y-85150000D02*
X113605000Y-83820000D01*
X141605000Y-125670000D02*
X113605000Y-125670000D01*
X113605000Y-125670000D02*
X113605000Y-128330000D01*
X113605000Y-128330000D02*
X141605000Y-128330000D01*
X141605000Y-128330000D02*
X141605000Y-125670000D01*
X142875000Y-125670000D02*
X144205000Y-125670000D01*
X144205000Y-125670000D02*
X144205000Y-127000000D01*
X87305000Y-88140000D02*
X86375000Y-88140000D01*
X84145000Y-88140000D02*
X85075000Y-88140000D01*
X84145000Y-88140000D02*
X84145000Y-90300000D01*
X87305000Y-88140000D02*
X87305000Y-89600000D01*
X64195000Y-105350000D02*
X61535000Y-105350000D01*
X64195000Y-110490000D02*
X64195000Y-105350000D01*
X61535000Y-110490000D02*
X61535000Y-105350000D01*
X64195000Y-110490000D02*
X61535000Y-110490000D01*
X64195000Y-111760000D02*
X64195000Y-113090000D01*
X64195000Y-113090000D02*
X62865000Y-113090000D01*
X56455000Y-120710000D02*
X59115000Y-120710000D01*
X56455000Y-92710000D02*
X56455000Y-120710000D01*
X59115000Y-92710000D02*
X59115000Y-120710000D01*
X56455000Y-92710000D02*
X59115000Y-92710000D01*
X56455000Y-91440000D02*
X56455000Y-90110000D01*
X56455000Y-90110000D02*
X57785000Y-90110000D01*
X81220000Y-120710000D02*
X83880000Y-120710000D01*
X81220000Y-92710000D02*
X81220000Y-120710000D01*
X83880000Y-92710000D02*
X83880000Y-120710000D01*
X81220000Y-92710000D02*
X83880000Y-92710000D01*
X81220000Y-91440000D02*
X81220000Y-90110000D01*
X81220000Y-90110000D02*
X82550000Y-90110000D01*
X73600000Y-92710000D02*
X73600000Y-120710000D01*
X73600000Y-120710000D02*
X76260000Y-120710000D01*
X76260000Y-120710000D02*
X76260000Y-92710000D01*
X76260000Y-92710000D02*
X73600000Y-92710000D01*
X73600000Y-91440000D02*
X73600000Y-90110000D01*
X73600000Y-90110000D02*
X74930000Y-90110000D01*
X98365000Y-92710000D02*
X98365000Y-120710000D01*
X98365000Y-120710000D02*
X101025000Y-120710000D01*
X101025000Y-120710000D02*
X101025000Y-92710000D01*
X101025000Y-92710000D02*
X98365000Y-92710000D01*
X98365000Y-91440000D02*
X98365000Y-90110000D01*
X98365000Y-90110000D02*
X99695000Y-90110000D01*
X71180000Y-85785000D02*
X71180000Y-83125000D01*
X63500000Y-85785000D02*
X71180000Y-85785000D01*
X63500000Y-83125000D02*
X71180000Y-83125000D01*
X63500000Y-85785000D02*
X63500000Y-83125000D01*
X62230000Y-85785000D02*
X60900000Y-85785000D01*
X60900000Y-85785000D02*
X60900000Y-84455000D01*
X58995000Y-120710000D02*
X61655000Y-120710000D01*
X58995000Y-102870000D02*
X58995000Y-120710000D01*
X61655000Y-102870000D02*
X61655000Y-120710000D01*
X58995000Y-102870000D02*
X61655000Y-102870000D01*
X58995000Y-101600000D02*
X58995000Y-100270000D01*
X58995000Y-100270000D02*
X60325000Y-100270000D01*
X72065000Y-90045000D02*
X71135000Y-90045000D01*
X68905000Y-90045000D02*
X69835000Y-90045000D01*
X68905000Y-90045000D02*
X68905000Y-92205000D01*
X72065000Y-90045000D02*
X72065000Y-91505000D01*
X67620000Y-90045000D02*
X66690000Y-90045000D01*
X64460000Y-90045000D02*
X65390000Y-90045000D01*
X64460000Y-90045000D02*
X64460000Y-92205000D01*
X67620000Y-90045000D02*
X67620000Y-91505000D01*
X63175000Y-90045000D02*
X62245000Y-90045000D01*
X60015000Y-90045000D02*
X60945000Y-90045000D01*
X60015000Y-90045000D02*
X60015000Y-92205000D01*
X63175000Y-90045000D02*
X63175000Y-91505000D01*
X70565000Y-92670000D02*
X70565000Y-102910000D01*
X65924000Y-92670000D02*
X65924000Y-102910000D01*
X70565000Y-92670000D02*
X65924000Y-92670000D01*
X70565000Y-102910000D02*
X65924000Y-102910000D01*
X69055000Y-92670000D02*
X69055000Y-102910000D01*
X70565000Y-95940000D02*
X69055000Y-95940000D01*
X70565000Y-99641000D02*
X69055000Y-99641000D01*
X70565000Y-102830000D02*
X70565000Y-113070000D01*
X65924000Y-102830000D02*
X65924000Y-113070000D01*
X70565000Y-102830000D02*
X65924000Y-102830000D01*
X70565000Y-113070000D02*
X65924000Y-113070000D01*
X69055000Y-102830000D02*
X69055000Y-113070000D01*
X70565000Y-106100000D02*
X69055000Y-106100000D01*
X70565000Y-109801000D02*
X69055000Y-109801000D01*
X70565000Y-112990000D02*
X70565000Y-123230000D01*
X65924000Y-112990000D02*
X65924000Y-123230000D01*
X70565000Y-112990000D02*
X65924000Y-112990000D01*
X70565000Y-123230000D02*
X65924000Y-123230000D01*
X69055000Y-112990000D02*
X69055000Y-123230000D01*
X70565000Y-116260000D02*
X69055000Y-116260000D01*
X70565000Y-119961000D02*
X69055000Y-119961000D01*
X71815000Y-127695000D02*
X71815000Y-125035000D01*
X64135000Y-127695000D02*
X71815000Y-127695000D01*
X64135000Y-125035000D02*
X71815000Y-125035000D01*
X64135000Y-127695000D02*
X64135000Y-125035000D01*
X62865000Y-127695000D02*
X61535000Y-127695000D01*
X61535000Y-127695000D02*
X61535000Y-126365000D01*
X83760000Y-120710000D02*
X86420000Y-120710000D01*
X83760000Y-102870000D02*
X83760000Y-120710000D01*
X86420000Y-102870000D02*
X86420000Y-120710000D01*
X83760000Y-102870000D02*
X86420000Y-102870000D01*
X83760000Y-101600000D02*
X83760000Y-100270000D01*
X83760000Y-100270000D02*
X85090000Y-100270000D01*
X86300000Y-113090000D02*
X88960000Y-113090000D01*
X86300000Y-107950000D02*
X86300000Y-113090000D01*
X88960000Y-107950000D02*
X88960000Y-113090000D01*
X86300000Y-107950000D02*
X88960000Y-107950000D01*
X86300000Y-106680000D02*
X86300000Y-105350000D01*
X86300000Y-105350000D02*
X87630000Y-105350000D01*
X95945000Y-85785000D02*
X95945000Y-83125000D01*
X88265000Y-85785000D02*
X95945000Y-85785000D01*
X88265000Y-83125000D02*
X95945000Y-83125000D01*
X88265000Y-85785000D02*
X88265000Y-83125000D01*
X86995000Y-85785000D02*
X85665000Y-85785000D01*
X85665000Y-85785000D02*
X85665000Y-84455000D01*
X92385000Y-88140000D02*
X91455000Y-88140000D01*
X89225000Y-88140000D02*
X90155000Y-88140000D01*
X89225000Y-88140000D02*
X89225000Y-90300000D01*
X92385000Y-88140000D02*
X92385000Y-89600000D01*
X97465000Y-88140000D02*
X96535000Y-88140000D01*
X94305000Y-88140000D02*
X95235000Y-88140000D01*
X94305000Y-88140000D02*
X94305000Y-90300000D01*
X97465000Y-88140000D02*
X97465000Y-89600000D01*
X84285000Y-92580000D02*
X84285000Y-95380000D01*
X84285000Y-95380000D02*
X97325000Y-95380000D01*
X97325000Y-95380000D02*
X97325000Y-92580000D01*
X97325000Y-92580000D02*
X84285000Y-92580000D01*
X86995000Y-92580000D02*
X86995000Y-95380000D01*
X88575000Y-97030000D02*
X87645000Y-97030000D01*
X85415000Y-97030000D02*
X86345000Y-97030000D01*
X85415000Y-97030000D02*
X85415000Y-99190000D01*
X88575000Y-97030000D02*
X88575000Y-98490000D01*
X93020000Y-97030000D02*
X92090000Y-97030000D01*
X89860000Y-97030000D02*
X90790000Y-97030000D01*
X89860000Y-97030000D02*
X89860000Y-99190000D01*
X93020000Y-97030000D02*
X93020000Y-98490000D01*
X97465000Y-97030000D02*
X96535000Y-97030000D01*
X94305000Y-97030000D02*
X95235000Y-97030000D01*
X94305000Y-97030000D02*
X94305000Y-99190000D01*
X97465000Y-97030000D02*
X97465000Y-98490000D01*
D15*
X96972381Y-61825000D02*
X95972381Y-61825000D01*
X95972381Y-61586905D01*
X96020000Y-61444047D01*
X96115238Y-61348809D01*
X96210476Y-61301190D01*
X96400952Y-61253571D01*
X96543810Y-61253571D01*
X96734286Y-61301190D01*
X96829524Y-61348809D01*
X96924762Y-61444047D01*
X96972381Y-61586905D01*
X96972381Y-61825000D01*
X96686667Y-60872619D02*
X96686667Y-60396428D01*
X96972381Y-60967857D02*
X95972381Y-60634524D01*
X96972381Y-60301190D01*
X95972381Y-60110714D02*
X95972381Y-59539285D01*
X96972381Y-59825000D02*
X95972381Y-59825000D01*
X96686667Y-59253571D02*
X96686667Y-58777380D01*
X96972381Y-59348809D02*
X95972381Y-59015476D01*
X96972381Y-58682142D01*
X88400000Y-48386904D02*
X88352381Y-48482142D01*
X88352381Y-48624999D01*
X88400000Y-48767857D01*
X88495238Y-48863095D01*
X88590476Y-48910714D01*
X88780952Y-48958333D01*
X88923810Y-48958333D01*
X89114286Y-48910714D01*
X89209524Y-48863095D01*
X89304762Y-48767857D01*
X89352381Y-48624999D01*
X89352381Y-48529761D01*
X89304762Y-48386904D01*
X89257143Y-48339285D01*
X88923810Y-48339285D01*
X88923810Y-48529761D01*
X89352381Y-47910714D02*
X88352381Y-47910714D01*
X89352381Y-47339285D01*
X88352381Y-47339285D01*
X89352381Y-46863095D02*
X88352381Y-46863095D01*
X88352381Y-46625000D01*
X88400000Y-46482142D01*
X88495238Y-46386904D01*
X88590476Y-46339285D01*
X88780952Y-46291666D01*
X88923810Y-46291666D01*
X89114286Y-46339285D01*
X89209524Y-46386904D01*
X89304762Y-46482142D01*
X89352381Y-46625000D01*
X89352381Y-46863095D01*
X90892381Y-48958333D02*
X91892381Y-48625000D01*
X90892381Y-48291666D01*
X91797143Y-47386904D02*
X91844762Y-47434523D01*
X91892381Y-47577380D01*
X91892381Y-47672618D01*
X91844762Y-47815476D01*
X91749524Y-47910714D01*
X91654286Y-47958333D01*
X91463810Y-48005952D01*
X91320952Y-48005952D01*
X91130476Y-47958333D01*
X91035238Y-47910714D01*
X90940000Y-47815476D01*
X90892381Y-47672618D01*
X90892381Y-47577380D01*
X90940000Y-47434523D01*
X90987619Y-47386904D01*
X91797143Y-46386904D02*
X91844762Y-46434523D01*
X91892381Y-46577380D01*
X91892381Y-46672618D01*
X91844762Y-46815476D01*
X91749524Y-46910714D01*
X91654286Y-46958333D01*
X91463810Y-47005952D01*
X91320952Y-47005952D01*
X91130476Y-46958333D01*
X91035238Y-46910714D01*
X90940000Y-46815476D01*
X90892381Y-46672618D01*
X90892381Y-46577380D01*
X90940000Y-46434523D01*
X90987619Y-46386904D01*
X88177619Y-91376428D02*
X88130000Y-91471666D01*
X88034762Y-91566904D01*
X87891905Y-91709761D01*
X87844286Y-91805000D01*
X87844286Y-91900238D01*
X88082381Y-91852619D02*
X88034762Y-91947857D01*
X87939524Y-92043095D01*
X87749048Y-92090714D01*
X87415714Y-92090714D01*
X87225238Y-92043095D01*
X87130000Y-91947857D01*
X87082381Y-91852619D01*
X87082381Y-91662142D01*
X87130000Y-91566904D01*
X87225238Y-91471666D01*
X87415714Y-91424047D01*
X87749048Y-91424047D01*
X87939524Y-91471666D01*
X88034762Y-91566904D01*
X88082381Y-91662142D01*
X88082381Y-91852619D01*
X88082381Y-90471666D02*
X88082381Y-91043095D01*
X88082381Y-90757381D02*
X87082381Y-90757381D01*
X87225238Y-90852619D01*
X87320476Y-90947857D01*
X87368095Y-91043095D01*
X87082381Y-89852619D02*
X87082381Y-89757380D01*
X87130000Y-89662142D01*
X87177619Y-89614523D01*
X87272857Y-89566904D01*
X87463333Y-89519285D01*
X87701429Y-89519285D01*
X87891905Y-89566904D01*
X87987143Y-89614523D01*
X88034762Y-89662142D01*
X88082381Y-89757380D01*
X88082381Y-89852619D01*
X88034762Y-89947857D01*
X87987143Y-89995476D01*
X87891905Y-90043095D01*
X87701429Y-90090714D01*
X87463333Y-90090714D01*
X87272857Y-90043095D01*
X87177619Y-89995476D01*
X87130000Y-89947857D01*
X87082381Y-89852619D01*
X63269762Y-104354048D02*
X63317381Y-104211191D01*
X63317381Y-103973095D01*
X63269762Y-103877857D01*
X63222143Y-103830238D01*
X63126905Y-103782619D01*
X63031667Y-103782619D01*
X62936429Y-103830238D01*
X62888810Y-103877857D01*
X62841190Y-103973095D01*
X62793571Y-104163572D01*
X62745952Y-104258810D01*
X62698333Y-104306429D01*
X62603095Y-104354048D01*
X62507857Y-104354048D01*
X62412619Y-104306429D01*
X62365000Y-104258810D01*
X62317381Y-104163572D01*
X62317381Y-103925476D01*
X62365000Y-103782619D01*
X63269762Y-102973095D02*
X63317381Y-103068333D01*
X63317381Y-103258810D01*
X63269762Y-103354048D01*
X63174524Y-103401667D01*
X62793571Y-103401667D01*
X62698333Y-103354048D01*
X62650714Y-103258810D01*
X62650714Y-103068333D01*
X62698333Y-102973095D01*
X62793571Y-102925476D01*
X62888810Y-102925476D01*
X62984048Y-103401667D01*
X63317381Y-102354048D02*
X63269762Y-102449286D01*
X63174524Y-102496905D01*
X62317381Y-102496905D01*
X63269762Y-101592142D02*
X63317381Y-101687380D01*
X63317381Y-101877857D01*
X63269762Y-101973095D01*
X63174524Y-102020714D01*
X62793571Y-102020714D01*
X62698333Y-101973095D01*
X62650714Y-101877857D01*
X62650714Y-101687380D01*
X62698333Y-101592142D01*
X62793571Y-101544523D01*
X62888810Y-101544523D01*
X62984048Y-102020714D01*
X63269762Y-100687380D02*
X63317381Y-100782618D01*
X63317381Y-100973095D01*
X63269762Y-101068333D01*
X63222143Y-101115952D01*
X63126905Y-101163571D01*
X62841190Y-101163571D01*
X62745952Y-101115952D01*
X62698333Y-101068333D01*
X62650714Y-100973095D01*
X62650714Y-100782618D01*
X62698333Y-100687380D01*
X62650714Y-100401666D02*
X62650714Y-100020714D01*
X62317381Y-100258809D02*
X63174524Y-100258809D01*
X63269762Y-100211190D01*
X63317381Y-100115952D01*
X63317381Y-100020714D01*
X60682143Y-98845476D02*
X60729762Y-98893095D01*
X60777381Y-99035952D01*
X60777381Y-99131190D01*
X60729762Y-99274048D01*
X60634524Y-99369286D01*
X60539286Y-99416905D01*
X60348810Y-99464524D01*
X60205952Y-99464524D01*
X60015476Y-99416905D01*
X59920238Y-99369286D01*
X59825000Y-99274048D01*
X59777381Y-99131190D01*
X59777381Y-99035952D01*
X59825000Y-98893095D01*
X59872619Y-98845476D01*
X60777381Y-98416905D02*
X59777381Y-98416905D01*
X60777381Y-97988333D02*
X60253571Y-97988333D01*
X60158333Y-98035952D01*
X60110714Y-98131190D01*
X60110714Y-98274048D01*
X60158333Y-98369286D01*
X60205952Y-98416905D01*
X60777381Y-97369286D02*
X60729762Y-97464524D01*
X60682143Y-97512143D01*
X60586905Y-97559762D01*
X60301190Y-97559762D01*
X60205952Y-97512143D01*
X60158333Y-97464524D01*
X60110714Y-97369286D01*
X60110714Y-97226428D01*
X60158333Y-97131190D01*
X60205952Y-97083571D01*
X60301190Y-97035952D01*
X60586905Y-97035952D01*
X60682143Y-97083571D01*
X60729762Y-97131190D01*
X60777381Y-97226428D01*
X60777381Y-97369286D01*
X60777381Y-96607381D02*
X60110714Y-96607381D01*
X59777381Y-96607381D02*
X59825000Y-96655000D01*
X59872619Y-96607381D01*
X59825000Y-96559762D01*
X59777381Y-96607381D01*
X59872619Y-96607381D01*
X60729762Y-95702619D02*
X60777381Y-95797857D01*
X60777381Y-95988334D01*
X60729762Y-96083572D01*
X60682143Y-96131191D01*
X60586905Y-96178810D01*
X60301190Y-96178810D01*
X60205952Y-96131191D01*
X60158333Y-96083572D01*
X60110714Y-95988334D01*
X60110714Y-95797857D01*
X60158333Y-95702619D01*
X60729762Y-94893095D02*
X60777381Y-94988333D01*
X60777381Y-95178810D01*
X60729762Y-95274048D01*
X60634524Y-95321667D01*
X60253571Y-95321667D01*
X60158333Y-95274048D01*
X60110714Y-95178810D01*
X60110714Y-94988333D01*
X60158333Y-94893095D01*
X60253571Y-94845476D01*
X60348810Y-94845476D01*
X60444048Y-95321667D01*
X84812143Y-98845476D02*
X84859762Y-98893095D01*
X84907381Y-99035952D01*
X84907381Y-99131190D01*
X84859762Y-99274048D01*
X84764524Y-99369286D01*
X84669286Y-99416905D01*
X84478810Y-99464524D01*
X84335952Y-99464524D01*
X84145476Y-99416905D01*
X84050238Y-99369286D01*
X83955000Y-99274048D01*
X83907381Y-99131190D01*
X83907381Y-99035952D01*
X83955000Y-98893095D01*
X84002619Y-98845476D01*
X84907381Y-98416905D02*
X83907381Y-98416905D01*
X84907381Y-97988333D02*
X84383571Y-97988333D01*
X84288333Y-98035952D01*
X84240714Y-98131190D01*
X84240714Y-98274048D01*
X84288333Y-98369286D01*
X84335952Y-98416905D01*
X84907381Y-97369286D02*
X84859762Y-97464524D01*
X84812143Y-97512143D01*
X84716905Y-97559762D01*
X84431190Y-97559762D01*
X84335952Y-97512143D01*
X84288333Y-97464524D01*
X84240714Y-97369286D01*
X84240714Y-97226428D01*
X84288333Y-97131190D01*
X84335952Y-97083571D01*
X84431190Y-97035952D01*
X84716905Y-97035952D01*
X84812143Y-97083571D01*
X84859762Y-97131190D01*
X84907381Y-97226428D01*
X84907381Y-97369286D01*
X84907381Y-96607381D02*
X84240714Y-96607381D01*
X83907381Y-96607381D02*
X83955000Y-96655000D01*
X84002619Y-96607381D01*
X83955000Y-96559762D01*
X83907381Y-96607381D01*
X84002619Y-96607381D01*
X84859762Y-95702619D02*
X84907381Y-95797857D01*
X84907381Y-95988334D01*
X84859762Y-96083572D01*
X84812143Y-96131191D01*
X84716905Y-96178810D01*
X84431190Y-96178810D01*
X84335952Y-96131191D01*
X84288333Y-96083572D01*
X84240714Y-95988334D01*
X84240714Y-95797857D01*
X84288333Y-95702619D01*
X84859762Y-94893095D02*
X84907381Y-94988333D01*
X84907381Y-95178810D01*
X84859762Y-95274048D01*
X84764524Y-95321667D01*
X84383571Y-95321667D01*
X84288333Y-95274048D01*
X84240714Y-95178810D01*
X84240714Y-94988333D01*
X84288333Y-94893095D01*
X84383571Y-94845476D01*
X84478810Y-94845476D01*
X84574048Y-95321667D01*
X88034762Y-104354048D02*
X88082381Y-104211191D01*
X88082381Y-103973095D01*
X88034762Y-103877857D01*
X87987143Y-103830238D01*
X87891905Y-103782619D01*
X87796667Y-103782619D01*
X87701429Y-103830238D01*
X87653810Y-103877857D01*
X87606190Y-103973095D01*
X87558571Y-104163572D01*
X87510952Y-104258810D01*
X87463333Y-104306429D01*
X87368095Y-104354048D01*
X87272857Y-104354048D01*
X87177619Y-104306429D01*
X87130000Y-104258810D01*
X87082381Y-104163572D01*
X87082381Y-103925476D01*
X87130000Y-103782619D01*
X88034762Y-102973095D02*
X88082381Y-103068333D01*
X88082381Y-103258810D01*
X88034762Y-103354048D01*
X87939524Y-103401667D01*
X87558571Y-103401667D01*
X87463333Y-103354048D01*
X87415714Y-103258810D01*
X87415714Y-103068333D01*
X87463333Y-102973095D01*
X87558571Y-102925476D01*
X87653810Y-102925476D01*
X87749048Y-103401667D01*
X88082381Y-102354048D02*
X88034762Y-102449286D01*
X87939524Y-102496905D01*
X87082381Y-102496905D01*
X88034762Y-101592142D02*
X88082381Y-101687380D01*
X88082381Y-101877857D01*
X88034762Y-101973095D01*
X87939524Y-102020714D01*
X87558571Y-102020714D01*
X87463333Y-101973095D01*
X87415714Y-101877857D01*
X87415714Y-101687380D01*
X87463333Y-101592142D01*
X87558571Y-101544523D01*
X87653810Y-101544523D01*
X87749048Y-102020714D01*
X88034762Y-100687380D02*
X88082381Y-100782618D01*
X88082381Y-100973095D01*
X88034762Y-101068333D01*
X87987143Y-101115952D01*
X87891905Y-101163571D01*
X87606190Y-101163571D01*
X87510952Y-101115952D01*
X87463333Y-101068333D01*
X87415714Y-100973095D01*
X87415714Y-100782618D01*
X87463333Y-100687380D01*
X87415714Y-100401666D02*
X87415714Y-100020714D01*
X87082381Y-100258809D02*
X87939524Y-100258809D01*
X88034762Y-100211190D01*
X88082381Y-100115952D01*
X88082381Y-100020714D01*
X93257619Y-91376428D02*
X93210000Y-91471666D01*
X93114762Y-91566904D01*
X92971905Y-91709761D01*
X92924286Y-91805000D01*
X92924286Y-91900238D01*
X93162381Y-91852619D02*
X93114762Y-91947857D01*
X93019524Y-92043095D01*
X92829048Y-92090714D01*
X92495714Y-92090714D01*
X92305238Y-92043095D01*
X92210000Y-91947857D01*
X92162381Y-91852619D01*
X92162381Y-91662142D01*
X92210000Y-91566904D01*
X92305238Y-91471666D01*
X92495714Y-91424047D01*
X92829048Y-91424047D01*
X93019524Y-91471666D01*
X93114762Y-91566904D01*
X93162381Y-91662142D01*
X93162381Y-91852619D01*
X93162381Y-90471666D02*
X93162381Y-91043095D01*
X93162381Y-90757381D02*
X92162381Y-90757381D01*
X92305238Y-90852619D01*
X92400476Y-90947857D01*
X92448095Y-91043095D01*
X93162381Y-89519285D02*
X93162381Y-90090714D01*
X93162381Y-89805000D02*
X92162381Y-89805000D01*
X92305238Y-89900238D01*
X92400476Y-89995476D01*
X92448095Y-90090714D01*
X98337619Y-91376428D02*
X98290000Y-91471666D01*
X98194762Y-91566904D01*
X98051905Y-91709761D01*
X98004286Y-91805000D01*
X98004286Y-91900238D01*
X98242381Y-91852619D02*
X98194762Y-91947857D01*
X98099524Y-92043095D01*
X97909048Y-92090714D01*
X97575714Y-92090714D01*
X97385238Y-92043095D01*
X97290000Y-91947857D01*
X97242381Y-91852619D01*
X97242381Y-91662142D01*
X97290000Y-91566904D01*
X97385238Y-91471666D01*
X97575714Y-91424047D01*
X97909048Y-91424047D01*
X98099524Y-91471666D01*
X98194762Y-91566904D01*
X98242381Y-91662142D01*
X98242381Y-91852619D01*
X98242381Y-90471666D02*
X98242381Y-91043095D01*
X98242381Y-90757381D02*
X97242381Y-90757381D01*
X97385238Y-90852619D01*
X97480476Y-90947857D01*
X97528095Y-91043095D01*
X97337619Y-90090714D02*
X97290000Y-90043095D01*
X97242381Y-89947857D01*
X97242381Y-89709761D01*
X97290000Y-89614523D01*
X97337619Y-89566904D01*
X97432857Y-89519285D01*
X97528095Y-89519285D01*
X97670952Y-89566904D01*
X98242381Y-90138333D01*
X98242381Y-89519285D01*
X89447619Y-95980238D02*
X89400000Y-96075476D01*
X89304762Y-96170714D01*
X89161905Y-96313571D01*
X89114286Y-96408810D01*
X89114286Y-96504048D01*
X89352381Y-96456429D02*
X89304762Y-96551667D01*
X89209524Y-96646905D01*
X89019048Y-96694524D01*
X88685714Y-96694524D01*
X88495238Y-96646905D01*
X88400000Y-96551667D01*
X88352381Y-96456429D01*
X88352381Y-96265952D01*
X88400000Y-96170714D01*
X88495238Y-96075476D01*
X88685714Y-96027857D01*
X89019048Y-96027857D01*
X89209524Y-96075476D01*
X89304762Y-96170714D01*
X89352381Y-96265952D01*
X89352381Y-96456429D01*
X88352381Y-95694524D02*
X88352381Y-95027857D01*
X89352381Y-95456429D01*
X93892619Y-95980238D02*
X93845000Y-96075476D01*
X93749762Y-96170714D01*
X93606905Y-96313571D01*
X93559286Y-96408810D01*
X93559286Y-96504048D01*
X93797381Y-96456429D02*
X93749762Y-96551667D01*
X93654524Y-96646905D01*
X93464048Y-96694524D01*
X93130714Y-96694524D01*
X92940238Y-96646905D01*
X92845000Y-96551667D01*
X92797381Y-96456429D01*
X92797381Y-96265952D01*
X92845000Y-96170714D01*
X92940238Y-96075476D01*
X93130714Y-96027857D01*
X93464048Y-96027857D01*
X93654524Y-96075476D01*
X93749762Y-96170714D01*
X93797381Y-96265952D01*
X93797381Y-96456429D01*
X93225952Y-95456429D02*
X93178333Y-95551667D01*
X93130714Y-95599286D01*
X93035476Y-95646905D01*
X92987857Y-95646905D01*
X92892619Y-95599286D01*
X92845000Y-95551667D01*
X92797381Y-95456429D01*
X92797381Y-95265952D01*
X92845000Y-95170714D01*
X92892619Y-95123095D01*
X92987857Y-95075476D01*
X93035476Y-95075476D01*
X93130714Y-95123095D01*
X93178333Y-95170714D01*
X93225952Y-95265952D01*
X93225952Y-95456429D01*
X93273571Y-95551667D01*
X93321190Y-95599286D01*
X93416429Y-95646905D01*
X93606905Y-95646905D01*
X93702143Y-95599286D01*
X93749762Y-95551667D01*
X93797381Y-95456429D01*
X93797381Y-95265952D01*
X93749762Y-95170714D01*
X93702143Y-95123095D01*
X93606905Y-95075476D01*
X93416429Y-95075476D01*
X93321190Y-95123095D01*
X93273571Y-95170714D01*
X93225952Y-95265952D01*
X98337619Y-95980238D02*
X98290000Y-96075476D01*
X98194762Y-96170714D01*
X98051905Y-96313571D01*
X98004286Y-96408810D01*
X98004286Y-96504048D01*
X98242381Y-96456429D02*
X98194762Y-96551667D01*
X98099524Y-96646905D01*
X97909048Y-96694524D01*
X97575714Y-96694524D01*
X97385238Y-96646905D01*
X97290000Y-96551667D01*
X97242381Y-96456429D01*
X97242381Y-96265952D01*
X97290000Y-96170714D01*
X97385238Y-96075476D01*
X97575714Y-96027857D01*
X97909048Y-96027857D01*
X98099524Y-96075476D01*
X98194762Y-96170714D01*
X98242381Y-96265952D01*
X98242381Y-96456429D01*
X98242381Y-95551667D02*
X98242381Y-95361191D01*
X98194762Y-95265952D01*
X98147143Y-95218333D01*
X98004286Y-95123095D01*
X97813810Y-95075476D01*
X97432857Y-95075476D01*
X97337619Y-95123095D01*
X97290000Y-95170714D01*
X97242381Y-95265952D01*
X97242381Y-95456429D01*
X97290000Y-95551667D01*
X97337619Y-95599286D01*
X97432857Y-95646905D01*
X97670952Y-95646905D01*
X97766190Y-95599286D01*
X97813810Y-95551667D01*
X97861429Y-95456429D01*
X97861429Y-95265952D01*
X97813810Y-95170714D01*
X97766190Y-95123095D01*
X97670952Y-95075476D01*
M02*
