G04 #@! TF.FileFunction,Copper,L1,Top,Signal*
%FSLAX46Y46*%
G04 Gerber Fmt 4.6, Leading zero omitted, Abs format (unit mm)*
G04 Created by KiCad (PCBNEW 4.0.7+dfsg1-1~bpo9+1) date Wed May  2 15:24:50 2018*
%MOMM*%
%LPD*%
G01*
G04 APERTURE LIST*
%ADD10C,0.100000*%
%ADD11C,1.727200*%
%ADD12R,1.700000X1.700000*%
%ADD13O,1.700000X1.700000*%
%ADD14R,1.727200X1.727200*%
%ADD15C,0.600000*%
%ADD16C,0.250000*%
%ADD17C,0.500000*%
%ADD18C,0.254000*%
G04 APERTURE END LIST*
D10*
D11*
X71755000Y-48260000D03*
X74295000Y-48260000D03*
X76835000Y-48260000D03*
X79375000Y-48260000D03*
X81915000Y-48260000D03*
X84455000Y-48260000D03*
X86995000Y-48260000D03*
X89535000Y-48260000D03*
X92075000Y-48260000D03*
X94615000Y-48260000D03*
X97155000Y-48260000D03*
X99695000Y-48260000D03*
X102235000Y-48260000D03*
X104775000Y-48260000D03*
X107315000Y-48260000D03*
X109855000Y-48260000D03*
X112395000Y-48260000D03*
X114935000Y-48260000D03*
X117475000Y-48260000D03*
X120015000Y-48260000D03*
X71755000Y-63500000D03*
X74295000Y-63500000D03*
X76835000Y-63500000D03*
X79375000Y-63500000D03*
X81915000Y-63500000D03*
X84455000Y-63500000D03*
X86995000Y-63500000D03*
X89535000Y-63500000D03*
X92075000Y-63500000D03*
X94615000Y-63500000D03*
X97155000Y-63500000D03*
X99695000Y-63500000D03*
X102235000Y-63500000D03*
X104775000Y-63500000D03*
X107315000Y-63500000D03*
X109855000Y-63500000D03*
X112395000Y-63500000D03*
X114935000Y-63500000D03*
X117475000Y-63500000D03*
X120015000Y-63500000D03*
D12*
X147320000Y-76835000D03*
D13*
X144780000Y-76835000D03*
X142240000Y-76835000D03*
X139700000Y-76835000D03*
X137160000Y-76835000D03*
X134620000Y-76835000D03*
X132080000Y-76835000D03*
X129540000Y-76835000D03*
X127000000Y-76835000D03*
X124460000Y-76835000D03*
X121920000Y-76835000D03*
X119380000Y-76835000D03*
D12*
X154305000Y-41910000D03*
D13*
X154305000Y-44450000D03*
X154305000Y-46990000D03*
X154305000Y-49530000D03*
X154305000Y-52070000D03*
X154305000Y-54610000D03*
X154305000Y-57150000D03*
X154305000Y-59690000D03*
X154305000Y-62230000D03*
X154305000Y-64770000D03*
X154305000Y-67310000D03*
X154305000Y-69850000D03*
D12*
X119380000Y-34925000D03*
D13*
X121920000Y-34925000D03*
X124460000Y-34925000D03*
X127000000Y-34925000D03*
X129540000Y-34925000D03*
X132080000Y-34925000D03*
X134620000Y-34925000D03*
X137160000Y-34925000D03*
X139700000Y-34925000D03*
X142240000Y-34925000D03*
X144780000Y-34925000D03*
X147320000Y-34925000D03*
D12*
X69850000Y-34925000D03*
D13*
X72390000Y-34925000D03*
X74930000Y-34925000D03*
X77470000Y-34925000D03*
X80010000Y-34925000D03*
X82550000Y-34925000D03*
X85090000Y-34925000D03*
X87630000Y-34925000D03*
X90170000Y-34925000D03*
X92710000Y-34925000D03*
X95250000Y-34925000D03*
X97790000Y-34925000D03*
D12*
X97790000Y-76835000D03*
D13*
X95250000Y-76835000D03*
X92710000Y-76835000D03*
X90170000Y-76835000D03*
X87630000Y-76835000D03*
X85090000Y-76835000D03*
X82550000Y-76835000D03*
X80010000Y-76835000D03*
X77470000Y-76835000D03*
X74930000Y-76835000D03*
X72390000Y-76835000D03*
X69850000Y-76835000D03*
D12*
X104140000Y-92075000D03*
D13*
X104140000Y-94615000D03*
X104140000Y-97155000D03*
X104140000Y-99695000D03*
X104140000Y-102235000D03*
X104140000Y-104775000D03*
X104140000Y-107315000D03*
X104140000Y-109855000D03*
X104140000Y-112395000D03*
X104140000Y-114935000D03*
X104140000Y-117475000D03*
X104140000Y-120015000D03*
D12*
X64135000Y-102235000D03*
D13*
X64135000Y-104775000D03*
X64135000Y-107315000D03*
X64135000Y-109855000D03*
X64135000Y-112395000D03*
X64135000Y-114935000D03*
X64135000Y-117475000D03*
X64135000Y-120015000D03*
D12*
X66675000Y-102235000D03*
D13*
X66675000Y-104775000D03*
X66675000Y-107315000D03*
X66675000Y-109855000D03*
X66675000Y-112395000D03*
X66675000Y-114935000D03*
X66675000Y-117475000D03*
X66675000Y-120015000D03*
D12*
X66675000Y-97155000D03*
D13*
X69215000Y-97155000D03*
X71755000Y-97155000D03*
X74295000Y-97155000D03*
X76835000Y-97155000D03*
X79375000Y-97155000D03*
X81915000Y-97155000D03*
X84455000Y-97155000D03*
X86995000Y-97155000D03*
X89535000Y-97155000D03*
X92075000Y-97155000D03*
X94615000Y-97155000D03*
X97155000Y-97155000D03*
X99695000Y-97155000D03*
D12*
X66675000Y-99695000D03*
D13*
X69215000Y-99695000D03*
X71755000Y-99695000D03*
X74295000Y-99695000D03*
X76835000Y-99695000D03*
X79375000Y-99695000D03*
X81915000Y-99695000D03*
X84455000Y-99695000D03*
X86995000Y-99695000D03*
X89535000Y-99695000D03*
X92075000Y-99695000D03*
X94615000Y-99695000D03*
X97155000Y-99695000D03*
X99695000Y-99695000D03*
D12*
X66675000Y-89535000D03*
D13*
X69215000Y-89535000D03*
X71755000Y-89535000D03*
X74295000Y-89535000D03*
X76835000Y-89535000D03*
X79375000Y-89535000D03*
X81915000Y-89535000D03*
X84455000Y-89535000D03*
X86995000Y-89535000D03*
X89535000Y-89535000D03*
X92075000Y-89535000D03*
X94615000Y-89535000D03*
X97155000Y-89535000D03*
X99695000Y-89535000D03*
D12*
X61595000Y-92075000D03*
D13*
X61595000Y-94615000D03*
X61595000Y-97155000D03*
X61595000Y-99695000D03*
X61595000Y-102235000D03*
X61595000Y-104775000D03*
X61595000Y-107315000D03*
X61595000Y-109855000D03*
X61595000Y-112395000D03*
X61595000Y-114935000D03*
X61595000Y-117475000D03*
X61595000Y-120015000D03*
D12*
X69215000Y-84455000D03*
D13*
X71755000Y-84455000D03*
X74295000Y-84455000D03*
X76835000Y-84455000D03*
X79375000Y-84455000D03*
X81915000Y-84455000D03*
X84455000Y-84455000D03*
X86995000Y-84455000D03*
X89535000Y-84455000D03*
X92075000Y-84455000D03*
X94615000Y-84455000D03*
X97155000Y-84455000D03*
D12*
X97155000Y-127635000D03*
D13*
X94615000Y-127635000D03*
X92075000Y-127635000D03*
X89535000Y-127635000D03*
X86995000Y-127635000D03*
X84455000Y-127635000D03*
X81915000Y-127635000D03*
X79375000Y-127635000D03*
X76835000Y-127635000D03*
X74295000Y-127635000D03*
X71755000Y-127635000D03*
X69215000Y-127635000D03*
D12*
X97155000Y-102235000D03*
D13*
X97155000Y-104775000D03*
X97155000Y-107315000D03*
X97155000Y-109855000D03*
X97155000Y-112395000D03*
X97155000Y-114935000D03*
X97155000Y-117475000D03*
X97155000Y-120015000D03*
D12*
X81915000Y-102235000D03*
D13*
X81915000Y-104775000D03*
X81915000Y-107315000D03*
X81915000Y-109855000D03*
X81915000Y-112395000D03*
X81915000Y-114935000D03*
X81915000Y-117475000D03*
X81915000Y-120015000D03*
D12*
X79375000Y-102235000D03*
D13*
X79375000Y-104775000D03*
X79375000Y-107315000D03*
X79375000Y-109855000D03*
X79375000Y-112395000D03*
X79375000Y-114935000D03*
X79375000Y-117475000D03*
X79375000Y-120015000D03*
D12*
X89535000Y-102235000D03*
D13*
X89535000Y-104775000D03*
X89535000Y-107315000D03*
X89535000Y-109855000D03*
X89535000Y-112395000D03*
X89535000Y-114935000D03*
X89535000Y-117475000D03*
X89535000Y-120015000D03*
D12*
X86995000Y-102235000D03*
D13*
X86995000Y-104775000D03*
X86995000Y-107315000D03*
X86995000Y-109855000D03*
X86995000Y-112395000D03*
X86995000Y-114935000D03*
X86995000Y-117475000D03*
X86995000Y-120015000D03*
D12*
X71755000Y-102235000D03*
D13*
X71755000Y-104775000D03*
X71755000Y-107315000D03*
X71755000Y-109855000D03*
X71755000Y-112395000D03*
X71755000Y-114935000D03*
X71755000Y-117475000D03*
X71755000Y-120015000D03*
D12*
X76835000Y-102235000D03*
D13*
X76835000Y-104775000D03*
X76835000Y-107315000D03*
X76835000Y-109855000D03*
X76835000Y-112395000D03*
X76835000Y-114935000D03*
X76835000Y-117475000D03*
X76835000Y-120015000D03*
D12*
X99695000Y-102235000D03*
D13*
X99695000Y-104775000D03*
X99695000Y-107315000D03*
X99695000Y-109855000D03*
X99695000Y-112395000D03*
X99695000Y-114935000D03*
X99695000Y-117475000D03*
X99695000Y-120015000D03*
D12*
X84455000Y-102235000D03*
D13*
X84455000Y-104775000D03*
X84455000Y-107315000D03*
X84455000Y-109855000D03*
X84455000Y-112395000D03*
X84455000Y-114935000D03*
X84455000Y-117475000D03*
X84455000Y-120015000D03*
D12*
X74295000Y-102235000D03*
D13*
X74295000Y-104775000D03*
X74295000Y-107315000D03*
X74295000Y-109855000D03*
X74295000Y-112395000D03*
X74295000Y-114935000D03*
X74295000Y-117475000D03*
X74295000Y-120015000D03*
D12*
X66675000Y-94615000D03*
D13*
X69215000Y-94615000D03*
X71755000Y-94615000D03*
X74295000Y-94615000D03*
X76835000Y-94615000D03*
X79375000Y-94615000D03*
X81915000Y-94615000D03*
X84455000Y-94615000D03*
X86995000Y-94615000D03*
X89535000Y-94615000D03*
X92075000Y-94615000D03*
X94615000Y-94615000D03*
X97155000Y-94615000D03*
X99695000Y-94615000D03*
D12*
X66675000Y-92075000D03*
D13*
X69215000Y-92075000D03*
X71755000Y-92075000D03*
X74295000Y-92075000D03*
X76835000Y-92075000D03*
X79375000Y-92075000D03*
X81915000Y-92075000D03*
X84455000Y-92075000D03*
X86995000Y-92075000D03*
X89535000Y-92075000D03*
X92075000Y-92075000D03*
X94615000Y-92075000D03*
X97155000Y-92075000D03*
X99695000Y-92075000D03*
D12*
X92075000Y-102235000D03*
D13*
X92075000Y-104775000D03*
X92075000Y-107315000D03*
X92075000Y-109855000D03*
X92075000Y-112395000D03*
X92075000Y-114935000D03*
X92075000Y-117475000D03*
X92075000Y-120015000D03*
D12*
X94615000Y-102235000D03*
D13*
X94615000Y-104775000D03*
X94615000Y-107315000D03*
X94615000Y-109855000D03*
X94615000Y-112395000D03*
X94615000Y-114935000D03*
X94615000Y-117475000D03*
X94615000Y-120015000D03*
D12*
X69215000Y-102235000D03*
D13*
X69215000Y-104775000D03*
X69215000Y-107315000D03*
X69215000Y-109855000D03*
X69215000Y-112395000D03*
X69215000Y-114935000D03*
X69215000Y-117475000D03*
X69215000Y-120015000D03*
D12*
X69215000Y-125095000D03*
D13*
X71755000Y-125095000D03*
X74295000Y-125095000D03*
X76835000Y-125095000D03*
X79375000Y-125095000D03*
X81915000Y-125095000D03*
X84455000Y-125095000D03*
X86995000Y-125095000D03*
D12*
X79375000Y-86995000D03*
D13*
X81915000Y-86995000D03*
X84455000Y-86995000D03*
X86995000Y-86995000D03*
X89535000Y-86995000D03*
X92075000Y-86995000D03*
X94615000Y-86995000D03*
X97155000Y-86995000D03*
D12*
X66675000Y-122555000D03*
D13*
X69215000Y-122555000D03*
X71755000Y-122555000D03*
X74295000Y-122555000D03*
X76835000Y-122555000D03*
X79375000Y-122555000D03*
X81915000Y-122555000D03*
X84455000Y-122555000D03*
X86995000Y-122555000D03*
X89535000Y-122555000D03*
X92075000Y-122555000D03*
X94615000Y-122555000D03*
X97155000Y-122555000D03*
X99695000Y-122555000D03*
D12*
X119380000Y-85090000D03*
D13*
X121920000Y-85090000D03*
X124460000Y-85090000D03*
X127000000Y-85090000D03*
X129540000Y-85090000D03*
X132080000Y-85090000D03*
X134620000Y-85090000D03*
X137160000Y-85090000D03*
X139700000Y-85090000D03*
X142240000Y-85090000D03*
X144780000Y-85090000D03*
X147320000Y-85090000D03*
D12*
X154305000Y-92075000D03*
D13*
X154305000Y-94615000D03*
X154305000Y-97155000D03*
X154305000Y-99695000D03*
X154305000Y-102235000D03*
X154305000Y-104775000D03*
X154305000Y-107315000D03*
X154305000Y-109855000D03*
X154305000Y-112395000D03*
X154305000Y-114935000D03*
X154305000Y-117475000D03*
X154305000Y-120015000D03*
D12*
X147320000Y-127000000D03*
D13*
X144780000Y-127000000D03*
X142240000Y-127000000D03*
X139700000Y-127000000D03*
X137160000Y-127000000D03*
X134620000Y-127000000D03*
X132080000Y-127000000D03*
X129540000Y-127000000D03*
X127000000Y-127000000D03*
X124460000Y-127000000D03*
X121920000Y-127000000D03*
X119380000Y-127000000D03*
D11*
X146050000Y-116205000D03*
X143510000Y-116205000D03*
X140970000Y-116205000D03*
X138430000Y-116205000D03*
X135890000Y-116205000D03*
X133350000Y-116205000D03*
X130810000Y-116205000D03*
X128270000Y-116205000D03*
X125730000Y-116205000D03*
X123190000Y-116205000D03*
X120650000Y-116205000D03*
X118110000Y-116205000D03*
X115570000Y-116205000D03*
X113030000Y-116205000D03*
X110490000Y-116205000D03*
X110490000Y-100965000D03*
X113030000Y-100965000D03*
X115570000Y-100965000D03*
X118110000Y-100965000D03*
X120650000Y-100965000D03*
X123190000Y-100965000D03*
X125730000Y-100965000D03*
X128270000Y-100965000D03*
X130810000Y-100965000D03*
X133350000Y-100965000D03*
X135890000Y-100965000D03*
X138430000Y-100965000D03*
X140970000Y-100965000D03*
X143510000Y-100965000D03*
D14*
X146050000Y-100965000D03*
D12*
X146050000Y-97155000D03*
D13*
X143510000Y-97155000D03*
X140970000Y-97155000D03*
X138430000Y-97155000D03*
X135890000Y-97155000D03*
X133350000Y-97155000D03*
X130810000Y-97155000D03*
X128270000Y-97155000D03*
X125730000Y-97155000D03*
X123190000Y-97155000D03*
X120650000Y-97155000D03*
X118110000Y-97155000D03*
X115570000Y-97155000D03*
X113030000Y-97155000D03*
X110490000Y-97155000D03*
D12*
X146050000Y-120015000D03*
D13*
X143510000Y-120015000D03*
X140970000Y-120015000D03*
X138430000Y-120015000D03*
X135890000Y-120015000D03*
X133350000Y-120015000D03*
X130810000Y-120015000D03*
X128270000Y-120015000D03*
X125730000Y-120015000D03*
X123190000Y-120015000D03*
X120650000Y-120015000D03*
X118110000Y-120015000D03*
X115570000Y-120015000D03*
X113030000Y-120015000D03*
X110490000Y-120015000D03*
D15*
X99060000Y-65405000D03*
X135890000Y-93980000D03*
X100965000Y-69215000D03*
X133350000Y-93980000D03*
X100965000Y-73025000D03*
X100965000Y-74930000D03*
X132080000Y-113665000D03*
X128270000Y-113665000D03*
X118110000Y-111760000D03*
X97155000Y-66675000D03*
X95885000Y-67945000D03*
X107315000Y-70485000D03*
X104775000Y-70485000D03*
X93345000Y-70485000D03*
X78105000Y-60960000D03*
X80010000Y-71755000D03*
X83820000Y-41275000D03*
X88265000Y-45085000D03*
X90805000Y-45085000D03*
X93345000Y-45085000D03*
X87630000Y-71755000D03*
X85090000Y-70485000D03*
D16*
X99060000Y-65405000D02*
X102235000Y-65405000D01*
X130175000Y-39370000D02*
X105410000Y-39370000D01*
X105410000Y-39370000D02*
X104775000Y-40005000D01*
X130175000Y-39370000D02*
X134620000Y-34925000D01*
X97155000Y-48260000D02*
X97155000Y-47625000D01*
X97155000Y-47625000D02*
X104775000Y-40005000D01*
X125730000Y-65405000D02*
X137160000Y-76835000D01*
X125730000Y-65405000D02*
X102235000Y-65405000D01*
X130810000Y-116205000D02*
X130810000Y-120015000D01*
X135890000Y-93980000D02*
X142240000Y-87630000D01*
X130810000Y-116205000D02*
X130810000Y-125730000D01*
X130810000Y-125730000D02*
X132080000Y-127000000D01*
X142240000Y-87630000D02*
X142240000Y-84455000D01*
X132080000Y-127635000D02*
X132080000Y-127000000D01*
X122555000Y-69215000D02*
X100965000Y-69215000D01*
X129540000Y-76835000D02*
X129540000Y-76200000D01*
X129540000Y-76200000D02*
X122555000Y-69215000D01*
X106045000Y-41275000D02*
X106680000Y-40640000D01*
X131445000Y-40640000D02*
X137160000Y-34925000D01*
X99695000Y-48260000D02*
X99695000Y-47625000D01*
X99695000Y-47625000D02*
X106045000Y-41275000D01*
X106680000Y-40640000D02*
X127000000Y-40640000D01*
X127000000Y-40640000D02*
X129540000Y-40640000D01*
X129540000Y-40640000D02*
X131445000Y-40640000D01*
X128270000Y-120015000D02*
X128270000Y-116205000D01*
X133350000Y-93980000D02*
X139700000Y-87630000D01*
X128270000Y-116205000D02*
X128270000Y-125730000D01*
X128270000Y-125730000D02*
X129540000Y-127000000D01*
X139700000Y-87630000D02*
X139700000Y-84455000D01*
X73660000Y-73025000D02*
X71755000Y-74930000D01*
X100965000Y-73025000D02*
X73660000Y-73025000D01*
X71755000Y-74930000D02*
X69850000Y-76835000D01*
X132715000Y-41910000D02*
X107950000Y-41910000D01*
X107950000Y-41910000D02*
X107315000Y-42545000D01*
X102235000Y-48260000D02*
X102235000Y-47625000D01*
X102235000Y-47625000D02*
X107315000Y-42545000D01*
X132715000Y-41910000D02*
X139700000Y-34925000D01*
X125730000Y-116205000D02*
X125730000Y-120015000D01*
X125730000Y-116205000D02*
X125730000Y-125730000D01*
X125730000Y-125730000D02*
X127000000Y-127000000D01*
X127000000Y-127635000D02*
X127000000Y-127000000D01*
X72390000Y-76835000D02*
X74295000Y-74930000D01*
X74295000Y-74930000D02*
X74930000Y-74930000D01*
X100965000Y-74930000D02*
X74930000Y-74930000D01*
X73025000Y-76835000D02*
X72390000Y-76835000D01*
X133985000Y-43180000D02*
X109220000Y-43180000D01*
X109220000Y-43180000D02*
X108585000Y-43815000D01*
X104775000Y-48260000D02*
X104775000Y-47625000D01*
X104775000Y-47625000D02*
X108585000Y-43815000D01*
X133985000Y-43180000D02*
X142240000Y-34925000D01*
X123190000Y-120015000D02*
X123190000Y-116205000D01*
X123190000Y-116205000D02*
X123190000Y-125730000D01*
X123190000Y-125730000D02*
X124460000Y-127000000D01*
X135255000Y-44450000D02*
X110490000Y-44450000D01*
X107315000Y-48260000D02*
X107315000Y-47625000D01*
X107315000Y-47625000D02*
X109855000Y-45085000D01*
X135255000Y-44450000D02*
X144780000Y-34925000D01*
X110490000Y-44450000D02*
X109855000Y-45085000D01*
X120650000Y-116205000D02*
X120650000Y-120015000D01*
X120650000Y-116205000D02*
X120650000Y-125730000D01*
X120650000Y-125730000D02*
X121920000Y-127000000D01*
X136525000Y-45720000D02*
X111760000Y-45720000D01*
X111760000Y-45720000D02*
X111125000Y-46355000D01*
X109855000Y-48260000D02*
X109855000Y-47625000D01*
X109855000Y-47625000D02*
X111125000Y-46355000D01*
X136525000Y-45720000D02*
X147320000Y-34925000D01*
X118110000Y-120015000D02*
X118110000Y-116205000D01*
X118110000Y-116205000D02*
X118110000Y-125730000D01*
X118110000Y-125730000D02*
X119380000Y-127000000D01*
X119380000Y-127635000D02*
X119380000Y-127000000D01*
D17*
X113665000Y-33020000D02*
X107950000Y-33020000D01*
X66675000Y-71755000D02*
X66675000Y-59690000D01*
X76835000Y-48260000D02*
X76835000Y-49530000D01*
X76835000Y-49530000D02*
X66675000Y-59690000D01*
X66675000Y-73025000D02*
X66675000Y-71755000D01*
X93980000Y-78740000D02*
X68580000Y-78740000D01*
X68580000Y-78740000D02*
X66675000Y-76835000D01*
X66675000Y-76835000D02*
X66675000Y-73025000D01*
X95250000Y-77470000D02*
X93980000Y-78740000D01*
X76835000Y-48260000D02*
X76200000Y-48260000D01*
X95250000Y-76835000D02*
X95250000Y-77470000D01*
X121920000Y-34925000D02*
X120015000Y-33020000D01*
X120015000Y-33020000D02*
X113665000Y-33020000D01*
X127000000Y-63500000D02*
X137160000Y-73660000D01*
X137160000Y-73660000D02*
X141605000Y-73660000D01*
X144780000Y-75565000D02*
X143510000Y-75565000D01*
X143510000Y-75565000D02*
X141605000Y-73660000D01*
X127000000Y-63500000D02*
X120015000Y-63500000D01*
X144780000Y-76835000D02*
X144780000Y-75565000D01*
X147320000Y-73025000D02*
X152400000Y-73025000D01*
X144780000Y-75565000D02*
X147320000Y-73025000D01*
X155575000Y-44450000D02*
X154305000Y-44450000D01*
X152400000Y-73025000D02*
X154305000Y-73025000D01*
X154305000Y-73025000D02*
X156210000Y-71120000D01*
X156210000Y-71120000D02*
X156210000Y-45085000D01*
X156210000Y-45085000D02*
X155575000Y-44450000D01*
X144780000Y-76835000D02*
X144780000Y-77470000D01*
X144780000Y-77470000D02*
X143510000Y-78740000D01*
X95250000Y-76835000D02*
X95250000Y-78105000D01*
X95885000Y-78740000D02*
X143510000Y-78740000D01*
X95250000Y-78105000D02*
X95885000Y-78740000D01*
X121920000Y-34925000D02*
X121920000Y-34290000D01*
X121920000Y-34290000D02*
X123190000Y-33020000D01*
X123190000Y-33020000D02*
X148590000Y-33020000D01*
X148590000Y-33020000D02*
X150495000Y-34925000D01*
X150495000Y-34925000D02*
X150495000Y-41910000D01*
X150495000Y-41910000D02*
X153035000Y-44450000D01*
X153035000Y-44450000D02*
X154305000Y-44450000D01*
X107950000Y-33020000D02*
X74295000Y-33020000D01*
X74295000Y-33020000D02*
X72390000Y-34925000D01*
X62865000Y-94615000D02*
X61595000Y-94615000D01*
X60325000Y-94615000D02*
X61595000Y-94615000D01*
X60325000Y-121920000D02*
X59690000Y-121285000D01*
X60325000Y-94615000D02*
X60960000Y-94615000D01*
X59690000Y-95250000D02*
X60325000Y-94615000D01*
X59690000Y-96520000D02*
X59690000Y-95250000D01*
X59690000Y-121285000D02*
X59690000Y-96520000D01*
X69215000Y-92075000D02*
X66675000Y-92075000D01*
X71755000Y-92075000D02*
X69215000Y-92075000D01*
X74295000Y-92075000D02*
X71755000Y-92075000D01*
X76835000Y-92075000D02*
X74295000Y-92075000D01*
X79375000Y-92075000D02*
X76835000Y-92075000D01*
X81915000Y-92075000D02*
X79375000Y-92075000D01*
X84455000Y-92075000D02*
X81915000Y-92075000D01*
X86995000Y-92075000D02*
X84455000Y-92075000D01*
X89535000Y-92075000D02*
X86995000Y-92075000D01*
X92075000Y-92075000D02*
X89535000Y-92075000D01*
X94615000Y-92075000D02*
X92075000Y-92075000D01*
X97155000Y-92075000D02*
X94615000Y-92075000D01*
X99695000Y-92075000D02*
X97155000Y-92075000D01*
X104140000Y-94615000D02*
X102870000Y-94615000D01*
X100965000Y-93345000D02*
X99695000Y-92075000D01*
X101600000Y-93345000D02*
X100965000Y-93345000D01*
X102870000Y-94615000D02*
X101600000Y-93345000D01*
X62230000Y-94615000D02*
X62865000Y-94615000D01*
X62865000Y-94615000D02*
X63500000Y-94615000D01*
X63500000Y-94615000D02*
X64135000Y-93980000D01*
X64135000Y-93980000D02*
X64135000Y-93345000D01*
X64135000Y-93345000D02*
X65405000Y-92075000D01*
X65405000Y-92075000D02*
X66675000Y-92075000D01*
X66675000Y-127635000D02*
X66675000Y-128270000D01*
X92710000Y-129540000D02*
X94615000Y-127635000D01*
X67945000Y-129540000D02*
X92710000Y-129540000D01*
X66675000Y-128270000D02*
X67945000Y-129540000D01*
X66675000Y-125730000D02*
X66675000Y-127635000D01*
X63500000Y-122555000D02*
X66675000Y-125730000D01*
X60960000Y-122555000D02*
X63500000Y-122555000D01*
X60325000Y-121920000D02*
X60960000Y-122555000D01*
X103505000Y-94615000D02*
X104140000Y-94615000D01*
X138430000Y-120015000D02*
X138430000Y-116205000D01*
X138430000Y-120015000D02*
X138430000Y-120650000D01*
X138430000Y-120650000D02*
X144780000Y-127000000D01*
X61595000Y-92075000D02*
X62230000Y-91440000D01*
X99695000Y-89535000D02*
X101600000Y-89535000D01*
X101600000Y-89535000D02*
X104140000Y-92075000D01*
X97155000Y-89535000D02*
X99695000Y-89535000D01*
X94615000Y-89535000D02*
X97155000Y-89535000D01*
X92075000Y-89535000D02*
X94615000Y-89535000D01*
X89535000Y-89535000D02*
X92075000Y-89535000D01*
X86995000Y-89535000D02*
X89535000Y-89535000D01*
X84455000Y-89535000D02*
X86995000Y-89535000D01*
X81915000Y-89535000D02*
X84455000Y-89535000D01*
X79375000Y-89535000D02*
X81915000Y-89535000D01*
X76835000Y-89535000D02*
X79375000Y-89535000D01*
X74295000Y-89535000D02*
X76835000Y-89535000D01*
X71755000Y-89535000D02*
X74295000Y-89535000D01*
X69215000Y-89535000D02*
X71755000Y-89535000D01*
X66675000Y-89535000D02*
X69215000Y-89535000D01*
X66675000Y-89535000D02*
X66675000Y-86995000D01*
X66675000Y-86995000D02*
X69215000Y-84455000D01*
X62230000Y-91440000D02*
X64135000Y-89535000D01*
X64135000Y-89535000D02*
X66675000Y-89535000D01*
X146050000Y-116205000D02*
X146050000Y-120015000D01*
X154940000Y-92075000D02*
X156845000Y-93980000D01*
X146050000Y-116205000D02*
X146050000Y-126365000D01*
X146050000Y-126365000D02*
X147320000Y-127635000D01*
X154940000Y-92075000D02*
X150495000Y-87630000D01*
X150495000Y-87630000D02*
X150495000Y-83820000D01*
X147320000Y-127635000D02*
X152400000Y-122555000D01*
X152400000Y-122555000D02*
X155575000Y-122555000D01*
X150495000Y-83820000D02*
X149225000Y-82550000D01*
X121285000Y-82550000D02*
X149225000Y-82550000D01*
X149225000Y-82550000D02*
X150495000Y-83820000D01*
X156845000Y-93980000D02*
X154940000Y-92075000D01*
X156845000Y-121285000D02*
X156845000Y-93980000D01*
X155575000Y-122555000D02*
X156845000Y-121285000D01*
X119380000Y-84455000D02*
X121285000Y-82550000D01*
X118745000Y-85090000D02*
X119380000Y-84455000D01*
D16*
X147320000Y-127635000D02*
X147955000Y-127635000D01*
D17*
X128270000Y-113665000D02*
X120015000Y-113665000D01*
X141605000Y-113665000D02*
X132080000Y-113665000D01*
X132080000Y-113665000D02*
X128270000Y-113665000D01*
X143510000Y-115570000D02*
X141605000Y-113665000D01*
X120015000Y-113665000D02*
X118110000Y-111760000D01*
X143510000Y-116205000D02*
X143510000Y-115570000D01*
X143510000Y-116205000D02*
X143510000Y-120015000D01*
D16*
X103505000Y-38735000D02*
X104140000Y-38100000D01*
X104140000Y-38100000D02*
X128905000Y-38100000D01*
X128905000Y-38100000D02*
X132080000Y-34925000D01*
X94615000Y-48260000D02*
X94615000Y-47625000D01*
X94615000Y-47625000D02*
X103505000Y-38735000D01*
X134620000Y-76835000D02*
X124460000Y-66675000D01*
X124460000Y-66675000D02*
X97155000Y-66675000D01*
X133350000Y-120015000D02*
X133350000Y-116205000D01*
X133350000Y-116205000D02*
X133350000Y-125730000D01*
X133350000Y-125730000D02*
X134620000Y-127000000D01*
X134620000Y-127635000D02*
X134620000Y-127000000D01*
X127635000Y-36830000D02*
X102870000Y-36830000D01*
X102870000Y-36830000D02*
X102235000Y-37465000D01*
X127635000Y-36830000D02*
X129540000Y-34925000D01*
X92075000Y-48260000D02*
X92075000Y-47625000D01*
X92075000Y-47625000D02*
X102235000Y-37465000D01*
X132080000Y-76835000D02*
X123190000Y-67945000D01*
X123190000Y-67945000D02*
X95885000Y-67945000D01*
X135890000Y-116205000D02*
X135890000Y-120015000D01*
X135890000Y-116205000D02*
X135890000Y-125730000D01*
X135890000Y-125730000D02*
X137160000Y-127000000D01*
X107315000Y-70485000D02*
X113030000Y-70485000D01*
X127000000Y-76835000D02*
X121285000Y-71120000D01*
X121285000Y-71120000D02*
X120650000Y-70485000D01*
X120650000Y-70485000D02*
X113030000Y-70485000D01*
X127000000Y-76835000D02*
X127000000Y-76200000D01*
X111760000Y-72390000D02*
X106680000Y-72390000D01*
X106680000Y-72390000D02*
X104775000Y-70485000D01*
X124460000Y-76835000D02*
X120015000Y-72390000D01*
X120015000Y-72390000D02*
X111760000Y-72390000D01*
X102870000Y-71755000D02*
X101600000Y-70485000D01*
X101600000Y-70485000D02*
X95885000Y-70485000D01*
X112395000Y-74930000D02*
X106045000Y-74930000D01*
X106045000Y-74930000D02*
X102870000Y-71755000D01*
X94615000Y-69215000D02*
X95885000Y-70485000D01*
X90170000Y-69215000D02*
X94615000Y-69215000D01*
X90170000Y-69215000D02*
X84455000Y-63500000D01*
X120015000Y-74930000D02*
X121920000Y-76835000D01*
X112395000Y-74930000D02*
X120015000Y-74930000D01*
X102235000Y-73025000D02*
X100965000Y-71755000D01*
X100965000Y-71755000D02*
X94615000Y-71755000D01*
X102235000Y-73025000D02*
X106045000Y-76835000D01*
X106045000Y-76835000D02*
X111760000Y-76835000D01*
X119380000Y-76835000D02*
X111760000Y-76835000D01*
X94615000Y-71755000D02*
X93345000Y-70485000D01*
X148590000Y-53975000D02*
X95250000Y-53975000D01*
X95250000Y-53975000D02*
X93980000Y-52705000D01*
X93980000Y-52705000D02*
X92710000Y-51435000D01*
X91532499Y-50257499D02*
X92710000Y-51435000D01*
X91532499Y-50257499D02*
X91440000Y-50165000D01*
X91440000Y-50165000D02*
X89535000Y-48260000D01*
X154305000Y-59690000D02*
X148590000Y-53975000D01*
X147320000Y-55245000D02*
X93980000Y-55245000D01*
X93980000Y-55245000D02*
X92710000Y-53975000D01*
X92710000Y-53975000D02*
X91440000Y-52705000D01*
X91440000Y-52705000D02*
X90170000Y-51435000D01*
X147320000Y-55245000D02*
X152400000Y-60325000D01*
X154305000Y-62230000D02*
X152400000Y-60325000D01*
X90170000Y-51435000D02*
X86995000Y-48260000D01*
X81280000Y-57785000D02*
X81915000Y-57150000D01*
X81915000Y-57150000D02*
X81915000Y-48260000D01*
X78105000Y-60960000D02*
X81280000Y-57785000D01*
X80010000Y-71755000D02*
X71755000Y-63500000D01*
X71755000Y-56515000D02*
X78105000Y-50165000D01*
X78105000Y-50165000D02*
X78105000Y-49530000D01*
X80010000Y-34925000D02*
X80010000Y-36830000D01*
X71755000Y-56515000D02*
X71755000Y-63500000D01*
X78105000Y-38735000D02*
X78105000Y-49530000D01*
X80010000Y-36830000D02*
X78105000Y-38735000D01*
X71755000Y-63500000D02*
X71755000Y-62865000D01*
X83185000Y-62230000D02*
X85090000Y-60325000D01*
X83820000Y-43180000D02*
X83820000Y-41275000D01*
X85725000Y-45085000D02*
X83820000Y-43180000D01*
X85725000Y-59690000D02*
X85725000Y-45085000D01*
X85090000Y-60325000D02*
X85725000Y-59690000D01*
X83185000Y-62230000D02*
X81915000Y-63500000D01*
X85725000Y-42545000D02*
X85090000Y-41910000D01*
X85090000Y-41910000D02*
X85090000Y-34925000D01*
X88265000Y-45085000D02*
X85725000Y-42545000D01*
X88265000Y-42545000D02*
X87630000Y-41910000D01*
X90805000Y-45085000D02*
X88265000Y-42545000D01*
X87630000Y-41910000D02*
X87630000Y-34925000D01*
X90805000Y-42545000D02*
X90170000Y-41910000D01*
X93345000Y-45085000D02*
X90805000Y-42545000D01*
X90170000Y-41910000D02*
X90170000Y-34925000D01*
X149860000Y-52705000D02*
X116840000Y-52705000D01*
X116840000Y-52705000D02*
X115570000Y-51435000D01*
X114300000Y-50165000D02*
X115570000Y-51435000D01*
X114300000Y-50165000D02*
X112395000Y-48260000D01*
X154305000Y-57150000D02*
X149860000Y-52705000D01*
X151130000Y-51435000D02*
X118110000Y-51435000D01*
X118110000Y-51435000D02*
X116840000Y-50165000D01*
X114935000Y-48260000D02*
X116840000Y-50165000D01*
X151130000Y-51435000D02*
X154305000Y-54610000D01*
X152082500Y-49847500D02*
X119062500Y-49847500D01*
X119062500Y-49847500D02*
X117475000Y-48260000D01*
X152082500Y-49847500D02*
X154305000Y-52070000D01*
X81915000Y-71755000D02*
X74295000Y-64135000D01*
X74295000Y-64135000D02*
X74295000Y-63500000D01*
X81915000Y-71755000D02*
X87630000Y-71755000D01*
X80645000Y-52705000D02*
X80645000Y-45085000D01*
X80645000Y-45085000D02*
X82550000Y-43180000D01*
X74295000Y-63500000D02*
X74295000Y-59055000D01*
X74295000Y-59055000D02*
X80645000Y-52705000D01*
X82550000Y-34925000D02*
X82550000Y-36830000D01*
X82550000Y-43180000D02*
X82550000Y-36830000D01*
X83820000Y-70485000D02*
X76835000Y-63500000D01*
X83820000Y-70485000D02*
X85090000Y-70485000D01*
X146050000Y-56515000D02*
X102235000Y-56515000D01*
X151130000Y-61595000D02*
X146050000Y-56515000D01*
X152400000Y-62865000D02*
X151130000Y-61595000D01*
X154305000Y-64770000D02*
X152400000Y-62865000D01*
X97155000Y-61595000D02*
X97155000Y-63500000D01*
X97155000Y-61595000D02*
X102235000Y-56515000D01*
X144145000Y-57785000D02*
X103505000Y-57785000D01*
X151765000Y-65405000D02*
X151130000Y-64770000D01*
X149860000Y-63500000D02*
X144145000Y-57785000D01*
X151130000Y-64770000D02*
X149860000Y-63500000D01*
X153670000Y-67310000D02*
X151765000Y-65405000D01*
X99695000Y-61595000D02*
X99695000Y-63500000D01*
X99695000Y-61595000D02*
X103505000Y-57785000D01*
X154305000Y-67310000D02*
X153670000Y-67310000D01*
X143510000Y-59055000D02*
X104775000Y-59055000D01*
X143510000Y-59055000D02*
X148590000Y-64135000D01*
X154305000Y-69850000D02*
X149860000Y-65405000D01*
X149860000Y-65405000D02*
X148590000Y-64135000D01*
X102235000Y-61595000D02*
X102235000Y-63500000D01*
X102235000Y-61595000D02*
X104775000Y-59055000D01*
X61595000Y-102235000D02*
X64135000Y-102235000D01*
X61595000Y-104775000D02*
X64135000Y-104775000D01*
X61595000Y-107315000D02*
X64135000Y-107315000D01*
X61595000Y-109855000D02*
X64135000Y-109855000D01*
X61595000Y-112395000D02*
X64135000Y-112395000D01*
X61595000Y-114935000D02*
X64135000Y-114935000D01*
X61595000Y-117475000D02*
X64135000Y-117475000D01*
X61595000Y-120015000D02*
X64135000Y-120015000D01*
X79375000Y-86995000D02*
X79375000Y-84455000D01*
X81915000Y-84455000D02*
X81915000Y-86995000D01*
X84455000Y-86995000D02*
X84455000Y-84455000D01*
X86995000Y-84455000D02*
X86995000Y-86995000D01*
X89535000Y-86995000D02*
X89535000Y-84455000D01*
X92075000Y-84455000D02*
X92075000Y-86995000D01*
X94615000Y-86995000D02*
X94615000Y-84455000D01*
X97155000Y-84455000D02*
X97155000Y-86995000D01*
X69215000Y-125095000D02*
X69215000Y-127635000D01*
X71755000Y-125095000D02*
X71755000Y-127635000D01*
X74295000Y-125095000D02*
X74295000Y-127635000D01*
X76835000Y-125095000D02*
X76835000Y-127635000D01*
X79375000Y-125095000D02*
X79375000Y-127635000D01*
X81915000Y-125095000D02*
X81915000Y-127635000D01*
X84455000Y-125095000D02*
X84455000Y-127635000D01*
X86995000Y-125095000D02*
X86995000Y-127635000D01*
X110490000Y-116205000D02*
X110490000Y-120015000D01*
X110490000Y-97155000D02*
X120015000Y-87630000D01*
X120015000Y-87630000D02*
X121920000Y-87630000D01*
X110490000Y-100965000D02*
X110490000Y-97155000D01*
X130810000Y-87630000D02*
X132080000Y-86360000D01*
X121920000Y-87630000D02*
X130810000Y-87630000D01*
X132080000Y-84455000D02*
X132080000Y-86360000D01*
X113030000Y-97155000D02*
X121285000Y-88900000D01*
X121285000Y-88900000D02*
X123190000Y-88900000D01*
X113030000Y-100965000D02*
X113030000Y-97155000D01*
X123190000Y-88900000D02*
X132080000Y-88900000D01*
X134620000Y-84455000D02*
X134620000Y-86360000D01*
X134620000Y-86360000D02*
X132080000Y-88900000D01*
X115570000Y-97155000D02*
X122555000Y-90170000D01*
X122555000Y-90170000D02*
X124460000Y-90170000D01*
X115570000Y-100965000D02*
X115570000Y-97155000D01*
X124460000Y-90170000D02*
X133350000Y-90170000D01*
X137160000Y-84455000D02*
X137160000Y-86360000D01*
X137160000Y-86360000D02*
X133350000Y-90170000D01*
X146050000Y-97155000D02*
X146050000Y-86360000D01*
X146050000Y-86360000D02*
X144780000Y-85090000D01*
X146050000Y-97155000D02*
X146050000Y-100965000D01*
X143510000Y-97155000D02*
X143510000Y-100965000D01*
X135890000Y-100965000D02*
X135890000Y-97155000D01*
X137795000Y-102870000D02*
X138430000Y-103505000D01*
X152400000Y-103505000D02*
X153035000Y-102870000D01*
X138430000Y-103505000D02*
X152400000Y-103505000D01*
X154940000Y-102235000D02*
X153670000Y-102235000D01*
X137795000Y-102870000D02*
X135890000Y-100965000D01*
X153670000Y-102235000D02*
X153035000Y-102870000D01*
X133350000Y-100965000D02*
X133350000Y-97155000D01*
X133350000Y-100965000D02*
X137160000Y-104775000D01*
X137160000Y-104775000D02*
X154940000Y-104775000D01*
X130810000Y-100965000D02*
X130810000Y-97155000D01*
X130810000Y-100965000D02*
X135890000Y-106045000D01*
X153670000Y-106045000D02*
X154940000Y-107315000D01*
X135890000Y-106045000D02*
X153670000Y-106045000D01*
X128270000Y-100965000D02*
X128270000Y-97155000D01*
X128270000Y-100965000D02*
X134620000Y-107315000D01*
X152400000Y-107315000D02*
X154940000Y-109855000D01*
X134620000Y-107315000D02*
X152400000Y-107315000D01*
X125730000Y-100965000D02*
X125730000Y-97155000D01*
X125730000Y-100965000D02*
X133350000Y-108585000D01*
X151130000Y-108585000D02*
X154940000Y-112395000D01*
X133350000Y-108585000D02*
X151130000Y-108585000D01*
X123190000Y-100965000D02*
X123190000Y-97155000D01*
X123190000Y-100965000D02*
X132080000Y-109855000D01*
X149860000Y-109855000D02*
X154940000Y-114935000D01*
X132080000Y-109855000D02*
X149860000Y-109855000D01*
X120650000Y-100965000D02*
X120650000Y-97155000D01*
X120650000Y-100965000D02*
X130810000Y-111125000D01*
X148590000Y-111125000D02*
X154940000Y-117475000D01*
X130810000Y-111125000D02*
X148590000Y-111125000D01*
X118110000Y-100965000D02*
X118110000Y-97155000D01*
X118110000Y-100965000D02*
X129540000Y-112395000D01*
X147320000Y-112395000D02*
X154940000Y-120015000D01*
X129540000Y-112395000D02*
X147320000Y-112395000D01*
X115570000Y-116205000D02*
X115570000Y-120015000D01*
X113030000Y-120015000D02*
X113030000Y-116205000D01*
X140970000Y-97155000D02*
X140970000Y-100965000D01*
X140970000Y-116205000D02*
X140970000Y-120015000D01*
D18*
G36*
X106553000Y-129413000D02*
X94088579Y-129413000D01*
X94396040Y-129105539D01*
X94615000Y-129149093D01*
X95183285Y-129036054D01*
X95665054Y-128714147D01*
X95692850Y-128672548D01*
X95701838Y-128720317D01*
X95840910Y-128936441D01*
X96053110Y-129081431D01*
X96305000Y-129132440D01*
X98005000Y-129132440D01*
X98240317Y-129088162D01*
X98456441Y-128949090D01*
X98601431Y-128736890D01*
X98652440Y-128485000D01*
X98652440Y-127442619D01*
X101904613Y-127442619D01*
X102244155Y-128264372D01*
X102872321Y-128893636D01*
X103693481Y-129234611D01*
X104582619Y-129235387D01*
X105404372Y-128895845D01*
X106033636Y-128267679D01*
X106374611Y-127446519D01*
X106375387Y-126557381D01*
X106035845Y-125735628D01*
X105407679Y-125106364D01*
X104586519Y-124765389D01*
X103697381Y-124764613D01*
X102875628Y-125104155D01*
X102246364Y-125732321D01*
X101905389Y-126553481D01*
X101904613Y-127442619D01*
X98652440Y-127442619D01*
X98652440Y-126785000D01*
X98608162Y-126549683D01*
X98469090Y-126333559D01*
X98256890Y-126188569D01*
X98005000Y-126137560D01*
X96305000Y-126137560D01*
X96069683Y-126181838D01*
X95853559Y-126320910D01*
X95708569Y-126533110D01*
X95694914Y-126600541D01*
X95665054Y-126555853D01*
X95183285Y-126233946D01*
X94615000Y-126120907D01*
X94046715Y-126233946D01*
X93564946Y-126555853D01*
X93337298Y-126896553D01*
X93270183Y-126753642D01*
X92841924Y-126363355D01*
X92431890Y-126193524D01*
X92202000Y-126314845D01*
X92202000Y-127508000D01*
X92222000Y-127508000D01*
X92222000Y-127762000D01*
X92202000Y-127762000D01*
X92202000Y-127782000D01*
X91948000Y-127782000D01*
X91948000Y-127762000D01*
X91928000Y-127762000D01*
X91928000Y-127508000D01*
X91948000Y-127508000D01*
X91948000Y-126314845D01*
X91718110Y-126193524D01*
X91308076Y-126363355D01*
X90879817Y-126753642D01*
X90812702Y-126896553D01*
X90585054Y-126555853D01*
X90103285Y-126233946D01*
X89535000Y-126120907D01*
X88966715Y-126233946D01*
X88484946Y-126555853D01*
X88265000Y-126885026D01*
X88045054Y-126555853D01*
X87759422Y-126365000D01*
X88045054Y-126174147D01*
X88366961Y-125692378D01*
X88480000Y-125124093D01*
X88480000Y-125065907D01*
X88366961Y-124497622D01*
X88045054Y-124015853D01*
X87759422Y-123825000D01*
X88045054Y-123634147D01*
X88265000Y-123304974D01*
X88484946Y-123634147D01*
X88966715Y-123956054D01*
X89535000Y-124069093D01*
X90103285Y-123956054D01*
X90585054Y-123634147D01*
X90805000Y-123304974D01*
X91024946Y-123634147D01*
X91506715Y-123956054D01*
X92075000Y-124069093D01*
X92643285Y-123956054D01*
X93125054Y-123634147D01*
X93345000Y-123304974D01*
X93564946Y-123634147D01*
X94046715Y-123956054D01*
X94615000Y-124069093D01*
X95183285Y-123956054D01*
X95665054Y-123634147D01*
X95885000Y-123304974D01*
X96104946Y-123634147D01*
X96586715Y-123956054D01*
X97155000Y-124069093D01*
X97723285Y-123956054D01*
X98205054Y-123634147D01*
X98425000Y-123304974D01*
X98644946Y-123634147D01*
X99126715Y-123956054D01*
X99695000Y-124069093D01*
X100263285Y-123956054D01*
X100745054Y-123634147D01*
X101066961Y-123152378D01*
X101180000Y-122584093D01*
X101180000Y-122525907D01*
X101066961Y-121957622D01*
X100745054Y-121475853D01*
X100452198Y-121280173D01*
X100774147Y-121065054D01*
X101096054Y-120583285D01*
X101209093Y-120015000D01*
X101096054Y-119446715D01*
X100774147Y-118964946D01*
X100444974Y-118745000D01*
X100774147Y-118525054D01*
X101096054Y-118043285D01*
X101209093Y-117475000D01*
X101096054Y-116906715D01*
X100774147Y-116424946D01*
X100444974Y-116205000D01*
X100774147Y-115985054D01*
X101096054Y-115503285D01*
X101209093Y-114935000D01*
X101096054Y-114366715D01*
X100774147Y-113884946D01*
X100444974Y-113665000D01*
X100774147Y-113445054D01*
X101096054Y-112963285D01*
X101209093Y-112395000D01*
X101096054Y-111826715D01*
X100774147Y-111344946D01*
X100444974Y-111125000D01*
X100774147Y-110905054D01*
X101096054Y-110423285D01*
X101209093Y-109855000D01*
X101096054Y-109286715D01*
X100774147Y-108804946D01*
X100444974Y-108585000D01*
X100774147Y-108365054D01*
X101096054Y-107883285D01*
X101209093Y-107315000D01*
X101096054Y-106746715D01*
X100774147Y-106264946D01*
X100444974Y-106045000D01*
X100774147Y-105825054D01*
X101096054Y-105343285D01*
X101209093Y-104775000D01*
X101096054Y-104206715D01*
X100774147Y-103724946D01*
X100732548Y-103697150D01*
X100780317Y-103688162D01*
X100996441Y-103549090D01*
X101141431Y-103336890D01*
X101192440Y-103085000D01*
X101192440Y-101385000D01*
X101148162Y-101149683D01*
X101009090Y-100933559D01*
X100796890Y-100788569D01*
X100740546Y-100777159D01*
X100745054Y-100774147D01*
X101066961Y-100292378D01*
X101180000Y-99724093D01*
X101180000Y-99695000D01*
X102625907Y-99695000D01*
X102738946Y-100263285D01*
X103060853Y-100745054D01*
X103390026Y-100965000D01*
X103060853Y-101184946D01*
X102738946Y-101666715D01*
X102625907Y-102235000D01*
X102738946Y-102803285D01*
X103060853Y-103285054D01*
X103390026Y-103505000D01*
X103060853Y-103724946D01*
X102738946Y-104206715D01*
X102625907Y-104775000D01*
X102738946Y-105343285D01*
X103060853Y-105825054D01*
X103390026Y-106045000D01*
X103060853Y-106264946D01*
X102738946Y-106746715D01*
X102625907Y-107315000D01*
X102738946Y-107883285D01*
X103060853Y-108365054D01*
X103390026Y-108585000D01*
X103060853Y-108804946D01*
X102738946Y-109286715D01*
X102625907Y-109855000D01*
X102738946Y-110423285D01*
X103060853Y-110905054D01*
X103390026Y-111125000D01*
X103060853Y-111344946D01*
X102738946Y-111826715D01*
X102625907Y-112395000D01*
X102738946Y-112963285D01*
X103060853Y-113445054D01*
X103390026Y-113665000D01*
X103060853Y-113884946D01*
X102738946Y-114366715D01*
X102625907Y-114935000D01*
X102738946Y-115503285D01*
X103060853Y-115985054D01*
X103390026Y-116205000D01*
X103060853Y-116424946D01*
X102738946Y-116906715D01*
X102625907Y-117475000D01*
X102738946Y-118043285D01*
X103060853Y-118525054D01*
X103390026Y-118745000D01*
X103060853Y-118964946D01*
X102738946Y-119446715D01*
X102625907Y-120015000D01*
X102738946Y-120583285D01*
X103060853Y-121065054D01*
X103542622Y-121386961D01*
X104110907Y-121500000D01*
X104169093Y-121500000D01*
X104737378Y-121386961D01*
X105219147Y-121065054D01*
X105541054Y-120583285D01*
X105654093Y-120015000D01*
X105541054Y-119446715D01*
X105219147Y-118964946D01*
X104889974Y-118745000D01*
X105219147Y-118525054D01*
X105541054Y-118043285D01*
X105654093Y-117475000D01*
X105541054Y-116906715D01*
X105219147Y-116424946D01*
X104889974Y-116205000D01*
X105219147Y-115985054D01*
X105541054Y-115503285D01*
X105654093Y-114935000D01*
X105541054Y-114366715D01*
X105219147Y-113884946D01*
X104889974Y-113665000D01*
X105219147Y-113445054D01*
X105541054Y-112963285D01*
X105654093Y-112395000D01*
X105541054Y-111826715D01*
X105219147Y-111344946D01*
X104889974Y-111125000D01*
X105219147Y-110905054D01*
X105541054Y-110423285D01*
X105654093Y-109855000D01*
X105541054Y-109286715D01*
X105219147Y-108804946D01*
X104889974Y-108585000D01*
X105219147Y-108365054D01*
X105541054Y-107883285D01*
X105654093Y-107315000D01*
X105541054Y-106746715D01*
X105219147Y-106264946D01*
X104889974Y-106045000D01*
X105219147Y-105825054D01*
X105541054Y-105343285D01*
X105654093Y-104775000D01*
X105541054Y-104206715D01*
X105219147Y-103724946D01*
X104889974Y-103505000D01*
X105219147Y-103285054D01*
X105541054Y-102803285D01*
X105654093Y-102235000D01*
X105541054Y-101666715D01*
X105219147Y-101184946D01*
X104889974Y-100965000D01*
X105219147Y-100745054D01*
X105541054Y-100263285D01*
X105654093Y-99695000D01*
X105541054Y-99126715D01*
X105219147Y-98644946D01*
X104878447Y-98417298D01*
X105021358Y-98350183D01*
X105411645Y-97921924D01*
X105581476Y-97511890D01*
X105460155Y-97282000D01*
X104267000Y-97282000D01*
X104267000Y-97302000D01*
X104013000Y-97302000D01*
X104013000Y-97282000D01*
X102819845Y-97282000D01*
X102698524Y-97511890D01*
X102868355Y-97921924D01*
X103258642Y-98350183D01*
X103401553Y-98417298D01*
X103060853Y-98644946D01*
X102738946Y-99126715D01*
X102625907Y-99695000D01*
X101180000Y-99695000D01*
X101180000Y-99665907D01*
X101066961Y-99097622D01*
X100745054Y-98615853D01*
X100459422Y-98425000D01*
X100745054Y-98234147D01*
X101066961Y-97752378D01*
X101180000Y-97184093D01*
X101180000Y-97125907D01*
X101066961Y-96557622D01*
X100745054Y-96075853D01*
X100461899Y-95886655D01*
X100461924Y-95886645D01*
X100890183Y-95496358D01*
X101136486Y-94971892D01*
X101015819Y-94742000D01*
X99822000Y-94742000D01*
X99822000Y-94762000D01*
X99568000Y-94762000D01*
X99568000Y-94742000D01*
X97282000Y-94742000D01*
X97282000Y-94762000D01*
X97028000Y-94762000D01*
X97028000Y-94742000D01*
X94742000Y-94742000D01*
X94742000Y-94762000D01*
X94488000Y-94762000D01*
X94488000Y-94742000D01*
X92202000Y-94742000D01*
X92202000Y-94762000D01*
X91948000Y-94762000D01*
X91948000Y-94742000D01*
X89662000Y-94742000D01*
X89662000Y-94762000D01*
X89408000Y-94762000D01*
X89408000Y-94742000D01*
X87122000Y-94742000D01*
X87122000Y-94762000D01*
X86868000Y-94762000D01*
X86868000Y-94742000D01*
X84582000Y-94742000D01*
X84582000Y-94762000D01*
X84328000Y-94762000D01*
X84328000Y-94742000D01*
X82042000Y-94742000D01*
X82042000Y-94762000D01*
X81788000Y-94762000D01*
X81788000Y-94742000D01*
X79502000Y-94742000D01*
X79502000Y-94762000D01*
X79248000Y-94762000D01*
X79248000Y-94742000D01*
X76962000Y-94742000D01*
X76962000Y-94762000D01*
X76708000Y-94762000D01*
X76708000Y-94742000D01*
X74422000Y-94742000D01*
X74422000Y-94762000D01*
X74168000Y-94762000D01*
X74168000Y-94742000D01*
X71882000Y-94742000D01*
X71882000Y-94762000D01*
X71628000Y-94762000D01*
X71628000Y-94742000D01*
X69342000Y-94742000D01*
X69342000Y-94762000D01*
X69088000Y-94762000D01*
X69088000Y-94742000D01*
X66802000Y-94742000D01*
X66802000Y-94762000D01*
X66548000Y-94762000D01*
X66548000Y-94742000D01*
X65348750Y-94742000D01*
X65190000Y-94900750D01*
X65190000Y-95591309D01*
X65286673Y-95824698D01*
X65344871Y-95882896D01*
X65228569Y-96053110D01*
X65177560Y-96305000D01*
X65177560Y-98005000D01*
X65221838Y-98240317D01*
X65342015Y-98427077D01*
X65228569Y-98593110D01*
X65177560Y-98845000D01*
X65177560Y-100545000D01*
X65221838Y-100780317D01*
X65225688Y-100786301D01*
X64985000Y-100737560D01*
X63285000Y-100737560D01*
X63049683Y-100781838D01*
X62833559Y-100920910D01*
X62688569Y-101133110D01*
X62677159Y-101189454D01*
X62674147Y-101184946D01*
X62344974Y-100965000D01*
X62674147Y-100745054D01*
X62996054Y-100263285D01*
X63109093Y-99695000D01*
X62996054Y-99126715D01*
X62674147Y-98644946D01*
X62333447Y-98417298D01*
X62476358Y-98350183D01*
X62866645Y-97921924D01*
X63036476Y-97511890D01*
X62915155Y-97282000D01*
X61722000Y-97282000D01*
X61722000Y-97302000D01*
X61468000Y-97302000D01*
X61468000Y-97282000D01*
X61448000Y-97282000D01*
X61448000Y-97028000D01*
X61468000Y-97028000D01*
X61468000Y-97008000D01*
X61722000Y-97008000D01*
X61722000Y-97028000D01*
X62915155Y-97028000D01*
X63036476Y-96798110D01*
X62866645Y-96388076D01*
X62476358Y-95959817D01*
X62333447Y-95892702D01*
X62674147Y-95665054D01*
X62784432Y-95500000D01*
X63499995Y-95500000D01*
X63500000Y-95500001D01*
X63782484Y-95443810D01*
X63838675Y-95432633D01*
X64125790Y-95240790D01*
X64125791Y-95240789D01*
X64760787Y-94605792D01*
X64760790Y-94605790D01*
X64952633Y-94318675D01*
X64952634Y-94318674D01*
X65020001Y-93980000D01*
X65020000Y-93979995D01*
X65020000Y-93711580D01*
X65258668Y-93472911D01*
X65190000Y-93638691D01*
X65190000Y-94329250D01*
X65348750Y-94488000D01*
X66548000Y-94488000D01*
X66548000Y-94468000D01*
X66802000Y-94468000D01*
X66802000Y-94488000D01*
X69088000Y-94488000D01*
X69088000Y-94468000D01*
X69342000Y-94468000D01*
X69342000Y-94488000D01*
X71628000Y-94488000D01*
X71628000Y-94468000D01*
X71882000Y-94468000D01*
X71882000Y-94488000D01*
X74168000Y-94488000D01*
X74168000Y-94468000D01*
X74422000Y-94468000D01*
X74422000Y-94488000D01*
X76708000Y-94488000D01*
X76708000Y-94468000D01*
X76962000Y-94468000D01*
X76962000Y-94488000D01*
X79248000Y-94488000D01*
X79248000Y-94468000D01*
X79502000Y-94468000D01*
X79502000Y-94488000D01*
X81788000Y-94488000D01*
X81788000Y-94468000D01*
X82042000Y-94468000D01*
X82042000Y-94488000D01*
X84328000Y-94488000D01*
X84328000Y-94468000D01*
X84582000Y-94468000D01*
X84582000Y-94488000D01*
X86868000Y-94488000D01*
X86868000Y-94468000D01*
X87122000Y-94468000D01*
X87122000Y-94488000D01*
X89408000Y-94488000D01*
X89408000Y-94468000D01*
X89662000Y-94468000D01*
X89662000Y-94488000D01*
X91948000Y-94488000D01*
X91948000Y-94468000D01*
X92202000Y-94468000D01*
X92202000Y-94488000D01*
X94488000Y-94488000D01*
X94488000Y-94468000D01*
X94742000Y-94468000D01*
X94742000Y-94488000D01*
X97028000Y-94488000D01*
X97028000Y-94468000D01*
X97282000Y-94468000D01*
X97282000Y-94488000D01*
X99568000Y-94488000D01*
X99568000Y-94468000D01*
X99822000Y-94468000D01*
X99822000Y-94488000D01*
X101015819Y-94488000D01*
X101136486Y-94258108D01*
X101123286Y-94230000D01*
X101233420Y-94230000D01*
X102244208Y-95240787D01*
X102244210Y-95240790D01*
X102531325Y-95432633D01*
X102870000Y-95500001D01*
X102870005Y-95500000D01*
X102950568Y-95500000D01*
X103060853Y-95665054D01*
X103401553Y-95892702D01*
X103258642Y-95959817D01*
X102868355Y-96388076D01*
X102698524Y-96798110D01*
X102819845Y-97028000D01*
X104013000Y-97028000D01*
X104013000Y-97008000D01*
X104267000Y-97008000D01*
X104267000Y-97028000D01*
X105460155Y-97028000D01*
X105581476Y-96798110D01*
X105411645Y-96388076D01*
X105021358Y-95959817D01*
X104878447Y-95892702D01*
X105219147Y-95665054D01*
X105541054Y-95183285D01*
X105654093Y-94615000D01*
X105541054Y-94046715D01*
X105219147Y-93564946D01*
X105177548Y-93537150D01*
X105225317Y-93528162D01*
X105441441Y-93389090D01*
X105586431Y-93176890D01*
X105637440Y-92925000D01*
X105637440Y-91225000D01*
X105593162Y-90989683D01*
X105454090Y-90773559D01*
X105241890Y-90628569D01*
X104990000Y-90577560D01*
X103894139Y-90577560D01*
X102225790Y-88909210D01*
X101938675Y-88717367D01*
X101882484Y-88706190D01*
X101600000Y-88649999D01*
X101599995Y-88650000D01*
X100874779Y-88650000D01*
X100745054Y-88455853D01*
X100263285Y-88133946D01*
X99695000Y-88020907D01*
X99126715Y-88133946D01*
X98644946Y-88455853D01*
X98515221Y-88650000D01*
X98334779Y-88650000D01*
X98205054Y-88455853D01*
X97919422Y-88265000D01*
X98205054Y-88074147D01*
X98526961Y-87592378D01*
X98640000Y-87024093D01*
X98640000Y-86965907D01*
X98526961Y-86397622D01*
X98205054Y-85915853D01*
X97919422Y-85725000D01*
X98205054Y-85534147D01*
X98206074Y-85532619D01*
X101904613Y-85532619D01*
X102244155Y-86354372D01*
X102872321Y-86983636D01*
X103693481Y-87324611D01*
X104582619Y-87325387D01*
X105404372Y-86985845D01*
X106033636Y-86357679D01*
X106374611Y-85536519D01*
X106375387Y-84647381D01*
X106035845Y-83825628D01*
X105407679Y-83196364D01*
X104586519Y-82855389D01*
X103697381Y-82854613D01*
X102875628Y-83194155D01*
X102246364Y-83822321D01*
X101905389Y-84643481D01*
X101904613Y-85532619D01*
X98206074Y-85532619D01*
X98526961Y-85052378D01*
X98640000Y-84484093D01*
X98640000Y-84425907D01*
X98526961Y-83857622D01*
X98205054Y-83375853D01*
X97723285Y-83053946D01*
X97155000Y-82940907D01*
X96586715Y-83053946D01*
X96104946Y-83375853D01*
X95885000Y-83705026D01*
X95665054Y-83375853D01*
X95183285Y-83053946D01*
X94615000Y-82940907D01*
X94046715Y-83053946D01*
X93564946Y-83375853D01*
X93345000Y-83705026D01*
X93125054Y-83375853D01*
X92643285Y-83053946D01*
X92075000Y-82940907D01*
X91506715Y-83053946D01*
X91024946Y-83375853D01*
X90805000Y-83705026D01*
X90585054Y-83375853D01*
X90103285Y-83053946D01*
X89535000Y-82940907D01*
X88966715Y-83053946D01*
X88484946Y-83375853D01*
X88265000Y-83705026D01*
X88045054Y-83375853D01*
X87563285Y-83053946D01*
X86995000Y-82940907D01*
X86426715Y-83053946D01*
X85944946Y-83375853D01*
X85725000Y-83705026D01*
X85505054Y-83375853D01*
X85023285Y-83053946D01*
X84455000Y-82940907D01*
X83886715Y-83053946D01*
X83404946Y-83375853D01*
X83185000Y-83705026D01*
X82965054Y-83375853D01*
X82483285Y-83053946D01*
X81915000Y-82940907D01*
X81346715Y-83053946D01*
X80864946Y-83375853D01*
X80645000Y-83705026D01*
X80425054Y-83375853D01*
X79943285Y-83053946D01*
X79375000Y-82940907D01*
X78806715Y-83053946D01*
X78324946Y-83375853D01*
X78105000Y-83705026D01*
X77885054Y-83375853D01*
X77403285Y-83053946D01*
X76835000Y-82940907D01*
X76266715Y-83053946D01*
X75784946Y-83375853D01*
X75557298Y-83716553D01*
X75490183Y-83573642D01*
X75061924Y-83183355D01*
X74651890Y-83013524D01*
X74422000Y-83134845D01*
X74422000Y-84328000D01*
X74442000Y-84328000D01*
X74442000Y-84582000D01*
X74422000Y-84582000D01*
X74422000Y-85775155D01*
X74651890Y-85896476D01*
X75061924Y-85726645D01*
X75490183Y-85336358D01*
X75557298Y-85193447D01*
X75784946Y-85534147D01*
X76266715Y-85856054D01*
X76835000Y-85969093D01*
X77403285Y-85856054D01*
X77885054Y-85534147D01*
X78105000Y-85204974D01*
X78324946Y-85534147D01*
X78326179Y-85534971D01*
X78289683Y-85541838D01*
X78073559Y-85680910D01*
X77928569Y-85893110D01*
X77877560Y-86145000D01*
X77877560Y-87845000D01*
X77921838Y-88080317D01*
X78060910Y-88296441D01*
X78273110Y-88441431D01*
X78329454Y-88452841D01*
X78324946Y-88455853D01*
X78195221Y-88650000D01*
X78014779Y-88650000D01*
X77885054Y-88455853D01*
X77403285Y-88133946D01*
X76835000Y-88020907D01*
X76266715Y-88133946D01*
X75784946Y-88455853D01*
X75655221Y-88650000D01*
X75474779Y-88650000D01*
X75345054Y-88455853D01*
X74863285Y-88133946D01*
X74295000Y-88020907D01*
X73726715Y-88133946D01*
X73244946Y-88455853D01*
X73115221Y-88650000D01*
X72934779Y-88650000D01*
X72805054Y-88455853D01*
X72323285Y-88133946D01*
X71755000Y-88020907D01*
X71186715Y-88133946D01*
X70704946Y-88455853D01*
X70575221Y-88650000D01*
X70394779Y-88650000D01*
X70265054Y-88455853D01*
X69783285Y-88133946D01*
X69215000Y-88020907D01*
X68646715Y-88133946D01*
X68164946Y-88455853D01*
X68137150Y-88497452D01*
X68128162Y-88449683D01*
X67989090Y-88233559D01*
X67776890Y-88088569D01*
X67560000Y-88044648D01*
X67560000Y-87361580D01*
X68969139Y-85952440D01*
X70065000Y-85952440D01*
X70300317Y-85908162D01*
X70516441Y-85769090D01*
X70661431Y-85556890D01*
X70675086Y-85489459D01*
X70704946Y-85534147D01*
X71186715Y-85856054D01*
X71755000Y-85969093D01*
X72323285Y-85856054D01*
X72805054Y-85534147D01*
X73032702Y-85193447D01*
X73099817Y-85336358D01*
X73528076Y-85726645D01*
X73938110Y-85896476D01*
X74168000Y-85775155D01*
X74168000Y-84582000D01*
X74148000Y-84582000D01*
X74148000Y-84328000D01*
X74168000Y-84328000D01*
X74168000Y-83134845D01*
X73938110Y-83013524D01*
X73528076Y-83183355D01*
X73099817Y-83573642D01*
X73032702Y-83716553D01*
X72805054Y-83375853D01*
X72323285Y-83053946D01*
X71755000Y-82940907D01*
X71186715Y-83053946D01*
X70704946Y-83375853D01*
X70677150Y-83417452D01*
X70668162Y-83369683D01*
X70529090Y-83153559D01*
X70316890Y-83008569D01*
X70065000Y-82957560D01*
X68365000Y-82957560D01*
X68129683Y-83001838D01*
X67913559Y-83140910D01*
X67768569Y-83353110D01*
X67717560Y-83605000D01*
X67717560Y-84700861D01*
X66049210Y-86369210D01*
X65857367Y-86656325D01*
X65857367Y-86656326D01*
X65789999Y-86995000D01*
X65790000Y-86995005D01*
X65790000Y-88044146D01*
X65589683Y-88081838D01*
X65373559Y-88220910D01*
X65228569Y-88433110D01*
X65184648Y-88650000D01*
X64135005Y-88650000D01*
X64135000Y-88649999D01*
X63852516Y-88706190D01*
X63796325Y-88717367D01*
X63509210Y-88909210D01*
X63509208Y-88909213D01*
X61840860Y-90577560D01*
X60745000Y-90577560D01*
X60509683Y-90621838D01*
X60293559Y-90760910D01*
X60148569Y-90973110D01*
X60097560Y-91225000D01*
X60097560Y-92925000D01*
X60141838Y-93160317D01*
X60280910Y-93376441D01*
X60493110Y-93521431D01*
X60560541Y-93535086D01*
X60515853Y-93564946D01*
X60405568Y-93730000D01*
X60325005Y-93730000D01*
X60325000Y-93729999D01*
X59986326Y-93797366D01*
X59986324Y-93797367D01*
X59986325Y-93797367D01*
X59817000Y-93910506D01*
X59817000Y-85532619D01*
X59994613Y-85532619D01*
X60334155Y-86354372D01*
X60962321Y-86983636D01*
X61783481Y-87324611D01*
X62672619Y-87325387D01*
X63494372Y-86985845D01*
X64123636Y-86357679D01*
X64464611Y-85536519D01*
X64465387Y-84647381D01*
X64125845Y-83825628D01*
X63497679Y-83196364D01*
X62676519Y-82855389D01*
X61787381Y-82854613D01*
X60965628Y-83194155D01*
X60336364Y-83822321D01*
X59995389Y-84643481D01*
X59994613Y-85532619D01*
X59817000Y-85532619D01*
X59817000Y-82677000D01*
X106553000Y-82677000D01*
X106553000Y-129413000D01*
X106553000Y-129413000D01*
G37*
X106553000Y-129413000D02*
X94088579Y-129413000D01*
X94396040Y-129105539D01*
X94615000Y-129149093D01*
X95183285Y-129036054D01*
X95665054Y-128714147D01*
X95692850Y-128672548D01*
X95701838Y-128720317D01*
X95840910Y-128936441D01*
X96053110Y-129081431D01*
X96305000Y-129132440D01*
X98005000Y-129132440D01*
X98240317Y-129088162D01*
X98456441Y-128949090D01*
X98601431Y-128736890D01*
X98652440Y-128485000D01*
X98652440Y-127442619D01*
X101904613Y-127442619D01*
X102244155Y-128264372D01*
X102872321Y-128893636D01*
X103693481Y-129234611D01*
X104582619Y-129235387D01*
X105404372Y-128895845D01*
X106033636Y-128267679D01*
X106374611Y-127446519D01*
X106375387Y-126557381D01*
X106035845Y-125735628D01*
X105407679Y-125106364D01*
X104586519Y-124765389D01*
X103697381Y-124764613D01*
X102875628Y-125104155D01*
X102246364Y-125732321D01*
X101905389Y-126553481D01*
X101904613Y-127442619D01*
X98652440Y-127442619D01*
X98652440Y-126785000D01*
X98608162Y-126549683D01*
X98469090Y-126333559D01*
X98256890Y-126188569D01*
X98005000Y-126137560D01*
X96305000Y-126137560D01*
X96069683Y-126181838D01*
X95853559Y-126320910D01*
X95708569Y-126533110D01*
X95694914Y-126600541D01*
X95665054Y-126555853D01*
X95183285Y-126233946D01*
X94615000Y-126120907D01*
X94046715Y-126233946D01*
X93564946Y-126555853D01*
X93337298Y-126896553D01*
X93270183Y-126753642D01*
X92841924Y-126363355D01*
X92431890Y-126193524D01*
X92202000Y-126314845D01*
X92202000Y-127508000D01*
X92222000Y-127508000D01*
X92222000Y-127762000D01*
X92202000Y-127762000D01*
X92202000Y-127782000D01*
X91948000Y-127782000D01*
X91948000Y-127762000D01*
X91928000Y-127762000D01*
X91928000Y-127508000D01*
X91948000Y-127508000D01*
X91948000Y-126314845D01*
X91718110Y-126193524D01*
X91308076Y-126363355D01*
X90879817Y-126753642D01*
X90812702Y-126896553D01*
X90585054Y-126555853D01*
X90103285Y-126233946D01*
X89535000Y-126120907D01*
X88966715Y-126233946D01*
X88484946Y-126555853D01*
X88265000Y-126885026D01*
X88045054Y-126555853D01*
X87759422Y-126365000D01*
X88045054Y-126174147D01*
X88366961Y-125692378D01*
X88480000Y-125124093D01*
X88480000Y-125065907D01*
X88366961Y-124497622D01*
X88045054Y-124015853D01*
X87759422Y-123825000D01*
X88045054Y-123634147D01*
X88265000Y-123304974D01*
X88484946Y-123634147D01*
X88966715Y-123956054D01*
X89535000Y-124069093D01*
X90103285Y-123956054D01*
X90585054Y-123634147D01*
X90805000Y-123304974D01*
X91024946Y-123634147D01*
X91506715Y-123956054D01*
X92075000Y-124069093D01*
X92643285Y-123956054D01*
X93125054Y-123634147D01*
X93345000Y-123304974D01*
X93564946Y-123634147D01*
X94046715Y-123956054D01*
X94615000Y-124069093D01*
X95183285Y-123956054D01*
X95665054Y-123634147D01*
X95885000Y-123304974D01*
X96104946Y-123634147D01*
X96586715Y-123956054D01*
X97155000Y-124069093D01*
X97723285Y-123956054D01*
X98205054Y-123634147D01*
X98425000Y-123304974D01*
X98644946Y-123634147D01*
X99126715Y-123956054D01*
X99695000Y-124069093D01*
X100263285Y-123956054D01*
X100745054Y-123634147D01*
X101066961Y-123152378D01*
X101180000Y-122584093D01*
X101180000Y-122525907D01*
X101066961Y-121957622D01*
X100745054Y-121475853D01*
X100452198Y-121280173D01*
X100774147Y-121065054D01*
X101096054Y-120583285D01*
X101209093Y-120015000D01*
X101096054Y-119446715D01*
X100774147Y-118964946D01*
X100444974Y-118745000D01*
X100774147Y-118525054D01*
X101096054Y-118043285D01*
X101209093Y-117475000D01*
X101096054Y-116906715D01*
X100774147Y-116424946D01*
X100444974Y-116205000D01*
X100774147Y-115985054D01*
X101096054Y-115503285D01*
X101209093Y-114935000D01*
X101096054Y-114366715D01*
X100774147Y-113884946D01*
X100444974Y-113665000D01*
X100774147Y-113445054D01*
X101096054Y-112963285D01*
X101209093Y-112395000D01*
X101096054Y-111826715D01*
X100774147Y-111344946D01*
X100444974Y-111125000D01*
X100774147Y-110905054D01*
X101096054Y-110423285D01*
X101209093Y-109855000D01*
X101096054Y-109286715D01*
X100774147Y-108804946D01*
X100444974Y-108585000D01*
X100774147Y-108365054D01*
X101096054Y-107883285D01*
X101209093Y-107315000D01*
X101096054Y-106746715D01*
X100774147Y-106264946D01*
X100444974Y-106045000D01*
X100774147Y-105825054D01*
X101096054Y-105343285D01*
X101209093Y-104775000D01*
X101096054Y-104206715D01*
X100774147Y-103724946D01*
X100732548Y-103697150D01*
X100780317Y-103688162D01*
X100996441Y-103549090D01*
X101141431Y-103336890D01*
X101192440Y-103085000D01*
X101192440Y-101385000D01*
X101148162Y-101149683D01*
X101009090Y-100933559D01*
X100796890Y-100788569D01*
X100740546Y-100777159D01*
X100745054Y-100774147D01*
X101066961Y-100292378D01*
X101180000Y-99724093D01*
X101180000Y-99695000D01*
X102625907Y-99695000D01*
X102738946Y-100263285D01*
X103060853Y-100745054D01*
X103390026Y-100965000D01*
X103060853Y-101184946D01*
X102738946Y-101666715D01*
X102625907Y-102235000D01*
X102738946Y-102803285D01*
X103060853Y-103285054D01*
X103390026Y-103505000D01*
X103060853Y-103724946D01*
X102738946Y-104206715D01*
X102625907Y-104775000D01*
X102738946Y-105343285D01*
X103060853Y-105825054D01*
X103390026Y-106045000D01*
X103060853Y-106264946D01*
X102738946Y-106746715D01*
X102625907Y-107315000D01*
X102738946Y-107883285D01*
X103060853Y-108365054D01*
X103390026Y-108585000D01*
X103060853Y-108804946D01*
X102738946Y-109286715D01*
X102625907Y-109855000D01*
X102738946Y-110423285D01*
X103060853Y-110905054D01*
X103390026Y-111125000D01*
X103060853Y-111344946D01*
X102738946Y-111826715D01*
X102625907Y-112395000D01*
X102738946Y-112963285D01*
X103060853Y-113445054D01*
X103390026Y-113665000D01*
X103060853Y-113884946D01*
X102738946Y-114366715D01*
X102625907Y-114935000D01*
X102738946Y-115503285D01*
X103060853Y-115985054D01*
X103390026Y-116205000D01*
X103060853Y-116424946D01*
X102738946Y-116906715D01*
X102625907Y-117475000D01*
X102738946Y-118043285D01*
X103060853Y-118525054D01*
X103390026Y-118745000D01*
X103060853Y-118964946D01*
X102738946Y-119446715D01*
X102625907Y-120015000D01*
X102738946Y-120583285D01*
X103060853Y-121065054D01*
X103542622Y-121386961D01*
X104110907Y-121500000D01*
X104169093Y-121500000D01*
X104737378Y-121386961D01*
X105219147Y-121065054D01*
X105541054Y-120583285D01*
X105654093Y-120015000D01*
X105541054Y-119446715D01*
X105219147Y-118964946D01*
X104889974Y-118745000D01*
X105219147Y-118525054D01*
X105541054Y-118043285D01*
X105654093Y-117475000D01*
X105541054Y-116906715D01*
X105219147Y-116424946D01*
X104889974Y-116205000D01*
X105219147Y-115985054D01*
X105541054Y-115503285D01*
X105654093Y-114935000D01*
X105541054Y-114366715D01*
X105219147Y-113884946D01*
X104889974Y-113665000D01*
X105219147Y-113445054D01*
X105541054Y-112963285D01*
X105654093Y-112395000D01*
X105541054Y-111826715D01*
X105219147Y-111344946D01*
X104889974Y-111125000D01*
X105219147Y-110905054D01*
X105541054Y-110423285D01*
X105654093Y-109855000D01*
X105541054Y-109286715D01*
X105219147Y-108804946D01*
X104889974Y-108585000D01*
X105219147Y-108365054D01*
X105541054Y-107883285D01*
X105654093Y-107315000D01*
X105541054Y-106746715D01*
X105219147Y-106264946D01*
X104889974Y-106045000D01*
X105219147Y-105825054D01*
X105541054Y-105343285D01*
X105654093Y-104775000D01*
X105541054Y-104206715D01*
X105219147Y-103724946D01*
X104889974Y-103505000D01*
X105219147Y-103285054D01*
X105541054Y-102803285D01*
X105654093Y-102235000D01*
X105541054Y-101666715D01*
X105219147Y-101184946D01*
X104889974Y-100965000D01*
X105219147Y-100745054D01*
X105541054Y-100263285D01*
X105654093Y-99695000D01*
X105541054Y-99126715D01*
X105219147Y-98644946D01*
X104878447Y-98417298D01*
X105021358Y-98350183D01*
X105411645Y-97921924D01*
X105581476Y-97511890D01*
X105460155Y-97282000D01*
X104267000Y-97282000D01*
X104267000Y-97302000D01*
X104013000Y-97302000D01*
X104013000Y-97282000D01*
X102819845Y-97282000D01*
X102698524Y-97511890D01*
X102868355Y-97921924D01*
X103258642Y-98350183D01*
X103401553Y-98417298D01*
X103060853Y-98644946D01*
X102738946Y-99126715D01*
X102625907Y-99695000D01*
X101180000Y-99695000D01*
X101180000Y-99665907D01*
X101066961Y-99097622D01*
X100745054Y-98615853D01*
X100459422Y-98425000D01*
X100745054Y-98234147D01*
X101066961Y-97752378D01*
X101180000Y-97184093D01*
X101180000Y-97125907D01*
X101066961Y-96557622D01*
X100745054Y-96075853D01*
X100461899Y-95886655D01*
X100461924Y-95886645D01*
X100890183Y-95496358D01*
X101136486Y-94971892D01*
X101015819Y-94742000D01*
X99822000Y-94742000D01*
X99822000Y-94762000D01*
X99568000Y-94762000D01*
X99568000Y-94742000D01*
X97282000Y-94742000D01*
X97282000Y-94762000D01*
X97028000Y-94762000D01*
X97028000Y-94742000D01*
X94742000Y-94742000D01*
X94742000Y-94762000D01*
X94488000Y-94762000D01*
X94488000Y-94742000D01*
X92202000Y-94742000D01*
X92202000Y-94762000D01*
X91948000Y-94762000D01*
X91948000Y-94742000D01*
X89662000Y-94742000D01*
X89662000Y-94762000D01*
X89408000Y-94762000D01*
X89408000Y-94742000D01*
X87122000Y-94742000D01*
X87122000Y-94762000D01*
X86868000Y-94762000D01*
X86868000Y-94742000D01*
X84582000Y-94742000D01*
X84582000Y-94762000D01*
X84328000Y-94762000D01*
X84328000Y-94742000D01*
X82042000Y-94742000D01*
X82042000Y-94762000D01*
X81788000Y-94762000D01*
X81788000Y-94742000D01*
X79502000Y-94742000D01*
X79502000Y-94762000D01*
X79248000Y-94762000D01*
X79248000Y-94742000D01*
X76962000Y-94742000D01*
X76962000Y-94762000D01*
X76708000Y-94762000D01*
X76708000Y-94742000D01*
X74422000Y-94742000D01*
X74422000Y-94762000D01*
X74168000Y-94762000D01*
X74168000Y-94742000D01*
X71882000Y-94742000D01*
X71882000Y-94762000D01*
X71628000Y-94762000D01*
X71628000Y-94742000D01*
X69342000Y-94742000D01*
X69342000Y-94762000D01*
X69088000Y-94762000D01*
X69088000Y-94742000D01*
X66802000Y-94742000D01*
X66802000Y-94762000D01*
X66548000Y-94762000D01*
X66548000Y-94742000D01*
X65348750Y-94742000D01*
X65190000Y-94900750D01*
X65190000Y-95591309D01*
X65286673Y-95824698D01*
X65344871Y-95882896D01*
X65228569Y-96053110D01*
X65177560Y-96305000D01*
X65177560Y-98005000D01*
X65221838Y-98240317D01*
X65342015Y-98427077D01*
X65228569Y-98593110D01*
X65177560Y-98845000D01*
X65177560Y-100545000D01*
X65221838Y-100780317D01*
X65225688Y-100786301D01*
X64985000Y-100737560D01*
X63285000Y-100737560D01*
X63049683Y-100781838D01*
X62833559Y-100920910D01*
X62688569Y-101133110D01*
X62677159Y-101189454D01*
X62674147Y-101184946D01*
X62344974Y-100965000D01*
X62674147Y-100745054D01*
X62996054Y-100263285D01*
X63109093Y-99695000D01*
X62996054Y-99126715D01*
X62674147Y-98644946D01*
X62333447Y-98417298D01*
X62476358Y-98350183D01*
X62866645Y-97921924D01*
X63036476Y-97511890D01*
X62915155Y-97282000D01*
X61722000Y-97282000D01*
X61722000Y-97302000D01*
X61468000Y-97302000D01*
X61468000Y-97282000D01*
X61448000Y-97282000D01*
X61448000Y-97028000D01*
X61468000Y-97028000D01*
X61468000Y-97008000D01*
X61722000Y-97008000D01*
X61722000Y-97028000D01*
X62915155Y-97028000D01*
X63036476Y-96798110D01*
X62866645Y-96388076D01*
X62476358Y-95959817D01*
X62333447Y-95892702D01*
X62674147Y-95665054D01*
X62784432Y-95500000D01*
X63499995Y-95500000D01*
X63500000Y-95500001D01*
X63782484Y-95443810D01*
X63838675Y-95432633D01*
X64125790Y-95240790D01*
X64125791Y-95240789D01*
X64760787Y-94605792D01*
X64760790Y-94605790D01*
X64952633Y-94318675D01*
X64952634Y-94318674D01*
X65020001Y-93980000D01*
X65020000Y-93979995D01*
X65020000Y-93711580D01*
X65258668Y-93472911D01*
X65190000Y-93638691D01*
X65190000Y-94329250D01*
X65348750Y-94488000D01*
X66548000Y-94488000D01*
X66548000Y-94468000D01*
X66802000Y-94468000D01*
X66802000Y-94488000D01*
X69088000Y-94488000D01*
X69088000Y-94468000D01*
X69342000Y-94468000D01*
X69342000Y-94488000D01*
X71628000Y-94488000D01*
X71628000Y-94468000D01*
X71882000Y-94468000D01*
X71882000Y-94488000D01*
X74168000Y-94488000D01*
X74168000Y-94468000D01*
X74422000Y-94468000D01*
X74422000Y-94488000D01*
X76708000Y-94488000D01*
X76708000Y-94468000D01*
X76962000Y-94468000D01*
X76962000Y-94488000D01*
X79248000Y-94488000D01*
X79248000Y-94468000D01*
X79502000Y-94468000D01*
X79502000Y-94488000D01*
X81788000Y-94488000D01*
X81788000Y-94468000D01*
X82042000Y-94468000D01*
X82042000Y-94488000D01*
X84328000Y-94488000D01*
X84328000Y-94468000D01*
X84582000Y-94468000D01*
X84582000Y-94488000D01*
X86868000Y-94488000D01*
X86868000Y-94468000D01*
X87122000Y-94468000D01*
X87122000Y-94488000D01*
X89408000Y-94488000D01*
X89408000Y-94468000D01*
X89662000Y-94468000D01*
X89662000Y-94488000D01*
X91948000Y-94488000D01*
X91948000Y-94468000D01*
X92202000Y-94468000D01*
X92202000Y-94488000D01*
X94488000Y-94488000D01*
X94488000Y-94468000D01*
X94742000Y-94468000D01*
X94742000Y-94488000D01*
X97028000Y-94488000D01*
X97028000Y-94468000D01*
X97282000Y-94468000D01*
X97282000Y-94488000D01*
X99568000Y-94488000D01*
X99568000Y-94468000D01*
X99822000Y-94468000D01*
X99822000Y-94488000D01*
X101015819Y-94488000D01*
X101136486Y-94258108D01*
X101123286Y-94230000D01*
X101233420Y-94230000D01*
X102244208Y-95240787D01*
X102244210Y-95240790D01*
X102531325Y-95432633D01*
X102870000Y-95500001D01*
X102870005Y-95500000D01*
X102950568Y-95500000D01*
X103060853Y-95665054D01*
X103401553Y-95892702D01*
X103258642Y-95959817D01*
X102868355Y-96388076D01*
X102698524Y-96798110D01*
X102819845Y-97028000D01*
X104013000Y-97028000D01*
X104013000Y-97008000D01*
X104267000Y-97008000D01*
X104267000Y-97028000D01*
X105460155Y-97028000D01*
X105581476Y-96798110D01*
X105411645Y-96388076D01*
X105021358Y-95959817D01*
X104878447Y-95892702D01*
X105219147Y-95665054D01*
X105541054Y-95183285D01*
X105654093Y-94615000D01*
X105541054Y-94046715D01*
X105219147Y-93564946D01*
X105177548Y-93537150D01*
X105225317Y-93528162D01*
X105441441Y-93389090D01*
X105586431Y-93176890D01*
X105637440Y-92925000D01*
X105637440Y-91225000D01*
X105593162Y-90989683D01*
X105454090Y-90773559D01*
X105241890Y-90628569D01*
X104990000Y-90577560D01*
X103894139Y-90577560D01*
X102225790Y-88909210D01*
X101938675Y-88717367D01*
X101882484Y-88706190D01*
X101600000Y-88649999D01*
X101599995Y-88650000D01*
X100874779Y-88650000D01*
X100745054Y-88455853D01*
X100263285Y-88133946D01*
X99695000Y-88020907D01*
X99126715Y-88133946D01*
X98644946Y-88455853D01*
X98515221Y-88650000D01*
X98334779Y-88650000D01*
X98205054Y-88455853D01*
X97919422Y-88265000D01*
X98205054Y-88074147D01*
X98526961Y-87592378D01*
X98640000Y-87024093D01*
X98640000Y-86965907D01*
X98526961Y-86397622D01*
X98205054Y-85915853D01*
X97919422Y-85725000D01*
X98205054Y-85534147D01*
X98206074Y-85532619D01*
X101904613Y-85532619D01*
X102244155Y-86354372D01*
X102872321Y-86983636D01*
X103693481Y-87324611D01*
X104582619Y-87325387D01*
X105404372Y-86985845D01*
X106033636Y-86357679D01*
X106374611Y-85536519D01*
X106375387Y-84647381D01*
X106035845Y-83825628D01*
X105407679Y-83196364D01*
X104586519Y-82855389D01*
X103697381Y-82854613D01*
X102875628Y-83194155D01*
X102246364Y-83822321D01*
X101905389Y-84643481D01*
X101904613Y-85532619D01*
X98206074Y-85532619D01*
X98526961Y-85052378D01*
X98640000Y-84484093D01*
X98640000Y-84425907D01*
X98526961Y-83857622D01*
X98205054Y-83375853D01*
X97723285Y-83053946D01*
X97155000Y-82940907D01*
X96586715Y-83053946D01*
X96104946Y-83375853D01*
X95885000Y-83705026D01*
X95665054Y-83375853D01*
X95183285Y-83053946D01*
X94615000Y-82940907D01*
X94046715Y-83053946D01*
X93564946Y-83375853D01*
X93345000Y-83705026D01*
X93125054Y-83375853D01*
X92643285Y-83053946D01*
X92075000Y-82940907D01*
X91506715Y-83053946D01*
X91024946Y-83375853D01*
X90805000Y-83705026D01*
X90585054Y-83375853D01*
X90103285Y-83053946D01*
X89535000Y-82940907D01*
X88966715Y-83053946D01*
X88484946Y-83375853D01*
X88265000Y-83705026D01*
X88045054Y-83375853D01*
X87563285Y-83053946D01*
X86995000Y-82940907D01*
X86426715Y-83053946D01*
X85944946Y-83375853D01*
X85725000Y-83705026D01*
X85505054Y-83375853D01*
X85023285Y-83053946D01*
X84455000Y-82940907D01*
X83886715Y-83053946D01*
X83404946Y-83375853D01*
X83185000Y-83705026D01*
X82965054Y-83375853D01*
X82483285Y-83053946D01*
X81915000Y-82940907D01*
X81346715Y-83053946D01*
X80864946Y-83375853D01*
X80645000Y-83705026D01*
X80425054Y-83375853D01*
X79943285Y-83053946D01*
X79375000Y-82940907D01*
X78806715Y-83053946D01*
X78324946Y-83375853D01*
X78105000Y-83705026D01*
X77885054Y-83375853D01*
X77403285Y-83053946D01*
X76835000Y-82940907D01*
X76266715Y-83053946D01*
X75784946Y-83375853D01*
X75557298Y-83716553D01*
X75490183Y-83573642D01*
X75061924Y-83183355D01*
X74651890Y-83013524D01*
X74422000Y-83134845D01*
X74422000Y-84328000D01*
X74442000Y-84328000D01*
X74442000Y-84582000D01*
X74422000Y-84582000D01*
X74422000Y-85775155D01*
X74651890Y-85896476D01*
X75061924Y-85726645D01*
X75490183Y-85336358D01*
X75557298Y-85193447D01*
X75784946Y-85534147D01*
X76266715Y-85856054D01*
X76835000Y-85969093D01*
X77403285Y-85856054D01*
X77885054Y-85534147D01*
X78105000Y-85204974D01*
X78324946Y-85534147D01*
X78326179Y-85534971D01*
X78289683Y-85541838D01*
X78073559Y-85680910D01*
X77928569Y-85893110D01*
X77877560Y-86145000D01*
X77877560Y-87845000D01*
X77921838Y-88080317D01*
X78060910Y-88296441D01*
X78273110Y-88441431D01*
X78329454Y-88452841D01*
X78324946Y-88455853D01*
X78195221Y-88650000D01*
X78014779Y-88650000D01*
X77885054Y-88455853D01*
X77403285Y-88133946D01*
X76835000Y-88020907D01*
X76266715Y-88133946D01*
X75784946Y-88455853D01*
X75655221Y-88650000D01*
X75474779Y-88650000D01*
X75345054Y-88455853D01*
X74863285Y-88133946D01*
X74295000Y-88020907D01*
X73726715Y-88133946D01*
X73244946Y-88455853D01*
X73115221Y-88650000D01*
X72934779Y-88650000D01*
X72805054Y-88455853D01*
X72323285Y-88133946D01*
X71755000Y-88020907D01*
X71186715Y-88133946D01*
X70704946Y-88455853D01*
X70575221Y-88650000D01*
X70394779Y-88650000D01*
X70265054Y-88455853D01*
X69783285Y-88133946D01*
X69215000Y-88020907D01*
X68646715Y-88133946D01*
X68164946Y-88455853D01*
X68137150Y-88497452D01*
X68128162Y-88449683D01*
X67989090Y-88233559D01*
X67776890Y-88088569D01*
X67560000Y-88044648D01*
X67560000Y-87361580D01*
X68969139Y-85952440D01*
X70065000Y-85952440D01*
X70300317Y-85908162D01*
X70516441Y-85769090D01*
X70661431Y-85556890D01*
X70675086Y-85489459D01*
X70704946Y-85534147D01*
X71186715Y-85856054D01*
X71755000Y-85969093D01*
X72323285Y-85856054D01*
X72805054Y-85534147D01*
X73032702Y-85193447D01*
X73099817Y-85336358D01*
X73528076Y-85726645D01*
X73938110Y-85896476D01*
X74168000Y-85775155D01*
X74168000Y-84582000D01*
X74148000Y-84582000D01*
X74148000Y-84328000D01*
X74168000Y-84328000D01*
X74168000Y-83134845D01*
X73938110Y-83013524D01*
X73528076Y-83183355D01*
X73099817Y-83573642D01*
X73032702Y-83716553D01*
X72805054Y-83375853D01*
X72323285Y-83053946D01*
X71755000Y-82940907D01*
X71186715Y-83053946D01*
X70704946Y-83375853D01*
X70677150Y-83417452D01*
X70668162Y-83369683D01*
X70529090Y-83153559D01*
X70316890Y-83008569D01*
X70065000Y-82957560D01*
X68365000Y-82957560D01*
X68129683Y-83001838D01*
X67913559Y-83140910D01*
X67768569Y-83353110D01*
X67717560Y-83605000D01*
X67717560Y-84700861D01*
X66049210Y-86369210D01*
X65857367Y-86656325D01*
X65857367Y-86656326D01*
X65789999Y-86995000D01*
X65790000Y-86995005D01*
X65790000Y-88044146D01*
X65589683Y-88081838D01*
X65373559Y-88220910D01*
X65228569Y-88433110D01*
X65184648Y-88650000D01*
X64135005Y-88650000D01*
X64135000Y-88649999D01*
X63852516Y-88706190D01*
X63796325Y-88717367D01*
X63509210Y-88909210D01*
X63509208Y-88909213D01*
X61840860Y-90577560D01*
X60745000Y-90577560D01*
X60509683Y-90621838D01*
X60293559Y-90760910D01*
X60148569Y-90973110D01*
X60097560Y-91225000D01*
X60097560Y-92925000D01*
X60141838Y-93160317D01*
X60280910Y-93376441D01*
X60493110Y-93521431D01*
X60560541Y-93535086D01*
X60515853Y-93564946D01*
X60405568Y-93730000D01*
X60325005Y-93730000D01*
X60325000Y-93729999D01*
X59986326Y-93797366D01*
X59986324Y-93797367D01*
X59986325Y-93797367D01*
X59817000Y-93910506D01*
X59817000Y-85532619D01*
X59994613Y-85532619D01*
X60334155Y-86354372D01*
X60962321Y-86983636D01*
X61783481Y-87324611D01*
X62672619Y-87325387D01*
X63494372Y-86985845D01*
X64123636Y-86357679D01*
X64464611Y-85536519D01*
X64465387Y-84647381D01*
X64125845Y-83825628D01*
X63497679Y-83196364D01*
X62676519Y-82855389D01*
X61787381Y-82854613D01*
X60965628Y-83194155D01*
X60336364Y-83822321D01*
X59995389Y-84643481D01*
X59994613Y-85532619D01*
X59817000Y-85532619D01*
X59817000Y-82677000D01*
X106553000Y-82677000D01*
X106553000Y-129413000D01*
M02*
