M48
;DRILL file {KiCad 4.0.7+dfsg1-1~bpo9+1} date Mon Apr  2 20:00:03 2018
;FORMAT={-:-/ absolute / metric / decimal}
FMAT,2
METRIC,TZ
T1C0.700
T2C1.000
T3C1.100
T4C3.200
%
G90
G05
M71
T1
X141.605Y-85.09
X141.605Y-95.885
X141.605Y-106.68
X141.605Y-117.475
X149.225Y-85.09
X149.225Y-95.885
X149.225Y-106.68
X149.225Y-117.475
X154.305Y-85.09
X154.305Y-95.885
X154.305Y-106.68
X154.305Y-117.475
X161.925Y-85.09
X161.925Y-95.885
X161.925Y-106.68
X161.925Y-117.475
T2
X130.175Y-92.075
X130.175Y-94.615
X130.175Y-97.155
X130.175Y-99.695
X130.175Y-102.235
X130.175Y-104.775
X130.175Y-107.315
X130.175Y-109.855
X130.175Y-112.395
X130.175Y-114.935
X130.175Y-117.475
X130.175Y-120.015
X130.175Y-122.555
X133.35Y-104.775
X133.35Y-107.315
X133.35Y-109.855
X133.35Y-112.395
X133.35Y-114.935
X133.35Y-117.475
X133.35Y-120.015
X133.35Y-122.555
X135.89Y-104.775
X135.89Y-107.315
X135.89Y-109.855
X135.89Y-112.395
X135.89Y-114.935
X135.89Y-117.475
X135.89Y-120.015
X135.89Y-122.555
X168.275Y-92.075
X168.275Y-94.615
X168.275Y-97.155
X168.275Y-99.695
X168.275Y-102.235
X168.275Y-104.775
X168.275Y-107.315
X168.275Y-109.855
X168.275Y-112.395
X168.275Y-114.935
X168.275Y-117.475
X168.275Y-120.015
X168.275Y-122.555
T3
X142.24Y-88.265
X142.24Y-92.765
X142.24Y-99.06
X142.24Y-103.56
X142.24Y-109.855
X142.24Y-114.355
X142.24Y-120.65
X142.24Y-125.15
X148.74Y-88.265
X148.74Y-92.765
X148.74Y-99.06
X148.74Y-103.56
X148.74Y-109.855
X148.74Y-114.355
X148.74Y-120.65
X148.74Y-125.15
X154.94Y-88.265
X154.94Y-92.765
X154.94Y-99.06
X154.94Y-103.56
X154.94Y-109.855
X154.94Y-114.355
X154.94Y-120.65
X154.94Y-125.15
X161.44Y-88.265
X161.44Y-92.765
X161.44Y-99.06
X161.44Y-103.56
X161.44Y-109.855
X161.44Y-114.355
X161.44Y-120.65
X161.44Y-125.15
T4
X128.27Y-86.36
X128.27Y-128.27
X170.18Y-86.36
X170.18Y-128.27
T0
M30
